g alluringPoolPool
v -0.0061646104 -0.041038394 -0.001021266
v -0.17036384 -0.024515212 -0.002720952
v -0.051517308 -0.018534124 -0.1462447
v -0.0061646104 -0.041038394 -0.001021266
v -0.051517308 -0.018534124 -0.1462447
v 0.12475163 -0.016318142 -0.14798737
v -0.06666356 0.0029373765 -0.31928647
v -0.26416743 -0.005646944 -0.27206194
v -0.23273462 0.018363357 -0.41833958
v -0.0121456385 0.026345253 -0.5236965
v 0.0623163 -0.0009136796 -0.3568294
v -0.23273462 0.018363357 -0.41833958
v -0.30958468 0.032218754 -0.52718186
v -0.0061646104 -0.041038394 -0.001021266
v 0.12475163 -0.016318142 -0.14798737
v 0.18090469 -0.023676157 0.02159053
v -0.0061646104 -0.041038394 -0.001021266
v 0.18090469 -0.023676157 0.02159053
v 0.057002246 -0.017587483 0.17959362
v 0.29155415 -0.0051521063 0.07113862
v 0.26958779 0.00569129 0.24712789
v 0.29155415 -0.0051521063 0.07113862
v -0.0061646104 -0.041038394 -0.001021266
v 0.057002246 -0.017587483 0.17959362
v -0.090587795 -0.030345678 0.13368148
v -0.09314805 0.0055191517 0.36259657
v 0.082217276 0.0048952103 0.2912758
v 0.24602932 0.028066456 0.3811422
v 0.26958779 0.00569129 0.24712789
v 0.45403224 0.015415847 0.24544972
v 0.057002246 -0.017587483 0.17959362
v -0.090587795 -0.030345678 0.13368148
v -0.0061646104 -0.041038394 -0.001021266
v -0.090587795 -0.030345678 0.13368148
v -0.17036384 -0.024515212 -0.002720952
v -0.45252758 0.022365093 0.26418895
v -0.46941656 0.027420998 -0.033250093
v -0.34594434 0.009994209 0.12227875
v -0.49658948 0.026022553 -0.28241047
v -0.26416743 -0.005646944 -0.27206194
v -0.46941656 0.027420998 -0.033250093
v -0.32477397 -0.010401666 -0.109175086
v -0.34594434 0.009994209 0.12227875
v -0.00011897087 0.027657628 0.5305179
v -0.23174495 0.027743697 0.4232462
v -0.09314805 0.0055191517 0.36259657
v -0.23174495 0.027743697 0.4232462
v -0.23017436 0.009822071 0.2434274
v -0.09314805 0.0055191517 0.36259657
v -0.34594434 0.009994209 0.12227875
v -0.17036384 -0.024515212 -0.002720952
v 0.4562913 0.023677468 -0.2660809
v 0.44609338 0.019116342 0.008939981
v 0.3112185 0.010101736 -0.114274025
v 0.45403224 0.015415847 0.24544972
v 0.26958779 0.00569129 0.24712789
v 0.44609338 0.019116342 0.008939981
v 0.29155415 -0.0051521063 0.07113862
v 0.3112185 0.010101736 -0.114274025
v -0.0121456385 0.026345253 -0.5236965
v 0.22802162 0.020106018 -0.3981589
v 0.0623163 -0.0009136796 -0.3568294
v 0.22802162 0.020106018 -0.3981589
v 0.19645971 0.0054330826 -0.25050434
v 0.0623163 -0.0009136796 -0.3568294
v 0.3112185 0.010101736 -0.114274025
v 0.19645971 0.0054330826 -0.25050434
v 0.18090469 -0.023676157 0.02159053
v 0.12475163 -0.016318142 -0.14798737
v 0.0623163 -0.0009136796 -0.3568294
v -0.49658948 0.026022553 -0.28241047
v -0.23273462 0.018363357 -0.41833958
v -0.26416743 -0.005646944 -0.27206194
v -0.61573714 0.03751135 0.35872406
v -0.60560375 0.024172306 -0.0005264282
v -0.45252758 0.022365093 0.26418895
v -0.60560375 0.024172306 -0.0005264282
v -0.46941656 0.027420998 -0.033250093
v -0.45252758 0.022365093 0.26418895
v -0.49658948 0.026022553 -0.28241047
v 0.002914548 0.030777276 0.706163
v -0.3021837 0.029486418 0.53021675
v -0.00011897087 0.027657628 0.5305179
v -0.23174495 0.027743697 0.4232462
v -0.45252758 0.022365093 0.26418895
v 0.6131541 0.030131817 0.35039788
v 0.3081634 0.03026092 0.5280867
v 0.45403224 0.015415847 0.24544972
v 0.3081634 0.03026092 0.5280867
v 0.24602932 0.028066456 0.3811422
v 0.45403224 0.015415847 0.24544972
v 0.61577886 0.024451971 -0.35870117
v 0.6007617 0.04028672 0.0027222633
v 0.4562913 0.023677468 -0.2660809
v 0.6007617 0.04028672 0.0027222633
v 0.44609338 0.019116342 0.008939981
v 0.4562913 0.023677468 -0.2660809
v 0.45403224 0.015415847 0.24544972
v 0.6131541 0.030131817 0.35039788
v -0.0069606304 0.03441322 -0.703795
v 0.30480716 0.028776407 -0.5315063
v -0.0121456385 0.026345253 -0.5236965
v 0.22802162 0.020106018 -0.3981589
v 0.4562913 0.023677468 -0.2660809
v 0.3112185 0.010101736 -0.114274025
v 0.61577886 0.024451971 -0.35870117
v 0.4562913 0.023677468 -0.2660809
v -0.6222561 0.041039705 -0.34514698
v -0.30958468 0.032218754 -0.52718186
v -0.49658948 0.026022553 -0.28241047
v -0.23273462 0.018363357 -0.41833958
v 0.0623163 -0.0009136796 -0.3568294
v -0.06666356 0.0029373765 -0.31928647
v 0.12475163 -0.016318142 -0.14798737
v -0.34594434 0.009994209 0.12227875
v -0.32477397 -0.010401666 -0.109175086
v -0.17036384 -0.024515212 -0.002720952
v -0.32477397 -0.010401666 -0.109175086
v -0.051517308 -0.018534124 -0.1462447
v -0.17036384 -0.024515212 -0.002720952
v -0.26416743 -0.005646944 -0.27206194
v -0.09314805 0.0055191517 0.36259657
v -0.23017436 0.009822071 0.2434274
v -0.090587795 -0.030345678 0.13368148
v -0.23017436 0.009822071 0.2434274
v -0.17036384 -0.024515212 -0.002720952
v -0.090587795 -0.030345678 0.13368148
v 0.3112185 0.010101736 -0.114274025
v 0.29155415 -0.0051521063 0.07113862
v 0.18090469 -0.023676157 0.02159053
v -0.45252758 0.022365093 0.26418895
v -0.34594434 0.009994209 0.12227875
v -0.23174495 0.027743697 0.4232462
v -0.61573714 0.03751135 0.35872406
v -0.3021837 0.029486418 0.53021675
v -0.00011897087 0.027657628 0.5305179
v -0.09314805 0.0055191517 0.36259657
v 0.24602932 0.028066456 0.3811422
v 0.002914548 0.030777276 0.706163
v -0.00011897087 0.027657628 0.5305179
v 0.3081634 0.03026092 0.5280867
v 0.24602932 0.028066456 0.3811422
v 0.26958779 0.00569129 0.24712789
v 0.29155415 -0.0051521063 0.07113862
v 0.44609338 0.019116342 0.008939981
v -0.0069606304 0.03441322 -0.703795
v -0.0121456385 0.026345253 -0.5236965
v -0.30958468 0.032218754 -0.52718186
v -0.26416743 -0.005646944 -0.27206194
v -0.32477397 -0.010401666 -0.109175086
v -0.46941656 0.027420998 -0.033250093
v -0.6222561 0.041039705 -0.34514698
v -0.49658948 0.026022553 -0.28241047
v -0.60560375 0.024172306 -0.0005264282
vt 0.49951124 0.76441836
vt 1 0.63245356
vt 0 0.63245356
vt 0.49951124 0.76441836
vt 1 0.63245356
vt 0 0.63245356
vt 0.49951124 0.50048876
vt 1 0.50048876
vt 0.49951124 0.36754644
vt 0 0.36754644
vt 0 0.50048876
vt 0.49951124 0.36754644
vt 0.49951124 0.23558162
vt 0.49951124 0.76441836
vt 1 0.63245356
vt 0 0.63245356
vt 0.49951124 0.76441836
vt 1 0.63245356
vt 0 0.63245356
vt 0.49951124 0.50048876
vt 0 0.50048876
vt 0.49951124 0.50048876
vt 0.49951124 0.76441836
vt 1 0.63245356
vt 0 0.63245356
vt 0 0.50048876
vt 0.49951124 0.50048876
vt 0.49951124 0.36754644
vt 1 0.50048876
vt 1 0.36754644
vt 1 0.63245356
vt 0 0.63245356
vt 0.49951124 0.76441836
vt 1 0.63245356
vt 0 0.63245356
vt 1 0.36754644
vt 0.49951124 0.36754644
vt 1 0.50048876
vt 0 0.36754644
vt 0 0.50048876
vt 0.49951124 0.36754644
vt 0.49951124 0.50048876
vt 1 0.50048876
vt 1 0.36754644
vt 0.49951124 0.36754644
vt 1 0.50048876
vt 0.49951124 0.36754644
vt 0.49951124 0.50048876
vt 1 0.50048876
vt 0 0.50048876
vt 0 0.63245356
vt 1 0.36754644
vt 0.49951124 0.36754644
vt 1 0.50048876
vt 0 0.36754644
vt 0 0.50048876
vt 0.49951124 0.36754644
vt 0.49951124 0.50048876
vt 1 0.50048876
vt 1 0.36754644
vt 0.49951124 0.36754644
vt 1 0.50048876
vt 0.49951124 0.36754644
vt 0.49951124 0.50048876
vt 1 0.50048876
vt 0 0.50048876
vt 0.49951124 0.50048876
vt 0 0.63245356
vt 1 0.63245356
vt 1 0.50048876
vt 1 0.36754644
vt 0.49951124 0.36754644
vt 1 0.50048876
vt 1 0.23558162
vt 0.49951124 0.23558162
vt 1 0.36754644
vt 0.49951124 0.23558162
vt 0.49951124 0.36754644
vt 1 0.36754644
vt 0 0.36754644
vt 1 0.23558162
vt 0.49951124 0.23558162
vt 1 0.36754644
vt 0.49951124 0.36754644
vt 0 0.36754644
vt 1 0.23558162
vt 0.49951124 0.23558162
vt 1 0.36754644
vt 0.49951124 0.23558162
vt 0.49951124 0.36754644
vt 1 0.36754644
vt 1 0.23558162
vt 0.49951124 0.23558162
vt 1 0.36754644
vt 0.49951124 0.23558162
vt 0.49951124 0.36754644
vt 1 0.36754644
vt 0 0.36754644
vt 0 0.23558162
vt 1 0.23558162
vt 0.49951124 0.23558162
vt 1 0.36754644
vt 0.49951124 0.36754644
vt 0 0.36754644
vt 0 0.50048876
vt 0 0.23558162
vt 0 0.36754644
vt 1 0.23558162
vt 0.49951124 0.23558162
vt 1 0.36754644
vt 0.49951124 0.36754644
vt 0 0.50048876
vt 0.49951124 0.50048876
vt 0 0.63245356
vt 1 0.50048876
vt 0.49951124 0.50048876
vt 1 0.63245356
vt 0.49951124 0.50048876
vt 0 0.63245356
vt 1 0.63245356
vt 0 0.50048876
vt 1 0.50048876
vt 0.49951124 0.50048876
vt 1 0.63245356
vt 0.49951124 0.50048876
vt 0 0.63245356
vt 1 0.63245356
vt 1 0.50048876
vt 0.49951124 0.50048876
vt 1 0.63245356
vt 0 0.36754644
vt 0 0.50048876
vt 0.49951124 0.36754644
vt 0 0.23558162
vt 0.49951124 0.23558162
vt 0 0.36754644
vt 0 0.50048876
vt 0.49951124 0.36754644
vt 0 0.23558162
vt 0 0.36754644
vt 0.49951124 0.23558162
vt 0.49951124 0.36754644
vt 0 0.50048876
vt 0.49951124 0.50048876
vt 0.49951124 0.36754644
vt 0 0.23558162
vt 0 0.36754644
vt 0.49951124 0.23558162
vt 0 0.50048876
vt 0.49951124 0.50048876
vt 0.49951124 0.36754644
vt 0 0.23558162
vt 0 0.36754644
vt 0.49951124 0.23558162
vn 0.09873448 0.9895427 0.10515066
vn 0.09873448 0.9895427 0.10515066
vn 0.09873448 0.9895427 0.10515066
vn -0.010093242 0.9895427 0.14388646
vn -0.010093242 0.9895427 0.14388646
vn -0.010093242 0.9895427 0.14388646
vn -0.0049109757 0.98436046 0.1760975
vn -0.0049109757 0.98436046 0.1760975
vn -0.0049109757 0.98436046 0.1760975
vn 0.036547214 0.9895427 0.13953315
vn 0.036547214 0.9895427 0.13953315
vn 0.015818119 0.994725 0.10135071
vn 0.015818119 0.994725 0.10135071
vn -0.10337415 0.9895427 0.100593045
vn -0.10337415 0.9895427 0.100593045
vn -0.10337415 0.9895427 0.100593045
vn -0.07746279 0.9895427 -0.12167465
vn -0.07746279 0.9895427 -0.12167465
vn -0.07746279 0.9895427 -0.12167465
vn -0.10855642 0.98436046 -0.13874428
vn -0.087827325 0.994725 -0.05299595
vn -0.087827325 0.994725 -0.05299595
vn -0.05155143 0.994725 -0.08868288
vn -0.05155143 0.994725 -0.08868288
vn -0.05155143 0.994725 -0.08868288
vn -0.061915964 0.98436046 -0.16492689
vn -0.046369135 0.98436046 -0.16995397
vn -0.05155143 0.98436046 -0.16845456
vn -0.05155143 0.98436046 -0.16845456
vn -0.05155143 0.98436046 -0.16845456
vn -0.046369135 0.9791782 -0.19763587
vn -0.02564007 0.9791782 -0.2013768
vn 0.09873448 0.994725 -0.027814893
vn 0.09873448 0.994725 -0.027814893
vn 0.09873448 0.994725 -0.027814893
vn 0.12982811 0.9895427 0.0628476
vn 0.12982811 0.9895427 0.0628476
vn 0.12982811 0.9895427 0.0628476
vn 0.13501038 0.9895427 -0.05076775
vn 0.13501038 0.9895427 -0.05076775
vn 0.21792674 0.9739959 -0.061966527
vn 0.21792674 0.9739959 -0.061966527
vn 0.21792674 0.9739959 -0.061966527
vn 0.083187655 0.9791782 -0.18517531
vn 0.083187655 0.9791782 -0.18517531
vn 0.083187655 0.9791782 -0.18517531
vn 0.1142813 0.9895427 -0.0880055
vn 0.1142813 0.9895427 -0.0880055
vn 0.1142813 0.9895427 -0.0880055
vn 0.1142813 0.9895427 -0.0880055
vn 0.1142813 0.9895427 -0.0880055
vn -0.07746279 0.994725 0.06724379
vn -0.07746279 0.994725 0.06724379
vn -0.07746279 0.994725 0.06724379
vn -0.051487833 0.9986737 -0
vn -0.051487833 0.9986737 -0
vn -0.12928551 0.9895427 0.063956454
vn -0.12928551 0.9895427 0.063956454
vn -0.12928551 0.9895427 0.063956454
vn -0.07746279 0.9791782 0.1876422
vn -0.07746279 0.9791782 0.1876422
vn -0.07746279 0.9791782 0.1876422
vn -0.10855642 0.9895427 0.09497729
vn -0.10855642 0.9895427 0.09497729
vn -0.10855642 0.9895427 0.09497729
vn -0.15519688 0.98436046 0.08335713
vn -0.13446778 0.98436046 0.11381065
vn -0.16037914 0.98436046 0.072890185
vn -0.13446778 0.98436046 0.11381065
vn -0.13446778 0.98436046 0.11381065
vn 0.124645844 0.9739959 0.18919654
vn 0.124645844 0.9739959 0.18919654
vn 0.124645844 0.9739959 0.18919654
vn 0.07282311 0.994725 -0.07224253
vn 0.07282311 0.994725 -0.07224253
vn 0.07282311 0.994725 -0.07224253
vn -0.020455392 0.9997908 -0
vn -0.020455392 0.9997908 -0
vn -0.020455392 0.9997908 -0
vn -0.025634022 0.9996714 -0
vn 0.0054535866 0.99990726 -0.012479861
vn 0.0054535866 0.99990726 -0.012479861
vn 0.0054535866 0.99990726 -0.012479861
vn 0.0054535866 0.99990726 -0.012479861
vn -0.010093242 0.99990726 -0.009144688
vn -0.04118687 0.994725 -0.093945935
vn -0.04118687 0.994725 -0.093945935
vn -0.04118687 0.994725 -0.093945935
vn 0.041697055 0.9991303 -0
vn 0.041697055 0.9991303 -0
vn 0.041697055 0.9991303 -0
vn -0.030810561 0.99952525 -0
vn -0.030810561 0.99952525 -0
vn -0.030810561 0.99952525 -0
vn -0.13446778 0.9895427 0.05218788
vn -0.13446778 0.9895427 0.05218788
vn -0.13446778 0.9895427 0.05218788
vn -0.11360163 0.9935264 -0
vn -0.11360163 0.9935264 -0
vn -0.0049109757 0.99990726 0.012702353
vn -0.0049109757 0.99990726 0.012702353
vn -0.0049109757 0.99990726 0.012702353
vn -0.0049109757 0.99990726 0.012702353
vn -0.04115579 0.9991527 -0
vn -0.04115579 0.9991527 -0
vn 0.0054535866 0.99990726 0.012479861
vn 0.0054535866 0.99990726 0.012479861
vn 0.07800539 0.994725 0.066613264
vn 0.07800539 0.994725 0.066613264
vn 0.07800539 0.994725 0.066613264
vn 0.06764084 0.994725 0.07711598
vn 0.046911746 0.994725 0.09122206
vn 0.046911746 0.994725 0.09122206
vn 0.046911746 0.994725 0.09122206
vn 0.14019266 0.9895427 -0.0339294
vn 0.14019266 0.9895427 -0.0339294
vn 0.14019266 0.9895427 -0.0339294
vn 0.04172948 0.994725 0.09370612
vn 0.04172948 0.994725 0.09370612
vn 0.04172948 0.994725 0.09370612
vn 0.036526214 0.9993327 -0
vn 0.16092174 0.9739959 -0.159487
vn 0.16092174 0.9739959 -0.159487
vn 0.16092174 0.9739959 -0.159487
vn 0.21274447 0.9739959 -0.07792141
vn 0.21274447 0.9739959 -0.07792141
vn 0.21274447 0.9739959 -0.07792141
vn -0.19147277 0.9791782 0.067440726
vn -0.19147277 0.9791782 0.067440726
vn -0.19147277 0.9791782 0.067440726
vn 0.026176108 0.99965733 -0
vn 0.026176108 0.99965733 -0
vn 0.026176108 0.99965733 -0
vn 0.05727631 0.994725 -0.08509763
vn 0.05727631 0.994725 -0.08509763
vn -0.061915964 0.994725 -0.08178383
vn -0.061915964 0.994725 -0.08178383
vn -0.061915964 0.994725 -0.08178383
vn -0.010093242 0.99990726 -0.009144688
vn -0.010093242 0.99990726 -0.009144688
vn -0.010093242 0.99990726 -0.009144688
vn -0.010093242 0.99990726 -0.009144688
vn -0.1862905 0.9791782 -0.0806592
vn -0.1862905 0.9791782 -0.0806592
vn -0.1862905 0.9791782 -0.0806592
vn 0.020997701 0.99977946 -0
vn 0.020997701 0.99977946 -0
vn 0.020997701 0.99977946 -0
vn 0.32157218 0.93771994 0.13142523
vn 0.32157218 0.93771994 0.13142523
vn 0.32157218 0.93771994 0.13142523
vn 0.09873448 0.994725 0.027814893
vn 0.09873448 0.994725 0.027814893
vn 0.09873448 0.994725 0.027814893
g alluringPoolPool_0
f 3/3/3 2/2/2 1/1/1
f 6/6/6 5/5/5 4/4/4
f 5/5/5 6/6/6 7/7/7
f 5/5/5 7/7/7 8/8/8
f 8/8/8 7/7/7 9/9/9
f 9/9/9 11/11/11 10/10/10
f 13/13/13 12/12/12 10/10/10
f 16/16/16 15/15/15 14/14/14
f 19/19/19 18/18/18 17/17/17
f 18/18/18 19/19/19 20/20/20
f 22/22/22 19/19/19 21/21/21
f 25/25/25 24/24/24 23/23/23
f 27/27/27 25/25/25 26/26/26
f 28/28/28 27/27/27 26/26/26
f 29/29/29 27/27/27 28/28/28
f 29/29/29 28/28/28 30/30/30
f 31/31/31 27/27/27 29/29/29
f 31/31/31 32/32/32 27/27/27
f 35/35/35 34/34/34 33/33/33
f 38/38/38 37/37/37 36/36/36
f 37/37/37 40/40/40 39/39/39
f 43/43/43 42/42/42 41/41/41
f 46/46/46 45/45/45 44/44/44
f 49/49/49 48/48/48 47/47/47
f 47/47/47 48/48/48 50/50/50
f 48/48/48 51/51/51 50/50/50
f 54/54/54 53/53/53 52/52/52
f 53/53/53 56/56/56 55/55/55
f 59/59/59 58/58/58 57/57/57
f 62/62/62 61/61/61 60/60/60
f 65/65/65 64/64/64 63/63/63
f 63/63/63 67/67/67 66/66/66
f 67/67/67 68/68/68 66/66/66
f 69/69/69 68/68/68 67/67/67
f 69/69/69 67/67/67 70/70/70
f 73/73/73 72/72/72 71/71/71
f 76/76/76 75/75/75 74/74/74
f 79/79/79 78/78/78 77/77/77
f 77/77/77 78/78/78 80/80/80
f 83/83/83 82/82/82 81/81/81
f 83/83/83 84/84/84 82/82/82
f 82/82/82 84/84/84 85/85/85
f 88/88/88 87/87/87 86/86/86
f 91/91/91 90/90/90 89/89/89
f 94/94/94 93/93/93 92/92/92
f 97/97/97 96/96/96 95/95/95
f 95/95/95 96/96/96 98/98/98
f 95/95/95 98/98/98 99/99/99
f 102/102/102 101/101/101 100/100/100
f 102/102/102 103/103/103 101/101/101
f 101/101/101 103/103/103 104/104/104
f 103/103/103 105/105/105 104/104/104
f 101/101/101 107/107/107 106/106/106
f 110/110/110 109/109/109 108/108/108
f 110/110/110 111/111/111 109/109/109
f 111/111/111 113/113/113 112/112/112
f 113/113/113 114/114/114 112/112/112
f 117/117/117 116/116/116 115/115/115
f 120/120/120 119/119/119 118/118/118
f 118/118/118 119/119/119 121/121/121
f 124/124/124 123/123/123 122/122/122
f 127/127/127 126/126/126 125/125/125
f 130/130/130 129/129/129 128/128/128
f 133/133/133 132/132/132 131/131/131
f 135/135/135 131/131/131 134/134/134
f 138/138/138 137/137/137 136/136/136
f 141/141/141 140/140/140 139/139/139
f 141/141/141 142/142/142 140/140/140
f 145/145/145 144/144/144 143/143/143
f 148/148/148 147/147/147 146/146/146
f 151/151/151 150/150/150 149/149/149
f 154/154/154 153/153/153 152/152/152
