g arrowDragon
v 0.09004394 -0.01945015 -0.015598957
v -0.0032861328 -0.023179092 -0.022473957
v -0.0032861328 -0.023178482 0.022473857
v 0.09004394 -0.01945015 0.015598859
v -0.0032861328 -0.023179092 -0.022473957
v -0.0017700195 0.021743393 -0.022473957
v -0.0017700195 0.021743698 0.022473857
v -0.0032861328 -0.023178482 0.022473857
v -0.0017700195 0.021743393 -0.022473957
v 0.09109619 0.011729659 -0.015598956
v 0.09109619 0.011729659 0.015598857
v -0.0017700195 0.021743698 0.022473857
v 1.5236828 -0.035030592 -0.011115008
v 1.5229334 -0.057248 -0.011115008
v 1.5229334 -0.057248 0.01111491
v 1.5236828 -0.035030592 0.01111491
v 0.09004394 -0.01945015 0.015598859
v -0.0032861328 -0.023178482 0.022473857
v -0.0017700195 0.021743698 0.022473857
v 0.09109619 0.011729659 0.015598857
v 0.09109619 0.011729659 -0.015598956
v -0.0017700195 0.021743393 -0.022473957
v -0.0032861328 -0.023179092 -0.022473957
v 0.09004394 -0.01945015 -0.015598957
v 1.3537586 -0.056023635 -0.015598957
v 0.09004394 -0.01945015 -0.015598957
v 0.09004394 -0.01945015 0.015598859
v 1.3537586 -0.056023635 0.015598859
v 1.5229334 -0.057248 -0.011115008
v 1.5229334 -0.057248 0.01111491
v 1.3537586 -0.056023635 0.015598859
v 0.09004394 -0.01945015 0.015598859
v 0.09109619 0.011729659 0.015598857
v 1.3548107 -0.024843825 0.015598857
v 1.5229334 -0.057248 0.01111491
v 1.5236828 -0.035030592 0.01111491
v 0.09109619 0.011729659 -0.015598956
v 1.3548107 -0.024843521 -0.015598956
v 1.3548107 -0.024843825 0.015598857
v 0.09109619 0.011729659 0.015598857
v 1.5236828 -0.035030592 0.01111491
v 1.5236828 -0.035030592 -0.011115008
v 1.3548107 -0.024843521 -0.015598956
v 0.09109619 0.011729659 -0.015598956
v 0.09004394 -0.01945015 -0.015598957
v 1.3537586 -0.056023635 -0.015598957
v 1.5236828 -0.035030592 -0.011115008
v 1.5229334 -0.057248 -0.011115008
v 0.2773767 -0.01841774 0.07355501
v 0.2773767 -0.01841774 -0.0056967633
v 0.18350707 -0.0152491005 -0.0056967633
v 0.041560058 -0.010457536 0.10806006
v 0.09323975 -0.012202226 -0.0056967647
v 0.35752195 -0.021123428 0.022563819
v 0.35752195 -0.021123122 -0.0056967633
v 0.2773767 -0.01841774 -0.08494855
v 0.35752195 -0.021123122 -0.03395735
v 0.041560058 -0.010457536 -0.1194536
v 0.14750732 -0.014034196 -0.10395095
v 0.20108277 -0.015842361 -0.096865155
v 0.17212158 -0.014864884 -0.0753605
v 0.04206421 0.004524764 0.10806007
v 0.093746334 0.0027806845 -0.0056967633
v 0.15899292 0.0005779258 -0.0056967633
v 0.2778833 -0.0034351358 -0.0056967633
v 0.2778833 -0.0034354408 0.07355501
v 0.35802856 -0.0061405185 0.022563823
v 0.35802856 -0.0061405185 -0.0056967633
v 0.2778833 -0.0034354408 -0.08494854
v 0.35802856 -0.006140824 -0.03395735
v 0.04206421 0.004524764 -0.11945361
v 0.14594848 0.0010182945 -0.10425343
v 0.19823363 -0.00074653706 -0.09584905
v 0.16867065 0.00025138774 -0.07593962
v 0.2778833 -0.0034354408 0.07355501
v 0.2773767 -0.01841774 0.07355501
v 0.041560058 -0.010457536 0.10806006
v 0.04206421 0.004524764 0.10806007
v 0.04206421 0.004524764 0.10806007
v 0.041560058 -0.010457536 0.10806006
v 0.09323975 -0.012202226 -0.0056967647
v 0.093746334 0.0027806845 -0.0056967633
v 0.35802856 -0.0061405185 -0.0056967633
v 0.35752195 -0.021123122 -0.0056967633
v 0.35752195 -0.021123428 0.022563819
v 0.35802856 -0.0061405185 0.022563823
v 0.35802856 -0.006140824 -0.03395735
v 0.35752195 -0.021123122 -0.03395735
v 0.35802856 -0.0061405185 0.022563823
v 0.35752195 -0.021123428 0.022563819
v 0.2773767 -0.01841774 0.07355501
v 0.2778833 -0.0034354408 0.07355501
v 0.16867065 0.00025138774 -0.07593962
v 0.17212158 -0.014864884 -0.0753605
v 0.20108277 -0.015842361 -0.096865155
v 0.19823363 -0.00074653706 -0.09584905
v 0.093746334 0.0027806845 -0.0056967633
v 0.09323975 -0.012202226 -0.0056967647
v 0.041560058 -0.010457536 -0.1194536
v 0.04206421 0.004524764 -0.11945361
v 0.2778833 -0.0034354408 -0.08494854
v 0.2773767 -0.01841774 -0.08494855
v 0.35752195 -0.021123122 -0.03395735
v 0.35802856 -0.006140824 -0.03395735
v 0.04206421 0.004524764 -0.11945361
v 0.041560058 -0.010457536 -0.1194536
v 0.14750732 -0.014034196 -0.10395095
v 0.14594848 0.0010182945 -0.10425343
v 0.20108277 -0.015842361 -0.096865155
v 0.2773767 -0.01841774 -0.08494855
v 0.2778833 -0.0034354408 -0.08494854
v 0.19823363 -0.00074653706 -0.09584905
v 0.14594848 0.0010182945 -0.10425343
v 0.14750732 -0.014034196 -0.10395095
v 0.17212158 -0.014864884 -0.0753605
v 0.16867065 0.00025138774 -0.07593962
v 0.09346924 -0.005415116 0.009294229
v 0.045362547 0.10221946 0.009294224
v 0.28028077 0.06757591 0.009294229
v 0.2776062 -0.011630631 0.009294229
v 0.35870484 0.013908308 0.00929423
v 0.35775268 -0.01433632 0.009294229
v 0.27493164 -0.09083748 0.009294229
v 0.35679808 -0.04258064 0.009294229
v 0.1687561 -0.09667854 0.009294229
v 0.15315552 -0.039247207 0.009294229
v 0.03821533 -0.10956032 0.009294229
v 0.10483764 -0.107575454 0.009294229
v 0.09346924 -0.005415116 -0.0056967638
v 0.2776062 -0.0116309365 -0.0056967638
v 0.28028077 0.06757591 -0.0056967638
v 0.045362547 0.10221916 -0.0056967638
v 0.35870484 0.013908003 -0.0056967638
v 0.35775268 -0.01433632 -0.0056967638
v 0.27493164 -0.09083748 -0.0056967638
v 0.35679808 -0.04258064 -0.005696766
v 0.1687561 -0.09667854 -0.0056967638
v 0.15315552 -0.039247513 -0.0056967638
v 0.03821533 -0.109560624 -0.005696759
v 0.10483764 -0.10757576 -0.0056967638
v 0.28028077 0.06757591 -0.0056967638
v 0.28028077 0.06757591 0.009294229
v 0.045362547 0.10221946 0.009294224
v 0.045362547 0.10221916 -0.0056967638
v 0.045362547 0.10221916 -0.0056967638
v 0.045362547 0.10221946 0.009294224
v 0.09346924 -0.005415116 0.009294229
v 0.09346924 -0.005415116 -0.0056967638
v 0.35775268 -0.01433632 -0.0056967638
v 0.35775268 -0.01433632 0.009294229
v 0.35870484 0.013908308 0.00929423
v 0.35870484 0.013908003 -0.0056967638
v 0.35679808 -0.04258064 -0.005696766
v 0.35679808 -0.04258064 0.009294229
v 0.35870484 0.013908003 -0.0056967638
v 0.35870484 0.013908308 0.00929423
v 0.28028077 0.06757591 0.009294229
v 0.28028077 0.06757591 -0.0056967638
v 0.27493164 -0.09083748 -0.0056967638
v 0.27493164 -0.09083748 0.009294229
v 0.35679808 -0.04258064 0.009294229
v 0.35679808 -0.04258064 -0.005696766
v 0.1687561 -0.09667854 -0.0056967638
v 0.1687561 -0.09667854 0.009294229
v 0.27493164 -0.09083748 0.009294229
v 0.27493164 -0.09083748 -0.0056967638
v 0.15315552 -0.039247513 -0.0056967638
v 0.15315552 -0.039247207 0.009294229
v 0.1687561 -0.09667854 0.009294229
v 0.1687561 -0.09667854 -0.0056967638
v 0.03821533 -0.109560624 -0.005696759
v 0.03821533 -0.10956032 0.009294229
v 0.10483764 -0.107575454 0.009294229
v 0.10483764 -0.10757576 -0.0056967638
v 0.10483764 -0.10757576 -0.0056967638
v 0.10483764 -0.107575454 0.009294229
v 0.15315552 -0.039247207 0.009294229
v 0.15315552 -0.039247513 -0.0056967638
v 0.09346924 -0.005415116 -0.0056967638
v 0.09346924 -0.005415116 0.009294229
v 0.03821533 -0.10956032 0.009294229
v 0.03821533 -0.109560624 -0.005696759
v 1.3426306 -0.10366737 -0.00035923958
v 1.4350097 -0.0437162 0.014754153
v 1.4522498 -0.16089027 -0.00035923958
v 1.4350097 -0.0437162 0.014754153
v 1.3468835 0.02232872 -0.00035923958
v 1.4594336 0.07205162 -0.00035923958
v 1.683324 -0.05209816 -0.00035924118
v 1.4522498 -0.16089027 -0.00035923958
v 1.4350097 -0.0437162 0.014754153
v 1.4594336 0.07205162 -0.00035923958
v 1.683324 -0.05209816 -0.00035924118
v 1.4350097 -0.0437162 0.014754153
v 1.3426306 -0.10366737 -0.00035923958
v 1.4522498 -0.16089027 -0.00035923958
v 1.4350097 -0.0437162 -0.015472635
v 1.4350097 -0.0437162 -0.015472635
v 1.4594336 0.07205162 -0.00035923958
v 1.3468835 0.02232872 -0.00035923958
v 1.683324 -0.05209816 -0.00035924118
v 1.4350097 -0.0437162 -0.015472635
v 1.4522498 -0.16089027 -0.00035923958
v 1.4594336 0.07205162 -0.00035923958
v 1.4350097 -0.0437162 -0.015472635
v 1.683324 -0.05209816 -0.00035924118
v 1.4350097 -0.0437162 -0.015472635
v 1.4350097 -0.0437162 0.014754153
v 1.3426306 -0.10366737 -0.00035923958
v 1.3468835 0.02232872 -0.00035923958
v 1.4350097 -0.0437162 0.014754153
v 1.4350097 -0.0437162 -0.015472635
vt 0.7826921 0.67951846
vt 0.7755041 0.678988
vt 0.7755041 0.678988
vt 0.7826921 0.67951846
vt 0.7755041 0.678988
vt 0.7755041 0.6824563
vt 0.7755041 0.6824563
vt 0.7755041 0.678988
vt 0.7755041 0.6824563
vt 0.7826921 0.6819258
vt 0.7826921 0.6819258
vt 0.7755041 0.6824563
vt 0.8543922 0.6815798
vt 0.8543922 0.67986447
vt 0.8543922 0.67986447
vt 0.8543922 0.6815798
vt 0.7826921 0.67951846
vt 0.7755041 0.678988
vt 0.7755041 0.6824563
vt 0.7826921 0.6819258
vt 0.7826921 0.6819258
vt 0.7755041 0.6824563
vt 0.7755041 0.678988
vt 0.7826921 0.67951846
vt 0.8413424 0.67951846
vt 0.7826921 0.67951846
vt 0.7826921 0.67951846
vt 0.8413424 0.67951846
vt 0.8543922 0.67986447
vt 0.8543922 0.67986447
vt 0.8413424 0.67951846
vt 0.7826921 0.67951846
vt 0.7826921 0.6819258
vt 0.8413424 0.6819258
vt 0.8543922 0.67986447
vt 0.8543922 0.6815798
vt 0.7826921 0.6819258
vt 0.8413424 0.6819258
vt 0.8413424 0.6819258
vt 0.7826921 0.6819258
vt 0.8543922 0.6815798
vt 0.8543922 0.6815798
vt 0.8413424 0.6819258
vt 0.7826921 0.6819258
vt 0.7826921 0.67951846
vt 0.8413424 0.67951846
vt 0.8543922 0.6815798
vt 0.8543922 0.67986447
vt 0.83909273 0.8040098
vt 0.83909273 0.8040098
vt 0.8145945 0.8040098
vt 0.7775496 0.8040098
vt 0.79103684 0.8040098
vt 0.8600087 0.8040098
vt 0.8600087 0.8040098
vt 0.83909273 0.8040098
vt 0.8600087 0.8040098
vt 0.7775496 0.8040098
vt 0.8052 0.8040098
vt 0.8191811 0.8040098
vt 0.8116237 0.8040098
vt 0.7775496 0.80791986
vt 0.79103684 0.80791986
vt 0.80806494 0.80791986
vt 0.83909273 0.80791986
vt 0.83909273 0.80791986
vt 0.8600087 0.80791986
vt 0.8600087 0.80791986
vt 0.83909273 0.80791986
vt 0.8600087 0.80791986
vt 0.7775496 0.80791986
vt 0.80466044 0.80791986
vt 0.81830573 0.80791986
vt 0.81059086 0.80791986
vt 0.83909273 0.80791986
vt 0.83909273 0.8040098
vt 0.7775496 0.8040098
vt 0.7775496 0.80791986
vt 0.7775496 0.80791986
vt 0.7775496 0.8040098
vt 0.79103684 0.8040098
vt 0.79103684 0.80791986
vt 0.8600087 0.80791986
vt 0.8600087 0.8040098
vt 0.8600087 0.8040098
vt 0.8600087 0.80791986
vt 0.8600087 0.80791986
vt 0.8600087 0.8040098
vt 0.8600087 0.80791986
vt 0.8600087 0.8040098
vt 0.83909273 0.8040098
vt 0.83909273 0.80791986
vt 0.81059086 0.80791986
vt 0.8116237 0.8040098
vt 0.8191811 0.8040098
vt 0.81830573 0.80791986
vt 0.79103684 0.80791986
vt 0.79103684 0.8040098
vt 0.7775496 0.8040098
vt 0.7775496 0.80791986
vt 0.83909273 0.80791986
vt 0.83909273 0.8040098
vt 0.8600087 0.8040098
vt 0.8600087 0.80791986
vt 0.7775496 0.80791986
vt 0.7775496 0.8040098
vt 0.8052 0.8040098
vt 0.80466044 0.80791986
vt 0.8191811 0.8040098
vt 0.83909273 0.8040098
vt 0.83909273 0.80791986
vt 0.81830573 0.80791986
vt 0.80466044 0.80791986
vt 0.8052 0.8040098
vt 0.8116237 0.8040098
vt 0.81059086 0.80791986
vt 0.79192495 0.8137969
vt 0.7788694 0.8405472
vt 0.83844244 0.8338064
vt 0.83844244 0.8137969
vt 0.85868895 0.8209321
vt 0.85868895 0.8137969
vt 0.83844244 0.79378736
vt 0.85868895 0.80666167
vt 0.8117001 0.79140913
vt 0.8072742 0.8057682
vt 0.7788694 0.78704655
vt 0.79566324 0.78811485
vt 0.79192495 0.8137969
vt 0.83844244 0.8137969
vt 0.83844244 0.8338064
vt 0.7788694 0.8405472
vt 0.85868895 0.8209321
vt 0.85868895 0.8137969
vt 0.83844244 0.79378736
vt 0.85868895 0.80666167
vt 0.8117001 0.79140913
vt 0.8072742 0.8057682
vt 0.7788694 0.78704655
vt 0.79566324 0.78811485
vt 0.83844244 0.8338064
vt 0.83844244 0.8338064
vt 0.7788694 0.8405472
vt 0.7788694 0.8405472
vt 0.7788694 0.8405472
vt 0.7788694 0.8405472
vt 0.79192495 0.8137969
vt 0.79192495 0.8137969
vt 0.85868895 0.8137969
vt 0.85868895 0.8137969
vt 0.85868895 0.8209321
vt 0.85868895 0.8209321
vt 0.85868895 0.80666167
vt 0.85868895 0.80666167
vt 0.85868895 0.8209321
vt 0.85868895 0.8209321
vt 0.83844244 0.8338064
vt 0.83844244 0.8338064
vt 0.83844244 0.79378736
vt 0.83844244 0.79378736
vt 0.85868895 0.80666167
vt 0.85868895 0.80666167
vt 0.8117001 0.79140913
vt 0.8117001 0.79140913
vt 0.83844244 0.79378736
vt 0.83844244 0.79378736
vt 0.8072742 0.8057682
vt 0.8072742 0.8057682
vt 0.8117001 0.79140913
vt 0.8117001 0.79140913
vt 0.7788694 0.78704655
vt 0.7788694 0.78704655
vt 0.79566324 0.78811485
vt 0.79566324 0.78811485
vt 0.79566324 0.78811485
vt 0.79566324 0.78811485
vt 0.8072742 0.8057682
vt 0.8072742 0.8057682
vt 0.79192495 0.8137969
vt 0.79192495 0.8137969
vt 0.7788694 0.78704655
vt 0.7788694 0.78704655
vt 0.32591313 0.6226618
vt 0.35542887 0.64326483
vt 0.3622421 0.6084681
vt 0.35542887 0.64326483
vt 0.32591313 0.66386795
vt 0.3622421 0.6780616
vt 0.4366389 0.64326483
vt 0.3622421 0.6084681
vt 0.35542887 0.64326483
vt 0.3622421 0.6780616
vt 0.4366389 0.64326483
vt 0.35542887 0.64326483
vt 0.32591313 0.6226618
vt 0.3622421 0.6084681
vt 0.35542887 0.64326483
vt 0.35542887 0.64326483
vt 0.3622421 0.6780616
vt 0.32591313 0.66386795
vt 0.4366389 0.64326483
vt 0.35542887 0.64326483
vt 0.3622421 0.6084681
vt 0.3622421 0.6780616
vt 0.35542887 0.64326483
vt 0.4366389 0.64326483
vt 0.35542887 0.64326483
vt 0.35542887 0.64326483
vt 0.32591313 0.6226618
vt 0.32591313 0.66386795
vt 0.35542887 0.64326483
vt 0.35542887 0.64326483
vn 0.03991959 -0.9992029 1.3730643E-05
vn 0.03991959 -0.9992029 1.37306415E-05
vn 0.03991959 -0.9992029 1.37306415E-05
vn 0.03991959 -0.9992029 1.3730643E-05
vn -0.9994306 0.033739388 -5.664519E-07
vn -0.9994306 0.033739388 -5.664519E-07
vn -0.9994306 0.03373939 -5.6645194E-07
vn -0.9994306 0.033739388 -5.6645183E-07
vn 0.10720937 0.9942365 -1.3730463E-05
vn 0.107209355 0.9942365 -1.3730462E-05
vn 0.107209355 0.9942365 -1.3730462E-05
vn 0.10720936 0.9942365 -1.3730463E-05
vn 0.99943215 -0.033693533 0
vn 0.99943215 -0.033693533 0
vn 0.99943215 -0.033693533 0
vn 0.99943215 -0.033693533 0
vn 0.07356277 -0.0024818052 0.9972875
vn 0.07356277 -0.0024818054 0.9972875
vn 0.07356276 -0.0024818052 0.9972875
vn 0.07356277 -0.0024818054 0.9972875
vn 0.07356308 -0.0024818054 -0.9972875
vn 0.07356307 -0.0024818054 -0.9972875
vn 0.07356307 -0.0024818052 -0.9972875
vn 0.07356308 -0.0024818052 -0.9972875
vn -0.028929139 -0.9995815 0
vn -0.028929139 -0.9995815 0
vn -0.028929139 -0.9995815 0
vn -0.028929139 -0.9995815 0
vn -0.007237093 -0.9999739 0
vn -0.007237093 -0.9999739 0
vn -0 0 1
vn -0 0 1
vn -0 0 1
vn -0 0 1
vn 0.0264894 -0.0008926979 0.9996487
vn 0.026489396 -0.0008926977 0.9996487
vn 0.028929014 0.9995815 0
vn 0.028929014 0.9995815 0
vn 0.028929012 0.9995815 0
vn 0.028929014 0.9995815 0
vn 0.0602145 0.99818546 0
vn 0.0602145 0.99818546 0
vn -0 0 -1
vn -0 0 -1
vn -0 0 -1
vn -0 0 -1
vn 0.026489561 -0.00089404825 -0.9996487
vn 0.026489561 -0.0008940483 -0.9996487
vn -0.033735953 -0.9994307 2.4624285E-06
vn -0.03373595 -0.9994307 2.4624283E-06
vn -0.03373595 -0.9994307 2.462428E-06
vn -0.03373595 -0.9994307 2.4624283E-06
vn -0.033735953 -0.9994307 2.4624285E-06
vn -0.0337396 -0.9994306 0
vn -0.033739597 -0.9994306 0
vn -0.033736806 -0.9994307 0
vn -0.033736806 -0.9994307 0
vn -0.033737235 -0.9994307 -4.8508527E-06
vn -0.033732843 -0.99943084 -6.682473E-06
vn -0.033732843 -0.99943084 -6.6824737E-06
vn -0.033732843 -0.99943084 -6.6824737E-06
vn 0.03373726 0.9994307 7.3873216E-06
vn 0.03373726 0.9994307 7.387321E-06
vn 0.03373726 0.9994307 7.3873225E-06
vn 0.033737257 0.9994307 7.387322E-06
vn 0.03373726 0.9994307 7.387322E-06
vn 0.033735037 0.9994307 5.663396E-06
vn 0.03373504 0.9994307 5.663396E-06
vn 0.03373784 0.9994307 -1.132679E-05
vn 0.033737842 0.9994307 -1.1326792E-05
vn 0.033736814 0.9994307 0
vn 0.03373526 0.9994307 0
vn 0.033735264 0.9994307 0
vn 0.033735264 0.9994307 0
vn 0.14461584 -0.0048843804 0.98947585
vn 0.14461583 -0.0048843804 0.98947585
vn 0.14461583 -0.00488438 0.98947585
vn 0.14461581 -0.004884381 0.98947585
vn -0.909831 0.030779876 -0.41383594
vn -0.909831 0.030779876 -0.41383585
vn -0.909831 0.030779872 -0.4138359
vn -0.909831 0.030779872 -0.4138359
vn 0.99942964 -0.03376891 -4.5020408E-07
vn 0.99942964 -0.03376891 -4.5020414E-07
vn 0.99942964 -0.03376891 -4.5020414E-07
vn 0.99942964 -0.03376891 -4.5020406E-07
vn 0.99942577 -0.03388472 4.502115E-07
vn 0.99942577 -0.033884715 4.502115E-07
vn 0.5362767 -0.018193087 0.84384614
vn 0.5362767 -0.018193087 0.84384614
vn 0.5362767 -0.018193087 0.84384614
vn 0.5362767 -0.018193087 0.84384614
vn -0.5766773 -0.108533666 -0.80973065
vn -0.5766772 -0.10853365 -0.80973065
vn -0.5766773 -0.10853365 -0.80973065
vn -0.57667726 -0.10853364 -0.80973065
vn -0.90983385 0.03064287 0.4138397
vn -0.90983385 0.03064287 0.41383967
vn -0.90983385 0.030642875 0.41383967
vn -0.90983397 0.030642875 0.41383967
vn 0.5362733 -0.01820638 -0.84384805
vn 0.5362733 -0.01820638 -0.84384805
vn 0.53627324 -0.018206378 -0.84384805
vn 0.53627324 -0.018206378 -0.84384805
vn 0.1446162 -0.004877394 -0.9894757
vn 0.1446162 -0.004877394 -0.9894757
vn 0.14461622 -0.0048773945 -0.9894757
vn 0.1446162 -0.0048773945 -0.9894757
vn 0.14611027 0.044766888 -0.9882549
vn 0.14611027 0.044766888 -0.9882549
vn 0.14611027 0.044766888 -0.9882549
vn 0.14611027 0.044766895 -0.9882549
vn 0.7657305 0.10861259 -0.6339244
vn 0.7657305 0.108612604 -0.6339244
vn 0.7657304 0.10861259 -0.6339245
vn 0.7657304 0.108612575 -0.6339244
vn -0 0 1
vn -0 0 1
vn -0 0 1
vn -0 0 1
vn -0 0 1
vn -0 0 1
vn -0 0 1
vn -0 0 1
vn -0 0 1
vn -0 0 1
vn -0 0 1
vn -0 0 1
vn -0 0 -1
vn -0 0 -1
vn -0 0 -1
vn -0 0 -1
vn -0 0 -1
vn -0 0 -1
vn -0 0 -1
vn -0 0 -1
vn -0 0 -1
vn -0 0 -1
vn -0 0 -1
vn -0 0 -1
vn 0.14589222 0.98930043 0
vn 0.14589225 0.98930043 0
vn 0.14589225 0.98930043 0
vn 0.14589225 0.98930043 0
vn -0.9129622 -0.40804416 0
vn -0.9129622 -0.40804413 0
vn -0.9129622 -0.40804416 0
vn -0.9129622 -0.4080441 0
vn 0.99942964 -0.033769604 9.0042676E-07
vn 0.99942964 -0.033769604 9.0042676E-07
vn 0.99942964 -0.033769604 9.0042676E-07
vn 0.99942964 -0.0337696 9.004267E-07
vn 0.99942964 -0.033769783 0
vn 0.99942964 -0.033769783 0
vn 0.5647483 0.82526326 0
vn 0.5647483 0.82526326 0
vn 0.5647483 0.8252632 0
vn 0.5647483 0.8252632 0
vn 0.5077991 -0.86147547 0
vn 0.5077991 -0.86147547 0
vn 0.5077991 -0.86147547 0
vn 0.5077991 -0.8614756 0
vn 0.054930285 -0.9984902 0
vn 0.054930285 -0.9984902 0
vn 0.054930285 -0.9984902 0
vn 0.054930285 -0.9984902 0
vn -0.96503145 -0.26213413 0
vn -0.96503145 -0.26213413 0
vn -0.96503145 -0.26213413 0
vn -0.96503145 -0.26213413 0
vn 0.029779674 -0.9995565 2.4434257E-05
vn 0.029779673 -0.9995565 2.4434254E-05
vn 0.029779674 -0.9995565 2.4434257E-05
vn 0.029779669 -0.9995565 2.4434252E-05
vn 0.81647944 -0.57737446 9.7302645E-06
vn 0.81647956 -0.57737446 9.730265E-06
vn 0.81647944 -0.57737446 9.7302645E-06
vn 0.81647956 -0.57737446 9.730265E-06
vn -0.88337106 0.46867442 0
vn -0.88337106 0.46867442 0
vn -0.88337094 0.4686744 0
vn -0.88337106 0.46867442 0
vn -0.07204337 -0.13801175 0.987807
vn -0.072043374 -0.13801175 0.987807
vn -0.07204337 -0.13801175 0.987807
vn -0.06282935 0.14221403 0.9878399
vn -0.06282936 0.14221406 0.9878399
vn -0.06282935 0.14221406 0.9878399
vn 0.056293912 -0.11956684 0.99122894
vn 0.056293912 -0.11956684 0.99122894
vn 0.056293912 -0.11956683 0.99122894
vn 0.06423798 0.115845695 0.9911878
vn 0.06423798 0.115845725 0.9911878
vn 0.06423799 0.11584572 0.9911878
vn -0.07204308 -0.13801117 -0.9878071
vn -0.07204308 -0.13801119 -0.9878071
vn -0.07204309 -0.1380112 -0.9878071
vn -0.06282934 0.14221808 -0.98783934
vn -0.06282935 0.14221808 -0.98783934
vn -0.06282934 0.14221808 -0.98783934
vn 0.056293905 -0.11956709 -0.9912288
vn 0.056293897 -0.119567074 -0.9912288
vn 0.056293905 -0.11956709 -0.9912288
vn 0.064238094 0.115846165 -0.9911877
vn 0.06423808 0.115846165 -0.9911877
vn 0.064238094 0.11584617 -0.9911877
vn -0.54438555 0.8388351 0
vn -0.54438555 0.8388351 0
vn -0.5443855 0.8388351 0
vn -0.59971833 -0.80021113 0
vn -0.59971833 -0.80021113 0
vn -0.59971833 -0.80021113 0
g arrowDragon_0
f 3/3/3 2/2/2 1/1/1
f 4/4/4 3/3/3 1/1/1
f 7/7/7 6/6/6 5/5/5
f 8/8/8 7/7/7 5/5/5
f 11/11/11 10/10/10 9/9/9
f 12/12/12 11/11/11 9/9/9
f 15/15/15 14/14/14 13/13/13
f 16/16/16 15/15/15 13/13/13
f 19/19/19 18/18/18 17/17/17
f 20/20/20 19/19/19 17/17/17
f 23/23/23 22/22/22 21/21/21
f 24/24/24 23/23/23 21/21/21
f 27/27/27 26/26/26 25/25/25
f 28/28/28 27/27/27 25/25/25
f 28/28/28 25/25/25 29/29/29
f 30/30/30 28/28/28 29/29/29
f 33/33/33 32/32/32 31/31/31
f 34/34/34 33/33/33 31/31/31
f 34/34/34 31/31/31 35/35/35
f 36/36/36 34/34/34 35/35/35
f 39/39/39 38/38/38 37/37/37
f 40/40/40 39/39/39 37/37/37
f 39/39/39 41/41/41 38/38/38
f 41/41/41 42/42/42 38/38/38
f 45/45/45 44/44/44 43/43/43
f 46/46/46 45/45/45 43/43/43
f 46/46/46 43/43/43 47/47/47
f 48/48/48 46/46/46 47/47/47
f 51/51/51 50/50/50 49/49/49
f 51/51/51 49/49/49 52/52/52
f 52/52/52 53/53/53 51/51/51
f 54/54/54 49/49/49 50/50/50
f 55/55/55 54/54/54 50/50/50
f 55/55/55 50/50/50 56/56/56
f 56/56/56 50/50/50 51/51/51
f 57/57/57 55/55/55 56/56/56
f 51/51/51 53/53/53 58/58/58
f 59/59/59 51/51/51 58/58/58
f 60/60/60 51/51/51 59/59/59
f 60/60/60 56/56/56 51/51/51
f 61/61/61 60/60/60 59/59/59
f 64/64/64 63/63/63 62/62/62
f 62/62/62 65/65/65 64/64/64
f 62/62/62 66/66/66 65/65/65
f 66/66/66 67/67/67 65/65/65
f 67/67/67 68/68/68 65/65/65
f 65/65/65 68/68/68 69/69/69
f 68/68/68 70/70/70 69/69/69
f 63/63/63 64/64/64 71/71/71
f 64/64/64 72/72/72 71/71/71
f 64/64/64 73/73/73 72/72/72
f 65/65/65 69/69/69 73/73/73
f 64/64/64 65/65/65 73/73/73
f 73/73/73 74/74/74 72/72/72
f 77/77/77 76/76/76 75/75/75
f 78/78/78 77/77/77 75/75/75
f 81/81/81 80/80/80 79/79/79
f 82/82/82 81/81/81 79/79/79
f 85/85/85 84/84/84 83/83/83
f 86/86/86 85/85/85 83/83/83
f 83/83/83 84/84/84 87/87/87
f 84/84/84 88/88/88 87/87/87
f 91/91/91 90/90/90 89/89/89
f 92/92/92 91/91/91 89/89/89
f 95/95/95 94/94/94 93/93/93
f 96/96/96 95/95/95 93/93/93
f 99/99/99 98/98/98 97/97/97
f 100/100/100 99/99/99 97/97/97
f 103/103/103 102/102/102 101/101/101
f 104/104/104 103/103/103 101/101/101
f 107/107/107 106/106/106 105/105/105
f 108/108/108 107/107/107 105/105/105
f 111/111/111 110/110/110 109/109/109
f 112/112/112 111/111/111 109/109/109
f 115/115/115 114/114/114 113/113/113
f 116/116/116 115/115/115 113/113/113
f 119/119/119 118/118/118 117/117/117
f 120/120/120 119/119/119 117/117/117
f 121/121/121 119/119/119 120/120/120
f 122/122/122 121/121/121 120/120/120
f 122/122/122 120/120/120 123/123/123
f 124/124/124 122/122/122 123/123/123
f 123/123/123 120/120/120 125/125/125
f 120/120/120 126/126/126 125/125/125
f 117/117/117 126/126/126 120/120/120
f 126/126/126 117/117/117 127/127/127
f 128/128/128 126/126/126 127/127/127
f 131/131/131 130/130/130 129/129/129
f 132/132/132 131/131/131 129/129/129
f 131/131/131 133/133/133 130/130/130
f 133/133/133 134/134/134 130/130/130
f 130/130/130 134/134/134 135/135/135
f 134/134/134 136/136/136 135/135/135
f 130/130/130 135/135/135 137/137/137
f 138/138/138 130/130/130 137/137/137
f 138/138/138 129/129/129 130/130/130
f 129/129/129 138/138/138 139/139/139
f 138/138/138 140/140/140 139/139/139
f 143/143/143 142/142/142 141/141/141
f 144/144/144 143/143/143 141/141/141
f 147/147/147 146/146/146 145/145/145
f 148/148/148 147/147/147 145/145/145
f 151/151/151 150/150/150 149/149/149
f 152/152/152 151/151/151 149/149/149
f 149/149/149 150/150/150 153/153/153
f 150/150/150 154/154/154 153/153/153
f 157/157/157 156/156/156 155/155/155
f 158/158/158 157/157/157 155/155/155
f 161/161/161 160/160/160 159/159/159
f 162/162/162 161/161/161 159/159/159
f 165/165/165 164/164/164 163/163/163
f 166/166/166 165/165/165 163/163/163
f 169/169/169 168/168/168 167/167/167
f 170/170/170 169/169/169 167/167/167
f 173/173/173 172/172/172 171/171/171
f 174/174/174 173/173/173 171/171/171
f 177/177/177 176/176/176 175/175/175
f 178/178/178 177/177/177 175/175/175
f 181/181/181 180/180/180 179/179/179
f 182/182/182 181/181/181 179/179/179
f 185/185/185 184/184/184 183/183/183
f 188/188/188 187/187/187 186/186/186
f 191/191/191 190/190/190 189/189/189
f 194/194/194 193/193/193 192/192/192
f 197/197/197 196/196/196 195/195/195
f 200/200/200 199/199/199 198/198/198
f 203/203/203 202/202/202 201/201/201
f 206/206/206 205/205/205 204/204/204
f 209/209/209 208/208/208 207/207/207
f 212/212/212 211/211/211 210/210/210
