g aztecTempleWaterFall
v -9.2749815 5.78855 3.9163737
v -9.831069 5.817329 3.8372881
v -9.799979 5.8331876 3.811801
v -9.243893 5.8044086 3.878366
v -9.151954 5.762157 3.8911724
v -9.1830435 5.746299 3.9315898
v -9.151954 5.762157 3.4614654
v -9.243893 5.8044086 3.4742742
v -9.79998 5.8331876 3.5408368
v -9.1830435 5.746299 3.4210467
v -9.2749815 5.78855 3.436264
v -9.831069 5.817329 3.5153496
v -9.145599 3.5902927 3.9976408
v -9.145599 4.788002 3.9717827
v -9.114511 4.788002 3.9250019
v -9.11451 3.5902927 3.9467657
v -9.11451 5.668158 3.9000812
v -9.145599 5.6523 3.9421747
v -9.145599 1.6848342 4.0261
v -9.11451 1.6848342 3.9707196
v -9.1830435 5.746299 3.9315898
v -9.151954 5.762157 3.8911724
v -9.11451 1.6848342 3.3819194
v -9.11451 3.5902927 3.405872
v -9.11451 4.788002 3.4276373
v -9.11451 5.668158 3.4525566
v -9.151954 5.762157 3.4614654
v -9.145599 1.6848342 3.3265362
v -9.145599 3.5902927 3.3549957
v -9.145599 4.788002 3.380855
v -9.145599 5.6523 3.410462
v -9.1830435 5.746299 3.4210467
v 9.34894 5.78855 3.4434497
v 9.905027 5.817329 3.5225353
v 9.873939 5.8331876 3.5480223
v 9.317851 5.8044086 3.4814575
v 9.225912 5.762157 3.468651
v 9.257002 5.746299 3.4282336
v 9.225912 5.762157 3.898358
v 9.317851 5.8044086 3.8855493
v 9.873939 5.8331876 3.8189867
v 9.257002 5.746299 3.9387767
v 9.34894 5.78855 3.9235594
v 9.905027 5.817329 3.8444738
v 9.219558 3.5902927 3.3621826
v 9.219558 4.788002 3.3880408
v 9.188469 4.788002 3.4348216
v 9.188468 3.5902927 3.4130578
v 9.188468 5.668158 3.4597423
v 9.219558 5.6523 3.4176488
v 9.219558 1.6848342 3.333723
v 9.188468 1.6848342 3.389104
v 9.257002 5.746299 3.4282336
v 9.225912 5.762157 3.468651
v 9.188468 1.6848342 3.977904
v 9.188468 3.5902927 3.9539514
v 9.188468 4.788002 3.9321861
v 9.188468 5.668158 3.9072669
v 9.225912 5.762157 3.898358
v 9.219558 1.6848342 4.033287
v 9.219558 3.5902927 4.004828
v 9.219558 4.788002 3.9789684
v 9.219558 5.6523 3.9493616
v 9.257002 5.746299 3.9387767
v -3.841542 3.0117488 -8.781566
v -3.7624562 3.0405283 -9.337653
v -3.440518 3.0405283 -9.337653
v -3.361433 3.0117488 -8.781566
v -3.3462157 2.9694972 -8.689628
v -3.8567588 2.9694972 -8.689628
v -3.9228096 1.7093731 -8.652184
v -3.896951 2.357213 -8.652184
v -3.3060231 2.357213 -8.652184
v -3.2801645 1.7093731 -8.652184
v -3.3356311 2.875498 -8.652184
v -3.8673434 2.875498 -8.652184
v -3.9512694 1.0615332 -8.652184
v -3.2517052 1.0615332 -8.652184
v -3.8567588 2.9694972 -8.689628
v -3.3462157 2.9694972 -8.689628
v 3.3378167 3.0117488 -8.781566
v 3.4169023 3.0405283 -9.337653
v 3.7388408 3.0405283 -9.337653
v 3.8179257 3.0117488 -8.781566
v 3.833143 2.9694972 -8.689628
v 3.3225996 2.9694972 -8.689628
v 3.256549 1.7093731 -8.652184
v 3.2824078 2.357213 -8.652184
v 3.8733356 2.357213 -8.652184
v 3.8991942 1.7093731 -8.652184
v 3.8437276 2.875498 -8.652184
v 3.3120153 2.875498 -8.652184
v 3.2280893 1.0615332 -8.652184
v 3.9276533 1.0615332 -8.652184
v 3.3225996 2.9694972 -8.689628
v 3.833143 2.9694972 -8.689628
vt 0 0.79718745
vt 9.0148674E-08 0.99999994
vt 0.07916678 0.99999994
vt 0.0791667 0.79718745
vt 0.0791667 0.75
vt 0 0.75
vt 0.9208332 0.75
vt 0.9208332 0.79718757
vt 0.92083305 1
vt 1 0.75
vt 1 0.79718757
vt 0.9999999 1
vt 0 0.25
vt 0 0.5
vt 0.07916667 0.5
vt 0.0791667 0.25
vt 0.07916701 0.700005
vt 0 0.700005
vt 0 0
vt 0.0791667 0
vt 0 0.75
vt 0.0791667 0.75
vt 0.9208332 0
vt 0.9208332 0.25
vt 0.9208329 0.5
vt 0.9208333 0.70000505
vt 0.9208332 0.75
vt 1 0
vt 1 0.25
vt 0.99999964 0.5
vt 1 0.70000505
vt 1 0.75
vt 0 0.79718745
vt 9.0148674E-08 0.99999994
vt 0.07916678 0.99999994
vt 0.0791667 0.79718745
vt 0.0791667 0.75
vt 0 0.75
vt 0.9208332 0.75
vt 0.9208332 0.79718757
vt 0.92083305 1
vt 1 0.75
vt 1 0.79718757
vt 0.9999999 1
vt 0 0.25
vt 0 0.5
vt 0.07916667 0.5
vt 0.0791667 0.25
vt 0.07916701 0.700005
vt 0 0.700005
vt 0 0
vt 0.0791667 0
vt 0 0.75
vt 0.0791667 0.75
vt 0.9208332 0
vt 0.9208332 0.25
vt 0.9208329 0.5
vt 0.9208333 0.70000505
vt 0.9208332 0.75
vt 1 0
vt 1 0.25
vt 0.99999964 0.5
vt 1 0.70000505
vt 1 0.75
vt 0 0.79718745
vt 9.0148674E-08 0.99999994
vt 0.9999999 1
vt 1 0.79718757
vt 1 0.75
vt 0 0.75
vt 0 0.25
vt 0 0.5
vt 0.99999964 0.5
vt 1 0.25
vt 1 0.70000505
vt 0 0.700005
vt 0 0
vt 1 0
vt 0 0.75
vt 1 0.75
vt 0 0.79718745
vt 9.0148674E-08 0.99999994
vt 0.9999999 1
vt 1 0.79718757
vt 1 0.75
vt 0 0.75
vt 0 0.25
vt 0 0.5
vt 0.99999964 0.5
vt 1 0.25
vt 1 0.70000505
vt 0 0.700005
vt 0 0
vt 1 0
vt 0 0.75
vt 1 0.75
vn 0.025219776 0.8907362 0.45382035
vn -0.010885616 0.89876616 0.43829316
vn 0.043739155 0.99723357 0.06010019
vn 0.1257527 0.9911739 0.041959714
vn 0.41037828 0.9104008 0.05253556
vn 0.2809797 0.79143417 0.54284656
vn 0.41037756 0.91040105 -0.052537307
vn 0.12575324 0.9911738 -0.04195976
vn 0.043739278 0.99723357 -0.06009992
vn 0.28098333 0.79144704 -0.5428258
vn 0.025224091 0.8907433 -0.4538062
vn -0.010883158 0.898773 -0.43827915
vn 0.84348136 0.010677112 0.53705233
vn 0.84348136 0.010677113 0.5370523
vn 0.9985613 0.0010664106 0.053611446
vn 0.998445 0.0011086348 0.055735394
vn 0.99802655 0.03650208 0.05109252
vn 0.8107715 0.044015095 0.5837056
vn 0.86306244 0.0069463425 0.50504935
vn 0.9987017 0.0007005628 0.05093597
vn 0.6838953 0.3393944 0.6458319
vn 0.9248329 0.37500924 0.06365647
vn 0.9987017 0.0007004969 -0.05093577
vn 0.9987704 0.00068171514 -0.049570072
vn 0.9985613 0.0010664765 -0.05361067
vn 0.99802655 0.036502033 -0.05109213
vn 0.924833 0.37500894 -0.0636562
vn 0.86307096 0.0069455192 -0.50503486
vn 0.86307096 0.0069455192 -0.50503486
vn 0.8434871 0.010677532 -0.5370432
vn 0.81077594 0.044014055 -0.58369946
vn 0.68390435 0.3393939 -0.64582247
vn -0.025220636 0.89073545 -0.45382187
vn 0.010885382 0.8987653 -0.4382949
vn -0.04373918 0.99723357 -0.06010015
vn -0.12575269 0.9911739 -0.04195966
vn -0.4103787 0.91040075 -0.0525355
vn -0.2809841 0.7914332 -0.5428458
vn -0.4103774 0.9104011 0.05253715
vn -0.12575305 0.9911739 0.041959707
vn -0.04373931 0.99723357 0.060099933
vn -0.28098118 0.79144764 0.5428262
vn -0.02522399 0.8907424 0.453808
vn 0.010882937 0.89877194 0.43828127
vn -0.8434831 0.01067671 -0.5370497
vn -0.8434831 0.010676711 -0.5370497
vn -0.9985613 0.0010658003 -0.053611398
vn -0.998445 0.0011080252 -0.05573536
vn -0.99802655 0.036501445 -0.051092677
vn -0.8107702 0.044015273 -0.5837074
vn -0.86306334 0.0069463234 -0.505048
vn -0.9987017 0.00070056244 -0.050935958
vn -0.6838951 0.33939093 -0.64583385
vn -0.9248388 0.37499472 -0.063656755
vn -0.9987017 0.0007005389 0.05093577
vn -0.9987704 0.000681756 0.049570072
vn -0.9985613 0.0010658317 0.05361067
vn -0.99802667 0.036501464 0.051092017
vn -0.9248387 0.3749949 0.06365651
vn -0.86307096 0.0069459355 0.50503486
vn -0.86307096 0.0069459355 0.50503486
vn -0.8434871 0.01067683 0.5370433
vn -0.8107755 0.04401467 0.58370006
vn -0.6839031 0.33939445 0.6458234
vn -0 0.9913765 0.13104431
vn -0 0.99866354 0.051683925
vn -0 0.99866354 0.05168393
vn -0 0.9913765 0.13104433
vn -0 0.9086408 0.41757855
vn -0 0.90864086 0.41757843
vn -0 0 1
vn -0 0 1
vn -0 0 1
vn -0 0 1
vn -0 0.052395616 0.99862635
vn -0 0.052395716 0.99862635
vn -0 0 1
vn -0 0 1
vn -0 0.37006217 0.929007
vn -0 0.37006223 0.929007
vn -0 0.9913765 0.13104431
vn -0 0.99866354 0.051683925
vn -0 0.99866354 0.05168393
vn -0 0.9913765 0.13104433
vn -0 0.9086408 0.41757855
vn -0 0.90864086 0.41757843
vn -0 0 1
vn -0 0 1
vn -0 0 1
vn -0 0 1
vn -0 0.052395616 0.99862635
vn -0 0.052395716 0.99862635
vn -0 0 1
vn -0 0 1
vn -0 0.37006217 0.929007
vn -0 0.37006223 0.929007
g aztecTempleWaterFall_0
f 3/3/3 2/2/2 1/1/1
f 4/4/4 3/3/3 1/1/1
f 5/5/5 4/4/4 1/1/1
f 6/6/6 5/5/5 1/1/1
f 5/5/5 7/7/7 4/4/4
f 7/7/7 8/8/8 4/4/4
f 4/4/4 8/8/8 3/3/3
f 8/8/8 9/9/9 3/3/3
f 7/7/7 10/10/10 8/8/8
f 10/10/10 11/11/11 8/8/8
f 8/8/8 11/11/11 9/9/9
f 11/11/11 12/12/12 9/9/9
f 15/15/15 14/14/14 13/13/13
f 16/16/16 15/15/15 13/13/13
f 15/15/15 17/17/17 14/14/14
f 17/17/17 18/18/18 14/14/14
f 16/16/16 13/13/13 19/19/19
f 20/20/20 16/16/16 19/19/19
f 18/18/18 17/17/17 21/21/21
f 17/17/17 22/22/22 21/21/21
f 20/20/20 23/23/23 16/16/16
f 23/23/23 24/24/24 16/16/16
f 16/16/16 24/24/24 15/15/15
f 24/24/24 25/25/25 15/15/15
f 15/15/15 25/25/25 17/17/17
f 25/25/25 26/26/26 17/17/17
f 17/17/17 26/26/26 22/22/22
f 26/26/26 27/27/27 22/22/22
f 23/23/23 28/28/28 24/24/24
f 28/28/28 29/29/29 24/24/24
f 24/24/24 29/29/29 25/25/25
f 29/29/29 30/30/30 25/25/25
f 25/25/25 30/30/30 26/26/26
f 30/30/30 31/31/31 26/26/26
f 26/26/26 31/31/31 27/27/27
f 31/31/31 32/32/32 27/27/27
f 35/35/35 34/34/34 33/33/33
f 36/36/36 35/35/35 33/33/33
f 37/37/37 36/36/36 33/33/33
f 38/38/38 37/37/37 33/33/33
f 37/37/37 39/39/39 36/36/36
f 39/39/39 40/40/40 36/36/36
f 36/36/36 40/40/40 35/35/35
f 40/40/40 41/41/41 35/35/35
f 39/39/39 42/42/42 40/40/40
f 42/42/42 43/43/43 40/40/40
f 40/40/40 43/43/43 41/41/41
f 43/43/43 44/44/44 41/41/41
f 47/47/47 46/46/46 45/45/45
f 48/48/48 47/47/47 45/45/45
f 47/47/47 49/49/49 46/46/46
f 49/49/49 50/50/50 46/46/46
f 48/48/48 45/45/45 51/51/51
f 52/52/52 48/48/48 51/51/51
f 50/50/50 49/49/49 53/53/53
f 49/49/49 54/54/54 53/53/53
f 52/52/52 55/55/55 48/48/48
f 55/55/55 56/56/56 48/48/48
f 48/48/48 56/56/56 47/47/47
f 56/56/56 57/57/57 47/47/47
f 47/47/47 57/57/57 49/49/49
f 57/57/57 58/58/58 49/49/49
f 49/49/49 58/58/58 54/54/54
f 58/58/58 59/59/59 54/54/54
f 55/55/55 60/60/60 56/56/56
f 60/60/60 61/61/61 56/56/56
f 56/56/56 61/61/61 57/57/57
f 61/61/61 62/62/62 57/57/57
f 57/57/57 62/62/62 58/58/58
f 62/62/62 63/63/63 58/58/58
f 58/58/58 63/63/63 59/59/59
f 63/63/63 64/64/64 59/59/59
f 67/67/67 66/66/66 65/65/65
f 68/68/68 67/67/67 65/65/65
f 69/69/69 68/68/68 65/65/65
f 70/70/70 69/69/69 65/65/65
f 73/73/73 72/72/72 71/71/71
f 74/74/74 73/73/73 71/71/71
f 73/73/73 75/75/75 72/72/72
f 75/75/75 76/76/76 72/72/72
f 74/74/74 71/71/71 77/77/77
f 78/78/78 74/74/74 77/77/77
f 76/76/76 75/75/75 79/79/79
f 75/75/75 80/80/80 79/79/79
f 83/83/83 82/82/82 81/81/81
f 84/84/84 83/83/83 81/81/81
f 85/85/85 84/84/84 81/81/81
f 86/86/86 85/85/85 81/81/81
f 89/89/89 88/88/88 87/87/87
f 90/90/90 89/89/89 87/87/87
f 89/89/89 91/91/91 88/88/88
f 91/91/91 92/92/92 88/88/88
f 90/90/90 87/87/87 93/93/93
f 94/94/94 90/90/90 93/93/93
f 92/92/92 91/91/91 95/95/95
f 91/91/91 96/96/96 95/95/95
