g banditArrow
v 0.09004455 -0.019450072 -0.015598957
v -0.0032864378 -0.02317871 -0.022473957
v -0.0032864378 -0.02317932 0.022473857
v 0.09004455 -0.019450072 0.015598859
v -0.0032864378 -0.02317871 -0.022473957
v -0.0017703247 0.021743774 -0.022473957
v -0.0017703247 0.021743163 0.022473857
v -0.0032864378 -0.02317932 0.022473857
v -0.0017703247 0.021743774 -0.022473957
v 0.091096796 0.011729736 -0.015598956
v 0.091096796 0.011729126 0.015598857
v -0.0017703247 0.021743163 0.022473857
v 1.3434393 -0.03503113 -0.011115008
v 1.3426898 -0.05724792 -0.011115008
v 1.3426898 -0.05724792 0.01111491
v 1.3434393 -0.035030518 0.01111491
v 0.09004455 -0.019450072 0.015598859
v -0.0032864378 -0.02317932 0.022473857
v -0.0017703247 0.021743163 0.022473857
v 0.091096796 0.011729126 0.015598857
v 0.091096796 0.011729736 -0.015598956
v -0.0017703247 0.021743774 -0.022473957
v -0.0032864378 -0.02317871 -0.022473957
v 0.09004455 -0.019450072 -0.015598957
v 1.1735156 -0.056023557 -0.015598957
v 0.09004455 -0.019450072 -0.015598957
v 0.09004455 -0.019450072 0.015598859
v 1.1735156 -0.056023557 0.015598859
v 1.3426898 -0.05724792 -0.011115008
v 1.3426898 -0.05724792 0.01111491
v 1.1735156 -0.056023557 0.015598859
v 0.09004455 -0.019450072 0.015598859
v 0.091096796 0.011729126 0.015598857
v 1.1745678 -0.024843749 0.015598857
v 1.3426898 -0.05724792 0.01111491
v 1.3434393 -0.035030518 0.01111491
v 0.091096796 0.011729736 -0.015598956
v 1.1745678 -0.024843749 -0.015598956
v 1.1745678 -0.024843749 0.015598857
v 0.091096796 0.011729126 0.015598857
v 1.3434393 -0.035030518 0.01111491
v 1.3434393 -0.03503113 -0.011115008
v 1.1745678 -0.024843749 -0.015598956
v 0.091096796 0.011729736 -0.015598956
v 0.09004455 -0.019450072 -0.015598957
v 1.1735156 -0.056023557 -0.015598957
v 1.3434393 -0.03503113 -0.011115008
v 1.3426898 -0.05724792 -0.011115008
v 0.2182489 -0.013944091 0.055209603
v 0.2182489 -0.013944091 -4.9471854E-08
v 0.15285583 -0.011737061 -4.9471854E-08
v 0.08997192 -0.009614257 -4.9471854E-08
v 0.05397003 -0.008399048 0.07924708
v 0.2740808 -0.015828857 0.019687297
v 0.2740808 -0.015828857 -4.9471854E-08
v 0.2182489 -0.013944091 -0.055209707
v 0.2740808 -0.015828857 -0.019687397
v 0.05397003 -0.008398437 -0.07924718
v 0.12777771 -0.0108898925 -0.06844747
v 0.16509826 -0.012150268 -0.06351125
v 0.14492463 -0.0114691155 -0.048530325
v 0.054321595 0.002038574 0.07924708
v 0.09032471 0.00082336424 -4.917383E-08
v 0.13577728 -0.00071105955 -4.917383E-08
v 0.21860167 -0.00350708 -4.917383E-08
v 0.21860167 -0.0035064695 0.055209603
v 0.27443358 -0.0053912355 0.019687299
v 0.27443358 -0.0053912355 -4.917383E-08
v 0.21860167 -0.00350708 -0.055209707
v 0.27443358 -0.0053918455 -0.019687397
v 0.054321595 0.002038574 -0.079247184
v 0.12669067 -0.00040466306 -0.068658195
v 0.16311462 -0.001633911 -0.062803395
v 0.14252014 -0.0009387207 -0.048933767
v 0.21860167 -0.0035064695 0.055209603
v 0.2182489 -0.013944091 0.055209603
v 0.05397003 -0.008399048 0.07924708
v 0.054321595 0.002038574 0.07924708
v 0.054321595 0.002038574 0.07924708
v 0.05397003 -0.008399048 0.07924708
v 0.08997192 -0.009614257 -4.9471854E-08
v 0.09032471 0.00082336424 -4.917383E-08
v 0.27443358 -0.0053912355 -4.917383E-08
v 0.2740808 -0.015828857 -4.9471854E-08
v 0.2740808 -0.015828857 0.019687297
v 0.27443358 -0.0053912355 0.019687299
v 0.27443358 -0.0053918455 -0.019687397
v 0.2740808 -0.015828857 -0.019687397
v 0.27443358 -0.0053912355 0.019687299
v 0.2740808 -0.015828857 0.019687297
v 0.2182489 -0.013944091 0.055209603
v 0.21860167 -0.0035064695 0.055209603
v 0.14252014 -0.0009387207 -0.048933767
v 0.14492463 -0.0114691155 -0.048530325
v 0.16509826 -0.012150268 -0.06351125
v 0.16311462 -0.001633911 -0.062803395
v 0.09032471 0.00082336424 -4.917383E-08
v 0.08997192 -0.009614257 -4.9471854E-08
v 0.05397003 -0.008398437 -0.07924718
v 0.054321595 0.002038574 -0.079247184
v 0.21860167 -0.00350708 -0.055209707
v 0.2182489 -0.013944091 -0.055209707
v 0.2740808 -0.015828857 -0.019687397
v 0.27443358 -0.0053918455 -0.019687397
v 0.054321595 0.002038574 -0.079247184
v 0.05397003 -0.008398437 -0.07924718
v 0.12777771 -0.0108898925 -0.06844747
v 0.12669067 -0.00040466306 -0.068658195
v 0.16509826 -0.012150268 -0.06351125
v 0.2182489 -0.013944091 -0.055209707
v 0.21860167 -0.00350708 -0.055209707
v 0.16311462 -0.001633911 -0.062803395
v 0.12669067 -0.00040466306 -0.068658195
v 0.12777771 -0.0108898925 -0.06844747
v 0.14492463 -0.0114691155 -0.048530325
v 0.14252014 -0.0009387207 -0.048933767
v 0.090131834 -0.0048864745 0.010443219
v 0.056618955 0.07009582 0.01044322
v 0.2202716 0.045961913 0.01044322
v 0.21840881 -0.009216309 0.010443219
v 0.2749048 0.008575439 0.010443219
v 0.2742407 -0.011101074 0.010443219
v 0.21654601 -0.064394526 0.01044322
v 0.27357665 -0.030776978 0.010443219
v 0.14257935 -0.06846374 0.01044322
v 0.13171142 -0.028454589 0.010443219
v 0.05163971 -0.07743774 0.01044322
v 0.098050535 -0.076054685 0.01044322
v 0.090131834 -0.004885864 -4.917383E-08
v 0.21840881 -0.009216309 -4.917383E-08
v 0.2202716 0.045961913 -4.7683713E-08
v 0.056618955 0.07009643 -4.7683713E-08
v 0.2749048 0.008575439 -4.887581E-08
v 0.2742407 -0.011101074 -4.917383E-08
v 0.21654601 -0.064394526 -4.7683713E-08
v 0.27357665 -0.030776978 -5.00679E-08
v 0.14257935 -0.06846313 -4.7683713E-08
v 0.13171142 -0.028454589 -5.00679E-08
v 0.05163971 -0.07743774 -4.7683713E-08
v 0.098050535 -0.076054685 -4.7683713E-08
v 0.2202716 0.045961913 -4.7683713E-08
v 0.2202716 0.045961913 0.01044322
v 0.056618955 0.07009582 0.01044322
v 0.056618955 0.07009643 -4.7683713E-08
v 0.056618955 0.07009643 -4.7683713E-08
v 0.056618955 0.07009582 0.01044322
v 0.090131834 -0.0048864745 0.010443219
v 0.090131834 -0.004885864 -4.917383E-08
v 0.2742407 -0.011101074 -4.917383E-08
v 0.2742407 -0.011101074 0.010443219
v 0.2749048 0.008575439 0.010443219
v 0.2749048 0.008575439 -4.887581E-08
v 0.27357665 -0.030776978 -5.00679E-08
v 0.27357665 -0.030776978 0.010443219
v 0.2749048 0.008575439 -4.887581E-08
v 0.2749048 0.008575439 0.010443219
v 0.2202716 0.045961913 0.01044322
v 0.2202716 0.045961913 -4.7683713E-08
v 0.21654601 -0.064394526 -4.7683713E-08
v 0.21654601 -0.064394526 0.01044322
v 0.27357665 -0.030776978 0.010443219
v 0.27357665 -0.030776978 -5.00679E-08
v 0.14257935 -0.06846313 -4.7683713E-08
v 0.14257935 -0.06846374 0.01044322
v 0.21654601 -0.064394526 0.01044322
v 0.21654601 -0.064394526 -4.7683713E-08
v 0.13171142 -0.028454589 -5.00679E-08
v 0.13171142 -0.028454589 0.010443219
v 0.14257935 -0.06846374 0.01044322
v 0.14257935 -0.06846313 -4.7683713E-08
v 0.05163971 -0.07743774 -4.7683713E-08
v 0.05163971 -0.07743774 0.01044322
v 0.098050535 -0.076054685 0.01044322
v 0.098050535 -0.076054685 -4.7683713E-08
v 0.098050535 -0.076054685 -4.7683713E-08
v 0.098050535 -0.076054685 0.01044322
v 0.13171142 -0.028454589 0.010443219
v 0.13171142 -0.028454589 -5.00679E-08
v 0.090131834 -0.004885864 -4.917383E-08
v 0.090131834 -0.0048864745 0.010443219
v 0.05163971 -0.07743774 0.01044322
v 0.05163971 -0.07743774 -4.7683713E-08
v 1.2116138 -0.08654663 -0.00035923958
v 1.2772968 -0.043919068 0.010386761
v 1.2895557 -0.12007141 -0.00035923958
v 1.2772968 -0.043919068 0.010386761
v 1.2146374 0.0030395507 -0.00035923958
v 1.2946631 0.0312323 -0.00035923958
v 1.4538549 -0.04987976 -0.00035924106
v 1.2895557 -0.12007141 -0.00035923958
v 1.2772968 -0.043919068 0.010386761
v 1.2946631 0.0312323 -0.00035923958
v 1.4538549 -0.04987976 -0.00035924106
v 1.2772968 -0.043919068 0.010386761
v 1.2116138 -0.08654663 -0.00035923958
v 1.2895557 -0.12007141 -0.00035923958
v 1.2772968 -0.043919675 -0.011105243
v 1.2772968 -0.043919675 -0.011105243
v 1.2946631 0.0312323 -0.00035923958
v 1.2146374 0.0030395507 -0.00035923958
v 1.4538549 -0.04987976 -0.00035924106
v 1.2772968 -0.043919675 -0.011105243
v 1.2895557 -0.12007141 -0.00035923958
v 1.2946631 0.0312323 -0.00035923958
v 1.2772968 -0.043919675 -0.011105243
v 1.4538549 -0.04987976 -0.00035924106
v 1.2772968 -0.043919675 -0.011105243
v 1.2772968 -0.043919068 0.010386761
v 1.2116138 -0.08654663 -0.00035923958
v 1.2146374 0.0030395507 -0.00035923958
v 1.2772968 -0.043919068 0.010386761
v 1.2772968 -0.043919675 -0.011105243
vt 0.41120496 0.7112372
vt 0.403946 0.71070147
vt 0.403946 0.71070147
vt 0.41120496 0.7112372
vt 0.403946 0.71070147
vt 0.403946 0.714204
vt 0.403946 0.714204
vt 0.403946 0.71070147
vt 0.403946 0.714204
vt 0.41120496 0.7136682
vt 0.41120496 0.7136682
vt 0.403946 0.714204
vt 0.483613 0.7133189
vt 0.483613 0.7115866
vt 0.483613 0.7115866
vt 0.483613 0.7133189
vt 0.41120496 0.7112372
vt 0.403946 0.71070147
vt 0.403946 0.714204
vt 0.41120496 0.7136682
vt 0.41120496 0.7136682
vt 0.403946 0.714204
vt 0.403946 0.71070147
vt 0.41120496 0.7112372
vt 0.47043437 0.7112372
vt 0.41120496 0.7112372
vt 0.41120496 0.7112372
vt 0.47043437 0.7112372
vt 0.483613 0.7115866
vt 0.483613 0.7115866
vt 0.47043437 0.7112372
vt 0.41120496 0.7112372
vt 0.41120496 0.7136682
vt 0.47043437 0.7136682
vt 0.483613 0.7115866
vt 0.483613 0.7133189
vt 0.41120496 0.7136682
vt 0.47043437 0.7136682
vt 0.47043437 0.7136682
vt 0.41120496 0.7136682
vt 0.483613 0.7133189
vt 0.483613 0.7133189
vt 0.47043437 0.7136682
vt 0.41120496 0.7136682
vt 0.41120496 0.7112372
vt 0.47043437 0.7112372
vt 0.483613 0.7133189
vt 0.483613 0.7115866
vt 0.08520448 0.060441136
vt 0.08520448 0.060441136
vt 0.060706258 0.060441136
vt 0.037148595 0.060441136
vt 0.023661375 0.060441136
vt 0.10612047 0.060441136
vt 0.10612047 0.060441136
vt 0.08520448 0.060441136
vt 0.10612047 0.060441136
vt 0.023661375 0.060441136
vt 0.05131173 0.060441136
vt 0.065292835 0.060441136
vt 0.057735443 0.060441136
vt 0.023661375 0.0643512
vt 0.037148595 0.0643512
vt 0.05417669 0.0643512
vt 0.08520448 0.0643512
vt 0.08520448 0.0643512
vt 0.10612047 0.0643512
vt 0.10612047 0.0643512
vt 0.08520448 0.0643512
vt 0.10612047 0.0643512
vt 0.023661375 0.0643512
vt 0.05077219 0.0643512
vt 0.06441748 0.0643512
vt 0.056702614 0.0643512
vt 0.08520448 0.0643512
vt 0.08520448 0.060441136
vt 0.023661375 0.060441136
vt 0.023661375 0.0643512
vt 0.023661375 0.0643512
vt 0.023661375 0.060441136
vt 0.037148595 0.060441136
vt 0.037148595 0.0643512
vt 0.10612047 0.0643512
vt 0.10612047 0.060441136
vt 0.10612047 0.060441136
vt 0.10612047 0.0643512
vt 0.10612047 0.0643512
vt 0.10612047 0.060441136
vt 0.10612047 0.0643512
vt 0.10612047 0.060441136
vt 0.08520448 0.060441136
vt 0.08520448 0.0643512
vt 0.056702614 0.0643512
vt 0.057735443 0.060441136
vt 0.065292835 0.060441136
vt 0.06441748 0.0643512
vt 0.037148595 0.0643512
vt 0.037148595 0.060441136
vt 0.023661375 0.060441136
vt 0.023661375 0.0643512
vt 0.08520448 0.0643512
vt 0.08520448 0.060441136
vt 0.10612047 0.060441136
vt 0.10612047 0.0643512
vt 0.023661375 0.0643512
vt 0.023661375 0.060441136
vt 0.05131173 0.060441136
vt 0.05077219 0.0643512
vt 0.065292835 0.060441136
vt 0.08520448 0.060441136
vt 0.08520448 0.0643512
vt 0.06441748 0.0643512
vt 0.05077219 0.0643512
vt 0.05131173 0.060441136
vt 0.057735443 0.060441136
vt 0.056702614 0.0643512
vt 0.038036704 0.07022822
vt 0.024981141 0.096978545
vt 0.084554195 0.09023774
vt 0.084554195 0.07022822
vt 0.1048007 0.07736343
vt 0.1048007 0.07022822
vt 0.084554195 0.0502187
vt 0.1048007 0.06309301
vt 0.057811856 0.047840476
vt 0.053385973 0.062199533
vt 0.024981141 0.043477893
vt 0.04177499 0.044546187
vt 0.038036704 0.07022822
vt 0.084554195 0.07022822
vt 0.084554195 0.09023774
vt 0.024981141 0.096978545
vt 0.1048007 0.07736343
vt 0.1048007 0.07022822
vt 0.084554195 0.0502187
vt 0.1048007 0.06309301
vt 0.057811856 0.047840476
vt 0.053385973 0.062199533
vt 0.024981141 0.043477893
vt 0.04177499 0.044546187
vt 0.084554195 0.09023774
vt 0.084554195 0.09023774
vt 0.024981141 0.096978545
vt 0.024981141 0.096978545
vt 0.024981141 0.096978545
vt 0.024981141 0.096978545
vt 0.038036704 0.07022822
vt 0.038036704 0.07022822
vt 0.1048007 0.07022822
vt 0.1048007 0.07022822
vt 0.1048007 0.07736343
vt 0.1048007 0.07736343
vt 0.1048007 0.06309301
vt 0.1048007 0.06309301
vt 0.1048007 0.07736343
vt 0.1048007 0.07736343
vt 0.084554195 0.09023774
vt 0.084554195 0.09023774
vt 0.084554195 0.0502187
vt 0.084554195 0.0502187
vt 0.1048007 0.06309301
vt 0.1048007 0.06309301
vt 0.057811856 0.047840476
vt 0.057811856 0.047840476
vt 0.084554195 0.0502187
vt 0.084554195 0.0502187
vt 0.053385973 0.062199533
vt 0.053385973 0.062199533
vt 0.057811856 0.047840476
vt 0.057811856 0.047840476
vt 0.024981141 0.043477893
vt 0.024981141 0.043477893
vt 0.04177499 0.044546187
vt 0.04177499 0.044546187
vt 0.04177499 0.044546187
vt 0.04177499 0.044546187
vt 0.053385973 0.062199533
vt 0.053385973 0.062199533
vt 0.038036704 0.07022822
vt 0.038036704 0.07022822
vt 0.024981141 0.043477893
vt 0.024981141 0.043477893
vt 0.90345424 0.66993195
vt 0.923923 0.68421984
vt 0.92864794 0.6600888
vt 0.923923 0.68421984
vt 0.90345424 0.69850785
vt 0.92864794 0.70835096
vt 0.9802411 0.68421984
vt 0.92864794 0.6600888
vt 0.923923 0.68421984
vt 0.92864794 0.70835096
vt 0.9802411 0.68421984
vt 0.923923 0.68421984
vt 0.90345424 0.66993195
vt 0.92864794 0.6600888
vt 0.923923 0.68421984
vt 0.923923 0.68421984
vt 0.92864794 0.70835096
vt 0.90345424 0.69850785
vt 0.9802411 0.68421984
vt 0.923923 0.68421984
vt 0.92864794 0.6600888
vt 0.92864794 0.70835096
vt 0.923923 0.68421984
vt 0.9802411 0.68421984
vt 0.923923 0.68421984
vt 0.923923 0.68421984
vt 0.90345424 0.66993195
vt 0.90345424 0.69850785
vt 0.923923 0.68421984
vt 0.923923 0.68421984
vn 0.039922155 -0.9992028 0
vn 0.03992216 -0.9992028 0
vn 0.039922155 -0.9992028 0
vn 0.039922155 -0.9992028 0
vn -0.9994311 0.033727203 0
vn -0.9994311 0.033727203 0
vn -0.9994311 0.033727203 0
vn -0.9994311 0.033727203 0
vn 0.10721034 0.9942364 4.1191128E-05
vn 0.107210346 0.9942364 4.1191135E-05
vn 0.107210346 0.9942364 4.1191142E-05
vn 0.10721034 0.9942364 4.1191135E-05
vn 0.9994313 -0.033718664 7.719475E-07
vn 0.9994313 -0.033718664 7.719475E-07
vn 0.9994313 -0.033718664 7.719475E-07
vn 0.9994313 -0.033718668 7.7194755E-07
vn 0.073562995 -0.0024826806 0.9972875
vn 0.07356298 -0.0024826806 0.9972875
vn 0.07356299 -0.0024826808 0.9972875
vn 0.073562995 -0.0024826806 0.9972875
vn 0.07356054 -0.0024825789 -0.99728775
vn 0.07356055 -0.0024825786 -0.99728775
vn 0.07356056 -0.0024825786 -0.99728775
vn 0.07356056 -0.0024825786 -0.99728775
vn -0.033736642 -0.9994307 0
vn -0.033736642 -0.9994307 0
vn -0.033736642 -0.9994307 0
vn -0.033736642 -0.9994307 0
vn -0.007237088 -0.9999739 0
vn -0.007237088 -0.9999739 0
vn -0 0 1
vn -0 0 1
vn -0 0 1
vn -0 0 1
vn 0.0264894 -0.00089371076 0.9996487
vn 0.0264894 -0.00089371065 0.9996487
vn 0.03373635 0.9994307 2.309943E-05
vn 0.033736356 0.9994307 2.309943E-05
vn 0.033736356 0.9994307 2.309943E-05
vn 0.03373636 0.9994307 2.3099432E-05
vn 0.060214903 0.99818546 -2.1608164E-05
vn 0.0602149 0.99818546 -2.1608164E-05
vn -0 0 -1
vn -0 0 -1
vn -0 0 -1
vn -0 0 -1
vn 0.026489675 -0.00089373003 -0.9996487
vn 0.026489679 -0.00089373003 -0.9996487
vn -0.033734538 -0.99943084 -2.5370066E-06
vn -0.033734538 -0.99943084 -2.5370064E-06
vn -0.033734538 -0.99943084 -2.5370064E-06
vn -0.033734538 -0.99943084 -2.5370066E-06
vn -0.033734538 -0.99943084 -2.5370064E-06
vn -0.03373865 -0.9994306 0
vn -0.033738654 -0.9994306 0
vn -0.033738654 -0.9994306 0
vn -0.03373865 -0.9994306 0
vn -0.033736788 -0.9994307 -4.9977284E-06
vn -0.03375223 -0.99943024 0
vn -0.03375223 -0.99943024 0
vn -0.03375223 -0.99943024 0
vn 0.033736203 0.9994307 -1.2684998E-05
vn 0.0337362 0.9994307 -1.2684997E-05
vn 0.033736207 0.9994307 -1.2685E-05
vn 0.033736207 0.9994307 -1.2685E-05
vn 0.033736203 0.9994307 -1.2684997E-05
vn 0.033730317 0.99943095 -1.167004E-05
vn 0.033730317 0.99943095 -1.167004E-05
vn 0.033735786 0.9994307 0
vn 0.033735786 0.9994307 0
vn 0.03374117 0.9994306 0
vn 0.033729676 0.99943095 0
vn 0.03372968 0.99943095 0
vn 0.033729672 0.99943095 0
vn 0.1446029 -0.0048791375 0.9894777
vn 0.14460291 -0.004879138 0.9894777
vn 0.14460291 -0.004879138 0.9894777
vn 0.1446029 -0.004879138 0.9894777
vn -0.9098447 0.030700644 -0.41381156
vn -0.9098447 0.030700646 -0.4138116
vn -0.9098447 0.030700646 -0.41381156
vn -0.9098447 0.030700644 -0.41381156
vn 0.99943 -0.03375855 0
vn 0.99943 -0.033758555 0
vn 0.99943 -0.033758555 0
vn 0.99943 -0.033758555 0
vn 0.9994281 -0.033812653 0
vn 0.9994281 -0.03381265 0
vn 0.5362665 -0.018129619 0.84385395
vn 0.5362665 -0.018129619 0.84385395
vn 0.53626657 -0.01812962 0.84385395
vn 0.5362665 -0.018129619 0.84385395
vn -0.5767044 -0.10854461 -0.80970997
vn -0.5767044 -0.10854461 -0.80970997
vn -0.5767043 -0.10854461 -0.80970997
vn -0.5767044 -0.108544625 -0.80970997
vn -0.9098474 0.030694705 0.41380617
vn -0.9098474 0.030694705 0.41380617
vn -0.9098474 0.030694705 0.41380623
vn -0.9098474 0.030694705 0.41380623
vn 0.5362668 -0.018133597 -0.8438537
vn 0.5362668 -0.018133597 -0.8438537
vn 0.5362668 -0.018133597 -0.8438537
vn 0.5362668 -0.018133597 -0.8438537
vn 0.14461634 -0.004881966 -0.9894757
vn 0.14461634 -0.0048819664 -0.9894757
vn 0.14461634 -0.0048819664 -0.9894757
vn 0.14461634 -0.004881966 -0.9894757
vn 0.14611477 0.044764135 -0.9882543
vn 0.14611478 0.04476414 -0.9882543
vn 0.14611477 0.04476413 -0.9882543
vn 0.14611477 0.044764135 -0.9882543
vn 0.7657327 0.108693846 -0.63390785
vn 0.7657327 0.10869384 -0.63390785
vn 0.7657327 0.10869384 -0.63390785
vn 0.7657327 0.10869384 -0.63390785
vn -0 0 1
vn -0 0 1
vn -0 0 1
vn -0 0 1
vn -0 0 1
vn -0 0 1
vn -0 0 1
vn -0 0 1
vn -0 0 1
vn -0 0 1
vn -0 0 1
vn -0 0 1
vn -0 0 -1
vn -0 0 -1
vn -0 0 -1
vn -0 0 -1
vn -0 0 -1
vn -0 0 -1
vn -0 0 -1
vn -0 0 -1
vn -0 0 -1
vn -0 0 -1
vn -0 0 -1
vn -0 0 -1
vn 0.14589444 0.98930025 5.652872E-05
vn 0.14589444 0.98930025 5.652872E-05
vn 0.14589444 0.98930025 5.6528726E-05
vn 0.14589444 0.98930025 5.6528716E-05
vn -0.9129624 -0.40804377 0
vn -0.9129623 -0.40804383 0
vn -0.9129624 -0.40804377 0
vn -0.9129623 -0.40804383 0
vn 0.9994307 -0.033737868 0
vn 0.9994307 -0.033737868 0
vn 0.9994307 -0.033737868 0
vn 0.9994307 -0.033737868 0
vn 0.99943167 -0.033709254 0
vn 0.99943167 -0.033709258 0
vn 0.56474334 0.8252666 0
vn 0.56474334 0.8252666 0
vn 0.56474334 0.8252666 0
vn 0.56474334 0.8252666 0
vn 0.50780433 -0.8614725 0
vn 0.5078044 -0.8614725 0
vn 0.50780433 -0.8614725 0
vn 0.5078044 -0.8614725 0
vn 0.05492712 -0.99849033 -6.311645E-05
vn 0.05492712 -0.99849033 -6.3116444E-05
vn 0.05492712 -0.99849033 -6.311645E-05
vn 0.05492712 -0.99849033 -6.311645E-05
vn -0.9650312 -0.26213506 -1.40970715E-05
vn -0.9650312 -0.26213506 -1.40970715E-05
vn -0.9650312 -0.26213506 -1.40970715E-05
vn -0.9650312 -0.26213506 -1.4097072E-05
vn 0.029787106 -0.99955624 0
vn 0.029787106 -0.99955624 0
vn 0.029787106 -0.99955624 0
vn 0.029787106 -0.99955624 0
vn 0.8164743 -0.57738173 0
vn 0.8164743 -0.57738185 0
vn 0.8164743 -0.57738173 0
vn 0.8164743 -0.57738185 0
vn -0.88337237 0.46867183 0
vn -0.88337237 0.4686719 0
vn -0.88337237 0.46867183 0
vn -0.88337237 0.46867183 0
vn -0.06433924 -0.1495821 0.98665375
vn -0.06433925 -0.14958212 0.98665375
vn -0.06433925 -0.1495821 0.98665375
vn -0.05410808 0.15358992 0.98665214
vn -0.054108087 0.15358993 0.98665214
vn -0.05410808 0.15358993 0.98665214
vn 0.055833727 -0.1306913 0.9898497
vn 0.055833727 -0.1306913 0.9898497
vn 0.055833735 -0.13069133 0.9898497
vn 0.06452126 0.12663057 0.9898493
vn 0.06452126 0.12663057 0.9898493
vn 0.06452127 0.12663057 0.9898493
vn -0.064340375 -0.1495847 -0.98665327
vn -0.06434037 -0.14958468 -0.98665327
vn -0.06434037 -0.14958468 -0.98665327
vn -0.054107394 0.15358792 -0.98665243
vn -0.05410739 0.15358792 -0.98665243
vn -0.054107394 0.15358792 -0.98665243
vn 0.055833723 -0.13069159 -0.9898497
vn 0.055833727 -0.13069162 -0.9898497
vn 0.05583372 -0.13069162 -0.9898497
vn 0.064521596 0.12663153 -0.9898492
vn 0.06452159 0.12663153 -0.9898492
vn 0.064521596 0.12663153 -0.9898492
vn -0.5443932 0.8388302 0
vn -0.5443932 0.8388302 0
vn -0.54439324 0.8388302 0
vn -0.5997008 -0.8002243 0
vn -0.5997008 -0.8002243 0
vn -0.59970087 -0.8002243 0
g banditArrow_0
f 3/3/3 2/2/2 1/1/1
f 4/4/4 3/3/3 1/1/1
f 7/7/7 6/6/6 5/5/5
f 8/8/8 7/7/7 5/5/5
f 11/11/11 10/10/10 9/9/9
f 12/12/12 11/11/11 9/9/9
f 15/15/15 14/14/14 13/13/13
f 16/16/16 15/15/15 13/13/13
f 19/19/19 18/18/18 17/17/17
f 20/20/20 19/19/19 17/17/17
f 23/23/23 22/22/22 21/21/21
f 24/24/24 23/23/23 21/21/21
f 27/27/27 26/26/26 25/25/25
f 28/28/28 27/27/27 25/25/25
f 28/28/28 25/25/25 29/29/29
f 30/30/30 28/28/28 29/29/29
f 33/33/33 32/32/32 31/31/31
f 34/34/34 33/33/33 31/31/31
f 34/34/34 31/31/31 35/35/35
f 36/36/36 34/34/34 35/35/35
f 39/39/39 38/38/38 37/37/37
f 40/40/40 39/39/39 37/37/37
f 39/39/39 41/41/41 38/38/38
f 41/41/41 42/42/42 38/38/38
f 45/45/45 44/44/44 43/43/43
f 46/46/46 45/45/45 43/43/43
f 46/46/46 43/43/43 47/47/47
f 48/48/48 46/46/46 47/47/47
f 51/51/51 50/50/50 49/49/49
f 49/49/49 52/52/52 51/51/51
f 49/49/49 53/53/53 52/52/52
f 54/54/54 49/49/49 50/50/50
f 55/55/55 54/54/54 50/50/50
f 55/55/55 50/50/50 56/56/56
f 56/56/56 50/50/50 51/51/51
f 57/57/57 55/55/55 56/56/56
f 51/51/51 52/52/52 58/58/58
f 59/59/59 51/51/51 58/58/58
f 60/60/60 51/51/51 59/59/59
f 60/60/60 56/56/56 51/51/51
f 61/61/61 60/60/60 59/59/59
f 64/64/64 63/63/63 62/62/62
f 62/62/62 65/65/65 64/64/64
f 62/62/62 66/66/66 65/65/65
f 66/66/66 67/67/67 65/65/65
f 67/67/67 68/68/68 65/65/65
f 65/65/65 68/68/68 69/69/69
f 68/68/68 70/70/70 69/69/69
f 63/63/63 64/64/64 71/71/71
f 64/64/64 72/72/72 71/71/71
f 64/64/64 73/73/73 72/72/72
f 65/65/65 69/69/69 73/73/73
f 64/64/64 65/65/65 73/73/73
f 73/73/73 74/74/74 72/72/72
f 77/77/77 76/76/76 75/75/75
f 78/78/78 77/77/77 75/75/75
f 81/81/81 80/80/80 79/79/79
f 82/82/82 81/81/81 79/79/79
f 85/85/85 84/84/84 83/83/83
f 86/86/86 85/85/85 83/83/83
f 83/83/83 84/84/84 87/87/87
f 84/84/84 88/88/88 87/87/87
f 91/91/91 90/90/90 89/89/89
f 92/92/92 91/91/91 89/89/89
f 95/95/95 94/94/94 93/93/93
f 96/96/96 95/95/95 93/93/93
f 99/99/99 98/98/98 97/97/97
f 100/100/100 99/99/99 97/97/97
f 103/103/103 102/102/102 101/101/101
f 104/104/104 103/103/103 101/101/101
f 107/107/107 106/106/106 105/105/105
f 108/108/108 107/107/107 105/105/105
f 111/111/111 110/110/110 109/109/109
f 112/112/112 111/111/111 109/109/109
f 115/115/115 114/114/114 113/113/113
f 116/116/116 115/115/115 113/113/113
f 119/119/119 118/118/118 117/117/117
f 120/120/120 119/119/119 117/117/117
f 121/121/121 119/119/119 120/120/120
f 122/122/122 121/121/121 120/120/120
f 122/122/122 120/120/120 123/123/123
f 124/124/124 122/122/122 123/123/123
f 123/123/123 120/120/120 125/125/125
f 120/120/120 126/126/126 125/125/125
f 117/117/117 126/126/126 120/120/120
f 126/126/126 117/117/117 127/127/127
f 128/128/128 126/126/126 127/127/127
f 131/131/131 130/130/130 129/129/129
f 132/132/132 131/131/131 129/129/129
f 131/131/131 133/133/133 130/130/130
f 133/133/133 134/134/134 130/130/130
f 130/130/130 134/134/134 135/135/135
f 134/134/134 136/136/136 135/135/135
f 130/130/130 135/135/135 137/137/137
f 138/138/138 130/130/130 137/137/137
f 138/138/138 129/129/129 130/130/130
f 129/129/129 138/138/138 139/139/139
f 138/138/138 140/140/140 139/139/139
f 143/143/143 142/142/142 141/141/141
f 144/144/144 143/143/143 141/141/141
f 147/147/147 146/146/146 145/145/145
f 148/148/148 147/147/147 145/145/145
f 151/151/151 150/150/150 149/149/149
f 152/152/152 151/151/151 149/149/149
f 149/149/149 150/150/150 153/153/153
f 150/150/150 154/154/154 153/153/153
f 157/157/157 156/156/156 155/155/155
f 158/158/158 157/157/157 155/155/155
f 161/161/161 160/160/160 159/159/159
f 162/162/162 161/161/161 159/159/159
f 165/165/165 164/164/164 163/163/163
f 166/166/166 165/165/165 163/163/163
f 169/169/169 168/168/168 167/167/167
f 170/170/170 169/169/169 167/167/167
f 173/173/173 172/172/172 171/171/171
f 174/174/174 173/173/173 171/171/171
f 177/177/177 176/176/176 175/175/175
f 178/178/178 177/177/177 175/175/175
f 181/181/181 180/180/180 179/179/179
f 182/182/182 181/181/181 179/179/179
f 185/185/185 184/184/184 183/183/183
f 188/188/188 187/187/187 186/186/186
f 191/191/191 190/190/190 189/189/189
f 194/194/194 193/193/193 192/192/192
f 197/197/197 196/196/196 195/195/195
f 200/200/200 199/199/199 198/198/198
f 203/203/203 202/202/202 201/201/201
f 206/206/206 205/205/205 204/204/204
f 209/209/209 208/208/208 207/207/207
f 212/212/212 211/211/211 210/210/210
