g cellarFloor
v -8.236115 0.00011539459 11.583392
v -8.236115 6.0386724 11.583392
v -8.236115 6.0386724 -9.10442
v -8.236115 0.00011539459 -9.10442
v -8.236115 6.0386724 -9.10442
v 12.514575 6.0386724 -9.10442
v 12.514575 0.00011539459 -9.10442
v -8.236115 0.00011539459 -9.10442
v 12.514575 0.00011539459 -9.10442
v 12.514575 0.00011539459 11.583392
v -8.236115 0.00011539459 11.583392
v -8.236115 0.00011539459 -9.10442
vt -1.8830633 0.042864442
vt -1.8830633 1.2481112
vt 2.2471972 1.2481112
vt 2.2471972 0.042864442
vt -1.2146566 1.2481112
vt 2.9279385 1.2481112
vt 2.9279385 0.042864442
vt -1.2146566 0.042864442
vt 0.0005751848 -1.1500478
vt -1.1500478 0.9996612
vt 0.9996612 2.1502843
vt 2.1502843 0.0005751848
vn 0.9999924 0.003921509 -0
vn 0.9999924 0.003921509 -0
vn 0.9999924 0.003921509 -0
vn 0.9999924 0.003921509 -0
vn -0.003921509 0.003921509 0.9999846
vn -0.003921509 0.003921509 0.9999846
vn -0.003921509 0.003921509 0.9999846
vn -0.003921509 0.003921509 0.9999846
vn -0.003921509 0.99999225 -0.00034526698
vn -0.003921509 0.99999225 -0.00034526698
vn -0.003921509 0.99999225 -0.00034526698
vn -0.003921509 0.99999225 -0.00034526698
g cellarFloor_0
f 3/3/3 2/2/2 1/1/1
f 4/4/4 3/3/3 1/1/1
f 7/7/7 6/6/6 5/5/5
f 8/8/8 7/7/7 5/5/5
g cellarFloor_1
f 11/11/11 10/10/10 9/9/9
f 12/12/12 11/11/11 9/9/9
