g chunk_rHip
v 0.18216158 0.0055021346 0.12495056
v 0.19271529 0.005420238 -0.0065153837
v 0.21867478 -0.16623376 0.09361696
v 0.18595928 0.0055021346 -0.14082704
v 0.19271529 0.005420238 -0.0065153837
v 0.21208254 0.1740852 -0.10303429
v 0.18595928 0.0055021346 -0.14082704
v 0.10958558 0.098346174 -0.20889902
v 0.005348444 -0.15234298 -0.21869525
v 0.18595928 0.0055021346 -0.14082704
v 0.21208254 0.1740852 -0.10303429
v 0.10958558 0.098346174 -0.20889902
v 0.18595928 0.0055021346 -0.14082704
v 0.005348444 -0.15234298 -0.21869525
v 0.15529105 -0.13595451 -0.074341685
v 0.1446145 -0.28865072 -0.0063823164
v 0.06274387 -0.22360872 0.103955716
v 0.21867478 -0.16623376 0.09361696
v 0.123394474 -0.093913674 0.22539002
v 0.005348444 -0.1531926 0.20825428
v 0.18216158 0.0055021346 0.12495056
v 0.10686271 0.09705639 0.19038153
v 0.18129149 0.15938577 0.07472059
v -0.2186749 0.0055021346 -0.17629613
v -0.21791744 0.0055942535 -0.006228775
v -0.16299921 -0.14474757 -0.08363634
v -0.18881536 0.0055021346 0.13914841
v -0.21791744 0.0055942535 -0.006228775
v -0.18559092 0.16655123 0.08230576
v 0.005348444 0.17102456 0.22704828
v -0.18881536 0.0055021346 0.13914841
v -0.057165176 0.24541235 0.115000784
v -0.2186749 0.0055021346 -0.17629613
v -0.088416874 0.09336105 -0.18673724
v -0.16160706 0.15509671 -0.08294025
v -0.2186749 0.0055021346 -0.17629613
v -0.16299921 -0.14474757 -0.08363634
v -0.104191154 -0.08986007 -0.2201181
v 0.005348444 -0.1531926 0.20825428
v 0.06274387 -0.22360872 0.103955716
v -0.072591424 -0.26690865 0.14829975
v 0.005348444 0.17102456 0.22704828
v -0.057165176 0.24541235 0.115000784
v 0.07518107 0.26081812 0.13078529
v 0.005348444 0.16638744 -0.22704814
v 0.08436313 0.28017515 -0.1633778
v -0.06025657 0.25191247 -0.13441905
v 0.005348444 -0.15234298 -0.21869525
v 0.005420089 -0.3354208 -0.0063823164
v 0.06263128 -0.22337328 -0.116464436
v 0.1446145 -0.28865072 -0.0063823164
v 0.0054098666 0.33542097 -0.0063823164
v -0.13874921 0.30585825 -0.0063823164
v -0.06025657 0.25191247 -0.13441905
v 0.08436313 0.28017515 -0.1633778
v 0.0054098666 0.33542097 -0.0063823164
v -0.06025657 0.25191247 -0.13441905
v -0.057165176 0.24541235 0.115000784
v -0.13874921 0.30585825 -0.0063823164
v 0.0054098666 0.33542097 -0.0063823164
v 0.07518107 0.26081812 0.13078529
v 0.06274387 -0.22360872 0.103955716
v 0.1446145 -0.28865072 -0.0063823164
v 0.005420089 -0.3354208 -0.0063823164
v 0.06274387 -0.22360872 0.103955716
v 0.005420089 -0.3354208 -0.0063823164
v -0.072591424 -0.26690865 0.14829975
v 0.005420089 -0.3354208 -0.0063823164
v 0.005348444 -0.15234298 -0.21869525
v -0.104191154 -0.08986007 -0.2201181
v -0.16299921 -0.14474757 -0.08363634
v 0.005420089 -0.3354208 -0.0063823164
v -0.104191154 -0.08986007 -0.2201181
v -0.088416874 0.09336105 -0.18673724
v 0.005348444 0.16638744 -0.22704814
v -0.06025657 0.25191247 -0.13441905
v -0.06025657 0.25191247 -0.13441905
v -0.13874921 0.30585825 -0.0063823164
v -0.16160706 0.15509671 -0.08294025
v -0.088416874 0.09336105 -0.18673724
v -0.06025657 0.25191247 -0.13441905
v -0.16160706 0.15509671 -0.08294025
v -0.088416874 0.09336105 -0.18673724
v -0.2186749 0.0055021346 -0.17629613
v -0.104191154 -0.08986007 -0.2201181
v -0.104191154 -0.08986007 -0.2201181
v 0.005348444 -0.15234298 -0.21869525
v 0.005348444 0.16638744 -0.22704814
v -0.088416874 0.09336105 -0.18673724
v -0.104191154 -0.08986007 -0.2201181
v 0.005348444 0.16638744 -0.22704814
v -0.18559092 0.16655123 0.08230576
v -0.13874921 0.30585825 -0.0063823164
v -0.057165176 0.24541235 0.115000784
v -0.18881536 0.0055021346 0.13914841
v -0.18559092 0.16655123 0.08230576
v -0.057165176 0.24541235 0.115000784
v -0.18881536 0.0055021346 0.13914841
v 0.005348444 -0.1531926 0.20825428
v -0.072591424 -0.26690865 0.14829975
v -0.072591424 -0.26690865 0.14829975
v 0.005420089 -0.3354208 -0.0063823164
v -0.194947 -0.1599998 0.08702475
v -0.18881536 0.0055021346 0.13914841
v -0.072591424 -0.26690865 0.14829975
v -0.194947 -0.1599998 0.08702475
v -0.18881536 0.0055021346 0.13914841
v 0.005348444 0.17102456 0.22704828
v 0.005348444 -0.1531926 0.20825428
v -0.21791744 0.0055942535 -0.006228775
v -0.2186749 0.0055021346 -0.17629613
v -0.16160706 0.15509671 -0.08294025
v -0.16160706 0.15509671 -0.08294025
v -0.13874921 0.30585825 -0.0063823164
v -0.18559092 0.16655123 0.08230576
v -0.21791744 0.0055942535 -0.006228775
v -0.16160706 0.15509671 -0.08294025
v -0.18559092 0.16655123 0.08230576
v -0.21791744 0.0055942535 -0.006228775
v -0.18881536 0.0055021346 0.13914841
v -0.194947 -0.1599998 0.08702475
v -0.194947 -0.1599998 0.08702475
v 0.005420089 -0.3354208 -0.0063823164
v -0.16299921 -0.14474757 -0.08363634
v -0.21791744 0.0055942535 -0.006228775
v -0.194947 -0.1599998 0.08702475
v -0.16299921 -0.14474757 -0.08363634
v 0.10686271 0.09705639 0.19038153
v 0.005348444 0.17102456 0.22704828
v 0.07518107 0.26081812 0.13078529
v 0.07518107 0.26081812 0.13078529
v 0.0054098666 0.33542097 -0.0063823164
v 0.18129149 0.15938577 0.07472059
v 0.10686271 0.09705639 0.19038153
v 0.07518107 0.26081812 0.13078529
v 0.18129149 0.15938577 0.07472059
v 0.123394474 -0.093913674 0.22539002
v 0.18216158 0.0055021346 0.12495056
v 0.21867478 -0.16623376 0.09361696
v 0.005348444 -0.1531926 0.20825428
v 0.005348444 0.17102456 0.22704828
v 0.10686271 0.09705639 0.19038153
v 0.10686271 0.09705639 0.19038153
v 0.18216158 0.0055021346 0.12495056
v 0.123394474 -0.093913674 0.22539002
v 0.005348444 -0.1531926 0.20825428
v 0.10686271 0.09705639 0.19038153
v 0.123394474 -0.093913674 0.22539002
v 0.06263128 -0.22337328 -0.116464436
v 0.1446145 -0.28865072 -0.0063823164
v 0.15529105 -0.13595451 -0.074341685
v 0.005348444 -0.15234298 -0.21869525
v 0.06263128 -0.22337328 -0.116464436
v 0.15529105 -0.13595451 -0.074341685
v 0.21208254 0.1740852 -0.10303429
v 0.0054098666 0.33542097 -0.0063823164
v 0.08436313 0.28017515 -0.1633778
v 0.08436313 0.28017515 -0.1633778
v 0.005348444 0.16638744 -0.22704814
v 0.10958558 0.098346174 -0.20889902
v 0.21208254 0.1740852 -0.10303429
v 0.08436313 0.28017515 -0.1633778
v 0.10958558 0.098346174 -0.20889902
v 0.10958558 0.098346174 -0.20889902
v 0.005348444 0.16638744 -0.22704814
v 0.005348444 -0.15234298 -0.21869525
v 0.19271529 0.005420238 -0.0065153837
v 0.18216158 0.0055021346 0.12495056
v 0.18129149 0.15938577 0.07472059
v 0.18129149 0.15938577 0.07472059
v 0.0054098666 0.33542097 -0.0063823164
v 0.21208254 0.1740852 -0.10303429
v 0.19271529 0.005420238 -0.0065153837
v 0.18129149 0.15938577 0.07472059
v 0.21208254 0.1740852 -0.10303429
v 0.19271529 0.005420238 -0.0065153837
v 0.18595928 0.0055021346 -0.14082704
v 0.15529105 -0.13595451 -0.074341685
v 0.15529105 -0.13595451 -0.074341685
v 0.1446145 -0.28865072 -0.0063823164
v 0.21867478 -0.16623376 0.09361696
v 0.19271529 0.005420238 -0.0065153837
v 0.15529105 -0.13595451 -0.074341685
v 0.21867478 -0.16623376 0.09361696
vt 0.90909094 0.5835777
vt 0.8181818 0.5835777
vt 0.86412513 0.6666667
vt 0.72727275 0.5835777
vt 0.8181818 0.5835777
vt 0.773216 0.50048876
vt 0.72727275 0.5835777
vt 0.68230695 0.50048876
vt 0.54545456 0.5835777
vt 0.72727275 0.5835777
vt 0.773216 0.50048876
vt 0.68230695 0.50048876
vt 0.72727275 0.5835777
vt 0.54545456 0.5835777
vt 0.68230695 0.6666667
vt 0.09090909 0.7497556
vt 0.1368524 0.6666667
vt 0.045943305 0.6666667
vt 0.09090909 0.5835777
vt 0.18181819 0.5835777
vt 0.90909094 0.5835777
vt 0.9550342 0.50048876
vt 0.86412513 0.50048876
vt 0.45454547 0.41642228
vt 0.36363637 0.41642228
vt 0.40957966 0.50048876
vt 0.27272728 0.41642228
vt 0.36363637 0.41642228
vt 0.31867057 0.33333334
vt 0.09090909 0.41642228
vt 0.27272728 0.41642228
vt 0.1368524 0.33333334
vt 0.45454547 0.41642228
vt 0.54545456 0.41642228
vt 0.50048876 0.33333334
vt 0.45454547 0.41642228
vt 0.40957966 0.50048876
vt 0.50048876 0.50048876
vt 0.18181819 0.5835777
vt 0.22776149 0.6666667
vt 0.27272728 0.5835777
vt 1 0.41642228
vt 0.9550342 0.33333334
vt 0.90909094 0.41642228
vt 0.6363636 0.41642228
vt 0.72727275 0.41642228
vt 0.68230695 0.33333334
vt 0.54545456 0.5835777
vt 0.40957966 0.6666667
vt 0.50048876 0.6666667
vt 0.45454547 0.7497556
vt 0.773216 0.33333334
vt 0.72727275 0.25024438
vt 0.68230695 0.33333334
vt 0.72727275 0.41642228
vt 0.773216 0.33333334
vt 0.68230695 0.33333334
vt 0.9550342 0.33333334
vt 0.90909094 0.25024438
vt 0.773216 0.33333334
vt 0.90909094 0.41642228
vt 0.22776149 0.6666667
vt 0.27272728 0.7497556
vt 0.40957966 0.6666667
vt 0.22776149 0.6666667
vt 0.40957966 0.6666667
vt 0.27272728 0.5835777
vt 0.40957966 0.6666667
vt 0.54545456 0.5835777
vt 0.50048876 0.50048876
vt 0.40957966 0.50048876
vt 0.40957966 0.6666667
vt 0.50048876 0.50048876
vt 0.54545456 0.41642228
vt 0.6363636 0.41642228
vt 0.5913978 0.33333334
vt 0.5913978 0.33333334
vt 0.54545456 0.25024438
vt 0.50048876 0.33333334
vt 0.54545456 0.41642228
vt 0.5913978 0.33333334
vt 0.50048876 0.33333334
vt 0.54545456 0.41642228
vt 0.45454547 0.41642228
vt 0.50048876 0.50048876
vt 0.50048876 0.50048876
vt 0.54545456 0.5835777
vt 0.6363636 0.41642228
vt 0.54545456 0.41642228
vt 0.50048876 0.50048876
vt 0.6363636 0.41642228
vt 0.22776149 0.33333334
vt 0.18181819 0.25024438
vt 0.1368524 0.33333334
vt 0.27272728 0.41642228
vt 0.22776149 0.33333334
vt 0.1368524 0.33333334
vt 0.27272728 0.41642228
vt 0.18181819 0.5835777
vt 0.27272728 0.5835777
vt 0.27272728 0.5835777
vt 0.40957966 0.6666667
vt 0.31867057 0.50048876
vt 0.27272728 0.41642228
vt 0.27272728 0.5835777
vt 0.31867057 0.50048876
vt 0.27272728 0.41642228
vt 0.09090909 0.41642228
vt 0.18181819 0.5835777
vt 0.36363637 0.41642228
vt 0.45454547 0.41642228
vt 0.40957966 0.33333334
vt 0.40957966 0.33333334
vt 0.36363637 0.25024438
vt 0.31867057 0.33333334
vt 0.36363637 0.41642228
vt 0.40957966 0.33333334
vt 0.31867057 0.33333334
vt 0.36363637 0.41642228
vt 0.27272728 0.41642228
vt 0.31867057 0.50048876
vt 0.31867057 0.50048876
vt 0.40957966 0.6666667
vt 0.40957966 0.50048876
vt 0.36363637 0.41642228
vt 0.31867057 0.50048876
vt 0.40957966 0.50048876
vt 0.9550342 0.50048876
vt 1 0.41642228
vt 0.90909094 0.41642228
vt 0.90909094 0.41642228
vt 0.773216 0.33333334
vt 0.86412513 0.50048876
vt 0.9550342 0.50048876
vt 0.90909094 0.41642228
vt 0.86412513 0.50048876
vt 0.09090909 0.5835777
vt 0 0.5835777
vt 0.045943305 0.6666667
vt 0.18181819 0.5835777
vt 0.09090909 0.41642228
vt 0.045943305 0.50048876
vt 0.045943305 0.50048876
vt 0 0.5835777
vt 0.09090909 0.5835777
vt 0.18181819 0.5835777
vt 0.045943305 0.50048876
vt 0.09090909 0.5835777
vt 0.5913978 0.6666667
vt 0.6363636 0.7497556
vt 0.68230695 0.6666667
vt 0.54545456 0.5835777
vt 0.5913978 0.6666667
vt 0.68230695 0.6666667
vt 0.773216 0.50048876
vt 0.773216 0.33333334
vt 0.72727275 0.41642228
vt 0.72727275 0.41642228
vt 0.6363636 0.41642228
vt 0.68230695 0.50048876
vt 0.773216 0.50048876
vt 0.72727275 0.41642228
vt 0.68230695 0.50048876
vt 0.68230695 0.50048876
vt 0.6363636 0.41642228
vt 0.54545456 0.5835777
vt 0.8181818 0.5835777
vt 0.90909094 0.5835777
vt 0.86412513 0.50048876
vt 0.86412513 0.50048876
vt 0.773216 0.33333334
vt 0.773216 0.50048876
vt 0.8181818 0.5835777
vt 0.86412513 0.50048876
vt 0.773216 0.50048876
vt 0.8181818 0.5835777
vt 0.72727275 0.5835777
vt 0.773216 0.6666667
vt 0.773216 0.6666667
vt 0.8181818 0.7497556
vt 0.86412513 0.6666667
vt 0.8181818 0.5835777
vt 0.773216 0.6666667
vt 0.86412513 0.6666667
vn 0.9803474 0.19727893 -0
vn 0.9803474 0.19727893 -0
vn 0.9803474 0.19727893 -0
vn 0.98854446 -0.14367825 -0.046221025
vn 0.98854446 -0.14367825 -0.046221025
vn 0.98854446 -0.14367825 -0.046221025
vn 0.5234805 -0.18243355 -0.8322777
vn 0.5234805 -0.18243355 -0.8322777
vn 0.5234805 -0.18243355 -0.8322777
vn 0.701755 0.05009836 -0.7106547
vn 0.701755 0.05009836 -0.7106547
vn 0.701755 0.05009836 -0.7106547
vn 0.64749753 -0.43046767 -0.6288438
vn 0.64749753 -0.43046767 -0.6288438
vn 0.64749753 -0.43046767 -0.6288438
vn 0.29869956 -0.70950603 0.63826305
vn 0.29869956 -0.70950603 0.63826305
vn 0.29869956 -0.70950603 0.63826305
vn 0.2676953 -0.7250082 0.63458836
vn 0.2676953 -0.7250082 0.63458836
vn 0.7715146 0.20511979 0.6022384
vn 0.7715146 0.20511979 0.6022384
vn 0.7715146 0.20511979 0.6022384
vn -0.93887633 -0.34425458 -0
vn -0.93887633 -0.34425458 -0
vn -0.93887633 -0.34425458 -0
vn -0.98022634 0.08885378 0.17680873
vn -0.98022634 0.08885378 0.17680873
vn -0.98022634 0.08885378 0.17680873
vn -0.6469305 0.4221496 0.63503593
vn -0.6469305 0.4221496 0.63503593
vn -0.6469305 0.4221496 0.63503593
vn -0.4531538 0.592673 -0.6658756
vn -0.4531538 0.592673 -0.6658756
vn -0.4531538 0.592673 -0.6658756
vn -0.6546815 -0.5544847 -0.5137498
vn -0.6546815 -0.5544847 -0.5137498
vn -0.6546815 -0.5544847 -0.5137498
vn 0.41496557 -0.63199544 0.6545116
vn 0.41496557 -0.63199544 0.6545116
vn 0.41496557 -0.63199544 0.6545116
vn -0.16636437 0.7786986 0.60493916
vn -0.16636437 0.7786986 0.60493916
vn -0.16636437 0.7786986 0.60493916
vn -0.2671283 0.6081752 -0.7475061
vn -0.2671283 0.6081752 -0.7475061
vn -0.2671283 0.6081752 -0.7475061
vn 0.2211889 -0.74051034 -0.6346022
vn 0.2211889 -0.74051034 -0.6346022
vn 0.2211889 -0.74051034 -0.6346022
vn 0.25219315 -0.74051034 -0.622931
vn -0.17411548 0.8639603 -0.47250018
vn -0.17411548 0.8639603 -0.47250018
vn -0.17411548 0.8639603 -0.47250018
vn -0.25937718 0.8639603 -0.43162027
vn -0.25937718 0.8639603 -0.43162027
vn -0.25937718 0.8639603 -0.43162027
vn -0.17411548 0.83295614 0.52523124
vn -0.17411548 0.83295614 0.52523124
vn -0.17411548 0.83295614 0.52523124
vn -0.15861338 0.83295614 0.5301187
vn 0.25219315 -0.74051034 0.622931
vn 0.25219315 -0.74051034 0.622931
vn 0.25219315 -0.74051034 0.622931
vn 0.41496557 -0.74051034 0.52862847
vn 0.41496557 -0.74051034 0.52862847
vn 0.41496557 -0.74051034 0.52862847
vn -0.3911453 -0.69400394 -0.6044534
vn -0.3911453 -0.69400394 -0.6044534
vn -0.3911453 -0.69400394 -0.6044534
vn -0.5384156 -0.67850184 -0.49974382
vn -0.5384156 -0.67850184 -0.49974382
vn -0.5384156 -0.67850184 -0.49974382
vn -0.584922 0.34463888 -0.73422766
vn -0.584922 0.34463888 -0.73422766
vn -0.584922 0.34463888 -0.73422766
vn -0.6934369 0.4066475 -0.59479666
vn -0.6934369 0.4066475 -0.59479666
vn -0.6934369 0.4066475 -0.59479666
vn -0.6624326 0.3368879 -0.6690961
vn -0.6624326 0.3368879 -0.6690961
vn -0.6624326 0.3368879 -0.6690961
vn -0.20511979 0.18961757 -0.9601932
vn -0.20511979 0.18961757 -0.9601932
vn -0.20511979 0.18961757 -0.9601932
vn -0.0035920143 -0.027412236 -0.99961776
vn -0.0035920143 -0.027412236 -0.99961776
vn -0.0035920143 -0.027412236 -0.99961776
vn -0.5151624 0.19736868 -0.83405834
vn -0.5151624 0.19736868 -0.83405834
vn -0.5151624 0.19736868 -0.83405834
vn -0.5151624 0.5771709 0.6336256
vn -0.5151624 0.5771709 0.6336256
vn -0.5151624 0.5771709 0.6336256
vn -0.4066475 0.3136347 0.8580624
vn -0.4066475 0.3136347 0.8580624
vn -0.4066475 0.3136347 0.8580624
vn -0.4454028 -0.1591804 0.8810663
vn -0.4454028 -0.1591804 0.8810663
vn -0.4454028 -0.1591804 0.8810663
vn -0.6546283 -0.755951 -0
vn -0.6546283 -0.755951 -0
vn -0.6546283 -0.755951 -0
vn -0.584922 -0.2211889 0.78034717
vn -0.584922 -0.2211889 0.78034717
vn -0.584922 -0.2211889 0.78034717
vn -0.3756432 -0.05066544 0.92537844
vn -0.3756432 -0.05066544 0.92537844
vn -0.3756432 -0.05066544 0.92537844
vn -0.93371993 0.35239 0.06315366
vn -0.93371993 0.35239 0.06315366
vn -0.93371993 0.35239 0.06315366
vn -0.96472424 0.22837287 -0.13096939
vn -0.96472424 0.22837287 -0.13096939
vn -0.96472424 0.22837287 -0.13096939
vn -0.949222 0.27487928 -0.15303251
vn -0.949222 0.27487928 -0.15303251
vn -0.949222 0.27487928 -0.15303251
vn -0.98022634 -0.027412236 0.19597164
vn -0.98022634 -0.027412236 0.19597164
vn -0.98022634 -0.027412236 0.19597164
vn -0.6934369 -0.69400394 -0.19365892
vn -0.6934369 -0.69400394 -0.19365892
vn -0.6934369 -0.69400394 -0.19365892
vn -0.949222 -0.2444421 -0.1980546
vn -0.949222 -0.2444421 -0.1980546
vn -0.949222 -0.2444421 -0.1980546
vn 0.5467337 0.3756432 0.74831444
vn 0.5467337 0.3756432 0.74831444
vn 0.5467337 0.3756432 0.74831444
vn 0.69962263 0.7145124 -0
vn 0.69962263 0.7145124 -0
vn 0.69962263 0.7145124 -0
vn 0.67850184 0.3601411 0.6402606
vn 0.67850184 0.3601411 0.6402606
vn 0.67850184 0.3601411 0.6402606
vn 0.82577205 0.07335156 0.5592138
vn 0.82577205 0.07335156 0.5592138
vn 0.82577205 0.07335156 0.5592138
vn 0.3064506 -0.058416545 0.9500924
vn 0.3064506 -0.058416545 0.9500924
vn 0.3064506 -0.058416545 0.9500924
vn 0.76376355 0.18186659 0.61934626
vn 0.76376355 0.18186659 0.61934626
vn 0.76376355 0.18186659 0.61934626
vn -0.22062188 0.15861338 0.9623761
vn -0.22062188 0.15861338 0.9623761
vn -0.22062188 0.15861338 0.9623761
vn 0.6397465 -0.352957 -0.68274873
vn 0.6397465 -0.352957 -0.68274873
vn 0.6397465 -0.352957 -0.68274873
vn 0.66299963 -0.39171237 -0.63795996
vn 0.66299963 -0.39171237 -0.63795996
vn 0.66299963 -0.39171237 -0.63795996
vn 0.62424433 0.7786986 0.06282911
vn 0.62424433 0.7786986 0.06282911
vn 0.62424433 0.7786986 0.06282911
vn 0.33745492 0.27487928 -0.90031415
vn 0.33745492 0.27487928 -0.90031415
vn 0.33745492 0.27487928 -0.90031415
vn 0.58548903 0.27487928 -0.7626559
vn 0.58548903 0.27487928 -0.7626559
vn 0.58548903 0.27487928 -0.7626559
vn 0.1514293 -0.027412236 -0.9880879
vn 0.1514293 -0.027412236 -0.9880879
vn 0.1514293 -0.027412236 -0.9880879
vn 0.9962955 0.034596264 0.078729704
vn 0.9962955 0.034596264 0.078729704
vn 0.9962955 0.034596264 0.078729704
vn 0.65524864 0.7321922 0.1858595
vn 0.65524864 0.7321922 0.1858595
vn 0.65524864 0.7321922 0.1858595
vn 0.98854446 -0.019661188 0.14964378
vn 0.98854446 -0.019661188 0.14964378
vn 0.98854446 -0.019661188 0.14964378
vn 0.97166646 -0.23635639 -0
vn 0.97166646 -0.23635639 -0
vn 0.97166646 -0.23635639 -0
vn 0.89553165 -0.22893995 -0.38158825
vn 0.89553165 -0.22893995 -0.38158825
vn 0.89553165 -0.22893995 -0.38158825
vn 0.9265359 -0.07391864 -0.36887297
vn 0.9265359 -0.07391864 -0.36887297
vn 0.9265359 -0.07391864 -0.36887297
g chunk_rHip_0
f 3/3/3 2/2/2 1/1/1
f 6/6/6 5/5/5 4/4/4
f 9/9/9 8/8/8 7/7/7
f 12/12/12 11/11/11 10/10/10
f 15/15/15 14/14/14 13/13/13
f 18/18/18 17/17/17 16/16/16
f 18/18/18 19/19/19 17/17/17
f 19/19/19 20/20/20 17/17/17
f 23/23/23 22/22/22 21/21/21
f 26/26/26 25/25/25 24/24/24
f 29/29/29 28/28/28 27/27/27
f 32/32/32 31/31/31 30/30/30
f 35/35/35 34/34/34 33/33/33
f 38/38/38 37/37/37 36/36/36
f 41/41/41 40/40/40 39/39/39
f 44/44/44 43/43/43 42/42/42
f 47/47/47 46/46/46 45/45/45
f 50/50/50 49/49/49 48/48/48
f 50/50/50 51/51/51 49/49/49
f 54/54/54 53/53/53 52/52/52
f 57/57/57 56/56/56 55/55/55
f 60/60/60 59/59/59 58/58/58
f 61/61/61 60/60/60 58/58/58
f 64/64/64 63/63/63 62/62/62
f 67/67/67 66/66/66 65/65/65
f 70/70/70 69/69/69 68/68/68
f 73/73/73 72/72/72 71/71/71
f 76/76/76 75/75/75 74/74/74
f 79/79/79 78/78/78 77/77/77
f 82/82/82 81/81/81 80/80/80
f 85/85/85 84/84/84 83/83/83
f 88/88/88 87/87/87 86/86/86
f 91/91/91 90/90/90 89/89/89
f 94/94/94 93/93/93 92/92/92
f 97/97/97 96/96/96 95/95/95
f 100/100/100 99/99/99 98/98/98
f 103/103/103 102/102/102 101/101/101
f 106/106/106 105/105/105 104/104/104
f 109/109/109 108/108/108 107/107/107
f 112/112/112 111/111/111 110/110/110
f 115/115/115 114/114/114 113/113/113
f 118/118/118 117/117/117 116/116/116
f 121/121/121 120/120/120 119/119/119
f 124/124/124 123/123/123 122/122/122
f 127/127/127 126/126/126 125/125/125
f 130/130/130 129/129/129 128/128/128
f 133/133/133 132/132/132 131/131/131
f 136/136/136 135/135/135 134/134/134
f 139/139/139 138/138/138 137/137/137
f 142/142/142 141/141/141 140/140/140
f 145/145/145 144/144/144 143/143/143
f 148/148/148 147/147/147 146/146/146
f 151/151/151 150/150/150 149/149/149
f 154/154/154 153/153/153 152/152/152
f 157/157/157 156/156/156 155/155/155
f 160/160/160 159/159/159 158/158/158
f 163/163/163 162/162/162 161/161/161
f 166/166/166 165/165/165 164/164/164
f 169/169/169 168/168/168 167/167/167
f 172/172/172 171/171/171 170/170/170
f 175/175/175 174/174/174 173/173/173
f 178/178/178 177/177/177 176/176/176
f 181/181/181 180/180/180 179/179/179
f 184/184/184 183/183/183 182/182/182
