g colWaterTemple
v 9.008475 -2.0409412 -5.012141
v 5.5880375 -2.0409412 -5.6747656
v 5.5880375 6.865797 -5.6747656
v 9.008475 7.2289295 -5.012141
v -3.2974873 -2.0409412 -8.309663
v -5.850647 -2.0409412 -6.0653515
v -5.850647 6.865797 -6.0653515
v -3.2974873 7.2289295 -8.309663
v -9.008406 -2.0409412 -5.012141
v -12.305927 -2.0409412 0.69877815
v -12.305927 7.2289295 0.69877815
v -9.008406 7.2289295 -5.012141
v -12.305927 -2.0409412 0.69877815
v -12.305927 -2.0409412 7.2938194
v -12.305927 7.2289295 7.2938194
v -12.305927 7.2289295 0.69877815
v -12.305927 -2.0409412 7.2938194
v -9.008406 -2.0409412 13.00474
v -9.008406 7.2289295 13.00474
v -12.305927 7.2289295 7.2938194
v -9.008406 -2.0409412 13.00474
v -3.2974873 -2.0409412 16.301636
v -3.2974873 7.2289295 16.301636
v -9.008406 7.2289295 13.00474
v 3.297556 -2.0409412 16.301636
v 9.008475 -2.0409412 13.00474
v 9.008475 7.2289295 13.00474
v 3.297556 7.2289295 16.301636
v 9.008475 -2.0409412 13.00474
v 12.305372 -2.0409412 7.2938194
v 12.305372 7.2289295 7.2938194
v 9.008475 7.2289295 13.00474
v 12.305372 -2.0409412 7.2938194
v 12.305372 -2.0409412 0.69877815
v 12.305372 7.2289295 0.69877815
v 12.305372 7.2289295 7.2938194
v 12.305372 -2.0409412 0.69877815
v 9.008475 -2.0409412 -5.012141
v 9.008475 7.2289295 -5.012141
v 12.305372 7.2289295 0.69877815
v 3.297556 -2.0409412 -8.309663
v -3.2974873 -2.0409412 -8.309663
v -3.2974873 -2.0409412 -16.327288
v 3.297556 -2.0409412 -16.327288
v -3.2974873 -2.0409412 -8.309663
v -3.2974873 7.2289295 -8.309663
v -3.2974873 7.2289295 -16.327288
v -3.2974873 -2.0409412 -16.327288
v -3.2974873 7.2289295 -8.309663
v -3.2974873 7.2289295 -16.327288
v 3.297556 7.2289295 -16.327288
v 3.297556 7.2289295 -8.309663
v 3.297556 7.2289295 -8.309663
v 3.297556 -2.0409412 -8.309663
v 3.297556 -2.0409412 -16.327288
v 3.297556 7.2289295 -16.327288
v -3.2974873 -2.0409412 16.301636
v 3.297556 -2.0409412 16.301636
v 3.297556 -2.0409412 24.319885
v -3.2974873 -2.0409412 24.319885
v 3.297556 -2.0409412 16.301636
v 3.297556 7.2289295 16.301636
v 3.297556 7.2289295 24.319885
v 3.297556 -2.0409412 24.319885
v 3.297556 7.2289295 16.301636
v 3.297556 7.2289295 24.319885
v -3.2974873 7.2289295 24.319885
v -3.2974873 7.2289295 16.301636
v -3.2974873 7.2289295 16.301636
v -3.2974873 -2.0409412 16.301636
v -3.2974873 -2.0409412 24.319885
v -3.2974873 7.2289295 24.319885
v -5.850647 6.865797 -6.0653515
v -5.850647 -2.0409412 -6.0653515
v -9.008406 -2.0409412 -5.012141
v -9.008406 7.2289295 -5.012141
v 5.5880375 6.865797 -5.6747656
v 5.5880375 -2.0409412 -5.6747656
v 3.297556 -2.0409412 -8.309663
v 3.297556 7.2289295 -8.309663
v 9.008475 7.2289295 -5.012141
v 5.5880375 6.865797 -5.6747656
v 12.147515 7.2289295 -8.107506
v -3.2974873 7.2289295 -8.309663
v -5.850647 6.865797 -6.0653515
v -12.119993 7.2289295 -8.085045
v -3.2974873 7.2289295 -16.327288
v -9.008406 7.2289295 -5.012141
v -12.305927 7.2289295 0.69877815
v -16.788933 7.2289295 -0.36628723
v -12.119993 7.2289295 -8.085045
v 12.305372 7.2289295 0.69877815
v 9.008475 7.2289295 -5.012141
v 12.147515 7.2289295 -8.107506
v 16.57 7.2289295 -0.41807365
v -5.850647 6.865797 -6.0653515
v -9.008406 7.2289295 -5.012141
v -12.119993 7.2289295 -8.085045
v 5.5880375 6.865797 -5.6747656
v 3.297556 7.2289295 -8.309663
v 3.297556 7.2289295 -16.327288
v 12.147515 7.2289295 -8.107506
vt 0.3749506 0.31276834
vt 0.3857289 0.31276834
vt 0.3857289 0.6883493
vt 0.3749506 0.6883493
vt 0.4164055 0.31276834
vt 0.42718375 0.31276834
vt 0.42718375 0.6883493
vt 0.4164055 0.6883493
vt 0.4371329 0.31276834
vt 0.45868945 0.31276834
vt 0.45868945 0.6883493
vt 0.4371329 0.6883493
vt 0.45868945 0.31276834
vt 0.47941685 0.31276834
vt 0.47941685 0.6883493
vt 0.45868945 0.6883493
vt 0.47941685 0.31276834
vt 0.5001443 0.31276834
vt 0.5001443 0.6883493
vt 0.47941685 0.6883493
vt 0.5001443 0.31276834
vt 0.5208717 0.31276834
vt 0.5208717 0.6883493
vt 0.5001443 0.6883493
vt 0.54159915 0.31276834
vt 0.56232655 0.31276834
vt 0.56232655 0.6883493
vt 0.54159915 0.6883493
vt 0.56232655 0.31276834
vt 0.583054 0.31276834
vt 0.583054 0.6883493
vt 0.56232655 0.6883493
vt 0.583054 0.31276834
vt 0.6037814 0.31276834
vt 0.6037814 0.6883493
vt 0.583054 0.6883493
vt 0.6037814 0.31276834
vt 0.62533796 0.31276834
vt 0.62533796 0.6883493
vt 0.6037814 0.6883493
vt 0.39567804 0.31276834
vt 0.4164055 0.31276834
vt 0.4164055 0.31276834
vt 0.39567804 0.31276834
vt 0.4164055 0.31276834
vt 0.4164055 0.6883493
vt 0.4164055 0.6883493
vt 0.4164055 0.31276834
vt 0.4164055 0.6883493
vt 0.4164055 0.6883493
vt 0.39567804 0.6883493
vt 0.39567804 0.6883493
vt 0.39567804 0.6883493
vt 0.39567804 0.31276834
vt 0.39567804 0.31276834
vt 0.39567804 0.6883493
vt 0.5208717 0.31276834
vt 0.54159915 0.31276834
vt 0.54159915 0.31276834
vt 0.5208717 0.31276834
vt 0.54159915 0.31276834
vt 0.54159915 0.6883493
vt 0.54159915 0.6883493
vt 0.54159915 0.31276834
vt 0.54159915 0.6883493
vt 0.54159915 0.6883493
vt 0.5208717 0.6883493
vt 0.5208717 0.6883493
vt 0.5208717 0.6883493
vt 0.5208717 0.31276834
vt 0.5208717 0.31276834
vt 0.5208717 0.6883493
vt 0.42718375 0.6883493
vt 0.42718375 0.31276834
vt 0.4371329 0.31276834
vt 0.4371329 0.6883493
vt 0.3857289 0.6883493
vt 0.3857289 0.31276834
vt 0.39567804 0.31276834
vt 0.39567804 0.6883493
vt 0.00019872934 0.00019872934
vt 1.0000898 0.00019872934
vt 0.00019872934 1.0000898
vt 0.00019872934 0.00019872934
vt 1.0000898 0.00019872934
vt 0.00019872934 1.6318618
vt 0.00019872934 1.0000898
vt 0.00019872934 0.00019872934
vt 1.0000898 0.00019872934
vt 1.0000898 1.0000898
vt -0.06529994 0.9926279
vt 0.00019872934 0.00019872934
vt 1.0000898 0.00019872934
vt 1.061443 1.0009189
vt 0.00019872934 1.0000898
vt 0.00019872934 0.00019872934
vt 1.0000898 0.00019872934
vt 1.0000898 1.0000898
vt 0.00019872934 0.00019872934
vt 1.0000898 0.00019872934
vt 1.0000898 1.0000898
vt 1.0000898 1.4154674
vn -0.19215536 0.003921509 0.9813567
vn -0.19215536 0.003921509 0.9813567
vn -0.19215536 0.003921509 0.9813567
vn -0.19215536 0.003921509 0.9813567
vn 0.66274005 0.003921509 0.74883926
vn 0.66274005 0.003921509 0.74883926
vn 0.66274005 0.003921509 0.74883926
vn 0.66274005 0.003921509 0.74883926
vn 0.86666006 0.003921509 0.49888372
vn 0.86666006 0.003921509 0.49888372
vn 0.86666006 0.003921509 0.49888372
vn 0.86666006 0.003921509 0.49888372
vn 0.9999924 0.003921509 -0
vn 0.9999924 0.003921509 -0
vn 0.9999924 0.003921509 -0
vn 0.9999924 0.003921509 -0
vn 0.86666006 0.003921509 -0.49888372
vn 0.86666006 0.003921509 -0.49888372
vn 0.86666006 0.003921509 -0.49888372
vn 0.86666006 0.003921509 -0.49888372
vn 0.49803543 0.003921509 -0.8671478
vn 0.49803543 0.003921509 -0.8671478
vn 0.49803543 0.003921509 -0.8671478
vn 0.49803543 0.003921509 -0.8671478
vn -0.4980353 0.003921509 -0.86714786
vn -0.4980353 0.003921509 -0.86714786
vn -0.4980353 0.003921509 -0.86714786
vn -0.4980353 0.003921509 -0.86714786
vn -0.86666 0.003921509 -0.49888384
vn -0.86666 0.003921509 -0.49888384
vn -0.86666 0.003921509 -0.49888384
vn -0.86666 0.003921509 -0.49888384
vn -0.99999225 0.003921509 -0.00034492963
vn -0.99999225 0.003921509 -0.00034492963
vn -0.99999225 0.003921509 -0.00034492963
vn -0.99999225 0.003921509 -0.00034492963
vn -0.86666 0.003921509 0.49888384
vn -0.86666 0.003921509 0.49888384
vn -0.86666 0.003921509 0.49888384
vn -0.86666 0.003921509 0.49888384
vn -0.003921509 0.99999225 -0.00034526698
vn -0.003921509 0.99999225 -0.00034526698
vn -0.003921509 0.99999225 -0.00034526698
vn -0.003921509 0.99999225 -0.00034526698
vn 0.9999924 0.003921509 -0
vn 0.9999924 0.003921509 -0
vn 0.9999924 0.003921509 -0
vn 0.9999924 0.003921509 -0
vn -0.003921509 0.99999225 -0.00034526698
vn -0.003921509 0.99999225 -0.00034526698
vn -0.003921509 0.99999225 -0.00034526698
vn -0.003921509 0.99999225 -0.00034526698
vn -0.99999225 0.003921509 -0.00034492963
vn -0.99999225 0.003921509 -0.00034492963
vn -0.99999225 0.003921509 -0.00034492963
vn -0.99999225 0.003921509 -0.00034492963
vn -0.003921509 0.99999225 -0.00034526698
vn -0.003921509 0.99999225 -0.00034526698
vn -0.003921509 0.99999225 -0.00034526698
vn -0.003921509 0.99999225 -0.00034526698
vn -0.99999225 0.003921509 -0.00034492963
vn -0.99999225 0.003921509 -0.00034492963
vn -0.99999225 0.003921509 -0.00034492963
vn -0.99999225 0.003921509 -0.00034492963
vn -0.003921509 0.99999225 -0.00034526698
vn -0.003921509 0.99999225 -0.00034526698
vn -0.003921509 0.99999225 -0.00034526698
vn -0.003921509 0.99999225 -0.00034526698
vn 0.9999924 0.003921509 -0
vn 0.9999924 0.003921509 -0
vn 0.9999924 0.003921509 -0
vn 0.9999924 0.003921509 -0
vn 0.31764466 0.003921509 0.9482017
vn 0.31764466 0.003921509 0.9482017
vn 0.31764466 0.003921509 0.9482017
vn 0.31764466 0.003921509 0.9482017
vn -0.7568569 0.003921509 0.6535688
vn -0.7568569 0.003921509 0.6535688
vn -0.7568569 0.003921509 0.6535688
vn -0.7568569 0.003921509 0.6535688
vn -0.0901953 0.99214923 -0.08662968
vn -0.0901953 0.99214923 -0.08662968
vn -0.0901953 0.99214923 -0.08662968
vn 0.0039215684 0.99999225 -0.00034526698
vn 0.0039215684 0.99999225 -0.00034526698
vn 0.0039215684 0.99999225 -0.00034526698
vn 0.0039215684 0.99999225 -0.00034526698
vn -0.003921509 0.99999225 -0.00034526698
vn -0.003921509 0.99999225 -0.00034526698
vn -0.003921509 0.99999225 -0.00034526698
vn -0.003921509 0.99999225 -0.00034526698
vn -0.003921509 0.99999225 -0.00034526698
vn -0.003921509 0.99999225 -0.00034526698
vn -0.003921509 0.99999225 -0.00034526698
vn -0.003921509 0.99999225 -0.00034526698
vn 0.08235234 0.99214923 -0.09411676
vn 0.08235234 0.99214923 -0.09411676
vn 0.08235234 0.99214923 -0.09411676
vn -0.003921509 0.99999225 -0.00034526698
vn -0.003921509 0.99999225 -0.00034526698
vn -0.003921509 0.99999225 -0.00034526698
vn -0.003921509 0.99999225 -0.00034526698
g colWaterTemple_0
f 3/3/3 2/2/2 1/1/1
f 4/4/4 3/3/3 1/1/1
f 7/7/7 6/6/6 5/5/5
f 8/8/8 7/7/7 5/5/5
f 11/11/11 10/10/10 9/9/9
f 12/12/12 11/11/11 9/9/9
f 15/15/15 14/14/14 13/13/13
f 16/16/16 15/15/15 13/13/13
f 19/19/19 18/18/18 17/17/17
f 20/20/20 19/19/19 17/17/17
f 23/23/23 22/22/22 21/21/21
f 24/24/24 23/23/23 21/21/21
f 27/27/27 26/26/26 25/25/25
f 28/28/28 27/27/27 25/25/25
f 31/31/31 30/30/30 29/29/29
f 32/32/32 31/31/31 29/29/29
f 35/35/35 34/34/34 33/33/33
f 36/36/36 35/35/35 33/33/33
f 39/39/39 38/38/38 37/37/37
f 40/40/40 39/39/39 37/37/37
f 43/43/43 42/42/42 41/41/41
f 44/44/44 43/43/43 41/41/41
f 47/47/47 46/46/46 45/45/45
f 48/48/48 47/47/47 45/45/45
f 51/51/51 50/50/50 49/49/49
f 52/52/52 51/51/51 49/49/49
f 55/55/55 54/54/54 53/53/53
f 56/56/56 55/55/55 53/53/53
f 59/59/59 58/58/58 57/57/57
f 60/60/60 59/59/59 57/57/57
f 63/63/63 62/62/62 61/61/61
f 64/64/64 63/63/63 61/61/61
f 67/67/67 66/66/66 65/65/65
f 68/68/68 67/67/67 65/65/65
f 71/71/71 70/70/70 69/69/69
f 72/72/72 71/71/71 69/69/69
f 75/75/75 74/74/74 73/73/73
f 76/76/76 75/75/75 73/73/73
f 79/79/79 78/78/78 77/77/77
f 80/80/80 79/79/79 77/77/77
f 83/83/83 82/82/82 81/81/81
f 86/86/86 85/85/85 84/84/84
f 87/87/87 86/86/86 84/84/84
f 90/90/90 89/89/89 88/88/88
f 91/91/91 90/90/90 88/88/88
f 94/94/94 93/93/93 92/92/92
f 95/95/95 94/94/94 92/92/92
f 98/98/98 97/97/97 96/96/96
f 101/101/101 100/100/100 99/99/99
f 102/102/102 101/101/101 99/99/99
