g cryptdiorama_webs
v -4.87084 4.8567324 -4.0962706
v -4.87084 6.213951 -4.0962706
v -3.5289793 6.213951 -4.3005676
v -3.5289793 4.8567324 -4.3005676
v 3.8396492 6.176449 -4.1984196
v 4.895244 6.176449 -4.1984196
v 4.895244 5.120675 -4.1984196
v 3.8396492 5.120675 -4.1984196
v 5.4893847 6.209487 5.0906734
v 5.292945 6.209487 4.1402636
v 5.292945 5.2390747 4.1402636
v 5.4893847 5.2390747 5.0906734
v 0.16033554 4.0122204 -4.1984196
v 1.2991495 4.2199106 -4.1984196
v 1.5068395 3.081275 -4.1984196
v 0.36820412 2.8734064 -4.1984196
v -1.3445706 3.471119 -4.1984196
v -0.9711566 4.3588467 -4.1984196
v -0.08342838 3.9854326 -4.1984196
v -0.45684195 3.097705 -4.1984196
v -1.2649231 3.6271982 -4.8895297
v -1.1231294 4.307415 -4.8895297
v -0.16307545 4.164729 -4.8895297
v -0.30486917 3.4845123 -4.8895297
v -5.4887314 6.2130585 5.012991
v -5.296935 6.2130585 4.085617
v -5.296935 5.266219 4.085617
v -5.4887314 5.266219 5.012991
v -5.7633905 2.3633776 -0.373919
v -5.4367647 2.3633776 -1.3045068
v -5.4367647 1.3770723 -1.3045068
v -5.7633905 1.3770723 -0.373919
v -4.8415527 1.3599286 2.4749913
v -4.8415527 1.9192457 2.4749913
v -4.4538527 1.9192457 2.2110476
v -4.4538527 1.3599286 2.2110476
v 4.2518153 1.9033518 2.601962
v 4.6221933 1.9033518 2.4389176
v 4.6221933 1.3240337 2.4389176
v 4.2518153 1.3240337 2.601962
vt 0 0
vt 0 1
vt 1 1
vt 1 0
vt 0 0
vt 0 1
vt 1 1
vt 1 0
vt 0 0
vt 0 1
vt 1 1
vt 1 0
vt 0 0
vt 0 1
vt 1 1
vt 1 0
vt 0 0
vt 0 1
vt 1 1
vt 1 0
vt 0 0
vt 0 1
vt 1 1
vt 1 0
vt 0 0
vt 0 1
vt 1 1
vt 1 0
vt 0 0
vt 0 1
vt 1 1
vt 1 0
vt 0 0
vt 0 1
vt 1 1
vt 1 0
vt 0 0
vt 0 1
vt 1 1
vt 1 0
vn 0.14977461 1.0728836E-06 0.9887202
vn 0.14977461 1.0728836E-06 0.9887202
vn 0.14977461 1.0728836E-06 0.9887202
vn 0.14977461 1.0728836E-06 0.9887202
vn -1.0728836E-06 1.0728836E-06 1
vn -1.0728836E-06 1.0728836E-06 1
vn -1.0728836E-06 1.0728836E-06 1
vn -1.0728836E-06 1.0728836E-06 1
vn 0.97930145 1.0728836E-06 -0.20240715
vn 0.97930145 1.0728836E-06 -0.20240715
vn 0.97930145 1.0728836E-06 -0.20240715
vn 0.97930145 1.0728836E-06 -0.20240715
vn -1.0728836E-06 1.0728836E-06 1
vn -1.0728836E-06 1.0728836E-06 1
vn -1.0728836E-06 1.0728836E-06 1
vn -1.0728836E-06 1.0728836E-06 1
vn -1.0728836E-06 1.0728836E-06 1
vn -1.0728836E-06 1.0728836E-06 1
vn -1.0728836E-06 1.0728836E-06 1
vn -1.0728836E-06 1.0728836E-06 1
vn -1.0728836E-06 1.0728836E-06 1
vn -1.0728836E-06 1.0728836E-06 1
vn -1.0728836E-06 1.0728836E-06 1
vn -1.0728836E-06 1.0728836E-06 1
vn 0.97930145 1.0728836E-06 0.20240715
vn 0.97930145 1.0728836E-06 0.20240715
vn 0.97930145 1.0728836E-06 0.20240715
vn 0.97930145 1.0728836E-06 0.20240715
vn 0.94473785 1.0728836E-06 0.32782677
vn 0.94473785 1.0728836E-06 0.32782677
vn 0.94473785 1.0728836E-06 0.32782677
vn 0.94473785 1.0728836E-06 0.32782677
vn 0.564538 1.0728836E-06 0.8254071
vn 0.564538 1.0728836E-06 0.8254071
vn 0.564538 1.0728836E-06 0.8254071
vn 0.564538 1.0728836E-06 0.8254071
vn 0.40324116 1.0728836E-06 0.9150937
vn 0.40324116 1.0728836E-06 0.9150937
vn 0.40324116 1.0728836E-06 0.9150937
vn 0.40324116 1.0728836E-06 0.9150937
g cryptdiorama_webs_0
f 3/3/3 2/2/2 1/1/1
f 4/4/4 3/3/3 1/1/1
f 7/7/7 6/6/6 5/5/5
f 8/8/8 7/7/7 5/5/5
f 11/11/11 10/10/10 9/9/9
f 12/12/12 11/11/11 9/9/9
f 15/15/15 14/14/14 13/13/13
f 16/16/16 15/15/15 13/13/13
f 19/19/19 18/18/18 17/17/17
f 20/20/20 19/19/19 17/17/17
f 23/23/23 22/22/22 21/21/21
f 24/24/24 23/23/23 21/21/21
f 27/27/27 26/26/26 25/25/25
f 28/28/28 27/27/27 25/25/25
f 31/31/31 30/30/30 29/29/29
f 32/32/32 31/31/31 29/29/29
f 35/35/35 34/34/34 33/33/33
f 36/36/36 35/35/35 33/33/33
f 39/39/39 38/38/38 37/37/37
f 40/40/40 39/39/39 37/37/37
