g deathCertificate
v 0.61157846 0.30873346 -0.36607713
v 0.63105804 0.00033950806 -0.2515
v 0.27156693 0.30227292 -0.26336884
v 0.27068597 -0.010868609 -0.14108318
v 0.26995182 0.68616235 -0.42397746
v 0.56870383 0.68616235 -0.51214945
v -0.32806623 0.29089344 -0.08227736
v -0.3998176 0.68616235 -0.22634298
v -0.69597554 0.28389454 0.028824687
v -0.27278435 -0.027754128 0.025447607
v 0.27068597 -0.010868609 -0.14108318
v 0.2664768 -0.27555585 -0.05146736
v 0.66370344 -0.26028544 -0.1742425
v 0.63105804 0.00033950806 -0.2515
v -0.23057044 -0.29461938 0.10216677
v -0.6873615 -0.040626347 0.15248084
v -0.7556379 0.68616235 -0.121334374
v -0.63724315 -0.3102324 0.22785401
v 0.66370344 -0.26028544 -0.1742425
v 0.70280945 -0.7321022 -0.05768317
v 0.2664768 -0.27555585 -0.05146736
v 0.25223422 -0.7321022 0.0752967
v -0.23057044 -0.29461938 0.10216677
v -0.16992927 -0.7321022 0.19985831
v -0.63724315 -0.3102324 0.22785401
v -0.6215079 -0.7321022 0.3331318
v 0.61157846 0.30873346 -0.36607713
v 0.27156693 0.30227292 -0.26336884
v 0.63105804 0.00033950806 -0.2515
v 0.27068597 -0.010868609 -0.14108318
v 0.26995182 0.68616235 -0.42397746
v 0.56870383 0.68616235 -0.51214945
v -0.32806623 0.29089344 -0.08227736
v -0.3998176 0.68616235 -0.22634298
v -0.69597554 0.28389454 0.028824687
v -0.27278435 -0.027754128 0.025447607
v 0.27068597 -0.010868609 -0.14108318
v 0.2664768 -0.27555585 -0.05146736
v 0.66370344 -0.26028544 -0.1742425
v 0.63105804 0.00033950806 -0.2515
v -0.23057044 -0.29461938 0.10216677
v -0.6873615 -0.040626347 0.15248084
v -0.7556379 0.68616235 -0.121334374
v -0.63724315 -0.3102324 0.22785401
v 0.66370344 -0.26028544 -0.1742425
v 0.2664768 -0.27555585 -0.05146736
v 0.70280945 -0.7321022 -0.05768317
v 0.25223422 -0.7321022 0.0752967
v -0.23057044 -0.29461938 0.10216677
v -0.16992927 -0.7321022 0.19985831
v -0.63724315 -0.3102324 0.22785401
v -0.6215079 -0.7321022 0.3331318
v 0.5886484 0.81380737 -0.44455826
v 0.56870383 0.68616235 -0.51214945
v 0.29917115 0.81380737 -0.35912713
v 0.26995182 0.68616235 -0.42397746
v -0.38760614 0.81380737 -0.15647596
v -0.3998176 0.68616235 -0.22634298
v -0.7556379 0.68616235 -0.121334374
v -0.73569334 0.81380737 -0.053743243
v 0.2968708 0.6169561 -0.2892601
v 0.5850755 0.6169561 -0.37429965
v 0.3204127 0.7357912 -0.24337542
v 0.6105751 0.7357912 -0.3290023
v -0.3484757 0.7357912 -0.0459612
v -0.3555236 0.6169561 -0.096740246
v -0.69455624 0.6169561 0.0033006072
v -0.6913749 0.7357912 0.055205345
v 0.57053924 0.6796284 -0.46401337
v 0.5850755 0.6169561 -0.37429965
v 0.28074384 0.6796284 -0.3785088
v 0.2968708 0.6169561 -0.2892601
v -0.38581967 0.6796284 -0.1818043
v -0.3555236 0.6169561 -0.096740246
v -0.69455624 0.6169561 0.0033006072
v -0.7310437 0.6796284 -0.0799281
v 0.3204127 0.7357912 -0.24337542
v 0.6105751 0.7357912 -0.3290023
v 0.29917115 0.81380737 -0.35912713
v 0.5886484 0.81380737 -0.44455826
v -0.38760614 0.81380737 -0.15647596
v -0.3484757 0.7357912 -0.0459612
v -0.6913749 0.7357912 0.055205345
v -0.73569334 0.81380737 -0.053743243
v 0.70280945 -0.7321022 -0.05768317
v 0.74216014 -0.7899536 0.07563931
v 0.25223422 -0.7321022 0.0752967
v 0.28074384 -0.7899536 0.21180058
v -0.16992927 -0.7321022 0.19985831
v -0.12573314 -0.7899536 0.33176148
v -0.5821816 -0.7899536 0.4664544
v -0.6215079 -0.7321022 0.3331318
v 0.7435305 -0.6516878 0.121548474
v 0.69916314 -0.58823234 0.012306213
v 0.3046039 -0.6516878 0.25107777
v 0.28191853 -0.58823234 0.13542396
v -0.16001815 -0.58823234 0.26585877
v -0.12176871 -0.6516878 0.376912
v -0.58046854 -0.58823234 0.38990653
v -0.55841947 -0.6516878 0.50575614
v 0.7009251 -0.6968383 -0.022174597
v 0.26373595 -0.6968383 0.10684091
v 0.69916314 -0.58823234 0.012306213
v 0.28191853 -0.58823234 0.13542396
v -0.16001815 -0.58823234 0.26585877
v -0.16246533 -0.6968383 0.23262608
v -0.58046854 -0.58823234 0.38990653
v -0.6006578 -0.6968383 0.36193514
v 0.7435305 -0.6516878 0.121548474
v 0.3046039 -0.6516878 0.25107777
v 0.74216014 -0.7899536 0.07563931
v 0.28074384 -0.7899536 0.21180058
v -0.12176871 -0.6516878 0.376912
v -0.12573314 -0.7899536 0.33176148
v -0.55841947 -0.6516878 0.50575614
v -0.5821816 -0.7899536 0.4664544
v 0.5886484 0.81380737 -0.44455826
v 0.29917115 0.81380737 -0.35912713
v 0.56870383 0.68616235 -0.51214945
v 0.26995182 0.68616235 -0.42397746
v -0.38760614 0.81380737 -0.15647596
v -0.3998176 0.68616235 -0.22634298
v -0.7556379 0.68616235 -0.121334374
v -0.73569334 0.81380737 -0.053743243
v 0.2968708 0.6169561 -0.2892601
v 0.3204127 0.7357912 -0.24337542
v 0.5850755 0.6169561 -0.37429965
v 0.6105751 0.7357912 -0.3290023
v -0.3484757 0.7357912 -0.0459612
v -0.3555236 0.6169561 -0.096740246
v -0.69455624 0.6169561 0.0033006072
v -0.6913749 0.7357912 0.055205345
v 0.57053924 0.6796284 -0.46401337
v 0.28074384 0.6796284 -0.3785088
v 0.5850755 0.6169561 -0.37429965
v 0.2968708 0.6169561 -0.2892601
v -0.38581967 0.6796284 -0.1818043
v -0.3555236 0.6169561 -0.096740246
v -0.69455624 0.6169561 0.0033006072
v -0.7310437 0.6796284 -0.0799281
v 0.3204127 0.7357912 -0.24337542
v 0.29917115 0.81380737 -0.35912713
v 0.6105751 0.7357912 -0.3290023
v 0.5886484 0.81380737 -0.44455826
v -0.38760614 0.81380737 -0.15647596
v -0.3484757 0.7357912 -0.0459612
v -0.6913749 0.7357912 0.055205345
v -0.73569334 0.81380737 -0.053743243
v 0.70280945 -0.7321022 -0.05768317
v 0.25223422 -0.7321022 0.0752967
v 0.74216014 -0.7899536 0.07563931
v 0.28074384 -0.7899536 0.21180058
v -0.16992927 -0.7321022 0.19985831
v -0.12573314 -0.7899536 0.33176148
v -0.5821816 -0.7899536 0.4664544
v -0.6215079 -0.7321022 0.3331318
v 0.7435305 -0.6516878 0.121548474
v 0.3046039 -0.6516878 0.25107777
v 0.69916314 -0.58823234 0.012306213
v 0.28191853 -0.58823234 0.13542396
v -0.16001815 -0.58823234 0.26585877
v -0.12176871 -0.6516878 0.376912
v -0.58046854 -0.58823234 0.38990653
v -0.55841947 -0.6516878 0.50575614
v 0.7009251 -0.6968383 -0.022174597
v 0.69916314 -0.58823234 0.012306213
v 0.26373595 -0.6968383 0.10684091
v 0.28191853 -0.58823234 0.13542396
v -0.16001815 -0.58823234 0.26585877
v -0.16246533 -0.6968383 0.23262608
v -0.58046854 -0.58823234 0.38990653
v -0.6006578 -0.6968383 0.36193514
v 0.7435305 -0.6516878 0.121548474
v 0.74216014 -0.7899536 0.07563931
v 0.3046039 -0.6516878 0.25107777
v 0.28074384 -0.7899536 0.21180058
v -0.12176871 -0.6516878 0.376912
v -0.12573314 -0.7899536 0.33176148
v -0.55841947 -0.6516878 0.50575614
v -0.5821816 -0.7899536 0.4664544
vt 0.9657868 0.72825027
vt 0.95601165 0.5083089
vt 0.72825027 0.7233627
vt 0.70478976 0.50048876
vt 0.75757575 1
vt 0.9657868 1
vt 0.30889538 0.71554244
vt 0.29032254 1
vt 0.051808376 0.71065485
vt 0.32453564 0.48778102
vt 0.70478976 0.50048876
vt 0.6842619 0.31378296
vt 0.96285427 0.32453564
vt 0.95601165 0.5083089
vt 0.33724338 0.30107525
vt 0.03421307 0.47898334
vt 0.042033207 1
vt 0.051808376 0.28934503
vt 0.96285427 0.32453564
vt 0.9657868 -2.9802322E-08
vt 0.6842619 0.31378296
vt 0.6520039 -2.9802322E-08
vt 0.33724338 0.30107525
vt 0.3567937 -2.9802322E-08
vt 0.051808376 0.28934503
vt 0.042033207 -2.9802322E-08
vt 0.9657868 0.72825027
vt 0.72825027 0.7233627
vt 0.95601165 0.5083089
vt 0.70478976 0.50048876
vt 0.75757575 1
vt 0.9657868 1
vt 0.30889538 0.71554244
vt 0.29032254 1
vt 0.051808376 0.71065485
vt 0.32453564 0.48778102
vt 0.70478976 0.50048876
vt 0.6842619 0.31378296
vt 0.96285427 0.32453564
vt 0.95601165 0.5083089
vt 0.33724338 0.30107525
vt 0.03421307 0.47898334
vt 0.042033207 1
vt 0.051808376 0.28934503
vt 0.96285427 0.32453564
vt 0.6842619 0.31378296
vt 0.9657868 -2.9802322E-08
vt 0.6520039 -2.9802322E-08
vt 0.33724338 0.30107525
vt 0.3567937 -2.9802322E-08
vt 0.051808376 0.28934503
vt 0.042033207 -2.9802322E-08
vt 0.097751684 0.7243402
vt 0.097751684 0.72043014
vt 0.08113389 0.7243402
vt 0.08015637 0.72043014
vt 0.04007817 0.7243402
vt 0.04105569 0.72043014
vt 0.02052783 0.72043014
vt 0.02052783 0.7243402
vt 0.079178855 0.7145649
vt 0.09677416 0.7145649
vt 0.08015637 0.7194526
vt 0.09677416 0.7194526
vt 0.04105569 0.7194526
vt 0.04105569 0.7145649
vt 0.021505347 0.7145649
vt 0.02052783 0.7194526
vt 0.09677416 0.7194526
vt 0.09677416 0.7145649
vt 0.08015637 0.7194526
vt 0.079178855 0.7145649
vt 0.04105569 0.7194526
vt 0.04105569 0.7145649
vt 0.021505347 0.7145649
vt 0.02052783 0.7194526
vt 0.08015637 0.7194526
vt 0.09677416 0.7194526
vt 0.08113389 0.7243402
vt 0.097751684 0.7243402
vt 0.04007817 0.7243402
vt 0.04105569 0.7194526
vt 0.02052783 0.7194526
vt 0.02052783 0.7243402
vt 0.097751684 0.64907134
vt 0.097751684 0.64418375
vt 0.07135872 0.64907134
vt 0.0703812 0.64418375
vt 0.04692079 0.64907134
vt 0.04692079 0.64418375
vt 0.02052783 0.64418375
vt 0.02052783 0.64907134
vt 0.09677416 0.65004885
vt 0.09677416 0.65493643
vt 0.07135872 0.65004885
vt 0.072336234 0.65493643
vt 0.045943275 0.65493643
vt 0.045943275 0.65004885
vt 0.021505347 0.65493643
vt 0.02052783 0.65004885
vt 0.09677416 0.65004885
vt 0.07135872 0.65004885
vt 0.09677416 0.65493643
vt 0.072336234 0.65493643
vt 0.045943275 0.65493643
vt 0.04692079 0.65004885
vt 0.021505347 0.65493643
vt 0.02052783 0.65004885
vt 0.09677416 0.65004885
vt 0.07135872 0.65004885
vt 0.097751684 0.64418375
vt 0.0703812 0.64418375
vt 0.045943275 0.65004885
vt 0.04692079 0.64418375
vt 0.02052783 0.65004885
vt 0.02052783 0.64418375
vt 0.097751684 0.7243402
vt 0.08113389 0.7243402
vt 0.097751684 0.72043014
vt 0.08015637 0.72043014
vt 0.04007817 0.7243402
vt 0.04105569 0.72043014
vt 0.02052783 0.72043014
vt 0.02052783 0.7243402
vt 0.079178855 0.7145649
vt 0.08015637 0.7194526
vt 0.09677416 0.7145649
vt 0.09677416 0.7194526
vt 0.04105569 0.7194526
vt 0.04105569 0.7145649
vt 0.021505347 0.7145649
vt 0.02052783 0.7194526
vt 0.09677416 0.7194526
vt 0.08015637 0.7194526
vt 0.09677416 0.7145649
vt 0.079178855 0.7145649
vt 0.04105569 0.7194526
vt 0.04105569 0.7145649
vt 0.021505347 0.7145649
vt 0.02052783 0.7194526
vt 0.08015637 0.7194526
vt 0.08113389 0.7243402
vt 0.09677416 0.7194526
vt 0.097751684 0.7243402
vt 0.04007817 0.7243402
vt 0.04105569 0.7194526
vt 0.02052783 0.7194526
vt 0.02052783 0.7243402
vt 0.097751684 0.64907134
vt 0.07135872 0.64907134
vt 0.097751684 0.64418375
vt 0.0703812 0.64418375
vt 0.04692079 0.64907134
vt 0.04692079 0.64418375
vt 0.02052783 0.64418375
vt 0.02052783 0.64907134
vt 0.09677416 0.65004885
vt 0.07135872 0.65004885
vt 0.09677416 0.65493643
vt 0.072336234 0.65493643
vt 0.045943275 0.65493643
vt 0.045943275 0.65004885
vt 0.021505347 0.65493643
vt 0.02052783 0.65004885
vt 0.09677416 0.65004885
vt 0.09677416 0.65493643
vt 0.07135872 0.65004885
vt 0.072336234 0.65493643
vt 0.045943275 0.65493643
vt 0.04692079 0.65004885
vt 0.021505347 0.65493643
vt 0.02052783 0.65004885
vt 0.09677416 0.65004885
vt 0.097751684 0.64418375
vt 0.07135872 0.65004885
vt 0.0703812 0.64418375
vt 0.045943275 0.65004885
vt 0.04692079 0.64418375
vt 0.02052783 0.65004885
vt 0.02052783 0.64418375
vn 0.26430285 0.3511969 0.8982231
vn 0.26430285 0.3511969 0.8982231
vn 0.26430285 0.3511969 0.8982231
vn 0.26430285 0.3511969 0.8982231
vn 0.26430285 0.3729204 0.8894236
vn 0.26430285 0.3729204 0.8894236
vn 0.26430285 0.3511969 0.8982231
vn 0.26430285 0.3729204 0.8894236
vn 0.26430285 0.3511969 0.8982231
vn 0.26430285 0.3511969 0.8982231
vn 0.27154404 0.30774987 0.91189575
vn 0.27154404 0.30774987 0.91189575
vn 0.27154404 0.30774987 0.91189575
vn 0.27154404 0.30774987 0.91189575
vn 0.27154404 0.30774987 0.91189575
vn 0.26430285 0.3511969 0.8982231
vn 0.26430285 0.3729204 0.8894236
vn 0.27154404 0.30774987 0.91189575
vn 0.27878523 0.24982047 0.927291
vn 0.27878523 0.24982047 0.927291
vn 0.27878523 0.24982047 0.927291
vn 0.27154404 0.24982047 0.9294372
vn 0.27878523 0.24982047 0.927291
vn 0.27154404 0.24257934 0.93135333
vn 0.27878523 0.24257934 0.92921156
vn 0.27154404 0.24257934 0.93135333
vn -0.26430285 -0.35119694 -0.8982231
vn -0.26430285 -0.35119694 -0.8982231
vn -0.26430285 -0.35119694 -0.8982231
vn -0.26430285 -0.35119694 -0.8982231
vn -0.26430285 -0.3729205 -0.88942355
vn -0.26430285 -0.3729205 -0.88942355
vn -0.26430285 -0.35119694 -0.8982231
vn -0.26430285 -0.3729205 -0.88942355
vn -0.26430285 -0.35119694 -0.8982231
vn -0.26430285 -0.35119694 -0.8982231
vn -0.27154398 -0.30774993 -0.91189575
vn -0.27154398 -0.30774993 -0.91189575
vn -0.27154398 -0.30774993 -0.91189575
vn -0.27154398 -0.30774993 -0.91189575
vn -0.27154398 -0.30774993 -0.91189575
vn -0.26430285 -0.35119694 -0.8982231
vn -0.26430285 -0.3729205 -0.88942355
vn -0.27154398 -0.30774993 -0.91189575
vn -0.27878523 -0.24982053 -0.927291
vn -0.27878523 -0.24982053 -0.927291
vn -0.27878523 -0.24982053 -0.927291
vn -0.27154398 -0.24982053 -0.9294372
vn -0.27878523 -0.24982053 -0.927291
vn -0.27154398 -0.24257934 -0.9313534
vn -0.27878523 -0.24257934 -0.92921156
vn -0.27154398 -0.24257934 -0.9313534
vn 0.24982053 -0.4815381 0.84006596
vn 0.24982053 -0.4815381 0.84006596
vn 0.24982053 -0.4815381 0.84006596
vn 0.24982053 -0.4815381 0.84006596
vn 0.24982053 -0.4815381 0.84006596
vn 0.24982053 -0.4815381 0.84006596
vn 0.24982053 -0.4815381 0.84006596
vn 0.24982053 -0.4815381 0.84006596
vn -0.2570616 0.39464402 -0.8821425
vn -0.2570616 0.39464402 -0.8821425
vn -0.2570616 0.39464402 -0.8821425
vn -0.2570616 0.39464402 -0.8821425
vn -0.2570616 0.39464402 -0.8821425
vn -0.2570616 0.39464402 -0.8821425
vn -0.2570616 0.39464402 -0.8821425
vn -0.2570616 0.39464402 -0.8821425
vn 0.16292644 0.8218732 0.5458749
vn 0.16292644 0.8218732 0.5458749
vn 0.16292644 0.8218732 0.5458749
vn 0.16292644 0.8218732 0.5458749
vn 0.16292644 0.8218732 0.5458749
vn 0.16292644 0.8218732 0.5458749
vn 0.16292644 0.8218732 0.5458749
vn 0.16292644 0.8218732 0.5458749
vn -0.15568519 -0.82911444 -0.53696495
vn -0.15568519 -0.82911444 -0.53696495
vn -0.15568519 -0.82911444 -0.53696495
vn -0.15568519 -0.82911444 -0.53696495
vn -0.15568519 -0.82911444 -0.53696495
vn -0.15568519 -0.82911444 -0.53696495
vn -0.15568519 -0.82911444 -0.53696495
vn -0.15568519 -0.82911444 -0.53696495
vn 0.11223823 0.9232497 0.3674405
vn 0.11223823 0.9232497 0.3674405
vn 0.11223823 0.9232497 0.3674405
vn 0.11223823 0.9232497 0.3674405
vn 0.11223823 0.9232497 0.3674405
vn 0.11223823 0.9232497 0.3674405
vn 0.11223823 0.9232497 0.3674405
vn 0.11223823 0.9232497 0.3674405
vn -0.13396168 -0.8798027 -0.4560718
vn -0.13396168 -0.8798027 -0.4560718
vn -0.13396168 -0.8798027 -0.4560718
vn -0.13396168 -0.8798027 -0.4560718
vn -0.13396168 -0.8798027 -0.4560718
vn -0.13396168 -0.8798027 -0.4560718
vn -0.13396168 -0.8798027 -0.4560718
vn -0.13396168 -0.8798027 -0.4560718
vn 0.27154404 -0.28602642 0.9189411
vn 0.27154404 -0.28602642 0.9189411
vn 0.27154404 -0.28602642 0.9189411
vn 0.27154404 -0.28602642 0.9189411
vn 0.27154404 -0.28602642 0.9189411
vn 0.27154404 -0.28602642 0.9189411
vn 0.27154404 -0.28602642 0.9189411
vn 0.27154404 -0.28602642 0.9189411
vn -0.27154398 0.30774987 -0.91189575
vn -0.27154398 0.30774987 -0.91189575
vn -0.27154398 0.30774987 -0.91189575
vn -0.27154398 0.30774987 -0.91189575
vn -0.27154398 0.30774987 -0.91189575
vn -0.27154398 0.30774987 -0.91189575
vn -0.27154398 0.30774987 -0.91189575
vn -0.27154398 0.30774987 -0.91189575
vn -0.24982047 0.48153806 -0.84006596
vn -0.24982047 0.48153806 -0.84006596
vn -0.24982047 0.48153806 -0.84006596
vn -0.24982047 0.48153806 -0.84006596
vn -0.24982047 0.48153806 -0.84006596
vn -0.24982047 0.48153806 -0.84006596
vn -0.24982047 0.48153806 -0.84006596
vn -0.24982047 0.48153806 -0.84006596
vn 0.25706172 -0.39464402 0.8821425
vn 0.25706172 -0.39464402 0.8821425
vn 0.25706172 -0.39464402 0.8821425
vn 0.25706172 -0.39464402 0.8821425
vn 0.25706172 -0.39464402 0.8821425
vn 0.25706172 -0.39464402 0.8821425
vn 0.25706172 -0.39464402 0.8821425
vn 0.25706172 -0.39464402 0.8821425
vn -0.16292644 -0.8218733 -0.5458747
vn -0.16292644 -0.8218733 -0.5458747
vn -0.16292644 -0.8218733 -0.5458747
vn -0.16292644 -0.8218733 -0.5458747
vn -0.16292644 -0.8218733 -0.5458747
vn -0.16292644 -0.8218733 -0.5458747
vn -0.16292644 -0.8218733 -0.5458747
vn -0.16292644 -0.8218733 -0.5458747
vn 0.15568525 0.82911444 0.53696495
vn 0.15568525 0.82911444 0.53696495
vn 0.15568525 0.82911444 0.53696495
vn 0.15568525 0.82911444 0.53696495
vn 0.15568525 0.82911444 0.53696495
vn 0.15568525 0.82911444 0.53696495
vn 0.15568525 0.82911444 0.53696495
vn 0.15568525 0.82911444 0.53696495
vn -0.11223817 -0.9232497 -0.36744055
vn -0.11223817 -0.9232497 -0.36744055
vn -0.11223817 -0.9232497 -0.36744055
vn -0.11223817 -0.9232497 -0.36744055
vn -0.11223817 -0.9232497 -0.36744055
vn -0.11223817 -0.9232497 -0.36744055
vn -0.11223817 -0.9232497 -0.36744055
vn -0.11223817 -0.9232497 -0.36744055
vn 0.13396174 0.8798026 0.456072
vn 0.13396174 0.8798026 0.456072
vn 0.13396174 0.8798026 0.456072
vn 0.13396174 0.8798026 0.456072
vn 0.13396174 0.8798026 0.456072
vn 0.13396174 0.8798026 0.456072
vn 0.13396174 0.8798026 0.456072
vn 0.13396174 0.8798026 0.456072
vn -0.27154398 0.28602636 -0.91894114
vn -0.27154398 0.28602636 -0.91894114
vn -0.27154398 0.28602636 -0.91894114
vn -0.27154398 0.28602636 -0.91894114
vn -0.27154398 0.28602636 -0.91894114
vn -0.27154398 0.28602636 -0.91894114
vn -0.27154398 0.28602636 -0.91894114
vn -0.27154398 0.28602636 -0.91894114
vn 0.27154404 -0.30774993 0.91189575
vn 0.27154404 -0.30774993 0.91189575
vn 0.27154404 -0.30774993 0.91189575
vn 0.27154404 -0.30774993 0.91189575
vn 0.27154404 -0.30774993 0.91189575
vn 0.27154404 -0.30774993 0.91189575
vn 0.27154404 -0.30774993 0.91189575
vn 0.27154404 -0.30774993 0.91189575
g deathCertificate_0
f 3/3/3 2/2/2 1/1/1
f 3/3/3 4/4/4 2/2/2
f 5/5/5 3/3/3 1/1/1
f 5/5/5 1/1/1 6/6/6
f 7/7/7 4/4/4 3/3/3
f 8/8/8 3/3/3 5/5/5
f 8/8/8 7/7/7 3/3/3
f 8/8/8 9/9/9 7/7/7
f 9/9/9 10/10/10 7/7/7
f 7/7/7 10/10/10 11/11/11
f 10/10/10 12/12/12 11/11/11
f 11/11/11 12/12/12 13/13/13
f 11/11/11 13/13/13 14/14/14
f 10/10/10 15/15/15 12/12/12
f 9/9/9 16/16/16 10/10/10
f 8/8/8 17/17/17 9/9/9
f 10/10/10 18/18/18 15/15/15
f 10/10/10 16/16/16 18/18/18
f 21/21/21 20/20/20 19/19/19
f 21/21/21 22/22/22 20/20/20
f 23/23/23 22/22/22 21/21/21
f 23/23/23 24/24/24 22/22/22
f 25/25/25 24/24/24 23/23/23
f 25/25/25 26/26/26 24/24/24
f 29/29/29 28/28/28 27/27/27
f 30/30/30 28/28/28 29/29/29
f 28/28/28 31/31/31 27/27/27
f 27/27/27 31/31/31 32/32/32
f 30/30/30 33/33/33 28/28/28
f 28/28/28 34/34/34 31/31/31
f 33/33/33 34/34/34 28/28/28
f 35/35/35 34/34/34 33/33/33
f 36/36/36 35/35/35 33/33/33
f 36/36/36 33/33/33 37/37/37
f 38/38/38 36/36/36 37/37/37
f 38/38/38 37/37/37 39/39/39
f 39/39/39 37/37/37 40/40/40
f 41/41/41 36/36/36 38/38/38
f 42/42/42 35/35/35 36/36/36
f 43/43/43 34/34/34 35/35/35
f 44/44/44 36/36/36 41/41/41
f 42/42/42 36/36/36 44/44/44
f 47/47/47 46/46/46 45/45/45
f 48/48/48 46/46/46 47/47/47
f 48/48/48 49/49/49 46/46/46
f 50/50/50 49/49/49 48/48/48
f 50/50/50 51/51/51 49/49/49
f 52/52/52 51/51/51 50/50/50
g deathCertificate_1
f 55/55/55 54/54/54 53/53/53
f 55/55/55 56/56/56 54/54/54
f 57/57/57 56/56/56 55/55/55
f 57/57/57 58/58/58 56/56/56
f 57/57/57 59/59/59 58/58/58
f 57/57/57 60/60/60 59/59/59
f 63/63/63 62/62/62 61/61/61
f 63/63/63 64/64/64 62/62/62
f 61/61/61 65/65/65 63/63/63
f 61/61/61 66/66/66 65/65/65
f 67/67/67 65/65/65 66/66/66
f 67/67/67 68/68/68 65/65/65
f 71/71/71 70/70/70 69/69/69
f 71/71/71 72/72/72 70/70/70
f 73/73/73 72/72/72 71/71/71
f 73/73/73 74/74/74 72/72/72
f 73/73/73 75/75/75 74/74/74
f 73/73/73 76/76/76 75/75/75
f 79/79/79 78/78/78 77/77/77
f 79/79/79 80/80/80 78/78/78
f 77/77/77 81/81/81 79/79/79
f 77/77/77 82/82/82 81/81/81
f 83/83/83 81/81/81 82/82/82
f 83/83/83 84/84/84 81/81/81
f 87/87/87 86/86/86 85/85/85
f 87/87/87 88/88/88 86/86/86
f 89/89/89 88/88/88 87/87/87
f 89/89/89 90/90/90 88/88/88
f 89/89/89 91/91/91 90/90/90
f 89/89/89 92/92/92 91/91/91
f 95/95/95 94/94/94 93/93/93
f 95/95/95 96/96/96 94/94/94
f 95/95/95 97/97/97 96/96/96
f 95/95/95 98/98/98 97/97/97
f 98/98/98 99/99/99 97/97/97
f 98/98/98 100/100/100 99/99/99
f 103/103/103 102/102/102 101/101/101
f 103/103/103 104/104/104 102/102/102
f 105/105/105 102/102/102 104/104/104
f 105/105/105 106/106/106 102/102/102
f 107/107/107 106/106/106 105/105/105
f 107/107/107 108/108/108 106/106/106
f 111/111/111 110/110/110 109/109/109
f 111/111/111 112/112/112 110/110/110
f 112/112/112 113/113/113 110/110/110
f 112/112/112 114/114/114 113/113/113
f 114/114/114 115/115/115 113/113/113
f 114/114/114 116/116/116 115/115/115
f 119/119/119 118/118/118 117/117/117
f 120/120/120 118/118/118 119/119/119
f 120/120/120 121/121/121 118/118/118
f 122/122/122 121/121/121 120/120/120
f 123/123/123 121/121/121 122/122/122
f 124/124/124 121/121/121 123/123/123
f 127/127/127 126/126/126 125/125/125
f 128/128/128 126/126/126 127/127/127
f 129/129/129 125/125/125 126/126/126
f 130/130/130 125/125/125 129/129/129
f 129/129/129 131/131/131 130/130/130
f 132/132/132 131/131/131 129/129/129
f 135/135/135 134/134/134 133/133/133
f 136/136/136 134/134/134 135/135/135
f 136/136/136 137/137/137 134/134/134
f 138/138/138 137/137/137 136/136/136
f 139/139/139 137/137/137 138/138/138
f 140/140/140 137/137/137 139/139/139
f 143/143/143 142/142/142 141/141/141
f 144/144/144 142/142/142 143/143/143
f 145/145/145 141/141/141 142/142/142
f 146/146/146 141/141/141 145/145/145
f 145/145/145 147/147/147 146/146/146
f 148/148/148 147/147/147 145/145/145
f 151/151/151 150/150/150 149/149/149
f 152/152/152 150/150/150 151/151/151
f 152/152/152 153/153/153 150/150/150
f 154/154/154 153/153/153 152/152/152
f 155/155/155 153/153/153 154/154/154
f 156/156/156 153/153/153 155/155/155
f 159/159/159 158/158/158 157/157/157
f 160/160/160 158/158/158 159/159/159
f 161/161/161 158/158/158 160/160/160
f 162/162/162 158/158/158 161/161/161
f 163/163/163 162/162/162 161/161/161
f 164/164/164 162/162/162 163/163/163
f 167/167/167 166/166/166 165/165/165
f 168/168/168 166/166/166 167/167/167
f 167/167/167 169/169/169 168/168/168
f 170/170/170 169/169/169 167/167/167
f 170/170/170 171/171/171 169/169/169
f 172/172/172 171/171/171 170/170/170
f 175/175/175 174/174/174 173/173/173
f 176/176/176 174/174/174 175/175/175
f 177/177/177 176/176/176 175/175/175
f 178/178/178 176/176/176 177/177/177
f 179/179/179 178/178/178 177/177/177
f 180/180/180 178/178/178 179/179/179
