g demonCaveLava
v -0.6847693 0.016372085 -0.039878488
v 0.0012390614 0.014607191 0.22177279
v -0.66937363 0.052758336 0.67004955
v -0.23949659 0.06214595 -0.38898462
v 0.0012390614 0.014607191 0.22177279
v -0.6847693 0.016372085 -0.039878488
v 0.04111767 0.055649757 -0.33633894
v 0.3341986 0.011452913 -0.30017793
v 0.0012390614 0.014607191 0.22177279
v 0.04111767 0.055649757 -0.33633894
v 0.0012390614 0.014607191 0.22177279
v 0.3341986 0.011452913 -0.30017793
v 0.8044799 0.013292909 -0.15527093
v 0.56922656 0.04934132 0.48443782
v 0.0012390614 0.014607191 0.22177279
v 0.8044799 0.013292909 -0.15527093
v 0.32004207 0.043933988 0.7198038
v 0.0012390614 0.014607191 0.22177279
v 0.56922656 0.04934132 0.48443782
v 0.0012390614 0.014607191 0.22177279
v -0.32897913 0.03274405 0.77147317
v -0.66937363 0.052758336 0.67004955
v 0.32004207 0.043933988 0.7198038
v 0.013856053 0.03394568 0.7984719
v -0.32897913 0.03274405 0.77147317
v 0.0012390614 0.014607191 0.22177279
v 0.8044799 0.013292909 -0.15527093
v 0.3341986 0.011452913 -0.30017793
v 0.4726845 0.04123044 -0.6840933
v 1.0947821 0.06894255 -0.24032259
v 0.4726845 0.04123044 -0.6840933
v 0.3341986 0.011452913 -0.30017793
v 0.04111767 0.055649757 -0.33633894
v 0.064774394 0.05579996 -1.2659369
v 0.064774394 0.05579996 -1.2659369
v 0.04111767 0.055649757 -0.33633894
v -0.23949659 0.06214595 -0.38898462
v -0.46517456 0.052795887 -1.186743
v -0.6847693 0.016372085 -0.039878488
v -1.1838517 0.06533778 -0.13732183
v -1.1838517 0.06533778 -0.13732183
v -0.6847693 0.016372085 -0.039878488
v -0.66937363 0.052758336 0.67004955
v -1.1001143 0.0266608 0.6923169
v -0.32897913 0.03274405 0.77147317
v -0.31208146 0.02061522 1.1889586
v -1.1001143 0.0266608 0.6923169
v -0.66937363 0.052758336 0.67004955
v 0.5524791 0.031805277 1.0296323
v 0.18640018 0.024820924 1.1949291
v 0.013856053 0.03394568 0.7984719
v 0.32004207 0.043933988 0.7198038
v 0.5524791 0.031805277 1.0296323
v 0.32004207 0.043933988 0.7198038
v 0.56922656 0.04934132 0.48443782
v 0.89760494 0.035823107 0.72397196
v 0.89760494 0.035823107 0.72397196
v 0.56922656 0.04934132 0.48443782
v 0.8044799 0.013292909 -0.15527093
v 1.0947821 0.06894255 -0.24032259
v 0.18640018 0.024820924 1.1949291
v -0.31208146 0.02061522 1.1889586
v -0.32897913 0.03274405 0.77147317
v 0.013856053 0.03394568 0.7984719
vt 0.7150081 0.8174291
vt 0.81313175 0.7801851
vt 0.72360283 0.73792744
vt 0.7787526 0.86756533
vt 0.81313175 0.7801851
vt 0.7150081 0.8174291
vt 0.8188616 0.860403
vt 0.8611192 0.85538936
vt 0.81313175 0.7801851
vt 0.8188616 0.860403
vt 0.81313175 0.7801851
vt 0.8611192 0.85538936
vt 0.928445 0.8339025
vt 0.89478207 0.7422249
vt 0.81313175 0.7801851
vt 0.928445 0.8339025
vt 0.8632679 0.6748991
vt 0.81313175 0.7801851
vt 0.89478207 0.7422249
vt 0.81313175 0.7801851
vt 0.79021233 0.6978185
vt 0.72360283 0.73792744
vt 0.8632679 0.6748991
vt 0.82674015 0.6863588
vt 0.79021233 0.6978185
vt 0.81313175 0.7801851
vt 0.928445 0.8339025
vt 0.8611192 0.85538936
vt 0.88117373 0.90982294
vt 0.9699864 0.8467946
vt 0.88117373 0.90982294
vt 0.8611192 0.85538936
vt 0.8188616 0.860403
vt 0.82244277 0.993622
vt 0.82244277 0.993622
vt 0.8188616 0.860403
vt 0.7787526 0.86756533
vt 0.74652225 0.9821623
vt 0.7150081 0.8174291
vt 0.64338493 0.83175373
vt 0.64338493 0.83175373
vt 0.7150081 0.8174291
vt 0.72360283 0.73792744
vt 0.6655881 0.69423735
vt 0.79021233 0.6978185
vt 0.7751715 0.62762785
vt 0.6655881 0.69423735
vt 0.72360283 0.73792744
vt 0.8847549 0.63908756
vt 0.8303213 0.6333577
vt 0.82674015 0.6863588
vt 0.8632679 0.6748991
vt 0.8847549 0.63908756
vt 0.8632679 0.6748991
vt 0.89478207 0.7422249
vt 0.96067536 0.67776406
vt 0.96067536 0.67776406
vt 0.89478207 0.7422249
vt 0.928445 0.8339025
vt 0.9699864 0.8467946
vt 0.8303213 0.6333577
vt 0.7751715 0.62762785
vt 0.79021233 0.6978185
vt 0.82674015 0.6863588
vn 0.022593029 0.9997447 -0
vn 0.022593029 0.9997447 -0
vn 0.022593029 0.9997447 -0
vn -0.030986384 0.9955095 0.08944648
vn -0.030986384 0.9955095 0.08944648
vn -0.030986384 0.9955095 0.08944648
vn 0.009202078 0.9955095 0.09421329
vn 0.13869824 0.9865787 0.08616988
vn 0.13869824 0.9865787 0.08616988
vn 0.13869824 0.9865787 0.08616988
vn 0.00027130544 0.99997485 -0.0070884917
vn 0.00027130544 0.99997485 -0.0070884917
vn 0.00027130544 0.99997485 -0.0070884917
vn -0.030986384 0.9955095 -0.08944648
vn -0.030986384 0.9955095 -0.08944648
vn -0.030986384 0.9955095 -0.08944648
vn -0.04879098 0.99880904 -0
vn -0.04879098 0.99880904 -0
vn -0.04879098 0.99880904 -0
vn 0.058223836 0.99830353 -0
vn 0.058223836 0.99830353 -0
vn 0.058223836 0.99830353 -0
vn -0.022050804 0.9997569 -0
vn -0.022050804 0.9997569 -0
vn -0.022050804 0.9997569 -0
vn -0.022050804 0.9997569 -0
vn -0.084571004 0.99104416 0.10334014
vn -0.084571004 0.99104416 0.10334014
vn -0.084571004 0.99104416 0.10334014
vn -0.084571004 0.99104416 0.10334014
vn 0.058223836 0.99830353 -0
vn 0.058223836 0.99830353 -0
vn 0.058223836 0.99830353 -0
vn 0.058223836 0.99830353 -0
vn 0.0047366917 0.99997485 -0.0052815694
vn 0.0047366917 0.99997485 -0.0052815694
vn 0.0047366917 0.99997485 -0.0052815694
vn 0.0047366917 0.99997485 -0.0052815694
vn 0.013666532 0.99990666 -0
vn 0.013666532 0.99990666 -0
vn 0.022593029 0.9997447 -0
vn 0.022593029 0.9997447 -0
vn 0.022593029 0.9997447 -0
vn 0.022593029 0.9997447 -0
vn -0.0131248385 0.9955095 0.09374746
vn -0.0131248385 0.9955095 0.09374746
vn -0.0131248385 0.9955095 0.09374746
vn -0.0131248385 0.9955095 0.09374746
vn -0.013124039 0.99991393 -0
vn -0.013124039 0.99991393 -0
vn -0.013124039 0.99991393 -0
vn -0.013124039 0.99991393 -0
vn 0.013666532 0.99990666 -0
vn 0.013666532 0.99990666 -0
vn 0.013666532 0.99990666 -0
vn 0.013666532 0.99990666 -0
vn -0.0621254 0.99806833 -0
vn -0.0621254 0.99806833 -0
vn -0.0621254 0.99806833 -0
vn -0.0621254 0.99806833 -0
vn -0.008659361 0.99996257 -0
vn -0.008659361 0.99996257 -0
vn -0.008659361 0.99996257 -0
vn -0.008659361 0.99996257 -0
g demonCaveLava_0
f 3/3/3 2/2/2 1/1/1
f 6/6/6 5/5/5 4/4/4
f 4/4/4 5/5/5 7/7/7
f 10/10/10 9/9/9 8/8/8
f 13/13/13 12/12/12 11/11/11
f 16/16/16 15/15/15 14/14/14
f 19/19/19 18/18/18 17/17/17
f 22/22/22 21/21/21 20/20/20
f 25/25/25 24/24/24 23/23/23
f 26/26/26 25/25/25 23/23/23
f 29/29/29 28/28/28 27/27/27
f 30/30/30 29/29/29 27/27/27
f 33/33/33 32/32/32 31/31/31
f 34/34/34 33/33/33 31/31/31
f 37/37/37 36/36/36 35/35/35
f 38/38/38 37/37/37 35/35/35
f 39/39/39 37/37/37 38/38/38
f 40/40/40 39/39/39 38/38/38
f 43/43/43 42/42/42 41/41/41
f 44/44/44 43/43/43 41/41/41
f 47/47/47 46/46/46 45/45/45
f 48/48/48 47/47/47 45/45/45
f 51/51/51 50/50/50 49/49/49
f 52/52/52 51/51/51 49/49/49
f 55/55/55 54/54/54 53/53/53
f 56/56/56 55/55/55 53/53/53
f 59/59/59 58/58/58 57/57/57
f 60/60/60 59/59/59 57/57/57
f 63/63/63 62/62/62 61/61/61
f 64/64/64 63/63/63 61/61/61
