g fx_hexagonMesh
v 0.14875616 -2.6189442E-09 -0.2576544
v 5.1365023E-09 -2.6189442E-09 -6.053338E-07
v -0.14875601 -2.6189442E-09 -0.2576544
v -0.2975122 -2.6189442E-09 -6.053338E-07
v -0.14875609 -2.6189442E-09 0.2576532
v 0.14875609 -2.6189442E-09 0.2576532
v 0.29751217 -2.6189442E-09 -6.053338E-07
vt 0.578125 0.9790665
vt 0.5 0.8375
vt 0.421875 0.9790665
vt 0.34375 0.84375
vt 0.42187503 0.7084335
vt 0.57812506 0.7084335
vt 0.65625 0.84375
vn -0 1 0
vn -0 1 0
vn -0 1 0
vn -0 1 0
vn -0 1 0
vn -0 1 0
vn -0 1 0
g fx_hexagonMesh_0
f 3/3/3 2/2/2 1/1/1
f 4/4/4 2/2/2 3/3/3
f 5/5/5 2/2/2 4/4/4
f 6/6/6 2/2/2 5/5/5
f 7/7/7 2/2/2 6/6/6
f 1/1/1 2/2/2 7/7/7
