g fxmeshCoin
v 0.04374832 -0.00793272 -0.04374832
v 0.04374832 0.00793272 -0.04374832
v -0 0.00793272 -0.06186947
v -0 -0.00793272 -0.06186947
v -0 -0.00793272 -0.06186947
v -0 0.00793272 -0.06186947
v -0.04374832 0.00793272 -0.04374832
v -0.04374832 -0.00793272 -0.04374832
v -0.04374832 -0.00793272 -0.04374832
v -0.04374832 0.00793272 -0.04374832
v -0.06186947 0.00793272 0
v -0.06186947 -0.00793272 0
v -0.06186947 -0.00793272 0
v -0.06186947 0.00793272 0
v -0.04374832 0.00793272 0.04374832
v -0.04374832 -0.00793272 0.04374832
v -0.04374832 -0.00793272 0.04374832
v -0.04374832 0.00793272 0.04374832
v -0 0.00793272 0.06186947
v -0 -0.00793272 0.06186947
v -0 -0.00793272 0.06186947
v -0 0.00793272 0.06186947
v 0.04374832 0.00793272 0.04374832
v 0.04374832 -0.00793272 0.04374832
v 0.04374832 -0.00793272 0.04374832
v 0.04374832 0.00793272 0.04374832
v 0.06186947 0.00793272 0
v 0.06186947 -0.00793272 0
v 0.06186947 -0.00793272 0
v 0.06186947 0.00793272 0
v 0.04374832 0.00793272 -0.04374832
v 0.04374832 -0.00793272 -0.04374832
v -0 -0.00793272 -0.06186947
v -0 -0.00793272 0
v 0.04374832 -0.00793272 -0.04374832
v -0.04374832 -0.00793272 -0.04374832
v -0.06186947 -0.00793272 0
v -0.04374832 -0.00793272 0.04374832
v -0 -0.00793272 0.06186947
v 0.04374832 -0.00793272 0.04374832
v 0.06186947 -0.00793272 0
v 0.04374832 0.00793272 -0.04374832
v -0 0.00793272 0
v -0 0.00793272 -0.06186947
v -0.04374832 0.00793272 -0.04374832
v -0.06186947 0.00793272 0
v -0.04374832 0.00793272 0.04374832
v -0 0.00793272 0.06186947
v 0.04374832 0.00793272 0.04374832
v 0.06186947 0.00793272 0
vt 0.8452304 0.983073
vt 0.9656074 0.9830729
vt 0.9656074 0.86199296
vt 0.84523034 0.86199296
vt 0.84523034 0.86199296
vt 0.9656074 0.86199296
vt 0.96560735 0.7409127
vt 0.8452304 0.7409127
vt 0.8452304 0.7409127
vt 0.96560735 0.7409127
vt 0.9656074 0.61983275
vt 0.84523034 0.61983275
vt 0.84523034 0.61983275
vt 0.9656074 0.61983275
vt 0.96560735 0.4987525
vt 0.8452304 0.4987525
vt 0.8452304 0.4987525
vt 0.96560735 0.4987525
vt 0.9656074 0.37767226
vt 0.84523034 0.3776723
vt 0.84523034 0.3776723
vt 0.9656074 0.37767226
vt 0.96560735 0.25659236
vt 0.8452304 0.2565922
vt 0.8452304 0.2565922
vt 0.96560735 0.25659236
vt 0.9656074 0.13551196
vt 0.84523034 0.13551211
vt 0.84523034 0.13551211
vt 0.9656074 0.13551196
vt 0.9656074 0.014432137
vt 0.84523034 0.014432137
vt 0.27543908 0.008749098
vt 0.27543908 0.25809565
vt 0.45910007 0.084824026
vt 0.09177798 0.084824026
vt 0.015703082 0.26848507
vt 0.09177798 0.45214614
vt 0.27543908 0.528221
vt 0.45910007 0.45214614
vt 0.53517497 0.26848507
vt 0.6597325 0.91227186
vt 0.47607142 0.7182213
vt 0.47607142 0.9883468
vt 0.29241043 0.91227186
vt 0.21633552 0.7286109
vt 0.29241043 0.54494977
vt 0.47607142 0.4688749
vt 0.6597325 0.54494977
vt 0.7358074 0.7286109
vn 0.38268337 0 -0.9238795
vn 0.38268337 0 -0.9238795
vn 0.38268337 0 -0.9238795
vn 0.38268337 0 -0.9238795
vn -0.38268337 0 -0.9238795
vn -0.38268337 0 -0.9238795
vn -0.38268337 0 -0.9238795
vn -0.38268337 0 -0.9238795
vn -0.9238795 0 -0.38268337
vn -0.9238795 0 -0.38268337
vn -0.9238795 0 -0.38268337
vn -0.9238795 0 -0.38268337
vn -0.9238795 0 0.38268337
vn -0.9238795 0 0.38268337
vn -0.9238795 0 0.38268337
vn -0.9238795 0 0.38268337
vn -0.38268337 0 0.9238795
vn -0.38268337 0 0.9238795
vn -0.38268337 0 0.9238795
vn -0.38268337 0 0.9238795
vn 0.38268337 0 0.9238795
vn 0.38268337 0 0.9238795
vn 0.38268337 0 0.9238795
vn 0.38268337 0 0.9238795
vn 0.9238795 0 0.38268337
vn 0.9238795 0 0.38268337
vn 0.9238795 0 0.38268337
vn 0.9238795 0 0.38268337
vn 0.9238795 0 -0.38268337
vn 0.9238795 0 -0.38268337
vn 0.9238795 0 -0.38268337
vn 0.9238795 0 -0.38268337
vn -0 -1 0
vn -0 -1 0
vn -0 -1 0
vn -0 -1 0
vn -0 -1 0
vn -0 -1 0
vn -0 -1 0
vn -0 -1 0
vn -0 -1 0
vn -0 1 0
vn -0 1 0
vn -0 1 0
vn -0 1 0
vn -0 1 0
vn -0 1 0
vn -0 1 0
vn -0 1 0
vn -0 1 0
g fxmeshCoin_0
f 3/3/3 2/2/2 1/1/1
f 4/4/4 3/3/3 1/1/1
f 7/7/7 6/6/6 5/5/5
f 8/8/8 7/7/7 5/5/5
f 11/11/11 10/10/10 9/9/9
f 12/12/12 11/11/11 9/9/9
f 15/15/15 14/14/14 13/13/13
f 16/16/16 15/15/15 13/13/13
f 19/19/19 18/18/18 17/17/17
f 20/20/20 19/19/19 17/17/17
f 23/23/23 22/22/22 21/21/21
f 24/24/24 23/23/23 21/21/21
f 27/27/27 26/26/26 25/25/25
f 28/28/28 27/27/27 25/25/25
f 31/31/31 30/30/30 29/29/29
f 32/32/32 31/31/31 29/29/29
f 35/35/35 34/34/34 33/33/33
f 33/33/33 34/34/34 36/36/36
f 36/36/36 34/34/34 37/37/37
f 37/37/37 34/34/34 38/38/38
f 38/38/38 34/34/34 39/39/39
f 39/39/39 34/34/34 40/40/40
f 40/40/40 34/34/34 41/41/41
f 41/41/41 34/34/34 35/35/35
f 44/44/44 43/43/43 42/42/42
f 45/45/45 43/43/43 44/44/44
f 46/46/46 43/43/43 45/45/45
f 47/47/47 43/43/43 46/46/46
f 48/48/48 43/43/43 47/47/47
f 49/49/49 43/43/43 48/48/48
f 50/50/50 43/43/43 49/49/49
f 42/42/42 43/43/43 50/50/50
