g harazuelDio_stairsBlocker
v 9.809594 -0.5222912 -4.063555
v 9.809594 8.831804 -4.063555
v 7.5082684 8.831804 -7.5082684
v 7.5082684 -0.5222912 -7.5082684
v 4.063555 8.831804 -9.809594
v 4.063555 -0.5222912 -9.809594
v 4.063555 21.608791 -9.809594
v -0.0001373291 21.608791 -10.6177025
v -0.0001373291 8.831804 -10.6177025
v -4.0631676 21.608791 -9.809594
v -4.0631676 8.831804 -9.809594
v -7.507881 21.608791 -7.5082684
v -7.507881 8.831804 -7.5082684
v -4.0631676 -0.5222912 -9.809594
v -7.507881 -0.5222912 -7.5082684
v -9.809868 8.831804 -4.063555
v -9.809868 -0.5222912 -4.063555
v -10.617977 8.831804 0.0001373291
v -10.617977 -0.5222912 0.0001373291
v -9.809868 8.831804 4.0631676
v -9.809868 -0.5222912 4.0631676
v -7.507881 8.831804 7.507881
v -7.507881 -0.5222912 7.507881
v -4.0631676 8.831804 9.809868
v -4.0631676 -0.5222912 9.809868
v -4.0631676 21.608791 9.809868
v -0.0001373291 21.608791 10.617977
v -0.0001373291 8.831804 10.617977
v -7.507881 21.608791 7.507881
v -9.809868 21.608791 4.0631676
v -10.617977 21.608791 0.0001373291
v -9.809868 21.608791 -4.063555
v 4.063555 21.608791 9.809868
v 4.063555 8.831804 9.809868
v 7.5082684 21.608791 7.507881
v 7.5082684 8.831804 7.507881
v 4.063555 -0.5222912 9.809868
v 7.5082684 -0.5222912 7.507881
v 9.809594 8.831804 4.0631676
v 9.809594 -0.5222912 4.0631676
v 10.6177025 8.831804 0.0001373291
v 10.6177025 -0.5222912 0.0001373291
v 9.809594 8.831804 -4.063555
v 9.809594 -0.5222912 -4.063555
v 9.809594 21.608791 -4.063555
v 10.6177025 21.608791 0.0001373291
v 9.809594 21.608791 4.0631676
v 7.5082684 -0.5222912 -7.5082684
v -0.0001373291 -0.5222912 0.0001373291
v 9.809594 -0.5222912 -4.063555
v 4.063555 -0.5222912 -9.809594
v -0.0001373291 -0.5222912 -10.6177025
v -4.0631676 -0.5222912 -9.809594
v -7.507881 -0.5222912 -7.5082684
v -9.809868 -0.5222912 -4.063555
v -10.617977 -0.5222912 0.0001373291
v -9.809868 -0.5222912 4.0631676
v -7.507881 -0.5222912 7.507881
v -4.0631676 -0.5222912 9.809868
v -0.0001373291 -0.5222912 10.617977
v 4.063555 -0.5222912 9.809868
v 7.5082684 -0.5222912 7.507881
v 9.809594 -0.5222912 4.0631676
v 10.6177025 -0.5222912 0.0001373291
v 9.809594 21.608791 -4.063555
v -0.0001373291 21.608791 0.0001373291
v 7.5082684 21.608791 -7.5082684
v 4.063555 21.608791 -9.809594
v -0.0001373291 21.608791 -10.6177025
v -4.0631676 21.608791 -9.809594
v -7.507881 21.608791 -7.5082684
v -9.809868 21.608791 -4.063555
v -10.617977 21.608791 0.0001373291
v -9.809868 21.608791 4.0631676
v -7.507881 21.608791 7.507881
v -4.0631676 21.608791 9.809868
v -0.0001373291 21.608791 10.617977
v 4.063555 21.608791 9.809868
v 7.5082684 21.608791 7.507881
v 9.809594 21.608791 4.0631676
v 10.6177025 21.608791 0.0001373291
v 7.5082684 21.608791 -7.5082684
v 9.809594 21.608791 -4.063555
v -4.0631676 -0.5222912 9.809868
v -4.0631676 -0.5222912 17.00151
v -0.0001373291 -0.5222912 17.00151
v -0.0001373291 -0.5222912 10.617977
v -0.0001373291 -0.5222912 10.617977
v -0.0001373291 -0.5222912 17.00151
v 4.063555 -0.5222912 17.00151
v 4.063555 -0.5222912 9.809868
v -4.0631676 8.831804 9.809868
v -4.0631676 8.831804 17.00151
v -4.0631676 -0.5222912 17.00151
v -4.0631676 -0.5222912 9.809868
v 4.063555 -0.5222912 9.809868
v 4.063555 -0.5222912 17.00151
v 4.063555 8.831804 17.00151
v 4.063555 8.831804 9.809868
v -0.0001373291 8.831804 10.617977
v -0.0001373291 8.831804 17.00151
v -4.0631676 8.831804 17.00151
v -4.0631676 8.831804 9.809868
v 4.063555 8.831804 9.809868
v 4.063555 8.831804 17.00151
v -0.0001373291 8.831804 17.00151
v -0.0001373291 8.831804 10.617977
v 4.063555 -0.5222912 -9.809594
v 2.9003277 1.3829155 -16.195772
v -0.74938965 1.3829155 -14.408938
v -0.0001373291 -0.5222912 -10.6177025
v -0.0001373291 -0.5222912 -10.6177025
v -0.74938965 1.3829155 -14.408938
v -4.398445 1.3829155 -12.622105
v -4.0631676 -0.5222912 -9.809594
v 4.063555 8.831804 -9.809594
v 2.9003277 10.736351 -16.195772
v 2.9003277 1.3829155 -16.195772
v 4.063555 -0.5222912 -9.809594
v -4.0631676 -0.5222912 -9.809594
v -4.398445 1.3829155 -12.622105
v -4.398445 10.736351 -12.622105
v -4.0631676 8.831804 -9.809594
v -4.0631676 8.831804 -9.809594
v -4.398445 10.736351 -12.622105
v -0.74938965 10.736351 -14.408938
v -0.0001373291 8.831804 -10.6177025
v -0.0001373291 8.831804 -10.6177025
v -0.74938965 10.736351 -14.408938
v 2.9003277 10.736351 -16.195772
v 4.063555 8.831804 -9.809594
v 2.9003277 1.3829155 -16.195772
v -0.4570961 4.011585 -21.729534
v -3.519577 4.011585 -19.059202
v -0.74938965 1.3829155 -14.408938
v -0.74938965 1.3829155 -14.408938
v -3.519577 4.011585 -19.059202
v -6.5827217 4.011585 -16.388872
v -4.398445 1.3829155 -12.622105
v 2.9003277 10.736351 -16.195772
v -0.4570961 13.365017 -21.729534
v -0.4570961 4.011585 -21.729534
v 2.9003277 1.3829155 -16.195772
v -4.398445 1.3829155 -12.622105
v -6.5827217 4.011585 -16.388872
v -6.5827217 13.365017 -16.388872
v -4.398445 10.736351 -12.622105
v -4.398445 10.736351 -12.622105
v -6.5827217 13.365017 -16.388872
v -3.519577 13.365017 -19.059202
v -0.74938965 10.736351 -14.408938
v -0.74938965 10.736351 -14.408938
v -3.519577 13.365017 -19.059202
v -0.4570961 13.365017 -21.729534
v 2.9003277 10.736351 -16.195772
vt 0.37536657 0.31280547
vt 0.37536657 0.47116324
vt 0.39100686 0.47116324
vt 0.39100686 0.31280547
vt 0.40664712 0.47116324
vt 0.40664712 0.31280547
vt 0.40664712 0.68817204
vt 0.4222874 0.68817204
vt 0.4222874 0.47116324
vt 0.43792766 0.68817204
vt 0.43792766 0.47116324
vt 0.45356795 0.68817204
vt 0.45356795 0.47116324
vt 0.43792766 0.31280547
vt 0.45356795 0.31280547
vt 0.4692082 0.47116324
vt 0.4692082 0.31280547
vt 0.4848485 0.47116324
vt 0.4848485 0.31280547
vt 0.50048876 0.47116324
vt 0.50048876 0.31280547
vt 0.5151515 0.47116324
vt 0.5151515 0.31280547
vt 0.53079176 0.47116324
vt 0.53079176 0.31280547
vt 0.53079176 0.68817204
vt 0.5464321 0.68817204
vt 0.5464321 0.47116324
vt 0.5151515 0.68817204
vt 0.50048876 0.68817204
vt 0.4848485 0.68817204
vt 0.4692082 0.68817204
vt 0.56207234 0.68817204
vt 0.56207234 0.47116324
vt 0.5777126 0.68817204
vt 0.5777126 0.47116324
vt 0.56207234 0.31280547
vt 0.5777126 0.31280547
vt 0.59335285 0.47116324
vt 0.59335285 0.31280547
vt 0.6089932 0.47116324
vt 0.6089932 0.31280547
vt 0.62463343 0.47116324
vt 0.62463343 0.31280547
vt 0.62463343 0.68817204
vt 0.6089932 0.68817204
vt 0.59335285 0.68817204
vt 0.6109482 0.045943305
vt 0.50048876 0.14956012
vt 0.64418375 0.09677419
vt 0.5601173 0.011730205
vt 0.50048876 0
vt 0.4398827 0.011730205
vt 0.3890518 0.045943305
vt 0.35581622 0.09677419
vt 0.34408602 0.15640274
vt 0.35581622 0.21603128
vt 0.3890518 0.26686218
vt 0.4398827 0.30107528
vt 0.49951124 0.31280547
vt 0.5601173 0.30107528
vt 0.6109482 0.26686218
vt 0.64418375 0.21603128
vt 0.65591395 0.15640274
vt 0.64418375 0.9032258
vt 0.50048876 0.83773214
vt 0.6109482 0.9540567
vt 0.5601173 0.9882698
vt 0.49951124 1
vt 0.4398827 0.9882698
vt 0.3890518 0.9540567
vt 0.35581622 0.9032258
vt 0.34408602 0.84359723
vt 0.35581622 0.78396875
vt 0.3890518 0.73313785
vt 0.4398827 0.6989247
vt 0.50048876 0.6871945
vt 0.5601173 0.6989247
vt 0.6109482 0.73313785
vt 0.64418375 0.78396875
vt 0.65591395 0.84359723
vt 0.39100686 0.68817204
vt 0.37536657 0.68817204
vt 0 0
vt 0 1
vt 1 1
vt 1 0
vt 0 0
vt 0 1
vt 1 1
vt 1 0
vt 0 0
vt 0 1
vt 1 1
vt 1 0
vt 0 0
vt 0 1
vt 1 1
vt 1 0
vt 0 0
vt 0 1
vt 1 1
vt 1 0
vt 0 0
vt 0 1
vt 1 1
vt 1 0
vt 0 0
vt 0 1
vt 1 1
vt 1 0
vt 0 0
vt 0 1
vt 1 1
vt 1 0
vt 0 0
vt 0 1
vt 1 1
vt 1 0
vt 0 0
vt 0 1
vt 1 1
vt 1 0
vt 0 0
vt 0 1
vt 1 1
vt 1 0
vt 0 0
vt 0 1
vt 1 1
vt 1 0
vt 0 0
vt 0 1
vt 1 1
vt 1 0
vt 0 0
vt 0 1
vt 1 1
vt 1 0
vt 0 0
vt 0 1
vt 1 1
vt 1 0
vt 0 0
vt 0 1
vt 1 1
vt 1 0
vt 0 0
vt 0 1
vt 1 1
vt 1 0
vt 0 0
vt 0 1
vt 1 1
vt 1 0
vn 0.9215616 0.003921509 -0.38821238
vn 0.9215616 0.003921509 -0.38821238
vn 0.7097985 0.003921509 -0.70439386
vn 0.7097985 0.003921509 -0.70439386
vn 0.42744774 0.003921509 -0.9040315
vn 0.552937 0.003921509 -0.83321387
vn 0.38038927 0.003921509 -0.92481816
vn 0.0039215684 0.003921509 -0.9999846
vn 0.0039215684 0.003921509 -0.9999846
vn -0.3803892 0.003921509 -0.9248182
vn -0.42744768 0.003921509 -0.9040316
vn -0.70979846 0.003921509 -0.7043939
vn -0.70979846 0.003921509 -0.7043939
vn -0.5529369 0.003921509 -0.8332139
vn -0.70979846 0.003921509 -0.7043939
vn -0.9215615 0.003921509 -0.38821262
vn -0.9215615 0.003921509 -0.38821262
vn -0.99999225 0.003921509 -0.00034492963
vn -0.99999225 0.003921509 -0.00034492963
vn -0.9215615 0.003921509 0.38821262
vn -0.9215615 0.003921509 0.38821262
vn -0.70979846 0.003921509 0.7043939
vn -0.70979846 0.003921509 0.7043939
vn -0.42744768 0.003921509 0.9040316
vn -0.5529369 0.003921509 0.8332139
vn -0.3803892 0.003921509 0.9248182
vn -0.003921509 0.003921509 0.9999846
vn -0.003921509 0.003921509 0.9999846
vn -0.70979846 0.003921509 0.7043939
vn -0.9215615 0.003921509 0.38821262
vn -0.99999225 0.003921509 -0.00034492963
vn -0.9215615 0.003921509 -0.38821262
vn 0.38038927 0.003921509 0.92481816
vn 0.42744774 0.003921509 0.9040315
vn 0.7097985 0.003921509 0.70439386
vn 0.7097985 0.003921509 0.70439386
vn 0.552937 0.003921509 0.83321387
vn 0.7097985 0.003921509 0.70439386
vn 0.9215616 0.003921509 0.38821238
vn 0.9215616 0.003921509 0.38821238
vn 0.9999924 0.003921509 -0
vn 0.9999924 0.003921509 -0
vn 0.9215616 0.003921509 -0.38821238
vn 0.9215616 0.003921509 -0.38821238
vn 0.9215616 0.003921509 -0.38821238
vn 0.9999924 0.003921509 -0
vn 0.9215616 0.003921509 0.38821238
vn -0.003921509 -0.9999924 -0
vn -0.003921509 -0.9999924 -0
vn -0.003921509 -0.9999924 -0
vn -0.003921509 -0.9999924 -0
vn -0.003921509 -0.9999924 -0
vn -0.003921509 -0.9999924 -0
vn -0.003921509 -0.9999924 -0
vn -0.003921509 -0.9999924 -0
vn -0.003921509 -0.9999924 -0
vn -0.003921509 -0.9999924 -0
vn -0.003921509 -0.9999924 -0
vn -0.003921509 -0.9999924 -0
vn -0.003921509 -0.9999924 -0
vn -0.003921509 -0.9999924 -0
vn -0.003921509 -0.9999924 -0
vn -0.003921509 -0.9999924 -0
vn -0.003921509 -0.9999924 -0
vn -0.003921509 0.99999225 -0.00034526698
vn -0.003921509 0.99999225 -0.00034526698
vn -0.003921509 0.99999225 -0.00034526698
vn -0.003921509 0.99999225 -0.00034526698
vn -0.003921509 0.99999225 -0.00034526698
vn -0.003921509 0.99999225 -0.00034526698
vn -0.003921509 0.99999225 -0.00034526698
vn -0.003921509 0.99999225 -0.00034526698
vn -0.003921509 0.99999225 -0.00034526698
vn -0.003921509 0.99999225 -0.00034526698
vn -0.003921509 0.99999225 -0.00034526698
vn -0.003921509 0.99999225 -0.00034526698
vn -0.003921509 0.99999225 -0.00034526698
vn -0.003921509 0.99999225 -0.00034526698
vn -0.003921509 0.99999225 -0.00034526698
vn -0.003921509 0.99999225 -0.00034526698
vn -0.003921509 0.99999225 -0.00034526698
vn 0.7097985 0.003921509 -0.70439386
vn 0.9215616 0.003921509 -0.38821238
vn -0.003921509 -0.9999924 -0
vn -0.003921509 -0.9999924 -0
vn -0.003921509 -0.9999924 -0
vn -0.003921509 -0.9999924 -0
vn -0.003921509 -0.9999924 -0
vn -0.003921509 -0.9999924 -0
vn -0.003921509 -0.9999924 -0
vn -0.003921509 -0.9999924 -0
vn -0.99999225 0.003921509 -0.00034492963
vn -0.99999225 0.003921509 -0.00034492963
vn -0.99999225 0.003921509 -0.00034492963
vn -0.99999225 0.003921509 -0.00034492963
vn 0.9999924 0.003921509 -0
vn 0.9999924 0.003921509 -0
vn 0.9999924 0.003921509 -0
vn 0.9999924 0.003921509 -0
vn -0.003921509 0.99999225 -0.00034526698
vn -0.003921509 0.99999225 -0.00034526698
vn -0.003921509 0.99999225 -0.00034526698
vn -0.003921509 0.99999225 -0.00034526698
vn -0.003921509 0.99999225 -0.00034526698
vn -0.003921509 0.99999225 -0.00034526698
vn -0.003921509 0.99999225 -0.00034526698
vn -0.003921509 0.99999225 -0.00034526698
vn -0.043136835 -0.93724775 -0.34598535
vn -0.043136835 -0.93724775 -0.34598535
vn -0.043136835 -0.93724775 -0.34598535
vn -0.043136835 -0.93724775 -0.34598535
vn -0.16078305 -0.86666006 -0.4722808
vn -0.16078305 -0.86666006 -0.4722808
vn -0.16078305 -0.86666006 -0.4722808
vn -0.16078305 -0.86666006 -0.4722808
vn 0.9843062 0.003921509 -0.17642535
vn 0.9843062 0.003921509 -0.17642535
vn 0.9843062 0.003921509 -0.17642535
vn 0.9843062 0.003921509 -0.17642535
vn -0.99214923 0.003921509 0.12499809
vn -0.99214923 0.003921509 0.12499809
vn -0.99214923 0.003921509 0.12499809
vn -0.99214923 0.003921509 0.12499809
vn 0.16078311 0.86666 0.47228095
vn 0.16078311 0.86666 0.47228095
vn 0.16078311 0.86666 0.47228095
vn 0.16078311 0.86666 0.47228095
vn 0.043136954 0.93724763 0.34598568
vn 0.043136954 0.93724763 0.34598568
vn 0.043136954 0.93724763 0.34598568
vn 0.043136954 0.93724763 0.34598568
vn -0.22352767 -0.9137185 -0.33934325
vn -0.22352767 -0.9137185 -0.33934325
vn -0.22352767 -0.9137185 -0.33934325
vn -0.22352767 -0.9137185 -0.33934325
vn -0.262743 -0.8823462 -0.39042452
vn -0.262743 -0.8823462 -0.39042452
vn -0.262743 -0.8823462 -0.39042452
vn -0.262743 -0.8823462 -0.39042452
vn 0.858817 0.003921509 -0.51226753
vn 0.858817 0.003921509 -0.51226753
vn 0.858817 0.003921509 -0.51226753
vn 0.858817 0.003921509 -0.51226753
vn -0.86666 0.003921509 0.49888384
vn -0.86666 0.003921509 0.49888384
vn -0.86666 0.003921509 0.49888384
vn -0.86666 0.003921509 0.49888384
vn 0.26274312 0.88234615 0.3904246
vn 0.26274312 0.88234615 0.3904246
vn 0.26274312 0.88234615 0.3904246
vn 0.26274312 0.88234615 0.3904246
vn 0.22352773 0.91371846 0.33934334
vn 0.22352773 0.91371846 0.33934334
vn 0.22352773 0.91371846 0.33934334
vn 0.22352773 0.91371846 0.33934334
g harazuelDio_stairsBlocker_0
f 3/3/3 2/2/2 1/1/1
f 4/4/4 3/3/3 1/1/1
f 5/5/5 3/3/3 4/4/4
f 6/6/6 5/5/5 4/4/4
f 5/5/5 7/7/7 3/3/3
f 8/8/8 7/7/7 5/5/5
f 9/9/9 8/8/8 5/5/5
f 10/10/10 8/8/8 9/9/9
f 11/11/11 10/10/10 9/9/9
f 12/12/12 10/10/10 11/11/11
f 13/13/13 12/12/12 11/11/11
f 13/13/13 11/11/11 14/14/14
f 15/15/15 13/13/13 14/14/14
f 16/16/16 13/13/13 15/15/15
f 17/17/17 16/16/16 15/15/15
f 18/18/18 16/16/16 17/17/17
f 19/19/19 18/18/18 17/17/17
f 20/20/20 18/18/18 19/19/19
f 21/21/21 20/20/20 19/19/19
f 22/22/22 20/20/20 21/21/21
f 23/23/23 22/22/22 21/21/21
f 24/24/24 22/22/22 23/23/23
f 25/25/25 24/24/24 23/23/23
f 24/24/24 26/26/26 22/22/22
f 27/27/27 26/26/26 24/24/24
f 28/28/28 27/27/27 24/24/24
f 26/26/26 29/29/29 22/22/22
f 22/22/22 29/29/29 20/20/20
f 29/29/29 30/30/30 20/20/20
f 20/20/20 30/30/30 18/18/18
f 30/30/30 31/31/31 18/18/18
f 18/18/18 31/31/31 16/16/16
f 31/31/31 32/32/32 16/16/16
f 33/33/33 27/27/27 28/28/28
f 34/34/34 33/33/33 28/28/28
f 35/35/35 33/33/33 34/34/34
f 36/36/36 35/35/35 34/34/34
f 36/36/36 34/34/34 37/37/37
f 38/38/38 36/36/36 37/37/37
f 39/39/39 36/36/36 38/38/38
f 40/40/40 39/39/39 38/38/38
f 41/41/41 39/39/39 40/40/40
f 42/42/42 41/41/41 40/40/40
f 43/43/43 41/41/41 42/42/42
f 44/44/44 43/43/43 42/42/42
f 43/43/43 45/45/45 41/41/41
f 45/45/45 46/46/46 41/41/41
f 41/41/41 46/46/46 39/39/39
f 46/46/46 47/47/47 39/39/39
f 47/47/47 35/35/35 36/36/36
f 39/39/39 47/47/47 36/36/36
f 32/32/32 12/12/12 13/13/13
f 16/16/16 32/32/32 13/13/13
f 50/50/50 49/49/49 48/48/48
f 48/48/48 49/49/49 51/51/51
f 51/51/51 49/49/49 52/52/52
f 52/52/52 49/49/49 53/53/53
f 53/53/53 49/49/49 54/54/54
f 54/54/54 49/49/49 55/55/55
f 55/55/55 49/49/49 56/56/56
f 56/56/56 49/49/49 57/57/57
f 57/57/57 49/49/49 58/58/58
f 58/58/58 49/49/49 59/59/59
f 59/59/59 49/49/49 60/60/60
f 60/60/60 49/49/49 61/61/61
f 61/61/61 49/49/49 62/62/62
f 62/62/62 49/49/49 63/63/63
f 63/63/63 49/49/49 64/64/64
f 64/64/64 49/49/49 50/50/50
f 67/67/67 66/66/66 65/65/65
f 68/68/68 66/66/66 67/67/67
f 69/69/69 66/66/66 68/68/68
f 70/70/70 66/66/66 69/69/69
f 71/71/71 66/66/66 70/70/70
f 72/72/72 66/66/66 71/71/71
f 73/73/73 66/66/66 72/72/72
f 74/74/74 66/66/66 73/73/73
f 75/75/75 66/66/66 74/74/74
f 76/76/76 66/66/66 75/75/75
f 77/77/77 66/66/66 76/76/76
f 78/78/78 66/66/66 77/77/77
f 79/79/79 66/66/66 78/78/78
f 80/80/80 66/66/66 79/79/79
f 81/81/81 66/66/66 80/80/80
f 65/65/65 66/66/66 81/81/81
f 7/7/7 82/82/82 3/3/3
f 3/3/3 82/82/82 2/2/2
f 82/82/82 83/83/83 2/2/2
f 86/86/86 85/85/85 84/84/84
f 87/87/87 86/86/86 84/84/84
f 90/90/90 89/89/89 88/88/88
f 91/91/91 90/90/90 88/88/88
f 94/94/94 93/93/93 92/92/92
f 95/95/95 94/94/94 92/92/92
f 98/98/98 97/97/97 96/96/96
f 99/99/99 98/98/98 96/96/96
f 102/102/102 101/101/101 100/100/100
f 103/103/103 102/102/102 100/100/100
f 106/106/106 105/105/105 104/104/104
f 107/107/107 106/106/106 104/104/104
f 110/110/110 109/109/109 108/108/108
f 111/111/111 110/110/110 108/108/108
f 114/114/114 113/113/113 112/112/112
f 115/115/115 114/114/114 112/112/112
f 118/118/118 117/117/117 116/116/116
f 119/119/119 118/118/118 116/116/116
f 122/122/122 121/121/121 120/120/120
f 123/123/123 122/122/122 120/120/120
f 126/126/126 125/125/125 124/124/124
f 127/127/127 126/126/126 124/124/124
f 130/130/130 129/129/129 128/128/128
f 131/131/131 130/130/130 128/128/128
f 134/134/134 133/133/133 132/132/132
f 135/135/135 134/134/134 132/132/132
f 138/138/138 137/137/137 136/136/136
f 139/139/139 138/138/138 136/136/136
f 142/142/142 141/141/141 140/140/140
f 143/143/143 142/142/142 140/140/140
f 146/146/146 145/145/145 144/144/144
f 147/147/147 146/146/146 144/144/144
f 150/150/150 149/149/149 148/148/148
f 151/151/151 150/150/150 148/148/148
f 154/154/154 153/153/153 152/152/152
f 155/155/155 154/154/154 152/152/152
