g harazuelPortalDioMain2
v 8.392334E-05 -0.0008735657 -34.000153
v 8.728325 -8.392334E-05 -36.063065
v 8.970184 -8.392334E-05 -33.99462
v 8.016186 -8.392334E-05 -38.02006
v 6.871704 -8.392334E-05 -39.7597
v 5.356533 -8.392334E-05 -41.18951
v 3.5528717 -8.392334E-05 -42.23045
v 1.5579338 -8.392334E-05 -42.827984
v -1.5577698 -8.392334E-05 -42.827984
v -3.5527077 -8.392334E-05 -42.23045
v -5.356369 -8.392334E-05 -41.18951
v -6.87154 -8.392334E-05 -39.7597
v -8.016022 -8.392334E-05 -38.02006
v -8.728161 -8.392334E-05 -36.063065
v -8.9700165 -8.392334E-05 -33.99462
v 8.728325 -8.392334E-05 -31.925388
v 8.016186 -8.392334E-05 -29.96839
v 6.871704 -8.392334E-05 -28.228748
v 5.356533 -8.392334E-05 -26.798939
v -8.728161 -8.392334E-05 -31.925388
v -8.016022 -8.392334E-05 -29.96839
v -6.87154 -8.392334E-05 -28.228748
v -5.356369 -8.392334E-05 -26.798939
v -3.5527077 -8.392334E-05 -25.758
v 3.5528717 -8.392334E-05 -25.758
v -1.8454704 -8.392334E-05 -26.100237
v -2.5576096 -8.392334E-05 -26.35237
v -0.4725685 -8.392334E-05 -26.16742
v -0.51129913 -8.392334E-05 -25.572258
v -1.7664337 -8.392334E-05 -25.572258
v 0.46957397 -8.392334E-05 -26.16742
v 0.51146317 -8.392334E-05 -25.572258
v 1.7373543 -8.392334E-05 -25.572258
v 1.8962212 -8.392334E-05 -26.10577
v -1.7514153 -8.392334E-05 -24.936787
v 8.392334E-05 -8.392334E-05 -24.936787
v 1.7515793 -8.392334E-05 -24.936787
v 2.6036148 -8.392334E-05 -26.361855
v -2.5576096 -8.392334E-05 -26.35237
v -3.5527077 -8.392334E-05 -25.758
v 8.392334E-05 -0.0008735657 -34.000153
v 3.5528717 -8.392334E-05 -25.758
v 2.6036148 -8.392334E-05 -26.361855
v 8.392334E-05 -0.0008735657 -34.000153
vt 0.98214984 0.54618263
vt 2.9506588 1.0126565
vt 3.0050159 0.54618263
vt 2.7898054 1.4536157
vt 2.531886 1.846319
vt 2.1902118 2.1685798
vt 1.7830873 2.403758
vt 1.3332531 2.5379872
vt 0.63049173 2.5379872
vt 0.18065774 2.403758
vt -0.22591221 2.1685798
vt -0.5675863 1.846319
vt -0.8260606 1.4536157
vt -0.986359 1.0126565
vt -1.0412709 0.54618263
vt 2.9506588 0.079153895
vt 2.7898054 -0.36180532
vt 2.531886 -0.7545087
vt 2.1902118 -1.0767695
vt -0.986359 0.079153895
vt -0.8260606 -0.36180532
vt -0.5675863 -0.7545087
vt -0.22591221 -1.0767695
vt 0.18065774 -1.3113931
vt 1.7830873 -1.3113931
vt 0.5578306 -1.2709025
vt 0.39364946 -1.2126626
vt 0.87343526 -1.2553718
vt 0.8645606 -1.3918196
vt 0.5755799 -1.3918196
vt 1.089755 -1.2553718
vt 1.0997388 -1.3918196
vt 1.3815091 -1.3918196
vt 1.418117 -1.2697932
vt 0.5789077 -1.5382514
vt 0.98214984 -1.5382514
vt 1.3848372 -1.5382514
vt 1.5806341 -1.210444
vt 0.39364946 -1.2126626
vt 0.18065774 -1.3113931
vt 0.98214984 0.54618263
vt 1.7830873 -1.3113931
vt 1.5806341 -1.210444
vt 0.98214984 0.54618263
vn 0.0001168846 0.99999994 0.00034526698
vn 0.0001168846 0.99999994 0.00034526698
vn 0.0001168846 0.99999994 0.00034526698
vn 0.0001168846 0.99999994 0.00034526698
vn 0.0001168846 0.99999994 0.00034526698
vn 0.0001168846 0.99999994 0.00034526698
vn 0.0001168846 0.99999994 0.00034526698
vn 0.0001168846 0.99999994 0.00034526698
vn 0.0001168846 0.99999994 0.00034526698
vn 0.0001168846 0.99999994 0.00034526698
vn 0.0001168846 0.99999994 0.00034526698
vn 0.0001168846 0.99999994 0.00034526698
vn 0.0001168846 0.99999994 0.00034526698
vn 0.0001168846 0.99999994 0.00034526698
vn 0.0001168846 0.99999994 -0.00034526698
vn 0.0001168846 0.99999994 -0.00034526698
vn 0.0001168846 0.99999994 -0.00034526698
vn 0.0001168846 0.99999994 -0.00034526698
vn 0.0001168846 0.99999994 -0.00034526698
vn 0.0001168846 0.99999994 -0.00034526698
vn 0.0001168846 0.99999994 -0.00034526698
vn 0.0001168846 0.99999994 -0.00034526698
vn 0.0001168846 0.99999994 -0.00034526698
vn 0.0001168846 0.99999994 -0.00034526698
vn 0.0001168846 0.99999994 -0.00034526698
vn 0.0001168846 0.99999994 -0.00034526698
vn 0.0001168846 0.99999994 -0.00034526698
vn 0.0001168846 0.99999994 -0.00034526698
vn 0.0001168846 0.99999994 -0.00034526698
vn 0.0001168846 0.99999994 -0.00034526698
vn 0.0001168846 0.99999994 -0.00034526698
vn 0.0001168846 0.99999994 -0.00034526698
vn 0.0001168846 0.99999994 -0.00034526698
vn 0.0001168846 0.99999994 -0.00034526698
vn 0.0001168846 0.99999994 0.00034526698
vn 0.0001168846 0.99999994 0.00034526698
vn 0.0001168846 0.99999994 0.00034526698
vn 0.0001168846 0.99999994 -0.00034526698
vn 0.0001168846 0.99999994 -0.00034526698
vn 0.0001168846 0.99999994 -0.00034526698
vn 0.0001168846 0.99999994 -0.00034526698
vn 0.0001168846 0.99999994 -0.00034526698
vn 0.0001168846 0.99999994 -0.00034526698
vn 0.0001168846 0.99999994 -0.00034526698
g harazuelPortalDioMain2_0
f 3/3/3 2/2/2 1/1/1
f 2/2/2 4/4/4 1/1/1
f 4/4/4 5/5/5 1/1/1
f 5/5/5 6/6/6 1/1/1
f 6/6/6 7/7/7 1/1/1
f 7/7/7 8/8/8 1/1/1
f 8/8/8 9/9/9 1/1/1
f 9/9/9 10/10/10 1/1/1
f 10/10/10 11/11/11 1/1/1
f 11/11/11 12/12/12 1/1/1
f 12/12/12 13/13/13 1/1/1
f 13/13/13 14/14/14 1/1/1
f 14/14/14 15/15/15 1/1/1
f 16/16/16 3/3/3 1/1/1
f 17/17/17 16/16/16 1/1/1
f 18/18/18 17/17/17 1/1/1
f 19/19/19 18/18/18 1/1/1
f 15/15/15 20/20/20 1/1/1
f 20/20/20 21/21/21 1/1/1
f 21/21/21 22/22/22 1/1/1
f 22/22/22 23/23/23 1/1/1
f 23/23/23 24/24/24 1/1/1
f 25/25/25 19/19/19 1/1/1
f 27/27/27 26/26/26 1/1/1
f 1/1/1 26/26/26 28/28/28
f 29/29/29 28/28/28 26/26/26
f 30/30/30 29/29/29 26/26/26
f 31/31/31 28/28/28 29/29/29
f 1/1/1 28/28/28 31/31/31
f 32/32/32 31/31/31 29/29/29
f 32/32/32 33/33/33 31/31/31
f 33/33/33 34/34/34 31/31/31
f 29/29/29 30/30/30 35/35/35
f 36/36/36 29/29/29 35/35/35
f 29/29/29 36/36/36 32/32/32
f 37/37/37 33/33/33 32/32/32
f 36/36/36 37/37/37 32/32/32
f 31/31/31 34/34/34 1/1/1
f 1/1/1 34/34/34 38/38/38
f 41/41/41 40/40/40 39/39/39
f 44/44/44 43/43/43 42/42/42
