g hexArctic02_ice
v -1.9256777 -0.13846228 -1.1890448
v -1.5500063 -0.05848466 -0.9154166
v -2.0472598 -0.15888065 -0.6576575
v -1.5500063 -0.05848466 -0.9154166
v -1.889026 -0.15386206 -0.21132264
v -2.0472598 -0.15888065 -0.6576575
v -2.3032413 -0.17406888 0.88504803
v -2.313373 -0.094113454 0.30339447
v -1.481769 -0.04523547 1.0923616
v -2.313373 -0.094113454 0.30339447
v -2.819202 -0.14345177 0.45024887
v -2.8051028 -0.17221567 -0.32139954
v -2.819202 -0.14345177 0.45024887
v -3.4245486 -0.038206846 0.6239244
v -3.207355 -0.11414933 -0.04209504
v -3.6941714 -0.040568247 -0.07734666
v -2.8051028 -0.17221567 -0.32139954
v -2.0472598 -0.15888065 -0.6576575
v -2.3430972 -0.08062172 -1.3094863
v -1.9256777 -0.13846228 -1.1890448
v -2.5453372 -0.16217414 -0.946144
v -3.0247378 -0.06332834 -1.0289649
v -2.6408877 -0.123813644 -1.5238723
v -3.0247378 -0.06332834 -1.0289649
v -2.9992862 -0.15333678 -1.5516394
v -2.6408877 -0.123813644 -1.5238723
v -3.6527286 -0.10588741 -1.0812835
v -3.6527286 -0.10588741 -1.0812835
v -3.541431 -0.13096836 -0.63383853
v -4.022907 -0.03604774 -0.7973746
v -3.541431 -0.13096836 -0.63383853
v -3.6941714 -0.040568247 -0.07734666
v -4.022907 -0.03604774 -0.7973746
v -3.6941714 -0.040568247 -0.07734666
v -3.7998233 -0.09348796 0.48528305
v -4.176563 -0.12943806 0.33871475
v -4.022907 -0.03604774 -0.7973746
v -3.4245486 -0.038206846 0.6239244
v -3.7998233 -0.09348796 0.48528305
v -4.263538 -0.13046902 0.8075944
v -4.176563 -0.12943806 0.33871475
v -4.337543 -0.15292013 1.3548318
v -3.4245486 -0.038206846 0.6239244
v -1.7183412 -0.15230599 3.0048487
v -2.2137942 -0.057741746 2.8748286
v -2.0528445 -0.12281525 2.2910426
v -2.2908206 -0.13160083 1.5544168
v -2.9275088 -0.17330651 1.3722802
v -2.3032413 -0.17406888 0.88504803
v -2.6419559 -0.10172579 2.010193
v -1.7672914 -0.10235347 1.469536
v -2.9275088 -0.17330651 1.3722802
v -3.5710635 -0.12583062 1.247368
v -3.1306643 -0.13473178 1.0503999
v -2.3032413 -0.17406888 0.88504803
v -1.2743715 -0.12575279 2.3832438
v -1.373279 -0.058848545 1.7630578
v -0.93934953 -0.1120884 2.1953776
v -0.49595964 -0.16470078 2.9064906
v -2.0528445 -0.12281525 2.2910426
v -2.7435489 -0.178085 2.6029246
v -2.6419559 -0.10172579 2.010193
v -0.93934953 -0.1120884 2.1953776
v -0.44755876 -0.116439715 2.4312556
v -2.2137942 -0.057741746 2.8748286
v -2.7435489 -0.178085 2.6029246
v -2.0528445 -0.12281525 2.2910426
v -1.5341982 -0.06576641 0.5043336
v -1.931537 -0.07438885 0.22427383
v -1.6024355 -0.17755096 -0.055515144
v -1.931537 -0.07438885 0.22427383
v -1.889026 -0.15386206 -0.21132264
v -1.6024355 -0.17755096 -0.055515144
v -1.7183412 -0.15230599 3.0048487
v -1.2175478 -0.09902403 2.7612345
v -1.2980226 -0.10363026 3.4867976
v -1.2175478 -0.09902403 2.7612345
v -0.87044084 -0.1740685 3.1296122
v -1.2980226 -0.10363026 3.4867976
v -1.0708193 -0.11347403 1.3704606
v -1.7672914 -0.10235347 1.469536
v -1.481769 -0.04523547 1.0923616
v -1.7672914 -0.10235347 1.469536
v -2.3032413 -0.17406888 0.88504803
v -1.481769 -0.04523547 1.0923616
v -2.0472598 -0.15888065 -0.6576575
v -1.889026 -0.15386206 -0.21132264
v -2.3424563 -0.1643467 -0.36261734
v -2.5453372 -0.16217414 -0.946144
v -2.8051028 -0.17221567 -0.32139954
v -1.889026 -0.15386206 -0.21132264
v -1.5500063 -0.05848466 -0.9154166
v -1.6024355 -0.17755096 -0.055515144
v -4.337543 -0.15292013 1.3548318
v -3.4245486 -0.038206846 0.6239244
v -3.5710635 -0.12583062 1.247368
v -3.4245486 -0.038206846 0.6239244
v -3.1306643 -0.13473178 1.0503999
v -3.5710635 -0.12583062 1.247368
v -2.819202 -0.14345177 0.45024887
v -2.313373 -0.094113454 0.30339447
v -2.3032413 -0.17406888 0.88504803
v -2.6408877 -0.123813644 -1.5238723
v -2.3430972 -0.08062172 -1.3094863
v -2.5453372 -0.16217414 -0.946144
v -2.3430972 -0.08062172 -1.3094863
v -2.0472598 -0.15888065 -0.6576575
v -2.5453372 -0.16217414 -0.946144
v -3.0247378 -0.06332834 -1.0289649
v -3.541431 -0.13096836 -0.63383853
v -3.6527286 -0.10588741 -1.0812835
v -2.8051028 -0.17221567 -0.32139954
v -3.0083194 -0.14944324 -0.7346152
v -2.5453372 -0.16217414 -0.946144
v -3.541431 -0.13096836 -0.63383853
v -3.0247378 -0.06332834 -1.0289649
v -2.5453372 -0.16217414 -0.946144
v -3.0083194 -0.14944324 -0.7346152
v -3.6941714 -0.040568247 -0.07734666
v -3.541431 -0.13096836 -0.63383853
v -3.207355 -0.11414933 -0.04209504
v -4.263538 -0.13046902 0.8075944
v -3.7998233 -0.09348796 0.48528305
v -3.4245486 -0.038206846 0.6239244
v -2.2137942 -0.057741746 2.8748286
v -1.7137331 -0.08032796 3.5282938
v -2.2047305 -0.14578478 3.4806178
v -1.2980226 -0.10363026 3.4867976
v -1.7137331 -0.08032796 3.5282938
v -1.7183412 -0.15230599 3.0048487
v -1.7137331 -0.08032796 3.5282938
v -2.2137942 -0.057741746 2.8748286
v -1.7183412 -0.15230599 3.0048487
v -4.337543 -0.15292013 1.3548318
v -3.5710635 -0.12583062 1.247368
v -3.7875857 -0.08140093 1.7787935
v -3.5710635 -0.12583062 1.247368
v -2.9275088 -0.17330651 1.3722802
v -3.7875857 -0.08140093 1.7787935
v -3.7875857 -0.08140093 1.7787935
v -2.9275088 -0.17330651 1.3722802
v -3.3748965 -0.07030374 2.0750163
v -2.6419559 -0.10172579 2.010193
v -2.0528445 -0.12281525 2.2910426
v -2.6419559 -0.10172579 2.010193
v -2.2908206 -0.13160083 1.5544168
v -2.6419559 -0.10172579 2.010193
v -2.7435489 -0.178085 2.6029246
v -3.3748965 -0.07030374 2.0750163
v -3.3752933 -0.118150696 2.536503
v -0.44755876 -0.116439715 2.4312556
v -0.93934953 -0.1120884 2.1953776
v -0.5910219 -0.16436334 1.7900316
v -2.0528445 -0.12281525 2.2910426
v -1.2743715 -0.12575279 2.3832438
v -1.2175478 -0.09902403 2.7612345
v -1.2175478 -0.09902403 2.7612345
v -1.2743715 -0.12575279 2.3832438
v -0.49595964 -0.16470078 2.9064906
v -3.3752933 -0.118150696 2.536503
v -2.7435489 -0.178085 2.6029246
v -3.3920474 -0.0738498 2.9622157
v -2.7435489 -0.178085 2.6029246
v -2.754108 -0.13852882 3.3489916
v -3.3920474 -0.0738498 2.9622157
v -2.2047305 -0.14578478 3.4806178
v -2.754108 -0.13852882 3.3489916
v -2.2137942 -0.057741746 2.8748286
v -2.754108 -0.13852882 3.3489916
v -2.7435489 -0.178085 2.6029246
v -2.2137942 -0.057741746 2.8748286
v -2.3424563 -0.1643467 -0.36261734
v -1.889026 -0.15386206 -0.21132264
v -2.313373 -0.094113454 0.30339447
v -2.8051028 -0.17221567 -0.32139954
v -1.889026 -0.15386206 -0.21132264
v -1.931537 -0.07438885 0.22427383
v -2.313373 -0.094113454 0.30339447
v -2.313373 -0.094113454 0.30339447
v -1.931537 -0.07438885 0.22427383
v -1.481769 -0.04523547 1.0923616
v -1.481769 -0.04523547 1.0923616
v -1.931537 -0.07438885 0.22427383
v -1.5341982 -0.06576641 0.5043336
v -0.87044084 -0.1740685 3.1296122
v -1.2175478 -0.09902403 2.7612345
v -0.49595964 -0.16470078 2.9064906
v -1.2175478 -0.09902403 2.7612345
v -1.7183412 -0.15230599 3.0048487
v -2.0528445 -0.12281525 2.2910426
v -0.93934953 -0.1120884 2.1953776
v -1.0708193 -0.11347403 1.3704606
v -0.5910219 -0.16436334 1.7900316
v -1.373279 -0.058848545 1.7630578
v -2.2908206 -0.13160083 1.5544168
v -1.7672914 -0.10235347 1.469536
v -2.0528445 -0.12281525 2.2910426
v -1.7672914 -0.10235347 1.469536
v -1.373279 -0.058848545 1.7630578
v -2.0528445 -0.12281525 2.2910426
v -1.373279 -0.058848545 1.7630578
v -1.7672914 -0.10235347 1.469536
v -1.0708193 -0.11347403 1.3704606
v -3.1306643 -0.13473178 1.0503999
v -2.819202 -0.14345177 0.45024887
v -2.3032413 -0.17406888 0.88504803
v -3.4245486 -0.038206846 0.6239244
v -2.819202 -0.14345177 0.45024887
v -3.1306643 -0.13473178 1.0503999
v -3.541431 -0.13096836 -0.63383853
v -2.8051028 -0.17221567 -0.32139954
v -3.207355 -0.11414933 -0.04209504
v -3.541431 -0.13096836 -0.63383853
v -3.0247378 -0.06332834 -1.0289649
v -3.0083194 -0.14944324 -0.7346152
vt 0.38507447 0.57637876
vt 0.4081569 0.5595662
vt 0.377604 0.5437286
vt 0.4081569 0.5595662
vt 0.38732648 0.51630455
vt 0.377604 0.5437286
vt 0.3618763 0.44894004
vt 0.36125404 0.48467857
vt 0.41234976 0.43620205
vt 0.36125404 0.48467857
vt 0.3301748 0.47565547
vt 0.33104125 0.52306795
vt 0.3301748 0.47565547
vt 0.29297996 0.4649843
vt 0.30632544 0.5059065
vt 0.2764129 0.50807256
vt 0.33104125 0.52306795
vt 0.377604 0.5437286
vt 0.35942715 0.5837789
vt 0.38507447 0.57637876
vt 0.34700233 0.5614542
vt 0.3175456 0.56654286
vt 0.34113085 0.5969515
vt 0.3175456 0.56654286
vt 0.3191102 0.5986576
vt 0.34113085 0.5969515
vt 0.27895975 0.5697576
vt 0.27895975 0.5697576
vt 0.2857989 0.542265
vt 0.25621557 0.55231327
vt 0.2857989 0.542265
vt 0.2764129 0.50807256
vt 0.25621557 0.55231327
vt 0.2764129 0.50807256
vt 0.26992285 0.47350276
vt 0.24677348 0.48250842
vt 0.25621557 0.55231327
vt 0.29297996 0.4649843
vt 0.26992285 0.47350276
vt 0.24143022 0.45369905
vt 0.24677348 0.48250842
vt 0.23688284 0.420075
vt 0.29297996 0.4649843
vt 0.39781404 0.31869307
vt 0.3673733 0.32668173
vt 0.37726215 0.36255145
vt 0.3626396 0.40781185
vt 0.32352015 0.41900307
vt 0.3618763 0.44894004
vt 0.34106576 0.37980762
vt 0.39480776 0.41302738
vt 0.32352015 0.41900307
vt 0.28397742 0.4266779
vt 0.31103742 0.4387803
vt 0.3618763 0.44894004
vt 0.42509294 0.3568862
vt 0.41901708 0.39499247
vt 0.44567916 0.36842942
vt 0.47292188 0.32473636
vt 0.37726215 0.36255145
vt 0.3348235 0.3433885
vt 0.34106576 0.37980762
vt 0.44567916 0.36842942
vt 0.47589558 0.35393623
vt 0.3673733 0.32668173
vt 0.3348235 0.3433885
vt 0.37726215 0.36255145
vt 0.40912825 0.4723322
vt 0.3847145 0.48954
vt 0.40493536 0.5067311
vt 0.3847145 0.48954
vt 0.38732648 0.51630455
vt 0.40493536 0.5067311
vt 0.39781404 0.31869307
vt 0.42858577 0.33366132
vt 0.42364043 0.28908056
vt 0.42858577 0.33366132
vt 0.44991183 0.31102705
vt 0.42364043 0.28908056
vt 0.43760094 0.41911477
vt 0.39480776 0.41302738
vt 0.41234976 0.43620205
vt 0.39480776 0.41302738
vt 0.3618763 0.44894004
vt 0.41234976 0.43620205
vt 0.377604 0.5437286
vt 0.38732648 0.51630455
vt 0.3594669 0.52560055
vt 0.34700233 0.5614542
vt 0.33104125 0.52306795
vt 0.38732648 0.51630455
vt 0.4081569 0.5595662
vt 0.40493536 0.5067311
vt 0.23688284 0.420075
vt 0.29297996 0.4649843
vt 0.28397742 0.4266779
vt 0.29297996 0.4649843
vt 0.31103742 0.4387803
vt 0.28397742 0.4266779
vt 0.3301748 0.47565547
vt 0.36125404 0.48467857
vt 0.3618763 0.44894004
vt 0.34113085 0.5969515
vt 0.35942715 0.5837789
vt 0.34700233 0.5614542
vt 0.35942715 0.5837789
vt 0.377604 0.5437286
vt 0.34700233 0.5614542
vt 0.3175456 0.56654286
vt 0.2857989 0.542265
vt 0.27895975 0.5697576
vt 0.33104125 0.52306795
vt 0.31855494 0.5484571
vt 0.34700233 0.5614542
vt 0.2857989 0.542265
vt 0.3175456 0.56654286
vt 0.34700233 0.5614542
vt 0.31855494 0.5484571
vt 0.2764129 0.50807256
vt 0.2857989 0.542265
vt 0.30632544 0.5059065
vt 0.24143022 0.45369905
vt 0.26992285 0.47350276
vt 0.29297996 0.4649843
vt 0.3673733 0.32668173
vt 0.39809802 0.2865308
vt 0.36792862 0.28946018
vt 0.42364043 0.28908056
vt 0.39809802 0.2865308
vt 0.39781404 0.31869307
vt 0.39809802 0.2865308
vt 0.3673733 0.32668173
vt 0.39781404 0.31869307
vt 0.23688284 0.420075
vt 0.28397742 0.4266779
vt 0.2706735 0.39402568
vt 0.28397742 0.4266779
vt 0.32352015 0.41900307
vt 0.2706735 0.39402568
vt 0.2706735 0.39402568
vt 0.32352015 0.41900307
vt 0.29603142 0.3758248
vt 0.34106576 0.37980762
vt 0.37726215 0.36255145
vt 0.34106576 0.37980762
vt 0.3626396 0.40781185
vt 0.34106576 0.37980762
vt 0.3348235 0.3433885
vt 0.29603142 0.3758248
vt 0.29600608 0.3474697
vt 0.47589558 0.35393623
vt 0.44567916 0.36842942
vt 0.4670812 0.39333516
vt 0.37726215 0.36255145
vt 0.42509294 0.3568862
vt 0.42858577 0.33366132
vt 0.42858577 0.33366132
vt 0.42509294 0.3568862
vt 0.47292188 0.32473636
vt 0.29600608 0.3474697
vt 0.3348235 0.3433885
vt 0.2949769 0.3213125
vt 0.3348235 0.3433885
vt 0.33417413 0.29754767
vt 0.2949769 0.3213125
vt 0.36792862 0.28946018
vt 0.33417413 0.29754767
vt 0.3673733 0.32668173
vt 0.33417413 0.29754767
vt 0.3348235 0.3433885
vt 0.3673733 0.32668173
vt 0.3594669 0.52560055
vt 0.38732648 0.51630455
vt 0.36125404 0.48467857
vt 0.33104125 0.52306795
vt 0.38732648 0.51630455
vt 0.3847145 0.48954
vt 0.36125404 0.48467857
vt 0.36125404 0.48467857
vt 0.3847145 0.48954
vt 0.41234976 0.43620205
vt 0.41234976 0.43620205
vt 0.3847145 0.48954
vt 0.40912825 0.4723322
vt 0.44991183 0.31102705
vt 0.42858577 0.33366132
vt 0.47292188 0.32473636
vt 0.42858577 0.33366132
vt 0.39781404 0.31869307
vt 0.37726215 0.36255145
vt 0.44567916 0.36842942
vt 0.43760094 0.41911477
vt 0.4670812 0.39333516
vt 0.41901708 0.39499247
vt 0.3626396 0.40781185
vt 0.39480776 0.41302738
vt 0.37726215 0.36255145
vt 0.39480776 0.41302738
vt 0.41901708 0.39499247
vt 0.37726215 0.36255145
vt 0.41901708 0.39499247
vt 0.39480776 0.41302738
vt 0.43760094 0.41911477
vt 0.31103742 0.4387803
vt 0.3301748 0.47565547
vt 0.3618763 0.44894004
vt 0.29297996 0.4649843
vt 0.3301748 0.47565547
vt 0.31103742 0.4387803
vt 0.2857989 0.542265
vt 0.33104125 0.52306795
vt 0.30632544 0.5059065
vt 0.2857989 0.542265
vt 0.3175456 0.56654286
vt 0.31855494 0.5484571
vn -0.2022116 0.97930384 -0.008634294
vn -0.20221162 0.97930384 -0.008634296
vn -0.2022116 0.97930384 -0.008634295
vn -0.17264232 0.9837075 0.050143067
vn -0.17264235 0.9837075 0.05014307
vn -0.17264234 0.9837075 0.050143074
vn -0.18712635 0.97273916 0.13697554
vn -0.18712635 0.97273916 0.13697556
vn -0.18712637 0.97273916 0.13697556
vn -0.10822875 0.99336034 -0.03901018
vn -0.10822876 0.99336034 -0.039010182
vn -0.108228736 0.99336034 -0.03901018
vn 0.15356192 0.98616856 -0.0623722
vn 0.15356189 0.98616856 -0.0623722
vn 0.1535619 0.98616856 -0.062372193
vn 0.15357842 0.98616636 -0.062367246
vn 0.1190559 0.99227715 -0.03480929
vn 0.1184907 0.99081343 0.06518287
vn 0.11849071 0.99081343 0.065182865
vn 0.11849071 0.99081343 0.06518288
vn 0.19645023 0.9799722 0.03258585
vn 0.1964502 0.9799722 0.032585848
vn 0.19645023 0.9799722 0.03258585
vn -0.06759084 0.9826827 -0.17252876
vn -0.06759084 0.9826827 -0.17252876
vn -0.06759083 0.9826827 -0.17252874
vn -0.052338194 0.98371613 -0.1719397
vn 0.1909849 0.9815641 0.0075230063
vn 0.19098487 0.9815641 0.0075230054
vn 0.19098489 0.9815641 0.007523006
vn 0.22385734 0.9698711 -0.09611456
vn 0.22385734 0.9698711 -0.09611456
vn 0.22385734 0.9698711 -0.09611457
vn -0.12180697 0.99006456 0.07025099
vn -0.121806964 0.99006456 0.07025098
vn -0.12180698 0.99006456 0.07025098
vn -0.12699167 0.9898245 0.064192966
vn -0.16753785 0.98397046 0.061100606
vn -0.08943177 0.9958889 -0.014399223
vn -0.08943176 0.9958889 -0.014399224
vn -0.08943177 0.9958889 -0.014399225
vn -0.10347499 0.9942709 0.026798816
vn -0.103475 0.9942709 0.026798816
vn 0.20080246 0.9781597 -0.053683195
vn 0.20080245 0.9781597 -0.05368319
vn 0.20080248 0.9781597 -0.053683195
vn -0.04745971 0.9969241 -0.062368765
vn -0.047459714 0.9969241 -0.062368765
vn -0.047459714 0.9969241 -0.062368765
vn -0.038112815 0.9947883 -0.09457073
vn -0.065683044 0.99591476 -0.061964586
vn 0.057267606 0.9948953 0.083088875
vn 0.057267595 0.9948953 0.083088875
vn 0.057267606 0.9948953 0.08308887
vn 0.063152775 0.9948437 0.079357654
vn 0.017985571 0.99437356 0.10439192
vn 0.017985571 0.99437356 0.10439192
vn 0.017985571 0.99437356 0.104391925
vn 0.0005187237 0.9972982 0.07345823
vn -0.02349309 0.9920324 0.12377324
vn -0.023493089 0.9920324 0.123773225
vn -0.02349309 0.9920324 0.123773225
vn -0.037797637 0.99455124 0.09715552
vn -0.037797637 0.99455124 0.09715552
vn -0.14561515 0.9780317 -0.14916512
vn -0.14561515 0.9780317 -0.14916512
vn -0.14561515 0.9780317 -0.14916512
vn 0.12626873 0.9697291 -0.20900151
vn 0.12626871 0.9697291 -0.2090015
vn 0.1262687 0.9697291 -0.2090015
vn 0.16797434 0.9725428 -0.16107458
vn 0.16797434 0.9725428 -0.16107456
vn 0.16797435 0.9725428 -0.16107458
vn -0.10856741 0.9940726 -0.0057297433
vn -0.10856741 0.9940726 -0.0057297437
vn -0.10856742 0.9940726 -0.0057297437
vn 0.18411212 0.98254365 0.026657388
vn 0.1841121 0.98254365 0.02665739
vn 0.18411212 0.98254365 0.026657388
vn 0.0413104 0.98278135 0.18009491
vn 0.0413104 0.98278135 0.1800949
vn 0.041310396 0.98278135 0.18009491
vn -0.16154389 0.98649347 0.027094288
vn -0.16154388 0.98649347 0.027094284
vn -0.16154386 0.98649347 0.027094288
vn -0.021957796 0.99975294 -0.0034532833
vn -0.021957798 0.99975294 -0.0034532838
vn -0.021957796 0.99975294 -0.0034532836
vn -0.010979462 0.9999113 0.0075403885
vn -0.016173583 0.99982554 0.009345876
vn 0.0070748627 0.9904659 0.13757652
vn 0.0070748627 0.9904659 0.1375765
vn 0.0070748623 0.9904659 0.1375765
vn -0.016017638 0.9906527 0.135465
vn -0.016017638 0.9906527 0.13546503
vn -0.016017638 0.9906527 0.135465
vn 0.09126615 0.982949 0.15963024
vn 0.09126615 0.982949 0.15963024
vn 0.09126614 0.982949 0.15963022
vn -0.05671111 0.988955 0.13693766
vn -0.056711107 0.988955 0.13693766
vn -0.05671111 0.988955 0.13693766
vn -0.21273838 0.9720082 0.0997116
vn -0.2127384 0.9720082 0.0997116
vn -0.2127384 0.9720082 0.0997116
vn -0.10137081 0.9812682 0.16381882
vn -0.10137081 0.9812682 0.16381882
vn -0.10137081 0.9812682 0.16381882
vn -0.07356159 0.99453837 0.07404071
vn -0.07356159 0.99453837 0.07404071
vn -0.07356159 0.99453837 0.07404071
vn 0.042938937 0.9985024 0.03389958
vn 0.04293894 0.9985024 0.03389958
vn 0.04293894 0.9985024 0.03389958
vn 0.041181207 0.9985461 0.03478104
vn 0.14949974 0.9511951 0.26995844
vn 0.14949976 0.9511951 0.2699584
vn 0.14949974 0.9511951 0.2699584
vn 0.15665571 0.9807797 -0.11631884
vn 0.1566557 0.9807797 -0.11631884
vn 0.15665571 0.9807797 -0.116318844
vn -0.1226798 0.9904536 -0.062860474
vn -0.12267979 0.9904536 -0.06286047
vn -0.12267981 0.9904536 -0.06286048
vn -0.14453244 0.97890145 0.14443775
vn -0.14453243 0.97890145 0.14443772
vn -0.14453244 0.97890145 0.14443773
vn 0.041851833 0.9897625 -0.13645013
vn 0.041851837 0.9897625 -0.13645014
vn 0.041851833 0.9897625 -0.13645013
vn 0.21979749 0.9661872 -0.13480154
vn 0.21979745 0.9661872 -0.13480154
vn 0.21979748 0.9661872 -0.13480152
vn -0.04958664 0.9934176 -0.10325978
vn -0.04958664 0.9934176 -0.10325979
vn -0.04958664 0.9934176 -0.103259794
vn 0.08301267 0.99532384 -0.049389962
vn 0.08301267 0.99532384 -0.049389966
vn 0.08301267 0.99532384 -0.049389966
vn 0.053345907 0.992332 -0.111496136
vn 0.053345907 0.992332 -0.111496136
vn 0.05334591 0.992332 -0.111496136
vn 0.031424798 0.991617 -0.12533236
vn 0.04896062 0.9984158 -0.027725471
vn 0.048960615 0.9984158 -0.02772547
vn 0.048960615 0.9984158 -0.02772547
vn 0.054500572 0.9891037 0.13676177
vn 0.054500576 0.9891037 0.13676177
vn 0.054500565 0.9891037 0.13676175
vn 0.08322173 0.9912106 0.10283871
vn 0.049817324 0.99509084 -0.085512556
vn 0.04981732 0.99509084 -0.08551256
vn 0.049817327 0.99509084 -0.08551257
vn 0.012335606 0.9973008 -0.07238093
vn 0.012335605 0.9973008 -0.07238092
vn 0.012335607 0.9973008 -0.07238092
vn 0.10750224 0.99046093 -0.08620007
vn 0.107502244 0.99046093 -0.08620007
vn 0.10750224 0.99046093 -0.086200066
vn 0.10428643 0.9896193 -0.09888297
vn 0.10428643 0.9896193 -0.098882966
vn 0.10428644 0.9896193 -0.098882966
vn 0.13107966 0.99007773 -0.05063705
vn 0.13107966 0.99007773 -0.05063705
vn 0.1310797 0.99007773 -0.050637063
vn -0.021461649 0.98932785 0.1441171
vn -0.021461647 0.98932785 0.14411709
vn -0.021461647 0.98932785 0.14411709
vn -0.19440958 0.97939557 -0.054674875
vn -0.19440956 0.97939557 -0.054674875
vn -0.19440955 0.97939557 -0.054674868
vn 0.012169176 0.99435836 -0.10537299
vn 0.012169179 0.99435836 -0.105372995
vn 0.012169177 0.99435836 -0.10537299
vn -0.02614848 0.9942644 -0.10370374
vn -0.089321144 0.9782534 -0.18719545
vn -0.089321144 0.9782534 -0.18719544
vn -0.08932115 0.9782534 -0.18719544
vn -0.05285596 0.9985832 -0.0061489823
vn -0.05285597 0.9985832 -0.0061489833
vn -0.05285597 0.9985832 -0.006148983
vn 0.0031028085 0.99937636 -0.035174526
vn 0.0031028083 0.99937636 -0.035174526
vn 0.0031028083 0.99937636 -0.035174526
vn 0.06095906 0.9877301 0.14378189
vn 0.060959063 0.9877301 0.14378189
vn 0.060959063 0.9877301 0.14378189
vn -0.0699029 0.9948161 0.07385427
vn -0.0699029 0.9948161 0.073854275
vn -0.069902904 0.9948161 0.073854275
vn 0.123952374 0.9920569 -0.021421043
vn 0.12395237 0.9920569 -0.021421045
vn 0.12395237 0.9920569 -0.021421043
vn 0.14622056 0.9889369 -0.024964927
vn -0.054840237 0.99847823 0.005808041
vn -0.05484023 0.99847823 0.00580804
vn -0.05484023 0.99847823 0.005808041
vn -0.101900145 0.9947377 -0.010644538
vn -0.10190014 0.9947377 -0.010644538
vn -0.101900145 0.9947377 -0.010644538
vn -0.004254699 0.9899985 -0.14101405
vn -0.004254699 0.9899985 -0.14101405
vn -0.004254699 0.9899985 -0.14101405
vn 0.04973999 0.99869823 0.011302435
vn 0.04973998 0.99869823 0.011302434
vn 0.049739987 0.99869823 0.011302435
vn 0.1947758 0.9769916 0.086889155
vn 0.19477582 0.9769917 0.08688917
vn 0.1947758 0.9769916 0.08688915
vn 0.08889418 0.99294996 -0.07841015
vn 0.08889419 0.99294996 -0.07841014
vn 0.08889419 0.99294996 -0.07841015
vn 0.08525366 0.95753634 0.27541986
vn 0.08525366 0.95753634 0.27541986
vn 0.085253656 0.95753634 0.27541986
g hexArctic02_ice_0
f 3/3/3 2/2/2 1/1/1
f 6/6/6 5/5/5 4/4/4
f 9/9/9 8/8/8 7/7/7
f 12/12/12 11/11/11 10/10/10
f 15/15/15 14/14/14 13/13/13
f 16/16/16 14/14/14 15/15/15
f 17/17/17 15/15/15 13/13/13
f 20/20/20 19/19/19 18/18/18
f 23/23/23 22/22/22 21/21/21
f 26/26/26 25/25/25 24/24/24
f 27/27/27 24/24/24 25/25/25
f 30/30/30 29/29/29 28/28/28
f 33/33/33 32/32/32 31/31/31
f 36/36/36 35/35/35 34/34/34
f 36/36/36 34/34/34 37/37/37
f 34/34/34 35/35/35 38/38/38
f 41/41/41 40/40/40 39/39/39
f 43/43/43 40/40/40 42/42/42
f 46/46/46 45/45/45 44/44/44
f 49/49/49 48/48/48 47/47/47
f 47/47/47 48/48/48 50/50/50
f 47/47/47 51/51/51 49/49/49
f 54/54/54 53/53/53 52/52/52
f 55/55/55 54/54/54 52/52/52
f 58/58/58 57/57/57 56/56/56
f 59/59/59 58/58/58 56/56/56
f 60/60/60 56/56/56 57/57/57
f 60/60/60 62/62/62 61/61/61
f 59/59/59 64/64/64 63/63/63
f 67/67/67 66/66/66 65/65/65
f 70/70/70 69/69/69 68/68/68
f 73/73/73 72/72/72 71/71/71
f 76/76/76 75/75/75 74/74/74
f 79/79/79 78/78/78 77/77/77
f 82/82/82 81/81/81 80/80/80
f 85/85/85 84/84/84 83/83/83
f 88/88/88 87/87/87 86/86/86
f 88/88/88 86/86/86 89/89/89
f 90/90/90 88/88/88 89/89/89
f 93/93/93 92/92/92 91/91/91
f 96/96/96 95/95/95 94/94/94
f 99/99/99 98/98/98 97/97/97
f 102/102/102 101/101/101 100/100/100
f 105/105/105 104/104/104 103/103/103
f 108/108/108 107/107/107 106/106/106
f 111/111/111 110/110/110 109/109/109
f 114/114/114 113/113/113 112/112/112
f 113/113/113 115/115/115 112/112/112
f 118/118/118 117/117/117 116/116/116
f 121/121/121 120/120/120 119/119/119
f 124/124/124 123/123/123 122/122/122
f 127/127/127 126/126/126 125/125/125
f 130/130/130 129/129/129 128/128/128
f 133/133/133 132/132/132 131/131/131
f 136/136/136 135/135/135 134/134/134
f 139/139/139 138/138/138 137/137/137
f 142/142/142 141/141/141 140/140/140
f 142/142/142 143/143/143 141/141/141
f 146/146/146 145/145/145 144/144/144
f 149/149/149 148/148/148 147/147/147
f 149/149/149 150/150/150 148/148/148
f 153/153/153 152/152/152 151/151/151
f 156/156/156 155/155/155 154/154/154
f 159/159/159 158/158/158 157/157/157
f 162/162/162 161/161/161 160/160/160
f 165/165/165 164/164/164 163/163/163
f 168/168/168 167/167/167 166/166/166
f 171/171/171 170/170/170 169/169/169
f 174/174/174 173/173/173 172/172/172
f 174/174/174 172/172/172 175/175/175
f 178/178/178 177/177/177 176/176/176
f 181/181/181 180/180/180 179/179/179
f 184/184/184 183/183/183 182/182/182
f 187/187/187 186/186/186 185/185/185
f 190/190/190 189/189/189 188/188/188
f 193/193/193 192/192/192 191/191/191
f 192/192/192 194/194/194 191/191/191
f 197/197/197 196/196/196 195/195/195
f 200/200/200 199/199/199 198/198/198
f 203/203/203 202/202/202 201/201/201
f 206/206/206 205/205/205 204/204/204
f 209/209/209 208/208/208 207/207/207
f 212/212/212 211/211/211 210/210/210
f 215/215/215 214/214/214 213/213/213
