g hexArctic01_ice
v -2.030243 -0.16175807 -2.8835144
v -1.4770203 -0.16353317 -2.6600513
v -2.1752014 -0.1253792 -2.3402195
v -1.5266418 -0.14538728 -2.1396046
v -1.4512024 -0.12249097 -3.2886124
v -2.030243 -0.16175807 -2.8835144
v -1.875 -0.116011724 -3.4687576
v -1.4770203 -0.16353317 -2.6600513
v -2.030243 -0.16175807 -2.8835144
v -1.4512024 -0.12249097 -3.2886124
v -1.1553345 -0.16669811 -3.4165077
v -1.4770203 -0.16353317 -2.6600513
v -1.4512024 -0.12249097 -3.2886124
v -1.4770203 -0.16353317 -2.6600513
v -1.1553345 -0.16669811 -3.4165077
v -0.9002075 -0.16434611 -2.9214954
v -0.633728 -0.12879299 -2.373806
v -1.4770203 -0.16353317 -2.6600513
v -0.9002075 -0.16434611 -2.9214954
v -1.5266418 -0.14538728 -2.1396046
v -0.633728 -0.12879299 -2.373806
v -1.0298157 -0.13421206 -1.9226036
v -1.7050171 -0.15752013 -1.6192989
v -1.0298157 -0.13421206 -1.9226036
v -0.8820801 -0.14633717 -1.6281986
v -1.5266418 -0.14538728 -2.1396046
v -1.4770203 -0.16353317 -2.6600513
v -0.633728 -0.12879299 -2.373806
v -0.53900146 -0.16486223 -3.149496
v -1.1553345 -0.16669811 -3.4165077
v -1.0597229 -0.14653201 -3.6803493
v -0.7460327 -0.1369248 -3.7470188
v -0.7460327 -0.1369248 -3.7470188
v -1.3565979 -0.1223868 -4.102848
v -1.3565979 -0.1223868 -4.102848
v -1.0597229 -0.14653201 -3.6803493
v -1.4512024 -0.12249097 -3.2886124
v -1.0597229 -0.14653201 -3.6803493
v -1.1553345 -0.16669811 -3.4165077
v -1.4512024 -0.12249097 -3.2886124
v -1.3565979 -0.1223868 -4.102848
v -1.4512024 -0.12249097 -3.2886124
v -1.91156 -0.12150876 -3.9035797
v -1.4512024 -0.12249097 -3.2886124
v -1.875 -0.116011724 -3.4687576
v -1.91156 -0.12150876 -3.9035797
v -1.91156 -0.12150876 -3.9035797
v -1.875 -0.116011724 -3.4687576
v -2.3559265 -0.13988876 -3.052929
v -1.875 -0.116011724 -3.4687576
v -2.030243 -0.16175807 -2.8835144
v -2.3559265 -0.13988876 -3.052929
v -2.3559265 -0.13988876 -3.052929
v -2.030243 -0.16175807 -2.8835144
v -2.1752014 -0.1253792 -2.3402195
v -1.5266418 -0.14538728 -2.1396046
v -1.7050171 -0.15752013 -1.6192989
v -2.1752014 -0.1253792 -2.3402195
v -1.7050171 -0.15752013 -1.6192989
v -2.4752197 -0.15147848 -2.145317
v -2.1752014 -0.1253792 -2.3402195
v -0.8820801 -0.14633717 -1.6281986
v -1.0298157 -0.13421206 -1.9226036
v -0.34674072 -0.14230515 -2.0710812
v -0.633728 -0.12879299 -2.373806
v -0.34674072 -0.14230515 -2.0710812
v -0.633728 -0.12879299 -2.373806
v -0.1855774 -0.10918437 -3.2629147
v -0.633728 -0.12879299 -2.373806
v -0.53900146 -0.16486223 -3.149496
v -0.1855774 -0.10918437 -3.2629147
v -1.2567139 -0.12234047 -4.4288664
v -0.7460327 -0.1369248 -3.7470188
v -1.3565979 -0.1223868 -4.102848
v -1.2567139 -0.12234047 -4.4288664
v -1.3565979 -0.1223868 -4.102848
v -1.9408569 -0.12534057 -4.2160816
v -1.91156 -0.12150876 -3.9035797
v -2.626831 -0.11278887 -3.098297
v -1.91156 -0.12150876 -3.9035797
v -2.3559265 -0.13988876 -3.052929
v -2.626831 -0.11278887 -3.098297
v -2.4752197 -0.15147848 -2.145317
v -2.626831 -0.11278887 -3.098297
v -2.1752014 -0.1253792 -2.3402195
v -2.626831 -0.11278887 -3.098297
v -2.3559265 -0.13988876 -3.052929
v -2.1752014 -0.1253792 -2.3402195
v -0.633728 -0.12879299 -2.373806
v -0.9002075 -0.16434611 -2.9214954
v -0.53900146 -0.16486223 -3.149496
v -1.1553345 -0.16669811 -3.4165077
v -0.53900146 -0.16486223 -3.149496
v -0.9002075 -0.16434611 -2.9214954
v -0.1855774 -0.10918437 -3.2629147
v -0.53900146 -0.16486223 -3.149496
v -0.7460327 -0.1369248 -3.7470188
vt 0.71499324 0.81769824
vt 0.81342024 0.78015935
vt 0.7238879 0.73800296
vt 0.79007214 0.69760776
vt 0.81914645 0.8602358
vt 0.71499324 0.81769824
vt 0.7788799 0.8677905
vt 0.81342024 0.78015935
vt 0.71499324 0.81769824
vt 0.81914645 0.8602358
vt 0.86119616 0.855051
vt 0.81342024 0.78015935
vt 0.81914645 0.8602358
vt 0.81342024 0.78015935
vt 0.86119616 0.855051
vt 0.88391995 0.81324804
vt 0.8949243 0.74228936
vt 0.81342024 0.78015935
vt 0.88391995 0.81324804
vt 0.79007214 0.69760776
vt 0.8949243 0.74228936
vt 0.8631245 0.6749267
vt 0.77547383 0.62762785
vt 0.8631245 0.6749267
vt 0.88505095 0.6391453
vt 0.79007214 0.69760776
vt 0.81342024 0.78015935
vt 0.8949243 0.74228936
vt 0.9286782 0.83425516
vt 0.86119616 0.855051
vt 0.8746551 0.89236224
vt 0.88106704 0.9101375
vt 0.88106704 0.9101375
vt 0.8214936 0.9525639
vt 0.8214936 0.9525639
vt 0.8746551 0.89236224
vt 0.81914645 0.8602358
vt 0.8746551 0.89236224
vt 0.86119616 0.855051
vt 0.81914645 0.8602358
vt 0.8214936 0.9525639
vt 0.81914645 0.8602358
vt 0.75980055 0.9352406
vt 0.81914645 0.8602358
vt 0.7788799 0.8677905
vt 0.75980055 0.9352406
vt 0.75980055 0.9352406
vt 0.7788799 0.8677905
vt 0.68301016 0.8239432
vt 0.7788799 0.8677905
vt 0.71499324 0.81769824
vt 0.68301016 0.8239432
vt 0.68301016 0.8239432
vt 0.71499324 0.81769824
vt 0.7238879 0.73800296
vt 0.79007214 0.69760776
vt 0.77547383 0.62762785
vt 0.7238879 0.73800296
vt 0.77547383 0.62762785
vt 0.6653431 0.69415504
vt 0.7238879 0.73800296
vt 0.88505095 0.6391453
vt 0.8631245 0.6749267
vt 0.96087104 0.67799836
vt 0.8949243 0.74228936
vt 0.96087104 0.67799836
vt 0.8949243 0.74228936
vt 0.9703317 0.84645957
vt 0.8949243 0.74228936
vt 0.9286782 0.83425516
vt 0.9703317 0.84645957
vt 0.8225374 0.993622
vt 0.88106704 0.9101375
vt 0.8214936 0.9525639
vt 0.8225374 0.993622
vt 0.8214936 0.9525639
vt 0.74650097 0.982258
vt 0.75980055 0.9352406
vt 0.6433775 0.8316818
vt 0.75980055 0.9352406
vt 0.68301016 0.8239432
vt 0.6433775 0.8316818
vt 0.6653431 0.69415504
vt 0.6433775 0.8316818
vt 0.7238879 0.73800296
vt 0.6433775 0.8316818
vt 0.68301016 0.8239432
vt 0.7238879 0.73800296
vt 0.8949243 0.74228936
vt 0.88391995 0.81324804
vt 0.9286782 0.83425516
vt 0.86119616 0.855051
vt 0.9286782 0.83425516
vt 0.88391995 0.81324804
vt 0.9703317 0.84645957
vt 0.9286782 0.83425516
vt 0.88106704 0.9101375
vn 0.027251529 0.9978538 -0.05954057
vn 0.02725153 0.9978538 -0.059540577
vn 0.02725153 0.9978538 -0.05954057
vn 0.040388953 0.99870396 -0.030969085
vn -0.016073644 0.99715257 0.07367718
vn -0.016073648 0.99715257 0.0736772
vn -0.016073644 0.99715257 0.07367718
vn -0.022735456 0.9976774 0.06421058
vn -0.022735458 0.9976774 0.064210586
vn -0.022735454 0.9976774 0.06421057
vn 0.17747378 0.9815345 0.07136552
vn 0.17747377 0.9815345 0.07136551
vn 0.17747377 0.9815345 0.07136552
vn -0.00060333294 0.99999 -0.0044407933
vn -0.0006033329 0.99999 -0.004440793
vn -0.00060333294 0.99999 -0.0044407933
vn -0.022914521 0.9982963 -0.053659253
vn -0.02291452 0.9982963 -0.053659245
vn -0.02291452 0.9982963 -0.05365925
vn -0.020047795 0.99978346 -0.0055905143
vn -0.020047795 0.99978346 -0.0055905143
vn -0.020047793 0.99978346 -0.0055905143
vn -0.013055772 0.9987771 0.047683626
vn -0.0130557725 0.9987771 0.04768363
vn -0.013055772 0.9987771 0.047683626
vn -0.028411 0.9988913 -0.037538357
vn -0.028410995 0.9988913 -0.037538357
vn -0.028410997 0.9988913 -0.037538365
vn -0.031113397 0.9974026 0.06496027
vn -0.031113394 0.9974026 0.06496027
vn -0.031113397 0.9974026 0.06496028
vn -0.01923697 0.9983911 0.053340007
vn -0.016040511 0.997537 0.06828411
vn -0.016040511 0.997537 0.06828411
vn 0.0694613 0.9975509 0.008198242
vn 0.0694613 0.9975509 0.008198242
vn 0.0694613 0.9975509 0.008198242
vn 0.20909555 0.96637774 0.14964345
vn 0.20909557 0.96637774 0.14964345
vn 0.20909554 0.96637774 0.14964344
vn 0.0016989921 0.99999857 0.00032535402
vn 0.0016989921 0.99999857 0.000325354
vn 0.0016989923 0.99999857 0.00032535405
vn 0.021421202 0.9996662 -0.014439078
vn 0.021421203 0.9996662 -0.014439078
vn 0.021421203 0.9996662 -0.014439078
vn -0.05638579 0.9983779 -0.007881471
vn -0.05638579 0.9983779 -0.00788147
vn -0.05638579 0.9983779 -0.00788147
vn 0.023185715 0.99619484 0.084014185
vn 0.023185719 0.99619484 0.0840142
vn 0.02318572 0.99619484 0.08401421
vn 0.08911306 0.9950991 -0.042855263
vn 0.08911305 0.9950991 -0.042855263
vn 0.08911304 0.9950991 -0.04285526
vn 0.021354264 0.999303 0.030621603
vn 0.021354267 0.999303 0.030621603
vn 0.021354266 0.999303 0.030621605
vn -0.040628344 0.996653 0.07093721
vn -0.040628344 0.996653 0.070937194
vn -0.040628344 0.996653 0.0709372
vn 0.01874163 0.99932003 0.03175207
vn 0.01874163 0.99932003 0.03175207
vn 0.01874163 0.99932003 0.03175207
vn 0.017858757 0.9994573 0.027681397
vn 0.015541458 0.99943286 0.02987379
vn 0.015541457 0.99943286 0.02987379
vn 0.015541458 0.99943286 0.029873794
vn -0.17629682 0.9820405 -0.067200005
vn -0.17629682 0.9820405 -0.067200005
vn -0.17629682 0.9820405 -0.067200005
vn 0.02012645 0.9997775 0.0063084625
vn 0.020126449 0.9997775 0.006308462
vn 0.02012645 0.9997775 0.0063084625
vn -0.004797938 0.9999876 -0.001327933
vn -0.004797938 0.9999876 -0.001327933
vn -0.0047979373 0.9999876 -0.001327933
vn -0.0027286275 0.9999242 -0.012005206
vn -0.0014595493 0.9999255 -0.012123941
vn 0.08809995 0.99382246 0.06749244
vn 0.08809995 0.99382246 0.06749244
vn 0.08809994 0.99382246 0.06749243
vn -0.05478549 0.99728525 0.04920044
vn -0.05478548 0.99728525 0.049200434
vn -0.054785483 0.99728525 0.04920044
vn 0.10729684 0.9930951 -0.047427524
vn 0.10729684 0.9930951 -0.047427516
vn 0.10729683 0.9930951 -0.047427516
vn -0.030203743 0.9982869 -0.05011034
vn -0.030203743 0.9982869 -0.050110333
vn -0.030203743 0.9982869 -0.050110333
vn -0.0011847571 0.9999907 -0.004140433
vn -0.0011847572 0.9999907 -0.004140433
vn -0.0011847572 0.9999907 -0.0041404334
vn -0.1267334 0.9878358 0.09010558
vn -0.1267334 0.9878358 0.09010557
vn -0.12673342 0.9878358 0.090105586
g hexArctic01_ice_0
f 3/3/3 2/2/2 1/1/1
f 3/3/3 4/4/4 2/2/2
f 7/7/7 6/6/6 5/5/5
f 10/10/10 9/9/9 8/8/8
f 13/13/13 12/12/12 11/11/11
f 16/16/16 15/15/15 14/14/14
f 19/19/19 18/18/18 17/17/17
f 22/22/22 21/21/21 20/20/20
f 24/24/24 20/20/20 23/23/23
f 24/24/24 23/23/23 25/25/25
f 28/28/28 27/27/27 26/26/26
f 31/31/31 30/30/30 29/29/29
f 32/32/32 31/31/31 29/29/29
f 34/34/34 31/31/31 33/33/33
f 37/37/37 36/36/36 35/35/35
f 40/40/40 39/39/39 38/38/38
f 43/43/43 42/42/42 41/41/41
f 46/46/46 45/45/45 44/44/44
f 49/49/49 48/48/48 47/47/47
f 52/52/52 51/51/51 50/50/50
f 55/55/55 54/54/54 53/53/53
f 58/58/58 57/57/57 56/56/56
f 61/61/61 60/60/60 59/59/59
f 64/64/64 63/63/63 62/62/62
f 64/64/64 65/65/65 63/63/63
f 68/68/68 67/67/67 66/66/66
f 71/71/71 70/70/70 69/69/69
f 74/74/74 73/73/73 72/72/72
f 77/77/77 76/76/76 75/75/75
f 77/77/77 78/78/78 76/76/76
f 79/79/79 78/78/78 77/77/77
f 82/82/82 81/81/81 80/80/80
f 85/85/85 84/84/84 83/83/83
f 88/88/88 87/87/87 86/86/86
f 91/91/91 90/90/90 89/89/89
f 94/94/94 93/93/93 92/92/92
f 97/97/97 96/96/96 95/95/95
