g hexDroptoneTown01_lava
v -3.324623 0.062320255 1.312952
v -2.573326 0.06511929 0.19198592
v -2.1455154 0.046418928 2.1304874
v -1.601738 0.07277455 0.1710815
v -0.88788605 0.102243096 1.472009
v 1.7522354 0.13990393 0.071247056
v 1.0099716 0.06845286 -0.80708843
v -0.0060653687 0.08548417 0.44365984
v 2.2198715 0.102486044 -1.2880367
v 1.3714371 0.026094101 -2.1802685
v 2.2970352 0.09313157 -2.0656035
v 3.1386642 0.09641495 -1.4983675
v 3.18618 0.084148906 -0.74804443
v 0.2799759 0.09570888 2.02164
v 1.5991745 0.10640898 1.4465976
v -2.9879532 0.025955342 0.6806976
v -2.3818283 0.024246596 1.0816903
v -1.7062149 0.098266274 1.2122779
v -1.3741989 0.094407946 0.6487307
v -0.64543915 0.0119108185 0.88708824
v 0.1180954 0.11511245 1.233248
v 0.9917984 0.062274717 1.0191305
v 1.0654984 0.039755724 0.24512751
v -2.780922 0.047613166 0.43697995
v -2.5094376 0.036625527 0.641462
v -2.0257034 0.053142093 0.5595092
v -2.162819 0.061344765 0.087012485
v -2.0551834 0.05776348 1.1813705
v -1.6314316 0.085380815 0.7828464
v 1.2412033 0.034947656 -0.5779712
v 1.0169144 0.044217966 -0.2964496
v 0.50203705 0.061739586 -0.18207912
v 0.50940704 0.055534385 0.32878608
v 1.8446732 0.06112089 -1.4938233
v 1.1496353 0.038366698 -1.4725219
v 1.6600571 0.07540753 -1.1554295
v 2.291542 0.091680914 -1.5974483
v 1.8918381 0.051370524 -2.0321214
v 3.0679245 0.09498814 -1.1882763
v 2.6486282 0.08983722 -1.336426
v 2.542183 0.09673014 -0.8312486
v 2.2151718 0.12165037 -0.542447
v 2.4064713 0.10934773 -0.32734483
v -0.78336334 0.06990375 0.24738248
v -1.0444565 0.03990569 0.5113513
v -0.26750946 0.041240834 0.6638202
v -0.18083954 0.07837119 0.9569511
v 0.39670563 0.08210649 0.7470502
v 1.0048904 0.06133344 0.5667698
v 0.59601593 0.086241506 1.0158117
v 1.8249741 0.06341984 -0.8918923
v -3.1558762 0.04241862 0.996622
v -2.8849564 0.043764733 1.2018828
v -2.7384872 0.0667453 1.6725633
v -2.3781967 0.029421233 1.5510454
v -1.9931259 0.06609728 1.6879992
v -1.2799149 0.09893897 1.2612238
v -0.9196701 0.06307747 1.0774908
v -1.4275742 0.07362499 1.7710567
v -0.3743515 0.11493543 1.263062
v -0.33953094 0.10789099 1.6950619
v 0.2347641 0.11371222 1.5109866
v 0.58405304 0.078721546 1.3566284
v 1.0543747 0.100183636 1.6678529
v 1.2136307 0.08366897 1.140408
v 1.3437729 0.085231446 0.114939526
v 1.272789 0.061238788 0.81484383
v 1.7489853 0.12567964 0.79313844
v 1.5717087 0.08884683 -0.16796522
v 2.7182083 0.07958641 -1.7818625
v -2.0257034 0.053142093 0.5595092
v 1.0169144 0.044217966 -0.2964496
v 1.1496353 0.038366698 -1.4725219
v 2.2198715 0.102486044 -1.2880367
v 2.2198715 0.102486044 -1.2880367
v 1.8446732 0.06112089 -1.4938233
v 2.2198715 0.102486044 -1.2880367
v -0.26750946 0.041240834 0.6638202
v -0.0060653687 0.08548417 0.44365984
v -0.0060653687 0.08548417 0.44365984
v -0.18083954 0.07837119 0.9569511
v 2.2198715 0.102486044 -1.2880367
v 1.6600571 0.07540753 -1.1554295
v -2.3781967 0.029421233 1.5510454
v -1.2799149 0.09893897 1.2612238
v -1.3741989 0.094407946 0.6487307
v -0.88788605 0.102243096 1.472009
v -0.18083954 0.07837119 0.9569511
v -0.64543915 0.0119108185 0.88708824
v -0.88788605 0.102243096 1.472009
v -0.3743515 0.11493543 1.263062
v 0.1180954 0.11511245 1.233248
v 0.2347641 0.11371222 1.5109866
v 0.58405304 0.078721546 1.3566284
v 1.3437729 0.085231446 0.114939526
v 1.7522354 0.13990393 0.071247056
v 1.3437729 0.085231446 0.114939526
v 1.5717087 0.08884683 -0.16796522
v 2.2198715 0.102486044 -1.2880367
v 2.2151718 0.12165037 -0.542447
v 1.8249741 0.06341984 -0.8918923
v -1.601738 0.07277455 0.1710815
v -2.0551834 0.05776348 1.1813705
v 1.2412033 0.034947656 -0.5779712
v 1.0654984 0.039755724 0.24512751
v 1.0169144 0.044217966 -0.2964496
v 1.1496353 0.038366698 -1.4725219
v 1.0099716 0.06845286 -0.80708843
v 1.7522354 0.13990393 0.071247056
v -1.601738 0.07277455 0.1710815
v -1.0444565 0.03990569 0.5113513
v -0.64543915 0.0119108185 0.88708824
v -1.601738 0.07277455 0.1710815
v -0.64543915 0.0119108185 0.88708824
v -0.26750946 0.041240834 0.6638202
v -0.18083954 0.07837119 0.9569511
v 0.9917984 0.062274717 1.0191305
v -0.18083954 0.07837119 0.9569511
v 0.39670563 0.08210649 0.7470502
v 0.1180954 0.11511245 1.233248
v 1.6600571 0.07540753 -1.1554295
v 1.2412033 0.034947656 -0.5779712
v 1.6600571 0.07540753 -1.1554295
v 1.5717087 0.08884683 -0.16796522
v 1.6600571 0.07540753 -1.1554295
v 1.8249741 0.06341984 -0.8918923
v 1.5717087 0.08884683 -0.16796522
v -2.3818283 0.024246596 1.0816903
v -2.1455154 0.046418928 2.1304874
v -0.3743515 0.11493543 1.263062
v -0.88788605 0.102243096 1.472009
v 0.2799759 0.09570888 2.02164
v 0.2799759 0.09570888 2.02164
v 1.272789 0.061238788 0.81484383
v 1.5991745 0.10640898 1.4465976
v 1.272789 0.061238788 0.81484383
v 2.2970352 0.09313157 -2.0656035
v 2.291542 0.091680914 -1.5974483
v -2.573326 0.06511929 0.19198592
v -2.0257034 0.053142093 0.5595092
v 2.6486282 0.08983722 -1.336426
v 3.18618 0.084148906 -0.74804443
v 2.4064713 0.10934773 -0.32734483
v 2.2198715 0.102486044 -1.2880367
v 1.0654984 0.039755724 0.24512751
v 0.50940704 0.055534385 0.32878608
v -2.5094376 0.036625527 0.641462
v -2.8849564 0.043764733 1.2018828
v -2.9879532 0.025955342 0.6806976
v -2.7384872 0.0667453 1.6725633
v -2.3818283 0.024246596 1.0816903
v -0.9196701 0.06307747 1.0774908
v 0.58405304 0.078721546 1.3566284
v 0.1180954 0.11511245 1.233248
v 1.0543747 0.100183636 1.6678529
v 0.9917984 0.062274717 1.0191305
v 1.2136307 0.08366897 1.140408
v -2.9879532 0.025955342 0.6806976
v -2.3818283 0.024246596 1.0816903
v -2.3818283 0.024246596 1.0816903
v -2.0257034 0.053142093 0.5595092
v -1.7062149 0.098266274 1.2122779
v -1.7062149 0.098266274 1.2122779
v -1.6314316 0.085380815 0.7828464
v 1.0169144 0.044217966 -0.2964496
v 1.0099716 0.06845286 -0.80708843
v -0.0060653687 0.08548417 0.44365984
v 1.8446732 0.06112089 -1.4938233
v 2.291542 0.091680914 -1.5974483
v 1.8918381 0.051370524 -2.0321214
v 2.2151718 0.12165037 -0.542447
v -0.78336334 0.06990375 0.24738248
v -0.26750946 0.041240834 0.6638202
v -1.3741989 0.094407946 0.6487307
v -0.0060653687 0.08548417 0.44365984
v 0.39670563 0.08210649 0.7470502
v 1.0048904 0.06133344 0.5667698
v 0.9917984 0.062274717 1.0191305
v 0.59601593 0.086241506 1.0158117
v 0.1180954 0.11511245 1.233248
v 1.0099716 0.06845286 -0.80708843
v 1.2412033 0.034947656 -0.5779712
v -2.3818283 0.024246596 1.0816903
v -2.8849564 0.043764733 1.2018828
v -2.5094376 0.036625527 0.641462
v -2.7384872 0.0667453 1.6725633
v -2.3781967 0.029421233 1.5510454
v -0.88788605 0.102243096 1.472009
v -1.2799149 0.09893897 1.2612238
v -0.9196701 0.06307747 1.0774908
v -1.2799149 0.09893897 1.2612238
v -1.7062149 0.098266274 1.2122779
v -1.9931259 0.06609728 1.6879992
v -2.1455154 0.046418928 2.1304874
v 0.2347641 0.11371222 1.5109866
v 0.9917984 0.062274717 1.0191305
v 1.272789 0.061238788 0.81484383
v 1.272789 0.061238788 0.81484383
v 1.8249741 0.06341984 -0.8918923
v 2.2151718 0.12165037 -0.542447
v 1.5717087 0.08884683 -0.16796522
v 2.2151718 0.12165037 -0.542447
v 2.7182083 0.07958641 -1.7818625
vt 0.03235811 0.12819463
vt 0.14015943 0.28903693
vt 0.20154473 0.01088953
vt 0.2795687 0.29203695
vt 0.3819963 0.10537213
vt 0.7608161 0.30636138
vt 0.654312 0.4323907
vt 0.508525 0.25292575
vt 0.82791543 0.5013995
vt 0.7061765 0.62942183
vt 0.83898693 0.6129693
vt 0.95974857 0.5315794
vt 0.96656674 0.4239182
vt 0.5495676 0.026507974
vt 0.73885345 0.10901791
vt 0.08066645 0.21891415
vt 0.16763663 0.16137749
vt 0.26457694 0.1426397
vt 0.3122168 0.2235009
vt 0.41678312 0.18929982
vt 0.52634054 0.13963109
vt 0.6517049 0.17035419
vt 0.66227835 0.2814119
vt 0.1103729 0.2538842
vt 0.14932668 0.22454363
vt 0.2187354 0.23630315
vt 0.19906124 0.30409986
vt 0.2145051 0.147075
vt 0.27530792 0.2042566
vt 0.68748987 0.3995154
vt 0.65530765 0.3591212
vt 0.58143085 0.34271026
vt 0.5824881 0.269408
vt 0.774079 0.53092694
vt 0.67435104 0.52787066
vt 0.74758947 0.48237252
vt 0.8381987 0.54579604
vt 0.78084743 0.60816574
vt 0.94959813 0.48708516
vt 0.8894353 0.5083425
vt 0.8741622 0.43585718
vt 0.82724094 0.39441758
vt 0.8546892 0.36355424
vt 0.39699385 0.28108877
vt 0.35953 0.24321306
vt 0.4710112 0.22133595
vt 0.4834468 0.17927521
vt 0.5663167 0.20939296
vt 0.65358317 0.23526114
vt 0.5949146 0.17082947
vt 0.7712537 0.44455838
vt 0.056571335 0.17358333
vt 0.0954448 0.14413172
vt 0.11646053 0.07659489
vt 0.16815686 0.09403151
vt 0.22341058 0.074380934
vt 0.32574585 0.13561696
vt 0.37743616 0.1619798
vt 0.30455914 0.06246245
vt 0.45568073 0.13535327
vt 0.4606765 0.07336682
vt 0.5430805 0.09977901
vt 0.5931979 0.12192792
vt 0.6606827 0.07727146
vt 0.6835331 0.15295249
vt 0.7022079 0.3000924
vt 0.6920228 0.19966573
vt 0.7603502 0.2027809
vt 0.7349136 0.3406849
vt 0.89941925 0.57225645
vt 0.2187354 0.23630315
vt 0.65530765 0.3591212
vt 0.67435104 0.52787066
vt 0.82791543 0.5013995
vt 0.82791543 0.5013995
vt 0.774079 0.53092694
vt 0.82791543 0.5013995
vt 0.4710112 0.22133595
vt 0.508525 0.25292575
vt 0.508525 0.25292575
vt 0.4834468 0.17927521
vt 0.82791543 0.5013995
vt 0.74758947 0.48237252
vt 0.16815686 0.09403151
vt 0.32574585 0.13561696
vt 0.3122168 0.2235009
vt 0.3819963 0.10537213
vt 0.4834468 0.17927521
vt 0.41678312 0.18929982
vt 0.3819963 0.10537213
vt 0.45568073 0.13535327
vt 0.52634054 0.13963109
vt 0.5430805 0.09977901
vt 0.5931979 0.12192792
vt 0.7022079 0.3000924
vt 0.7608161 0.30636138
vt 0.7022079 0.3000924
vt 0.7349136 0.3406849
vt 0.82791543 0.5013995
vt 0.82724094 0.39441758
vt 0.7712537 0.44455838
vt 0.2795687 0.29203695
vt 0.2145051 0.147075
vt 0.68748987 0.3995154
vt 0.66227835 0.2814119
vt 0.65530765 0.3591212
vt 0.67435104 0.52787066
vt 0.654312 0.4323907
vt 0.7608161 0.30636138
vt 0.2795687 0.29203695
vt 0.35953 0.24321306
vt 0.41678312 0.18929982
vt 0.2795687 0.29203695
vt 0.41678312 0.18929982
vt 0.4710112 0.22133595
vt 0.4834468 0.17927521
vt 0.6517049 0.17035419
vt 0.4834468 0.17927521
vt 0.5663167 0.20939296
vt 0.52634054 0.13963109
vt 0.74758947 0.48237252
vt 0.68748987 0.3995154
vt 0.74758947 0.48237252
vt 0.7349136 0.3406849
vt 0.74758947 0.48237252
vt 0.7712537 0.44455838
vt 0.7349136 0.3406849
vt 0.16763663 0.16137749
vt 0.20154473 0.01088953
vt 0.45568073 0.13535327
vt 0.3819963 0.10537213
vt 0.5495676 0.026507974
vt 0.5495676 0.026507974
vt 0.6920228 0.19966573
vt 0.73885345 0.10901791
vt 0.6920228 0.19966573
vt 0.83898693 0.6129693
vt 0.8381987 0.54579604
vt 0.14015943 0.28903693
vt 0.2187354 0.23630315
vt 0.8894353 0.5083425
vt 0.96656674 0.4239182
vt 0.8546892 0.36355424
vt 0.82791543 0.5013995
vt 0.66227835 0.2814119
vt 0.5824881 0.269408
vt 0.14932668 0.22454363
vt 0.0954448 0.14413172
vt 0.08066645 0.21891415
vt 0.11646053 0.07659489
vt 0.16763663 0.16137749
vt 0.37743616 0.1619798
vt 0.5931979 0.12192792
vt 0.52634054 0.13963109
vt 0.6606827 0.07727146
vt 0.6517049 0.17035419
vt 0.6835331 0.15295249
vt 0.08066645 0.21891415
vt 0.16763663 0.16137749
vt 0.16763663 0.16137749
vt 0.2187354 0.23630315
vt 0.26457694 0.1426397
vt 0.26457694 0.1426397
vt 0.27530792 0.2042566
vt 0.65530765 0.3591212
vt 0.654312 0.4323907
vt 0.508525 0.25292575
vt 0.774079 0.53092694
vt 0.8381987 0.54579604
vt 0.78084743 0.60816574
vt 0.82724094 0.39441758
vt 0.39699385 0.28108877
vt 0.4710112 0.22133595
vt 0.3122168 0.2235009
vt 0.508525 0.25292575
vt 0.5663167 0.20939296
vt 0.65358317 0.23526114
vt 0.6517049 0.17035419
vt 0.5949146 0.17082947
vt 0.52634054 0.13963109
vt 0.654312 0.4323907
vt 0.68748987 0.3995154
vt 0.16763663 0.16137749
vt 0.0954448 0.14413172
vt 0.14932668 0.22454363
vt 0.11646053 0.07659489
vt 0.16815686 0.09403151
vt 0.3819963 0.10537213
vt 0.32574585 0.13561696
vt 0.37743616 0.1619798
vt 0.32574585 0.13561696
vt 0.26457694 0.1426397
vt 0.22341058 0.074380934
vt 0.20154473 0.01088953
vt 0.5430805 0.09977901
vt 0.6517049 0.17035419
vt 0.6920228 0.19966573
vt 0.6920228 0.19966573
vt 0.7712537 0.44455838
vt 0.82724094 0.39441758
vt 0.7349136 0.3406849
vt 0.82724094 0.39441758
vt 0.89941925 0.57225645
vn 0.030358588 0.99845135 -0.046617217
vn -0.008130358 0.9978902 0.0644144
vn 0.082089394 0.99468553 -0.062144082
vn -0.06804613 0.99739695 -0.023856793
vn -0.030352462 0.99870634 0.040796157
vn -0.1306449 0.99124825 0.018942561
vn 0.098607875 0.99407035 0.045831494
vn -0.053880613 0.98940116 0.1348415
vn -0.0549448 0.9980926 -0.02814562
vn -0.033561487 0.99904877 -0.027842425
vn -0.06770135 0.997703 0.0022973265
vn -0.022157328 0.9994043 -0.0264583
vn 0.020729642 0.9997421 -0.00927339
vn 0.0011311336 0.9993819 0.03513427
vn -0.003718791 0.9975815 -0.06940639
vn -0.02468225 0.9992668 -0.029268637
vn 0.09911689 0.99500656 -0.011736664
vn -0.09775311 0.9951757 0.008340513
vn -0.036030047 0.99934894 -0.0018459931
vn 0.13556579 0.98826885 -0.07033113
vn -0.00750909 0.99993825 0.0081957355
vn -0.06782907 0.996358 -0.051672544
vn 0.030121027 0.9994778 0.011705793
vn -0.008130358 0.9978902 0.0644144
vn -0.008130358 0.9978902 0.0644144
vn 0.012688993 0.999826 0.013673536
vn 0.012688993 0.999826 0.013673536
vn -0.11325702 0.99330384 -0.022812983
vn -0.06804613 0.99739695 -0.023856793
vn -0.061156124 0.9947968 -0.08148234
vn -0.07003795 0.9965869 -0.043695226
vn 0.030121027 0.9994778 0.011705793
vn 0.030121027 0.9994778 0.011705793
vn -0.03649085 0.9905013 -0.13257311
vn -0.0549448 0.9980926 -0.02814562
vn -0.0549448 0.9980926 -0.02814562
vn -0.08044149 0.99532855 -0.053388227
vn -0.104712166 0.994131 -0.027183019
vn -0.023164766 0.9992563 0.030822977
vn 0.020729642 0.9997421 -0.00927339
vn 0.020729642 0.9997421 -0.00927339
vn 0.09213595 0.9954324 -0.025005976
vn 0.038580026 0.99914837 -0.014630754
vn -0.053880613 0.98940116 0.1348415
vn 0.13556579 0.98826885 -0.07033113
vn -0.053880613 0.98940116 0.1348415
vn -0.21529284 0.97471684 -0.059800442
vn -0.0016332157 0.99991024 0.01330053
vn 0.018774208 0.9978115 -0.06340235
vn 0.07138889 0.9971474 0.024507938
vn -0.032653224 0.99729854 0.0657981
vn 0.024577307 0.9989373 -0.038990058
vn -0.02468225 0.9992668 -0.029268637
vn 0.09911689 0.99500656 -0.011736664
vn 0.09911689 0.99500656 -0.011736664
vn -0.09775311 0.9951757 0.008340513
vn -0.036030047 0.99934894 -0.0018459931
vn 0.13556579 0.98826885 -0.07033113
vn -0.030352462 0.99870634 0.040796157
vn -0.11148685 0.976002 -0.1870587
vn -0.00750909 0.99993825 0.0081957355
vn -0.00750909 0.99993825 0.0081957355
vn 0.07138889 0.9971474 0.024507938
vn -0.06782907 0.996358 -0.051672544
vn -0.06782907 0.996358 -0.051672544
vn -0.07003795 0.9965869 -0.043695226
vn -0.003718791 0.9975815 -0.06940639
vn -0.1306449 0.99124825 0.018942561
vn -0.07003795 0.9965869 -0.043695226
vn -0.022157328 0.9994043 -0.0264583
vn -0.06804613 0.99739695 -0.023856793
vn 0.035137765 0.99936956 0.0050819134
vn -0.03649085 0.9905013 -0.13257311
vn -0.03649085 0.9905013 -0.13257311
vn -0.08044149 0.99532855 -0.053388227
vn -0.08044149 0.99532855 -0.053388227
vn 0.038580026 0.99914837 -0.014630754
vn -0.21529284 0.97471684 -0.059800442
vn -0.21529284 0.97471684 -0.059800442
vn -0.0016332157 0.99991024 0.01330053
vn -0.0016332157 0.99991024 0.01330053
vn -0.032653224 0.99729854 0.0657981
vn -0.032653224 0.99729854 0.0657981
vn -0.09775311 0.9951757 0.008340513
vn 0.08844012 0.9958605 -0.020981513
vn 0.08844012 0.9958605 -0.020981513
vn 0.1100853 0.9881511 -0.10695262
vn -0.11148685 0.976002 -0.1870587
vn -0.11148685 0.976002 -0.1870587
vn -0.10276236 0.9757455 -0.19328892
vn 0.00062461063 0.9998677 0.016254043
vn 0.07138889 0.9971474 0.024507938
vn 0.08601128 0.99580836 -0.03110998
vn -0.007426442 0.9983108 -0.05762348
vn -0.1306449 0.99124825 0.018942561
vn -0.14273465 0.9844476 -0.10241903
vn -0.14273465 0.9844476 -0.10241903
vn -0.14273465 0.9844476 -0.10241903
vn -0.12447852 0.9918743 -0.02627781
vn -0.12447852 0.9918743 -0.02627781
vn -0.12447852 0.9918743 -0.02627781
vn -0.024002768 0.9994161 0.024315795
vn -0.098428875 0.99507093 -0.012061482
vn 0.098607875 0.99407035 0.045831494
vn -0.1513419 0.9882428 0.021719327
vn -0.1513419 0.9882428 0.021719327
vn -0.033561487 0.99904877 -0.027842425
vn -0.03926359 0.9978034 -0.053353943
vn 0.052815128 0.99855286 0.010140386
vn -0.006451704 0.99428034 0.10660667
vn -0.006451704 0.99428034 0.10660667
vn -0.018992933 0.9953595 0.094333425
vn 0.120639905 0.9874222 -0.10219344
vn -0.12820768 0.9879032 -0.08723502
vn -0.12820768 0.9879032 -0.08723502
vn -0.12820768 0.9879032 -0.08723502
vn 0.05537968 0.9972899 -0.048434827
vn -0.039143775 0.9951728 -0.08999367
vn -0.039143775 0.9951728 -0.08999367
vn -0.039143775 0.9951728 -0.08999367
vn 0.04364696 0.9938981 0.10129953
vn -0.13041723 0.99114007 -0.025156869
vn -0.13041723 0.99114007 -0.025156869
vn -0.13041723 0.99114007 -0.025156869
vn 0.08234857 0.9965843 -0.006196716
vn 0.08234857 0.9965843 -0.006196716
vn 0.08234857 0.9965843 -0.006196716
vn -0.09898617 0.9950364 -0.0102043785
vn -0.098459736 0.9950872 0.010346187
vn -0.007832354 0.9923161 -0.12347998
vn -0.017501548 0.99968994 0.017712494
vn 0.11067591 0.9935363 0.02522792
vn -0.022035446 0.9991233 -0.035596542
vn -0.13358557 0.99097353 0.011238318
vn -0.1341708 0.990957 -0.0015361179
vn 0.053035587 0.99697053 -0.05689348
vn 0.029825222 0.9995491 0.003447401
vn 0.029825222 0.9995491 0.003447401
vn 0.012688993 0.999826 0.013673536
vn -0.022799172 0.99752706 0.06648289
vn -0.023164766 0.9992563 0.030822977
vn -0.023164766 0.9992563 0.030822977
vn 0.09213595 0.9954324 -0.025005976
vn 0.09213595 0.9954324 -0.025005976
vn 0.018774208 0.9978115 -0.06340235
vn 0.018774208 0.9978115 -0.06340235
vn -0.02468225 0.9992668 -0.029268637
vn 0.024577307 0.9989373 -0.038990058
vn 0.024577307 0.9989373 -0.038990058
vn 0.025203405 0.9980804 -0.056571852
vn 0.025203405 0.9980804 -0.056571852
vn 0.08844012 0.9958605 -0.020981513
vn 0.08601128 0.99580836 -0.03110998
vn 0.08601128 0.99580836 -0.03110998
vn -0.007426442 0.9983108 -0.05762348
vn -0.007426442 0.9983108 -0.05762348
vn -0.003718791 0.9975815 -0.06940639
vn -0.016088856 0.9970585 0.0749377
vn -0.027974436 0.998953 0.03619787
vn -0.098428875 0.99507093 -0.012061482
vn -0.098428875 0.99507093 -0.012061482
vn -0.058803823 0.9974611 -0.040169206
vn 0.0018297766 0.9995579 -0.0296748
vn 0.0018297766 0.9995579 -0.0296748
vn 0.098607875 0.99407035 0.045831494
vn 0.04435034 0.99792105 0.046762455
vn 0.06050058 0.9981047 0.011250986
vn -0.033561487 0.99904877 -0.027842425
vn -0.06770135 0.997703 0.0022973265
vn -0.042304594 0.9988669 -0.021797158
vn 0.052815128 0.99855286 0.010140386
vn -0.006451704 0.99428034 0.10660667
vn -0.021232989 0.99526924 0.094806515
vn 0.120639905 0.9874222 -0.10219344
vn 0.046638533 0.99761873 -0.050809525
vn 0.046638533 0.99761873 -0.050809525
vn -0.01055756 0.99994147 -0.0023863646
vn -0.01055756 0.99994147 -0.0023863646
vn 0.039860025 0.99819523 -0.044916146
vn 0.039860025 0.99819523 -0.044916146
vn 0.04364696 0.9938981 0.10129953
vn 0.04364696 0.9938981 0.10129953
vn 0.04251864 0.9989712 0.01576474
vn 0.04251864 0.9989712 0.01576474
vn 0.04251864 0.9989712 0.01576474
vn 0.082089394 0.99468553 -0.062144082
vn 0.082089394 0.99468553 -0.062144082
vn 0.046688147 0.99364614 -0.10240923
vn 0.046688147 0.99364614 -0.10240923
vn 0.046688147 0.99364614 -0.10240923
vn -0.007037026 0.99884355 0.04756064
vn -0.007037026 0.99884355 0.04756064
vn -0.02131298 0.99827814 0.054649204
vn -0.01886924 0.9991021 0.037933365
vn 0.11067591 0.9935363 0.02522792
vn 0.060226884 0.99789304 0.024132513
vn 0.002220604 0.9999956 -0.0020165239
vn -0.0532332 0.99551 -0.07826983
vn -0.089125976 0.99382544 -0.0660873
vn -0.089125976 0.99382544 -0.0660873
vn -0.089125976 0.99382544 -0.0660873
vn -0.119961545 0.98552346 -0.1198036
vn 0.029825222 0.9995491 0.003447401
g hexDroptoneTown01_lava_0
f 24/24/24 25/25/25 2/2/2
f 2/2/2 25/25/25 140/140/140
f 158/158/158 25/25/25 24/24/24
f 140/140/140 25/25/25 159/159/159
f 27/27/27 140/140/140 102/102/102
f 139/139/139 26/26/26 27/27/27
f 71/71/71 29/29/29 4/4/4
f 162/162/162 29/29/29 71/71/71
f 29/29/29 19/19/19 4/4/4
f 19/19/19 29/29/29 57/57/57
f 57/57/57 59/59/59 5/5/5
f 18/18/18 71/71/71 28/28/28
f 18/18/18 28/28/28 84/84/84
f 18/18/18 84/84/84 56/56/56
f 84/84/84 28/28/28 128/128/128
f 56/56/56 84/84/84 129/129/129
f 57/57/57 164/164/164 163/163/163
f 192/192/192 59/59/59 191/191/191
f 192/192/192 193/193/193 59/59/59
f 59/59/59 193/193/193 194/194/194
f 69/69/69 31/31/31 66/66/66
f 69/69/69 30/30/30 31/31/31
f 23/23/23 32/32/32 33/33/33
f 23/23/23 72/72/72 32/32/32
f 32/32/32 72/72/72 166/166/166
f 33/33/33 32/32/32 167/167/167
f 178/178/178 177/177/177 33/33/33
f 178/178/178 197/197/197 177/177/177
f 9/9/9 35/35/35 36/36/36
f 36/36/36 35/35/35 108/108/108
f 74/74/74 34/34/34 73/73/73
f 37/37/37 76/76/76 75/75/75
f 11/11/11 38/38/38 76/76/76
f 11/11/11 168/168/168 169/169/169
f 107/107/107 168/168/168 10/10/10
f 168/168/168 170/170/170 10/10/10
f 13/13/13 40/40/40 41/41/41
f 41/41/41 40/40/40 77/77/77
f 77/77/77 43/43/43 41/41/41
f 41/41/41 43/43/43 13/13/13
f 40/40/40 138/138/138 77/77/77
f 138/138/138 40/40/40 203/203/203
f 138/138/138 203/203/203 137/137/137
f 70/70/70 40/40/40 12/12/12
f 141/141/141 39/39/39 12/12/12
f 142/142/142 39/39/39 141/141/141
f 43/43/43 171/171/171 109/109/109
f 144/144/144 42/42/42 143/143/143
f 44/44/44 46/46/46 8/8/8
f 45/45/45 58/58/58 20/20/20
f 58/58/58 87/87/87 20/20/20
f 174/174/174 58/58/58 45/45/45
f 174/174/174 45/45/45 113/113/113
f 79/79/79 78/78/78 47/47/47
f 146/146/146 49/49/49 145/145/145
f 49/49/49 136/136/136 145/145/145
f 176/176/176 146/146/146 175/175/175
f 117/117/117 146/146/146 176/176/176
f 176/176/176 179/179/179 117/117/117
f 180/180/180 179/179/179 176/176/176
f 81/81/81 48/48/48 80/80/80
f 83/83/83 51/51/51 82/82/82
f 16/16/16 53/53/53 147/147/147
f 149/149/149 52/52/52 148/148/148
f 148/148/148 52/52/52 1/1/1
f 150/150/150 148/148/148 1/1/1
f 151/151/151 148/148/148 150/150/150
f 17/17/17 54/54/54 55/55/55
f 86/86/86 85/85/85 152/152/152
f 89/89/89 60/60/60 88/88/88
f 89/89/89 90/90/90 60/60/60
f 21/21/21 61/61/61 62/62/62
f 21/21/21 91/91/91 61/61/61
f 61/61/61 91/91/91 131/131/131
f 62/62/62 61/61/61 14/14/14
f 92/92/92 63/63/63 50/50/50
f 50/50/50 63/63/63 196/196/196
f 63/63/63 195/195/195 132/132/132
f 154/154/154 93/93/93 153/153/153
f 22/22/22 64/64/64 65/65/65
f 22/22/22 65/65/65 198/198/198
f 156/156/156 94/94/94 155/155/155
f 155/155/155 94/94/94 133/133/133
f 157/157/157 155/155/155 15/15/15
f 67/67/67 157/157/157 15/15/15
f 6/6/6 95/95/95 68/68/68
f 105/105/105 68/68/68 95/95/95
f 95/95/95 106/106/106 105/105/105
f 105/105/105 134/134/134 68/68/68
f 68/68/68 134/134/134 135/135/135
f 98/98/98 97/97/97 96/96/96
f 202/202/202 98/98/98 96/96/96
f 101/101/101 100/100/100 99/99/99
f 103/103/103 161/161/161 160/160/160
f 165/165/165 104/104/104 7/7/7
f 111/111/111 172/172/172 110/110/110
f 112/112/112 172/172/172 111/111/111
f 112/112/112 173/173/173 172/172/172
f 116/116/116 115/115/115 114/114/114
f 120/120/120 119/119/119 118/118/118
f 118/118/118 130/130/130 120/120/120
f 182/182/182 121/121/121 181/181/181
f 124/124/124 123/123/123 122/122/122
f 127/127/127 126/126/126 125/125/125
f 185/185/185 184/184/184 183/183/183
f 187/187/187 186/186/186 3/3/3
f 190/190/190 189/189/189 188/188/188
f 201/201/201 200/200/200 199/199/199
