g hildebrantWebs
v -5.0796347 4.7576246 -4.5365415
v -5.0796347 6.4802036 -4.5365415
v -3.3767624 6.4802036 -4.795884
v -3.3767624 4.7576246 -4.795884
v 4.097275 5.9615183 -4.621675
v 5.152973 5.9615183 -4.621675
v 5.152973 4.90582 -4.621675
v 4.097275 4.90582 -4.621675
v 6.3945074 6.520406 5.307644
v 6.2465086 6.520406 3.9234314
v 6.2465086 5.1281137 3.9234314
v 6.3945074 5.1281137 5.307644
v 5.512624 2.2010489 -4.6835546
v 5.695898 1.0580487 -4.6835546
v 4.5528984 0.87477493 -4.6835546
v 4.369821 2.0177746 -4.6835546
v -3.1028366 -0.18782091 -4.7172537
v -4.254113 0.039399624 -4.7172537
v -4.0266953 1.1906762 -4.7172537
v -2.875616 0.96325874 -4.7172537
v 4.55881 0.080981255 3.7145386
v 4.55881 0.7750578 3.748828
v 4.5595984 0.78353167 4.719393
v 4.5594015 0.08945513 4.6851025
v -5.5920143 1.0604138 4.530798
v -4.645295 1.063961 4.548337
v -4.6523895 0.28396225 5.0851526
v -5.5991087 0.28041506 5.067416
v -5.763464 2.4633474 -0.37385416
v -5.4367237 2.4633474 -1.3046107
v -5.4367237 1.4770174 -1.3046107
v -5.763464 1.4770174 -0.37385416
v -4.231056 0.04826784 -3.3302824
v -4.8705444 0.06738329 -3.1481907
v -4.8821716 0.61661434 -3.2465281
v -4.242486 0.5974989 -3.4286199
v 4.2517767 2.0033884 2.6020842
v 4.6222663 2.0033884 2.4389114
v 4.6222663 1.424006 2.4389114
v 4.2517767 1.424006 2.6020842
vt 0 0
vt 0 1
vt 1 1
vt 1 0
vt 0 0
vt 0 1
vt 1 1
vt 1 0
vt 0 0
vt 0 1
vt 1 1
vt 1 0
vt 0 0
vt 0 1
vt 1 1
vt 1 0
vt 0 0
vt 0 1
vt 1 1
vt 1 0
vt 0 0
vt 0 1
vt 1 1
vt 1 0
vt 0 0
vt 0 1
vt 1 1
vt 1 0
vt 0 0
vt 0 1
vt 1 1
vt 1 0
vt 0 0
vt 0 1
vt 1 1
vt 1 0
vt 0 0
vt 0 1
vt 1 1
vt 1 0
vn 0.14967877 -0.0010808706 0.98873407
vn 0.14967877 -0.0010808706 0.98873407
vn 0.14967877 -0.0010808706 0.98873407
vn 0.14967877 -0.0010808706 0.98873407
vn 0.0010808706 -0.0010808706 0.9999988
vn 0.0010808706 -0.0010808706 0.9999988
vn 0.0010808706 -0.0010808706 0.9999988
vn 0.0010808706 -0.0010808706 0.9999988
vn 0.9943403 -0.0010808706 -0.10623664
vn 0.9943403 -0.0010808706 -0.10623664
vn 0.9943403 -0.0010808706 -0.10623664
vn 0.9943403 -0.0010808706 -0.10623664
vn 0.0010808706 -0.0010808706 0.9999988
vn 0.0010808706 -0.0010808706 0.9999988
vn 0.0010808706 -0.0010808706 0.9999988
vn 0.0010808706 -0.0010808706 0.9999988
vn 0.0010808706 -0.0010808706 0.9999988
vn 0.0010808706 -0.0010808706 0.9999988
vn 0.0010808706 -0.0010808706 0.9999988
vn 0.0010808706 -0.0010808706 0.9999988
vn -0.9999994 -0.0010808705 -0
vn -0.9999994 -0.0010808705 -0
vn -0.9999994 -0.0010808705 -0
vn -0.9999994 -0.0010808705 -0
vn -0.014561057 0.5698478 0.82162124
vn -0.014561057 0.5698478 0.82162124
vn -0.014561057 0.5698478 0.82162124
vn -0.014561057 0.5698478 0.82162124
vn 0.94741464 -0.0010808706 0.32000676
vn 0.94741464 -0.0010808706 0.32000676
vn 0.94741464 -0.0010808706 0.32000676
vn 0.94741464 -0.0010808706 0.32000676
vn 0.27481377 0.1788007 0.9447263
vn 0.27481377 0.1788007 0.9447263
vn 0.27481377 0.1788007 0.9447263
vn 0.27481377 0.1788007 0.9447263
vn 0.39994884 -0.0010808706 0.9165368
vn 0.39994884 -0.0010808706 0.9165368
vn 0.39994884 -0.0010808706 0.9165368
vn 0.39994884 -0.0010808706 0.9165368
g hildebrantWebs_0
f 3/3/3 2/2/2 1/1/1
f 4/4/4 3/3/3 1/1/1
f 7/7/7 6/6/6 5/5/5
f 8/8/8 7/7/7 5/5/5
f 11/11/11 10/10/10 9/9/9
f 12/12/12 11/11/11 9/9/9
f 15/15/15 14/14/14 13/13/13
f 16/16/16 15/15/15 13/13/13
f 19/19/19 18/18/18 17/17/17
f 20/20/20 19/19/19 17/17/17
f 23/23/23 22/22/22 21/21/21
f 24/24/24 23/23/23 21/21/21
f 27/27/27 26/26/26 25/25/25
f 28/28/28 27/27/27 25/25/25
f 31/31/31 30/30/30 29/29/29
f 32/32/32 31/31/31 29/29/29
f 35/35/35 34/34/34 33/33/33
f 36/36/36 35/35/35 33/33/33
f 39/39/39 38/38/38 37/37/37
f 40/40/40 39/39/39 37/37/37
