g lavaCaveBanner01
v -0.344625 -1.5300593 0.009503841
v -0.344625 -2.3841858E-06 0.028239727
v 2.3841858E-06 -1.5300593 0.03442335
v 2.3841858E-06 -2.3841858E-06 0.054451466
v -0.344625 -2.6965685 0.012272835
v 0.8857517 -1.5300593 0.030916214
v 0.66433764 -1.5300593 0.03442335
v 0.8857517 -2.3841858E-06 0.03183937
v 0.8857517 -2.6561437 0.009411812
v 0.66433764 -1.5300593 0.03442335
v 0.66433764 -2.3841858E-06 0.049005985
v 0.8857517 -2.3841858E-06 0.03183937
v 2.3841858E-06 -4.7545495 0.02943945
v -0.344625 -4.7068334 0.045590878
v 2.3841858E-06 -3.8965807 0.04835987
v -0.344625 -4.7068334 0.045590878
v -0.344625 -3.6927023 0.013103485
v 2.3841858E-06 -3.8965807 0.04835987
v 2.3841858E-06 -2.858176 0.029901028
v 0.66433764 -4.716063 0.038576603
v 0.66433764 -3.8467417 0.026116848
v 0.8857517 -4.7701473 0.0023050308
v 0.66433764 -3.8467417 0.026116848
v 0.8857517 -3.801702 0.023809433
v 0.8857517 -4.7701473 0.0023050308
v 0.8857517 -2.9852655 0.030731678
v -0.344625 -3.6927023 0.013103485
v -0.344625 -2.6965685 0.012272835
v 2.3841858E-06 -2.858176 0.029901028
v 2.3841858E-06 -1.5300593 0.03442335
v 0.66433764 -2.7458537 0.053251743
v 0.66433764 -1.5300593 0.03442335
v 0.8857517 -2.6561437 0.009411812
v -0.344625 -1.5300593 0.009503841
v -0.66433287 -1.5300593 0.008119583
v -0.344625 -2.3841858E-06 0.028239727
v -0.344625 -2.6965685 0.012272835
v -0.66433287 -1.5300593 0.008119583
v -0.66433287 -2.3841858E-06 0.049559593
v -0.344625 -2.3841858E-06 0.028239727
v -0.66433287 -2.840917 0.05648184
v -0.66433287 -1.5300593 0.008119583
v -0.344625 -2.6965685 0.012272835
v -0.344625 -3.6927023 0.013103485
v -0.66433287 -3.9053488 0.00442791
v -0.66433287 -2.840917 0.05648184
v -0.344625 -3.6927023 0.013103485
v -0.66433287 -4.584728 0.05389738
v -0.66433287 -3.9053488 0.00442791
v -0.344625 -4.7068334 0.045590878
v -0.66433287 -3.9053488 0.00442791
v -0.344625 -3.6927023 0.013103485
v -0.344625 -4.7068334 0.045590878
v -0.5431504 -5.052384 0.036269188
v -0.66433287 -4.584728 0.05389738
v -0.344625 -4.7068334 0.045590878
v 0.34462976 -1.5300593 0.0070118904
v 2.3841858E-06 -1.5300593 0.03442335
v 0.34462976 -2.3841858E-06 0.004981518
v 0.34462976 -2.7057056 0.032485485
v 2.3841858E-06 -1.5300593 0.03442335
v 2.3841858E-06 -2.3841858E-06 0.054451466
v 0.34462976 -2.3841858E-06 0.004981518
v 2.3841858E-06 -2.858176 0.029901028
v 2.3841858E-06 -1.5300593 0.03442335
v 0.34462976 -2.7057056 0.032485485
v 0.34462976 -3.6509852 0.0053505898
v 2.3841858E-06 -3.8965807 0.04835987
v 2.3841858E-06 -2.858176 0.029901028
v 0.34462976 -3.6509852 0.0053505898
v 0.34462976 -4.538304 0.03986883
v 2.3841858E-06 -4.7545495 0.02943945
v 2.3841858E-06 -3.8965807 0.04835987
v 0.34462976 -4.538304 0.03986883
v 0.36050415 -5.162768 0.047344685
v -0.88574743 -1.5300593 0.0064582825
v -0.88574743 -2.3841858E-06 0.03793049
v -0.66433287 -1.5300593 0.008119583
v -0.66433287 -2.3841858E-06 0.049559593
v -0.88574743 -2.9213054 0.018548965
v -0.88574743 -1.5300593 0.0064582825
v -0.66433287 -2.840917 0.05648184
v -0.88574743 -3.801702 0.042729855
v -0.88574743 -1.5300593 0.0064582825
v -0.66433287 -1.5300593 0.008119583
v -0.66433287 -2.840917 0.05648184
v -0.66433287 -3.9053488 0.00442791
v -0.88574743 -3.801702 0.042729855
v -0.66433287 -2.840917 0.05648184
v -0.88574743 -4.6372433 0.034700394
v -0.66433287 -4.584728 0.05389738
v -0.88574743 -4.6372433 0.034700394
v -0.66433287 -3.9053488 0.00442791
v 0.34462976 -1.5300593 0.0070118904
v 0.34462976 -2.3841858E-06 0.004981518
v 0.66433764 -1.5300593 0.03442335
v 0.34462976 -2.7057056 0.032485485
v 0.34462976 -2.3841858E-06 0.004981518
v 0.66433764 -2.3841858E-06 0.049005985
v 0.66433764 -1.5300593 0.03442335
v 0.66433764 -2.7458537 0.053251743
v 0.34462976 -2.7057056 0.032485485
v 0.66433764 -1.5300593 0.03442335
v 0.34462976 -3.6509852 0.0053505898
v 0.66433764 -3.8467417 0.026116848
v 0.34462976 -3.6509852 0.0053505898
v 0.66433764 -2.7458537 0.053251743
v 0.66433764 -4.716063 0.038576603
v 0.34462976 -4.538304 0.03986883
v 0.66433764 -3.8467417 0.026116848
v 0.36050415 -5.162768 0.047344685
v 0.34462976 -4.538304 0.03986883
v 0.34462976 -3.6509852 0.0053505898
v 0.66433764 -3.8467417 0.026116848
v 0.66433764 -3.8467417 0.026116848
v 0.66433764 -2.7458537 0.053251743
v 0.8857517 -2.9852655 0.030731678
vt 0.8024174 0.89211154
vt 0.8024174 0.95129126
vt 0.81906164 0.89211154
vt 0.81906164 0.95129126
vt 0.8024174 0.84587747
vt 0.5213139 0.8708439
vt 0.51576585 0.8708439
vt 0.5213139 0.9078312
vt 0.5213139 0.8421787
vt 0.51576585 0.8708439
vt 0.51576585 0.9078312
vt 0.5213139 0.9078312
vt 0.81906164 0.7728275
vt 0.8024174 0.7728275
vt 0.81906164 0.8051914
vt 0.8024174 0.7728275
vt 0.8024174 0.8051914
vt 0.81906164 0.8051914
vt 0.81906164 0.84587747
vt 0.51576585 0.7968693
vt 0.51576585 0.81628764
vt 0.5213139 0.7968693
vt 0.51576585 0.81628764
vt 0.5213139 0.81628764
vt 0.5213139 0.7968693
vt 0.5213139 0.83663064
vt 0.8024174 0.8051914
vt 0.8024174 0.84587747
vt 0.81906164 0.84587747
vt 0.81906164 0.89211154
vt 0.51576585 0.8421787
vt 0.51576585 0.8708439
vt 0.5213139 0.8421787
vt 0.8024174 0.89211154
vt 0.7940953 0.89211154
vt 0.8024174 0.95129126
vt 0.8024174 0.84587747
vt 0.7940953 0.89211154
vt 0.7940953 0.95129126
vt 0.8024174 0.95129126
vt 0.7940953 0.84587747
vt 0.7940953 0.89211154
vt 0.8024174 0.84587747
vt 0.8024174 0.8051914
vt 0.7940953 0.8051914
vt 0.7940953 0.84587747
vt 0.8024174 0.8051914
vt 0.7940953 0.7728275
vt 0.7940953 0.8051914
vt 0.8024174 0.7728275
vt 0.7940953 0.8051914
vt 0.8024174 0.8051914
vt 0.8024174 0.7728275
vt 0.7940953 0.74786115
vt 0.7940953 0.7728275
vt 0.8024174 0.7728275
vt 0.83663064 0.89211154
vt 0.81906164 0.89211154
vt 0.83663064 0.95129126
vt 0.83663064 0.84587747
vt 0.81906164 0.89211154
vt 0.81906164 0.95129126
vt 0.83663064 0.95129126
vt 0.81906164 0.84587747
vt 0.81906164 0.89211154
vt 0.83663064 0.84587747
vt 0.83663064 0.8051914
vt 0.81906164 0.8051914
vt 0.81906164 0.84587747
vt 0.83663064 0.8051914
vt 0.83663064 0.7728275
vt 0.81906164 0.7728275
vt 0.81906164 0.8051914
vt 0.83663064 0.7728275
vt 0.83663064 0.74786115
vt 0.47877854 0.8708439
vt 0.47877854 0.9078312
vt 0.48432663 0.8708439
vt 0.48432663 0.9078312
vt 0.47877854 0.8421787
vt 0.47877854 0.8708439
vt 0.48432663 0.8421787
vt 0.47877854 0.81628764
vt 0.47877854 0.8708439
vt 0.48432663 0.8708439
vt 0.48432663 0.8421787
vt 0.48432663 0.81628764
vt 0.47877854 0.81628764
vt 0.48432663 0.8421787
vt 0.47877854 0.800568
vt 0.48432663 0.7968693
vt 0.47877854 0.800568
vt 0.48432663 0.81628764
vt 0.83663064 0.89211154
vt 0.83663064 0.95129126
vt 0.84495276 0.89211154
vt 0.83663064 0.84587747
vt 0.83663064 0.95129126
vt 0.84495276 0.95129126
vt 0.84495276 0.89211154
vt 0.84495276 0.84587747
vt 0.83663064 0.84587747
vt 0.84495276 0.89211154
vt 0.83663064 0.8051914
vt 0.84495276 0.8051914
vt 0.83663064 0.8051914
vt 0.84495276 0.84587747
vt 0.84495276 0.7728275
vt 0.83663064 0.7728275
vt 0.84495276 0.8051914
vt 0.83663064 0.74786115
vt 0.83663064 0.7728275
vt 0.83663064 0.8051914
vt 0.84495276 0.8051914
vt 0.51576585 0.81628764
vt 0.51576585 0.8421787
vt 0.5213139 0.83663064
vn -0.07193571 -0.012808517 0.997327
vn -0.07193571 -0.012808517 0.997327
vn -0.07193571 -0.012808517 0.997327
vn -0.07624474 -0.012808517 0.9970069
vn -0.07193571 0.002991259 0.9974048
vn 0.015681192 0.00011858344 0.99987704
vn 0.015681192 0.00011858344 0.99987704
vn 0.015681192 0.00011858344 0.99987704
vn 0.015681192 -0.018553883 0.9997049
vn 0.07744394 -0.009935826 0.9969472
vn 0.07744394 -0.009935826 0.9969472
vn 0.07744394 -0.009935826 0.9969472
vn 0.044408053 -0.021426573 0.9987837
vn 0.044408053 -0.021426573 0.9987837
vn 0.044408053 -0.021426573 0.9987837
vn -0.083426476 0.03171812 0.996009
vn -0.083426476 0.03171812 0.996009
vn -0.083426476 0.03171812 0.996009
vn -0.09204453 0.017354697 0.9956036
vn 0.16506085 0.014482006 0.986177
vn 0.16506085 0.014482006 0.986177
vn 0.16506085 0.014482006 0.986177
vn 0.015681192 -0.022862911 0.9996156
vn 0.015681192 -0.022862911 0.9996156
vn 0.015681192 -0.022862911 0.9996156
vn 0.012808517 -0.008499488 0.99988186
vn -0.05039057 0.0015549213 0.99872833
vn -0.05039057 0.0015549213 0.99872833
vn -0.05039057 0.0015549213 0.99872833
vn -0.053263262 -0.0027541071 0.9985767
vn 0.18804234 0.014482006 0.9820541
vn 0.18804234 0.014482006 0.9820541
vn 0.18804234 0.014482006 0.9820541
vn -0.004427612 -0.012808517 0.99990815
vn -0.004427612 -0.012808517 0.99990815
vn -0.004427612 -0.012808517 0.99990815
vn -0.004427612 0.002991259 0.9999857
vn 0.065953195 -0.02717194 0.9974527
vn 0.065953195 -0.02717194 0.9974527
vn 0.065953195 -0.02717194 0.9974527
vn 0.12053423 0.03602715 0.99205524
vn 0.12053423 0.03602715 0.99205524
vn 0.12053423 0.03602715 0.99205524
vn 0.136334 0.00011858344 0.99066293
vn 0.0056267977 -0.04871708 0.99879676
vn 0.0056267977 -0.04871708 0.99879676
vn 0.0056267977 -0.04871708 0.99879676
vn 0.05302611 0.07193571 0.99599874
vn 0.05302611 0.07193571 0.99599874
vn 0.05302611 0.07193571 0.99599874
vn -0.048954234 0.03171812 0.9982973
vn -0.048954234 0.03171812 0.9982973
vn -0.048954234 0.03171812 0.9982973
vn 0.012808517 -0.03435366 0.99932766
vn 0.012808517 -0.03435366 0.99932766
vn 0.012808517 -0.03435366 0.99932766
vn 0.07888028 0.0015549213 0.99688286
vn 0.07888028 0.0015549213 0.99688286
vn 0.07888028 0.0015549213 0.99688286
vn 0.07888028 0.021663725 0.99664867
vn 0.14207937 -0.012808517 0.98977244
vn 0.14207937 -0.012808517 0.98977244
vn 0.14207937 -0.012808517 0.98977244
vn -0.0058639497 -0.0027541071 0.999979
vn -0.0058639497 -0.0027541071 0.999979
vn -0.0058639497 -0.0027541071 0.999979
vn 0.0056267977 -0.028608277 0.99957484
vn 0.11191617 0.017354697 0.9935661
vn 0.11191617 0.017354697 0.9935661
vn 0.11191617 0.017354697 0.9935661
vn 0.096116394 0.03889984 0.9946097
vn -0.015918344 -0.021426573 0.9996437
vn -0.015918344 -0.021426573 0.9996437
vn -0.015918344 -0.021426573 0.9996437
vn -0.037463486 0.011609316 0.99923056
vn -0.0073002875 -0.01999022 0.99977356
vn -0.0073002875 -0.01999022 0.99977356
vn -0.0073002875 -0.01999022 0.99977356
vn -0.053263262 -0.02717194 0.9982107
vn -0.17104337 0.00873664 0.9852248
vn -0.17104337 0.00873664 0.9852248
vn -0.17104337 0.00873664 0.9852248
vn -0.1782251 0.027409092 0.9836079
vn -0.0073002875 0.037463486 0.99927133
vn -0.0073002875 0.037463486 0.99927133
vn -0.0073002875 0.037463486 0.99927133
vn 0.14782473 -0.04871708 0.987813
vn 0.14782473 -0.04871708 0.987813
vn 0.14782473 -0.04871708 0.987813
vn 0.1664972 -0.009935826 0.98599184
vn -0.103535265 0.07193571 0.992021
vn -0.103535265 0.07193571 0.992021
vn -0.103535265 0.07193571 0.992021
vn -0.0848628 0.0015549213 0.9963914
vn -0.0848628 0.0015549213 0.9963914
vn -0.0848628 0.0015549213 0.9963914
vn -0.0848628 0.021663725 0.9961571
vn -0.13657114 -0.009935826 0.99058044
vn -0.13657114 -0.009935826 0.99058044
vn -0.13657114 -0.009935826 0.99058044
vn -0.06331766 0.015918344 0.99786645
vn -0.06331766 0.015918344 0.99786645
vn -0.06331766 0.015918344 0.99786645
vn -0.067626685 -0.028608277 0.99730045
vn -0.07911745 -0.024299249 0.9965691
vn -0.07911745 -0.024299249 0.9965691
vn -0.07911745 -0.024299249 0.9965691
vn 0.011372164 0.014482006 0.9998304
vn 0.011372164 0.014482006 0.9998304
vn 0.011372164 0.014482006 0.9998304
vn 0.011372164 0.011609316 0.9998679
vn -0.041772515 0.03889984 0.99836963
vn -0.041772515 0.03889984 0.99836963
vn -0.041772515 0.03889984 0.99836963
vn 0.07457125 -0.024299249 0.9969196
vn 0.07457125 -0.024299249 0.9969196
vn 0.07457125 -0.024299249 0.9969196
g lavaCaveBanner01_0
f 3/3/3 2/2/2 1/1/1
f 3/3/3 4/4/4 2/2/2
f 3/3/3 1/1/1 5/5/5
f 8/8/8 7/7/7 6/6/6
f 9/9/9 6/6/6 7/7/7
f 12/12/12 11/11/11 10/10/10
f 15/15/15 14/14/14 13/13/13
f 18/18/18 17/17/17 16/16/16
f 19/19/19 17/17/17 18/18/18
f 22/22/22 21/21/21 20/20/20
f 25/25/25 24/24/24 23/23/23
f 26/26/26 23/23/23 24/24/24
f 29/29/29 28/28/28 27/27/27
f 30/30/30 28/28/28 29/29/29
f 33/33/33 32/32/32 31/31/31
f 36/36/36 35/35/35 34/34/34
f 37/37/37 34/34/34 35/35/35
f 40/40/40 39/39/39 38/38/38
f 43/43/43 42/42/42 41/41/41
f 44/44/44 43/43/43 41/41/41
f 47/47/47 46/46/46 45/45/45
f 50/50/50 49/49/49 48/48/48
f 53/53/53 52/52/52 51/51/51
f 56/56/56 55/55/55 54/54/54
f 59/59/59 58/58/58 57/57/57
f 60/60/60 57/57/57 58/58/58
f 63/63/63 62/62/62 61/61/61
f 66/66/66 65/65/65 64/64/64
f 67/67/67 66/66/66 64/64/64
f 70/70/70 69/69/69 68/68/68
f 71/71/71 70/70/70 68/68/68
f 74/74/74 73/73/73 72/72/72
f 75/75/75 74/74/74 72/72/72
f 78/78/78 77/77/77 76/76/76
f 78/78/78 79/79/79 77/77/77
f 82/82/82 81/81/81 80/80/80
f 82/82/82 80/80/80 83/83/83
f 86/86/86 85/85/85 84/84/84
f 89/89/89 88/88/88 87/87/87
f 87/87/87 88/88/88 90/90/90
f 93/93/93 92/92/92 91/91/91
f 96/96/96 95/95/95 94/94/94
f 96/96/96 94/94/94 97/97/97
f 100/100/100 99/99/99 98/98/98
f 103/103/103 102/102/102 101/101/101
f 101/101/101 102/102/102 104/104/104
f 107/107/107 106/106/106 105/105/105
f 110/110/110 109/109/109 108/108/108
f 108/108/108 109/109/109 111/111/111
f 114/114/114 113/113/113 112/112/112
f 117/117/117 116/116/116 115/115/115
