g laveTrapLava
v -0.5517678 -4.9354544 0.17011881
v -0.5255251 -4.0413427 0.1773119
v -0.0005412102 -4.0498686 0.20089054
v 0.008517265 -4.9209347 0.22193766
v -0.61411047 -5.9160194 0.17331553
v -0.0005412102 -5.9084263 0.20302153
v 0.0017232895 -3.3967357 0.21607637
v -0.4630494 -3.4004655 0.17304945
v -0.653008 -6.9453397 0.16745424
v -0.0004081726 -6.91257 0.20621872
v -0.7751627 -7.150884 0.21580982
v -8.106232E-06 -7.0777516 0.28960896
v -0.8789339 -7.1121197 0.30093145
v 0.00012493134 -7.067894 0.41962242
v -0.9974909 -7.211362 0.39817572
v -0.012396812 -7.190315 0.5901327
v -1.1731968 -7.182189 0.5484376
v 0.04261923 -7.172864 0.8038025
v -1.406848 -7.2900896 0.69670105
v 0.003721714 -7.283429 1.030261
v -0.4630494 -3.4004655 0.17304945
v -0.38738537 -2.8961291 0.16518974
v 0.0027890205 -2.89533 0.18397236
v 0.0017232895 -3.3967357 0.21607637
v -0.36980152 -2.7891607 0.12282896
v -0.0029387474 -2.772243 0.122962
v 0.04261923 -7.172864 0.8038025
v 1.2622976 -7.1598096 0.59492826
v 1.5195279 -7.295951 0.7747631
v 0.003721714 -7.283429 1.030261
v -0.012396812 -7.190315 0.5901327
v 1.0454307 -7.189382 0.42215347
v 0.00012493134 -7.067894 0.41962242
v 0.89130545 -7.0922713 0.3094573
v -8.106232E-06 -7.0777516 0.28960896
v 0.78846693 -7.132634 0.22233725
v -0.0004081726 -6.91257 0.20621872
v 0.6620498 -6.927223 0.17251635
v -0.0005412102 -5.9084263 0.20302153
v 0.6164918 -5.9168186 0.1682539
v 0.008517265 -4.9209347 0.22193766
v 0.5452237 -4.9257298 0.17211676
v -0.0005412102 -4.0498686 0.20089054
v 0.53803015 -4.03375 0.17438126
v 0.0017232895 -3.3967357 0.21607637
v 0.46995974 -3.3963358 0.17011881
v 0.37524652 -2.9146457 0.15026999
v 0.46995974 -3.3963358 0.17011881
v 0.0017232895 -3.3967357 0.21607637
v 0.0027890205 -2.89533 0.18397236
v -0.0029387474 -2.772243 0.122962
v 0.37950945 -2.7982192 0.118699074
v -0.5255251 -4.0413427 0.1773119
v -0.5676198 -4.044407 0.03397703
v -0.4884925 -3.4035294 0.03104639
v -0.4630494 -3.4004655 0.17304945
v 0.46995974 -3.3963358 0.17011881
v 0.4944706 -3.3932722 0.023320198
v 0.5584116 -4.048803 0.02811575
v 0.53803015 -4.03375 0.17438126
v -0.61411047 -5.9160194 0.17331553
v -0.6454148 -5.9202824 0.030513763
v -0.57827663 -4.9381185 0.029714584
v -0.5517678 -4.9354544 0.17011881
v -0.6887083 -6.937214 0.033044815
v -0.653008 -6.9453397 0.16745424
v -0.8180561 -7.1426253 0.033444405
v -0.7751627 -7.150884 0.21580982
v -0.9342165 -7.107058 -0.031163216
v -0.8789339 -7.1121197 0.30093145
v -1.0670271 -7.2097635 -0.10496187
v -0.9974909 -7.211362 0.39817572
v -1.2112951 -7.1845865 -0.18515491
v -1.1731968 -7.182189 0.5484376
v -1.406848 -7.2900896 0.69670105
v -1.4340229 -7.2818303 -0.2983842
v 0.5452237 -4.9257298 0.17211676
v 0.58065796 -4.930659 0.026650429
v 0.6388712 -5.920815 0.02811575
v 0.6164918 -5.9168186 0.1682539
v 0.6858945 -6.932818 0.025718212
v 0.6620498 -6.927223 0.17251635
v 0.8167076 -7.1382294 0.02545166
v 0.78846693 -7.132634 0.22233725
v 0.96084166 -7.1015964 -0.0712595
v 0.89130545 -7.0922713 0.3094573
v 1.0615492 -7.2029696 -0.122012615
v 1.0454307 -7.189382 0.42215347
v 1.2116776 -7.1764607 -0.23497581
v 1.2622976 -7.1598096 0.59492826
v 1.4237494 -7.2773013 -0.30650997
v 1.5195279 -7.295951 0.7747631
v -0.5517678 -4.9354544 0.17011881
v -0.57827663 -4.9381185 0.029714584
v -0.5676198 -4.044407 0.03397703
v -0.5255251 -4.0413427 0.1773119
v 0.53803015 -4.03375 0.17438126
v 0.5584116 -4.048803 0.02811575
v 0.58065796 -4.930659 0.026650429
v 0.5452237 -4.9257298 0.17211676
v -0.4630494 -3.4004655 0.17304945
v -0.4884925 -3.4035294 0.03104639
v -0.41522646 -2.9400887 0.069144726
v -0.38738537 -2.8961291 0.16518974
v -0.4017725 -2.8646913 0.06368303
v -0.36980152 -2.7891607 0.12282896
v 0.37524652 -2.9146457 0.15026999
v 0.4190731 -2.952344 0.08086729
v 0.4944706 -3.3932722 0.023320198
v 0.46995974 -3.3963358 0.17011881
v 0.402555 -2.865624 0.071009636
v 0.37950945 -2.7982192 0.118699074
v -0.0029387474 -2.772243 0.122962
v -0.0020065308 -2.6696706 -0.014778137
v 0.3125043 -2.694714 -0.0067853928
v 0.37950945 -2.7982192 0.118699074
v 0.29278898 -2.5812187 -0.14718962
v -0.0018734932 -2.5560417 -0.15544891
v 0.37258244 -2.2400656 -0.56920147
v -0.0024061203 -2.215022 -0.5771942
v -0.4017725 -2.8646913 0.06368303
v -0.33010483 -2.77917 -0.025168419
v -0.3039956 -2.684857 -0.00731802
v -0.36980152 -2.7891607 0.12282896
v 0.37950945 -2.7982192 0.118699074
v 0.3125043 -2.694714 -0.0067853928
v 0.33142042 -2.776506 -0.018241405
v 0.402555 -2.865624 0.071009636
v -0.36980152 -2.7891607 0.12282896
v -0.3039956 -2.684857 -0.00731802
v -0.0020065308 -2.6696706 -0.014778137
v -0.0029387474 -2.772243 0.122962
v -0.0018734932 -2.5560417 -0.15544891
v -0.2846799 -2.571361 -0.14772272
v -0.0024061203 -2.215022 -0.5771942
v -0.36247492 -2.230075 -0.56960154
v -0.33010483 -2.77917 -0.025168419
v -0.3089242 -2.6656742 -0.16557264
v -0.2846799 -2.571361 -0.14772272
v -0.3039956 -2.684857 -0.00731802
v -0.36247492 -2.230075 -0.56960154
v -0.39298058 -2.324388 -0.587585
v 0.3125043 -2.694714 -0.0067853928
v 0.29278898 -2.5812187 -0.14718962
v 0.31037283 -2.6630101 -0.15864563
v 0.33142042 -2.776506 -0.018241405
v 0.39469528 -2.321724 -0.58065796
v 0.37258244 -2.2400656 -0.56920147
vt 0.11884175 0.16746481
vt 0.11884175 0.23553707
vt 0.49810156 0.23553707
vt 0.5058812 0.16843726
vt 0.10814468 0.11300699
vt 0.49810156 0.11300699
vt 0.5019914 0.2851326
vt 0.12467651 0.2851326
vt 0.11689683 0.068273775
vt 0.5000465 0.068273775
vt 0.11884175 0.054659322
vt 0.5000465 0.054659322
vt 0.11884175 0.044934712
vt 0.5000465 0.044934712
vt 0.11884175 0.03132026
vt 0.5000465 0.03132026
vt 0.11884175 0.018678265
vt 0.5000465 0.018678265
vt 0.11981421 0.004091349
vt 0.5000465 0.00506381
vt 0.12467651 0.2851326
vt 0.12370405 0.3318107
vt 0.5029639 0.3318107
vt 0.5019914 0.2851326
vt 0.10717222 0.35125995
vt 0.49712908 0.35320485
vt 0.5000465 0.018678265
vt 0.8880584 0.020623187
vt 0.8880584 0.006036271
vt 0.5000465 0.00506381
vt 0.5000465 0.03132026
vt 0.8880584 0.03229272
vt 0.5000465 0.044934712
vt 0.8880584 0.045907173
vt 0.5000465 0.054659322
vt 0.8880584 0.055631783
vt 0.5000465 0.068273775
vt 0.8880584 0.06924624
vt 0.49810156 0.11300699
vt 0.8900033 0.11300699
vt 0.5058812 0.16843726
vt 0.8773613 0.16843726
vt 0.49810156 0.23553707
vt 0.8870859 0.23650953
vt 0.5019914 0.2851326
vt 0.8812512 0.2851326
vt 0.8647194 0.32986578
vt 0.8812512 0.2851326
vt 0.5019914 0.2851326
vt 0.5029639 0.3318107
vt 0.49712908 0.35320485
vt 0.874444 0.35028747
vt 0.11884175 0.23553707
vt -0.0007709563 0.23553707
vt 0.018678265 0.2851326
vt 0.12467651 0.2851326
vt 0.8812512 0.2851326
vt 0.9882219 0.28610504
vt 0.9882219 0.23553707
vt 0.8870859 0.23650953
vt 0.10814468 0.11300699
vt -0.0007709563 0.11300699
vt 0.013815959 0.16746481
vt 0.11884175 0.16746481
vt 0.008953654 0.068273775
vt 0.11689683 0.068273775
vt 0.009926115 0.055631783
vt 0.11884175 0.054659322
vt 0.009926115 0.044934712
vt 0.11884175 0.044934712
vt 0.010898576 0.03132026
vt 0.11884175 0.03132026
vt 0.010898576 0.018678265
vt 0.11884175 0.018678265
vt 0.11981421 0.004091349
vt 0.010898576 0.00506381
vt 0.8773613 0.16843726
vt 0.9891944 0.16746481
vt 0.9921118 0.11300699
vt 0.8900033 0.11300699
vt 0.9891944 0.06924624
vt 0.8880584 0.06924624
vt 0.9891944 0.055631783
vt 0.8880584 0.055631783
vt 0.9891944 0.045907173
vt 0.8880584 0.045907173
vt 0.9891944 0.03229272
vt 0.8880584 0.03229272
vt 0.9882219 0.019650726
vt 0.8880584 0.020623187
vt 0.9882219 0.00506381
vt 0.8880584 0.006036271
vt 0.11884175 0.16746481
vt 0.013815959 0.16746481
vt -0.0007709563 0.23553707
vt 0.11884175 0.23553707
vt 0.8870859 0.23650953
vt 0.9882219 0.23553707
vt 0.9891944 0.16746481
vt 0.8773613 0.16843726
vt 0.12467651 0.2851326
vt 0.018678265 0.2851326
vt 0.010898576 0.32792088
vt 0.12370405 0.3318107
vt 0.030347796 0.34542516
vt 0.10717222 0.35125995
vt 0.8647194 0.32986578
vt 0.9940567 0.32792088
vt 0.9882219 0.28610504
vt 0.8812512 0.2851326
vt 0.96974516 0.34542516
vt 0.874444 0.35028747
vt 0.49712908 0.35320485
vt 0.49615663 0.38043377
vt 0.8783338 0.3765439
vt 0.874444 0.35028747
vt 0.872499 0.42030466
vt 0.49518415 0.4241945
vt 0.91042507 0.49226677
vt 0.4893494 0.49712908
vt 0.030347796 0.34542516
vt 0.03326518 0.374599
vt 0.09842007 0.3775164
vt 0.10717222 0.35125995
vt 0.874444 0.35028747
vt 0.8783338 0.3765439
vt 0.97849727 0.374599
vt 0.96974516 0.34542516
vt 0.10717222 0.35125995
vt 0.09842007 0.3775164
vt 0.49615663 0.38043377
vt 0.49712908 0.35320485
vt 0.49518415 0.4241945
vt 0.10133745 0.42127714
vt 0.4893494 0.49712908
vt 0.08577807 0.49323925
vt 0.03326518 0.374599
vt 0.019650726 0.41835976
vt 0.10133745 0.42127714
vt 0.09842007 0.3775164
vt 0.08577807 0.49323925
vt 0.050769478 0.4815697
vt 0.8783338 0.3765439
vt 0.872499 0.42030466
vt 0.97557986 0.41835976
vt 0.97849727 0.374599
vt 0.9347365 0.4815697
vt 0.91042507 0.49226677
vn -0.06625986 0.011805832 0.9977326
vn -0.06625986 0.011805832 0.9977326
vn -0.06625986 0.011805832 0.9977326
vn -0.06625986 0.011805832 0.9977326
vn -0.06625986 -0.00375247 0.99779534
vn -0.06625986 -0.00375247 0.99779534
vn -0.06625986 -0.00375247 0.99779534
vn -0.06625986 -0.00375247 0.99779534
vn -0.06625986 0.089597225 0.9937716
vn -0.06625986 0.06625986 0.9956
vn -0.081818104 0.9608612 0.26467255
vn -0.097376466 0.81305754 0.57398194
vn -0.12071383 0.87529063 0.4682889
vn -0.10515559 0.93752384 0.33164948
vn -0.02736054 0.9996256 -0
vn -0.042922378 0.9841987 0.17178655
vn -0.081818104 0.93752384 0.33816394
vn -0.07403898 0.9608612 0.2669531
vn -0.10515559 0.890849 0.44196197
vn -0.10515559 0.890849 0.44196197
vn -0.07403898 0.042922378 0.9963312
vn -0.06625986 0.10515559 0.9922459
vn -0.06625986 0.11293471 0.99139065
vn -0.07403898 0.042922378 0.9963312
vn -0.035143256 0.40854216 0.91206264
vn -0.035143256 0.40854216 0.91206264
vn 0.042648137 0.9608612 0.2737278
vn 0.05820644 0.9219655 0.3828729
vn 0.08154386 0.8675115 0.49068767
vn 0.08154386 0.8675115 0.49068767
vn 0.027089894 0.9841987 0.1749831
vn 0.00375247 0.99975693 0.021725772
vn 0.07376474 0.9297446 0.36074054
vn 0.08154386 0.88306975 0.46210217
vn 0.07376474 0.81305754 0.5774913
vn 0.05820644 0.9608612 0.27084637
vn 0.05820644 0.06625986 0.9961032
vn 0.05820644 0.089597225 0.9942758
vn 0.07376474 -0.011531591 0.997209
vn 0.07376474 -0.011531591 0.997209
vn 0.07376474 -0.011531591 0.997209
vn 0.07376474 -0.011531591 0.997209
vn 0.07376474 0.011805832 0.9972058
vn 0.07376474 0.011805832 0.9972058
vn 0.07376474 -0.00375247 0.9972686
vn 0.07376474 -0.00375247 0.9972686
vn 0.089322984 0.11293471 0.98957926
vn 0.097102165 0.05848074 0.99355483
vn 0.097102165 0.05848074 0.99355483
vn 0.089322984 0.12071383 0.98866045
vn 0.06598556 0.3618673 0.92989135
vn 0.06598556 0.3618673 0.92989135
vn -0.9686403 0.10515559 0.22511826
vn -0.9686403 0.10515559 0.22511826
vn -0.9686403 0.10515559 0.22511826
vn -0.9686403 0.10515559 0.22511826
vn 0.9839244 0.10515559 0.14434361
vn 0.9839244 0.10515559 0.14434361
vn 0.9839244 0.10515559 0.14434361
vn 0.9839244 0.10515559 0.14434361
vn -0.97641945 0.06625986 0.20546211
vn -0.97641945 0.06625986 0.20546211
vn -0.97641945 0.06625986 0.20546211
vn -0.97641945 0.06625986 0.20546211
vn -0.9608612 0.15183043 0.23171808
vn -0.9608612 0.15183043 0.23171808
vn -0.26073837 0.9608612 0.09360143
vn -0.2996341 0.94530296 0.1289252
vn -0.49411273 0.8675115 0.057239395
vn -0.47077525 0.87529063 0.11062103
vn -0.02736054 0.9996256 -0
vn -0.042893298 0.99907964 -0
vn -0.30697328 0.9517181 -0
vn -0.31519234 0.94530296 0.08400034
vn -0.40800324 0.91298044 -0
vn -0.40800324 0.91298044 -0
vn 0.97614527 0.06625986 0.20676085
vn 0.97614527 0.06625986 0.20676085
vn 0.97614527 0.06625986 0.20676085
vn 0.97614527 0.06625986 0.20676085
vn 0.97614527 0.16738868 0.13828033
vn 0.97614527 0.15960956 0.14719106
vn 0.22866318 0.9735057 -0
vn 0.25241837 0.9676182 -0
vn 0.48548013 0.8742477 -0
vn 0.4548097 0.8905885 -0
vn 0.0348563 0.99939233 -0
vn 0.019310713 0.99975693 -0.010639043
vn 0.3369082 0.9415375 -0
vn 0.36921322 0.92934465 -0
vn 0.4548097 0.8905885 -0
vn 0.4548097 0.8905885 -0
vn -0.9686403 0.019585013 0.24769408
vn -0.9686403 0.019585013 0.24769408
vn -0.9686403 0.019585013 0.24769408
vn -0.9686403 0.019585013 0.24769408
vn 0.9839244 0.019585013 0.17750831
vn 0.9839244 0.019585013 0.17750831
vn 0.9839244 0.019585013 0.17750831
vn 0.9839244 0.019585013 0.17750831
vn -0.9686403 0.14405131 0.20244788
vn -0.9686403 0.14405131 0.20244788
vn -0.9686403 0.15183043 0.19668108
vn -0.9686403 0.15960956 0.19042248
vn -0.9530821 0.21406353 0.21403578
vn -0.9530821 0.21406353 0.21403578
vn 0.94502866 0.15960956 0.2853868
vn 0.94502866 0.15960956 0.2853868
vn 0.94502866 0.16738868 0.28089476
vn 0.94502866 0.16738868 0.28089476
vn 0.90613294 0.13627207 0.40044108
vn 0.90613294 0.13627207 0.40044108
vn 0.05820644 0.78972006 0.61069983
vn 0.05820644 0.78972006 0.61069983
vn 0.05820644 0.78972006 0.61069983
vn 0.05820644 0.78972006 0.61069983
vn 0.042648137 0.7741618 0.6315494
vn 0.042648137 0.7741618 0.6315494
vn 0.042648137 0.7741618 0.6315494
vn 0.042648137 0.7741618 0.6315494
vn -0.890849 0.40076292 -0.21395594
vn -0.890849 0.40076292 -0.21395594
vn -0.890849 0.40076292 -0.21395594
vn -0.890849 0.40076292 -0.21395594
vn 0.8983538 0.35408807 -0.25996554
vn 0.8983538 0.35408807 -0.25996554
vn 0.8983538 0.35408807 -0.25996554
vn 0.8983538 0.35408807 -0.25996554
vn -0.035143256 0.7974992 0.60229564
vn -0.035143256 0.7974992 0.60229564
vn -0.035143256 0.7974992 0.60229564
vn -0.035143256 0.7974992 0.60229564
vn -0.019585013 0.7741618 0.6326847
vn -0.019585013 0.7741618 0.6326847
vn -0.019585013 0.7741618 0.6326847
vn -0.019585013 0.7741618 0.6326847
vn -0.9686403 0.24518013 0.040281907
vn -0.94530296 0.22184265 0.23914038
vn -0.9297446 0.2062844 0.30499467
vn -0.9686403 0.24518013 0.040281907
vn -0.9219655 0.19850528 0.33252865
vn -0.9219655 0.19850528 0.33252865
vn 0.97614527 0.21406353 0.0362936
vn 0.93724954 0.18294692 0.2968059
vn 0.96058697 0.19850528 0.19459781
vn 0.97614527 0.21406353 0.0362936
vn 0.9294704 0.18294692 0.320336
vn 0.9294704 0.18294692 0.320336
g laveTrapLava_0
f 3/3/3 2/2/2 1/1/1
f 4/4/4 3/3/3 1/1/1
f 4/4/4 1/1/1 5/5/5
f 6/6/6 4/4/4 5/5/5
f 3/3/3 7/7/7 2/2/2
f 7/7/7 8/8/8 2/2/2
f 6/6/6 5/5/5 9/9/9
f 10/10/10 6/6/6 9/9/9
f 10/10/10 9/9/9 11/11/11
f 12/12/12 10/10/10 11/11/11
f 12/12/12 11/11/11 13/13/13
f 14/14/14 12/12/12 13/13/13
f 14/14/14 13/13/13 15/15/15
f 16/16/16 14/14/14 15/15/15
f 16/16/16 15/15/15 17/17/17
f 18/18/18 16/16/16 17/17/17
f 18/18/18 17/17/17 19/19/19
f 20/20/20 18/18/18 19/19/19
f 23/23/23 22/22/22 21/21/21
f 24/24/24 23/23/23 21/21/21
f 22/22/22 23/23/23 25/25/25
f 23/23/23 26/26/26 25/25/25
f 29/29/29 28/28/28 27/27/27
f 30/30/30 29/29/29 27/27/27
f 27/27/27 28/28/28 31/31/31
f 28/28/28 32/32/32 31/31/31
f 31/31/31 32/32/32 33/33/33
f 32/32/32 34/34/34 33/33/33
f 33/33/33 34/34/34 35/35/35
f 34/34/34 36/36/36 35/35/35
f 35/35/35 36/36/36 37/37/37
f 36/36/36 38/38/38 37/37/37
f 37/37/37 38/38/38 39/39/39
f 38/38/38 40/40/40 39/39/39
f 39/39/39 40/40/40 41/41/41
f 40/40/40 42/42/42 41/41/41
f 41/41/41 42/42/42 43/43/43
f 42/42/42 44/44/44 43/43/43
f 43/43/43 44/44/44 45/45/45
f 44/44/44 46/46/46 45/45/45
f 49/49/49 48/48/48 47/47/47
f 50/50/50 49/49/49 47/47/47
f 50/50/50 47/47/47 51/51/51
f 47/47/47 52/52/52 51/51/51
f 55/55/55 54/54/54 53/53/53
f 56/56/56 55/55/55 53/53/53
f 59/59/59 58/58/58 57/57/57
f 60/60/60 59/59/59 57/57/57
f 63/63/63 62/62/62 61/61/61
f 64/64/64 63/63/63 61/61/61
f 61/61/61 62/62/62 65/65/65
f 66/66/66 61/61/61 65/65/65
f 66/66/66 65/65/65 67/67/67
f 68/68/68 66/66/66 67/67/67
f 68/68/68 67/67/67 69/69/69
f 70/70/70 68/68/68 69/69/69
f 70/70/70 69/69/69 71/71/71
f 72/72/72 70/70/70 71/71/71
f 72/72/72 71/71/71 73/73/73
f 74/74/74 72/72/72 73/73/73
f 74/74/74 73/73/73 75/75/75
f 73/73/73 76/76/76 75/75/75
f 79/79/79 78/78/78 77/77/77
f 80/80/80 79/79/79 77/77/77
f 81/81/81 79/79/79 80/80/80
f 82/82/82 81/81/81 80/80/80
f 83/83/83 81/81/81 82/82/82
f 84/84/84 83/83/83 82/82/82
f 85/85/85 83/83/83 84/84/84
f 86/86/86 85/85/85 84/84/84
f 87/87/87 85/85/85 86/86/86
f 88/88/88 87/87/87 86/86/86
f 89/89/89 87/87/87 88/88/88
f 90/90/90 89/89/89 88/88/88
f 91/91/91 89/89/89 90/90/90
f 92/92/92 91/91/91 90/90/90
f 95/95/95 94/94/94 93/93/93
f 96/96/96 95/95/95 93/93/93
f 99/99/99 98/98/98 97/97/97
f 100/100/100 99/99/99 97/97/97
f 103/103/103 102/102/102 101/101/101
f 104/104/104 103/103/103 101/101/101
f 105/105/105 103/103/103 104/104/104
f 106/106/106 105/105/105 104/104/104
f 109/109/109 108/108/108 107/107/107
f 110/110/110 109/109/109 107/107/107
f 107/107/107 108/108/108 111/111/111
f 112/112/112 107/107/107 111/111/111
f 115/115/115 114/114/114 113/113/113
f 116/116/116 115/115/115 113/113/113
f 115/115/115 117/117/117 114/114/114
f 117/117/117 118/118/118 114/114/114
f 117/117/117 119/119/119 118/118/118
f 119/119/119 120/120/120 118/118/118
f 123/123/123 122/122/122 121/121/121
f 124/124/124 123/123/123 121/121/121
f 127/127/127 126/126/126 125/125/125
f 128/128/128 127/127/127 125/125/125
f 131/131/131 130/130/130 129/129/129
f 132/132/132 131/131/131 129/129/129
f 131/131/131 133/133/133 130/130/130
f 133/133/133 134/134/134 130/130/130
f 133/133/133 135/135/135 134/134/134
f 135/135/135 136/136/136 134/134/134
f 139/139/139 138/138/138 137/137/137
f 140/140/140 139/139/139 137/137/137
f 139/139/139 141/141/141 138/138/138
f 141/141/141 142/142/142 138/138/138
f 145/145/145 144/144/144 143/143/143
f 146/146/146 145/145/145 143/143/143
f 145/145/145 147/147/147 144/144/144
f 147/147/147 148/148/148 144/144/144
