g lockpicksDisplay
v -0.0194394 0.69062376 -0.22342357
v 0.01642719 0.69795966 -0.17093363
v -0.19870013 0.6474211 -0.016860843
v -0.23456675 0.6400671 -0.06935075
v 0.01642719 0.69795966 -0.17093363
v 0.023907691 0.58932996 -0.16085124
v -0.01830107 0.5954553 -0.13286266
v -0.048710883 0.49219197 -0.097646534
v 0.030557007 0.49260753 -0.15187106
v 0.05520287 -0.48139206 -0.046096176
v 0.08357093 -0.4812475 -0.06548402
v 0.01642719 0.69795966 -0.17093363
v -0.19870013 0.6474211 -0.016860843
v 0.08357093 -0.4812475 -0.06548402
v 0.060225993 -0.48603576 -0.09967023
v 0.031857967 -0.4861803 -0.08026433
v 0.05520287 -0.48139206 -0.046096176
v -0.011976987 0.58199394 -0.21334115
v -0.0194394 0.69062376 -0.22342357
v -0.23456675 0.6400671 -0.06935075
v -0.054167688 0.58810127 -0.18535256
v -0.0053096116 0.48527157 -0.20436096
v -0.0845775 0.484856 -0.15013644
v 0.060225993 -0.48603576 -0.09967023
v 0.031857967 -0.4861803 -0.08026433
v -0.23456675 0.6400671 -0.06935075
v -0.19870013 0.6474211 -0.016860843
v -0.01830107 0.5954553 -0.13286266
v -0.054167688 0.58810127 -0.18535256
v -0.011976987 0.58199394 -0.21334115
v 0.023907691 0.58932996 -0.16085124
v 0.01642719 0.69795966 -0.17093363
v -0.0194394 0.69062376 -0.22342357
v -0.0053096116 0.48527157 -0.20436096
v 0.030557007 0.49260753 -0.15187106
v 0.060225993 -0.48603576 -0.09967023
v 0.08357093 -0.4812475 -0.06548402
v -0.048710883 0.49219197 -0.097646534
v 0.05520287 -0.48139206 -0.046096176
v 0.031857967 -0.4861803 -0.08026433
v -0.0845775 0.484856 -0.15013644
v -0.01830107 0.5954553 -0.13286266
v -0.048710883 0.49219197 -0.097646534
v -0.0845775 0.484856 -0.15013644
v -0.054167688 0.58810127 -0.18535256
v -0.32362795 0.5485667 0.11117482
v -0.27879924 0.5669427 0.1406812
v -0.3166715 0.43545586 0.28010017
v -0.3615002 0.41707987 0.25059378
v -0.27879924 0.5669427 0.1406812
v -0.22813427 0.48942745 0.11200595
v -0.2487508 0.46606445 0.15788269
v -0.21653408 0.367481 0.17036825
v -0.18301642 0.4204226 0.08647472
v 0.24982211 -0.30166155 -0.13078472
v 0.265018 -0.2776842 -0.16878346
v -0.27879924 0.5669427 0.1406812
v -0.3166715 0.43545586 0.28010017
v 0.265018 -0.2776842 -0.16878346
v 0.22808531 -0.29282588 -0.19308603
v 0.21288943 -0.31680322 -0.15510535
v 0.24982211 -0.30166155 -0.13078472
v -0.272963 0.47105145 0.08249956
v -0.32362795 0.5485667 0.11117482
v -0.3615002 0.41707987 0.25059378
v -0.29357952 0.4476704 0.1283763
v -0.22784513 0.40204662 0.05696833
v -0.2613628 0.34908694 0.14086187
v 0.22808531 -0.29282588 -0.19308603
v 0.21288943 -0.31680322 -0.15510535
v -0.3615002 0.41707987 0.25059378
v -0.3166715 0.43545586 0.28010017
v -0.2487508 0.46606445 0.15788269
v -0.29357952 0.4476704 0.1283763
v -0.272963 0.47105145 0.08249956
v -0.22813427 0.48942745 0.11200595
v -0.27879924 0.5669427 0.1406812
v -0.32362795 0.5485667 0.11117482
v -0.22784513 0.40204662 0.05696833
v -0.18301642 0.4204226 0.08647472
v 0.22808531 -0.29282588 -0.19308603
v 0.265018 -0.2776842 -0.16878346
v -0.21653408 0.367481 0.17036825
v 0.24982211 -0.30166155 -0.13078472
v 0.21288943 -0.31680322 -0.15510535
v -0.2613628 0.34908694 0.14086187
v -0.2487508 0.46606445 0.15788269
v -0.21653408 0.367481 0.17036825
v -0.2613628 0.34908694 0.14086187
v -0.29357952 0.4476704 0.1283763
v 0.31040686 0.57404375 -0.19534463
v 0.3548742 0.5423871 -0.21077538
v 0.36150545 0.46440214 -0.031803757
v 0.31702003 0.4960587 -0.016354918
v 0.3548742 0.5423871 -0.21077538
v 0.29707205 0.46494418 -0.21850884
v 0.30999127 0.45706618 -0.16515163
v 0.26373512 0.372468 -0.12496656
v 0.24561207 0.3959936 -0.225375
v -0.27298105 -0.30113757 -0.24745509
v -0.27887148 -0.29347637 -0.28010544
v 0.3548742 0.5423871 -0.21077538
v 0.36150545 0.46440214 -0.031803757
v -0.27887148 -0.29347637 -0.28010544
v -0.30517972 -0.274739 -0.27096263
v -0.2992893 -0.2824002 -0.23831227
v -0.27298105 -0.30113757 -0.24745509
v 0.25260472 0.49660075 -0.20306
v 0.31040686 0.57404375 -0.19534463
v 0.31702003 0.4960587 -0.016354918
v 0.2655239 0.48872274 -0.14970279
v 0.2011447 0.42765015 -0.20994422
v 0.21924967 0.40412456 -0.10951772
v -0.30517972 -0.274739 -0.27096263
v -0.2992893 -0.2824002 -0.23831227
v 0.31702003 0.4960587 -0.016354918
v 0.36150545 0.46440214 -0.031803757
v 0.30999127 0.45706618 -0.16515163
v 0.2655239 0.48872274 -0.14970279
v 0.25260472 0.49660075 -0.20306
v 0.29707205 0.46494418 -0.21850884
v 0.3548742 0.5423871 -0.21077538
v 0.31040686 0.57404375 -0.19534463
v 0.2011447 0.42765015 -0.20994422
v 0.24561207 0.3959936 -0.225375
v -0.30517972 -0.274739 -0.27096263
v -0.27887148 -0.29347637 -0.28010544
v 0.26373512 0.372468 -0.12496656
v -0.27298105 -0.30113757 -0.24745509
v -0.2992893 -0.2824002 -0.23831227
v 0.21924967 0.40412456 -0.10951772
v 0.30999127 0.45706618 -0.16515163
v 0.26373512 0.372468 -0.12496656
v 0.21924967 0.40412456 -0.10951772
v 0.2655239 0.48872274 -0.14970279
vt 0.9324465 0.5367908
vt 0.9324465 0.55234057
vt 0.9549073 0.55234057
vt 0.9549073 0.5367908
vt 0.9324465 0.55234057
vt 0.9324465 0.5532045
vt 0.9549073 0.5532045
vt 0.9549073 0.5540683
vt 0.9324465 0.5540683
vt 0.9549073 0.5670265
vt 0.9324465 0.5670265
vt 0.9324465 0.55234057
vt 0.9549073 0.55234057
vt 0.9324465 0.5670265
vt 0.9324465 0.5825763
vt 0.9549073 0.5825763
vt 0.9549073 0.5670265
vt 0.9324465 0.5972622
vt 0.9324465 0.59812605
vt 0.9549073 0.59812605
vt 0.9549073 0.5972622
vt 0.9324465 0.59553444
vt 0.9549073 0.59553444
vt 0.9324465 0.5825763
vt 0.9549073 0.5825763
vt 0.9549073 0.5367908
vt 0.9549073 0.55234057
vt 0.9566351 0.55234057
vt 0.9566351 0.5367908
vt 0.9307188 0.5367908
vt 0.9307188 0.55234057
vt 0.9324465 0.55234057
vt 0.9324465 0.5367908
vt 0.928991 0.5367908
vt 0.928991 0.55234057
vt 0.9091219 0.5367908
vt 0.9091219 0.55234057
vt 0.9583628 0.55234057
vt 0.978232 0.55234057
vt 0.978232 0.5367908
vt 0.9583628 0.5367908
vt 0.9566351 0.55234057
vt 0.9583628 0.55234057
vt 0.9583628 0.5367908
vt 0.9566351 0.5367908
vt 0.9324465 0.5367908
vt 0.9324465 0.55234057
vt 0.9549073 0.55234057
vt 0.9549073 0.5367908
vt 0.9324465 0.55234057
vt 0.9324465 0.5532045
vt 0.9549073 0.5532045
vt 0.9549073 0.5540683
vt 0.9324465 0.5540683
vt 0.9549073 0.5670265
vt 0.9324465 0.5670265
vt 0.9324465 0.55234057
vt 0.9549073 0.55234057
vt 0.9324465 0.5670265
vt 0.9324465 0.5825763
vt 0.9549073 0.5825763
vt 0.9549073 0.5670265
vt 0.9324465 0.5972622
vt 0.9324465 0.59812605
vt 0.9549073 0.59812605
vt 0.9549073 0.5972622
vt 0.9324465 0.59553444
vt 0.9549073 0.59553444
vt 0.9324465 0.5825763
vt 0.9549073 0.5825763
vt 0.9549073 0.5367908
vt 0.9549073 0.55234057
vt 0.9566351 0.55234057
vt 0.9566351 0.5367908
vt 0.9307188 0.5367908
vt 0.9307188 0.55234057
vt 0.9324465 0.55234057
vt 0.9324465 0.5367908
vt 0.928991 0.5367908
vt 0.928991 0.55234057
vt 0.9091219 0.5367908
vt 0.9091219 0.55234057
vt 0.9583628 0.55234057
vt 0.978232 0.55234057
vt 0.978232 0.5367908
vt 0.9583628 0.5367908
vt 0.9566351 0.55234057
vt 0.9583628 0.55234057
vt 0.9583628 0.5367908
vt 0.9566351 0.5367908
vt 0.9324465 0.5367908
vt 0.9324465 0.55234057
vt 0.9549073 0.55234057
vt 0.9549073 0.5367908
vt 0.9324465 0.55234057
vt 0.9324465 0.5532045
vt 0.9549073 0.5532045
vt 0.9549073 0.5540683
vt 0.9324465 0.5540683
vt 0.9549073 0.5670265
vt 0.9324465 0.5670265
vt 0.9324465 0.55234057
vt 0.9549073 0.55234057
vt 0.9324465 0.5670265
vt 0.9324465 0.5825763
vt 0.9549073 0.5825763
vt 0.9549073 0.5670265
vt 0.9324465 0.5972622
vt 0.9324465 0.59812605
vt 0.9549073 0.59812605
vt 0.9549073 0.5972622
vt 0.9324465 0.59553444
vt 0.9549073 0.59553444
vt 0.9324465 0.5825763
vt 0.9549073 0.5825763
vt 0.9549073 0.5367908
vt 0.9549073 0.55234057
vt 0.9566351 0.55234057
vt 0.9566351 0.5367908
vt 0.9307188 0.5367908
vt 0.9307188 0.55234057
vt 0.9324465 0.55234057
vt 0.9324465 0.5367908
vt 0.928991 0.5367908
vt 0.928991 0.55234057
vt 0.9091219 0.5367908
vt 0.9091219 0.55234057
vt 0.9583628 0.55234057
vt 0.978232 0.55234057
vt 0.978232 0.5367908
vt 0.9583628 0.5367908
vt 0.9566351 0.55234057
vt 0.9583628 0.55234057
vt 0.9583628 0.5367908
vt 0.9566351 0.5367908
vn -0.21883976 0.9755169 0.021814754
vn -0.21883976 0.9755169 0.021814754
vn -0.21883976 0.9755169 0.021814754
vn -0.21883976 0.9755169 0.021814754
vn 0.56100106 0.11846423 0.8192948
vn 0.56100106 0.11846423 0.8192948
vn 0.56100106 0.11846423 0.8192948
vn 0.56100106 0.10302186 0.82137954
vn 0.56100106 0.10302186 0.82137954
vn 0.56100106 0.10302186 0.82137954
vn 0.56100106 0.10302186 0.82137954
vn 0.56100106 0.11846423 0.8192948
vn 0.56100106 0.11846423 0.8192948
vn 0.06684452 -0.99338806 0.093338065
vn 0.06684452 -0.99338806 0.093338065
vn 0.06684452 -0.99338806 0.093338065
vn 0.06684452 -0.99338806 0.093338065
vn -0.5585724 -0.1131717 -0.82169884
vn -0.5585724 -0.1131717 -0.82169884
vn -0.5585724 -0.1131717 -0.82169884
vn -0.5585724 -0.1131717 -0.82169884
vn -0.5585724 -0.12861407 -0.81942374
vn -0.5585724 -0.12861407 -0.81942374
vn -0.5585724 -0.12861407 -0.81942374
vn -0.5585724 -0.12861407 -0.81942374
vn -0.1339066 -0.96250325 0.23591629
vn -0.1339066 -0.96250325 0.23591629
vn -0.1339066 -0.96250325 0.23591629
vn -0.1339066 -0.96250325 0.23591629
vn 0.82352173 0.0026462674 -0.56727856
vn 0.82352173 0.0026462674 -0.56727856
vn 0.82352173 0.0026462674 -0.56727856
vn 0.82352173 0.0026462674 -0.56727856
vn 0.82352173 -0.0050749183 -0.56726205
vn 0.82352173 -0.0050749183 -0.56726205
vn 0.82352173 -0.0050749183 -0.56726205
vn 0.82352173 -0.0050749183 -0.56726205
vn -0.8210931 -0.059123337 0.56772405
vn -0.8210931 -0.059123337 0.56772405
vn -0.8210931 -0.059123337 0.56772405
vn -0.8210931 -0.059123337 0.56772405
vn -0.78248703 0.39642727 0.48016605
vn -0.78248703 0.39642727 0.48016605
vn -0.78248703 0.39642727 0.48016605
vn -0.78248703 0.39642727 0.48016605
vn -0.58173597 0.66666913 0.4659781
vn -0.58173597 0.66666913 0.4659781
vn -0.58173597 0.66666913 0.4659781
vn -0.58173597 0.66666913 0.4659781
vn 0.792637 0.32693648 0.5146252
vn 0.792637 0.32693648 0.5146252
vn 0.792637 0.32693648 0.5146252
vn 0.792637 0.3192153 0.5194499
vn 0.792637 0.3192153 0.5194499
vn 0.792637 0.3192153 0.5194499
vn 0.792637 0.3192153 0.5194499
vn 0.792637 0.32693648 0.5146252
vn 0.792637 0.32693648 0.5146252
vn 0.5223951 -0.8003582 -0.29416007
vn 0.5223951 -0.8003582 -0.29416007
vn 0.5223951 -0.8003582 -0.29416007
vn 0.5223951 -0.8003582 -0.29416007
vn -0.7902082 -0.321644 -0.52164745
vn -0.7902082 -0.321644 -0.52164745
vn -0.7902082 -0.321644 -0.52164745
vn -0.7902082 -0.321644 -0.52164745
vn -0.7902082 -0.3293652 -0.516807
vn -0.7902082 -0.3293652 -0.516807
vn -0.7902082 -0.3293652 -0.516807
vn -0.7902082 -0.3293652 -0.516807
vn 0.38985568 -0.92087597 -0
vn 0.38985568 -0.92087597 -0
vn 0.38985568 -0.92087597 -0
vn 0.38985568 -0.92087597 -0
vn 0.321644 0.504524 -0.80124944
vn 0.321644 0.504524 -0.80124944
vn 0.321644 0.504524 -0.80124944
vn 0.321644 0.504524 -0.80124944
vn 0.321644 0.504524 -0.80124944
vn 0.321644 0.504524 -0.80124944
vn 0.321644 0.504524 -0.80124944
vn 0.321644 0.504524 -0.80124944
vn -0.28833055 -0.5532799 0.78150296
vn -0.28833055 -0.5532799 0.78150296
vn -0.28833055 -0.5532799 0.78150296
vn -0.28833055 -0.5532799 0.78150296
vn -0.52768755 -0.06684452 0.8468044
vn -0.52768755 -0.06684452 0.8468044
vn -0.52768755 -0.06684452 0.8468044
vn -0.52768755 -0.06684452 0.8468044
vn 0.62277067 0.72843874 0.28554103
vn 0.62277067 0.72843874 0.28554103
vn 0.62277067 0.72843874 0.28554103
vn 0.62277067 0.72843874 0.28554103
vn 0.78491575 -0.56100106 -0.26303056
vn 0.78491575 -0.56100106 -0.26303056
vn 0.78491575 -0.56100106 -0.26303056
vn 0.77719456 -0.56872225 -0.2693021
vn 0.77719456 -0.56872225 -0.2693021
vn 0.77719456 -0.56872225 -0.2693021
vn 0.77719456 -0.56872225 -0.2693021
vn 0.78491575 -0.56100106 -0.26303056
vn 0.78491575 -0.56100106 -0.26303056
vn -0.59717834 -0.8003582 -0.05296051
vn -0.59717834 -0.8003582 -0.05296051
vn -0.59717834 -0.8003582 -0.05296051
vn -0.59717834 -0.8003582 -0.05296051
vn -0.78248703 0.5585724 0.2751561
vn -0.78248703 0.5585724 0.2751561
vn -0.78248703 0.5585724 0.2751561
vn -0.78248703 0.5585724 0.2751561
vn -0.7902082 0.5508512 0.2685775
vn -0.7902082 0.5508512 0.2685775
vn -0.7902082 0.5508512 0.2685775
vn -0.7902082 0.5508512 0.2685775
vn -0.504524 -0.8312429 0.2334324
vn -0.504524 -0.8312429 0.2334324
vn -0.504524 -0.8312429 0.2334324
vn -0.504524 -0.8312429 0.2334324
vn -0.17251253 0.22656095 -0.9585977
vn -0.17251253 0.22656095 -0.9585977
vn -0.17251253 0.22656095 -0.9585977
vn -0.17251253 0.22656095 -0.9585977
vn -0.18023372 0.21111858 -0.96070015
vn -0.18023372 0.21111858 -0.96070015
vn -0.18023372 0.21111858 -0.96070015
vn -0.18023372 0.21111858 -0.96070015
vn 0.12861407 -0.27531683 0.9527114
vn 0.12861407 -0.27531683 0.9527114
vn 0.12861407 -0.27531683 0.9527114
vn 0.12861407 -0.27531683 0.9527114
vn 0.4374619 0.18023372 0.88098973
vn 0.4374619 0.18023372 0.88098973
vn 0.4374619 0.18023372 0.88098973
vn 0.4374619 0.18023372 0.88098973
g lockpicksDisplay_0
f 3/3/3 2/2/2 1/1/1
f 4/4/4 3/3/3 1/1/1
f 7/7/7 6/6/6 5/5/5
f 7/7/7 8/8/8 6/6/6
f 8/8/8 9/9/9 6/6/6
f 8/8/8 10/10/10 9/9/9
f 10/10/10 11/11/11 9/9/9
f 13/13/13 7/7/7 12/12/12
f 16/16/16 15/15/15 14/14/14
f 17/17/17 16/16/16 14/14/14
f 20/20/20 19/19/19 18/18/18
f 21/21/21 20/20/20 18/18/18
f 21/21/21 18/18/18 22/22/22
f 23/23/23 21/21/21 22/22/22
f 23/23/23 22/22/22 24/24/24
f 25/25/25 23/23/23 24/24/24
f 28/28/28 27/27/27 26/26/26
f 29/29/29 28/28/28 26/26/26
f 32/32/32 31/31/31 30/30/30
f 33/33/33 32/32/32 30/30/30
f 30/30/30 31/31/31 34/34/34
f 31/31/31 35/35/35 34/34/34
f 34/34/34 35/35/35 36/36/36
f 35/35/35 37/37/37 36/36/36
f 40/40/40 39/39/39 38/38/38
f 41/41/41 40/40/40 38/38/38
f 44/44/44 43/43/43 42/42/42
f 45/45/45 44/44/44 42/42/42
f 48/48/48 47/47/47 46/46/46
f 49/49/49 48/48/48 46/46/46
f 52/52/52 51/51/51 50/50/50
f 52/52/52 53/53/53 51/51/51
f 53/53/53 54/54/54 51/51/51
f 53/53/53 55/55/55 54/54/54
f 55/55/55 56/56/56 54/54/54
f 58/58/58 52/52/52 57/57/57
f 61/61/61 60/60/60 59/59/59
f 62/62/62 61/61/61 59/59/59
f 65/65/65 64/64/64 63/63/63
f 66/66/66 65/65/65 63/63/63
f 66/66/66 63/63/63 67/67/67
f 68/68/68 66/66/66 67/67/67
f 68/68/68 67/67/67 69/69/69
f 70/70/70 68/68/68 69/69/69
f 73/73/73 72/72/72 71/71/71
f 74/74/74 73/73/73 71/71/71
f 77/77/77 76/76/76 75/75/75
f 78/78/78 77/77/77 75/75/75
f 75/75/75 76/76/76 79/79/79
f 76/76/76 80/80/80 79/79/79
f 79/79/79 80/80/80 81/81/81
f 80/80/80 82/82/82 81/81/81
f 85/85/85 84/84/84 83/83/83
f 86/86/86 85/85/85 83/83/83
f 89/89/89 88/88/88 87/87/87
f 90/90/90 89/89/89 87/87/87
f 93/93/93 92/92/92 91/91/91
f 94/94/94 93/93/93 91/91/91
f 97/97/97 96/96/96 95/95/95
f 97/97/97 98/98/98 96/96/96
f 98/98/98 99/99/99 96/96/96
f 98/98/98 100/100/100 99/99/99
f 100/100/100 101/101/101 99/99/99
f 103/103/103 97/97/97 102/102/102
f 106/106/106 105/105/105 104/104/104
f 107/107/107 106/106/106 104/104/104
f 110/110/110 109/109/109 108/108/108
f 111/111/111 110/110/110 108/108/108
f 111/111/111 108/108/108 112/112/112
f 113/113/113 111/111/111 112/112/112
f 113/113/113 112/112/112 114/114/114
f 115/115/115 113/113/113 114/114/114
f 118/118/118 117/117/117 116/116/116
f 119/119/119 118/118/118 116/116/116
f 122/122/122 121/121/121 120/120/120
f 123/123/123 122/122/122 120/120/120
f 120/120/120 121/121/121 124/124/124
f 121/121/121 125/125/125 124/124/124
f 124/124/124 125/125/125 126/126/126
f 125/125/125 127/127/127 126/126/126
f 130/130/130 129/129/129 128/128/128
f 131/131/131 130/130/130 128/128/128
f 134/134/134 133/133/133 132/132/132
f 135/135/135 134/134/134 132/132/132
