g loreShopFlag
v 0.009093165 3.8476458 -0.038592994
v 0.20506144 3.8041282 -0.07032454
v 0.06516379 3.7384334 -0.03524548
v 0.20506144 3.8041282 -0.07032454
v 0.2055496 3.701611 -0.06983632
v 0.06516379 3.7384334 -0.03524548
v 0.37508652 3.784113 -0.07325357
v 0.50807995 3.7484064 -0.10735625
v 0.37111136 3.6843853 -0.076949775
v 0.50068754 3.6508408 -0.114260435
v 0.20506144 3.8041282 -0.07032454
v 0.37508652 3.784113 -0.07325357
v 0.2055496 3.701611 -0.06983632
v 0.37508652 3.784113 -0.07325357
v 0.37111136 3.6843853 -0.076949775
v 0.2055496 3.701611 -0.06983632
v 0.06516379 3.7384334 -0.03524548
v 0.2055496 3.701611 -0.06983632
v 0.011185348 3.629291 -0.03196776
v 0.2055496 3.701611 -0.06983632
v 0.22535563 3.587029 -0.051285625
v 0.011185348 3.629291 -0.03196776
v 0.2055496 3.701611 -0.06983632
v 0.37111136 3.6843853 -0.076949775
v 0.22535563 3.587029 -0.051285625
v 0.37111136 3.6843853 -0.076949775
v 0.34767887 3.5968623 -0.098847985
v 0.22535563 3.587029 -0.051285625
v 0.37111136 3.6843853 -0.076949775
v 0.50068754 3.6508408 -0.114260435
v 0.34767887 3.5968623 -0.098847985
v 0.50068754 3.6508408 -0.114260435
v 0.5165184 3.5387692 -0.09947568
v 0.34767887 3.5968623 -0.098847985
v 0.6332625 3.713955 -0.09745324
v 0.72266865 3.6908016 -0.13037032
v 0.60983 3.6538396 -0.11935145
v 0.50068754 3.6508408 -0.114260435
v 0.50807995 3.7484064 -0.10735625
v 0.60983 3.6538396 -0.11935145
v 0.50807995 3.7484064 -0.10735625
v 0.6332625 3.713955 -0.09745324
v 0.60983 3.6538396 -0.11935145
v 0.50068754 3.6508408 -0.114260435
v 0.622941 3.5908647 -0.10714704
v 0.5165184 3.5387692 -0.09947568
v 0.622941 3.5908647 -0.10714704
v 0.5971374 3.532144 -0.1312769
v 0.5165184 3.5387692 -0.09947568
v 0.7227384 3.5251002 -0.13030058
v 0.5971374 3.532144 -0.1312769
v 0.622941 3.5908647 -0.10714704
vt 0.08836219 0.14538202
vt 0.2945108 0.14538202
vt 0.11818795 0.0795899
vt 0.2945108 0.14538202
vt 0.2945108 0.0795899
vt 0.11818795 0.0795899
vt 0.4997822 0.14538202
vt 0.7059308 0.14538202
vt 0.4997822 0.0795899
vt 0.7059308 0.0795899
vt 0.2945108 0.14538202
vt 0.4997822 0.14538202
vt 0.2945108 0.0795899
vt 0.4997822 0.14538202
vt 0.4997822 0.0795899
vt 0.2945108 0.0795899
vt 0.11818795 0.0795899
vt 0.2945108 0.0795899
vt 0.08836219 0.01379779
vt 0.2945108 0.0795899
vt 0.2945108 0.01379779
vt 0.08836219 0.01379779
vt 0.2945108 0.0795899
vt 0.4997822 0.0795899
vt 0.2945108 0.01379779
vt 0.4997822 0.0795899
vt 0.4997822 0.01379779
vt 0.2945108 0.01379779
vt 0.4997822 0.0795899
vt 0.7059308 0.0795899
vt 0.4997822 0.01379779
vt 0.7059308 0.0795899
vt 0.7059308 0.01379779
vt 0.4997822 0.01379779
vt 0.8085666 0.14538202
vt 0.9112022 0.14538202
vt 0.8085666 0.11204735
vt 0.7059308 0.0795899
vt 0.7059308 0.14538202
vt 0.8085666 0.11204735
vt 0.7059308 0.14538202
vt 0.8085666 0.14538202
vt 0.8085666 0.11204735
vt 0.7059308 0.0795899
vt 0.8085666 0.046255235
vt 0.7059308 0.01379779
vt 0.8085666 0.046255235
vt 0.8085666 0.01379779
vt 0.7059308 0.01379779
vt 0.9112022 0.01379779
vt 0.8085666 0.01379779
vt 0.8085666 0.046255235
vn 0.18476382 0.12566158 0.9747161
vn 0.18476382 0.12566158 0.9747161
vn 0.18476382 0.12566158 0.9747161
vn 0.24074218 0.006071478 0.9705701
vn 0.24074218 0.006071478 0.9705701
vn 0.24074218 0.006071478 0.9705701
vn 0.23565324 -0.044817954 0.9708032
vn 0.23565324 -0.044817954 0.9708032
vn 0.23565324 -0.044817954 0.9708032
vn 0.25346452 -0.08807394 0.96332693
vn 0.016828775 0.0035269856 0.9998522
vn 0.016828775 0.0035269856 0.9998522
vn 0.016828775 0.0035269856 0.9998522
vn 0.039729 -0.039729 0.99842036
vn 0.039729 -0.039729 0.99842036
vn 0.039729 -0.039729 0.99842036
vn 0.21784195 -0.07789606 0.9728705
vn 0.21784195 -0.07789606 0.9728705
vn 0.21784195 -0.07789606 0.9728705
vn 0.123696536 0.17909548 0.9760246
vn 0.123696536 0.17909548 0.9760246
vn 0.123696536 0.17909548 0.9760246
vn 0.06008476 0.16891757 0.9837971
vn 0.06008476 0.16891757 0.9837971
vn 0.06008476 0.16891757 0.9837971
vn 0.36542124 -0.3170763 0.8751743
vn 0.36542124 -0.3170763 0.8751743
vn 0.36542124 -0.3170763 0.8751743
vn 0.1949417 -0.28654265 0.93802506
vn 0.1949417 -0.28654265 0.93802506
vn 0.1949417 -0.28654265 0.93802506
vn 0.04990688 0.13838395 0.9891204
vn 0.04990688 0.13838395 0.9891204
vn 0.04990688 0.13838395 0.9891204
vn 0.22038642 -0.40867725 0.8856708
vn 0.22038642 -0.40867725 0.8856708
vn 0.22038642 -0.40867725 0.8856708
vn 0.04990688 -0.075351596 0.9959073
vn 0.04990688 -0.075351596 0.9959073
vn 0.04990688 -0.075351596 0.9959073
vn -0.15365073 -0.28654265 0.9456663
vn -0.15365073 -0.28654265 0.9456663
vn -0.15365073 -0.28654265 0.9456663
vn 0.006650895 0.1307505 0.991393
vn 0.006650895 0.1307505 0.991393
vn 0.006650895 0.1307505 0.991393
vn 0.28908712 -0.46974453 0.83412755
vn 0.28908712 -0.46974453 0.83412755
vn 0.28908712 -0.46974453 0.83412755
vn -0.02642724 -0.3679657 0.92946374
vn -0.02642724 -0.3679657 0.92946374
vn -0.02642724 -0.3679657 0.92946374
g loreShopFlag_0
f 3/3/3 2/2/2 1/1/1
f 6/6/6 5/5/5 4/4/4
f 9/9/9 8/8/8 7/7/7
f 9/9/9 10/10/10 8/8/8
f 13/13/13 12/12/12 11/11/11
f 16/16/16 15/15/15 14/14/14
f 19/19/19 18/18/18 17/17/17
f 22/22/22 21/21/21 20/20/20
f 25/25/25 24/24/24 23/23/23
f 28/28/28 27/27/27 26/26/26
f 31/31/31 30/30/30 29/29/29
f 34/34/34 33/33/33 32/32/32
f 37/37/37 36/36/36 35/35/35
f 40/40/40 39/39/39 38/38/38
f 43/43/43 42/42/42 41/41/41
f 46/46/46 45/45/45 44/44/44
f 49/49/49 48/48/48 47/47/47
f 52/52/52 51/51/51 50/50/50
