g loreBookMark01
v 6.67572E-06 -0.09316552 0.21456337
v 6.67572E-06 -6.67572E-06 -6.67572E-06
v 0.39660966 -6.67572E-06 -6.67572E-06
v 0.39660966 -0.09932482 0.21456337
v -0.3966298 -0.116731405 0.21456337
v -0.3966298 -6.67572E-06 -6.67572E-06
v 0.39660966 -0.09932482 0.21456337
v 0.39660966 -0.29217 0.3821355
v 6.67572E-06 -0.3187151 0.3821355
v 6.67572E-06 -0.09316552 0.21456337
v -0.3966298 -0.116731405 0.21456337
v -0.3966298 -0.3295942 0.3821355
v 0.39660966 -0.29217 0.3821355
v 0.39660966 -0.4492312 0.60942566
v 6.67572E-06 -0.41940564 0.60942566
v 6.67572E-06 -0.3187151 0.3821355
v 0.39660966 -0.4492312 0.60942566
v 0.37388068 -0.44360757 0.906175
v -0.01981008 -0.4159913 0.8581729
v 6.67572E-06 -0.41940564 0.60942566
v 0.37388068 -0.44360757 0.906175
v 0.33394587 -0.35841554 1.2335533
v -0.01981008 -0.4159913 0.8581729
v 6.67572E-06 -0.41940564 0.60942566
v -0.3966298 -0.4492312 0.60942566
v -0.3966298 -0.3295942 0.3821355
v 6.67572E-06 -0.3187151 0.3821355
v -0.01981008 -0.4159913 0.8581729
v -0.41353428 -0.44360757 0.81017077
v -0.3966298 -0.4492312 0.60942566
v 6.67572E-06 -0.41940564 0.60942566
v -0.45343566 -0.34753644 1.1375157
v -0.41353428 -0.44360757 0.81017077
v -0.01981008 -0.4159913 0.8581729
v -0.3966298 -6.67572E-06 -6.67572E-06
v -0.3966298 -6.67572E-06 -0.9601823
v 6.67572E-06 -6.67572E-06 -0.9601823
v 6.67572E-06 -6.67572E-06 -6.67572E-06
v 0.39660966 -6.67572E-06 -0.9601823
v 0.39660966 -6.67572E-06 -6.67572E-06
vt 0.5654611 0.086939916
vt 0.5654611 0.09787755
vt 0.5949927 0.09787755
vt 0.5949927 0.086939916
vt 0.5359295 0.086939916
vt 0.5359295 0.09787755
vt 0.5949927 0.086939916
vt 0.5949927 0.07873669
vt 0.5654611 0.07873669
vt 0.5654611 0.086939916
vt 0.5359295 0.086939916
vt 0.5359295 0.07873669
vt 0.5949927 0.07873669
vt 0.5949927 0.06725219
vt 0.5654611 0.06725219
vt 0.5654611 0.07873669
vt 0.5949927 0.06725219
vt 0.5933521 0.05193951
vt 0.5638205 0.054673918
vt 0.5654611 0.06725219
vt 0.5933521 0.05193951
vt 0.5900708 0.03553307
vt 0.5638205 0.054673918
vt 0.5654611 0.06725219
vt 0.5359295 0.06725219
vt 0.5359295 0.07873669
vt 0.5654611 0.07873669
vt 0.5638205 0.054673918
vt 0.53483576 0.056861445
vt 0.5359295 0.06725219
vt 0.5654611 0.06725219
vt 0.53155446 0.040455002
vt 0.53483576 0.056861445
vt 0.5638205 0.054673918
vt 0.5359295 0.09787755
vt 0.5359295 0.14654998
vt 0.5654611 0.14654998
vt 0.5654611 0.09787755
vt 0.5949927 0.14654998
vt 0.5949927 0.09787755
vn 0.006628543 0.91396165 0.40574643
vn 0.006628543 0.91396165 0.40574643
vn 0.006628543 0.91396165 0.40574643
vn 0.006628543 0.91396165 0.40574643
vn -0.027786046 0.8967544 0.44165546
vn -0.027786046 0.8967544 0.44165546
vn -0.014880575 0.62573946 0.7798902
vn -0.014880575 0.62573946 0.7798902
vn -0.014880575 0.62573946 0.7798902
vn -0.014880575 0.62573946 0.7798902
vn -0.027786046 0.6085322 0.79304254
vn -0.027786046 0.6085322 0.79304254
vn 0.0023267195 0.8709434 0.49137774
vn 0.0023267195 0.8709434 0.49137774
vn 0.0023267195 0.8709434 0.49137774
vn 0.0023267195 0.8709434 0.49137774
vn 0.07115589 0.9956963 -0.05937739
vn 0.07115589 0.9956963 -0.05937739
vn 0.07115589 0.9956963 -0.05937739
vn 0.07115589 0.9956963 -0.05937739
vn 0.09696683 0.96558356 -0.24134174
vn 0.09696683 0.96558356 -0.24134174
vn 0.09696683 0.96558356 -0.24134174
vn -0.04499334 0.9010562 0.4313622
vn -0.04499334 0.9010562 0.4313622
vn -0.04499334 0.9010562 0.4313622
vn -0.04499334 0.9010562 0.4313622
vn -0.07080428 0.9956963 -0.059796512
vn -0.07080428 0.9956963 -0.059796512
vn -0.07080428 0.9956963 -0.059796512
vn -0.07080428 0.9956963 -0.059796512
vn -0.032087877 0.9569799 -0.28837463
vn -0.032087877 0.9569799 -0.28837463
vn -0.032087877 0.9569799 -0.28837463
vn -0.0019751042 0.9999981 -0
vn -0.0019751042 0.9999981 -0
vn -0.0019751042 0.9999981 -0
vn -0.0019751042 0.9999981 -0
vn -0.0019751042 0.9999981 -0
vn -0.0019751042 0.9999981 -0
g loreBookMark01_0
f 3/3/3 2/2/2 1/1/1
f 4/4/4 3/3/3 1/1/1
f 1/1/1 2/2/2 5/5/5
f 2/2/2 6/6/6 5/5/5
f 9/9/9 8/8/8 7/7/7
f 10/10/10 9/9/9 7/7/7
f 10/10/10 11/11/11 9/9/9
f 11/11/11 12/12/12 9/9/9
f 15/15/15 14/14/14 13/13/13
f 16/16/16 15/15/15 13/13/13
f 19/19/19 18/18/18 17/17/17
f 20/20/20 19/19/19 17/17/17
f 23/23/23 22/22/22 21/21/21
f 26/26/26 25/25/25 24/24/24
f 27/27/27 26/26/26 24/24/24
f 30/30/30 29/29/29 28/28/28
f 31/31/31 30/30/30 28/28/28
f 34/34/34 33/33/33 32/32/32
f 37/37/37 36/36/36 35/35/35
f 38/38/38 37/37/37 35/35/35
f 39/39/39 37/37/37 38/38/38
f 40/40/40 39/39/39 38/38/38
