g magicDoorR
v -1.1512499 -0.19106674 0.12763357
v -0.4196403 -0.1953516 0.12763357
v -0.4196403 -1.6955129 0.12763357
v -1.1512499 -1.6955129 0.12763357
v -1.1512499 0.47401166 0.12763357
v -0.5282092 0.47401166 0.12763357
v -0.46231532 0.16492343 0.12763357
v -1.1512499 0.16891861 0.12763357
v -1.1512499 0.8722713 0.12763357
v -0.7892957 0.8722713 0.12763357
v -1.1512499 1.1286097 0.12763357
v -1.3913753 -1.9356383 0.15612197
v -0.17957282 -1.9356383 0.15612197
v -1.4543533E-05 -2.1542237 0.15612197
v -1.3913753 -2.1542237 0.15612197
v -0.17957282 1.4543533E-05 0.15612197
v -1.4543533E-05 1.4543533E-05 0.15612197
v -0.30273342 0.5680468 0.15612197
v -0.119469166 0.6473744 0.15612197
v -0.61425376 1.0432601 0.15612197
v -0.47007418 1.1632938 0.15612197
v -1.0690849 1.3569229 0.15612197
v -0.9884834 1.5214264 0.15612197
v -1.6404757 -2.1542237 0.15612197
v -1.6404757 -1.9356383 0.15612197
v -1.3913753 1.4543533E-05 0.15612197
v -1.6404757 1.4543533E-05 0.15612197
v -1.3913753 0.47401166 0.15612197
v -1.6404757 0.47401166 0.15612197
v -1.3913753 0.8722713 0.15612197
v -1.6404757 0.8722713 0.15612197
v -1.3913753 1.422122 0.15612197
v -1.6404757 1.4470785 0.15612197
v -1.396297 1.604981 0.15612197
v -0.9884834 1.5214264 0.15612197
v -1.0690849 1.3569229 0.15612197
v -1.6404757 1.6294742 0.15612197
v -1.3913753 1.4543533E-05 0.15612197
v -1.3312716 1.4543533E-05 0.0842638
v -1.3312716 -1.8755347 0.0842638
v -1.3913753 -1.9356383 0.15612197
v -1.3913753 0.47401166 0.15612197
v -1.3312716 0.47401166 0.0842638
v -1.3913753 0.8722713 0.15612197
v -1.3312716 0.8722713 0.0842638
v -1.3913753 1.422122 0.15612197
v -1.3312716 1.3486426 0.0842638
v -1.3913753 -1.9356383 0.15612197
v -1.3312716 -1.8755347 0.0842638
v -0.23967671 -1.8755347 0.0842638
v -0.17957282 -1.9356383 0.15612197
v -0.17957282 -1.9356383 0.15612197
v -0.23967671 -1.8755347 0.0842638
v -0.23967671 1.4543533E-05 0.0842638
v -0.17957282 1.4543533E-05 0.15612197
v -0.17957282 1.4543533E-05 0.15612197
v -0.23967671 1.4543533E-05 0.0842638
v -0.35918927 0.5444801 0.0842638
v -0.30273342 0.5680468 0.15612197
v -0.30273342 0.5680468 0.15612197
v -0.35918927 0.5444801 0.0842638
v -0.65808654 1.0004694 0.0842638
v -0.61425376 1.0432601 0.15612197
v -0.61425376 1.0432601 0.15612197
v -0.65808654 1.0004694 0.0842638
v -1.0930569 1.300467 0.0842638
v -1.0690849 1.3569229 0.15612197
v -1.0690849 1.3569229 0.15612197
v -1.0930569 1.300467 0.0842638
v -1.3312716 1.3486426 0.0842638
v -1.3913753 1.422122 0.15612197
v -1.3312716 1.4543533E-05 0.0842638
v -1.2112379 -0.13073134 0.0842638
v -1.2112379 -1.7555008 0.0842638
v -1.3312716 -1.8755347 0.0842638
v -0.35965252 -1.7555008 0.0842638
v -0.23967671 -1.8755347 0.0842638
v -0.35965252 -0.13565326 0.0842638
v -0.23967671 1.4543533E-05 0.0842638
v -1.3312716 0.47401166 0.0842638
v -1.2112379 0.1092782 0.0842638
v -1.2112379 0.47401166 0.0842638
v -1.3312716 0.8722713 0.0842638
v -1.2112379 0.8722713 0.0842638
v -1.3312716 1.3486426 0.0842638
v -1.2112379 1.2019153 0.0842638
v -1.0930569 1.300467 0.0842638
v -1.140943 1.1877291 0.0842638
v -0.65808654 1.0004694 0.0842638
v -0.74552083 0.915004 0.0842638
v -0.35918927 0.5444801 0.0842638
v -0.47186923 0.49752045 0.0842638
v -0.38808298 0.10447216 0.0842638
v -0.23967671 1.4543533E-05 0.0842638
v -0.35965252 -0.13565326 0.0842638
v -1.2112379 -0.13073134 0.0842638
v -1.3312716 1.4543533E-05 0.0842638
v -0.38808298 0.10447216 0.0842638
v -1.2112379 0.1092782 0.0842638
v -1.2112379 -0.13073134 0.0842638
v -1.1512499 -0.19106674 0.12763357
v -1.1512499 -1.6955129 0.12763357
v -1.2112379 -1.7555008 0.0842638
v -1.2112379 -1.7555008 0.0842638
v -1.1512499 -1.6955129 0.12763357
v -0.4196403 -1.6955129 0.12763357
v -0.35965252 -1.7555008 0.0842638
v -0.35965252 -1.7555008 0.0842638
v -0.4196403 -1.6955129 0.12763357
v -0.4196403 -0.1953516 0.12763357
v -0.35965252 -0.13565326 0.0842638
v -0.35965252 -0.13565326 0.0842638
v -0.4196403 -0.1953516 0.12763357
v -1.1512499 -0.19106674 0.12763357
v -1.2112379 -0.13073134 0.0842638
v -1.2112379 0.47401166 0.0842638
v -1.1512499 0.47401166 0.12763357
v -1.1512499 0.16891861 0.12763357
v -1.2112379 0.1092782 0.0842638
v -1.2112379 0.8722713 0.0842638
v -1.1512499 0.8722713 0.12763357
v -1.2112379 1.2019153 0.0842638
v -1.1512499 1.1286097 0.12763357
v -1.2112379 0.1092782 0.0842638
v -1.1512499 0.16891861 0.12763357
v -0.46231532 0.16492343 0.12763357
v -0.38808298 0.10447216 0.0842638
v -0.38808298 0.10447216 0.0842638
v -0.46231532 0.16492343 0.12763357
v -0.5282092 0.47401166 0.12763357
v -0.47186923 0.49752045 0.0842638
v -0.47186923 0.49752045 0.0842638
v -0.5282092 0.47401166 0.12763357
v -0.7892957 0.8722713 0.12763357
v -0.74552083 0.915004 0.0842638
v -0.74552083 0.915004 0.0842638
v -0.7892957 0.8722713 0.12763357
v -1.1512499 1.1286097 0.12763357
v -1.140943 1.1877291 0.0842638
v -1.140943 1.1877291 0.0842638
v -1.1512499 1.1286097 0.12763357
v -1.2112379 1.2019153 0.0842638
v -1.4543533E-05 1.4543533E-05 0.15612197
v -1.4543533E-05 1.4543533E-05 1.4543533E-05
v -1.4543533E-05 -2.1542237 1.4543533E-05
v -1.4543533E-05 -2.1542237 0.15612197
v -0.119469166 0.6473744 0.15612197
v -0.119469166 0.6473744 1.4543533E-05
v -1.4543533E-05 1.4543533E-05 1.4543533E-05
v -1.4543533E-05 1.4543533E-05 0.15612197
v -0.47007418 1.1632938 0.15612197
v -0.47007418 1.1632938 1.4543533E-05
v -0.119469166 0.6473744 1.4543533E-05
v -0.119469166 0.6473744 0.15612197
v -0.9884834 1.5214264 0.15612197
v -0.9884834 1.5214264 1.4543533E-05
v -0.47007418 1.1632938 1.4543533E-05
v -0.47007418 1.1632938 0.15612197
v -1.4543533E-05 -2.1542237 0.15612197
v -1.4543533E-05 -2.1542237 1.4543533E-05
v -1.3913753 -2.1542237 1.4543533E-05
v -1.3913753 -2.1542237 0.15612197
v -1.6404757 -2.1542237 1.4543533E-05
v -1.6404757 -2.1542237 0.15612197
v -1.396297 1.604981 0.15612197
v -1.396297 1.604981 1.4543533E-05
v -0.9884834 1.5214264 1.4543533E-05
v -0.9884834 1.5214264 0.15612197
v -1.6404757 1.6294742 0.15612197
v -1.6404757 1.6294742 1.4543533E-05
v -1.396297 1.604981 1.4543533E-05
v -1.396297 1.604981 0.15612197
v -1.6404757 -2.1542237 0.15612197
v -1.6404757 -2.1542237 1.4543533E-05
v -1.6404757 -1.9356383 1.4543533E-05
v -1.6404757 -1.9356383 0.15612197
v -1.6404757 1.4543533E-05 1.4543533E-05
v -1.6404757 1.4543533E-05 0.15612197
v -1.6404757 0.47401166 1.4543533E-05
v -1.6404757 0.47401166 0.15612197
v -1.6404757 0.8722713 1.4543533E-05
v -1.6404757 0.8722713 0.15612197
v -1.6404757 1.4470785 1.4543533E-05
v -1.6404757 1.4470785 0.15612197
v -1.6404757 1.6294742 1.4543533E-05
v -1.6404757 1.6294742 0.15612197
vt 0.67298925 0.3489201
vt 0.6919823 0.34832656
vt 0.6919823 0.30974692
vt 0.67298925 0.30974692
vt 0.67298925 0.3661326
vt 0.6890147 0.3661326
vt 0.69079524 0.3578231
vt 0.67298925 0.3578231
vt 0.67298925 0.37622264
vt 0.6824858 0.37622264
vt 0.67298925 0.3827515
vt 0.66705394 0.30321807
vt 0.6985112 0.30321807
vt 0.70504004 0.29787624
vt 0.66705394 0.29787624
vt 0.6985112 0.3536684
vt 0.70504004 0.3542619
vt 0.69495 0.3685067
vt 0.70147884 0.37088084
vt 0.68723404 0.3809709
vt 0.6919823 0.38512564
vt 0.6753634 0.38868684
vt 0.67773753 0.39521572
vt 0.6605251 0.29787624
vt 0.6605251 0.30321807
vt 0.66705394 0.3536684
vt 0.6605251 0.3536684
vt 0.66705394 0.3661326
vt 0.6605251 0.3661326
vt 0.66705394 0.37622264
vt 0.6605251 0.37622264
vt 0.66705394 0.39046744
vt 0.6605251 0.39106098
vt 0.6664604 0.39699632
vt 0.67773753 0.39521572
vt 0.6753634 0.38868684
vt 0.6605251 0.39818338
vt 0.66705394 0.3536684
vt 0.668241 0.3536684
vt 0.668241 0.30499864
vt 0.66705394 0.30321807
vt 0.66705394 0.3661326
vt 0.668241 0.3661326
vt 0.66705394 0.37622264
vt 0.668241 0.37622264
vt 0.66705394 0.39046744
vt 0.668241 0.38868684
vt 0.66705394 0.30321807
vt 0.668241 0.30499864
vt 0.6967306 0.30499864
vt 0.6985112 0.30321807
vt 0.6985112 0.30321807
vt 0.6967306 0.30499864
vt 0.6967306 0.35307485
vt 0.6985112 0.3536684
vt 0.6985112 0.3536684
vt 0.6967306 0.35307485
vt 0.69376296 0.3679132
vt 0.69495 0.3685067
vt 0.69495 0.3685067
vt 0.69376296 0.3679132
vt 0.686047 0.37978384
vt 0.68723404 0.3809709
vt 0.68723404 0.3809709
vt 0.686047 0.37978384
vt 0.6747699 0.38749978
vt 0.6753634 0.38868684
vt 0.6753634 0.38868684
vt 0.6747699 0.38749978
vt 0.668241 0.38868684
vt 0.66705394 0.39046744
vt 0.6462803 0.14533821
vt 0.6486544 0.14296407
vt 0.6486544 0.10972621
vt 0.6462803 0.10735208
vt 0.66586685 0.10972621
vt 0.668241 0.10735208
vt 0.66586685 0.14296407
vt 0.668241 0.14533821
vt 0.6462803 0.15483475
vt 0.6486544 0.14771233
vt 0.6486544 0.15483475
vt 0.6462803 0.1631442
vt 0.6486544 0.1631442
vt 0.6462803 0.17264074
vt 0.6486544 0.16967307
vt 0.6510285 0.1720472
vt 0.6498415 0.16967307
vt 0.65993154 0.16611187
vt 0.6581509 0.16433127
vt 0.66586685 0.15661535
vt 0.66349274 0.15542828
vt 0.6652733 0.14771233
vt 0.668241 0.14533821
vt 0.66586685 0.14296407
vt 0.6486544 0.14296407
vt 0.6462803 0.14533821
vt 0.6652733 0.14771233
vt 0.6486544 0.14771233
vt 0.6718022 0.3501072
vt 0.67298925 0.3489201
vt 0.67298925 0.30974692
vt 0.6718022 0.30796632
vt 0.6718022 0.30796632
vt 0.67298925 0.30974692
vt 0.6919823 0.30974692
vt 0.69376296 0.30796632
vt 0.69376296 0.30796632
vt 0.6919823 0.30974692
vt 0.6919823 0.34832656
vt 0.69376296 0.3501072
vt 0.69376296 0.3501072
vt 0.6919823 0.34832656
vt 0.67298925 0.3489201
vt 0.6718022 0.3501072
vt 0.6718022 0.3661326
vt 0.67298925 0.3661326
vt 0.67298925 0.3578231
vt 0.6718022 0.35663605
vt 0.6718022 0.37622264
vt 0.67298925 0.37622264
vt 0.6718022 0.38512564
vt 0.67298925 0.3827515
vt 0.6718022 0.35663605
vt 0.67298925 0.3578231
vt 0.69079524 0.3578231
vt 0.6931694 0.35663605
vt 0.6931694 0.35663605
vt 0.69079524 0.3578231
vt 0.6890147 0.3661326
vt 0.69079524 0.3667261
vt 0.69079524 0.3667261
vt 0.6890147 0.3661326
vt 0.6824858 0.37622264
vt 0.68367285 0.3774097
vt 0.68367285 0.3774097
vt 0.6824858 0.37622264
vt 0.67298925 0.3827515
vt 0.6735828 0.3845321
vt 0.6735828 0.3845321
vt 0.67298925 0.3827515
vt 0.6718022 0.38512564
vt 0.7145366 0.39699632
vt 0.7145366 0.40471223
vt 0.7145366 0.40471223
vt 0.7145366 0.39699632
vt 0.70800775 0.39699632
vt 0.70800775 0.40471223
vt 0.7145366 0.40471223
vt 0.7145366 0.39699632
vt 0.6896082 0.39699632
vt 0.6896082 0.40471223
vt 0.70800775 0.40471223
vt 0.70800775 0.39699632
vt 0.66230565 0.39699632
vt 0.66230565 0.40471223
vt 0.6896082 0.40471223
vt 0.6896082 0.39699632
vt 0.7145366 0.39699632
vt 0.7145366 0.40471223
vt 0.64093846 0.40471223
vt 0.64093846 0.39699632
vt 0.62788075 0.40471223
vt 0.62788075 0.39699632
vt 0.64093846 0.39699632
vt 0.64093846 0.40471223
vt 0.66230565 0.40471223
vt 0.66230565 0.39699632
vt 0.62788075 0.39699632
vt 0.62788075 0.40471223
vt 0.64093846 0.40471223
vt 0.64093846 0.39699632
vt 0.62788075 0.39699632
vt 0.62788075 0.40471223
vt 0.62788075 0.40471223
vt 0.62788075 0.39699632
vt 0.62788075 0.40471223
vt 0.62788075 0.39699632
vt 0.62788075 0.40471223
vt 0.62788075 0.39699632
vt 0.62788075 0.40471223
vt 0.62788075 0.39699632
vt 0.62788075 0.40471223
vt 0.62788075 0.39699632
vt 0.62788075 0.40471223
vt 0.62788075 0.39699632
vn 0.0039215684 0.003921509 0.9999846
vn 0.0039215684 0.003921509 0.9999846
vn 0.0039215684 0.003921509 0.9999846
vn 0.0039215684 0.003921509 0.9999846
vn -0.003921509 -0.0039215684 0.9999846
vn -0.003921509 -0.0039215684 0.9999846
vn -0.003921509 -0.0039215684 0.9999846
vn -0.003921509 -0.0039215684 0.9999846
vn -0.003921509 0.003921509 0.9999846
vn -0.003921509 0.003921509 0.9999846
vn -0.003921509 0.003921509 0.9999846
vn -0.003921509 0.003921509 0.9999846
vn -0.003921509 0.003921509 0.9999846
vn -0.003921509 0.003921509 0.9999846
vn -0.003921509 0.003921509 0.9999846
vn 0.0039215684 -0.0039215684 0.9999846
vn 0.0039215684 -0.0039215684 0.9999846
vn 0.0039215684 0.003921509 0.9999846
vn 0.0039215684 0.003921509 0.9999846
vn -0.003921509 0.003921509 0.9999846
vn -0.003921509 0.003921509 0.9999846
vn -0.003921509 0.003921509 0.9999846
vn -0.003921509 0.003921509 0.9999846
vn -0.003921509 0.003921509 0.9999846
vn -0.003921509 0.003921509 0.9999846
vn -0.003921509 0.003921509 0.9999846
vn -0.003921509 0.003921509 0.9999846
vn -0.003921509 0.003921509 0.9999846
vn -0.003921509 0.003921509 0.9999846
vn -0.003921509 0.003921509 0.9999846
vn -0.003921509 0.003921509 0.9999846
vn 0.0039215684 0.003921509 0.9999846
vn -0.003921509 0.003921509 0.9999846
vn 0.0039215684 0.003921509 0.9999846
vn 0.0039215684 0.003921509 0.9999846
vn 0.0039215684 0.003921509 0.9999846
vn -0.003921509 0.003921509 0.9999846
vn 0.76470006 0.003921509 0.6443745
vn 0.76470006 0.003921509 0.6443745
vn 0.76470006 0.003921509 0.6443745
vn 0.76470006 0.003921509 0.6443745
vn 0.76470006 0.003921509 0.6443745
vn 0.76470006 0.003921509 0.6443745
vn 0.76470006 0.003921509 0.6443745
vn 0.76470006 0.003921509 0.6443745
vn 0.76470006 0.003921509 0.6443745
vn 0.76470006 0.003921509 0.6443745
vn -0.003921509 0.76469994 0.6443746
vn -0.003921509 0.76469994 0.6443746
vn -0.003921509 0.76469994 0.6443746
vn -0.003921509 0.76469994 0.6443746
vn -0.76469994 0.003921509 0.6443746
vn -0.76469994 0.003921509 0.6443746
vn -0.76469994 0.003921509 0.6443746
vn -0.76469994 0.003921509 0.6443746
vn -0.7490138 -0.16078311 0.64274967
vn -0.7490138 -0.16078311 0.64274967
vn -0.7490138 -0.16078311 0.64274967
vn -0.7490138 -0.16078311 0.64274967
vn -0.6392107 -0.41960466 0.64447004
vn -0.6392107 -0.41960466 0.64447004
vn -0.6392107 -0.41960466 0.64447004
vn -0.6392107 -0.41960466 0.64447004
vn -0.4352907 -0.63136774 0.6417919
vn -0.4352907 -0.63136774 0.6417919
vn -0.4352907 -0.63136774 0.6417919
vn -0.4352907 -0.63136774 0.6417919
vn -0.15293992 -0.7490139 0.64466083
vn -0.15293992 -0.7490139 0.64466083
vn -0.15293992 -0.7490139 0.64466083
vn -0.15293992 -0.7490139 0.64466083
vn 0.0039215684 0.003921509 0.9999846
vn 0.0039215684 0.003921509 0.9999846
vn 0.0039215684 0.003921509 0.9999846
vn 0.0039215684 0.003921509 0.9999846
vn -0.003921509 0.003921509 0.9999846
vn -0.003921509 0.003921509 0.9999846
vn 0.0039215684 0.003921509 0.9999846
vn 0.0039215684 0.003921509 0.9999846
vn -0.003921509 0.003921509 0.9999846
vn -0.003921509 0.003921509 0.9999846
vn -0.003921509 0.003921509 0.9999846
vn -0.003921509 0.003921509 0.9999846
vn -0.003921509 0.003921509 0.9999846
vn -0.003921509 0.003921509 0.9999846
vn -0.003921509 0.003921509 0.9999846
vn -0.003921509 0.003921509 0.9999846
vn -0.003921509 0.003921509 0.9999846
vn -0.003921509 0.003921509 0.9999846
vn -0.003921509 0.003921509 0.9999846
vn -0.003921509 -0.0039215684 0.9999846
vn -0.003921509 -0.0039215684 0.9999846
vn -0.003921509 -0.0039215684 0.9999846
vn -0.003921509 0.003921509 0.9999846
vn -0.003921509 0.003921509 0.9999846
vn -0.003921509 0.003921509 0.9999846
vn -0.003921509 0.003921509 0.9999846
vn 0.0039215684 0.003921509 0.9999846
vn 0.0039215684 0.003921509 0.9999846
vn -0.5843092 0.003921509 0.81152165
vn -0.5843092 0.003921509 0.81152165
vn -0.5843092 0.003921509 0.81152165
vn -0.5843092 0.003921509 0.81152165
vn -0.003921509 -0.5843093 0.8115216
vn -0.003921509 -0.5843093 0.8115216
vn -0.003921509 -0.5843093 0.8115216
vn -0.003921509 -0.5843093 0.8115216
vn 0.5843093 0.003921509 0.8115216
vn 0.5843093 0.003921509 0.8115216
vn 0.5843093 0.003921509 0.8115216
vn 0.5843093 0.003921509 0.8115216
vn 0.0039215684 0.5843092 0.81152165
vn 0.0039215684 0.5843092 0.81152165
vn 0.0039215684 0.5843092 0.81152165
vn 0.0039215684 0.5843092 0.81152165
vn -0.5843092 0.003921509 0.81152165
vn -0.5843092 0.003921509 0.81152165
vn -0.5843092 0.003921509 0.81152165
vn -0.5843092 0.003921509 0.81152165
vn -0.5843092 0.003921509 0.81152165
vn -0.5843092 0.003921509 0.81152165
vn -0.5843092 0.003921509 0.81152165
vn -0.5843092 0.003921509 0.81152165
vn -0.003921509 -0.5843093 0.8115216
vn -0.003921509 -0.5843093 0.8115216
vn -0.003921509 -0.5843093 0.8115216
vn -0.003921509 -0.5843093 0.8115216
vn 0.5764662 0.12156761 0.80802727
vn 0.5764662 0.12156761 0.80802727
vn 0.5764662 0.12156761 0.80802727
vn 0.5764662 0.12156761 0.80802727
vn 0.49019235 0.3176446 0.81167316
vn 0.49019235 0.3176446 0.81167316
vn 0.49019235 0.3176446 0.81167316
vn 0.49019235 0.3176446 0.81167316
vn 0.34901696 0.4980353 0.7938186
vn 0.34901696 0.4980353 0.7938186
vn 0.34901696 0.4980353 0.7938186
vn 0.34901696 0.4980353 0.7938186
vn 0.11372465 0.5764661 0.80916846
vn 0.11372465 0.5764661 0.80916846
vn 0.11372465 0.5764661 0.80916846
vn 0.9999924 0.003921509 -0
vn 0.9999924 0.003921509 -0
vn 0.9999924 0.003921509 -0
vn 0.9999924 0.003921509 -0
vn 0.98291653 0.184052 -0
vn 0.98291653 0.184052 -0
vn 0.98291653 0.184052 -0
vn 0.98291653 0.184052 -0
vn 0.8274447 0.5607799 -0.02934617
vn 0.8274447 0.5607799 -0.02934617
vn 0.8274447 0.5607799 -0.02934617
vn 0.8274447 0.5607799 -0.02934617
vn 0.5686231 0.81960154 -0.0701504
vn 0.5686231 0.81960154 -0.0701504
vn 0.5686231 0.81960154 -0.0701504
vn 0.5686231 0.81960154 -0.0701504
vn -0.003921509 -0.9999924 -0
vn -0.003921509 -0.9999924 -0
vn -0.003921509 -0.9999924 -0
vn -0.003921509 -0.9999924 -0
vn -0.003921509 -0.9999924 -0
vn -0.003921509 -0.9999924 -0
vn 0.1999985 0.9764631 -0.0807493
vn 0.1999985 0.9764631 -0.0807493
vn 0.1999985 0.9764631 -0.0807493
vn 0.1999985 0.9764631 -0.0807493
vn 0.098038495 0.99214923 -0.07764248
vn 0.098038495 0.99214923 -0.07764248
vn 0.098038495 0.99214923 -0.07764248
vn 0.098038495 0.99214923 -0.07764248
vn -0.99999225 0.003921509 -0.00034492963
vn -0.99999225 0.003921509 -0.00034492963
vn -0.99999225 0.003921509 -0.00034492963
vn -0.99999225 0.003921509 -0.00034492963
vn -0.99999225 0.003921509 -0.00034492963
vn -0.99999225 0.003921509 -0.00034492963
vn -0.99999225 0.003921509 -0.00034492963
vn -0.99999225 0.003921509 -0.00034492963
vn -0.99999225 0.003921509 -0.00034492963
vn -0.99999225 0.003921509 -0.00034492963
vn -0.99999225 0.003921509 -0.00034492963
vn -0.99999225 0.003921509 -0.00034492963
vn -0.99999225 0.003921509 -0.00034492963
vn -0.99999225 0.003921509 -0.00034492963
g magicDoorR_0
f 3/3/3 2/2/2 1/1/1
f 4/4/4 3/3/3 1/1/1
f 7/7/7 6/6/6 5/5/5
f 8/8/8 7/7/7 5/5/5
f 5/5/5 6/6/6 9/9/9
f 6/6/6 10/10/10 9/9/9
f 9/9/9 10/10/10 11/11/11
f 14/14/14 13/13/13 12/12/12
f 15/15/15 14/14/14 12/12/12
f 16/16/16 13/13/13 14/14/14
f 17/17/17 16/16/16 14/14/14
f 18/18/18 16/16/16 17/17/17
f 19/19/19 18/18/18 17/17/17
f 20/20/20 18/18/18 19/19/19
f 21/21/21 20/20/20 19/19/19
f 22/22/22 20/20/20 21/21/21
f 23/23/23 22/22/22 21/21/21
f 15/15/15 12/12/12 24/24/24
f 12/12/12 25/25/25 24/24/24
f 12/12/12 26/26/26 25/25/25
f 26/26/26 27/27/27 25/25/25
f 26/26/26 28/28/28 27/27/27
f 28/28/28 29/29/29 27/27/27
f 28/28/28 30/30/30 29/29/29
f 30/30/30 31/31/31 29/29/29
f 30/30/30 32/32/32 31/31/31
f 32/32/32 33/33/33 31/31/31
f 33/33/33 32/32/32 34/34/34
f 34/34/34 32/32/32 35/35/35
f 32/32/32 36/36/36 35/35/35
f 37/37/37 33/33/33 34/34/34
f 40/40/40 39/39/39 38/38/38
f 41/41/41 40/40/40 38/38/38
f 38/38/38 39/39/39 42/42/42
f 39/39/39 43/43/43 42/42/42
f 42/42/42 43/43/43 44/44/44
f 43/43/43 45/45/45 44/44/44
f 44/44/44 45/45/45 46/46/46
f 45/45/45 47/47/47 46/46/46
f 50/50/50 49/49/49 48/48/48
f 51/51/51 50/50/50 48/48/48
f 54/54/54 53/53/53 52/52/52
f 55/55/55 54/54/54 52/52/52
f 58/58/58 57/57/57 56/56/56
f 59/59/59 58/58/58 56/56/56
f 62/62/62 61/61/61 60/60/60
f 63/63/63 62/62/62 60/60/60
f 66/66/66 65/65/65 64/64/64
f 67/67/67 66/66/66 64/64/64
f 70/70/70 69/69/69 68/68/68
f 71/71/71 70/70/70 68/68/68
f 74/74/74 73/73/73 72/72/72
f 75/75/75 74/74/74 72/72/72
f 76/76/76 74/74/74 75/75/75
f 77/77/77 76/76/76 75/75/75
f 78/78/78 76/76/76 77/77/77
f 79/79/79 78/78/78 77/77/77
f 72/72/72 81/81/81 80/80/80
f 81/81/81 82/82/82 80/80/80
f 80/80/80 82/82/82 83/83/83
f 82/82/82 84/84/84 83/83/83
f 83/83/83 84/84/84 85/85/85
f 84/84/84 86/86/86 85/85/85
f 85/85/85 86/86/86 87/87/87
f 86/86/86 88/88/88 87/87/87
f 87/87/87 88/88/88 89/89/89
f 88/88/88 90/90/90 89/89/89
f 89/89/89 90/90/90 91/91/91
f 91/91/91 92/92/92 79/79/79
f 90/90/90 92/92/92 91/91/91
f 92/92/92 93/93/93 79/79/79
f 96/96/96 95/95/95 94/94/94
f 97/97/97 96/96/96 94/94/94
f 94/94/94 98/98/98 97/97/97
f 98/98/98 99/99/99 97/97/97
f 102/102/102 101/101/101 100/100/100
f 103/103/103 102/102/102 100/100/100
f 106/106/106 105/105/105 104/104/104
f 107/107/107 106/106/106 104/104/104
f 110/110/110 109/109/109 108/108/108
f 111/111/111 110/110/110 108/108/108
f 114/114/114 113/113/113 112/112/112
f 115/115/115 114/114/114 112/112/112
f 118/118/118 117/117/117 116/116/116
f 119/119/119 118/118/118 116/116/116
f 116/116/116 117/117/117 120/120/120
f 117/117/117 121/121/121 120/120/120
f 120/120/120 121/121/121 122/122/122
f 121/121/121 123/123/123 122/122/122
f 126/126/126 125/125/125 124/124/124
f 127/127/127 126/126/126 124/124/124
f 130/130/130 129/129/129 128/128/128
f 131/131/131 130/130/130 128/128/128
f 134/134/134 133/133/133 132/132/132
f 135/135/135 134/134/134 132/132/132
f 138/138/138 137/137/137 136/136/136
f 139/139/139 138/138/138 136/136/136
f 142/142/142 141/141/141 140/140/140
f 145/145/145 144/144/144 143/143/143
f 146/146/146 145/145/145 143/143/143
f 149/149/149 148/148/148 147/147/147
f 150/150/150 149/149/149 147/147/147
f 153/153/153 152/152/152 151/151/151
f 154/154/154 153/153/153 151/151/151
f 157/157/157 156/156/156 155/155/155
f 158/158/158 157/157/157 155/155/155
f 161/161/161 160/160/160 159/159/159
f 162/162/162 161/161/161 159/159/159
f 163/163/163 161/161/161 162/162/162
f 164/164/164 163/163/163 162/162/162
f 167/167/167 166/166/166 165/165/165
f 168/168/168 167/167/167 165/165/165
f 171/171/171 170/170/170 169/169/169
f 172/172/172 171/171/171 169/169/169
f 175/175/175 174/174/174 173/173/173
f 176/176/176 175/175/175 173/173/173
f 177/177/177 175/175/175 176/176/176
f 178/178/178 177/177/177 176/176/176
f 179/179/179 177/177/177 178/178/178
f 180/180/180 179/179/179 178/178/178
f 181/181/181 179/179/179 180/180/180
f 182/182/182 181/181/181 180/180/180
f 183/183/183 181/181/181 182/182/182
f 184/184/184 183/183/183 182/182/182
f 185/185/185 183/183/183 184/184/184
f 186/186/186 185/185/185 184/184/184
