g mimicPiece3
v -0.09853463 -0.1654215 0.024489105
v 0.07313858 -0.16732673 0.025011778
v -0.09825362 -0.16430871 -0.063219
v 0.07341397 -0.16621394 -0.06269633
v -0.095572814 0.07813348 -0.060139164
v 0.0761004 0.076228246 -0.059610866
v -0.09585382 0.07702069 0.027568951
v 0.07581939 0.07511546 0.028091624
v 0.10892771 -0.13232441 0.025568187
v 0.11082171 0.039331943 0.027748793
v 0.109208725 -0.13121724 -0.062139936
v 0.111102715 0.04044473 -0.059953697
v -0.13163735 0.04201837 0.027012557
v -0.13353695 -0.12963799 0.024831936
v -0.13136195 0.043131158 -0.06069556
v -0.13325594 -0.1285252 -0.06287618
v -0.13353695 -0.12963799 0.024831936
v 0.10892771 -0.13232441 0.025568187
v -0.09853463 -0.1654215 0.024489105
v 0.07313858 -0.16732673 0.025011778
v -0.13163735 0.04201837 0.027012557
v 0.11082171 0.039331943 0.027748793
v -0.09585382 0.07702069 0.027568951
v 0.07581939 0.07511546 0.028091624
v -0.13136195 0.043131158 -0.06069556
v -0.13325594 -0.1285252 -0.06287618
v 0.111102715 0.04044473 -0.059953697
v 0.109208725 -0.13121724 -0.062139936
v -0.09825362 -0.16430871 -0.063219
v 0.07341397 -0.16621394 -0.06269633
v -0.095572814 0.07813348 -0.060139164
v 0.0761004 0.076228246 -0.059610866
v -0.13325594 -0.1285252 -0.06287618
v -0.13353695 -0.12963799 0.024831936
v -0.09825362 -0.16430871 -0.063219
v -0.09853463 -0.1654215 0.024489105
v 0.07341397 -0.16621394 -0.06269633
v 0.07313858 -0.16732673 0.025011778
v 0.109208725 -0.13121724 -0.062139936
v 0.10892771 -0.13232441 0.025568187
v -0.13163735 0.04201837 0.027012557
v -0.13136195 0.043131158 -0.06069556
v -0.09585382 0.07702069 0.027568951
v -0.095572814 0.07813348 -0.060139164
v 0.07581939 0.07511546 0.028091624
v 0.0761004 0.076228246 -0.059610866
v 0.11082171 0.039331943 0.027748793
v 0.111102715 0.04044473 -0.059953697
v 0.020427153 0.009657532 0.019200549
v 0.020303518 0.009185433 0.05651836
v -0.042490467 0.009618178 0.01899822
v -0.042608485 0.009146094 0.056316048
v -0.042490467 0.009618178 0.01899822
v -0.042608485 0.009146094 0.056316048
v -0.086940244 -0.034899056 0.018295705
v -0.08706389 -0.03537114 0.0556079
v -0.086940244 -0.034899056 0.018295705
v -0.08706389 -0.03537114 0.0556079
v -0.0868953 -0.09780543 0.017497644
v -0.08701895 -0.098277524 0.054815456
v -0.0868953 -0.09780543 0.017497644
v -0.08701895 -0.098277524 0.054815456
v -0.042378053 -0.14226085 0.017076135
v -0.042496085 -0.14273295 0.054393947
v -0.042378053 -0.14226085 0.017076135
v -0.042496085 -0.14273295 0.054393947
v 0.020533934 -0.1422159 0.017278448
v 0.020415917 -0.14268798 0.054590657
v 0.020533934 -0.1422159 0.017278448
v 0.020415917 -0.14268798 0.054590657
v 0.06498936 -0.09769865 0.017980978
v 0.06487133 -0.09817636 0.05529879
v 0.06498936 -0.09769865 0.017980978
v 0.06487133 -0.09817636 0.05529879
v 0.064944394 -0.034792274 0.01877904
v 0.06482637 -0.035264358 0.05609685
v 0.064944394 -0.034792274 0.01877904
v 0.06482637 -0.035264358 0.05609685
v 0.020427153 0.009657532 0.019200549
v 0.020303518 0.009185433 0.05651836
v -0.042496085 -0.14273295 0.054393947
v -0.08701895 -0.098277524 0.054815456
v -0.042608485 0.009146094 0.056316048
v -0.08706389 -0.03537114 0.0556079
v -0.030244142 -0.11197384 0.054821074
v -0.030744344 -0.021466881 0.055967584
v 0.0080459565 -0.021573663 0.056085616
v 0.020303518 0.009185433 0.05651836
v 0.020415917 -0.14268798 0.054590657
v 0.06487133 -0.09817636 0.05529879
v 0.06482637 -0.035264358 0.05609685
v 0.008551776 -0.11208062 0.054944724
v 0.0066746473 -0.10982694 0.031188339
v -0.028232127 -0.1097314 0.031075925
v 0.0061913133 -0.02320914 0.03228426
v -0.028715461 -0.023113593 0.03217186
v 0.008551776 -0.11208062 0.054944724
v 0.0066746473 -0.10982694 0.031188339
v 0.0080459565 -0.021573663 0.056085616
v 0.0061913133 -0.02320914 0.03228426
v -0.030744344 -0.021466881 0.055967584
v 0.0080459565 -0.021573663 0.056085616
v -0.028715461 -0.023113593 0.03217186
v 0.0061913133 -0.02320914 0.03228426
v -0.030744344 -0.021466881 0.055967584
v -0.028715461 -0.023113593 0.03217186
v -0.030244142 -0.11197384 0.054821074
v -0.028232127 -0.1097314 0.031075925
v 0.008551776 -0.11208062 0.054944724
v -0.030244142 -0.11197384 0.054821074
v 0.0066746473 -0.10982694 0.031188339
v -0.028232127 -0.1097314 0.031075925
v -0.05726023 0.112731144 -0.054024436
v -0.047700346 0.1479414 -0.05354672
v -0.09463988 0.11277048 -0.046218045
v -0.07757147 0.1756319 -0.0453694
v -0.008752674 0.20099004 -0.044829868
v -0.009151712 0.16214354 -0.053243235
v 0.029065326 0.14708714 -0.053310677
v 0.05949285 0.17411445 -0.044947885
v 0.075167455 0.11088212 -0.04570099
v 0.037844017 0.11167456 -0.053732187
v -0.07757147 0.1756319 -0.0453694
v -0.07776816 0.17486195 0.015642986
v -0.09463988 0.11277048 -0.046218045
v -0.09483658 0.11199491 0.01479435
v 0.075167455 0.11088212 -0.04570099
v 0.07497075 0.110112146 0.015311405
v 0.05949285 0.17411445 -0.044947885
v 0.059301756 0.17333888 0.016064495
v 0.05949285 0.17411445 -0.044947885
v 0.059301756 0.17333888 0.016064495
v -0.008752674 0.20099004 -0.044829868
v -0.008943766 0.20021446 0.016188145
v -0.008752674 0.20099004 -0.044829868
v -0.008943766 0.20021446 0.016188145
v -0.07757147 0.1756319 -0.0453694
v -0.07776816 0.17486195 0.015642986
v -0.07776816 0.17486195 0.015642986
v -0.047942013 0.14696912 0.023308873
v -0.09483658 0.11199491 0.01479435
v -0.057507515 0.11175884 0.022831172
v -0.008943766 0.20021446 0.016188145
v -0.009398997 0.16116564 0.023612365
v 0.028818041 0.14611487 0.023544922
v 0.059301756 0.17333888 0.016064495
v 0.07497075 0.110112146 0.015311405
v 0.037596732 0.11070226 0.023123413
v -0.05726023 0.112731144 -0.054024436
v -0.09463988 0.11277048 -0.046218045
v -0.0576424 0.07763891 -0.05446843
v -0.09502767 0.077959254 -0.046662033
v 0.037450597 0.07658793 -0.0541818
v 0.074785285 0.076070875 -0.046144977
v 0.075167455 0.11088212 -0.04570099
v -0.09483658 0.11199491 0.01479435
v -0.095224366 0.07718368 0.014350355
v -0.09463988 0.11277048 -0.046218045
v -0.09502767 0.077959254 -0.046662033
v 0.075167455 0.11088212 -0.04570099
v 0.074785285 0.076070875 -0.046144977
v 0.07497075 0.110112146 0.015311405
v 0.074588574 0.0752953 0.01486741
v -0.057507515 0.11175884 0.022831172
v -0.057889685 0.07666662 0.022387177
v -0.09483658 0.11199491 0.01479435
v -0.095224366 0.07718368 0.014350355
v 0.037596732 0.11070226 0.023123413
v 0.07497075 0.110112146 0.015311405
v 0.03720893 0.07561003 0.0226738
v 0.074588574 0.0752953 0.01486741
v -0.047942013 0.14696912 0.023308873
v -0.047700346 0.1479414 -0.05354672
v -0.057507515 0.11175884 0.022831172
v -0.05726023 0.112731144 -0.054024436
v 0.037596732 0.11070226 0.023123413
v 0.037844017 0.11167456 -0.053732187
v 0.028818041 0.14611487 0.023544922
v 0.029065326 0.14708714 -0.053310677
v 0.028818041 0.14611487 0.023544922
v 0.029065326 0.14708714 -0.053310677
v -0.009398997 0.16116564 0.023612365
v -0.009151712 0.16214354 -0.053243235
v -0.009398997 0.16116564 0.023612365
v -0.009151712 0.16214354 -0.053243235
v -0.047942013 0.14696912 0.023308873
v -0.047700346 0.1479414 -0.05354672
v -0.057507515 0.11175884 0.022831172
v -0.05726023 0.112731144 -0.054024436
v -0.057889685 0.07666662 0.022387177
v -0.0576424 0.07763891 -0.05446843
v 0.03720893 0.07561003 0.0226738
v 0.037450597 0.07658793 -0.0541818
v 0.037596732 0.11070226 0.023123413
v 0.037844017 0.11167456 -0.053732187
v 0.037844017 0.11167456 -0.053732187
vt 0.95349777 0.5682001
vt 0.96086013 0.5682001
vt 0.95349777 0.5583836
vt 0.96086013 0.5583836
vt 0.95349777 0.58701503
vt 0.96086013 0.58701503
vt 0.95349777 0.5780166
vt 0.96086013 0.5780166
vt 0.96331424 0.5682001
vt 0.9698586 0.5682001
vt 0.96331424 0.5583836
vt 0.9698586 0.5583836
vt 0.94449925 0.5682001
vt 0.9510436 0.5682001
vt 0.94449925 0.5583836
vt 0.9510436 0.5583836
vt 0.9526797 0.5690181
vt 0.96167815 0.5690181
vt 0.95349777 0.5682001
vt 0.96086013 0.5682001
vt 0.9526797 0.5763805
vt 0.96167815 0.5763805
vt 0.95349777 0.5780166
vt 0.96086013 0.5780166
vt 0.9526797 0.5886511
vt 0.9526797 0.5951955
vt 0.96167815 0.5886511
vt 0.96167815 0.5951955
vt 0.95349777 0.59683156
vt 0.96086013 0.59683156
vt 0.95349777 0.58701503
vt 0.96086013 0.58701503
vt 0.9526797 0.5583836
vt 0.9526797 0.5682001
vt 0.95349777 0.5583836
vt 0.95349777 0.5682001
vt 0.96086013 0.5583836
vt 0.96086013 0.5682001
vt 0.96167815 0.5583836
vt 0.96167815 0.5682001
vt 0.9526797 0.5780166
vt 0.9526797 0.58701503
vt 0.95349777 0.5780166
vt 0.95349777 0.58701503
vt 0.96086013 0.5780166
vt 0.96086013 0.58701503
vt 0.96167815 0.5780166
vt 0.96167815 0.58701503
vt 0.9526797 0.5706542
vt 0.9526797 0.58456093
vt 0.95349777 0.5706542
vt 0.95349777 0.58456093
vt 0.95349777 0.5706542
vt 0.95349777 0.58456093
vt 0.9551338 0.5706542
vt 0.9551338 0.58456093
vt 0.9551338 0.5706542
vt 0.9551338 0.58456093
vt 0.95595187 0.5706542
vt 0.95595187 0.58456093
vt 0.95595187 0.5706542
vt 0.95595187 0.58456093
vt 0.95676994 0.5706542
vt 0.95676994 0.58456093
vt 0.95676994 0.5706542
vt 0.95676994 0.58456093
vt 0.958406 0.5706542
vt 0.958406 0.58456093
vt 0.958406 0.5706542
vt 0.958406 0.58456093
vt 0.95922405 0.5706542
vt 0.95922405 0.58456093
vt 0.95922405 0.5706542
vt 0.95922405 0.58456093
vt 0.96086013 0.5706542
vt 0.96086013 0.58456093
vt 0.96086013 0.5706542
vt 0.96086013 0.58456093
vt 0.96167815 0.5706542
vt 0.96167815 0.58456093
vt 0.9526797 0.586197
vt 0.9510436 0.5911052
vt 0.95676994 0.59683156
vt 0.9526797 0.5951955
vt 0.9526797 0.586197
vt 0.95676994 0.59683156
vt 0.96167815 0.5951955
vt 0.96167815 0.5951955
vt 0.95676994 0.58456093
vt 0.96167815 0.586197
vt 0.96331424 0.5911052
vt 0.95676994 0.58456093
vt 0.95676994 0.58456093
vt 0.9526797 0.586197
vt 0.96167815 0.5951955
vt 0.95676994 0.59683156
vt 0.95676994 0.58456093
vt 0.95676994 0.58456093
vt 0.96167815 0.5951955
vt 0.96167815 0.5951955
vt 0.95676994 0.59683156
vt 0.96167815 0.5951955
vt 0.95676994 0.59683156
vt 0.96167815 0.5951955
vt 0.95676994 0.59683156
vt 0.95676994 0.59683156
vt 0.9526797 0.586197
vt 0.9526797 0.586197
vt 0.95676994 0.58456093
vt 0.9526797 0.586197
vt 0.95676994 0.58456093
vt 0.9526797 0.586197
vt 0.95676994 0.56165576
vt 0.95922405 0.5624738
vt 0.95676994 0.5583836
vt 0.96167815 0.5600197
vt 0.96331424 0.56410986
vt 0.9600421 0.56410986
vt 0.95922405 0.566564
vt 0.96167815 0.5690181
vt 0.95676994 0.5706542
vt 0.95676994 0.56738204
vt 0.9526797 0.5706542
vt 0.9526797 0.58456093
vt 0.95349777 0.5706542
vt 0.95349777 0.58456093
vt 0.958406 0.5706542
vt 0.958406 0.58456093
vt 0.95922405 0.5706542
vt 0.95922405 0.58456093
vt 0.95922405 0.5706542
vt 0.95922405 0.58456093
vt 0.96086013 0.5706542
vt 0.96086013 0.58456093
vt 0.96086013 0.5706542
vt 0.96086013 0.58456093
vt 0.96167815 0.5706542
vt 0.96167815 0.58456093
vt 0.96167815 0.5951955
vt 0.95922405 0.5927413
vt 0.95676994 0.59683156
vt 0.95676994 0.5935594
vt 0.96331424 0.5911052
vt 0.9600421 0.5911052
vt 0.95922405 0.5886511
vt 0.96167815 0.586197
vt 0.95676994 0.58456093
vt 0.95676994 0.5878331
vt 0.9764029 0.5583836
vt 0.93795496 0.5583836
vt 0.9764029 0.59683156
vt 0.93795496 0.59683156
vt 0.93795496 0.59683156
vt 0.9764029 0.59683156
vt 0.9764029 0.5583836
vt 0.93795496 0.5583836
vt 0.93795496 0.59683156
vt 0.9764029 0.5583836
vt 0.9764029 0.59683156
vt 0.93795496 0.5583836
vt 0.93795496 0.59683156
vt 0.9764029 0.5583836
vt 0.9764029 0.59683156
vt 0.93795496 0.5583836
vt 0.93795496 0.59683156
vt 0.9764029 0.5583836
vt 0.9764029 0.59683156
vt 0.9764029 0.5583836
vt 0.93795496 0.5583836
vt 0.9764029 0.59683156
vt 0.93795496 0.59683156
vt 0.93795496 0.5583836
vt 0.93795496 0.59683156
vt 0.9764029 0.5583836
vt 0.9764029 0.59683156
vt 0.93795496 0.5583836
vt 0.93795496 0.59683156
vt 0.9764029 0.5583836
vt 0.9764029 0.59683156
vt 0.93795496 0.5583836
vt 0.93795496 0.59683156
vt 0.9764029 0.5583836
vt 0.9764029 0.59683156
vt 0.93795496 0.5583836
vt 0.93795496 0.59683156
vt 0.9764029 0.5583836
vt 0.9764029 0.59683156
vt 0.93795496 0.5583836
vt 0.93795496 0.59683156
vt 0.9764029 0.5583836
vt 0.9764029 0.59683156
vt 0.93795496 0.5583836
vt 0.93795496 0.59683156
vt 0.9764029 0.5583836
vt 0.9764029 0.59683156
vt 0.93795496 0.5583836
vn -0.011763803 -0.99993086 -0
vn -0.011763803 -0.99993086 -0
vn -0.011763803 -0.99993086 -0
vn -0.011763803 -0.99993086 -0
vn 0.011763923 0.99993086 -0
vn 0.011763923 0.99993086 -0
vn 0.011763923 0.99993086 -0
vn 0.011763923 0.99993086 -0
vn 0.99993086 -0.011763922 -0
vn 0.99993086 -0.011763922 -0
vn 0.99993086 -0.011763922 -0
vn 0.99993086 -0.011763922 -0
vn -0.99993086 0.011763804 -0
vn -0.99993086 0.011763804 -0
vn -0.99993086 0.011763804 -0
vn -0.99993086 0.011763804 -0
vn -0.003921509 -0.011764646 0.9999231
vn -0.003921509 -0.011764646 0.9999231
vn -0.003921509 -0.011764646 0.9999231
vn -0.003921509 -0.011764646 0.9999231
vn -0.003921509 -0.011764646 0.9999231
vn -0.003921509 -0.011764646 0.9999231
vn -0.003921509 -0.011764646 0.9999231
vn -0.003921509 -0.011764646 0.9999231
vn 0.0039215684 0.011764526 -0.9999231
vn 0.0039215684 0.011764526 -0.9999231
vn 0.0039215684 0.011764526 -0.9999231
vn 0.0039215684 0.011764526 -0.9999231
vn 0.0039215684 0.011764526 -0.9999231
vn 0.0039215684 0.011764526 -0.9999231
vn 0.0039215684 0.011764526 -0.9999231
vn 0.0039215684 0.011764526 -0.9999231
vn -0.7148764 -0.6992508 -0
vn -0.7148764 -0.6992508 -0
vn -0.7148764 -0.6992508 -0
vn -0.7148764 -0.6992508 -0
vn 0.69925076 -0.7148765 -0
vn 0.69925076 -0.7148765 -0
vn 0.69925076 -0.7148765 -0
vn 0.69925076 -0.7148765 -0
vn -0.6992508 0.71487653 -0
vn -0.6992508 0.71487653 -0
vn -0.6992508 0.71487653 -0
vn -0.6992508 0.71487653 -0
vn 0.71487653 0.6992507 -0
vn 0.71487653 0.6992507 -0
vn 0.71487653 0.6992507 -0
vn 0.71487653 0.6992507 -0
vn -0.003921509 0.99999225 -0.00034526698
vn -0.003921509 0.99999225 -0.00034526698
vn -0.003921509 0.99999225 -0.00034526698
vn -0.003921509 0.99999225 -0.00034526698
vn -0.70710677 0.70710677 -0
vn -0.70710677 0.70710677 -0
vn -0.70710677 0.70710677 -0
vn -0.70710677 0.70710677 -0
vn -0.99999225 -0.0039215684 -0.00034425134
vn -0.99999225 -0.0039215684 -0.00034425134
vn -0.99999225 -0.0039215684 -0.00034425134
vn -0.99999225 -0.0039215684 -0.00034425134
vn -0.70710677 -0.7071068 -0
vn -0.70710677 -0.7071068 -0
vn -0.70710677 -0.7071068 -0
vn -0.70710677 -0.7071068 -0
vn 0.0039215684 -0.9999924 -0
vn 0.0039215684 -0.9999924 -0
vn 0.0039215684 -0.9999924 -0
vn 0.0039215684 -0.9999924 -0
vn 0.70710677 -0.70710677 -0
vn 0.70710677 -0.70710677 -0
vn 0.70710677 -0.70710677 -0
vn 0.70710677 -0.70710677 -0
vn 0.9999924 0.003921509 -0
vn 0.9999924 0.003921509 -0
vn 0.9999924 0.003921509 -0
vn 0.9999924 0.003921509 -0
vn 0.7071068 0.70710677 -0
vn 0.7071068 0.70710677 -0
vn 0.7071068 0.70710677 -0
vn 0.7071068 0.70710677 -0
vn -0.003921509 -0.011764646 0.9999231
vn -0.003921509 -0.011764646 0.9999231
vn -0.003921509 -0.011764646 0.9999231
vn -0.003921509 -0.011764646 0.9999231
vn -0.003921509 -0.011764646 0.9999231
vn -0.003921509 -0.011764646 0.9999231
vn -0.003921509 -0.011764646 0.9999231
vn -0.003921509 -0.011764646 0.9999231
vn -0.003921509 -0.011764646 0.9999231
vn -0.003921509 -0.011764646 0.9999231
vn -0.003921509 -0.011764646 0.9999231
vn -0.003921509 -0.011764646 0.9999231
vn -0.003921509 -0.011764646 0.9999231
vn -0.003921509 -0.011764646 0.9999231
vn -0.003921509 -0.011764646 0.9999231
vn -0.003921509 -0.011764646 0.9999231
vn -0.99999225 -0.0039215684 -0.00034425134
vn -0.99999225 -0.0039215684 -0.00034425134
vn -0.99999225 -0.0039215684 -0.00034425134
vn -0.99999225 -0.0039215684 -0.00034425134
vn -0.003921509 -0.9999924 -0
vn -0.003921509 -0.9999924 -0
vn -0.003921509 -0.9999924 -0
vn -0.003921509 -0.9999924 -0
vn 0.9999924 0.003921509 -0
vn 0.9999924 0.003921509 -0
vn 0.9999924 0.003921509 -0
vn 0.9999924 0.003921509 -0
vn 0.0039215684 0.99214923 0.12499809
vn 0.0039215684 0.99214923 0.12499809
vn 0.0039215684 0.99214923 0.12499809
vn 0.0039215684 0.99214923 0.12499809
vn -0.19999838 0.066666126 -0.9775256
vn -0.12941074 0.1450969 -0.9809178
vn -0.19999838 0.066666126 -0.9775256
vn -0.12941074 0.1450969 -0.9809178
vn 0.0039215684 0.20784152 -0.97815466
vn 0.0039215684 0.20784152 -0.97815466
vn 0.14509696 0.1450969 -0.9787204
vn 0.14509696 0.1450969 -0.9787204
vn 0.20784158 0.066666126 -0.9758881
vn 0.20784158 0.066666126 -0.9758881
vn -0.9651236 0.2617946 -0
vn -0.9651236 0.2617946 -0
vn -0.9651236 0.2617946 -0
vn -0.9651236 0.2617946 -0
vn 0.96862006 0.23921382 0.067467734
vn 0.96862006 0.23921382 0.067467734
vn 0.96862006 0.23921382 0.067467734
vn 0.96862006 0.23921382 0.067467734
vn 0.36470312 0.9294046 0.056556903
vn 0.36470312 0.9294046 0.056556903
vn 0.36470312 0.9294046 0.056556903
vn 0.36470312 0.9294046 0.056556903
vn -0.34897402 0.9371324 -0
vn -0.34897402 0.9371324 -0
vn -0.34897402 0.9371324 -0
vn -0.34897402 0.9371324 -0
vn -0.13725376 0.12156761 0.98304766
vn -0.13725376 0.12156761 0.98304766
vn -0.20784152 0.043136835 0.9772109
vn -0.20784152 0.043136835 0.9772109
vn -0.003921509 0.18431222 0.9828599
vn -0.003921509 0.18431222 0.9828599
vn 0.13725388 0.12156761 0.98304766
vn 0.13725388 0.12156761 0.98304766
vn 0.20784158 0.035293818 0.97752553
vn 0.20784158 0.035293818 0.97752553
vn -0.20784152 0.011764526 -0.9780918
vn -0.20784152 0.011764526 -0.9780918
vn -0.20784152 0.011764526 -0.9780918
vn -0.20784152 0.011764526 -0.9780918
vn 0.20784158 0.011764526 -0.9780918
vn 0.20784158 0.011764526 -0.9780918
vn 0.20784158 0.011764526 -0.9780918
vn -0.99993086 0.011763804 -0
vn -0.99993086 0.011763804 -0
vn -0.99993086 0.011763804 -0
vn -0.99993086 0.011763804 -0
vn 0.99993086 -0.011763922 -0
vn 0.99993086 -0.011763922 -0
vn 0.99993086 -0.011763922 -0
vn 0.99993086 -0.011763922 -0
vn -0.20784152 -0.011764646 0.9780918
vn -0.20784152 -0.011764646 0.9780918
vn -0.20784152 -0.011764646 0.9780918
vn -0.20784152 -0.011764646 0.9780918
vn 0.20784158 -0.011764646 0.9780918
vn 0.20784158 -0.011764646 0.9780918
vn 0.20784158 -0.011764646 0.9780918
vn 0.20784158 -0.011764646 0.9780918
vn 0.9651236 -0.2617947 -0
vn 0.9651236 -0.2617947 -0
vn 0.9651236 -0.2617947 -0
vn 0.9651236 -0.2617947 -0
vn -0.96861994 -0.23921388 -0.06746928
vn -0.96861994 -0.23921388 -0.06746928
vn -0.96861994 -0.23921388 -0.06746928
vn -0.96861994 -0.23921388 -0.06746928
vn -0.36470306 -0.9294047 -0.056556378
vn -0.36470306 -0.9294047 -0.056556378
vn -0.36470306 -0.9294047 -0.056556378
vn -0.36470306 -0.9294047 -0.056556378
vn 0.34897402 -0.9371325 -0
vn 0.34897402 -0.9371325 -0
vn 0.34897402 -0.9371325 -0
vn 0.34897402 -0.9371325 -0
vn 0.99993086 -0.011763922 -0
vn 0.99993086 -0.011763922 -0
vn 0.99993086 -0.011763922 -0
vn 0.99993086 -0.011763922 -0
vn -0.99993086 0.011763804 -0
vn -0.99993086 0.011763804 -0
vn -0.99993086 0.011763804 -0
vn -0.99993086 0.011763804 -0
vn 0.20784158 0.011764526 -0.9780918
g mimicPiece3_0
f 3/3/3 2/2/2 1/1/1
f 3/3/3 4/4/4 2/2/2
f 7/7/7 6/6/6 5/5/5
f 7/7/7 8/8/8 6/6/6
f 11/11/11 10/10/10 9/9/9
f 11/11/11 12/12/12 10/10/10
f 15/15/15 14/14/14 13/13/13
f 15/15/15 16/16/16 14/14/14
f 19/19/19 18/18/18 17/17/17
f 19/19/19 20/20/20 18/18/18
f 18/18/18 21/21/21 17/17/17
f 18/18/18 22/22/22 21/21/21
f 22/22/22 23/23/23 21/21/21
f 22/22/22 24/24/24 23/23/23
f 27/27/27 26/26/26 25/25/25
f 27/27/27 28/28/28 26/26/26
f 28/28/28 29/29/29 26/26/26
f 28/28/28 30/30/30 29/29/29
f 31/31/31 27/27/27 25/25/25
f 31/31/31 32/32/32 27/27/27
f 35/35/35 34/34/34 33/33/33
f 35/35/35 36/36/36 34/34/34
f 39/39/39 38/38/38 37/37/37
f 39/39/39 40/40/40 38/38/38
f 43/43/43 42/42/42 41/41/41
f 43/43/43 44/44/44 42/42/42
f 47/47/47 46/46/46 45/45/45
f 47/47/47 48/48/48 46/46/46
f 51/51/51 50/50/50 49/49/49
f 51/51/51 52/52/52 50/50/50
f 55/55/55 54/54/54 53/53/53
f 55/55/55 56/56/56 54/54/54
f 59/59/59 58/58/58 57/57/57
f 59/59/59 60/60/60 58/58/58
f 63/63/63 62/62/62 61/61/61
f 63/63/63 64/64/64 62/62/62
f 67/67/67 66/66/66 65/65/65
f 67/67/67 68/68/68 66/66/66
f 71/71/71 70/70/70 69/69/69
f 71/71/71 72/72/72 70/70/70
f 75/75/75 74/74/74 73/73/73
f 75/75/75 76/76/76 74/74/74
f 79/79/79 78/78/78 77/77/77
f 79/79/79 80/80/80 78/78/78
f 83/83/83 82/82/82 81/81/81
f 83/83/83 84/84/84 82/82/82
f 85/85/85 83/83/83 81/81/81
f 85/85/85 86/86/86 83/83/83
f 83/83/83 86/86/86 87/87/87
f 83/83/83 87/87/87 88/88/88
f 87/87/87 89/89/89 88/88/88
f 89/89/89 85/85/85 81/81/81
f 88/88/88 89/89/89 90/90/90
f 88/88/88 90/90/90 91/91/91
f 87/87/87 92/92/92 89/89/89
f 89/89/89 92/92/92 85/85/85
f 95/95/95 94/94/94 93/93/93
f 95/95/95 96/96/96 94/94/94
f 99/99/99 98/98/98 97/97/97
f 99/99/99 100/100/100 98/98/98
f 103/103/103 102/102/102 101/101/101
f 103/103/103 104/104/104 102/102/102
f 107/107/107 106/106/106 105/105/105
f 107/107/107 108/108/108 106/106/106
f 111/111/111 110/110/110 109/109/109
f 111/111/111 112/112/112 110/110/110
f 115/115/115 114/114/114 113/113/113
f 115/115/115 116/116/116 114/114/114
f 114/114/114 116/116/116 117/117/117
f 114/114/114 117/117/117 118/118/118
f 117/117/117 119/119/119 118/118/118
f 117/117/117 120/120/120 119/119/119
f 119/119/119 120/120/120 121/121/121
f 119/119/119 121/121/121 122/122/122
f 125/125/125 124/124/124 123/123/123
f 125/125/125 126/126/126 124/124/124
f 129/129/129 128/128/128 127/127/127
f 129/129/129 130/130/130 128/128/128
f 133/133/133 132/132/132 131/131/131
f 133/133/133 134/134/134 132/132/132
f 137/137/137 136/136/136 135/135/135
f 137/137/137 138/138/138 136/136/136
f 141/141/141 140/140/140 139/139/139
f 141/141/141 142/142/142 140/140/140
f 140/140/140 143/143/143 139/139/139
f 140/140/140 144/144/144 143/143/143
f 143/143/143 144/144/144 145/145/145
f 143/143/143 145/145/145 146/146/146
f 145/145/145 147/147/147 146/146/146
f 145/145/145 148/148/148 147/147/147
f 151/151/151 150/150/150 149/149/149
f 151/151/151 152/152/152 150/150/150
f 155/155/155 154/154/154 153/153/153
f 158/158/158 157/157/157 156/156/156
f 158/158/158 159/159/159 157/157/157
f 162/162/162 161/161/161 160/160/160
f 162/162/162 163/163/163 161/161/161
f 166/166/166 165/165/165 164/164/164
f 166/166/166 167/167/167 165/165/165
f 170/170/170 169/169/169 168/168/168
f 170/170/170 171/171/171 169/169/169
f 174/174/174 173/173/173 172/172/172
f 174/174/174 175/175/175 173/173/173
f 178/178/178 177/177/177 176/176/176
f 178/178/178 179/179/179 177/177/177
f 182/182/182 181/181/181 180/180/180
f 182/182/182 183/183/183 181/181/181
f 186/186/186 185/185/185 184/184/184
f 186/186/186 187/187/187 185/185/185
f 190/190/190 189/189/189 188/188/188
f 190/190/190 191/191/191 189/189/189
f 194/194/194 193/193/193 192/192/192
f 194/194/194 195/195/195 193/193/193
g mimicPiece3_1
f 155/155/155 153/153/153 196/196/196
