g mimicPiece4
v -0.07332711 -0.012598492 0.057633996
v -0.076234624 -0.01353202 -0.095106654
v -0.049277484 0.062462017 0.027650088
v -0.076234624 -0.01353202 -0.095106654
v -0.056297436 0.07713525 -0.08235805
v -0.049277484 0.062462017 0.027650088
v -0.0031933337 0.13475482 -0.004241988
v 0.0066806674 0.13000907 -0.0036127865
v -0.0020007193 0.12632842 0.0031768829
v 0.0066806674 0.13000907 -0.0036127865
v 0.011919938 0.13019411 0.011611521
v -0.0020007193 0.12632842 0.0031768829
v 0.049372055 0.05716929 -0.07209336
v 0.07933539 -0.013042644 -0.097582355
v 0.053862855 0.049524233 0.027748793
v 0.07933539 -0.013042644 -0.097582355
v 0.07102413 -0.0146465 0.049117103
v 0.053862855 0.049524233 0.027748793
v 0.07102413 -0.0146465 0.049117103
v -0.07332711 -0.012598492 0.057633996
v 0.053862855 0.049524233 0.027748793
v -0.049277484 0.062462017 0.027650088
v 0.07933539 -0.013042644 -0.097582355
v 0.049372055 0.05716929 -0.07209336
v -0.076234624 -0.01353202 -0.095106654
v 0.049372055 0.05716929 -0.07209336
v -0.056297436 0.07713525 -0.08235805
v -0.076234624 -0.01353202 -0.095106654
v -0.07933541 -0.13304403 0.09758237
v -0.069477856 -0.13475482 -0.08863366
v -0.07332711 -0.012598492 0.057633996
v -0.069477856 -0.13475482 -0.08863366
v -0.076234624 -0.01353202 -0.095106654
v -0.07332711 -0.012598492 0.057633996
v -0.07933541 -0.13304403 0.09758237
v -0.07332711 -0.012598492 0.057633996
v 0.071295545 -0.13447517 0.08166306
v 0.07102413 -0.0146465 0.049117103
v 0.07933539 -0.013042644 -0.097582355
v 0.06993432 -0.13475482 -0.08829643
v 0.07102413 -0.0146465 0.049117103
v 0.06993432 -0.13475482 -0.08829643
v 0.071295545 -0.13447517 0.08166306
v 0.07102413 -0.0146465 0.049117103
v 0.06993432 -0.13475482 -0.08829643
v 0.07933539 -0.013042644 -0.097582355
v -0.069477856 -0.13475482 -0.08863366
v -0.076234624 -0.01353202 -0.095106654
v 0.0066806674 0.13000907 -0.0036127865
v 0.049372055 0.05716929 -0.07209336
v 0.011919938 0.13019411 0.011611521
v 0.011919938 0.13019411 0.011611521
v 0.049372055 0.05716929 -0.07209336
v 0.053862855 0.049524233 0.027748793
v -0.0020007193 0.12632842 0.0031768829
v 0.011919938 0.13019411 0.011611521
v -0.049277484 0.062462017 0.027650088
v -0.049277484 0.062462017 0.027650088
v 0.011919938 0.13019411 0.011611521
v 0.053862855 0.049524233 0.027748793
v -0.0031933337 0.13475482 -0.004241988
v -0.0020007193 0.12632842 0.0031768829
v -0.056297436 0.07713525 -0.08235805
v -0.056297436 0.07713525 -0.08235805
v -0.0020007193 0.12632842 0.0031768829
v -0.049277484 0.062462017 0.027650088
v -0.0031933337 0.13475482 -0.004241988
v -0.056297436 0.07713525 -0.08235805
v 0.0066806674 0.13000907 -0.0036127865
v 0.049372055 0.05716929 -0.07209336
v 0.0066806674 0.13000907 -0.0036127865
v -0.056297436 0.07713525 -0.08235805
vt 0.12401474 0.31585485
vt 0.12192384 0.31637755
vt 0.13812831 0.27194592
vt 0.12192384 0.31637755
vt 0.13394652 0.26358235
vt 0.13812831 0.27194592
vt 0.16478729 0.18465084
vt 0.17053726 0.18726447
vt 0.16531003 0.1898781
vt 0.17053726 0.18726447
vt 0.17367361 0.18726447
vt 0.16531003 0.1898781
vt 0.19562808 0.2750823
vt 0.21287799 0.31637755
vt 0.1982417 0.27978683
vt 0.21287799 0.31637755
vt 0.20817348 0.317423
vt 0.1982417 0.27978683
vt 0.20817348 0.317423
vt 0.12401474 0.31585485
vt 0.1982417 0.27978683
vt 0.13812831 0.27194592
vt 0.21287799 0.31637755
vt 0.19562808 0.2750823
vt 0.12192384 0.31637755
vt 0.19562808 0.2750823
vt 0.13394652 0.26358235
vt 0.12192384 0.31637755
vt 0.120355666 0.38642272
vt 0.12610564 0.38746816
vt 0.12401474 0.31585485
vt 0.12610564 0.38746816
vt 0.12192384 0.31637755
vt 0.12401474 0.31585485
vt 0.120355666 0.38642272
vt 0.12401474 0.31585485
vt 0.20817348 0.38746816
vt 0.20817348 0.317423
vt 0.21287799 0.31637755
vt 0.20765075 0.38746816
vt 0.20817348 0.317423
vt 0.20765075 0.38746816
vt 0.20817348 0.38746816
vt 0.20817348 0.317423
vt 0.20765075 0.38746816
vt 0.21287799 0.31637755
vt 0.12610564 0.38746816
vt 0.12192384 0.31637755
vt 0.17053726 0.18726447
vt 0.19562808 0.2750823
vt 0.17367361 0.18726447
vt 0.17367361 0.18726447
vt 0.19562808 0.2750823
vt 0.1982417 0.27978683
vt 0.16531003 0.1898781
vt 0.17367361 0.18726447
vt 0.13812831 0.27194592
vt 0.13812831 0.27194592
vt 0.17367361 0.18726447
vt 0.1982417 0.27978683
vt 0.16478729 0.18465084
vt 0.16531003 0.1898781
vt 0.13394652 0.26358235
vt 0.13394652 0.26358235
vt 0.16531003 0.1898781
vt 0.13812831 0.27194592
vt 0.16478729 0.18465084
vt 0.13394652 0.26358235
vt 0.17053726 0.18726447
vt 0.19562808 0.2750823
vt 0.17053726 0.18726447
vt 0.13394652 0.26358235
vn -0.9510224 0.3091221 -0
vn -0.9510224 0.3091221 -0
vn -0.9510224 0.3091221 -0
vn -0.9762691 0.19989026 0.08332159
vn -0.9762691 0.19989026 0.08332159
vn -0.9762691 0.19989026 0.08332159
vn 0.27064246 0.6547384 0.7057409
vn 0.27064246 0.6547384 0.7057409
vn 0.27064246 0.6547384 0.7057409
vn -0.32536554 0.9449003 0.036065944
vn -0.32536554 0.9449003 0.036065944
vn -0.32536554 0.9449003 0.036065944
vn 0.9187846 0.39475915 -0
vn 0.9187846 0.39475915 -0
vn 0.9187846 0.39475915 -0
vn 0.96051127 0.27824116 -0
vn 0.96051127 0.27824116 -0
vn 0.96051127 0.27824116 -0
vn 0.05890274 0.33320785 0.94101167
vn 0.05890274 0.33320785 0.94101167
vn 0.05890274 0.33320785 0.94101167
vn 0.043218315 0.3567344 0.9332056
vn -0.01951933 0.33320785 -0.94265133
vn -0.01951933 0.33320785 -0.94265133
vn -0.01951933 0.33320785 -0.94265133
vn 0.1137982 0.113625884 -0.9869849
vn 0.1137982 0.113625884 -0.9869849
vn 0.1137982 0.113625884 -0.9869849
vn -0.9993806 0.0351892 -0
vn -0.9997957 -0.011849463 -0.016376205
vn -0.9997957 0.0038349628 -0.019846482
vn -0.9997957 -0.011849463 -0.016376205
vn -0.9986985 -0.05100452 -0
vn -0.9997957 0.0038349628 -0.019846482
vn 0.10595602 0.30968118 0.94491845
vn 0.08242935 0.2861545 0.9546314
vn 0.08242935 0.2861545 0.9546314
vn 0.05890274 0.26262796 0.96309763
vn 0.99212587 -0.07458717 0.10061326
vn 0.99937475 -0.035355143 -0
vn 0.99962115 -0.027524337 -0
vn 0.99937475 -0.035355143 -0
vn 0.99996805 0.0038349628 -0.007013504
vn 0.99962115 -0.027524337 -0
vn 0.00400728 -0.07458717 -0.99720645
vn -0.0038349628 -0.06674492 -0.9977627
vn -0.011677146 -0.06674492 -0.9977017
vn -0.01951933 -0.051060557 -0.9985048
vn 0.7098062 0.6547384 -0.25979367
vn 0.7098062 0.6547384 -0.25979367
vn 0.7098062 0.6547384 -0.25979367
vn 0.88893104 0.45804107 -0
vn 0.88893104 0.45804107 -0
vn 0.88893104 0.45804107 -0
vn -0.529263 0.6155274 0.5839578
vn -0.529263 0.6155274 0.5839578
vn -0.529263 0.6155274 0.5839578
vn 0.027533889 0.20773244 0.9777981
vn 0.027533889 0.20773244 0.9777981
vn 0.027533889 0.20773244 0.9777981
vn -0.8743204 0.23910129 0.42236766
vn -0.8743204 0.23910129 0.42236766
vn -0.8743204 0.23910129 0.42236766
vn -0.77237165 0.6233696 0.12187044
vn -0.77237165 0.6233696 0.12187044
vn -0.77237165 0.6233696 0.12187044
vn 0.34906453 0.6233696 -0.69968873
vn 0.34906453 0.6233696 -0.69968873
vn 0.34906453 0.6233696 -0.69968873
vn 0.20006251 0.7331606 -0.64996195
vn 0.20006251 0.7331606 -0.64996195
vn 0.20006251 0.7331606 -0.64996195
g mimicPiece4_0
f 3/3/3 2/2/2 1/1/1
f 6/6/6 5/5/5 4/4/4
f 9/9/9 8/8/8 7/7/7
f 12/12/12 11/11/11 10/10/10
f 15/15/15 14/14/14 13/13/13
f 18/18/18 17/17/17 16/16/16
f 21/21/21 20/20/20 19/19/19
f 21/21/21 22/22/22 20/20/20
f 25/25/25 24/24/24 23/23/23
f 28/28/28 27/27/27 26/26/26
f 31/31/31 30/30/30 29/29/29
f 34/34/34 33/33/33 32/32/32
f 37/37/37 36/36/36 35/35/35
f 37/37/37 38/38/38 36/36/36
f 41/41/41 40/40/40 39/39/39
f 44/44/44 43/43/43 42/42/42
f 47/47/47 46/46/46 45/45/45
f 47/47/47 48/48/48 46/46/46
f 51/51/51 50/50/50 49/49/49
f 54/54/54 53/53/53 52/52/52
f 57/57/57 56/56/56 55/55/55
f 60/60/60 59/59/59 58/58/58
f 63/63/63 62/62/62 61/61/61
f 66/66/66 65/65/65 64/64/64
f 69/69/69 68/68/68 67/67/67
f 72/72/72 71/71/71 70/70/70
