g polearmBandit_break02
v 0.10345031 -0.1444744 -0.028752558
v 0.065895386 -0.1444744 0.00046850202
v 0.07700012 -0.34878105 0.00046850202
v 0.10318176 -0.34878096 -0.028752558
v 0.065895386 -0.1444744 0.00046850202
v 0.10345031 -0.1444744 -0.028752558
v 0.032719117 0.21058433 -0.028752558
v -0.020239867 0.21209022 0.00046850202
v -0.020239867 0.21209022 0.00046850202
v 0.032719117 0.21058433 -0.028752558
v -0.1099884 0.33907583 -0.028752558
v -0.118567504 0.27480185 0.00046850202
v -0.118567504 0.27480185 0.00046850202
v -0.1099884 0.33907583 -0.028752558
v -0.29157653 0.28508812 0.00046850202
v 0.15004943 -0.34878096 -0.028752558
v 0.16770813 -0.34878105 0.00046850202
v 0.18268006 -0.1444744 0.00046850202
v 0.15458679 -0.1444744 -0.028752558
v 0.2186029 0.1267971 -0.028752558
v 0.15458679 -0.1444744 -0.028752558
v 0.18268006 -0.1444744 0.00046850202
v 0.29157653 0.10073738 0.00046850202
v 0.08595642 0.2884609 -0.028752558
v 0.2186029 0.1267971 -0.028752558
v 0.29157653 0.10073738 0.00046850202
v 0.1206488 0.31340933 0.00046850202
v -0.1099884 0.33907583 -0.028752558
v 0.08595642 0.2884609 -0.028752558
v 0.1206488 0.31340933 0.00046850202
v -0.10309387 0.39072195 0.00046850202
v -0.1099884 0.33907583 -0.028752558
v 0.032719117 0.21058433 -0.028752558
v 0.08595642 0.2884609 -0.028752558
v 0.2186029 0.1267971 -0.028752558
v 0.15458679 -0.1444744 -0.028752558
v 0.10345031 -0.1444744 -0.028752558
v 0.10318176 -0.34878096 -0.028752558
v 0.15004943 -0.34878096 -0.028752558
v -0.29157653 0.28508812 0.00046850202
v -0.1099884 0.33907583 -0.028752558
v -0.10309387 0.39072195 0.00046850202
v 0.10345031 -0.1444744 0.029689562
v 0.10318176 -0.34878096 0.029689562
v 0.07700012 -0.34878105 0.00046850202
v 0.065895386 -0.1444744 0.00046850202
v 0.065895386 -0.1444744 0.00046850202
v -0.020239867 0.21209022 0.00046850202
v 0.032719117 0.21058433 0.029689562
v 0.10345031 -0.1444744 0.029689562
v -0.020239867 0.21209022 0.00046850202
v -0.118567504 0.27480185 0.00046850202
v -0.1099884 0.33907583 0.029689562
v 0.032719117 0.21058433 0.029689562
v -0.118567504 0.27480185 0.00046850202
v -0.29157653 0.28508812 0.00046850202
v -0.1099884 0.33907583 0.029689562
v 0.15004943 -0.34878096 0.029689562
v 0.15458679 -0.1444744 0.029689562
v 0.18268006 -0.1444744 0.00046850202
v 0.16770813 -0.34878105 0.00046850202
v 0.2186029 0.1267971 0.029689562
v 0.29157653 0.10073738 0.00046850202
v 0.18268006 -0.1444744 0.00046850202
v 0.15458679 -0.1444744 0.029689562
v 0.08595642 0.2884609 0.029689562
v 0.1206488 0.31340933 0.00046850202
v 0.29157653 0.10073738 0.00046850202
v 0.2186029 0.1267971 0.029689562
v -0.1099884 0.33907583 0.029689562
v -0.10309387 0.39072195 0.00046850202
v 0.1206488 0.31340933 0.00046850202
v 0.08595642 0.2884609 0.029689562
v -0.1099884 0.33907583 0.029689562
v 0.08595642 0.2884609 0.029689562
v 0.032719117 0.21058433 0.029689562
v 0.2186029 0.1267971 0.029689562
v 0.15458679 -0.1444744 0.029689562
v 0.10345031 -0.1444744 0.029689562
v 0.10318176 -0.34878096 0.029689562
v 0.15004943 -0.34878096 0.029689562
v -0.29157653 0.28508812 0.00046850202
v -0.10309387 0.39072195 0.00046850202
v -0.1099884 0.33907583 0.029689562
v 0.16770813 -0.34878105 0.00046850202
v 0.15004943 -0.34878096 -0.028752558
v 0.10318176 -0.34878096 -0.028752558
v 0.07700012 -0.34878105 0.00046850202
v 0.15004943 -0.34878096 0.029689562
v 0.10318176 -0.34878096 0.029689562
v 0.09490539 -0.3888272 0.052174263
v 0.09446106 -0.34289566 0.054583594
v 0.15713806 -0.34320128 0.055364072
v 0.1553363 -0.38909408 0.052953288
v 0.06525574 -0.3883062 -0.0010738203
v 0.06367004 -0.3423899 -0.00070508476
v 0.09446106 -0.34289566 0.054583594
v 0.09490539 -0.3888272 0.052174263
v 0.096110225 -0.3878502 -0.053708542
v 0.095728144 -0.3420404 -0.055364072
v 0.06367004 -0.3423899 -0.00070508476
v 0.06525574 -0.3883062 -0.0010738203
v 0.15665588 -0.387562 -0.05293194
v 0.1585199 -0.34191757 -0.05454522
v 0.095728144 -0.3420404 -0.055364072
v 0.096110225 -0.3878502 -0.053708542
v 0.18625061 -0.38899124 0.00036328493
v 0.1891571 -0.3431166 0.00076743244
v 0.1585199 -0.34191757 -0.05454522
v 0.15665588 -0.387562 -0.05293194
v 0.1553363 -0.38909408 0.052953288
v 0.15713806 -0.34320128 0.055364072
v 0.1891571 -0.3431166 0.00076743244
v 0.18625061 -0.38899124 0.00036328493
v 0.08800354 -0.34108856 -0.0004306397
v 0.10760559 -0.3407182 -0.034416866
v 0.14610413 -0.34014708 -0.03387555
v 0.1649237 -0.34092405 0.0005279505
v 0.106886595 -0.34113845 0.033945467
v 0.14528991 -0.3409983 0.034489535
v 0.10740784 -0.39072195 0.0313769
v 0.09490539 -0.3888272 0.052174263
v 0.1553363 -0.38909408 0.052953288
v 0.14338195 -0.3905419 0.031887613
v 0.14528991 -0.3409983 0.034489535
v 0.15713806 -0.34320128 0.055364072
v 0.09446106 -0.34289566 0.054583594
v 0.106886595 -0.34113845 0.033945467
v 0.0897174 -0.39065772 -0.0008274722
v 0.06525574 -0.3883062 -0.0010738203
v 0.09490539 -0.3888272 0.052174263
v 0.10740784 -0.39072195 0.0313769
v 0.106886595 -0.34113845 0.033945467
v 0.09446106 -0.34289566 0.054583594
v 0.06367004 -0.3423899 -0.00070508476
v 0.08800354 -0.34108856 -0.0004306397
v 0.10808044 -0.39018133 -0.03266775
v 0.096110225 -0.3878502 -0.053708542
v 0.06525574 -0.3883062 -0.0010738203
v 0.0897174 -0.39065772 -0.0008274722
v 0.08800354 -0.34108856 -0.0004306397
v 0.06367004 -0.3423899 -0.00070508476
v 0.095728144 -0.3420404 -0.055364072
v 0.10760559 -0.3407182 -0.034416866
v 0.14414734 -0.3894477 -0.03216154
v 0.15665588 -0.387562 -0.05293194
v 0.096110225 -0.3878502 -0.053708542
v 0.10808044 -0.39018133 -0.03266775
v 0.10760559 -0.3407182 -0.034416866
v 0.095728144 -0.3420404 -0.055364072
v 0.1585199 -0.34191757 -0.05454522
v 0.14610413 -0.34014708 -0.03387555
v 0.16177674 -0.3904464 7.088184E-05
v 0.18625061 -0.38899124 0.00036328493
v 0.15665588 -0.387562 -0.05293194
v 0.14414734 -0.3894477 -0.03216154
v 0.14610413 -0.34014708 -0.03387555
v 0.1585199 -0.34191757 -0.05454522
v 0.1891571 -0.3431166 0.00076743244
v 0.1649237 -0.34092405 0.0005279505
v 0.14338195 -0.3905419 0.031887613
v 0.1553363 -0.38909408 0.052953288
v 0.18625061 -0.38899124 0.00036328493
v 0.16177674 -0.3904464 7.088184E-05
v 0.1649237 -0.34092405 0.0005279505
v 0.1891571 -0.3431166 0.00076743244
v 0.15713806 -0.34320128 0.055364072
v 0.14528991 -0.3409983 0.034489535
v 0.14414734 -0.3894477 -0.03216154
v 0.10808044 -0.39018133 -0.03266775
v 0.0897174 -0.39065772 -0.0008274722
v 0.16177674 -0.3904464 7.088184E-05
v 0.10740784 -0.39072195 0.0313769
v 0.14338195 -0.3905419 0.031887613
vt 0.411479 0.8624894
vt 0.4008297 0.85062623
vt 0.40397868 0.85062623
vt 0.411403 0.8624894
vt 0.4008297 0.85062623
vt 0.411479 0.8624894
vt 0.39142218 0.8624894
vt 0.3764049 0.85062623
vt 0.3764049 0.85062623
vt 0.39142218 0.8624894
vt 0.3509554 0.8624894
vt 0.3485227 0.85062623
vt 0.3485227 0.85062623
vt 0.3509554 0.8624894
vt 0.2994634 0.85062623
vt 0.4246931 0.8624894
vt 0.42970043 0.85062623
vt 0.43394607 0.85062623
vt 0.4259796 0.8624894
vt 0.44413233 0.8624894
vt 0.4259796 0.8624894
vt 0.43394607 0.85062623
vt 0.46482527 0.85062623
vt 0.4065183 0.8624894
vt 0.44413233 0.8624894
vt 0.46482527 0.85062623
vt 0.4163561 0.85062623
vt 0.3509554 0.8624894
vt 0.4065183 0.8624894
vt 0.4163561 0.85062623
vt 0.35291025 0.85062623
vt 0.3509554 0.8624894
vt 0.39142218 0.8624894
vt 0.4065183 0.8624894
vt 0.44413233 0.8624894
vt 0.4259796 0.8624894
vt 0.411479 0.8624894
vt 0.411403 0.8624894
vt 0.4246931 0.8624894
vt 0.2994634 0.85062623
vt 0.3509554 0.8624894
vt 0.35291025 0.85062623
vt 0.411479 0.838763
vt 0.411403 0.838763
vt 0.40397868 0.85062623
vt 0.4008297 0.85062623
vt 0.4008297 0.85062623
vt 0.3764049 0.85062623
vt 0.39142218 0.838763
vt 0.411479 0.838763
vt 0.3764049 0.85062623
vt 0.3485227 0.85062623
vt 0.3509554 0.838763
vt 0.39142218 0.838763
vt 0.3485227 0.85062623
vt 0.2994634 0.85062623
vt 0.3509554 0.838763
vt 0.4246931 0.838763
vt 0.4259796 0.838763
vt 0.43394607 0.85062623
vt 0.42970043 0.85062623
vt 0.44413233 0.838763
vt 0.46482527 0.85062623
vt 0.43394607 0.85062623
vt 0.4259796 0.838763
vt 0.4065183 0.838763
vt 0.4163561 0.85062623
vt 0.46482527 0.85062623
vt 0.44413233 0.838763
vt 0.3509554 0.838763
vt 0.35291025 0.85062623
vt 0.4163561 0.85062623
vt 0.4065183 0.838763
vt 0.3509554 0.838763
vt 0.4065183 0.838763
vt 0.39142218 0.838763
vt 0.44413233 0.838763
vt 0.4259796 0.838763
vt 0.411479 0.838763
vt 0.411403 0.838763
vt 0.4246931 0.838763
vt 0.2994634 0.85062623
vt 0.35291025 0.85062623
vt 0.3509554 0.838763
vt 0.42970043 0.85062623
vt 0.4246931 0.8624894
vt 0.411403 0.8624894
vt 0.40397868 0.85062623
vt 0.4246931 0.838763
vt 0.411403 0.838763
vt 0.6529441 0.88104695
vt 0.65280837 0.8834533
vt 0.65276444 0.88343734
vt 0.6529002 0.8810329
vt 0.65594417 0.88107425
vt 0.65592337 0.8834798
vt 0.65280837 0.8834533
vt 0.6529441 0.88104695
vt 0.6589097 0.8810981
vt 0.65900296 0.88349813
vt 0.65592337 0.8834798
vt 0.65594417 0.88107425
vt 0.65886587 0.88111323
vt 0.6589568 0.88350457
vt 0.65900296 0.88349813
vt 0.6589097 0.8810981
vt 0.65586317 0.88103825
vt 0.6558404 0.88344175
vt 0.6589568 0.88350457
vt 0.65886587 0.88111323
vt 0.6529002 0.8810329
vt 0.65276444 0.88343734
vt 0.6558404 0.88344175
vt 0.65586317 0.88103825
vt 0.6559079 0.88354796
vt 0.6578227 0.8835674
vt 0.65779227 0.8835973
vt 0.6558539 0.88355666
vt 0.65397114 0.88354534
vt 0.6539405 0.88355273
vt 0.65411586 0.88094765
vt 0.6529441 0.88104695
vt 0.6529002 0.8810329
vt 0.65408707 0.88095707
vt 0.6539405 0.88355273
vt 0.65276444 0.88343734
vt 0.65280837 0.8834533
vt 0.65397114 0.88354534
vt 0.6559303 0.880951
vt 0.65594417 0.88107425
vt 0.6529441 0.88104695
vt 0.65411586 0.88094765
vt 0.65397114 0.88354534
vt 0.65280837 0.8834533
vt 0.65592337 0.8834798
vt 0.6559079 0.88354796
vt 0.6577242 0.8809759
vt 0.6589097 0.8810981
vt 0.65594417 0.88107425
vt 0.6559303 0.880951
vt 0.6559079 0.88354796
vt 0.65592337 0.8834798
vt 0.65900296 0.88349813
vt 0.6578227 0.8835674
vt 0.65769565 0.8810144
vt 0.65886587 0.88111323
vt 0.6589097 0.8810981
vt 0.6577242 0.8809759
vt 0.6578227 0.8835674
vt 0.65900296 0.88349813
vt 0.6589568 0.88350457
vt 0.65779227 0.8835973
vt 0.6558797 0.8809621
vt 0.65586317 0.88103825
vt 0.65886587 0.88111323
vt 0.65769565 0.8810144
vt 0.65779227 0.8835973
vt 0.6589568 0.88350457
vt 0.6558404 0.88344175
vt 0.6558539 0.88355666
vt 0.65408707 0.88095707
vt 0.6529002 0.8810329
vt 0.65586317 0.88103825
vt 0.6558797 0.8809621
vt 0.6558539 0.88355666
vt 0.6558404 0.88344175
vt 0.65276444 0.88343734
vt 0.6539405 0.88355273
vt 0.65769565 0.8810144
vt 0.6577242 0.8809759
vt 0.6559303 0.880951
vt 0.6558797 0.8809621
vt 0.65411586 0.88094765
vt 0.65408707 0.88095707
vn -0.6757224 -0.017919738 -0.73693824
vn -0.67572254 -0.01791974 -0.73693824
vn -0.6757225 -0.017919738 -0.73693824
vn -0.6757224 -0.01791974 -0.73693824
vn -0.5399694 -0.119027875 -0.83322585
vn -0.5399694 -0.11902789 -0.83322597
vn -0.5399694 -0.11902789 -0.83322597
vn -0.5399694 -0.11902789 -0.83322597
vn -0.34539458 -0.4354126 -0.83133537
vn -0.34539458 -0.4354126 -0.83133537
vn -0.3453946 -0.4354126 -0.83133537
vn -0.34539458 -0.4354126 -0.83133537
vn -0.024438426 -0.4110403 -0.9112896
vn -0.024438424 -0.4110403 -0.9112896
vn -0.024438426 -0.41104037 -0.9112896
vn 0.7868535 -0.03756852 -0.61599535
vn 0.78685343 -0.037568517 -0.61599535
vn 0.78685343 -0.037568517 -0.61599535
vn 0.78685343 -0.037568517 -0.61599535
vn 0.46417066 -0.15539892 -0.87200737
vn 0.46417058 -0.1553989 -0.8720075
vn 0.46417066 -0.15539892 -0.87200737
vn 0.4641706 -0.1553989 -0.87200737
vn 0.44743618 0.36285624 -0.817396
vn 0.44743612 0.36285627 -0.817396
vn 0.44743612 0.36285624 -0.817396
vn 0.44743612 0.36285624 -0.817396
vn 0.16467649 0.5402484 -0.82523525
vn 0.16467646 0.5402484 -0.82523537
vn 0.16467647 0.54024845 -0.82523537
vn 0.16467646 0.54024833 -0.82523537
vn -0 0 -1
vn -0 0 -1
vn -0 0 -1
vn -0 0 -1
vn -0 0 -1
vn -0 0 -1
vn -0 0 -1
vn -0 0 -1
vn -0.28064442 0.50075406 -0.81883097
vn -0.28064442 0.50075406 -0.81883097
vn -0.2806444 0.500754 -0.81883097
vn -0.6757224 -0.017919736 0.73693824
vn -0.6757225 -0.017919736 0.73693824
vn -0.67572236 -0.017919734 0.7369383
vn -0.67572236 -0.017919734 0.7369383
vn -0.5399694 -0.119027905 0.83322597
vn -0.5399694 -0.11902789 0.83322597
vn -0.5399693 -0.1190279 0.833226
vn -0.5399694 -0.11902789 0.83322597
vn -0.34539485 -0.43541282 0.8313351
vn -0.34539485 -0.43541288 0.83133507
vn -0.34539482 -0.43541288 0.83133507
vn -0.3453949 -0.43541288 0.83133507
vn -0.024438437 -0.4110407 0.91128933
vn -0.024438437 -0.41104078 0.91128933
vn -0.024438435 -0.4110407 0.91128933
vn 0.78685343 -0.03756851 0.6159955
vn 0.7868533 -0.03756851 0.61599547
vn 0.7868533 -0.03756851 0.61599547
vn 0.7868533 -0.03756851 0.61599547
vn 0.46417075 -0.15539895 0.87200725
vn 0.46417075 -0.15539894 0.87200725
vn 0.46417075 -0.15539895 0.87200725
vn 0.46417078 -0.15539895 0.8720072
vn 0.4474367 0.36285672 0.8173955
vn 0.44743675 0.36285672 0.8173955
vn 0.44743663 0.36285672 0.81739557
vn 0.4474367 0.36285678 0.8173955
vn 0.16467656 0.5402487 0.82523507
vn 0.16467653 0.5402488 0.82523507
vn 0.16467656 0.54024875 0.82523507
vn 0.16467653 0.54024875 0.82523507
vn -0 0 1
vn -0 0 1
vn -0 0 1
vn -0 0 1
vn -0 0 1
vn -0 0 1
vn -0 0 1
vn -0 0 1
vn -0.2806444 0.50075406 0.81883097
vn -0.28064436 0.500754 0.81883097
vn -0.28064436 0.50075406 0.81883097
vn -0 -1 0
vn -0 -1 0
vn -0 -1 0
vn -0 -1 0
vn -0 -1 0
vn -0 -1 0
vn -0.0128923515 -0.052226305 0.998552
vn -0.0128923515 -0.05222631 0.998552
vn -0.012892351 -0.052226305 0.998552
vn -0.0128923515 -0.052226312 0.998552
vn -0.87330127 -0.03400154 0.48599258
vn -0.87330127 -0.03400154 0.48599258
vn -0.87330127 -0.03400154 0.48599264
vn -0.87330127 -0.03400154 0.48599252
vn -0.8622744 -0.025593277 -0.50579435
vn -0.8622744 -0.025593277 -0.5057943
vn -0.8622744 -0.025593277 -0.5057943
vn -0.8622744 -0.025593268 -0.5057942
vn 0.013045997 -0.035927966 -0.9992692
vn 0.013045996 -0.035927966 -0.9992692
vn 0.013045997 -0.035927966 -0.9992692
vn 0.013045997 -0.035927966 -0.9992692
vn 0.8728065 -0.051907293 -0.4852982
vn 0.8728065 -0.051907293 -0.4852982
vn 0.8728065 -0.051907297 -0.4852982
vn 0.8728065 -0.051907293 -0.4852982
vn 0.86085635 -0.0596694 0.5053373
vn 0.86085635 -0.059669413 0.50533736
vn 0.86085635 -0.0596694 0.50533736
vn 0.86085635 -0.059669413 0.50533736
vn -0.0046290564 0.9999465 0.009250312
vn -0.0046290555 0.9999465 0.009250312
vn -0.0046290564 0.9999465 0.009250312
vn -0.004629056 0.9999465 0.009250312
vn -0.0046290564 0.9999465 0.009250312
vn -0.004629057 0.9999465 0.009250314
vn -0.0019622305 -0.9968273 0.079569295
vn -0.0019622308 -0.9968273 0.079569295
vn -0.0019622305 -0.9968273 0.07956929
vn -0.0019622308 -0.9968273 0.079569295
vn 0.000385231 0.99547994 0.09497085
vn 0.00038523105 0.99547994 0.09497086
vn 0.000385231 0.99547994 0.09497086
vn 0.00038523096 0.99547994 0.09497087
vn -0.09028125 -0.99497885 0.043202642
vn -0.09028123 -0.99497885 0.04320264
vn -0.090281256 -0.99497885 0.04320264
vn -0.09028124 -0.99497885 0.043202646
vn -0.060877353 0.99734724 0.039903954
vn -0.06087736 0.99734724 0.039903957
vn -0.06087736 0.99734724 0.039903954
vn -0.060877353 0.99734724 0.039903954
vn -0.09051799 -0.99385494 -0.06370833
vn -0.090518005 -0.99385494 -0.063708335
vn -0.09051799 -0.99385494 -0.06370833
vn -0.09051799 -0.99385494 -0.06370832
vn -0.057439655 0.99802667 -0.025365988
vn -0.057439655 0.99802667 -0.025365988
vn -0.05743966 0.99802667 -0.025365988
vn -0.057439648 0.99802667 -0.025365986
vn 0.0118526425 -0.9948979 -0.10018839
vn 0.011852641 -0.9948979 -0.10018839
vn 0.011852641 -0.9948979 -0.1001884
vn 0.0118526425 -0.9948979 -0.1001884
vn -0.0058361525 0.9972276 -0.07418188
vn -0.0058361515 0.9972276 -0.07418188
vn -0.0058361515 0.9972276 -0.07418188
vn -0.0058361525 0.9972276 -0.07418188
vn 0.056950457 -0.9965881 -0.05973881
vn 0.056950454 -0.9965881 -0.05973881
vn 0.056950454 -0.9965881 -0.059738807
vn 0.056950454 -0.9965881 -0.059738807
vn 0.0916813 0.9953772 -0.028615171
vn 0.0916813 0.9953772 -0.028615167
vn 0.091681294 0.9953772 -0.028615173
vn 0.0916813 0.9953772 -0.02861517
vn 0.060243335 -0.99764293 0.03285054
vn 0.060243335 -0.99764293 0.03285054
vn 0.060243335 -0.99764293 0.03285054
vn 0.060243327 -0.99764293 0.032850534
vn 0.089546695 0.994517 0.054011364
vn 0.08954669 0.994517 0.054011364
vn 0.0895467 0.994517 0.054011367
vn 0.089546695 0.994517 0.05401136
vn 0.0063476833 -0.99989927 -0.01269207
vn 0.0063476823 -0.99989927 -0.012692069
vn 0.006347682 -0.99989927 -0.012692067
vn 0.0063476833 -0.99989927 -0.012692069
vn 0.0063476823 -0.99989927 -0.01269207
vn 0.0063476823 -0.99989927 -0.012692067
g polearmBandit_break02_0
f 3/3/3 2/2/2 1/1/1
f 4/4/4 3/3/3 1/1/1
f 7/7/7 6/6/6 5/5/5
f 8/8/8 7/7/7 5/5/5
f 11/11/11 10/10/10 9/9/9
f 12/12/12 11/11/11 9/9/9
f 15/15/15 14/14/14 13/13/13
f 18/18/18 17/17/17 16/16/16
f 19/19/19 18/18/18 16/16/16
f 22/22/22 21/21/21 20/20/20
f 23/23/23 22/22/22 20/20/20
f 26/26/26 25/25/25 24/24/24
f 27/27/27 26/26/26 24/24/24
f 30/30/30 29/29/29 28/28/28
f 31/31/31 30/30/30 28/28/28
f 34/34/34 33/33/33 32/32/32
f 34/34/34 35/35/35 33/33/33
f 35/35/35 36/36/36 33/33/33
f 36/36/36 37/37/37 33/33/33
f 37/37/37 36/36/36 38/38/38
f 36/36/36 39/39/39 38/38/38
f 42/42/42 41/41/41 40/40/40
f 45/45/45 44/44/44 43/43/43
f 46/46/46 45/45/45 43/43/43
f 49/49/49 48/48/48 47/47/47
f 50/50/50 49/49/49 47/47/47
f 53/53/53 52/52/52 51/51/51
f 54/54/54 53/53/53 51/51/51
f 57/57/57 56/56/56 55/55/55
f 60/60/60 59/59/59 58/58/58
f 61/61/61 60/60/60 58/58/58
f 64/64/64 63/63/63 62/62/62
f 65/65/65 64/64/64 62/62/62
f 68/68/68 67/67/67 66/66/66
f 69/69/69 68/68/68 66/66/66
f 72/72/72 71/71/71 70/70/70
f 73/73/73 72/72/72 70/70/70
f 76/76/76 75/75/75 74/74/74
f 77/77/77 75/75/75 76/76/76
f 78/78/78 77/77/77 76/76/76
f 79/79/79 78/78/78 76/76/76
f 78/78/78 79/79/79 80/80/80
f 81/81/81 78/78/78 80/80/80
f 84/84/84 83/83/83 82/82/82
f 87/87/87 86/86/86 85/85/85
f 85/85/85 88/88/88 87/87/87
f 85/85/85 89/89/89 88/88/88
f 89/89/89 90/90/90 88/88/88
f 93/93/93 92/92/92 91/91/91
f 94/94/94 93/93/93 91/91/91
f 97/97/97 96/96/96 95/95/95
f 98/98/98 97/97/97 95/95/95
f 101/101/101 100/100/100 99/99/99
f 102/102/102 101/101/101 99/99/99
f 105/105/105 104/104/104 103/103/103
f 106/106/106 105/105/105 103/103/103
f 109/109/109 108/108/108 107/107/107
f 110/110/110 109/109/109 107/107/107
f 113/113/113 112/112/112 111/111/111
f 114/114/114 113/113/113 111/111/111
f 117/117/117 116/116/116 115/115/115
f 115/115/115 118/118/118 117/117/117
f 115/115/115 119/119/119 118/118/118
f 119/119/119 120/120/120 118/118/118
f 123/123/123 122/122/122 121/121/121
f 124/124/124 123/123/123 121/121/121
f 127/127/127 126/126/126 125/125/125
f 128/128/128 127/127/127 125/125/125
f 131/131/131 130/130/130 129/129/129
f 132/132/132 131/131/131 129/129/129
f 135/135/135 134/134/134 133/133/133
f 136/136/136 135/135/135 133/133/133
f 139/139/139 138/138/138 137/137/137
f 140/140/140 139/139/139 137/137/137
f 143/143/143 142/142/142 141/141/141
f 144/144/144 143/143/143 141/141/141
f 147/147/147 146/146/146 145/145/145
f 148/148/148 147/147/147 145/145/145
f 151/151/151 150/150/150 149/149/149
f 152/152/152 151/151/151 149/149/149
f 155/155/155 154/154/154 153/153/153
f 156/156/156 155/155/155 153/153/153
f 159/159/159 158/158/158 157/157/157
f 160/160/160 159/159/159 157/157/157
f 163/163/163 162/162/162 161/161/161
f 164/164/164 163/163/163 161/161/161
f 167/167/167 166/166/166 165/165/165
f 168/168/168 167/167/167 165/165/165
f 171/171/171 170/170/170 169/169/169
f 169/169/169 172/172/172 171/171/171
f 172/172/172 173/173/173 171/171/171
f 172/172/172 174/174/174 173/173/173
