g quetzalPiece_body
v -0.19748493 -0.24195415 0.1902775
v -0.19898628 -0.25619093 -0.15922225
v -0.30314082 -0.20929779 0.150879
v -0.19898628 -0.25619093 -0.15922225
v -0.25153136 -0.19307287 -0.15796728
v -0.30314082 -0.20929779 0.150879
v -0.19792373 -0.18892498 0.24484536
v 0.22561352 -0.16784202 0.25063378
v -0.19748493 -0.24195415 0.1902775
v 0.22561352 -0.16784202 0.25063378
v 0.24954367 -0.2744181 0.15132569
v -0.19748493 -0.24195415 0.1902775
v -0.30314082 -0.20929779 0.150879
v -0.27912512 0.17841266 0.1736979
v -0.19792373 -0.18892498 0.24484536
v -0.27912512 0.17841266 0.1736979
v -0.19685803 0.17922334 0.2813099
v -0.19792373 -0.18892498 0.24484536
v 0.29613054 -0.1666127 0.18294382
v 0.29403332 -0.19442722 -0.19119848
v 0.24954367 -0.2744181 0.15132569
v 0.29403332 -0.19442722 -0.19119848
v 0.24509677 -0.26078308 -0.16021109
v 0.24954367 -0.2744181 0.15132569
v 0.29613054 -0.1666127 0.18294382
v 0.22561352 -0.16784202 0.25063378
v 0.30314085 0.16270965 0.18614061
v 0.22561352 -0.16784202 0.25063378
v 0.23458825 0.16945893 0.27744454
v 0.30314085 0.16270965 0.18614061
v -0.16985466 0.2744181 0.20721719
v -0.27912512 0.17841266 0.1736979
v -0.20932764 0.251321 -0.17129247
v -0.27912512 0.17841266 0.1736979
v -0.2773434 0.160828 -0.15318473
v -0.20932764 0.251321 -0.17129247
v -0.19685803 0.17922334 0.2813099
v -0.16985466 0.2744181 0.20721719
v 0.23458825 0.16945893 0.27744454
v -0.16985466 0.2744181 0.20721719
v 0.26188868 0.2419162 0.16879396
v 0.23458825 0.16945893 0.27744454
v 0.30314085 0.16270965 0.18614061
v 0.26188868 0.2419162 0.16879396
v 0.28348044 0.16215968 -0.186386
v 0.26188868 0.2419162 0.16879396
v 0.17425422 0.26925743 -0.19217245
v 0.28348044 0.16215968 -0.186386
v -0.2773434 0.160828 -0.15318473
v -0.25153136 -0.19307287 -0.15796728
v -0.20349339 0.16939667 -0.23722784
v -0.16311884 -0.20285532 -0.25356388
v -0.20932764 0.251321 -0.17129247
v -0.20349339 0.16939667 -0.23722784
v 0.17425422 0.26925743 -0.19217245
v -0.20349339 0.16939667 -0.23722784
v 0.22084056 0.18020204 -0.28130987
v 0.17425422 0.26925743 -0.19217245
v 0.22084056 0.18020204 -0.28130987
v 0.24135719 -0.19737509 -0.26651555
v 0.28348044 0.16215968 -0.186386
v 0.29403332 -0.19442722 -0.19119848
v -0.19898628 -0.25619093 -0.15922225
v 0.24509677 -0.26078308 -0.16021109
v -0.16311884 -0.20285532 -0.25356388
v 0.24135719 -0.19737509 -0.26651555
v -0.19792373 -0.18892498 0.24484536
v -0.19685803 0.17922334 0.2813099
v 0.22561352 -0.16784202 0.25063378
v 0.23458825 0.16945893 0.27744454
v 0.26188868 0.2419162 0.16879396
v -0.16985466 0.2744181 0.20721719
v 0.17425422 0.26925743 -0.19217245
v -0.16985466 0.2744181 0.20721719
v -0.20932764 0.251321 -0.17129247
v 0.17425422 0.26925743 -0.19217245
v -0.20349339 0.16939667 -0.23722784
v -0.16311884 -0.20285532 -0.25356388
v 0.22084056 0.18020204 -0.28130987
v -0.16311884 -0.20285532 -0.25356388
v 0.24135719 -0.19737509 -0.26651555
v 0.22084056 0.18020204 -0.28130987
v 0.24509677 -0.26078308 -0.16021109
v -0.19898628 -0.25619093 -0.15922225
v 0.24954367 -0.2744181 0.15132569
v -0.19898628 -0.25619093 -0.15922225
v -0.19748493 -0.24195415 0.1902775
v 0.24954367 -0.2744181 0.15132569
v 0.29403332 -0.19442722 -0.19119848
v 0.29613054 -0.1666127 0.18294382
v 0.28348044 0.16215968 -0.186386
v 0.29613054 -0.1666127 0.18294382
v 0.30314085 0.16270965 0.18614061
v 0.28348044 0.16215968 -0.186386
v -0.25153136 -0.19307287 -0.15796728
v -0.2773434 0.160828 -0.15318473
v -0.30314082 -0.20929779 0.150879
v -0.2773434 0.160828 -0.15318473
v -0.27912512 0.17841266 0.1736979
v -0.30314082 -0.20929779 0.150879
v -0.19748493 -0.24195415 0.1902775
v -0.30314082 -0.20929779 0.150879
v -0.19792373 -0.18892498 0.24484536
v 0.29613054 -0.1666127 0.18294382
v 0.24954367 -0.2744181 0.15132569
v 0.22561352 -0.16784202 0.25063378
v -0.27912512 0.17841266 0.1736979
v -0.16985466 0.2744181 0.20721719
v -0.19685803 0.17922334 0.2813099
v 0.26188868 0.2419162 0.16879396
v 0.30314085 0.16270965 0.18614061
v 0.23458825 0.16945893 0.27744454
v -0.2773434 0.160828 -0.15318473
v -0.20349339 0.16939667 -0.23722784
v -0.20932764 0.251321 -0.17129247
v 0.22084056 0.18020204 -0.28130987
v 0.28348044 0.16215968 -0.186386
v 0.17425422 0.26925743 -0.19217245
v -0.25153136 -0.19307287 -0.15796728
v -0.19898628 -0.25619093 -0.15922225
v -0.16311884 -0.20285532 -0.25356388
v 0.24509677 -0.26078308 -0.16021109
v 0.29403332 -0.19442722 -0.19119848
v 0.24135719 -0.19737509 -0.26651555
vt 0.04265523 0.3131078
vt 0.042589545 0.31248432
vt 0.03802848 0.31453785
vt 0.042589545 0.31248432
vt 0.040288508 0.31524837
vt 0.03802848 0.31453785
vt 0.042636037 0.31543
vt 0.061183214 0.31635323
vt 0.04265523 0.3131078
vt 0.061183214 0.31635323
vt 0.062231183 0.31168616
vt 0.04265523 0.3131078
vt 0.03802848 0.31453785
vt 0.039080143 0.33151615
vt 0.042636037 0.31543
vt 0.039080143 0.33151615
vt 0.042682767 0.3315516
vt 0.042636037 0.31543
vt 0.06427121 0.31640708
vt 0.06417942 0.31518906
vt 0.062231183 0.31168616
vt 0.06417942 0.31518906
vt 0.062036395 0.31228325
vt 0.062231183 0.31168616
vt 0.06427121 0.31640708
vt 0.061183214 0.31635323
vt 0.064578235 0.3308285
vt 0.061183214 0.31635323
vt 0.061576247 0.331124
vt 0.064578235 0.3308285
vt 0.043865204 0.3357203
vt 0.039080143 0.33151615
vt 0.04213667 0.33470887
vt 0.039080143 0.33151615
vt 0.039158165 0.33074605
vt 0.04213667 0.33470887
vt 0.042682767 0.3315516
vt 0.043865204 0.3357203
vt 0.061576247 0.331124
vt 0.043865204 0.3357203
vt 0.06277174 0.334297
vt 0.061576247 0.331124
vt 0.064578235 0.3308285
vt 0.06277174 0.334297
vt 0.063717306 0.3308044
vt 0.06277174 0.334297
vt 0.058934152 0.33549434
vt 0.063717306 0.3308044
vt 0.039158165 0.33074605
vt 0.040288508 0.31524837
vt 0.042392135 0.33112133
vt 0.044160187 0.31481996
vt 0.04213667 0.33470887
vt 0.042392135 0.33112133
vt 0.058934152 0.33549434
vt 0.042392135 0.33112133
vt 0.06097424 0.33159447
vt 0.058934152 0.33549434
vt 0.06097424 0.33159447
vt 0.06187266 0.31505996
vt 0.063717306 0.3308044
vt 0.06417942 0.31518906
vt 0.042589545 0.31248432
vt 0.062036395 0.31228325
vt 0.044160187 0.31481996
vt 0.06187266 0.31505996
vt 0.042636037 0.31543
vt 0.042682767 0.3315516
vt 0.061183214 0.31635323
vt 0.061576247 0.331124
vt 0.06277174 0.334297
vt 0.043865204 0.3357203
vt 0.058934152 0.33549434
vt 0.043865204 0.3357203
vt 0.04213667 0.33470887
vt 0.058934152 0.33549434
vt 0.042392135 0.33112133
vt 0.044160187 0.31481996
vt 0.06097424 0.33159447
vt 0.044160187 0.31481996
vt 0.06187266 0.31505996
vt 0.06097424 0.33159447
vt 0.062036395 0.31228325
vt 0.042589545 0.31248432
vt 0.062231183 0.31168616
vt 0.042589545 0.31248432
vt 0.04265523 0.3131078
vt 0.062231183 0.31168616
vt 0.06417942 0.31518906
vt 0.06427121 0.31640708
vt 0.063717306 0.3308044
vt 0.06427121 0.31640708
vt 0.064578235 0.3308285
vt 0.063717306 0.3308044
vt 0.040288508 0.31524837
vt 0.039158165 0.33074605
vt 0.03802848 0.31453785
vt 0.039158165 0.33074605
vt 0.039080143 0.33151615
vt 0.03802848 0.31453785
vt 0.04265523 0.3131078
vt 0.03802848 0.31453785
vt 0.042636037 0.31543
vt 0.06427121 0.31640708
vt 0.062231183 0.31168616
vt 0.061183214 0.31635323
vt 0.039080143 0.33151615
vt 0.043865204 0.3357203
vt 0.042682767 0.3315516
vt 0.06277174 0.334297
vt 0.064578235 0.3308285
vt 0.061576247 0.331124
vt 0.039158165 0.33074605
vt 0.042392135 0.33112133
vt 0.04213667 0.33470887
vt 0.06097424 0.33159447
vt 0.063717306 0.3308044
vt 0.058934152 0.33549434
vt 0.040288508 0.31524837
vt 0.042589545 0.31248432
vt 0.044160187 0.31481996
vt 0.062036395 0.31228325
vt 0.06417942 0.31518906
vt 0.06187266 0.31505996
vn -0.3086598 -0.9503295 0.040037405
vn -0.3086598 -0.9503295 0.040037405
vn -0.30865982 -0.9503295 0.04003741
vn -0.7601883 -0.6296655 -0.16010955
vn -0.7601883 -0.6296655 -0.16010955
vn -0.7601884 -0.6296655 -0.16010956
vn 0.02615803 -0.7167948 0.69679326
vn 0.02615803 -0.7167948 0.69679326
vn 0.02615803 -0.7167948 0.6967933
vn 0.014508158 -0.67990303 0.7331584
vn 0.014508158 -0.67990303 0.7331584
vn 0.014508157 -0.67990303 0.7331584
vn -0.6658149 -0.0026707717 0.74611217
vn -0.66581494 -0.0026707717 0.74611217
vn -0.6658149 -0.0026707717 0.74611217
vn -0.7929072 -0.05778717 0.6065962
vn -0.79290706 -0.05778718 0.6065962
vn -0.79290706 -0.05778718 0.6065962
vn 0.9150029 -0.40268382 0.024807407
vn 0.91500294 -0.4026838 0.02480741
vn 0.9150029 -0.40268382 0.024807408
vn 0.7957155 -0.60448897 -0.03781476
vn 0.7957155 -0.60448897 -0.03781476
vn 0.7957155 -0.60448897 -0.037814762
vn 0.6925319 -0.021741362 0.7210596
vn 0.69253176 -0.021741362 0.7210596
vn 0.69253176 -0.021741362 0.7210596
vn 0.79532135 -0.06903169 0.6022447
vn 0.79532135 -0.06903169 0.60224456
vn 0.79532135 -0.06903169 0.6022447
vn -0.66393304 0.74741864 0.023630053
vn -0.66393304 0.7474185 0.023630055
vn -0.6639331 0.7474185 0.023630055
vn -0.8023367 0.5957595 -0.03642216
vn -0.8023367 0.5957595 -0.03642216
vn -0.8023367 0.5957595 -0.036422163
vn 0.020907983 0.6103766 0.79183537
vn 0.02090798 0.61037654 0.79183537
vn 0.020907983 0.6103766 0.79183537
vn 0.112027675 0.8135069 0.5706631
vn 0.112027675 0.8135069 0.57066315
vn 0.11202766 0.8135069 0.5706631
vn 0.89014935 0.45317096 -0.047647405
vn 0.89014924 0.45317096 -0.0476474
vn 0.89014935 0.45317096 -0.047647405
vn 0.69851017 0.7061197 -0.116097674
vn 0.69851017 0.7061197 -0.11609767
vn 0.69851017 0.70611966 -0.116097674
vn -0.74809974 -0.04561671 -0.66201645
vn -0.7480998 -0.045616705 -0.66201645
vn -0.7480998 -0.0456167 -0.66201645
vn -0.73578256 -0.050165806 -0.6753572
vn -0.071530655 0.6222855 -0.77951527
vn -0.07153066 0.6222855 -0.7795154
vn -0.071530655 0.6222855 -0.77951527
vn -0.09289491 0.6796789 -0.7276037
vn -0.09289491 0.6796789 -0.7276037
vn -0.09289491 0.6796789 -0.7276037
vn 0.8365005 0.024003368 -0.5474401
vn 0.8365005 0.024003368 -0.5474401
vn 0.8365005 0.02400337 -0.5474402
vn 0.81845874 0.031963937 -0.5736755
vn -0.010086451 -0.86882293 -0.49502012
vn -0.01008645 -0.86882293 -0.49502012
vn -0.01008645 -0.86882293 -0.49502015
vn -0.0047621736 -0.85888934 -0.51213914
vn -0.008695039 -0.098537534 0.9950954
vn -0.00869504 -0.09853753 0.9950954
vn -0.00869504 -0.09853755 0.9950954
vn 0.0071335123 -0.07942284 0.9968155
vn 0.07990382 0.9952291 0.055984464
vn 0.079903826 0.9952291 0.055984456
vn 0.079903826 0.9952291 0.05598446
vn -0.049660556 0.9972133 -0.055672333
vn -0.049660552 0.9972133 -0.055672318
vn -0.049660556 0.9972133 -0.05567233
vn -0.10409021 0.032333367 -0.9940421
vn -0.104090214 0.032333367 -0.9940421
vn -0.10409022 0.032333367 -0.9940421
vn -0.03142453 -0.040837724 -0.99867153
vn -0.031424537 -0.04083773 -0.99867153
vn -0.03142453 -0.040837724 -0.99867153
vn -0.010427375 -0.9989957 -0.04357422
vn -0.010427374 -0.9989957 -0.04357422
vn -0.010427373 -0.9989957 -0.043574218
vn -0.06882477 -0.99679 0.04089985
vn -0.06882477 -0.99679 0.040899854
vn -0.068824776 -0.99679 0.040899847
vn 0.99952877 0.029685603 -0.007809619
vn 0.99952877 0.029685603 -0.007809619
vn 0.99952877 0.029685603 -0.007809618
vn 0.99839705 -0.020741822 -0.052660625
vn 0.99839705 -0.020741818 -0.052660614
vn 0.99839705 -0.020741818 -0.05266061
vn -0.98334277 -0.06945102 -0.16796917
vn -0.98334277 -0.06945101 -0.16796915
vn -0.98334277 -0.069451004 -0.16796915
vn -0.9980165 0.062336978 -0.008793283
vn -0.9980165 0.062336974 -0.008793282
vn -0.9980165 0.062336978 -0.008793283
vn -0.4337488 -0.6479133 0.6261552
vn -0.43374878 -0.6479132 0.6261553
vn -0.4337488 -0.6479133 0.6261553
vn 0.6206379 -0.45540595 0.63828987
vn 0.62063795 -0.45540595 0.6382899
vn 0.6206379 -0.45540595 0.6382898
vn -0.6540683 0.5713663 0.49571693
vn -0.6540683 0.5713663 0.495717
vn -0.65406823 0.5713663 0.49571696
vn 0.7168349 0.4833859 0.5024796
vn 0.7168349 0.48338592 0.5024796
vn 0.71683484 0.48338592 0.5024796
vn -0.70431477 0.41397622 -0.576684
vn -0.7043147 0.4139762 -0.576684
vn -0.70431477 0.41397616 -0.576684
vn 0.6725781 0.6688324 -0.31670463
vn 0.67257804 0.66883254 -0.31670463
vn 0.6725781 0.66883254 -0.31670463
vn -0.64910865 -0.52951616 -0.5461415
vn -0.64910865 -0.52951616 -0.5461415
vn -0.64910865 -0.5295162 -0.5461415
vn 0.62923974 -0.65755075 -0.4143482
vn 0.62923974 -0.65755075 -0.4143482
vn 0.62923974 -0.65755075 -0.4143482
g quetzalPiece_body_0
f 3/3/3 2/2/2 1/1/1
f 6/6/6 5/5/5 4/4/4
f 9/9/9 8/8/8 7/7/7
f 12/12/12 11/11/11 10/10/10
f 15/15/15 14/14/14 13/13/13
f 18/18/18 17/17/17 16/16/16
f 21/21/21 20/20/20 19/19/19
f 24/24/24 23/23/23 22/22/22
f 27/27/27 26/26/26 25/25/25
f 30/30/30 29/29/29 28/28/28
f 33/33/33 32/32/32 31/31/31
f 36/36/36 35/35/35 34/34/34
f 39/39/39 38/38/38 37/37/37
f 42/42/42 41/41/41 40/40/40
f 45/45/45 44/44/44 43/43/43
f 48/48/48 47/47/47 46/46/46
f 51/51/51 50/50/50 49/49/49
f 51/51/51 52/52/52 50/50/50
f 55/55/55 54/54/54 53/53/53
f 58/58/58 57/57/57 56/56/56
f 61/61/61 60/60/60 59/59/59
f 61/61/61 62/62/62 60/60/60
f 65/65/65 64/64/64 63/63/63
f 65/65/65 66/66/66 64/64/64
f 69/69/69 68/68/68 67/67/67
f 69/69/69 70/70/70 68/68/68
f 73/73/73 72/72/72 71/71/71
f 76/76/76 75/75/75 74/74/74
f 79/79/79 78/78/78 77/77/77
f 82/82/82 81/81/81 80/80/80
f 85/85/85 84/84/84 83/83/83
f 88/88/88 87/87/87 86/86/86
f 91/91/91 90/90/90 89/89/89
f 94/94/94 93/93/93 92/92/92
f 97/97/97 96/96/96 95/95/95
f 100/100/100 99/99/99 98/98/98
f 103/103/103 102/102/102 101/101/101
f 106/106/106 105/105/105 104/104/104
f 109/109/109 108/108/108 107/107/107
f 112/112/112 111/111/111 110/110/110
f 115/115/115 114/114/114 113/113/113
f 118/118/118 117/117/117 116/116/116
f 121/121/121 120/120/120 119/119/119
f 124/124/124 123/123/123 122/122/122
