g templeStairsCOL
v -11.970298 -10.493853 -2.5969002
v -15.677241 -10.545564 -2.5969002
v -6.422418 -0.08128296 -2.5969002
v -5.5792236 -2.087334 -2.5969002
v -5.548472 -0.060205076 -2.5969002
v -15.677241 -10.545564 -2.5969002
v -15.677241 -10.545564 -3.6864789
v -6.422418 -0.08128296 -3.6864789
v -6.422418 -0.08128296 -2.5969002
v -15.677241 -10.545564 -3.6864789
v -11.970298 -10.493853 -3.6864789
v -5.5792236 -2.087334 -3.6864789
v -6.422418 -0.08128296 -3.6864789
v -11.970298 -10.493853 -3.6864789
v -11.970298 -10.493853 -2.5969002
v -5.5792236 -2.087334 -2.5969002
v -5.5792236 -2.087334 -3.6864789
v -5.5792236 -2.087334 -2.5969002
v -5.548472 -0.060205076 -2.5969002
v -5.548472 -0.060205076 -3.6864789
v -5.5792236 -2.087334 -3.6864789
v -11.970298 -10.493853 -3.6864789
v -15.677241 -10.545564 -3.6864789
v -15.677241 -10.545564 -2.5969002
v -11.970298 -10.493853 -2.5969002
v -5.5792236 -2.087334 -3.6864789
v -5.548472 -0.060205076 -3.6864789
v -6.422418 -0.08128296 -3.6864789
v -6.422418 -0.08128296 -3.6864789
v -5.548472 -0.060205076 -3.6864789
v -5.548472 -0.060205076 -2.5969002
v -6.422418 -0.08128296 -2.5969002
v -11.970298 -10.493853 3.815269
v -15.677241 -10.545564 3.815269
v -6.422418 -0.08128296 3.815269
v -5.5792236 -2.087334 3.815269
v -5.548472 -0.060205076 3.815269
v -15.677241 -10.545564 3.815269
v -15.677241 -10.545564 2.7256906
v -6.422418 -0.08128296 2.7256906
v -6.422418 -0.08128296 3.815269
v -15.677241 -10.545564 2.7256906
v -11.970298 -10.493853 2.7256906
v -5.5792236 -2.087334 2.7256906
v -6.422418 -0.08128296 2.7256906
v -11.970298 -10.493853 2.7256906
v -11.970298 -10.493853 3.815269
v -5.5792236 -2.087334 3.815269
v -5.5792236 -2.087334 2.7256906
v -5.5792236 -2.087334 3.815269
v -5.548472 -0.060205076 3.815269
v -5.548472 -0.060205076 2.7256906
v -5.5792236 -2.087334 2.7256906
v -11.970298 -10.493853 2.7256906
v -15.677241 -10.545564 2.7256906
v -15.677241 -10.545564 3.815269
v -11.970298 -10.493853 3.815269
v -5.5792236 -2.087334 2.7256906
v -5.548472 -0.060205076 2.7256906
v -6.422418 -0.08128296 2.7256906
v -6.422418 -0.08128296 2.7256906
v -5.548472 -0.060205076 2.7256906
v -5.548472 -0.060205076 3.815269
v -6.422418 -0.08128296 3.815269
v -6.5754876 -0.7328894 2.8953514
v -6.5754876 -0.7328894 -2.7153866
v -5.712254 -0.7328894 -2.7153866
v -5.712254 -0.7328894 2.8953514
v -6.5754876 -0.7328894 2.8953514
v -6.5754876 -1.485578 2.8953514
v -6.5754876 -1.485578 -2.7153866
v -6.5754876 -0.7328894 -2.7153866
v -6.5754876 -1.485578 2.8953514
v -7.2902265 -1.485578 2.8953514
v -7.2902265 -1.485578 -2.7153866
v -6.5754876 -1.485578 -2.7153866
v -7.2902265 -1.485578 2.8953514
v -7.2902265 -2.136341 2.8953514
v -7.2902265 -2.136341 -2.7153866
v -7.2902265 -1.485578 -2.7153866
v -7.2902265 -2.136341 2.8953514
v -8.095363 -2.136341 2.8953514
v -8.095363 -2.136341 -2.7153866
v -7.2902265 -2.136341 -2.7153866
v -8.095363 -2.136341 2.8953514
v -8.095363 -2.977205 2.8953514
v -8.095363 -2.977205 -2.7153866
v -8.095363 -2.136341 -2.7153866
v -8.095363 -2.977205 2.8953514
v -8.757442 -2.977205 2.8953514
v -8.757442 -2.977205 -2.7153866
v -8.095363 -2.977205 -2.7153866
v -8.757442 -2.977205 2.8953514
v -8.757442 -3.7663684 2.8953514
v -8.757442 -3.7663684 -2.7153866
v -8.757442 -2.977205 -2.7153866
v -8.757442 -3.7663684 2.8953514
v -9.41883 -3.7663684 2.8953514
v -9.41883 -3.7663684 -2.7153866
v -8.757442 -3.7663684 -2.7153866
v -9.41883 -3.7663684 2.8953514
v -15.578936 -10.583858 2.8953514
v -15.578936 -10.583858 -2.7153866
v -9.41883 -3.7663684 -2.7153866
vt 0.375 0
vt 0.375 0.25
vt 0.625 0.25
vt 0.62032676 0.007983675
vt 0.625 0.25
vt 0.375 0.25
vt 0.375 0.5
vt 0.625 0.5
vt 0.625 0.25
vt 0.375 0.5
vt 0.375 0.75
vt 0.61308265 0.73591936
vt 0.625 0.5
vt 0.375 0.75
vt 0.375 1
vt 0.62609684 0.99999994
vt 0.61308265 0.73591936
vt 0.62032676 0.007983675
vt 0.625 0.25
vt 0.875 0.25
vt 0.87480056 0.00024361277
vt 0.125 0
vt 0.125 0.25
vt 0.375 0.25
vt 0.375 0
vt 0.87480056 0.00024361277
vt 0.875 0.25
vt 0.875 0.25
vt 0.875 0.25
vt 0.875 0.25
vt 0.625 0.25
vt 0.625 0.25
vt 0.375 0
vt 0.375 0.25
vt 0.625 0.25
vt 0.62032676 0.007983675
vt 0.625 0.25
vt 0.375 0.25
vt 0.375 0.5
vt 0.625 0.5
vt 0.625 0.25
vt 0.375 0.5
vt 0.375 0.75
vt 0.61308265 0.73591936
vt 0.625 0.5
vt 0.375 0.75
vt 0.375 1
vt 0.62609684 0.99999994
vt 0.61308265 0.73591936
vt 0.62032676 0.007983675
vt 0.625 0.25
vt 0.875 0.25
vt 0.87480056 0.00024361277
vt 0.125 0
vt 0.125 0.25
vt 0.375 0.25
vt 0.375 0
vt 0.87480056 0.00024361277
vt 0.875 0.25
vt 0.875 0.25
vt 0.875 0.25
vt 0.875 0.25
vt 0.625 0.25
vt 0.625 0.25
vt 0 0
vt 0 1
vt 1 1
vt 1 0
vt 0 0
vt 0 1
vt 1 1
vt 1 0
vt 0 0
vt 0 1
vt 1 1
vt 1 0
vt 0 0
vt 0 1
vt 1 1
vt 1 0
vt 0 0
vt 0 1
vt 1 1
vt 1 0
vt 0 0
vt 0 1
vt 1 1
vt 1 0
vt 0 0
vt 0 1
vt 1 1
vt 1 0
vt 0 0
vt 0 1
vt 1 1
vt 1 0
vt 0 0
vt 0 1
vt 1 1
vt 1 0
vt 0 0
vt 0 1
vt 1 1
vt 1 0
vn -0 0 1
vn -0 0 1
vn -0 0 1
vn -0 0 1
vn -0 0 1
vn -0.7490691 0.6624919 0
vn -0.7490691 0.6624919 0
vn -0.719231 0.694771 0
vn -0.719231 0.694771 0
vn -0 0 -1
vn -0 0 -1
vn -0 0 -1
vn -0 0 -1
vn 0.79606545 -0.6052105 0
vn 0.79606545 -0.6052105 0
vn 0.8516175 -0.5241638 0
vn 0.8516175 -0.5241638 0
vn 0.8516175 -0.5241638 0
vn 0.99988496 -0.0151680885 0
vn 0.99988496 -0.0151680885 0
vn 0.8516175 -0.5241638 0
vn 0.013948526 -0.9999027 0
vn 0.013948526 -0.9999027 0
vn 0.013948526 -0.9999027 0
vn 0.013948526 -0.9999027 0
vn -0 0 -1
vn -0 0 -1
vn -0 0 -1
vn -0.719231 0.694771 0
vn -0.024111055 0.9997093 0
vn -0.024111055 0.9997093 0
vn -0.719231 0.694771 0
vn -0 0 1
vn -0 0 1
vn -0 0 1
vn -0 0 1
vn 6.823988E-07 0 1
vn -0.7490691 0.6624919 0
vn -0.7490691 0.6624919 0
vn -0.719231 0.694771 0
vn -0.719231 0.694771 0
vn -0 0 -1
vn -0 0 -1
vn -0 0 -1
vn -0 0 -1
vn 0.79606545 -0.6052105 0
vn 0.79606545 -0.6052105 0
vn 0.8516175 -0.5241638 0
vn 0.8516175 -0.5241638 0
vn 0.8516175 -0.5241638 0
vn 0.99988496 -0.015168089 0
vn 0.99988496 -0.015168089 0
vn 0.8516175 -0.5241638 0
vn 0.013948524 -0.9999027 0
vn 0.013948524 -0.9999027 0
vn 0.013948524 -0.9999027 0
vn 0.013948524 -0.9999027 0
vn -0 0 -1
vn -4.4114668E-07 0 -1
vn -0 0 -1
vn -0.719231 0.694771 0
vn -0.024111062 0.9997093 0
vn -0.024111062 0.9997093 0
vn -0.719231 0.694771 0
vn -0 1 0
vn -0 1 0
vn -0 1 0
vn -0 1 0
vn -1 0 0
vn -1 0 0
vn -1 0 0
vn -1 0 0
vn -0 1 0
vn -0 1 0
vn -0 1 0
vn -0 1 0
vn -1 0 0
vn -1 0 0
vn -1 0 0
vn -1 0 0
vn -0 1 0
vn -0 1 0
vn -0 1 0
vn -0 1 0
vn -1 0 0
vn -1 0 0
vn -1 0 0
vn -1 0 0
vn -0 1 0
vn -0 1 0
vn -0 1 0
vn -0 1 0
vn -1 0 0
vn -1 0 0
vn -1 0 0
vn -1 0 0
vn -0 1 0
vn -0 1 0
vn -0 1 0
vn -0 1 0
vn -0.7419742 0.67042845 0
vn -0.7419742 0.67042845 0
vn -0.7419742 0.67042845 0
vn -0.7419742 0.67042845 0
g templeStairsCOL_0
f 3/3/3 2/2/2 1/1/1
f 4/4/4 3/3/3 1/1/1
f 4/4/4 5/5/5 3/3/3
f 8/8/8 7/7/7 6/6/6
f 9/9/9 8/8/8 6/6/6
f 12/12/12 11/11/11 10/10/10
f 13/13/13 12/12/12 10/10/10
f 16/16/16 15/15/15 14/14/14
f 17/17/17 16/16/16 14/14/14
f 20/20/20 19/19/19 18/18/18
f 21/21/21 20/20/20 18/18/18
f 24/24/24 23/23/23 22/22/22
f 25/25/25 24/24/24 22/22/22
f 28/28/28 27/27/27 26/26/26
f 31/31/31 30/30/30 29/29/29
f 32/32/32 31/31/31 29/29/29
f 35/35/35 34/34/34 33/33/33
f 36/36/36 35/35/35 33/33/33
f 36/36/36 37/37/37 35/35/35
f 40/40/40 39/39/39 38/38/38
f 41/41/41 40/40/40 38/38/38
f 44/44/44 43/43/43 42/42/42
f 45/45/45 44/44/44 42/42/42
f 48/48/48 47/47/47 46/46/46
f 49/49/49 48/48/48 46/46/46
f 52/52/52 51/51/51 50/50/50
f 53/53/53 52/52/52 50/50/50
f 56/56/56 55/55/55 54/54/54
f 57/57/57 56/56/56 54/54/54
f 60/60/60 59/59/59 58/58/58
f 63/63/63 62/62/62 61/61/61
f 64/64/64 63/63/63 61/61/61
f 67/67/67 66/66/66 65/65/65
f 68/68/68 67/67/67 65/65/65
f 71/71/71 70/70/70 69/69/69
f 72/72/72 71/71/71 69/69/69
f 75/75/75 74/74/74 73/73/73
f 76/76/76 75/75/75 73/73/73
f 79/79/79 78/78/78 77/77/77
f 80/80/80 79/79/79 77/77/77
f 83/83/83 82/82/82 81/81/81
f 84/84/84 83/83/83 81/81/81
f 87/87/87 86/86/86 85/85/85
f 88/88/88 87/87/87 85/85/85
f 91/91/91 90/90/90 89/89/89
f 92/92/92 91/91/91 89/89/89
f 95/95/95 94/94/94 93/93/93
f 96/96/96 95/95/95 93/93/93
f 99/99/99 98/98/98 97/97/97
f 100/100/100 99/99/99 97/97/97
f 103/103/103 102/102/102 101/101/101
f 104/104/104 103/103/103 101/101/101
