g titleDioBG
v 88.31248 -11.281937 -132.10294
v 63.08631 -11.281937 -136.86246
v 63.08631 41.88907 -136.86246
v 88.31248 41.88907 -132.10294
v 34.766106 41.88907 -139.9237
v 34.766106 -11.281937 -139.9237
v 1.36203 41.88907 -140.18245
v 1.36203 -11.281937 -140.18245
v -32.042038 41.88907 -139.9237
v -32.042038 -11.281937 -139.9237
v -60.358612 41.88907 -136.86246
v -60.358612 -11.281937 -136.86246
v -85.58841 41.88907 -132.10294
v -85.58841 -11.281937 -132.10294
v -98.64975 41.88907 -124.406075
v -98.64975 -11.281937 -124.406075
v 101.37746 -11.281937 -124.406075
v 101.37746 41.88907 -124.406075
vt 0.87083644 0.018707959
vt 0.74660814 0.018707959
vt 0.74660814 0.9824478
vt 0.87083644 0.9824478
vt 0.62237984 0.9824478
vt 0.62237984 0.018707959
vt 0.49912205 0.9824478
vt 0.49912205 0.018707959
vt 0.37489378 0.9824478
vt 0.37489378 0.018707959
vt 0.2506655 0.9824478
vt 0.2506655 0.018707959
vt 0.12643719 0.9824478
vt 0.12643719 0.018707959
vt 0.0022088885 0.9824478
vt 0.0022088885 0.018707959
vt 0.99506474 0.018707959
vt 0.99506474 0.9824478
vn -0.30857003 -0.0019907355 0.9511996
vn -0.14532655 -0.0019907355 0.98938173
vn -0.14532655 -0.0019907355 0.98938173
vn -0.30857003 -0.0019907355 0.9511996
vn -0.053750932 -0.0019907355 0.9985524
vn -0.053750932 -0.0019907355 0.9985524
vn -0.0019908547 -0.0019907355 0.99999607
vn -0.0019908547 -0.0019907355 0.99999607
vn 0.053750843 -0.0019907355 0.9985524
vn 0.053750843 -0.0019907355 0.9985524
vn 0.14532647 -0.0019907355 0.9893818
vn 0.14532647 -0.0019907355 0.9893818
vn 0.3085699 -0.0019907355 0.9511996
vn 0.3085699 -0.0019907355 0.9511996
vn 0.50764734 -0.0019907355 0.86156267
vn 0.50764734 -0.0019907355 0.86156267
vn -0.50764745 -0.0019907355 0.8615626
vn -0.50764745 -0.0019907355 0.8615626
g titleDioBG_0
f 3/3/3 2/2/2 1/1/1
f 4/4/4 3/3/3 1/1/1
f 3/3/3 5/5/5 2/2/2
f 5/5/5 6/6/6 2/2/2
f 5/5/5 7/7/7 6/6/6
f 7/7/7 8/8/8 6/6/6
f 7/7/7 9/9/9 8/8/8
f 9/9/9 10/10/10 8/8/8
f 9/9/9 11/11/11 10/10/10
f 11/11/11 12/12/12 10/10/10
f 11/11/11 13/13/13 12/12/12
f 13/13/13 14/14/14 12/12/12
f 13/13/13 15/15/15 14/14/14
f 15/15/15 16/16/16 14/14/14
f 4/4/4 1/1/1 17/17/17
f 18/18/18 4/4/4 17/17/17
