g torch_break01
v 0.019151 -0.18977016 -0.032370757
v 0.025999146 0.18839863 -0.03952408
v -0.015065918 -0.18148841 -0.036146086
v 0.025999146 0.18839863 -0.03952408
v -0.018652344 0.20245259 -0.039174955
v -0.015065918 -0.18148841 -0.036146086
v -0.033485107 -0.18647708 -0.0027470398
v -0.015065918 -0.18148841 -0.036146086
v -0.04217346 0.1884323 -0.0016758727
v -0.015065918 -0.18148841 -0.036146086
v -0.018652344 0.20245259 -0.039174955
v -0.04217346 0.1884323 -0.0016758727
v -0.033485107 -0.18647708 -0.0027470398
v -0.04217346 0.1884323 -0.0016758727
v -0.01481018 -0.19495048 0.030236663
v -0.04217346 0.1884323 -0.0016758727
v -0.018548584 0.20806606 0.03952408
v -0.01481018 -0.19495048 0.030236663
v 0.021609496 -0.18701309 0.028596954
v -0.01481018 -0.19495048 0.030236663
v 0.022134399 0.15229164 0.033046417
v -0.01481018 -0.19495048 0.030236663
v -0.018548584 0.20806606 0.03952408
v 0.022134399 0.15229164 0.033046417
v 0.021609496 -0.18701309 0.028596954
v 0.022134399 0.15229164 0.033046417
v 0.04026123 -0.19693705 -0.0025187682
v 0.022134399 0.15229164 0.033046417
v 0.04217346 0.20396392 -0.0022309874
v 0.04026123 -0.19693705 -0.0025187682
v 0.019151 -0.18977016 -0.032370757
v 0.04026123 -0.19693705 -0.0025187682
v 0.025999146 0.18839863 -0.03952408
v 0.04026123 -0.19693705 -0.0025187682
v 0.04217346 0.20396392 -0.0022309874
v 0.025999146 0.18839863 -0.03952408
v -0.015065918 -0.18148841 -0.036146086
v 0.0046777343 -0.20806606 -0.0028813172
v 0.019151 -0.18977016 -0.032370757
v -0.033485107 -0.18647708 -0.0027470398
v 0.0046777343 -0.20806606 -0.0028813172
v -0.015065918 -0.18148841 -0.036146086
v -0.01481018 -0.19495048 0.030236663
v 0.0046777343 -0.20806606 -0.0028813172
v -0.033485107 -0.18647708 -0.0027470398
v 0.021609496 -0.18701309 0.028596954
v 0.0046777343 -0.20806606 -0.0028813172
v -0.01481018 -0.19495048 0.030236663
v 0.04026123 -0.19693705 -0.0025187682
v 0.0046777343 -0.20806606 -0.0028813172
v 0.021609496 -0.18701309 0.028596954
v 0.019151 -0.18977016 -0.032370757
v 0.0046777343 -0.20806606 -0.0028813172
v 0.04026123 -0.19693705 -0.0025187682
v 0.022134399 0.15229164 0.033046417
v -0.018548584 0.20806606 0.03952408
v 0.00066902157 0.19634992 -0.0012891978
v 0.04217346 0.20396392 -0.0022309874
v 0.025999146 0.18839863 -0.03952408
v 0.00066902157 0.19634992 -0.0012891978
v -0.018652344 0.20245259 -0.039174955
v 0.04217346 0.20396392 -0.0022309874
v 0.00066902157 0.19634992 -0.0012891978
v -0.04217346 0.1884323 -0.0016758727
v -0.018652344 0.20245259 -0.039174955
v 0.00066902157 0.19634992 -0.0012891978
v -0.018548584 0.20806606 0.03952408
v -0.04217346 0.1884323 -0.0016758727
vt 0.14085591 0.59030116
vt 0.14268166 0.6503901
vt 0.13471675 0.59178704
vt 0.14268166 0.6503901
vt 0.13364494 0.6532343
vt 0.13471675 0.59178704
vt 0.13141209 0.590892
vt 0.13471675 0.59178704
vt 0.12888479 0.6503969
vt 0.13471675 0.59178704
vt 0.13364494 0.6532343
vt 0.12888479 0.6503969
vt 0.13141209 0.590892
vt 0.12888479 0.6503969
vt 0.13476264 0.58937174
vt 0.12888479 0.6503969
vt 0.13366592 0.65437037
vt 0.13476264 0.58937174
vt 0.14129698 0.5907958
vt 0.13476264 0.58937174
vt 0.14189959 0.65001094
vt 0.13476264 0.58937174
vt 0.13366592 0.65437037
vt 0.14189959 0.65001094
vt 0.14129698 0.5907958
vt 0.14189959 0.65001094
vt 0.14464349 0.5890153
vt 0.14189959 0.65001094
vt 0.14595503 0.6535402
vt 0.14464349 0.5890153
vt 0.14085591 0.59030116
vt 0.14464349 0.5890153
vt 0.14268166 0.6503901
vt 0.14464349 0.5890153
vt 0.14595503 0.6535402
vt 0.14268166 0.6503901
vt 0.13471675 0.59178704
vt 0.13825905 0.58701855
vt 0.14085591 0.59030116
vt 0.13141209 0.590892
vt 0.13825905 0.58701855
vt 0.13471675 0.59178704
vt 0.13476264 0.58937174
vt 0.13825905 0.58701855
vt 0.13141209 0.590892
vt 0.14129698 0.5907958
vt 0.13825905 0.58701855
vt 0.13476264 0.58937174
vt 0.14464349 0.5890153
vt 0.13825905 0.58701855
vt 0.14129698 0.5907958
vt 0.14085591 0.59030116
vt 0.13825905 0.58701855
vt 0.14464349 0.5890153
vt 0.14189959 0.65001094
vt 0.13366592 0.65437037
vt 0.13817379 0.6523802
vt 0.14595503 0.6535402
vt 0.14268166 0.6503901
vt 0.13817379 0.6523802
vt 0.13364494 0.6532343
vt 0.14595503 0.6535402
vt 0.13817379 0.6523802
vt 0.12888479 0.6503969
vt 0.13364494 0.6532343
vt 0.13817379 0.6523802
vt 0.13366592 0.65437037
vt 0.12888479 0.6503969
vn 0.10018862 -0.039297964 -0.99419206
vn 0.100188635 -0.03929797 -0.99419206
vn 0.100188635 -0.03929797 -0.99419206
vn -0.015295304 -0.023740781 -0.9996012
vn -0.015295304 -0.023740785 -0.9996012
vn -0.015295305 -0.023740785 -0.9996012
vn -0.87283176 -0.035812095 -0.48670557
vn -0.87283176 -0.035812095 -0.48670557
vn -0.87283176 -0.035812095 -0.48670557
vn -0.8421901 -0.027333783 -0.5384875
vn -0.8421901 -0.027333785 -0.5384875
vn -0.8421901 -0.027333783 -0.53848743
vn -0.873756 -0.03836529 0.48484892
vn -0.873756 -0.03836529 0.484849
vn -0.873756 -0.03836529 0.48484892
vn -0.8597542 -0.03468515 0.5095288
vn -0.8597542 -0.03468515 0.50952893
vn -0.8597542 -0.03468515 0.5095288
vn 0.050775878 -0.026769863 0.9983512
vn 0.050775878 -0.02676986 0.9983512
vn 0.050775878 -0.02676986 0.9983512
vn 0.13806053 -0.03686297 0.98973745
vn 0.13806053 -0.03686297 0.98973745
vn 0.13806051 -0.036862973 0.9897376
vn 0.8543334 -0.022345716 0.51924485
vn 0.8543334 -0.022345716 0.51924485
vn 0.8543334 -0.02234572 0.51924485
vn 0.8731203 -0.017749822 0.48718148
vn 0.8731203 -0.017749825 0.48718157
vn 0.8731203 -0.017749825 0.48718157
vn 0.8103796 -0.045924027 -0.58410275
vn 0.8103796 -0.045924027 -0.58410263
vn 0.8103796 -0.04592402 -0.58410263
vn 0.9200912 -0.018698597 -0.3912576
vn 0.92009115 -0.0186986 -0.39125767
vn 0.92009115 -0.018698597 -0.39125767
vn -0.13360894 -0.81139696 -0.56901985
vn -0.13360894 -0.81139696 -0.56901985
vn -0.13360894 -0.81139696 -0.5690199
vn -0.45782894 -0.8069988 -0.37302214
vn -0.45782906 -0.8069988 -0.37302217
vn -0.45782894 -0.8069988 -0.37302214
vn -0.49150836 -0.86913466 0.054995846
vn -0.4915084 -0.8691346 0.054995842
vn -0.49150836 -0.86913466 0.054995846
vn 0.20854072 -0.8610944 0.46371028
vn 0.20854072 -0.8610944 0.46371028
vn 0.20854074 -0.8610944 0.46371034
vn 0.26496807 -0.8612936 0.43354946
vn 0.26496807 -0.8612936 0.43354946
vn 0.26496804 -0.8612936 0.43354952
vn 0.27668658 -0.871494 -0.40489858
vn 0.2766866 -0.871494 -0.40489858
vn 0.2766866 -0.871494 -0.40489858
vn 0.46461403 0.6739751 0.57436174
vn 0.5229355 0.8523708 0.001545586
vn 0.19345523 0.9554519 0.22290494
vn -0.15447982 0.89408344 0.42041755
vn 0.069084935 0.9848518 -0.1590415
vn 0.19345523 0.9554519 0.22290494
vn 0.0778169 0.98975044 0.119743556
vn -0.15447982 0.89408344 0.42041755
vn 0.19345523 0.9554519 0.22290494
vn -0.18061128 0.9808522 -0.072858974
vn 0.0778169 0.98975044 0.119743556
vn 0.19345523 0.9554519 0.22290494
vn 0.5229355 0.8523708 0.001545586
vn -0.18061128 0.9808522 -0.072858974
g torch_break01_0
f 3/3/3 2/2/2 1/1/1
f 6/6/6 5/5/5 4/4/4
f 9/9/9 8/8/8 7/7/7
f 12/12/12 11/11/11 10/10/10
f 15/15/15 14/14/14 13/13/13
f 18/18/18 17/17/17 16/16/16
f 21/21/21 20/20/20 19/19/19
f 24/24/24 23/23/23 22/22/22
f 27/27/27 26/26/26 25/25/25
f 30/30/30 29/29/29 28/28/28
f 33/33/33 32/32/32 31/31/31
f 36/36/36 35/35/35 34/34/34
f 39/39/39 38/38/38 37/37/37
f 42/42/42 41/41/41 40/40/40
f 45/45/45 44/44/44 43/43/43
f 48/48/48 47/47/47 46/46/46
f 51/51/51 50/50/50 49/49/49
f 54/54/54 53/53/53 52/52/52
f 57/57/57 56/56/56 55/55/55
f 57/57/57 55/55/55 58/58/58
f 61/61/61 60/60/60 59/59/59
f 60/60/60 62/62/62 59/59/59
f 65/65/65 64/64/64 63/63/63
f 68/68/68 67/67/67 66/66/66
