g townBaseDioBG
v 2026.2075 807.42236 -1392.9554
v 2416.735 807.42236 -706.82166
v 2416.735 -160.52563 -706.82166
v 2026.2075 -160.52563 -1392.9554
v -715.0823 807.42236 -1992.7231
v -0.036865234 807.42236 -2042.4333
v -0.036865234 -160.52563 -2042.4333
v -715.0823 -160.52563 -1992.7231
v 714.19714 -160.52563 -2006.1465
v 714.19714 807.42236 -2006.1465
v 1456.0889 -160.52563 -1859.7446
v 1456.0889 807.42236 -1859.7446
v -1456.0889 807.42236 -1859.7446
v -1456.0889 -160.52563 -1859.7446
v -2026.2078 807.42236 -1392.9554
v -1456.0889 807.42236 -1859.7446
v -1456.0889 -160.52563 -1859.7446
v -2026.2078 -160.52563 -1392.9554
v 1456.0889 807.42236 -1859.7446
v 2026.2075 807.42236 -1392.9554
v 2026.2075 -160.52563 -1392.9554
v 1456.0889 -160.52563 -1859.7446
v -2416.735 807.42236 -706.82166
v -2026.2078 807.42236 -1392.9554
v -2026.2078 -160.52563 -1392.9554
v -2416.735 -160.52563 -706.82166
vt 0.9188661 0.9931574
vt 1 0.9931574
vt 1 0.0068426197
vt 0.9188661 0.0068426197
vt 0.35190615 0.9931574
vt 0.50048876 0.9931574
vt 0.50048876 0.0068426197
vt 0.35190615 0.0068426197
vt 0.6480938 0.0068426197
vt 0.6480938 0.9931574
vt 0.80156404 0.0068426197
vt 0.80156404 0.9931574
vt 0.19843598 0.9931574
vt 0.19843598 0.0068426197
vt 0.08113392 0.9931574
vt 0.19843598 0.9931574
vt 0.19843598 0.0068426197
vt 0.08113392 0.0068426197
vt 0.80156404 0.9931574
vt 0.9188661 0.9931574
vt 0.9188661 0.0068426197
vt 0.80156404 0.0068426197
vt 0 0.9931574
vt 0.08113392 0.9931574
vt 0.08113392 0.0068426197
vt 0 0.0068426197
vn -0.7668336 0.003408134 0.6418369
vn -0.8690781 0.003408134 0.49466315
vn -0.8690781 0.003408134 0.49466315
vn -0.7668336 0.003408134 0.6418369
vn 0.12610155 0.003408134 0.9920115
vn 0.010224462 0.003408134 0.9999419
vn 0.010224462 0.003408134 0.9999419
vn 0.12610155 0.003408134 0.9920115
vn -0.12610155 0.003408134 0.9920115
vn -0.12610155 0.003408134 0.9920115
vn -0.42601866 0.003408134 0.90470797
vn -0.42601866 0.003408134 0.90470797
vn 0.4192024 0.003408134 0.9078864
vn 0.4192024 0.003408134 0.9078864
vn 0.7668336 0.003408134 0.6418369
vn 0.4192024 0.003408134 0.9078864
vn 0.4192024 0.003408134 0.9078864
vn 0.7668336 0.003408134 0.6418369
vn -0.42601866 0.003408134 0.90470797
vn -0.7668336 0.003408134 0.6418369
vn -0.7668336 0.003408134 0.6418369
vn -0.42601866 0.003408134 0.90470797
vn 0.8690781 0.003408134 0.49466315
vn 0.7668336 0.003408134 0.6418369
vn 0.7668336 0.003408134 0.6418369
vn 0.8690781 0.003408134 0.49466315
g townBaseDioBG_0
f 3/3/3 2/2/2 1/1/1
f 4/4/4 3/3/3 1/1/1
f 7/7/7 6/6/6 5/5/5
f 8/8/8 7/7/7 5/5/5
f 7/7/7 9/9/9 6/6/6
f 9/9/9 10/10/10 6/6/6
f 9/9/9 11/11/11 10/10/10
f 11/11/11 12/12/12 10/10/10
f 8/8/8 5/5/5 13/13/13
f 14/14/14 8/8/8 13/13/13
f 17/17/17 16/16/16 15/15/15
f 18/18/18 17/17/17 15/15/15
f 21/21/21 20/20/20 19/19/19
f 22/22/22 21/21/21 19/19/19
f 25/25/25 24/24/24 23/23/23
f 26/26/26 25/25/25 23/23/23
