g trapArrowWall_arrows3
v 0.32094058 0.12727706 -4.5500715E-07
v 0.32094088 -1.5258789E-07 -0.12727706
v 0.59517395 -1.5258789E-07 1.5534438E-07
v 0.32094058 0.12727706 -4.5500715E-07
v 0.27799717 0.0486763 1.5534438E-07
v 0.27799746 1.5258789E-07 -0.048675988
v 0.32094088 -1.5258789E-07 -0.12727706
v -0.5951739 0.0486763 -4.5500715E-07
v -0.5951739 -1.5258789E-07 0.048676305
v -0.5951739 -0.0486763 -4.5500715E-07
v -0.5951739 1.5258789E-07 -0.0486766
v 0.27799717 -1.5258789E-07 0.048676305
v 0.32094058 -1.5258789E-07 0.12727676
v 0.32094058 -0.12727706 -4.5500715E-07
v 0.27799717 -0.0486763 1.5534438E-07
v 0.32094058 -0.12727706 -4.5500715E-07
v 0.32094088 -1.5258789E-07 -0.12727706
v 0.27799746 1.5258789E-07 -0.048675988
v 0.27799717 -0.0486763 1.5534438E-07
v 0.27799717 -1.5258789E-07 0.048676305
v 0.27799717 0.0486763 1.5534438E-07
v 0.32094058 0.12727706 -4.5500715E-07
v 0.32094058 -1.5258789E-07 0.12727676
v 0.32094058 -1.5258789E-07 0.12727676
v 0.59517395 -1.5258789E-07 1.5534438E-07
v 0.32094058 -0.12727706 -4.5500715E-07
v 0.59517395 -1.5258789E-07 1.5534438E-07
v 0.32094088 -1.5258789E-07 -0.12727706
v 0.32094058 -0.12727706 -4.5500715E-07
v 0.32094058 -1.5258789E-07 0.12727676
v 0.32094058 0.12727706 -4.5500715E-07
v 0.59517395 -1.5258789E-07 1.5534438E-07
v -0.5951739 -1.5258789E-07 0.048676305
v -0.5951739 0.0486763 -4.5500715E-07
v 0.27799717 0.0486763 1.5534438E-07
v 0.27799717 -1.5258789E-07 0.048676305
v -0.5951739 -1.5258789E-07 0.048676305
v 0.27799717 -1.5258789E-07 0.048676305
v 0.27799717 -0.0486763 1.5534438E-07
v -0.5951739 -0.0486763 -4.5500715E-07
v 0.27799746 1.5258789E-07 -0.048675988
v -0.5951739 1.5258789E-07 -0.0486766
v -0.5951739 -0.0486763 -4.5500715E-07
v 0.27799717 -0.0486763 1.5534438E-07
v 0.27799717 0.0486763 1.5534438E-07
v -0.5951739 0.0486763 -4.5500715E-07
v -0.5951739 1.5258789E-07 -0.0486766
v 0.27799746 1.5258789E-07 -0.048675988
v -0.57329464 0.076511994 0.066844635
v -0.57329464 0.066005096 0.0750087
v -0.57329464 -0.07667831 -0.06767501
v -0.57329464 -0.066171415 -0.07583907
v -0.57329464 0.066005096 0.0750087
v -0.57329464 0.076511994 0.066844635
v -0.3254153 0.031006012 0.023245394
v -0.3254153 0.023245087 0.031006014
v -0.57329464 0.066005096 0.0750087
v -0.3254153 0.023245087 0.031006014
v -0.3254153 -0.031006012 -0.023245083
v -0.57329464 -0.07667831 -0.06767501
v -0.3254153 -0.023245087 -0.031005703
v -0.57329464 -0.066171415 -0.07583907
v -0.57329464 -0.07667831 -0.06767501
v -0.3254153 -0.031006012 -0.023245083
v -0.3254153 0.031006012 0.023245394
v -0.57329464 0.076511994 0.066844635
v -0.57329464 -0.066171415 -0.07583907
v -0.3254153 -0.023245087 -0.031005703
v -0.57329464 -0.06684433 0.076511994
v -0.57329464 -0.07500839 0.0660048
v -0.57329464 0.06767502 -0.076678306
v -0.57329464 0.07583908 -0.06617171
v -0.57329464 -0.07500839 0.0660048
v -0.57329464 -0.06684433 0.076511994
v -0.3254153 -0.023245087 0.031006014
v -0.3254153 -0.031006012 0.023245394
v -0.57329464 -0.07500839 0.0660048
v -0.3254153 -0.031006012 0.023245394
v -0.3254153 0.023245087 -0.031005703
v -0.57329464 0.06767502 -0.076678306
v -0.3254153 0.031006012 -0.023245083
v -0.57329464 0.07583908 -0.06617171
v -0.57329464 0.06767502 -0.076678306
v -0.3254153 0.023245087 -0.031005703
v -0.3254153 -0.023245087 0.031006014
v -0.57329464 -0.06684433 0.076511994
v -0.57329464 0.07583908 -0.06617171
v -0.3254153 0.031006012 -0.023245083
vt 0.38501504 0.64605534
vt 0.43464345 0.64605534
vt 0.38501504 0.5391251
vt 0.38501504 0.64605534
vt 0.38501504 0.6628
vt 0.40399513 0.6628
vt 0.43464345 0.64605534
vt 0.8040869 0.5616994
vt 0.8040869 0.57612807
vt 0.81851566 0.57612807
vt 0.81851566 0.5616994
vt 0.36603495 0.6628
vt 0.3353866 0.64605534
vt 0.38501504 0.64605534
vt 0.38501504 0.6628
vt 0.38501504 0.64605534
vt 0.43464345 0.64605534
vt 0.40399513 0.6628
vt 0.38501504 0.6628
vt 0.36603495 0.6628
vt 0.38501504 0.6628
vt 0.38501504 0.64605534
vt 0.3353866 0.64605534
vt 0.3353866 0.64605534
vt 0.38501504 0.5391251
vt 0.38501504 0.64605534
vt 0.38501504 0.5391251
vt 0.43464345 0.64605534
vt 0.38501504 0.64605534
vt 0.3353866 0.64605534
vt 0.38501504 0.64605534
vt 0.38501504 0.5391251
vt 0.7896582 0.5328419
vt 0.7896582 0.54727066
vt 0.80133235 0.54727066
vt 0.80133235 0.5328419
vt 0.8040869 0.57612807
vt 0.8040869 0.5878023
vt 0.81851566 0.5878023
vt 0.81851566 0.57612807
vt 0.8212702 0.54727066
vt 0.8329444 0.54727066
vt 0.8329444 0.5328419
vt 0.8212702 0.5328419
vt 0.8040869 0.55002517
vt 0.8040869 0.5616994
vt 0.81851566 0.5616994
vt 0.81851566 0.55002517
vt 0.80969596 0.8169103
vt 0.80969596 0.83133906
vt 0.8241247 0.83133906
vt 0.8241247 0.8169103
vt 0.7952672 0.7880528
vt 0.7952672 0.80248153
vt 0.8069414 0.80248153
vt 0.8069414 0.7880528
vt 0.80969596 0.83133906
vt 0.80969596 0.84301317
vt 0.8241247 0.84301317
vt 0.8241247 0.83133906
vt 0.82687926 0.80248153
vt 0.8385534 0.80248153
vt 0.8385534 0.7880528
vt 0.82687926 0.7880528
vt 0.80969596 0.8052361
vt 0.80969596 0.8169103
vt 0.8241247 0.8169103
vt 0.8241247 0.8052361
vt 0.80969596 0.8169103
vt 0.80969596 0.83133906
vt 0.8241247 0.83133906
vt 0.8241247 0.8169103
vt 0.7952672 0.7880528
vt 0.7952672 0.80248153
vt 0.8069414 0.80248153
vt 0.8069414 0.7880528
vt 0.80969596 0.83133906
vt 0.80969596 0.84301317
vt 0.8241247 0.84301317
vt 0.8241247 0.83133906
vt 0.82687926 0.80248153
vt 0.8385534 0.80248153
vt 0.8385534 0.7880528
vt 0.82687926 0.7880528
vt 0.80969596 0.8052361
vt 0.80969596 0.8169103
vt 0.8241247 0.8169103
vt 0.8241247 0.8052361
vn 0.31182098 0.67185044 -0.67185163
vn 0.31182095 0.67185044 -0.67185163
vn 0.31182095 0.67185044 -0.67185163
vn -0.7913145 0.43232784 -0.43233562
vn -0.7913145 0.43232787 -0.43233556
vn -0.7913145 0.43232787 -0.43233556
vn -0.7913144 0.4323279 -0.43233553
vn -1 0 0
vn -1 0 0
vn -1 0 0
vn -1 0 0
vn -0.79130906 -0.4323373 0.43233594
vn -0.7913091 -0.43233734 0.43233594
vn -0.7913091 -0.4323373 0.43233594
vn -0.79130906 -0.43233737 0.43233594
vn -0.7913169 -0.43232685 -0.4323322
vn -0.7913169 -0.43232685 -0.4323322
vn -0.7913169 -0.4323268 -0.4323322
vn -0.7913168 -0.43232682 -0.43233216
vn -0.79130864 0.4323371 0.4323371
vn -0.79130864 0.4323371 0.4323371
vn -0.79130864 0.4323371 0.4323371
vn -0.79130864 0.4323371 0.4323371
vn 0.31181577 -0.6718532 0.67185134
vn 0.31181577 -0.6718532 0.67185134
vn 0.31181577 -0.6718532 0.67185134
vn 0.31182122 -0.671851 -0.671851
vn 0.31182125 -0.671851 -0.671851
vn 0.31182122 -0.671851 -0.671851
vn 0.31181705 0.67185193 0.67185193
vn 0.3118171 0.67185193 0.67185193
vn 0.31181705 0.67185193 0.67185193
vn -4.0616868E-07 0.70710635 0.7071072
vn -4.0616868E-07 0.70710635 0.7071072
vn -4.0616868E-07 0.70710635 0.7071072
vn -4.0616868E-07 0.70710635 0.7071072
vn -4.0617064E-07 -0.7071095 0.707104
vn -4.0617064E-07 -0.7071095 0.707104
vn -4.0617056E-07 -0.70710945 0.707104
vn -4.0617064E-07 -0.7071095 0.707104
vn -0 -0.707104 -0.70710945
vn -0 -0.707104 -0.70710945
vn -0 -0.707104 -0.70710945
vn -0 -0.707104 -0.70710945
vn -0 0.7071058 -0.7071077
vn -0 0.7071058 -0.7071077
vn -0 0.7071059 -0.70710766
vn -0 0.7071058 -0.7071077
vn -1 -2.2909824E-06 0
vn -1 -2.2909824E-06 0
vn -1 -2.2909824E-06 0
vn -1 -2.2909824E-06 0
vn 0.24270943 0.6374627 0.73125476
vn 0.24270943 0.6374627 0.73125476
vn 0.24270943 0.6374627 0.73125476
vn 0.24270943 0.6374627 0.73125476
vn 0.0035462833 -0.7071038 0.7071008
vn 0.0035462833 -0.7071038 0.70710087
vn 0.0035462833 -0.7071037 0.7071009
vn 0.0035462833 -0.7071038 0.70710087
vn 0.24542259 -0.6370184 -0.73073614
vn 0.24542259 -0.6370184 -0.7307362
vn 0.24542257 -0.6370184 -0.73073614
vn 0.24542259 -0.6370184 -0.73073614
vn 0.005439616 0.7070963 -0.7070963
vn 0.005439616 0.7070963 -0.7070963
vn 0.0054396153 0.7070963 -0.7070963
vn 0.0054396153 0.7070963 -0.7070963
vn -1 -1.1455476E-06 0
vn -1 -1.1455477E-06 0
vn -1 -1.1455475E-06 0
vn -1 -1.1455476E-06 0
vn 0.24269605 -0.7312462 0.6374777
vn 0.24269603 -0.7312461 0.6374777
vn 0.24269603 -0.7312461 0.63747764
vn 0.24269608 -0.7312461 0.63747776
vn 0.0035469944 -0.70710164 -0.707103
vn 0.0035469944 -0.70710164 -0.707103
vn 0.0035469946 -0.70710164 -0.7071031
vn 0.0035469944 -0.70710164 -0.707103
vn 0.245419 0.7307215 -0.63703674
vn 0.24541897 0.7307215 -0.63703656
vn 0.24541895 0.7307215 -0.63703656
vn 0.24541897 0.7307215 -0.63703656
vn 0.0054374924 0.7070967 0.7070959
vn 0.005437491 0.7070967 0.7070959
vn 0.0054374915 0.7070967 0.7070959
vn 0.005437491 0.7070967 0.7070959
g trapArrowWall_arrows3_0
f 3/3/3 2/2/2 1/1/1
f 6/6/6 5/5/5 4/4/4
f 7/7/7 6/6/6 4/4/4
f 10/10/10 9/9/9 8/8/8
f 11/11/11 10/10/10 8/8/8
f 14/14/14 13/13/13 12/12/12
f 15/15/15 14/14/14 12/12/12
f 18/18/18 17/17/17 16/16/16
f 19/19/19 18/18/18 16/16/16
f 22/22/22 21/21/21 20/20/20
f 23/23/23 22/22/22 20/20/20
f 26/26/26 25/25/25 24/24/24
f 29/29/29 28/28/28 27/27/27
f 32/32/32 31/31/31 30/30/30
f 35/35/35 34/34/34 33/33/33
f 36/36/36 35/35/35 33/33/33
f 39/39/39 38/38/38 37/37/37
f 40/40/40 39/39/39 37/37/37
f 43/43/43 42/42/42 41/41/41
f 44/44/44 43/43/43 41/41/41
f 47/47/47 46/46/46 45/45/45
f 48/48/48 47/47/47 45/45/45
f 51/51/51 50/50/50 49/49/49
f 52/52/52 51/51/51 49/49/49
f 55/55/55 54/54/54 53/53/53
f 56/56/56 55/55/55 53/53/53
f 59/59/59 58/58/58 57/57/57
f 60/60/60 59/59/59 57/57/57
f 63/63/63 62/62/62 61/61/61
f 64/64/64 63/63/63 61/61/61
f 67/67/67 66/66/66 65/65/65
f 68/68/68 67/67/67 65/65/65
f 71/71/71 70/70/70 69/69/69
f 72/72/72 71/71/71 69/69/69
f 75/75/75 74/74/74 73/73/73
f 76/76/76 75/75/75 73/73/73
f 79/79/79 78/78/78 77/77/77
f 80/80/80 79/79/79 77/77/77
f 83/83/83 82/82/82 81/81/81
f 84/84/84 83/83/83 81/81/81
f 87/87/87 86/86/86 85/85/85
f 88/88/88 87/87/87 85/85/85
