g trapArrowWall_arrows7
v 0.32094058 0.127277 9.149211E-08
v 0.32094088 -2.0860782E-07 -0.12727712
v 0.59517395 -2.0860782E-07 9.149211E-08
v 0.32094058 0.127277 9.149211E-08
v 0.27799717 0.04867624 -2.1368366E-07
v 0.27799746 9.656795E-08 -0.04867636
v 0.32094088 -2.0860782E-07 -0.12727712
v -0.5951739 0.04867624 -2.1368366E-07
v -0.5951739 -2.0860782E-07 0.048675932
v -0.5951739 -0.048676357 -2.1368366E-07
v -0.5951739 9.656795E-08 -0.04867636
v 0.27799717 -2.0860782E-07 0.048675932
v 0.32094058 -2.0860782E-07 0.12727731
v 0.32094058 -0.12727712 9.149211E-08
v 0.27799717 -0.048676357 -2.1368366E-07
v 0.32094058 -0.12727712 9.149211E-08
v 0.32094088 -2.0860782E-07 -0.12727712
v 0.27799746 9.656795E-08 -0.04867636
v 0.27799717 -0.048676357 -2.1368366E-07
v 0.27799717 -2.0860782E-07 0.048675932
v 0.27799717 0.04867624 -2.1368366E-07
v 0.32094058 0.127277 9.149211E-08
v 0.32094058 -2.0860782E-07 0.12727731
v 0.32094058 -2.0860782E-07 0.12727731
v 0.59517395 -2.0860782E-07 9.149211E-08
v 0.32094058 -0.12727712 9.149211E-08
v 0.59517395 -2.0860782E-07 9.149211E-08
v 0.32094088 -2.0860782E-07 -0.12727712
v 0.32094058 -0.12727712 9.149211E-08
v 0.32094058 -2.0860782E-07 0.12727731
v 0.32094058 0.127277 9.149211E-08
v 0.59517395 -2.0860782E-07 9.149211E-08
v -0.5951739 -2.0860782E-07 0.048675932
v -0.5951739 0.04867624 -2.1368366E-07
v 0.27799717 0.04867624 -2.1368366E-07
v 0.27799717 -2.0860782E-07 0.048675932
v -0.5951739 -2.0860782E-07 0.048675932
v 0.27799717 -2.0860782E-07 0.048675932
v 0.27799717 -0.048676357 -2.1368366E-07
v -0.5951739 -0.048676357 -2.1368366E-07
v 0.27799746 9.656795E-08 -0.04867636
v -0.5951739 9.656795E-08 -0.04867636
v -0.5951739 -0.048676357 -2.1368366E-07
v 0.27799717 -0.048676357 -2.1368366E-07
v 0.27799717 0.04867624 -2.1368366E-07
v -0.5951739 0.04867624 -2.1368366E-07
v -0.5951739 9.656795E-08 -0.04867636
v 0.27799746 9.656795E-08 -0.04867636
v -0.57329464 0.076511934 0.06684427
v -0.57329464 0.066005036 0.07500863
v -0.57329464 -0.07667837 -0.06767477
v -0.57329464 -0.066171475 -0.07583914
v -0.57329464 0.066005036 0.07500863
v -0.57329464 0.076511934 0.06684427
v -0.3254153 0.031005956 0.023245329
v -0.3254153 0.023245031 0.031005949
v -0.57329464 0.066005036 0.07500863
v -0.3254153 0.023245031 0.031005949
v -0.3254153 -0.031006066 -0.023245148
v -0.57329464 -0.07667837 -0.06767477
v -0.3254153 -0.02324514 -0.031005768
v -0.57329464 -0.066171475 -0.07583914
v -0.57329464 -0.07667837 -0.06767477
v -0.3254153 -0.031006066 -0.023245148
v -0.3254153 0.031005956 0.023245329
v -0.57329464 0.076511934 0.06684427
v -0.57329464 -0.066171475 -0.07583914
v -0.3254153 -0.02324514 -0.031005768
v -0.57329464 -0.06684439 0.07651193
v -0.57329464 -0.075008444 0.06600473
v -0.57329464 0.06767496 -0.07667868
v -0.57329464 0.07583902 -0.066171475
v -0.57329464 -0.075008444 0.06600473
v -0.57329464 -0.06684439 0.07651193
v -0.3254153 -0.02324514 0.031005949
v -0.3254153 -0.031006066 0.023245329
v -0.57329464 -0.075008444 0.06600473
v -0.3254153 -0.031006066 0.023245329
v -0.3254153 0.023245031 -0.031005768
v -0.57329464 0.06767496 -0.07667868
v -0.3254153 0.031005956 -0.023245148
v -0.57329464 0.07583902 -0.066171475
v -0.57329464 0.06767496 -0.07667868
v -0.3254153 0.023245031 -0.031005768
v -0.3254153 -0.02324514 0.031005949
v -0.57329464 -0.06684439 0.07651193
v -0.57329464 0.07583902 -0.066171475
v -0.3254153 0.031005956 -0.023245148
vt 0.38501504 0.64605534
vt 0.43464345 0.64605534
vt 0.38501504 0.5391251
vt 0.38501504 0.64605534
vt 0.38501504 0.6628
vt 0.40399513 0.6628
vt 0.43464345 0.64605534
vt 0.8040869 0.5616994
vt 0.8040869 0.57612807
vt 0.81851566 0.57612807
vt 0.81851566 0.5616994
vt 0.36603495 0.6628
vt 0.3353866 0.64605534
vt 0.38501504 0.64605534
vt 0.38501504 0.6628
vt 0.38501504 0.64605534
vt 0.43464345 0.64605534
vt 0.40399513 0.6628
vt 0.38501504 0.6628
vt 0.36603495 0.6628
vt 0.38501504 0.6628
vt 0.38501504 0.64605534
vt 0.3353866 0.64605534
vt 0.3353866 0.64605534
vt 0.38501504 0.5391251
vt 0.38501504 0.64605534
vt 0.38501504 0.5391251
vt 0.43464345 0.64605534
vt 0.38501504 0.64605534
vt 0.3353866 0.64605534
vt 0.38501504 0.64605534
vt 0.38501504 0.5391251
vt 0.7896582 0.5328419
vt 0.7896582 0.54727066
vt 0.80133235 0.54727066
vt 0.80133235 0.5328419
vt 0.8040869 0.57612807
vt 0.8040869 0.5878023
vt 0.81851566 0.5878023
vt 0.81851566 0.57612807
vt 0.8212702 0.54727066
vt 0.8329444 0.54727066
vt 0.8329444 0.5328419
vt 0.8212702 0.5328419
vt 0.8040869 0.55002517
vt 0.8040869 0.5616994
vt 0.81851566 0.5616994
vt 0.81851566 0.55002517
vt 0.80969596 0.8169103
vt 0.80969596 0.83133906
vt 0.8241247 0.83133906
vt 0.8241247 0.8169103
vt 0.7952672 0.7880528
vt 0.7952672 0.80248153
vt 0.8069414 0.80248153
vt 0.8069414 0.7880528
vt 0.80969596 0.83133906
vt 0.80969596 0.84301317
vt 0.8241247 0.84301317
vt 0.8241247 0.83133906
vt 0.82687926 0.80248153
vt 0.8385534 0.80248153
vt 0.8385534 0.7880528
vt 0.82687926 0.7880528
vt 0.80969596 0.8052361
vt 0.80969596 0.8169103
vt 0.8241247 0.8169103
vt 0.8241247 0.8052361
vt 0.80969596 0.8169103
vt 0.80969596 0.83133906
vt 0.8241247 0.83133906
vt 0.8241247 0.8169103
vt 0.7952672 0.7880528
vt 0.7952672 0.80248153
vt 0.8069414 0.80248153
vt 0.8069414 0.7880528
vt 0.80969596 0.83133906
vt 0.80969596 0.84301317
vt 0.8241247 0.84301317
vt 0.8241247 0.83133906
vt 0.82687926 0.80248153
vt 0.8385534 0.80248153
vt 0.8385534 0.7880528
vt 0.82687926 0.7880528
vt 0.80969596 0.8052361
vt 0.80969596 0.8169103
vt 0.8241247 0.8169103
vt 0.8241247 0.8052361
vn 0.3118206 0.6718514 -0.67185086
vn 0.3118206 0.6718514 -0.67185086
vn 0.31182063 0.6718514 -0.671851
vn -0.7913138 0.43233 -0.43233454
vn -0.7913138 0.43232998 -0.4323345
vn -0.7913138 0.43233 -0.43233454
vn -0.7913138 0.43232992 -0.43233454
vn -1 0 0
vn -1 0 0
vn -1 0 0
vn -1 0 0
vn -0.7913154 -0.43233162 0.43233016
vn -0.7913154 -0.43233162 0.4323302
vn -0.7913153 -0.4323316 0.43233022
vn -0.7913153 -0.4323316 0.43233022
vn -0.7913123 -0.43233046 -0.43233702
vn -0.7913123 -0.43233046 -0.4323369
vn -0.7913123 -0.43233046 -0.43233696
vn -0.7913123 -0.4323305 -0.43233696
vn -0.7913154 0.43233088 0.43233088
vn -0.7913154 0.4323309 0.4323309
vn -0.7913154 0.4323309 0.4323309
vn -0.7913154 0.4323309 0.4323309
vn 0.31181878 -0.6718516 0.6718516
vn 0.31181878 -0.6718516 0.6718516
vn 0.31181878 -0.6718516 0.6718516
vn 0.31181917 -0.67185247 -0.67185044
vn 0.3118192 -0.67185247 -0.67185044
vn 0.3118192 -0.67185247 -0.67185056
vn 0.31182045 0.67185116 0.67185116
vn 0.31182045 0.67185116 0.67185116
vn 0.31182048 0.67185116 0.67185116
vn -0 0.70710564 0.70710784
vn -0 0.70710564 0.70710784
vn -0 0.70710564 0.70710784
vn -0 0.70710564 0.70710784
vn -0 -0.70710564 0.70710784
vn -0 -0.70710564 0.70710784
vn -0 -0.70710564 0.70710784
vn -0 -0.70710564 0.70710784
vn -0 -0.70710415 -0.70710933
vn -0 -0.70710415 -0.7071094
vn -0 -0.70710415 -0.7071094
vn -0 -0.70710415 -0.7071094
vn -0 0.70710576 -0.7071077
vn -0 0.70710576 -0.7071077
vn -0 0.70710576 -0.7071077
vn -0 0.7071057 -0.7071078
vn -1 -6.8731833E-06 0
vn -1 -6.873183E-06 0
vn -1 -6.8731833E-06 0
vn -1 -6.873183E-06 0
vn 0.24270575 0.63746995 0.7312496
vn 0.24270572 0.63746995 0.7312495
vn 0.24270575 0.6374699 0.7312496
vn 0.24270572 0.63746995 0.7312495
vn 0.0035448754 -0.7071023 0.7071023
vn 0.0035448754 -0.7071023 0.7071023
vn 0.0035448754 -0.7071023 0.7071023
vn 0.0035448761 -0.7071023 0.7071023
vn 0.24541359 -0.63702106 -0.730737
vn 0.24541357 -0.63702106 -0.730737
vn 0.24541359 -0.63702106 -0.730737
vn 0.24541356 -0.637021 -0.7307368
vn 0.0054399827 0.707096 -0.70709664
vn 0.0054399827 0.70709586 -0.70709664
vn 0.005439983 0.707096 -0.7070966
vn 0.0054399823 0.70709586 -0.70709664
vn -1 -1.1455201E-06 0
vn -1 -1.1455201E-06 0
vn -1 -1.1455201E-06 0
vn -1 -1.1455201E-06 0
vn 0.24271053 -0.7312512 0.6374663
vn 0.24271053 -0.7312512 0.6374663
vn 0.24271055 -0.7312512 0.6374663
vn 0.24271055 -0.7312511 0.6374663
vn 0.0035459371 -0.7071023 -0.7071023
vn 0.0035459367 -0.7071023 -0.7071023
vn 0.0035459371 -0.7071023 -0.7071023
vn 0.0035459371 -0.7071023 -0.7071023
vn 0.24541348 0.7307405 -0.63701683
vn 0.24541348 0.73074055 -0.6370168
vn 0.24541348 0.73074055 -0.6370169
vn 0.24541348 0.7307405 -0.63701683
vn 0.00543963 0.707096 0.70709664
vn 0.0054396293 0.7070959 0.7070967
vn 0.0054396293 0.7070959 0.7070967
vn 0.0054396293 0.7070959 0.7070967
g trapArrowWall_arrows7_0
f 3/3/3 2/2/2 1/1/1
f 6/6/6 5/5/5 4/4/4
f 7/7/7 6/6/6 4/4/4
f 10/10/10 9/9/9 8/8/8
f 11/11/11 10/10/10 8/8/8
f 14/14/14 13/13/13 12/12/12
f 15/15/15 14/14/14 12/12/12
f 18/18/18 17/17/17 16/16/16
f 19/19/19 18/18/18 16/16/16
f 22/22/22 21/21/21 20/20/20
f 23/23/23 22/22/22 20/20/20
f 26/26/26 25/25/25 24/24/24
f 29/29/29 28/28/28 27/27/27
f 32/32/32 31/31/31 30/30/30
f 35/35/35 34/34/34 33/33/33
f 36/36/36 35/35/35 33/33/33
f 39/39/39 38/38/38 37/37/37
f 40/40/40 39/39/39 37/37/37
f 43/43/43 42/42/42 41/41/41
f 44/44/44 43/43/43 41/41/41
f 47/47/47 46/46/46 45/45/45
f 48/48/48 47/47/47 45/45/45
f 51/51/51 50/50/50 49/49/49
f 52/52/52 51/51/51 49/49/49
f 55/55/55 54/54/54 53/53/53
f 56/56/56 55/55/55 53/53/53
f 59/59/59 58/58/58 57/57/57
f 60/60/60 59/59/59 57/57/57
f 63/63/63 62/62/62 61/61/61
f 64/64/64 63/63/63 61/61/61
f 67/67/67 66/66/66 65/65/65
f 68/68/68 67/67/67 65/65/65
f 71/71/71 70/70/70 69/69/69
f 72/72/72 71/71/71 69/69/69
f 75/75/75 74/74/74 73/73/73
f 76/76/76 75/75/75 73/73/73
f 79/79/79 78/78/78 77/77/77
f 80/80/80 79/79/79 77/77/77
f 83/83/83 82/82/82 81/81/81
f 84/84/84 83/83/83 81/81/81
f 87/87/87 86/86/86 85/85/85
f 88/88/88 87/87/87 85/85/85
