g trapArrowWall_arrows
v 0.32094058 0.12727706 -8.241042E-08
v 0.32094088 -1.5258789E-07 -0.127277
v 0.59517395 -1.5258789E-07 -8.241042E-08
v 0.32094058 0.12727706 -8.241042E-08
v 0.27799717 0.0486763 2.2276535E-07
v 0.27799746 1.5258789E-07 -0.04867653
v 0.32094088 -1.5258789E-07 -0.127277
v -0.5951739 0.0486763 2.2276535E-07
v -0.5951739 -1.5258789E-07 0.04867637
v -0.5951739 -0.0486763 2.2276535E-07
v -0.5951739 1.5258789E-07 -0.04867653
v 0.27799717 -1.5258789E-07 0.04867637
v 0.32094058 -1.5258789E-07 0.12727714
v 0.32094058 -0.12727706 2.2276535E-07
v 0.27799717 -0.0486763 2.2276535E-07
v 0.32094058 -0.12727706 2.2276535E-07
v 0.32094088 -1.5258789E-07 -0.127277
v 0.27799746 1.5258789E-07 -0.04867653
v 0.27799717 -0.0486763 2.2276535E-07
v 0.27799717 -1.5258789E-07 0.04867637
v 0.27799717 0.0486763 2.2276535E-07
v 0.32094058 0.12727706 -8.241042E-08
v 0.32094058 -1.5258789E-07 0.12727714
v 0.32094058 -1.5258789E-07 0.12727714
v 0.59517395 -1.5258789E-07 -8.241042E-08
v 0.32094058 -0.12727706 2.2276535E-07
v 0.59517395 -1.5258789E-07 -8.241042E-08
v 0.32094088 -1.5258789E-07 -0.127277
v 0.32094058 -0.12727706 2.2276535E-07
v 0.32094058 -1.5258789E-07 0.12727714
v 0.32094058 0.12727706 -8.241042E-08
v 0.59517395 -1.5258789E-07 -8.241042E-08
v -0.5951739 -1.5258789E-07 0.04867637
v -0.5951739 0.0486763 2.2276535E-07
v 0.27799717 0.0486763 2.2276535E-07
v 0.27799717 -1.5258789E-07 0.04867637
v -0.5951739 -1.5258789E-07 0.04867637
v 0.27799717 -1.5258789E-07 0.04867637
v 0.27799717 -0.0486763 2.2276535E-07
v -0.5951739 -0.0486763 2.2276535E-07
v 0.27799746 1.5258789E-07 -0.04867653
v -0.5951739 1.5258789E-07 -0.04867653
v -0.5951739 -0.0486763 2.2276535E-07
v 0.27799717 -0.0486763 2.2276535E-07
v 0.27799717 0.0486763 2.2276535E-07
v -0.5951739 0.0486763 2.2276535E-07
v -0.5951739 1.5258789E-07 -0.04867653
v 0.27799746 1.5258789E-07 -0.04867653
v -0.57329464 0.076511994 0.0668444
v -0.57329464 0.066005096 0.07500846
v -0.57329464 -0.07667831 -0.06767494
v -0.57329464 -0.066171415 -0.075839005
v -0.57329464 0.066005096 0.07500846
v -0.57329464 0.076511994 0.0668444
v -0.3254153 0.031006012 0.023245156
v -0.3254153 0.023245087 0.031005776
v -0.57329464 0.066005096 0.07500846
v -0.3254153 0.023245087 0.031005776
v -0.3254153 -0.031006012 -0.023245322
v -0.57329464 -0.07667831 -0.06767494
v -0.3254153 -0.023245087 -0.031005941
v -0.57329464 -0.066171415 -0.075839005
v -0.57329464 -0.07667831 -0.06767494
v -0.3254153 -0.031006012 -0.023245322
v -0.3254153 0.031006012 0.023245156
v -0.57329464 0.076511994 0.0668444
v -0.57329464 -0.066171415 -0.075839005
v -0.3254153 -0.023245087 -0.031005941
v -0.57329464 -0.06684433 0.076511756
v -0.57329464 -0.07500839 0.066004865
v -0.57329464 0.06767502 -0.076678544
v -0.57329464 0.07583908 -0.066171646
v -0.57329464 -0.07500839 0.066004865
v -0.57329464 -0.06684433 0.076511756
v -0.3254153 -0.023245087 0.031005776
v -0.3254153 -0.031006012 0.023245156
v -0.57329464 -0.07500839 0.066004865
v -0.3254153 -0.031006012 0.023245156
v -0.3254153 0.023245087 -0.031005941
v -0.57329464 0.06767502 -0.076678544
v -0.3254153 0.031006012 -0.023245322
v -0.57329464 0.07583908 -0.066171646
v -0.57329464 0.06767502 -0.076678544
v -0.3254153 0.023245087 -0.031005941
v -0.3254153 -0.023245087 0.031005776
v -0.57329464 -0.06684433 0.076511756
v -0.57329464 0.07583908 -0.066171646
v -0.3254153 0.031006012 -0.023245322
vt 0.38501504 0.64605534
vt 0.43464345 0.64605534
vt 0.38501504 0.5391251
vt 0.38501504 0.64605534
vt 0.38501504 0.6628
vt 0.40399513 0.6628
vt 0.43464345 0.64605534
vt 0.8040869 0.5616994
vt 0.8040869 0.57612807
vt 0.81851566 0.57612807
vt 0.81851566 0.5616994
vt 0.36603495 0.6628
vt 0.3353866 0.64605534
vt 0.38501504 0.64605534
vt 0.38501504 0.6628
vt 0.38501504 0.64605534
vt 0.43464345 0.64605534
vt 0.40399513 0.6628
vt 0.38501504 0.6628
vt 0.36603495 0.6628
vt 0.38501504 0.6628
vt 0.38501504 0.64605534
vt 0.3353866 0.64605534
vt 0.3353866 0.64605534
vt 0.38501504 0.5391251
vt 0.38501504 0.64605534
vt 0.38501504 0.5391251
vt 0.43464345 0.64605534
vt 0.38501504 0.64605534
vt 0.3353866 0.64605534
vt 0.38501504 0.64605534
vt 0.38501504 0.5391251
vt 0.7896582 0.5328419
vt 0.7896582 0.54727066
vt 0.80133235 0.54727066
vt 0.80133235 0.5328419
vt 0.8040869 0.57612807
vt 0.8040869 0.5878023
vt 0.81851566 0.5878023
vt 0.81851566 0.57612807
vt 0.8212702 0.54727066
vt 0.8329444 0.54727066
vt 0.8329444 0.5328419
vt 0.8212702 0.5328419
vt 0.8040869 0.55002517
vt 0.8040869 0.5616994
vt 0.81851566 0.5616994
vt 0.81851566 0.55002517
vt 0.80969596 0.8169103
vt 0.80969596 0.83133906
vt 0.8241247 0.83133906
vt 0.8241247 0.8169103
vt 0.7952672 0.7880528
vt 0.7952672 0.80248153
vt 0.8069414 0.80248153
vt 0.8069414 0.7880528
vt 0.80969596 0.83133906
vt 0.80969596 0.84301317
vt 0.8241247 0.84301317
vt 0.8241247 0.83133906
vt 0.82687926 0.80248153
vt 0.8385534 0.80248153
vt 0.8385534 0.7880528
vt 0.82687926 0.7880528
vt 0.80969596 0.8052361
vt 0.80969596 0.8169103
vt 0.8241247 0.8169103
vt 0.8241247 0.8052361
vt 0.80969596 0.8169103
vt 0.80969596 0.83133906
vt 0.8241247 0.83133906
vt 0.8241247 0.8169103
vt 0.7952672 0.7880528
vt 0.7952672 0.80248153
vt 0.8069414 0.80248153
vt 0.8069414 0.7880528
vt 0.80969596 0.83133906
vt 0.80969596 0.84301317
vt 0.8241247 0.84301317
vt 0.8241247 0.83133906
vt 0.82687926 0.80248153
vt 0.8385534 0.80248153
vt 0.8385534 0.7880528
vt 0.82687926 0.7880528
vt 0.80969596 0.8052361
vt 0.80969596 0.8169103
vt 0.8241247 0.8169103
vt 0.8241247 0.8052361
vn 0.3118193 0.67185086 -0.67185205
vn 0.3118193 0.6718508 -0.67185205
vn 0.31181931 0.6718509 -0.67185205
vn -0.791312 0.43233386 -0.43233424
vn -0.791312 0.43233383 -0.43233415
vn -0.791312 0.43233386 -0.43233418
vn -0.791312 0.43233386 -0.43233418
vn -1 0 0
vn -1 0 0
vn -1 0 0
vn -1 0 0
vn -0.7913121 -0.43233314 0.4323345
vn -0.7913121 -0.43233317 0.4323345
vn -0.7913121 -0.43233317 0.4323345
vn -0.7913121 -0.43233314 0.4323345
vn -0.79131496 -0.43233138 -0.43233114
vn -0.79131496 -0.43233138 -0.43233114
vn -0.79131496 -0.43233138 -0.43233114
vn -0.79131496 -0.43233138 -0.43233114
vn -0.7913116 0.4323329 0.4323357
vn -0.7913117 0.43233296 0.43233567
vn -0.7913116 0.4323329 0.4323357
vn -0.7913116 0.4323329 0.4323357
vn 0.31181952 -0.6718514 0.6718514
vn 0.31181952 -0.6718514 0.6718514
vn 0.31181958 -0.6718514 0.6718514
vn 0.31181917 -0.67185247 -0.67185044
vn 0.3118192 -0.67185247 -0.67185056
vn 0.3118192 -0.67185247 -0.67185056
vn 0.31182045 0.67185116 0.67185116
vn 0.31182045 0.67185116 0.67185116
vn 0.31182048 0.67185116 0.67185116
vn -0 0.70710397 0.7071095
vn -0 0.70710397 0.7071095
vn -0 0.70710397 0.7071095
vn -0 0.70710397 0.7071095
vn -0 -0.70710725 0.7071063
vn -0 -0.70710725 0.7071063
vn -0 -0.70710725 0.7071063
vn -0 -0.70710725 0.7071063
vn -0 -0.70710856 -0.707105
vn -0 -0.7071086 -0.7071049
vn -0 -0.7071086 -0.7071049
vn -0 -0.7071085 -0.707105
vn -0 0.70711017 -0.7071033
vn -0 0.70711017 -0.7071033
vn -0 0.70711017 -0.7071033
vn -0 0.70711017 -0.7071033
vn -1 -2.2910453E-06 0
vn -1 -2.2910451E-06 0
vn -1 -2.2910453E-06 0
vn -1 -2.2910451E-06 0
vn 0.24270572 0.6374633 0.7312555
vn 0.24270573 0.63746333 0.7312555
vn 0.2427057 0.6374632 0.7312555
vn 0.24270572 0.6374632 0.7312555
vn 0.0035441683 -0.7071023 0.7071023
vn 0.0035441685 -0.7071023 0.7071023
vn 0.0035441685 -0.7071023 0.7071023
vn 0.003544169 -0.7071023 0.7071023
vn 0.24542259 -0.6370184 -0.73073614
vn 0.24542257 -0.6370184 -0.7307362
vn 0.24542257 -0.6370184 -0.7307362
vn 0.24542257 -0.6370184 -0.73073614
vn 0.005438914 0.7070957 -0.707097
vn 0.005438914 0.7070957 -0.707097
vn 0.005438914 0.7070956 -0.707097
vn 0.005438914 0.7070957 -0.707097
vn -1 -5.7277634E-06 0
vn -1 -5.7277634E-06 0
vn -1 -5.7277634E-06 0
vn -1 -5.7277634E-06 0
vn 0.24270925 -0.73123854 0.6374813
vn 0.24270928 -0.73123854 0.6374813
vn 0.24270925 -0.7312385 0.63748133
vn 0.24270928 -0.73123854 0.6374813
vn 0.0035431026 -0.707102 -0.70710266
vn 0.0035431026 -0.707102 -0.70710266
vn 0.0035431024 -0.70710194 -0.7071027
vn 0.0035431026 -0.707102 -0.70710266
vn 0.24540944 0.73072845 -0.6370323
vn 0.24540944 0.7307283 -0.6370324
vn 0.24540944 0.7307284 -0.6370323
vn 0.24540943 0.7307283 -0.6370324
vn 0.0054389164 0.7070952 0.7070973
vn 0.005438917 0.70709527 0.7070974
vn 0.005438917 0.70709527 0.7070974
vn 0.0054389173 0.70709527 0.7070974
g trapArrowWall_arrows_0
f 3/3/3 2/2/2 1/1/1
f 6/6/6 5/5/5 4/4/4
f 7/7/7 6/6/6 4/4/4
f 10/10/10 9/9/9 8/8/8
f 11/11/11 10/10/10 8/8/8
f 14/14/14 13/13/13 12/12/12
f 15/15/15 14/14/14 12/12/12
f 18/18/18 17/17/17 16/16/16
f 19/19/19 18/18/18 16/16/16
f 22/22/22 21/21/21 20/20/20
f 23/23/23 22/22/22 20/20/20
f 26/26/26 25/25/25 24/24/24
f 29/29/29 28/28/28 27/27/27
f 32/32/32 31/31/31 30/30/30
f 35/35/35 34/34/34 33/33/33
f 36/36/36 35/35/35 33/33/33
f 39/39/39 38/38/38 37/37/37
f 40/40/40 39/39/39 37/37/37
f 43/43/43 42/42/42 41/41/41
f 44/44/44 43/43/43 41/41/41
f 47/47/47 46/46/46 45/45/45
f 48/48/48 47/47/47 45/45/45
f 51/51/51 50/50/50 49/49/49
f 52/52/52 51/51/51 49/49/49
f 55/55/55 54/54/54 53/53/53
f 56/56/56 55/55/55 53/53/53
f 59/59/59 58/58/58 57/57/57
f 60/60/60 59/59/59 57/57/57
f 63/63/63 62/62/62 61/61/61
f 64/64/64 63/63/63 61/61/61
f 67/67/67 66/66/66 65/65/65
f 68/68/68 67/67/67 65/65/65
f 71/71/71 70/70/70 69/69/69
f 72/72/72 71/71/71 69/69/69
f 75/75/75 74/74/74 73/73/73
f 76/76/76 75/75/75 73/73/73
f 79/79/79 78/78/78 77/77/77
f 80/80/80 79/79/79 77/77/77
f 83/83/83 82/82/82 81/81/81
f 84/84/84 83/83/83 81/81/81
f 87/87/87 86/86/86 85/85/85
f 88/88/88 87/87/87 85/85/85
