g treasureChest01_lock
v 0.017452091 0.01759252 0.016281784
v 0.017452091 0.023882866 0.05306427
v -0.043549746 0.002425447 0.01887399
v -0.043549746 0.0087157935 0.055656493
v -0.043549746 0.002425447 0.01887399
v -0.043549746 0.0087157935 0.055656493
v -0.07580319 -0.05081731 0.027978912
v -0.07580319 -0.04452695 0.0647614
v -0.07580319 -0.05081731 0.027978912
v -0.07580319 -0.04452695 0.0647614
v -0.06041959 -0.11094726 0.03825414
v -0.06041959 -0.104656905 0.075042486
v -0.06041959 -0.11094726 0.03825414
v -0.06041959 -0.104656905 0.075042486
v -0.0063986033 -0.14273843 0.043690175
v -0.0063986033 -0.13645393 0.08047852
v -0.0063986033 -0.14273843 0.043690175
v -0.0063986033 -0.13645393 0.08047852
v 0.05460322 -0.12757136 0.04109797
v 0.05460322 -0.121281 0.07788631
v 0.05460322 -0.12757136 0.04109797
v 0.05460322 -0.121281 0.07788631
v 0.086856656 -0.07432861 0.031998888
v 0.086856656 -0.068038255 0.068781376
v 0.086856656 -0.07432861 0.031998888
v 0.086856656 -0.068038255 0.068781376
v 0.07146723 -0.014198646 0.021717817
v 0.07146723 -0.0079083 0.05850032
v 0.07146723 -0.014198646 0.021717817
v 0.07146723 -0.0079083 0.05850032
v 0.017452091 0.01759252 0.016281784
v 0.017452091 0.023882866 0.05306427
v -0.0063986033 -0.13645393 0.08047852
v -0.06041959 -0.104656905 0.075042486
v -0.043549746 0.0087157935 0.055656493
v -0.07580319 -0.04452695 0.0647614
v -0.002015844 -0.10410101 0.074943006
v -0.024579197 -0.017692 0.06017384
v 0.013063461 -0.008470044 0.05859393
v 0.017452091 0.023882866 0.05306427
v 0.05460322 -0.121281 0.07788631
v 0.086856656 -0.068038255 0.068781376
v 0.07146723 -0.0079083 0.05850032
v 0.03563267 -0.094873205 0.07336897
v 0.03326282 -0.09748882 0.049693808
v -0.00061148405 -0.10578624 0.05111572
v 0.011664957 -0.014795512 0.0355566
v -0.022209346 -0.023092926 0.036978513
v 0.03563267 -0.094873205 0.07336897
v 0.03326282 -0.09748882 0.049693808
v 0.013063461 -0.008470044 0.05859393
v 0.011664957 -0.014795512 0.0355566
v -0.024579197 -0.017692 0.06017384
v 0.013063461 -0.008470044 0.05859393
v -0.022209346 -0.023092926 0.036978513
v 0.011664957 -0.014795512 0.0355566
v -0.024579197 -0.017692 0.06017384
v -0.022209346 -0.023092926 0.036978513
v -0.002015844 -0.10410101 0.074943006
v -0.00061148405 -0.10578624 0.05111572
v 0.03563267 -0.094873205 0.07336897
v -0.002015844 -0.10410101 0.074943006
v 0.03326282 -0.09748882 0.049693808
v -0.00061148405 -0.10578624 0.05111572
v -0.055205926 -0.17695796 0.05754067
v 0.11174306 -0.13750134 0.0507939
v -0.055205926 -0.19173884 -0.028921008
v 0.11174306 -0.15228221 -0.035667792
v -0.11174306 0.04068251 -0.06865266
v 0.055205926 0.08013913 -0.075399436
v -0.11174306 0.05546339 0.017803162
v 0.055205926 0.09492001 0.011056393
v 0.13791095 -0.09543495 0.043602407
v 0.09788088 0.069126636 0.015468419
v 0.13791095 -0.11021583 -0.042853415
v 0.09788088 0.054345757 -0.07099326
v -0.13791093 0.013402849 0.024994656
v -0.09788087 -0.15116458 0.053128645
v -0.13791093 -0.0013838857 -0.06146118
v -0.09788087 -0.16594546 -0.033327192
v -0.09788087 -0.15116458 0.053128645
v 0.13791095 -0.09543495 0.043602407
v -0.055205926 -0.17695796 0.05754067
v 0.11174306 -0.13750134 0.0507939
v -0.13791093 0.013402849 0.024994656
v 0.09788088 0.069126636 0.015468419
v -0.11174306 0.05546339 0.017803162
v 0.055205926 0.09492001 0.011056393
v -0.13791093 -0.0013838857 -0.06146118
v -0.09788087 -0.16594546 -0.033327192
v 0.09788088 0.054345757 -0.07099326
v 0.13791095 -0.11021583 -0.042853415
v -0.055205926 -0.19173884 -0.028921008
v 0.11174306 -0.15228221 -0.035667792
v -0.11174306 0.04068251 -0.06865266
v 0.055205926 0.08013913 -0.075399436
v -0.09788087 -0.16594546 -0.033327192
v -0.09788087 -0.15116458 0.053128645
v -0.055205926 -0.19173884 -0.028921008
v -0.055205926 -0.17695796 0.05754067
v 0.11174306 -0.15228221 -0.035667792
v 0.11174306 -0.13750134 0.0507939
v 0.13791095 -0.11021583 -0.042853415
v 0.13791095 -0.09543495 0.043602407
v -0.13791093 0.013402849 0.024994656
v -0.13791093 -0.0013838857 -0.06146118
v -0.11174306 0.05546339 0.017803162
v -0.11174306 0.04068251 -0.06865266
v 0.055205926 0.09492001 0.011056393
v 0.055205926 0.08013913 -0.075399436
v 0.09788088 0.069126636 0.015468419
v 0.09788088 0.054345757 -0.07099326
v -0.083023936 0.08398357 -0.07042566
v -0.08234516 0.119940996 -0.07656973
v -0.11928564 0.076464415 -0.061104238
v -0.118068516 0.14066699 -0.07208163
v -0.057511404 0.18145776 -0.079050764
v -0.048424035 0.14278525 -0.08047853
v -0.0076917857 0.13758326 -0.079589106
v 0.01522851 0.17217144 -0.07746501
v 0.045849383 0.115493864 -0.06777494
v 0.009458944 0.105838895 -0.074158914
v -0.118068516 0.14066699 -0.07208163
v -0.118068516 0.15094808 -0.011934131
v -0.11928564 0.076464415 -0.061104238
v -0.11928564 0.08674547 -0.00095671415
v 0.045849383 0.115493864 -0.06777494
v 0.045849383 0.12577495 -0.0076274276
v 0.01522851 0.17217144 -0.07746501
v 0.01522851 0.18245253 -0.017317504
v 0.01522851 0.17217144 -0.07746501
v 0.01522851 0.18245253 -0.017317504
v -0.057511404 0.18145776 -0.079050764
v -0.057511404 0.19173884 -0.018909112
v -0.057511404 0.18145776 -0.079050764
v -0.057511404 0.19173884 -0.018909112
v -0.118068516 0.14066699 -0.07208163
v -0.118068516 0.15094808 -0.011934131
v -0.118068516 0.15094808 -0.011934131
v -0.08234516 0.13289037 -0.00081042945
v -0.11928564 0.08674547 -0.00095671415
v -0.08302978 0.09693292 0.0053394884
v -0.057511404 0.19173884 -0.018909112
v -0.04842989 0.1557346 -0.0047133863
v -0.0076917857 0.1505326 -0.003823951
v 0.01522851 0.18245253 -0.017317504
v 0.045849383 0.12577495 -0.0076274276
v 0.009458944 0.11878827 0.0016003847
v -0.083023936 0.08398357 -0.07042566
v -0.11928564 0.076464415 -0.061104238
v -0.074843526 0.050343335 -0.06467365
v -0.11117548 0.043087482 -0.05539903
v 0.017639339 0.07219866 -0.068406895
v 0.05397126 0.08211693 -0.06206973
v 0.045849383 0.115493864 -0.06777494
v -0.11928564 0.08674547 -0.00095671415
v -0.11116961 0.05337441 0.0047484785
v -0.11928564 0.076464415 -0.061104238
v -0.11117548 0.043087482 -0.05539903
v 0.045849383 0.115493864 -0.06777494
v 0.05397126 0.08211693 -0.06206973
v 0.045849383 0.12577495 -0.0076274276
v 0.05397126 0.09239802 -0.00192222
v -0.08302978 0.09693292 0.0053394884
v -0.074843526 0.06329268 0.0110915005
v -0.11928564 0.08674547 -0.00095671415
v -0.11116961 0.05337441 0.0047484785
v 0.009458944 0.11878827 0.0016003847
v 0.045849383 0.12577495 -0.0076274276
v 0.017639339 0.08514801 0.007352397
v 0.05397126 0.09239802 -0.00192222
v -0.08234516 0.13289037 -0.00081042945
v -0.08234516 0.119940996 -0.07656973
v -0.08302978 0.09693292 0.0053394884
v -0.083023936 0.08398357 -0.07042566
v 0.009458944 0.11878827 0.0016003847
v 0.009458944 0.105838895 -0.074158914
v -0.0076917857 0.1505326 -0.003823951
v -0.0076917857 0.13758326 -0.079589106
v -0.0076917857 0.1505326 -0.003823951
v -0.0076917857 0.13758326 -0.079589106
v -0.04842989 0.1557346 -0.0047133863
v -0.048424035 0.14278525 -0.08047853
v -0.04842989 0.1557346 -0.0047133863
v -0.048424035 0.14278525 -0.08047853
v -0.08234516 0.13289037 -0.00081042945
v -0.08234516 0.119940996 -0.07656973
v -0.08302978 0.09693292 0.0053394884
v -0.083023936 0.08398357 -0.07042566
v -0.074843526 0.06329268 0.0110915005
v -0.074843526 0.050343335 -0.06467365
v 0.017639339 0.08514801 0.007352397
v 0.017639339 0.07219866 -0.068406895
v 0.009458944 0.11878827 0.0016003847
v 0.009458944 0.105838895 -0.074158914
v 0.009458944 0.105838895 -0.074158914
vt 0.9526797 0.5706542
vt 0.9526797 0.58456093
vt 0.95349777 0.5706542
vt 0.95349777 0.58456093
vt 0.95349777 0.5706542
vt 0.95349777 0.58456093
vt 0.9551338 0.5706542
vt 0.9551338 0.58456093
vt 0.9551338 0.5706542
vt 0.9551338 0.58456093
vt 0.95595187 0.5706542
vt 0.95595187 0.58456093
vt 0.95595187 0.5706542
vt 0.95595187 0.58456093
vt 0.95676994 0.5706542
vt 0.95676994 0.58456093
vt 0.95676994 0.5706542
vt 0.95676994 0.58456093
vt 0.958406 0.5706542
vt 0.958406 0.58456093
vt 0.958406 0.5706542
vt 0.958406 0.58456093
vt 0.95922405 0.5706542
vt 0.95922405 0.58456093
vt 0.95922405 0.5706542
vt 0.95922405 0.58456093
vt 0.96086013 0.5706542
vt 0.96086013 0.58456093
vt 0.96086013 0.5706542
vt 0.96086013 0.58456093
vt 0.96167815 0.5706542
vt 0.96167815 0.58456093
vt 0.9526797 0.586197
vt 0.9510436 0.5911052
vt 0.95676994 0.59683156
vt 0.9526797 0.5951955
vt 0.9526797 0.586197
vt 0.95676994 0.59683156
vt 0.96167815 0.5951955
vt 0.96167815 0.5951955
vt 0.95676994 0.58456093
vt 0.96167815 0.586197
vt 0.96331424 0.5911052
vt 0.95676994 0.58456093
vt 0.95676994 0.58456093
vt 0.9526797 0.586197
vt 0.96167815 0.5951955
vt 0.95676994 0.59683156
vt 0.95676994 0.58456093
vt 0.95676994 0.58456093
vt 0.96167815 0.5951955
vt 0.96167815 0.5951955
vt 0.95676994 0.59683156
vt 0.96167815 0.5951955
vt 0.95676994 0.59683156
vt 0.96167815 0.5951955
vt 0.95676994 0.59683156
vt 0.95676994 0.59683156
vt 0.9526797 0.586197
vt 0.9526797 0.586197
vt 0.95676994 0.58456093
vt 0.9526797 0.586197
vt 0.95676994 0.58456093
vt 0.9526797 0.586197
vt 0.95349777 0.5682001
vt 0.96086013 0.5682001
vt 0.95349777 0.5583836
vt 0.96086013 0.5583836
vt 0.95349777 0.58701503
vt 0.96086013 0.58701503
vt 0.95349777 0.5780166
vt 0.96086013 0.5780166
vt 0.96331424 0.5682001
vt 0.9698586 0.5682001
vt 0.96331424 0.5583836
vt 0.9698586 0.5583836
vt 0.94449925 0.5682001
vt 0.9510436 0.5682001
vt 0.94449925 0.5583836
vt 0.9510436 0.5583836
vt 0.9526797 0.5690181
vt 0.96167815 0.5690181
vt 0.95349777 0.5682001
vt 0.96086013 0.5682001
vt 0.9526797 0.5763805
vt 0.96167815 0.5763805
vt 0.95349777 0.5780166
vt 0.96086013 0.5780166
vt 0.9526797 0.5886511
vt 0.9526797 0.5951955
vt 0.96167815 0.5886511
vt 0.96167815 0.5951955
vt 0.95349777 0.59683156
vt 0.96086013 0.59683156
vt 0.95349777 0.58701503
vt 0.96086013 0.58701503
vt 0.9526797 0.5583836
vt 0.9526797 0.5682001
vt 0.95349777 0.5583836
vt 0.95349777 0.5682001
vt 0.96086013 0.5583836
vt 0.96086013 0.5682001
vt 0.96167815 0.5583836
vt 0.96167815 0.5682001
vt 0.9526797 0.5780166
vt 0.9526797 0.58701503
vt 0.95349777 0.5780166
vt 0.95349777 0.58701503
vt 0.96086013 0.5780166
vt 0.96086013 0.58701503
vt 0.96167815 0.5780166
vt 0.96167815 0.58701503
vt 0.95676994 0.56165576
vt 0.95922405 0.5624738
vt 0.95676994 0.5583836
vt 0.96167815 0.5600197
vt 0.96331424 0.56410986
vt 0.9600421 0.56410986
vt 0.95922405 0.566564
vt 0.96167815 0.5690181
vt 0.95676994 0.5706542
vt 0.95676994 0.56738204
vt 0.9526797 0.5706542
vt 0.9526797 0.58456093
vt 0.95349777 0.5706542
vt 0.95349777 0.58456093
vt 0.958406 0.5706542
vt 0.958406 0.58456093
vt 0.95922405 0.5706542
vt 0.95922405 0.58456093
vt 0.95922405 0.5706542
vt 0.95922405 0.58456093
vt 0.96086013 0.5706542
vt 0.96086013 0.58456093
vt 0.96086013 0.5706542
vt 0.96086013 0.58456093
vt 0.96167815 0.5706542
vt 0.96167815 0.58456093
vt 0.96167815 0.5951955
vt 0.95922405 0.5927413
vt 0.95676994 0.59683156
vt 0.95676994 0.5935594
vt 0.96331424 0.5911052
vt 0.9600421 0.5911052
vt 0.95922405 0.5886511
vt 0.96167815 0.586197
vt 0.95676994 0.58456093
vt 0.95676994 0.5878331
vt 0.9764029 0.5583836
vt 0.93795496 0.5583836
vt 0.9764029 0.59683156
vt 0.93795496 0.59683156
vt 0.93795496 0.59683156
vt 0.9764029 0.59683156
vt 0.9764029 0.5583836
vt 0.93795496 0.5583836
vt 0.93795496 0.59683156
vt 0.9764029 0.5583836
vt 0.9764029 0.59683156
vt 0.93795496 0.5583836
vt 0.93795496 0.59683156
vt 0.9764029 0.5583836
vt 0.9764029 0.59683156
vt 0.93795496 0.5583836
vt 0.93795496 0.59683156
vt 0.9764029 0.5583836
vt 0.9764029 0.59683156
vt 0.9764029 0.5583836
vt 0.93795496 0.5583836
vt 0.9764029 0.59683156
vt 0.93795496 0.59683156
vt 0.93795496 0.5583836
vt 0.93795496 0.59683156
vt 0.9764029 0.5583836
vt 0.9764029 0.59683156
vt 0.93795496 0.5583836
vt 0.93795496 0.59683156
vt 0.9764029 0.5583836
vt 0.9764029 0.59683156
vt 0.93795496 0.5583836
vt 0.93795496 0.59683156
vt 0.9764029 0.5583836
vt 0.9764029 0.59683156
vt 0.93795496 0.5583836
vt 0.93795496 0.59683156
vt 0.9764029 0.5583836
vt 0.9764029 0.59683156
vt 0.93795496 0.5583836
vt 0.93795496 0.59683156
vt 0.9764029 0.5583836
vt 0.9764029 0.59683156
vt 0.93795496 0.5583836
vt 0.93795496 0.59683156
vt 0.9764029 0.5583836
vt 0.9764029 0.59683156
vt 0.93795496 0.5583836
vn -0.24701136 0.95275813 -0.17674094
vn -0.24701136 0.95275813 -0.17674094
vn -0.24701136 0.95275813 -0.17674094
vn -0.24701136 0.95275813 -0.17674094
vn -0.8586585 0.50578517 -0.082987525
vn -0.8586585 0.50578517 -0.082987525
vn -0.8586585 0.50578517 -0.082987525
vn -0.8586585 0.50578517 -0.082987525
vn -0.9684414 -0.23916972 0.07013601
vn -0.9684414 -0.23916972 0.07013601
vn -0.9684414 -0.23916972 0.07013601
vn -0.9684414 -0.23916972 0.07013601
vn -0.51362675 -0.84297526 0.15993838
vn -0.51362675 -0.84297526 0.15993838
vn -0.51362675 -0.84297526 0.15993838
vn -0.51362675 -0.84297526 0.15993838
vn 0.24701136 -0.95275813 0.17674094
vn 0.24701136 -0.95275813 0.17674094
vn 0.24701136 -0.95275813 0.17674094
vn 0.24701136 -0.95275813 0.17674094
vn 0.85865855 -0.50578517 0.08298717
vn 0.85865855 -0.50578517 0.08298717
vn 0.85865855 -0.50578517 0.08298717
vn 0.85865855 -0.50578517 0.08298717
vn 0.96844137 0.23916978 -0.070136644
vn 0.96844137 0.23916978 -0.070136644
vn 0.96844137 0.23916978 -0.070136644
vn 0.96844137 0.23916978 -0.070136644
vn 0.5136268 0.8429753 -0.15993764
vn 0.5136268 0.8429753 -0.15993764
vn 0.5136268 0.8429753 -0.15993764
vn 0.5136268 0.8429753 -0.15993764
vn 0.0039207935 0.16859502 0.9856776
vn 0.0039207935 0.16859502 0.9856776
vn 0.0039207935 0.16859502 0.9856776
vn 0.0039207935 0.16859502 0.9856776
vn 0.0039207935 0.16859502 0.9856776
vn 0.0039207935 0.16859502 0.9856776
vn 0.0039207935 0.16859502 0.9856776
vn 0.0039207935 0.16859502 0.9856776
vn 0.0039207935 0.16859502 0.9856776
vn 0.0039207935 0.16859502 0.9856776
vn 0.0039207935 0.16859502 0.9856776
vn 0.0039207935 0.16859502 0.9856776
vn -0.003920853 0.16859502 0.9856776
vn -0.003920853 0.16859502 0.9856776
vn -0.003920853 0.16859502 0.9856776
vn -0.003920853 0.16859502 0.9856776
vn -0.9684414 -0.23132807 0.09278219
vn -0.9684414 -0.23132807 0.09278219
vn -0.9684414 -0.23132807 0.09278219
vn -0.9684414 -0.23132807 0.09278219
vn 0.23916972 -0.93707484 0.25433946
vn 0.23916972 -0.93707484 0.25433946
vn 0.23916972 -0.93707484 0.25433946
vn 0.23916972 -0.93707484 0.25433946
vn 0.9670745 0.25449327 -0
vn 0.9670745 0.25449327 -0
vn 0.9670745 0.25449327 -0
vn 0.9670745 0.25449327 -0
vn -0.23916978 0.9684414 -0.07013595
vn -0.23916978 0.9684414 -0.07013595
vn -0.23916978 0.9684414 -0.07013595
vn -0.23916978 0.9684414 -0.07013595
vn 0.23132807 -0.9605997 0.15406318
vn 0.23132807 -0.9605997 0.15406318
vn 0.23132807 -0.9605997 0.15406318
vn 0.23132807 -0.9605997 0.15406318
vn -0.23132807 0.9605997 -0.15406318
vn -0.23132807 0.9605997 -0.15406318
vn -0.23132807 0.9605997 -0.15406318
vn -0.23132807 0.9605997 -0.15406318
vn 0.97305727 0.23056373 -0
vn 0.97305727 0.23056373 -0
vn 0.97305727 0.23056373 -0
vn 0.97305727 0.23056373 -0
vn -0.97305727 -0.23056373 -0
vn -0.97305727 -0.23056373 -0
vn -0.97305727 -0.23056373 -0
vn -0.97305727 -0.23056373 -0
vn 0.0039207935 0.16859502 0.9856776
vn 0.0039207935 0.16859502 0.9856776
vn 0.0039207935 0.16859502 0.9856776
vn 0.0039207935 0.16859502 0.9856776
vn 0.0039207935 0.16859502 0.9856776
vn 0.0039207935 0.16859502 0.9856776
vn -0.003920853 0.16859502 0.9856776
vn -0.003920853 0.16859502 0.9856776
vn 0.0039207935 -0.16859508 -0.9856776
vn 0.0039207935 -0.16859508 -0.9856776
vn 0.0039207935 -0.16859508 -0.9856776
vn 0.0039207935 -0.16859508 -0.9856776
vn -0.003920853 -0.16859508 -0.9856776
vn -0.003920853 -0.16859508 -0.9856776
vn -0.003920853 -0.16859508 -0.9856776
vn -0.003920853 -0.16859508 -0.9856776
vn -0.52146846 -0.84297526 0.13214888
vn -0.52146846 -0.84297526 0.13214888
vn -0.52146846 -0.84297526 0.13214888
vn -0.52146846 -0.84297526 0.13214888
vn 0.8508169 -0.5136268 0.1108967
vn 0.8508169 -0.5136268 0.1108967
vn 0.8508169 -0.5136268 0.1108967
vn 0.8508169 -0.5136268 0.1108967
vn -0.8508169 0.51362675 -0.11089697
vn -0.8508169 0.51362675 -0.11089697
vn -0.8508169 0.51362675 -0.11089697
vn -0.8508169 0.51362675 -0.11089697
vn 0.5214684 0.8429753 -0.13214888
vn 0.5214684 0.8429753 -0.13214888
vn 0.5214684 0.8429753 -0.13214888
vn 0.5214684 0.8429753 -0.13214888
vn -0.2156449 -0.16075343 -0.96314883
vn -0.16859502 -0.074495494 -0.9828663
vn -0.2156449 -0.16075343 -0.96314883
vn -0.16075343 -0.06665385 -0.9847414
vn -0.043129027 0.027445734 -0.99869245
vn -0.043129027 0.027445734 -0.99869245
vn 0.10586202 -0.01176244 -0.9943113
vn 0.10586202 -0.0039207935 -0.9943731
vn 0.19211996 -0.06665385 -0.9791053
vn 0.19211996 -0.06665385 -0.9791053
vn -0.9998079 0.019604027 -0
vn -0.9998079 0.019604027 -0
vn -0.9998079 0.019604027 -0
vn -0.9998079 0.019604027 -0
vn 0.88218343 0.466577 -0.063704915
vn 0.88218343 0.466577 -0.063704915
vn 0.88218343 0.466577 -0.063704915
vn 0.88218343 0.466577 -0.063704915
vn 0.1293869 0.976283 -0.1735814
vn 0.1293869 0.976283 -0.1735814
vn 0.1293869 0.976283 -0.1735814
vn 0.1293869 0.976283 -0.1735814
vn -0.56067663 0.81160873 -0.16411263
vn -0.56067663 0.81160873 -0.16411263
vn -0.56067663 0.81160873 -0.16411263
vn -0.56067663 0.81160873 -0.16411263
vn -0.16075343 0.26269466 0.95139366
vn -0.16859502 0.26269466 0.9500354
vn -0.2156449 0.16859502 0.9618072
vn -0.2156449 0.16859502 0.9618072
vn -0.043129027 0.35679418 0.9331869
vn -0.043129027 0.35679418 0.9331869
vn 0.10586202 0.3254277 0.9396223
vn 0.10586202 0.3254277 0.9396223
vn 0.19211996 0.26269466 0.9455588
vn 0.19211996 0.26269466 0.9455588
vn -0.1999616 -0.21564484 -0.95577854
vn -0.1999616 -0.21564484 -0.95577854
vn -0.1999616 -0.21564484 -0.95577854
vn -0.1999616 -0.21564484 -0.95577854
vn 0.1999616 -0.11370367 -0.9731839
vn 0.1999616 -0.11370367 -0.9731839
vn 0.1999616 -0.11370367 -0.9731839
vn -0.97305727 -0.23056373 -0
vn -0.97305727 -0.23056373 -0
vn -0.97305727 -0.23056373 -0
vn -0.97305727 -0.23056373 -0
vn 0.97305727 0.23056373 -0
vn 0.97305727 0.23056373 -0
vn 0.97305727 0.23056373 -0
vn 0.97305727 0.23056373 -0
vn -0.1999616 0.11370367 0.9731839
vn -0.1999616 0.11370367 0.9731839
vn -0.1999616 0.11370367 0.9731839
vn -0.1999616 0.11370367 0.9731839
vn 0.1999616 0.2156449 0.95577854
vn 0.1999616 0.2156449 0.95577854
vn 0.1999616 0.2156449 0.95577854
vn 0.1999616 0.2156449 0.95577854
vn 0.9998079 -0.019604087 -0
vn 0.9998079 -0.019604087 -0
vn 0.9998079 -0.019604087 -0
vn 0.9998079 -0.019604087 -0
vn -0.8821835 -0.466577 0.063703984
vn -0.8821835 -0.466577 0.063703984
vn -0.8821835 -0.466577 0.063703984
vn -0.8821835 -0.466577 0.063703984
vn -0.12938696 -0.976283 0.1735814
vn -0.12938696 -0.976283 0.1735814
vn -0.12938696 -0.976283 0.1735814
vn -0.12938696 -0.976283 0.1735814
vn 0.5606766 -0.8116088 0.16411263
vn 0.5606766 -0.8116088 0.16411263
vn 0.5606766 -0.8116088 0.16411263
vn 0.5606766 -0.8116088 0.16411263
vn 0.97305727 0.23056373 -0
vn 0.97305727 0.23056373 -0
vn 0.97305727 0.23056373 -0
vn 0.97305727 0.23056373 -0
vn -0.97305727 -0.23056373 -0
vn -0.97305727 -0.23056373 -0
vn -0.97305727 -0.23056373 -0
vn -0.97305727 -0.23056373 -0
vn 0.1999616 -0.11370367 -0.9731839
g treasureChest01_lock_0
f 3/3/3 2/2/2 1/1/1
f 3/3/3 4/4/4 2/2/2
f 7/7/7 6/6/6 5/5/5
f 7/7/7 8/8/8 6/6/6
f 11/11/11 10/10/10 9/9/9
f 11/11/11 12/12/12 10/10/10
f 15/15/15 14/14/14 13/13/13
f 15/15/15 16/16/16 14/14/14
f 19/19/19 18/18/18 17/17/17
f 19/19/19 20/20/20 18/18/18
f 23/23/23 22/22/22 21/21/21
f 23/23/23 24/24/24 22/22/22
f 27/27/27 26/26/26 25/25/25
f 27/27/27 28/28/28 26/26/26
f 31/31/31 30/30/30 29/29/29
f 31/31/31 32/32/32 30/30/30
f 35/35/35 34/34/34 33/33/33
f 35/35/35 36/36/36 34/34/34
f 37/37/37 35/35/35 33/33/33
f 37/37/37 38/38/38 35/35/35
f 35/35/35 38/38/38 39/39/39
f 35/35/35 39/39/39 40/40/40
f 39/39/39 41/41/41 40/40/40
f 41/41/41 37/37/37 33/33/33
f 40/40/40 41/41/41 42/42/42
f 40/40/40 42/42/42 43/43/43
f 39/39/39 44/44/44 41/41/41
f 41/41/41 44/44/44 37/37/37
f 47/47/47 46/46/46 45/45/45
f 47/47/47 48/48/48 46/46/46
f 51/51/51 50/50/50 49/49/49
f 51/51/51 52/52/52 50/50/50
f 55/55/55 54/54/54 53/53/53
f 55/55/55 56/56/56 54/54/54
f 59/59/59 58/58/58 57/57/57
f 59/59/59 60/60/60 58/58/58
f 63/63/63 62/62/62 61/61/61
f 63/63/63 64/64/64 62/62/62
f 67/67/67 66/66/66 65/65/65
f 67/67/67 68/68/68 66/66/66
f 71/71/71 70/70/70 69/69/69
f 71/71/71 72/72/72 70/70/70
f 75/75/75 74/74/74 73/73/73
f 75/75/75 76/76/76 74/74/74
f 79/79/79 78/78/78 77/77/77
f 79/79/79 80/80/80 78/78/78
f 83/83/83 82/82/82 81/81/81
f 83/83/83 84/84/84 82/82/82
f 82/82/82 85/85/85 81/81/81
f 82/82/82 86/86/86 85/85/85
f 86/86/86 87/87/87 85/85/85
f 86/86/86 88/88/88 87/87/87
f 91/91/91 90/90/90 89/89/89
f 91/91/91 92/92/92 90/90/90
f 92/92/92 93/93/93 90/90/90
f 92/92/92 94/94/94 93/93/93
f 95/95/95 91/91/91 89/89/89
f 95/95/95 96/96/96 91/91/91
f 99/99/99 98/98/98 97/97/97
f 99/99/99 100/100/100 98/98/98
f 103/103/103 102/102/102 101/101/101
f 103/103/103 104/104/104 102/102/102
f 107/107/107 106/106/106 105/105/105
f 107/107/107 108/108/108 106/106/106
f 111/111/111 110/110/110 109/109/109
f 111/111/111 112/112/112 110/110/110
f 115/115/115 114/114/114 113/113/113
f 115/115/115 116/116/116 114/114/114
f 114/114/114 116/116/116 117/117/117
f 114/114/114 117/117/117 118/118/118
f 117/117/117 119/119/119 118/118/118
f 117/117/117 120/120/120 119/119/119
f 119/119/119 120/120/120 121/121/121
f 119/119/119 121/121/121 122/122/122
f 125/125/125 124/124/124 123/123/123
f 125/125/125 126/126/126 124/124/124
f 129/129/129 128/128/128 127/127/127
f 129/129/129 130/130/130 128/128/128
f 133/133/133 132/132/132 131/131/131
f 133/133/133 134/134/134 132/132/132
f 137/137/137 136/136/136 135/135/135
f 137/137/137 138/138/138 136/136/136
f 141/141/141 140/140/140 139/139/139
f 141/141/141 142/142/142 140/140/140
f 140/140/140 143/143/143 139/139/139
f 140/140/140 144/144/144 143/143/143
f 143/143/143 144/144/144 145/145/145
f 143/143/143 145/145/145 146/146/146
f 145/145/145 147/147/147 146/146/146
f 145/145/145 148/148/148 147/147/147
f 151/151/151 150/150/150 149/149/149
f 151/151/151 152/152/152 150/150/150
f 155/155/155 154/154/154 153/153/153
f 158/158/158 157/157/157 156/156/156
f 158/158/158 159/159/159 157/157/157
f 162/162/162 161/161/161 160/160/160
f 162/162/162 163/163/163 161/161/161
f 166/166/166 165/165/165 164/164/164
f 166/166/166 167/167/167 165/165/165
f 170/170/170 169/169/169 168/168/168
f 170/170/170 171/171/171 169/169/169
f 174/174/174 173/173/173 172/172/172
f 174/174/174 175/175/175 173/173/173
f 178/178/178 177/177/177 176/176/176
f 178/178/178 179/179/179 177/177/177
f 182/182/182 181/181/181 180/180/180
f 182/182/182 183/183/183 181/181/181
f 186/186/186 185/185/185 184/184/184
f 186/186/186 187/187/187 185/185/185
f 190/190/190 189/189/189 188/188/188
f 190/190/190 191/191/191 189/189/189
f 194/194/194 193/193/193 192/192/192
f 194/194/194 195/195/195 193/193/193
g treasureChest01_lock_1
f 155/155/155 153/153/153 196/196/196
