g WEP_shortsword01_b02
v -0.04137703 -0.14089744 0.049700547
v -0.039088514 0.15048575 0.049700547
v 0.043974534 0.15594238 0.049700547
v 0.046811447 -0.14931747 0.049700547
v -0.039088514 0.15048575 -0.049700547
v -0.04137703 -0.14089744 -0.049700547
v 0.046811447 -0.14931747 -0.049700547
v 0.043974534 0.15594238 -0.049700547
v 0.046811447 -0.14931747 0.049700547
v 0.043974534 0.15594238 0.049700547
v 0.043974534 0.15594238 -0.049700547
v 0.046811447 -0.14931747 -0.049700547
v -0.04137703 -0.14089744 -0.049700547
v -0.039088514 0.15048575 -0.049700547
v -0.039088514 0.15048575 0.049700547
v -0.04137703 -0.14089744 0.049700547
v 0.08757881 -0.21290877 -0.06366081
v 0.08334373 -0.13963607 -0.06366081
v -0.07037071 -0.13264664 -0.06366081
v -0.0756208 -0.19166763 -0.06366081
v 0.08334373 -0.13963607 -0.06366081
v 0.08334373 -0.13963607 0.06366081
v -0.07037071 -0.13264664 0.06366081
v -0.07037071 -0.13264664 -0.06366081
v 0.08334373 -0.13963607 0.06366081
v 0.08757881 -0.21290877 0.06366081
v -0.0756208 -0.19166763 0.06366081
v -0.07037071 -0.13264664 0.06366081
v 0.08757881 -0.21290877 0.06366081
v 0.08757881 -0.21290877 -0.06366081
v -0.0756208 -0.19166763 -0.06366081
v -0.0756208 -0.19166763 0.06366081
v -0.0756208 -0.19166763 -0.06366081
v -0.07037071 -0.13264664 -0.06366081
v -0.07037071 -0.13264664 0.06366081
v -0.0756208 -0.19166763 0.06366081
v 0.08757881 -0.21290877 0.06366081
v 0.08334373 -0.13963607 0.06366081
v 0.08334373 -0.13963607 -0.06366081
v 0.08757881 -0.21290877 -0.06366081
v -0.14879936 0.13264656 0.06366081
v -0.14107643 0.20591934 0.06366081
v 0.13922599 0.21290877 0.06366081
v 0.14879936 0.1538877 0.06366081
v -0.14107643 0.20591934 0.06366081
v -0.14107643 0.20591934 -0.06366081
v 0.13922599 0.21290877 -0.06366081
v 0.13922599 0.21290877 0.06366081
v -0.14107643 0.20591934 -0.06366081
v -0.14879936 0.13264656 -0.06366081
v 0.14879936 0.1538877 -0.06366081
v 0.13922599 0.21290877 -0.06366081
v -0.14879936 0.13264656 -0.06366081
v -0.14879936 0.13264656 0.06366081
v 0.14879936 0.1538877 0.06366081
v 0.14879936 0.1538877 -0.06366081
v 0.14879936 0.1538877 0.06366081
v 0.13922599 0.21290877 0.06366081
v 0.13922599 0.21290877 -0.06366081
v 0.14879936 0.1538877 -0.06366081
v -0.14879936 0.13264656 -0.06366081
v -0.14107643 0.20591934 -0.06366081
v -0.14107643 0.20591934 0.06366081
v -0.14879936 0.13264656 0.06366081
v 0.0054187775 0.19968338 -0.016687088
v 0.0054187775 0.19968338 0.016687088
v 0.04979652 0.19968338 0.016687088
v 0.04979652 0.19968338 -0.016687088
v -0.038958967 0.19968338 -0.016687088
v -0.038958967 0.19968338 0.016687088
vt 0.08535004 0.78009987
vt 0.08695495 0.9352258
vt 0.145208 0.9390526
vt 0.1471976 0.7741948
vt 0.08695495 0.9352258
vt 0.08535004 0.78009987
vt 0.1471976 0.7741948
vt 0.145208 0.9390526
vt 0.1471976 0.7741948
vt 0.145208 0.9390526
vt 0.145208 0.9390526
vt 0.1471976 0.7741948
vt 0.08535004 0.78009987
vt 0.08695495 0.9352258
vt 0.08695495 0.9352258
vt 0.08535004 0.78009987
vt 0.41977313 0.32485417
vt 0.41781357 0.358757
vt 0.34669074 0.36199096
vt 0.34426162 0.33468232
vt 0.41781357 0.358757
vt 0.41781357 0.358757
vt 0.34669074 0.36199096
vt 0.34669074 0.36199096
vt 0.41781357 0.358757
vt 0.41977313 0.32485417
vt 0.34426162 0.33468232
vt 0.34669074 0.36199096
vt 0.41977313 0.32485417
vt 0.41977313 0.32485417
vt 0.34426162 0.33468232
vt 0.34426162 0.33468232
vt 0.34426162 0.33468232
vt 0.34669074 0.36199096
vt 0.34669074 0.36199096
vt 0.34426162 0.33468232
vt 0.41977313 0.32485417
vt 0.41781357 0.358757
vt 0.41781357 0.358757
vt 0.41977313 0.32485417
vt 0.32263884 0.32531124
vt 0.32621214 0.35921407
vt 0.4559063 0.36244804
vt 0.46033588 0.3351393
vt 0.32621214 0.35921407
vt 0.32621214 0.35921407
vt 0.4559063 0.36244804
vt 0.4559063 0.36244804
vt 0.32621214 0.35921407
vt 0.32263884 0.32531124
vt 0.46033588 0.3351393
vt 0.4559063 0.36244804
vt 0.32263884 0.32531124
vt 0.32263884 0.32531124
vt 0.46033588 0.3351393
vt 0.46033588 0.3351393
vt 0.46033588 0.3351393
vt 0.4559063 0.36244804
vt 0.4559063 0.36244804
vt 0.46033588 0.3351393
vt 0.32263884 0.32531124
vt 0.32621214 0.35921407
vt 0.32621214 0.35921407
vt 0.32263884 0.32531124
vt 0.339613 0.7903727
vt 0.339613 0.7903727
vt 0.34558603 0.7903727
vt 0.34558603 0.7903727
vt 0.33363995 0.7903727
vt 0.33363995 0.7903727
vn -0 0 1
vn -0 0 1
vn -0 0 1
vn -0 0 1
vn -0 0 -1
vn -0 0 -1
vn -0 0 -1
vn -0 0 -1
vn 0.99995685 0.009293114 0
vn 0.99995685 0.009293114 0
vn 0.99995685 0.009293114 0
vn 0.99995685 0.009293114 0
vn -0.99996924 0.007854051 0
vn -0.99996924 0.007854051 0
vn -0.99996924 0.007854051 0
vn -0.99996924 0.007854051 0
vn -0 0 -1
vn -0 0 -1
vn -0 0 -1
vn -0 0 -1
vn 0.045423374 0.99896777 0
vn 0.045423374 0.99896777 0
vn 0.045423374 0.99896777 0
vn 0.045423374 0.99896777 0
vn -0 0 1
vn -0 0 1
vn -0 0 1
vn -0 0 1
vn -0.12906586 -0.99163604 0
vn -0.12906586 -0.99163604 0
vn -0.12906586 -0.99163604 0
vn -0.12906586 -0.99163604 0
vn -0.9960672 0.08860079 0
vn -0.9960672 0.08860079 0
vn -0.9960672 0.08860079 0
vn -0.9960672 0.08860079 0
vn 0.99833375 0.057704292 0
vn 0.99833375 0.057704292 0
vn 0.99833375 0.057704292 0
vn 0.99833375 0.057704292 0
vn -0 0 1
vn -0 0 1
vn -0 0 1
vn -0 0 1
vn -0.0249276 0.9996892 0
vn -0.0249276 0.9996892 0
vn -0.0249276 0.9996892 0
vn -0.0249276 0.9996892 0
vn -0 0 -1
vn -0 0 -1
vn -0 0 -1
vn -0 0 -1
vn 0.07119398 -0.9974625 0
vn 0.07119398 -0.9974625 0
vn 0.07119398 -0.9974625 0
vn 0.07119398 -0.9974625 0
vn 0.98709923 0.16010994 0
vn 0.98709923 0.16010994 0
vn 0.98709923 0.16010994 0
vn 0.98709923 0.16010994 0
vn -0.9944912 0.10481959 0
vn -0.9944912 0.10481959 0
vn -0.9944912 0.10481959 0
vn -0.9944912 0.10481959 0
vn -0 -1 0
vn -0 -1 0
vn -0 -1 0
vn -0 -1 0
vn -0 -1 0
vn -0 -1 0
g WEP_shortsword01_b02_0
f 3/3/3 2/2/2 1/1/1
f 4/4/4 3/3/3 1/1/1
f 7/7/7 6/6/6 5/5/5
f 8/8/8 7/7/7 5/5/5
f 11/11/11 10/10/10 9/9/9
f 12/12/12 11/11/11 9/9/9
f 15/15/15 14/14/14 13/13/13
f 16/16/16 15/15/15 13/13/13
f 19/19/19 18/18/18 17/17/17
f 20/20/20 19/19/19 17/17/17
f 23/23/23 22/22/22 21/21/21
f 24/24/24 23/23/23 21/21/21
f 27/27/27 26/26/26 25/25/25
f 28/28/28 27/27/27 25/25/25
f 31/31/31 30/30/30 29/29/29
f 32/32/32 31/31/31 29/29/29
f 35/35/35 34/34/34 33/33/33
f 36/36/36 35/35/35 33/33/33
f 39/39/39 38/38/38 37/37/37
f 40/40/40 39/39/39 37/37/37
f 43/43/43 42/42/42 41/41/41
f 44/44/44 43/43/43 41/41/41
f 47/47/47 46/46/46 45/45/45
f 48/48/48 47/47/47 45/45/45
f 51/51/51 50/50/50 49/49/49
f 52/52/52 51/51/51 49/49/49
f 55/55/55 54/54/54 53/53/53
f 56/56/56 55/55/55 53/53/53
f 59/59/59 58/58/58 57/57/57
f 60/60/60 59/59/59 57/57/57
f 63/63/63 62/62/62 61/61/61
f 64/64/64 63/63/63 61/61/61
f 67/67/67 66/66/66 65/65/65
f 68/68/68 67/67/67 65/65/65
f 65/65/65 66/66/66 69/69/69
f 66/66/66 70/70/70 69/69/69
