g WEP_Bow01_b02
v -0.05860901 -0.4557831 -0.063497424
v -0.07662475 -0.39297923 -0.0214851
v 0.07662475 -0.39297923 -0.0214851
v 0.05860901 -0.4557831 -0.063497424
v 0.05860901 -0.4557831 -0.063497424
v 0.07662475 -0.39297923 -0.0214851
v 0.07662475 -0.30342722 -0.15981609
v 0.05860901 -0.38728625 -0.16930431
v 0.05860901 -0.38728625 -0.16930431
v 0.07662475 -0.30342722 -0.15981609
v -0.07662475 -0.30342722 -0.15981609
v -0.05860901 -0.38728625 -0.16930431
v -0.05860901 -0.38728625 -0.16930431
v -0.07662475 -0.30342722 -0.15981609
v -0.07662475 -0.39297923 -0.0214851
v -0.05860901 -0.4557831 -0.063497424
v -0.05860901 -0.38728625 -0.16930431
v -0.05860901 -0.4557831 -0.063497424
v 0.05860901 -0.4557831 -0.063497424
v 0.05860901 -0.38728625 -0.16930431
v -0.06109741 0.084514044 0.1684215
v -0.025498657 0.31788668 0.08735142
v 0.025498046 0.31788668 0.08735142
v 0.0610968 0.084514044 0.1684215
v 0.0610968 0.084514044 0.093792
v 0.0610968 0.084514044 0.1684215
v 0.025498046 0.31788668 0.08735142
v 0.025498046 0.31788668 0.0129260635
v -0.06109741 0.084514044 0.093792
v 0.0610968 0.084514044 0.093792
v 0.025498046 0.31788668 0.0129260635
v -0.025498657 0.31788668 0.0129260635
v -0.06109741 0.084514044 0.1684215
v -0.06109741 0.084514044 0.093792
v -0.025498657 0.31788668 0.0129260635
v -0.025498657 0.31788668 0.08735142
v -0.027114868 -0.30136997 -0.023968467
v -0.06767273 -0.120091625 0.16930431
v 0.06767212 -0.120091625 0.16930431
v 0.027114868 -0.30136997 -0.023968467
v 0.027114868 -0.24837337 -0.105832174
v 0.027114868 -0.30136997 -0.023968467
v 0.06767212 -0.120091625 0.16930431
v 0.027114868 -0.24837337 -0.105832174
v 0.06767212 -0.120091625 0.16930431
v 0.06767212 -0.120091625 0.086643256
v -0.027114868 -0.24837337 -0.105832174
v 0.027114868 -0.24837337 -0.105832174
v 0.06767212 -0.120091625 0.086643256
v -0.06767273 -0.120091625 0.086643256
v -0.027114868 -0.30136997 -0.023968467
v -0.027114868 -0.24837337 -0.105832174
v -0.06767273 -0.120091625 0.086643256
v -0.027114868 -0.30136997 -0.023968467
v -0.06767273 -0.120091625 0.086643256
v -0.06767273 -0.120091625 0.16930431
v -0.025498657 0.31788668 0.08735142
v -0.02274292 0.4557831 0.08160946
v 0.022742309 0.4557831 0.08160946
v 0.025498046 0.31788668 0.08735142
v 0.025498046 0.31788668 0.0129260635
v 0.025498046 0.31788668 0.08735142
v 0.022742309 0.4557831 0.08160946
v 0.022742309 0.4557831 0.005981712
v -0.025498657 0.31788668 0.0129260635
v 0.025498046 0.31788668 0.0129260635
v 0.022742309 0.4557831 0.005981712
v -0.02274292 0.4557831 0.005981712
v -0.025498657 0.31788668 0.08735142
v -0.025498657 0.31788668 0.0129260635
v -0.02274292 0.4557831 0.005981712
v -0.02274292 0.4557831 0.08160946
v -0.07662475 -0.39297923 -0.0214851
v -0.027114868 -0.30136997 -0.023968467
v 0.027114868 -0.30136997 -0.023968467
v 0.07662475 -0.39297923 -0.0214851
v 0.07662475 -0.30342722 -0.15981609
v 0.07662475 -0.39297923 -0.0214851
v 0.027114868 -0.30136997 -0.023968467
v 0.027114868 -0.24837337 -0.105832174
v -0.07662475 -0.30342722 -0.15981609
v 0.07662475 -0.30342722 -0.15981609
v 0.027114868 -0.24837337 -0.105832174
v -0.027114868 -0.24837337 -0.105832174
v -0.07662475 -0.39297923 -0.0214851
v -0.07662475 -0.30342722 -0.15981609
v -0.027114868 -0.24837337 -0.105832174
v -0.027114868 -0.30136997 -0.023968467
v -0.06767273 -0.120091625 0.16930431
v -0.06109741 0.084514044 0.1684215
v 0.0610968 0.084514044 0.1684215
v 0.06767212 -0.120091625 0.16930431
v 0.06767212 -0.120091625 0.086643256
v 0.06767212 -0.120091625 0.16930431
v 0.0610968 0.084514044 0.1684215
v 0.0610968 0.084514044 0.093792
v -0.06767273 -0.120091625 0.086643256
v 0.06767212 -0.120091625 0.086643256
v 0.0610968 0.084514044 0.093792
v -0.06109741 0.084514044 0.093792
v -0.06767273 -0.120091625 0.16930431
v -0.06767273 -0.120091625 0.086643256
v -0.06109741 0.084514044 0.093792
v -0.06109741 0.084514044 0.1684215
vt 0.07488996 0.067521036
vt 0.061472535 0.10196936
vt 0.17560607 0.10196936
vt 0.16218859 0.067521036
vt 0.16218859 0.067521036
vt 0.17560607 0.10196936
vt 0.17560607 0.15108925
vt 0.16218859 0.10509199
vt 0.16218859 0.10509199
vt 0.17560607 0.15108925
vt 0.061472535 0.15108925
vt 0.07488996 0.10509199
vt 0.07488996 0.10509199
vt 0.061472535 0.15108925
vt 0.061472535 0.10196936
vt 0.07488996 0.067521036
vt 0.07488996 0.10509199
vt 0.07488996 0.067521036
vt 0.16218859 0.067521036
vt 0.16218859 0.10509199
vt 0.14028564 0.6099922
vt 0.14423624 0.62906617
vt 0.14989558 0.62906617
vt 0.15384611 0.6099922
vt 0.15384611 0.6099922
vt 0.15384611 0.6099922
vt 0.14989558 0.62906617
vt 0.14989558 0.62906617
vt 0.14028564 0.6099922
vt 0.15384611 0.6099922
vt 0.14989558 0.62906617
vt 0.14423624 0.62906617
vt 0.14028564 0.6099922
vt 0.14028564 0.6099922
vt 0.14423624 0.62906617
vt 0.14423624 0.62906617
vt 0.14405686 0.57845324
vt 0.13955596 0.59326947
vt 0.1545758 0.59326947
vt 0.15007493 0.57845324
vt 0.15007493 0.5827848
vt 0.15007493 0.57845324
vt 0.1545758 0.59326947
vt 0.15007493 0.5827848
vt 0.1545758 0.59326947
vt 0.1545758 0.59326947
vt 0.14405686 0.5827848
vt 0.15007493 0.5827848
vt 0.1545758 0.59326947
vt 0.13955596 0.59326947
vt 0.14405686 0.57845324
vt 0.14405686 0.5827848
vt 0.13955596 0.59326947
vt 0.14405686 0.57845324
vt 0.13955596 0.59326947
vt 0.13955596 0.59326947
vt 0.10571298 0.056152634
vt 0.10776523 0.13178974
vt 0.14164093 0.13178974
vt 0.14369324 0.056152634
vt 0.14369324 0.056152634
vt 0.14369324 0.056152634
vt 0.14164093 0.13178974
vt 0.14164093 0.13178974
vt 0.10571298 0.056152634
vt 0.14369324 0.056152634
vt 0.14164093 0.13178974
vt 0.10776523 0.13178974
vt 0.10571298 0.056152634
vt 0.10571298 0.056152634
vt 0.10776523 0.13178974
vt 0.10776523 0.13178974
vt 0.061472535 0.10196936
vt 0.09834534 0.15221763
vt 0.13873321 0.15221763
vt 0.17560607 0.10196936
vt 0.17560607 0.15108925
vt 0.17560607 0.10196936
vt 0.13873321 0.15221763
vt 0.13873321 0.18128657
vt 0.061472535 0.15108925
vt 0.17560607 0.15108925
vt 0.13873321 0.18128657
vt 0.09834534 0.18128657
vt 0.061472535 0.10196936
vt 0.061472535 0.15108925
vt 0.09834534 0.18128657
vt 0.09834534 0.15221763
vt 0.13955596 0.59326947
vt 0.14028564 0.6099922
vt 0.15384611 0.6099922
vt 0.1545758 0.59326947
vt 0.1545758 0.59326947
vt 0.1545758 0.59326947
vt 0.15384611 0.6099922
vt 0.15384611 0.6099922
vt 0.13955596 0.59326947
vt 0.1545758 0.59326947
vt 0.15384611 0.6099922
vt 0.14028564 0.6099922
vt 0.13955596 0.59326947
vt 0.13955596 0.59326947
vt 0.14028564 0.6099922
vt 0.14028564 0.6099922
vn -0 -0.556007 0.83117753
vn -0 -0.5560071 0.83117753
vn -0 -0.5560071 0.83117753
vn -0 -0.556007 0.83117753
vn 0.9727275 -0.19471078 -0.12605202
vn 0.9727275 -0.19471079 -0.12605204
vn 0.9727275 -0.19471073 -0.12605202
vn 0.9727275 -0.19471076 -0.12605204
vn -0 0.11242725 -0.99366003
vn -0 0.11242726 -0.99366003
vn -0 0.11242726 -0.99366003
vn -0 0.11242725 -0.99366003
vn -0.972727 -0.19471286 -0.12605196
vn -0.972727 -0.19471286 -0.12605196
vn -0.972727 -0.19471286 -0.12605196
vn -0.972727 -0.19471286 -0.12605196
vn -0 -0.8394478 -0.5434402
vn -0 -0.8394478 -0.5434402
vn -0 -0.8394478 -0.5434402
vn -0 -0.8394478 -0.5434402
vn -0 0.32814914 0.9446259
vn -0 0.32814914 0.9446259
vn -0 0.32814914 0.9446259
vn -0 0.32814914 0.9446259
vn 0.9885649 0.15079562 0
vn 0.9885649 0.15079564 0
vn 0.9885649 0.15079564 0
vn 0.9885649 0.15079564 0
vn -0 -0.32741162 -0.94488186
vn -0 -0.32741162 -0.94488186
vn -0 -0.32741162 -0.94488186
vn -0 -0.32741162 -0.94488186
vn -0.9885649 0.15079564 0
vn -0.9885649 0.15079562 0
vn -0.9885649 0.15079564 0
vn -0.9885649 0.15079564 0
vn -0 -0.7293756 0.68411344
vn -0 -0.7293756 0.68411344
vn -0 -0.72937554 0.68411344
vn -0 -0.72937554 0.68411344
vn 0.9812464 -0.18347432 -0.059099708
vn 0.9812464 -0.18347433 -0.059099704
vn 0.9812464 -0.18347433 -0.059099704
vn 0.9812464 -0.18347432 -0.059099708
vn 0.9812464 -0.18347433 -0.059099704
vn 0.9812463 -0.18347432 -0.059099704
vn -0 0.8321193 -0.55459666
vn -0 0.8321193 -0.55459666
vn -0 0.8321193 -0.55459666
vn -0 0.8321193 -0.55459654
vn -0.98124725 -0.18346912 -0.059100762
vn -0.98124725 -0.18346912 -0.059100777
vn -0.98124725 -0.1834691 -0.059100762
vn -0.98124725 -0.18346912 -0.059100762
vn -0.98124725 -0.1834691 -0.059100762
vn -0.98124725 -0.18346912 -0.059100773
vn -0 0.041603334 0.99913424
vn -0 0.041603334 0.99913424
vn -0 0.041603334 0.99913424
vn -0 0.041603334 0.99913424
vn 0.9998004 0.019978656 0
vn 0.9998004 0.019978654 0
vn 0.9998004 0.019978656 0
vn 0.9998004 0.019978656 0
vn -0 -0.050294753 -0.9987344
vn -0 -0.050294753 -0.9987344
vn -0 -0.050294746 -0.9987344
vn -0 -0.050294746 -0.9987344
vn -0.9998004 0.019983372 0
vn -0.9998004 0.019983374 0
vn -0.9998004 0.019983372 0
vn -0.9998004 0.019983374 0
vn -0 0.027098121 0.99963284
vn -0 0.02709812 0.99963284
vn -0 0.02709812 0.99963284
vn -0 0.027098121 0.99963284
vn 0.83640903 0.4601061 0.29786298
vn 0.83640903 0.46010605 0.29786295
vn 0.83640903 0.460106 0.29786292
vn 0.83640903 0.4601061 0.29786298
vn -0 0.7001328 -0.7140126
vn -0 0.7001328 -0.7140126
vn -0 0.7001327 -0.7140127
vn -0 0.7001327 -0.7140127
vn -0.83640903 0.46010605 0.29786292
vn -0.83640903 0.460106 0.29786295
vn -0.83640903 0.4601061 0.29786298
vn -0.83640903 0.46010593 0.29786292
vn -0 0.0043146093 0.9999907
vn -0 0.0043146093 0.9999907
vn -0 0.0043146093 0.9999907
vn -0 0.0043146093 0.9999907
vn 0.99948394 0.032121252 0
vn 0.99948394 0.032121252 0
vn 0.99948394 0.032121256 0
vn 0.99948394 0.032121256 0
vn -0 0.03491774 -0.99939024
vn -0 0.03491774 -0.99939024
vn -0 0.03491774 -0.99939024
vn -0 0.03491774 -0.99939024
vn -0.99948394 0.032121252 0
vn -0.99948394 0.03212126 0
vn -0.99948394 0.032121256 0
vn -0.99948394 0.032121256 0
g WEP_Bow01_b02_0
f 3/3/3 2/2/2 1/1/1
f 4/4/4 3/3/3 1/1/1
f 7/7/7 6/6/6 5/5/5
f 8/8/8 7/7/7 5/5/5
f 11/11/11 10/10/10 9/9/9
f 12/12/12 11/11/11 9/9/9
f 15/15/15 14/14/14 13/13/13
f 16/16/16 15/15/15 13/13/13
f 19/19/19 18/18/18 17/17/17
f 20/20/20 19/19/19 17/17/17
f 23/23/23 22/22/22 21/21/21
f 24/24/24 23/23/23 21/21/21
f 27/27/27 26/26/26 25/25/25
f 28/28/28 27/27/27 25/25/25
f 31/31/31 30/30/30 29/29/29
f 32/32/32 31/31/31 29/29/29
f 35/35/35 34/34/34 33/33/33
f 36/36/36 35/35/35 33/33/33
f 39/39/39 38/38/38 37/37/37
f 40/40/40 39/39/39 37/37/37
f 43/43/43 42/42/42 41/41/41
f 46/46/46 45/45/45 44/44/44
f 49/49/49 48/48/48 47/47/47
f 50/50/50 49/49/49 47/47/47
f 53/53/53 52/52/52 51/51/51
f 56/56/56 55/55/55 54/54/54
f 59/59/59 58/58/58 57/57/57
f 60/60/60 59/59/59 57/57/57
f 63/63/63 62/62/62 61/61/61
f 64/64/64 63/63/63 61/61/61
f 67/67/67 66/66/66 65/65/65
f 68/68/68 67/67/67 65/65/65
f 71/71/71 70/70/70 69/69/69
f 72/72/72 71/71/71 69/69/69
f 75/75/75 74/74/74 73/73/73
f 76/76/76 75/75/75 73/73/73
f 79/79/79 78/78/78 77/77/77
f 80/80/80 79/79/79 77/77/77
f 83/83/83 82/82/82 81/81/81
f 84/84/84 83/83/83 81/81/81
f 87/87/87 86/86/86 85/85/85
f 88/88/88 87/87/87 85/85/85
f 91/91/91 90/90/90 89/89/89
f 92/92/92 91/91/91 89/89/89
f 95/95/95 94/94/94 93/93/93
f 96/96/96 95/95/95 93/93/93
f 99/99/99 98/98/98 97/97/97
f 100/100/100 99/99/99 97/97/97
f 103/103/103 102/102/102 101/101/101
f 104/104/104 103/103/103 101/101/101
