g woodPiece02
v -0.041663207 -0.16287634 0.019209975
v -0.063003995 0.17975193 0.019209975
v 0.063003995 0.082161024 0.019209975
v 0.054989927 -0.17975193 0.019209975
v -0.063003995 0.17975193 0.019209975
v -0.063003995 0.17975193 -0.019209975
v 0.063003995 0.082161024 -0.019209975
v 0.063003995 0.082161024 0.019209975
v -0.063003995 0.17975193 -0.019209975
v -0.041663207 -0.16287634 -0.019209975
v 0.054989927 -0.17975193 -0.019209975
v 0.063003995 0.082161024 -0.019209975
v -0.041663207 -0.16287634 -0.019209975
v -0.041663207 -0.16287634 0.019209975
v 0.054989927 -0.17975193 0.019209975
v 0.054989927 -0.17975193 -0.019209975
v 0.054989927 -0.17975193 0.019209975
v 0.063003995 0.082161024 0.019209975
v 0.063003995 0.082161024 -0.019209975
v 0.054989927 -0.17975193 -0.019209975
v -0.041663207 -0.16287634 -0.019209975
v -0.063003995 0.17975193 -0.019209975
v -0.063003995 0.17975193 0.019209975
v -0.041663207 -0.16287634 0.019209975
vt 0.91097033 0.07465184
vt 0.90897965 0.10661137
vt 0.92073345 0.09750837
vt 0.9199859 0.0730778
vt 0.90897965 0.10661137
vt 0.90897965 0.10661137
vt 0.92073345 0.09750837
vt 0.92073345 0.09750837
vt 0.90897965 0.10661137
vt 0.91097033 0.07465184
vt 0.9199859 0.0730778
vt 0.92073345 0.09750837
vt 0.91097033 0.07465184
vt 0.91097033 0.07465184
vt 0.9199859 0.0730778
vt 0.9199859 0.0730778
vt 0.9199859 0.0730778
vt 0.92073345 0.09750837
vt 0.92073345 0.09750837
vt 0.9199859 0.0730778
vt 0.91097033 0.07465184
vt 0.90897965 0.10661137
vt 0.90897965 0.10661137
vt 0.91097033 0.07465184
vn -0 0 1
vn -0 0 1
vn -0 0 1
vn -0 0 1
vn 0.61231565 0.7906133 0
vn 0.61231565 0.7906133 0
vn 0.61231565 0.7906133 0
vn 0.61231565 0.7906133 0
vn -0 0 -1
vn -0 0 -1
vn -0 0 -1
vn -0 0 -1
vn -0.17199747 -0.9850973 0
vn -0.17199747 -0.9850973 0
vn -0.17199747 -0.9850973 0
vn -0.17199747 -0.9850973 0
vn 0.9995322 -0.030583685 0
vn 0.9995322 -0.030583685 0
vn 0.9995322 -0.030583685 0
vn 0.9995322 -0.030583685 0
vn -0.9980659 -0.062165137 0
vn -0.9980659 -0.062165137 0
vn -0.9980659 -0.062165137 0
vn -0.9980659 -0.062165137 0
g woodPiece02_0
f 3/3/3 2/2/2 1/1/1
f 4/4/4 3/3/3 1/1/1
f 7/7/7 6/6/6 5/5/5
f 8/8/8 7/7/7 5/5/5
f 11/11/11 10/10/10 9/9/9
f 12/12/12 11/11/11 9/9/9
f 15/15/15 14/14/14 13/13/13
f 16/16/16 15/15/15 13/13/13
f 19/19/19 18/18/18 17/17/17
f 20/20/20 19/19/19 17/17/17
f 23/23/23 22/22/22 21/21/21
f 24/24/24 23/23/23 21/21/21
