g woodPiece01
v -0.0273127 0.28485563 0.024898548
v 0.103428416 0.21579154 0.024898548
v 0.103428416 -0.18400611 0.024898548
v -0.09749359 -0.21599388 0.024898548
v -0.10224586 0.23898883 0.024898548
v -0.0273127 0.28485563 -0.024898548
v 0.103428416 0.21579154 -0.024898548
v 0.103428416 0.21579154 0.024898548
v -0.0273127 0.28485563 0.024898548
v -0.09749359 -0.21599388 -0.024898548
v -0.09749359 -0.21599388 0.024898548
v 0.103428416 -0.18400611 0.024898548
v 0.103428416 -0.18400611 -0.024898548
v 0.103428416 -0.18400611 0.024898548
v 0.103428416 0.21579154 0.024898548
v 0.103428416 0.21579154 -0.024898548
v 0.103428416 -0.18400611 -0.024898548
v -0.09749359 -0.21599388 -0.024898548
v -0.10224586 0.23898883 -0.024898548
v -0.10224586 0.23898883 0.024898548
v -0.09749359 -0.21599388 0.024898548
v -0.09749359 -0.21599388 -0.024898548
v 0.103428416 -0.18400611 -0.024898548
v 0.103428416 0.21579154 -0.024898548
v -0.0273127 0.28485563 -0.024898548
v -0.10224586 0.23898883 -0.024898548
v -0.10224586 0.23898883 0.024898548
v -0.10224586 0.23898883 -0.024898548
v -0.0273127 0.28485563 -0.024898548
v -0.0273127 0.28485563 0.024898548
vt 0.8814143 0.1213699
vt 0.89360946 0.11492777
vt 0.89360946 0.077635646
vt 0.874868 0.07465184
vt 0.8744247 0.11709154
vt 0.8814143 0.1213699
vt 0.89360946 0.11492777
vt 0.89360946 0.11492777
vt 0.8814143 0.1213699
vt 0.874868 0.07465184
vt 0.874868 0.07465184
vt 0.89360946 0.077635646
vt 0.89360946 0.077635646
vt 0.89360946 0.077635646
vt 0.89360946 0.11492777
vt 0.89360946 0.11492777
vt 0.89360946 0.077635646
vt 0.874868 0.07465184
vt 0.8744247 0.11709154
vt 0.8744247 0.11709154
vt 0.874868 0.07465184
vt 0.874868 0.07465184
vt 0.89360946 0.077635646
vt 0.89360946 0.11492777
vt 0.8814143 0.1213699
vt 0.8744247 0.11709154
vt 0.8744247 0.11709154
vt 0.8744247 0.11709154
vt 0.8814143 0.1213699
vt 0.8814143 0.1213699
vn -0 0 1
vn -0 0 1
vn -0 0 1
vn -0 0 1
vn -0 0 1
vn 0.46708566 0.884212 0
vn 0.46708566 0.884212 0
vn 0.46708566 0.884212 0
vn 0.46708566 0.884212 0
vn 0.15722468 -0.9875629 0
vn 0.15722468 -0.9875629 0
vn 0.15722468 -0.9875629 0
vn 0.15722468 -0.9875629 0
vn 1 0 0
vn 1 0 0
vn 1 0 0
vn 1 0 0
vn -0.9999455 -0.010444347 0
vn -0.9999455 -0.010444347 0
vn -0.9999455 -0.010444347 0
vn -0.9999455 -0.010444347 0
vn -0 0 -1
vn -0 0 -1
vn -0 0 -1
vn -0 0 -1
vn -0 0 -1
vn -0.5220656 0.85290533 0
vn -0.5220656 0.85290533 0
vn -0.5220656 0.85290533 0
vn -0.5220656 0.85290533 0
g woodPiece01_0
f 3/3/3 2/2/2 1/1/1
f 1/1/1 4/4/4 3/3/3
f 1/1/1 5/5/5 4/4/4
f 8/8/8 7/7/7 6/6/6
f 9/9/9 8/8/8 6/6/6
f 12/12/12 11/11/11 10/10/10
f 13/13/13 12/12/12 10/10/10
f 16/16/16 15/15/15 14/14/14
f 17/17/17 16/16/16 14/14/14
f 20/20/20 19/19/19 18/18/18
f 21/21/21 20/20/20 18/18/18
f 24/24/24 23/23/23 22/22/22
f 22/22/22 25/25/25 24/24/24
f 22/22/22 26/26/26 25/25/25
f 29/29/29 28/28/28 27/27/27
f 30/30/30 29/29/29 27/27/27
