g bladeStick_break02
v -0.04488037 -0.07622783 9.909272E-09
v -0.022436524 -0.07392894 0.038862236
v -0.01994751 -0.16153362 0.045584925
v -0.052231446 -0.15710993 1.1404045E-08
v -0.04488037 -0.07622783 9.909272E-09
v -0.052231446 -0.15710993 1.1404045E-08
v -0.026115723 -0.14438471 -0.045584925
v -0.022412108 -0.0567805 -0.038819417
v 0.022399902 -0.04886256 -0.038797926
v -0.022412108 -0.0567805 -0.038819417
v -0.026115723 -0.14438471 -0.045584925
v 0.032282714 -0.13646647 -0.045584917
v 0.044819336 -0.05516185 9.909272E-09
v 0.022399902 -0.04886256 -0.038797926
v 0.032282714 -0.13646647 -0.045584917
v 0.052231446 -0.13636012 1.1404045E-08
v 0.022419432 -0.060781047 0.03882985
v 0.044819336 -0.05516185 9.909272E-09
v 0.052231446 -0.13636012 1.1404045E-08
v 0.026116943 -0.14197947 0.045584925
v -0.022436524 -0.07392894 0.038862236
v 0.022419432 -0.060781047 0.03882985
v 0.026116943 -0.14197947 0.045584925
v -0.01994751 -0.16153362 0.045584925
v 0.026116943 -0.14197947 0.045584925
v 0.052231446 -0.13636012 1.1404045E-08
v 0.010432129 -0.16042903 -0.000102589554
v 0.018939208 0.16153362 -0.032802608
v -0.018937988 0.16071326 -0.032802623
v -0.022412108 -0.0567805 -0.038819417
v 0.022399902 -0.04886256 -0.038797926
v 0.037877195 0.15305683 8.912757E-09
v 0.018939208 0.16153362 -0.032802608
v 0.022399902 -0.04886256 -0.038797926
v 0.044819336 -0.05516185 9.909272E-09
v 0.018939208 0.12683667 0.032802638
v 0.037877195 0.15305683 8.912757E-09
v 0.044819336 -0.05516185 9.909272E-09
v 0.022419432 -0.060781047 0.03882985
v -0.018937988 0.13308004 0.032802623
v 0.018939208 0.12683667 0.032802638
v 0.022419432 -0.060781047 0.03882985
v -0.022436524 -0.07392894 0.038862236
v -0.037877195 0.15305683 8.912757E-09
v -0.018937988 0.13308004 0.032802623
v -0.022436524 -0.07392894 0.038862236
v -0.04488037 -0.07622783 9.909272E-09
v -0.018937988 0.16071326 -0.032802623
v -0.037877195 0.15305683 8.912757E-09
v -0.04488037 -0.07622783 9.909272E-09
v -0.022412108 -0.0567805 -0.038819417
v -0.052231446 -0.15710993 1.1404045E-08
v 0.010432129 -0.16042903 -0.000102589554
v -0.026115723 -0.14438471 -0.045584925
v 0.010432129 -0.16042903 -0.000102589554
v 0.032282714 -0.13646647 -0.045584917
v -0.026115723 -0.14438471 -0.045584925
v 0.010432129 -0.16042903 -0.000102589554
v 0.052231446 -0.13636012 1.1404045E-08
v 0.032282714 -0.13646647 -0.045584917
v -0.01994751 -0.16153362 0.045584925
v 0.026116943 -0.14197947 0.045584925
v 0.010432129 -0.16042903 -0.000102589554
v -0.052231446 -0.15710993 1.1404045E-08
v -0.01994751 -0.16153362 0.045584925
v 0.010432129 -0.16042903 -0.000102589554
v -0.037877195 0.15305683 8.912757E-09
v -0.018937988 0.16071326 -0.032802623
v 0.018939208 0.16153362 -0.032802608
v 0.037877195 0.15305683 8.912757E-09
v -0.018937988 0.13308004 0.032802623
v 0.018939208 0.12683667 0.032802638
vt 0.14615679 0.5511971
vt 0.15060249 0.55165243
vt 0.14987385 0.5342996
vt 0.14470059 0.53384423
vt 0.14615679 0.5511971
vt 0.14470059 0.53384423
vt 0.14987385 0.5376965
vt 0.15060738 0.55504924
vt 0.15948379 0.5566176
vt 0.15060738 0.55504924
vt 0.14987385 0.5376965
vt 0.16021991 0.5392649
vt 0.16392457 0.5553698
vt 0.15948379 0.5566176
vt 0.16021991 0.5392649
vt 0.16539282 0.53801703
vt 0.15948749 0.55425674
vt 0.16392457 0.5553698
vt 0.16539282 0.53801703
vt 0.16021991 0.536904
vt 0.15060249 0.55165243
vt 0.15948749 0.55425674
vt 0.16021991 0.536904
vt 0.14987385 0.5342996
vt 0.16021991 0.536904
vt 0.16539282 0.53801703
vt 0.1550467 0.53593063
vt 0.15879816 0.59661406
vt 0.15129542 0.59661406
vt 0.15060738 0.55504924
vt 0.15948379 0.5566176
vt 0.16254938 0.59661406
vt 0.15879816 0.59661406
vt 0.15948379 0.5566176
vt 0.16392457 0.5553698
vt 0.15879816 0.59661406
vt 0.16254938 0.59661406
vt 0.16392457 0.5553698
vt 0.15948749 0.55425674
vt 0.15129542 0.59661406
vt 0.15879816 0.59661406
vt 0.15948749 0.55425674
vt 0.15060249 0.55165243
vt 0.14754409 0.59661406
vt 0.15129542 0.59661406
vt 0.15060249 0.55165243
vt 0.14615679 0.5511971
vt 0.15129542 0.59661406
vt 0.14754409 0.59661406
vt 0.14615679 0.5511971
vt 0.15060738 0.55504924
vt 0.14470059 0.53384423
vt 0.1550467 0.53593063
vt 0.14987385 0.5376965
vt 0.1550467 0.53593063
vt 0.16021991 0.5392649
vt 0.14987385 0.5376965
vt 0.1550467 0.53593063
vt 0.16539282 0.53801703
vt 0.16021991 0.5392649
vt 0.14987385 0.5342996
vt 0.16021991 0.536904
vt 0.1550467 0.53593063
vt 0.14470059 0.53384423
vt 0.14987385 0.5342996
vt 0.1550467 0.53593063
vt 0.07686654 0.34077445
vt 0.11157206 0.31120402
vt 0.16711658 0.31657088
vt 0.18795651 0.35150823
vt 0.09770852 0.3757119
vt 0.15325302 0.3810788
vn -0.83777136 0.045880042 0.54409033
vn -0.83777136 0.045880042 0.54409033
vn -0.83777136 0.045880042 0.54409033
vn -0.83777136 0.045880042 0.5440903
vn -0.876476 0.07659889 -0.475313
vn -0.876476 0.07659889 -0.47531307
vn -0.87647593 0.07659889 -0.4753131
vn -0.876476 0.07659888 -0.47531307
vn -0.011562302 0.0767097 -0.99698645
vn -0.011562303 0.07670971 -0.99698645
vn -0.011562303 0.07670971 -0.99698645
vn -0.011562303 0.07670971 -0.99698645
vn 0.8915364 0.10901567 -0.4396343
vn 0.8915364 0.10901569 -0.43963432
vn 0.8915364 0.10901569 -0.4396343
vn 0.89153653 0.10901568 -0.43963432
vn 0.85962206 0.079792425 0.50466144
vn 0.85962206 0.079792425 0.5046614
vn 0.85962206 0.07979244 0.5046614
vn 0.85962206 0.079792425 0.5046614
vn -0.02789512 0.07854339 0.9965204
vn -0.027895119 0.07854338 0.9965204
vn -0.027895119 0.07854339 0.9965204
vn -0.027895119 0.07854337 0.9965204
vn 0.4908869 -0.85325366 0.17603488
vn 0.49088693 -0.85325366 0.1760349
vn 0.4908869 -0.85325366 0.17603485
vn -0.002705398 0.02806206 -0.9996025
vn -0.0027053976 0.02806206 -0.9996025
vn -0.0027053978 0.02806206 -0.9996025
vn -0.0027053976 0.028062055 -0.9996025
vn 0.868122 0.02866938 -0.49552217
vn 0.86812204 0.028669378 -0.49552214
vn 0.86812204 0.028669378 -0.49552214
vn 0.868122 0.028669376 -0.49552217
vn 0.85981625 0.030398991 0.50969774
vn 0.85981625 0.030398995 0.50969774
vn 0.85981625 0.030398991 0.50969774
vn 0.85981625 0.030398995 0.50969774
vn -0.0021637538 0.030614205 0.9995289
vn -0.002163754 0.030614207 0.9995289
vn -0.002163754 0.030614207 0.9995289
vn -0.0021637536 0.030614207 0.9995289
vn -0.8626701 0.027777283 0.50500345
vn -0.8626701 0.027777284 0.5050035
vn -0.8626701 0.027777283 0.50500345
vn -0.8626701 0.027777283 0.50500345
vn -0.86981213 0.027031282 -0.4926421
vn -0.86981213 0.027031282 -0.49264213
vn -0.86981213 0.027031282 -0.49264213
vn -0.86981213 0.027031286 -0.49264213
vn -0.051011454 -0.95397246 -0.29552382
vn -0.05101146 -0.95397246 -0.29552382
vn -0.05101146 -0.95397246 -0.29552382
vn 0.12218132 -0.90109414 -0.41605416
vn 0.12218134 -0.90109414 -0.4160542
vn 0.122181326 -0.90109414 -0.41605413
vn 0.48809966 -0.84674287 -0.21162514
vn 0.48809966 -0.84674287 -0.21162514
vn 0.48809966 -0.84674287 -0.21162514
vn 0.38016313 -0.89557374 0.23113586
vn 0.3801632 -0.89557374 0.23113586
vn 0.38016316 -0.8955736 0.23113583
vn -0.05289759 -0.99683917 -0.059274446
vn -0.05289759 -0.99683917 -0.059274446
vn -0.052897587 -0.99683917 -0.059274446
vn 0.021548862 0.90305424 0.42898566
vn 0.021548864 0.90305424 0.4289857
vn 0.021548864 0.90305424 0.4289857
vn 0.021548864 0.90305424 0.4289857
vn 0.021548864 0.90305424 0.4289857
vn 0.02154886 0.90305424 0.4289857
g bladeStick_break02_0
f 3/3/3 2/2/2 1/1/1
f 4/4/4 3/3/3 1/1/1
f 7/7/7 6/6/6 5/5/5
f 8/8/8 7/7/7 5/5/5
f 11/11/11 10/10/10 9/9/9
f 12/12/12 11/11/11 9/9/9
f 15/15/15 14/14/14 13/13/13
f 16/16/16 15/15/15 13/13/13
f 19/19/19 18/18/18 17/17/17
f 20/20/20 19/19/19 17/17/17
f 23/23/23 22/22/22 21/21/21
f 24/24/24 23/23/23 21/21/21
f 27/27/27 26/26/26 25/25/25
f 30/30/30 29/29/29 28/28/28
f 31/31/31 30/30/30 28/28/28
f 34/34/34 33/33/33 32/32/32
f 35/35/35 34/34/34 32/32/32
f 38/38/38 37/37/37 36/36/36
f 39/39/39 38/38/38 36/36/36
f 42/42/42 41/41/41 40/40/40
f 43/43/43 42/42/42 40/40/40
f 46/46/46 45/45/45 44/44/44
f 47/47/47 46/46/46 44/44/44
f 50/50/50 49/49/49 48/48/48
f 51/51/51 50/50/50 48/48/48
f 54/54/54 53/53/53 52/52/52
f 57/57/57 56/56/56 55/55/55
f 60/60/60 59/59/59 58/58/58
f 63/63/63 62/62/62 61/61/61
f 66/66/66 65/65/65 64/64/64
f 69/69/69 68/68/68 67/67/67
f 67/67/67 70/70/70 69/69/69
f 67/67/67 71/71/71 70/70/70
f 71/71/71 72/72/72 70/70/70
