g boobyTrap01Platform
v -0.5782678 1.2519797 -0.020327147
v -0.42387146 1.2435098 0.20844482
v -0.071343996 1.2445571 -0.20121247
v -0.17183167 1.2471741 0.3284903
v 0.103397824 1.2512118 0.30263975
v -0.071343996 1.2445571 -0.20121247
v 0.33385557 1.2456844 0.15122223
v 0.45475462 1.2419325 -0.100753784
v 0.4298486 1.2417027 -0.37703153
v 0.27627197 1.2382195 -0.6084726
v 0.027266845 1.2372729 -0.7346185
v -0.24911925 1.245337 -0.7046643
v -0.47797728 1.2456822 -0.54725343
v -0.5943945 1.2511991 -0.29590088
v -0.3729004 1.5905545 0.13671722
v -0.50706357 1.5853345 -0.06266693
v -0.23412475 1.6026001 -0.042959593
v -0.23412475 1.6026001 -0.042959593
v -0.50706357 1.5853345 -0.06266693
v -0.29925293 1.5952609 -0.14874877
v -0.527713 1.5873225 -0.3047476
v -0.30280456 1.5960515 -0.27425322
v -0.42132628 1.5844828 -0.5166623
v -0.06837768 1.5979729 -0.21800597
v -0.2230432 1.5859213 -0.65304166
v -0.2438208 1.6011775 -0.3816864
v -0.1541693 1.5868607 0.2407724
v -0.3729004 1.5905545 0.13671722
v -0.12426819 1.6020824 0.017137757
v -0.23412475 1.6026001 -0.042959593
v 0.00064086914 1.5992991 0.01383728
v 0.088377684 1.5969691 0.22832641
v 0.00064086914 1.5992991 0.01383728
v 0.10729126 1.60807 -0.052690733
v -0.06837768 1.5979729 -0.21800597
v 0.28682312 1.5899636 0.08540008
v 0.088377684 1.5969691 0.22832641
v 0.10729126 1.60807 -0.052690733
v 0.38832274 1.5828857 -0.1320285
v 0.16653137 1.5975513 -0.16209534
v 0.16299255 1.5984619 -0.28631896
v 0.38832274 1.5828857 -0.1320285
v 0.37754944 1.5941021 -0.37327453
v 0.16653137 1.5975513 -0.16209534
v 0.28682312 1.5899636 0.08540008
v 0.10729126 1.60807 -0.052690733
v 0.239823 1.5957693 -0.57252717
v 0.37754944 1.5941021 -0.37327453
v 0.09729675 1.5944417 -0.39099884
v -0.012767334 1.5976471 -0.45206055
v -0.06837768 1.5979729 -0.21800597
v -0.12426819 1.6020824 0.017137757
v -0.23412475 1.6026001 -0.042959593
v 0.00064086914 1.5992991 0.01383728
v 0.16299255 1.5984619 -0.28631896
v 0.16653137 1.5975513 -0.16209534
v 0.09729675 1.5944417 -0.39099884
v 0.37754944 1.5941021 -0.37327453
v 0.16299255 1.5984619 -0.28631896
v -0.13740112 1.5948704 -0.4467392
v -0.012767334 1.5976471 -0.45206055
v -0.2438208 1.6011775 -0.3816864
v -0.2230432 1.5859213 -0.65304166
v 0.017250367 1.5850484 -0.6751227
v -0.012767334 1.5976471 -0.45206055
v 0.239823 1.5957693 -0.57252717
v -0.30280456 1.5960515 -0.27425322
v -0.42132628 1.5844828 -0.5166623
v -0.2438208 1.6011775 -0.3816864
v -0.5709912 1.5220993 -0.03628601
v -0.4151068 1.5222327 0.1904602
v -0.5782678 1.2519797 -0.020327147
v -0.42387146 1.2435098 0.20844482
v -0.4151068 1.5222327 0.1904602
v -0.16770141 1.510448 0.31215912
v -0.42387146 1.2435098 0.20844482
v -0.17183167 1.2471741 0.3284903
v 0.10370849 1.5402615 0.28235474
v 0.103397824 1.2512118 0.30263975
v -0.16770141 1.510448 0.31215912
v -0.17183167 1.2471741 0.3284903
v 0.33786744 1.5294232 0.13738891
v 0.33385557 1.2456844 0.15122223
v 0.10370849 1.5402615 0.28235474
v 0.103397824 1.2512118 0.30263975
v 0.4561621 1.5392761 -0.121918336
v 0.45475462 1.2419325 -0.100753784
v 0.33786744 1.5294232 0.13738891
v 0.33385557 1.2456844 0.15122223
v 0.42281067 1.4971858 -0.38667846
v 0.4298486 1.2417027 -0.37703153
v 0.4561621 1.5392761 -0.121918336
v 0.4561621 1.5392761 -0.121918336
v 0.4298486 1.2417027 -0.37703153
v 0.45475462 1.2419325 -0.100753784
v 0.26930785 1.4991043 -0.6048855
v 0.27627197 1.2382195 -0.6084726
v 0.42281067 1.4971858 -0.38667846
v 0.4298486 1.2417027 -0.37703153
v 0.028046874 1.5102468 -0.73413724
v 0.027266845 1.2372729 -0.7346185
v 0.26930785 1.4991043 -0.6048855
v 0.27627197 1.2382195 -0.6084726
v 0.028046874 1.5102468 -0.73413724
v -0.24563964 1.4970894 -0.70903504
v 0.027266845 1.2372729 -0.7346185
v -0.24911925 1.245337 -0.7046643
v -0.24563964 1.4970894 -0.70903504
v -0.46735168 1.5148705 -0.55218536
v -0.24911925 1.245337 -0.7046643
v -0.47797728 1.2456822 -0.54725343
v -0.46735168 1.5148705 -0.55218536
v -0.5874725 1.5102465 -0.31557372
v -0.47797728 1.2456822 -0.54725343
v -0.47797728 1.2456822 -0.54725343
v -0.5874725 1.5102465 -0.31557372
v -0.5943945 1.2511991 -0.29590088
v -0.5874725 1.5102465 -0.31557372
v -0.5709912 1.5220993 -0.03628601
v -0.5943945 1.2511991 -0.29590088
v -0.5782678 1.2519797 -0.020327147
v -0.5709912 1.5220993 -0.03628601
v -0.5874725 1.5102465 -0.31557372
v -0.50706357 1.5853345 -0.06266693
v -0.50706357 1.5853345 -0.06266693
v -0.5874725 1.5102465 -0.31557372
v -0.527713 1.5873225 -0.3047476
v -0.50706357 1.5853345 -0.06266693
v -0.3729004 1.5905545 0.13671722
v -0.5709912 1.5220993 -0.03628601
v -0.5709912 1.5220993 -0.03628601
v -0.3729004 1.5905545 0.13671722
v -0.4151068 1.5222327 0.1904602
v -0.3729004 1.5905545 0.13671722
v -0.1541693 1.5868607 0.2407724
v -0.4151068 1.5222327 0.1904602
v -0.16770141 1.510448 0.31215912
v -0.16770141 1.510448 0.31215912
v -0.1541693 1.5868607 0.2407724
v 0.10370849 1.5402615 0.28235474
v 0.088377684 1.5969691 0.22832641
v 0.10370849 1.5402615 0.28235474
v 0.088377684 1.5969691 0.22832641
v 0.33786744 1.5294232 0.13738891
v 0.33786744 1.5294232 0.13738891
v 0.088377684 1.5969691 0.22832641
v 0.28682312 1.5899636 0.08540008
v 0.33786744 1.5294232 0.13738891
v 0.28682312 1.5899636 0.08540008
v 0.4561621 1.5392761 -0.121918336
v 0.4561621 1.5392761 -0.121918336
v 0.28682312 1.5899636 0.08540008
v 0.38832274 1.5828857 -0.1320285
v 0.4561621 1.5392761 -0.121918336
v 0.38832274 1.5828857 -0.1320285
v 0.42281067 1.4971858 -0.38667846
v 0.42281067 1.4971858 -0.38667846
v 0.38832274 1.5828857 -0.1320285
v 0.37754944 1.5941021 -0.37327453
v 0.42281067 1.4971858 -0.38667846
v 0.37754944 1.5941021 -0.37327453
v 0.26930785 1.4991043 -0.6048855
v 0.239823 1.5957693 -0.57252717
v 0.26930785 1.4991043 -0.6048855
v 0.239823 1.5957693 -0.57252717
v 0.028046874 1.5102468 -0.73413724
v 0.028046874 1.5102468 -0.73413724
v 0.239823 1.5957693 -0.57252717
v 0.017250367 1.5850484 -0.6751227
v 0.017250367 1.5850484 -0.6751227
v -0.2230432 1.5859213 -0.65304166
v 0.028046874 1.5102468 -0.73413724
v 0.028046874 1.5102468 -0.73413724
v -0.2230432 1.5859213 -0.65304166
v -0.24563964 1.4970894 -0.70903504
v -0.2230432 1.5859213 -0.65304166
v -0.42132628 1.5844828 -0.5166623
v -0.24563964 1.4970894 -0.70903504
v -0.24563964 1.4970894 -0.70903504
v -0.42132628 1.5844828 -0.5166623
v -0.46735168 1.5148705 -0.55218536
v -0.42132628 1.5844828 -0.5166623
v -0.527713 1.5873225 -0.3047476
v -0.46735168 1.5148705 -0.55218536
v -0.5874725 1.5102465 -0.31557372
v 0.16653137 1.5975513 -0.16209534
v 0.10729126 1.60807 -0.052690733
v -0.06837768 1.5979729 -0.21800597
v -0.30280456 1.5960515 -0.27425322
v -0.2438208 1.6011775 -0.3816864
v -0.06837768 1.5979729 -0.21800597
v -0.29925293 1.5952609 -0.14874877
vt 0.22932017 0.81670713
vt 0.22163785 0.8243895
vt 0.21114355 0.8053733
vt 0.21114355 0.8272014
vt 0.20064926 0.82438946
vt 0.21114355 0.8053733
vt 0.19296688 0.81670713
vt 0.19015497 0.80621284
vt 0.19296694 0.79571855
vt 0.20064926 0.78803617
vt 0.21114355 0.78522426
vt 0.22163785 0.78803617
vt 0.22932023 0.79571855
vt 0.23213214 0.80621284
vt 0.22049266 0.8223143
vt 0.22733665 0.81547034
vt 0.2158181 0.8138438
vt 0.2158181 0.8138438
vt 0.22733665 0.81547034
vt 0.21924007 0.8104218
vt 0.22984171 0.80612123
vt 0.22049266 0.8057473
vt 0.22733665 0.7967721
vt 0.21114355 0.8053733
vt 0.22049266 0.78992814
vt 0.21924007 0.8010727
vt 0.21114355 0.8248194
vt 0.22049266 0.8223143
vt 0.21114355 0.8150964
vt 0.2158181 0.8138438
vt 0.206469 0.8138438
vt 0.2017945 0.8223143
vt 0.206469 0.8138438
vt 0.20304704 0.8104218
vt 0.21114355 0.8053733
vt 0.19495046 0.81547034
vt 0.2017945 0.8223143
vt 0.20304704 0.8104218
vt 0.1924454 0.80612123
vt 0.2017945 0.8057473
vt 0.20304704 0.8010727
vt 0.1924454 0.80612123
vt 0.19495046 0.7967721
vt 0.2017945 0.8057473
vt 0.19495046 0.81547034
vt 0.20304704 0.8104218
vt 0.2017945 0.78992814
vt 0.19495046 0.7967721
vt 0.206469 0.7976507
vt 0.21114355 0.79639816
vt 0.21114355 0.8053733
vt 0.21114355 0.8150964
vt 0.2158181 0.8138438
vt 0.206469 0.8138438
vt 0.20304704 0.8010727
vt 0.2017945 0.8057473
vt 0.206469 0.7976507
vt 0.19495046 0.7967721
vt 0.20304704 0.8010727
vt 0.2158181 0.7976507
vt 0.21114355 0.79639816
vt 0.21924007 0.8010727
vt 0.22049266 0.78992814
vt 0.21114355 0.7874231
vt 0.21114355 0.79639816
vt 0.2017945 0.78992814
vt 0.22049266 0.8057473
vt 0.22733665 0.7967721
vt 0.21924007 0.8010727
vt 0.22932017 0.81670713
vt 0.22163785 0.8243895
vt 0.22932017 0.81670713
vt 0.22163785 0.8243895
vt 0.22163785 0.8243895
vt 0.21114355 0.8272014
vt 0.22163785 0.8243895
vt 0.21114355 0.8272014
vt 0.20064926 0.82438946
vt 0.20064926 0.82438946
vt 0.21114355 0.8272014
vt 0.21114355 0.8272014
vt 0.19296688 0.81670713
vt 0.19296688 0.81670713
vt 0.20064926 0.82438946
vt 0.20064926 0.82438946
vt 0.19015497 0.80621284
vt 0.19015497 0.80621284
vt 0.19296688 0.81670713
vt 0.19296688 0.81670713
vt 0.19296694 0.79571855
vt 0.19296694 0.79571855
vt 0.19015497 0.80621284
vt 0.19015497 0.80621284
vt 0.19296694 0.79571855
vt 0.19015497 0.80621284
vt 0.20064926 0.7880362
vt 0.20064926 0.78803617
vt 0.19296694 0.79571855
vt 0.19296694 0.79571855
vt 0.21114355 0.78522426
vt 0.21114355 0.78522426
vt 0.20064926 0.7880362
vt 0.20064926 0.78803617
vt 0.21114355 0.78522426
vt 0.22163785 0.7880362
vt 0.21114355 0.78522426
vt 0.22163785 0.78803617
vt 0.22163785 0.7880362
vt 0.22932023 0.7957186
vt 0.22163785 0.78803617
vt 0.22932023 0.79571855
vt 0.22932023 0.7957186
vt 0.23213214 0.80621284
vt 0.22932023 0.79571855
vt 0.22932023 0.79571855
vt 0.23213214 0.80621284
vt 0.23213214 0.80621284
vt 0.23213214 0.80621284
vt 0.22932017 0.81670713
vt 0.23213214 0.80621284
vt 0.22932017 0.81670713
vt 0.22932017 0.81670713
vt 0.23213214 0.80621284
vt 0.22733665 0.81547034
vt 0.22733665 0.81547034
vt 0.23213214 0.80621284
vt 0.22984171 0.80612123
vt 0.22733665 0.81547034
vt 0.22049266 0.8223143
vt 0.22932017 0.81670713
vt 0.22932017 0.81670713
vt 0.22049266 0.8223143
vt 0.22163785 0.8243895
vt 0.22049266 0.8223143
vt 0.21114355 0.8248194
vt 0.22163785 0.8243895
vt 0.21114355 0.8272014
vt 0.21114355 0.8272014
vt 0.21114355 0.8248194
vt 0.20064926 0.82438946
vt 0.2017945 0.8223143
vt 0.20064926 0.82438946
vt 0.2017945 0.8223143
vt 0.19296688 0.81670713
vt 0.19296688 0.81670713
vt 0.2017945 0.8223143
vt 0.19495046 0.81547034
vt 0.19296688 0.81670713
vt 0.19495046 0.81547034
vt 0.19015497 0.80621284
vt 0.19015497 0.80621284
vt 0.19495046 0.81547034
vt 0.1924454 0.80612123
vt 0.19015497 0.80621284
vt 0.1924454 0.80612123
vt 0.19296694 0.79571855
vt 0.19296694 0.79571855
vt 0.1924454 0.80612123
vt 0.19495046 0.7967721
vt 0.19296694 0.79571855
vt 0.19495046 0.7967721
vt 0.20064926 0.7880362
vt 0.2017945 0.78992814
vt 0.20064926 0.7880362
vt 0.2017945 0.78992814
vt 0.21114355 0.78522426
vt 0.21114355 0.78522426
vt 0.2017945 0.78992814
vt 0.21114355 0.7874231
vt 0.21114355 0.7874231
vt 0.22049266 0.78992814
vt 0.21114355 0.78522426
vt 0.21114355 0.78522426
vt 0.22049266 0.78992814
vt 0.22163785 0.7880362
vt 0.22049266 0.78992814
vt 0.22733665 0.7967721
vt 0.22163785 0.7880362
vt 0.22163785 0.7880362
vt 0.22733665 0.7967721
vt 0.22932023 0.7957186
vt 0.22733665 0.7967721
vt 0.22984171 0.80612123
vt 0.22932023 0.7957186
vt 0.23213214 0.80621284
vt 0.2017945 0.8057473
vt 0.20304704 0.8104218
vt 0.21114355 0.8053733
vt 0.22049266 0.8057473
vt 0.21924007 0.8010727
vt 0.21114355 0.8053733
vt 0.21924007 0.8104218
vn -0.022438046 -0.9995091 -0.021864139
vn -0.022438046 -0.9995091 -0.021864139
vn -0.022438046 -0.9995091 -0.021864139
vn 0.011172768 -0.99991274 0.0070582908
vn 0.015406003 -0.9998504 0.007861084
vn 0.015406003 -0.9998504 0.007861084
vn -0.012464013 -0.9997687 0.01752568
vn -0.0071721356 -0.9999088 0.011441946
vn -0.005237602 -0.99998546 0.0013088125
vn -0.0003401683 -0.9998834 0.015267814
vn -0.0028469209 -0.99990976 0.013128576
vn -0.02824956 -0.9995653 0.008427678
vn -0.0020709233 -0.9999975 -0.0008170202
vn -0.015377945 -0.9997719 0.014820754
vn -0.06435654 0.99777895 0.017184323
vn -0.06435654 0.99777895 0.017184323
vn -0.06435654 0.99777895 0.017184323
vn -0.060812388 0.9976433 -0.03177309
vn -0.060812388 0.9976433 -0.03177309
vn -0.060812388 0.9976433 -0.03177309
vn -0.034597673 0.9989279 -0.030758139
vn -0.034597673 0.9989279 -0.030758139
vn -0.048337534 0.997042 -0.059754767
vn -0.027433122 0.998251 -0.05236647
vn -0.048337534 0.997042 -0.059754767
vn -0.048337534 0.997042 -0.059754767
vn -0.014533303 0.9977164 0.06595967
vn -0.014533303 0.9977164 0.06595967
vn -0.014533303 0.9977164 0.06595967
vn -0.02243103 0.9985165 0.049614374
vn 0.024097873 0.9971789 0.071087725
vn -0.040222913 0.9988176 0.027300488
vn -0.040222913 0.9988176 0.027300488
vn -0.05998161 0.9975727 0.03536895
vn -0.0721749 0.9972671 0.01578198
vn 0.066786066 0.99680233 0.04387066
vn 0.066786066 0.99680233 0.04387066
vn 0.066786066 0.99680233 0.04387066
vn 0.06618919 0.9978059 -0.0015775192
vn 0.06618919 0.9978059 -0.0015775192
vn 0.038398195 0.99826247 0.04469458
vn 0.038398195 0.99826247 0.04469458
vn 0.038398195 0.99826247 0.04469458
vn 0.122421086 0.99205196 -0.02908458
vn 0.122421086 0.99205196 -0.02908458
vn 0.122421086 0.99205196 -0.02908458
vn 0.00071066286 0.99996877 0.007873684
vn 0.00071066286 0.99996877 0.007873684
vn 0.00071066286 0.99996877 0.007873684
vn 0.017454453 0.99962676 0.021017436
vn 0.012631594 0.9998155 -0.014469497
vn 0.012631594 0.9998155 -0.014469497
vn 0.012631594 0.9998155 -0.014469497
vn 0.021951728 0.999684 -0.0122527
vn 4.5909732E-05 0.9999732 0.0073271873
vn 4.5909732E-05 0.9999732 0.0073271873
vn 0.003785361 0.99916196 -0.040756453
vn 0.003785361 0.99916196 -0.040756453
vn 0.003785361 0.99916196 -0.040756453
vn -0.00033754393 0.99906665 -0.043193873
vn -0.022558952 0.99972266 -0.006750189
vn 0.026076714 0.9981938 -0.054121207
vn -0.00033754393 0.99906665 -0.043193873
vn -0.020799533 0.99803144 -0.05916638
vn -0.020799533 0.99803144 -0.05916638
vn -0.020799533 0.99803144 -0.05916638
vn -0.09156221 0.9957956 -0.0027564808
vn -0.09156221 0.9957956 -0.0027564808
vn -0.09156221 0.9957956 -0.0027564808
vn -0.8227881 0.05558171 0.5656238
vn -0.8227881 0.05558171 0.5656238
vn -0.8227881 0.05558171 0.5656238
vn -0.8262204 0.06211178 0.5599125
vn -0.43751436 0.07159224 0.896357
vn -0.43751436 0.07159224 0.896357
vn -0.43751436 0.07159224 0.896357
vn -0.42991388 0.0626125 0.9006962
vn 0.101347506 0.069538616 0.9924178
vn 0.101347506 0.069538616 0.9924178
vn 0.101347506 0.069538616 0.9924178
vn 0.09246485 0.060199875 0.9938944
vn 0.5272135 0.0339397 0.8490548
vn 0.5272135 0.0339397 0.8490548
vn 0.5272135 0.0339397 0.8490548
vn 0.54915917 0.057915937 0.8337086
vn 0.9091476 0.02528007 0.415706
vn 0.9091476 0.02528007 0.415706
vn 0.9091476 0.02528007 0.415706
vn 0.9016107 0.008336909 0.43246812
vn 0.99146056 0.02245254 -0.12845956
vn 0.99146056 0.02245254 -0.12845956
vn 0.99146056 0.02245254 -0.12845956
vn 0.9959009 -0.011097491 -0.089767314
vn 0.9959009 -0.011097491 -0.089767314
vn 0.9959009 -0.011097491 -0.089767314
vn 0.81765556 0.029728938 -0.57493967
vn 0.81765556 0.029728938 -0.57493967
vn 0.81765556 0.029728938 -0.57493967
vn 0.8332248 0.0020755813 -0.5529304
vn 0.47224417 0.00020257712 -0.88146776
vn 0.47224417 0.00020257712 -0.88146776
vn 0.47224417 0.00020257712 -0.88146776
vn 0.45170912 0.024321191 -0.89183366
vn -0.091438465 0.002014256 -0.9958087
vn -0.091438465 0.002014256 -0.9958087
vn -0.091438465 0.002014256 -0.9958087
vn -0.108189546 -0.015763242 -0.9940054
vn -0.5778509 -0.006177192 -0.816119
vn -0.5778509 -0.006177192 -0.816119
vn -0.5778509 -0.006177192 -0.816119
vn -0.5666768 0.007272126 -0.8239081
vn -0.891564 0.026908075 -0.45209455
vn -0.891564 0.026908075 -0.45209455
vn -0.891564 0.026908075 -0.45209455
vn -0.9074348 -0.007658141 -0.42012313
vn -0.9074348 -0.007658141 -0.42012313
vn -0.9074348 -0.007658141 -0.42012313
vn -0.99785894 0.03103775 0.05756884
vn -0.99785894 0.03103775 0.05756884
vn -0.99785894 0.03103775 0.05756884
vn -0.99783796 0.0303257 0.05830761
vn -0.70089763 0.7131756 0.011095465
vn -0.70089763 0.7131756 0.011095465
vn -0.70089763 0.7131756 0.011095465
vn -0.79311436 0.6047278 0.07262126
vn -0.79311436 0.6047278 0.07262126
vn -0.79311436 0.6047278 0.07262126
vn -0.5733977 0.7326521 0.3666552
vn -0.5733977 0.7326521 0.3666552
vn -0.5733977 0.7326521 0.3666552
vn -0.5962766 0.6904633 0.40952978
vn -0.5962766 0.6904633 0.40952978
vn -0.5962766 0.6904633 0.40952978
vn -0.29836673 0.6971253 0.6519152
vn -0.29836673 0.6971253 0.6519152
vn -0.29836673 0.6971253 0.6519152
vn -0.29759642 0.67934626 0.67076445
vn 0.005363449 0.6821476 0.7311948
vn 0.005363449 0.6821476 0.7311948
vn 0.005363449 0.6821476 0.7311948
vn 0.008297414 0.6909449 0.7228598
vn 0.40589055 0.6855559 0.6043723
vn 0.40589055 0.6855559 0.6043723
vn 0.40589055 0.6855559 0.6043723
vn 0.39264277 0.7669425 0.5075734
vn 0.39264277 0.7669425 0.5075734
vn 0.39264277 0.7669425 0.5075734
vn 0.58880687 0.75166315 0.2971682
vn 0.58880687 0.75166315 0.2971682
vn 0.58880687 0.75166315 0.2971682
vn 0.5065295 0.83645123 0.20922984
vn 0.5065295 0.83645123 0.20922984
vn 0.5065295 0.83645123 0.20922984
vn 0.55074227 0.81078565 -0.19826679
vn 0.55074227 0.81078565 -0.19826679
vn 0.55074227 0.81078565 -0.19826679
vn 0.90477705 0.42538568 -0.020627929
vn 0.90477705 0.42538568 -0.020627929
vn 0.90477705 0.42538568 -0.020627929
vn 0.7441957 0.4194586 -0.5198339
vn 0.7441957 0.4194586 -0.5198339
vn 0.7441957 0.4194586 -0.5198339
vn 0.75427157 0.40344232 -0.5179852
vn 0.44649553 0.40351868 -0.7986328
vn 0.44649553 0.40351868 -0.7986328
vn 0.44649553 0.40351868 -0.7986328
vn 0.30485633 0.6166522 -0.7258118
vn 0.30485633 0.6166522 -0.7258118
vn 0.30485633 0.6166522 -0.7258118
vn -0.070191965 0.61161107 -0.7880387
vn -0.070191965 0.61161107 -0.7880387
vn -0.070191965 0.61161107 -0.7880387
vn -0.102482595 0.5489499 -0.82954884
vn -0.102482595 0.5489499 -0.82954884
vn -0.102482595 0.5489499 -0.82954884
vn -0.47505963 0.55252475 -0.684861
vn -0.47505963 0.55252475 -0.684861
vn -0.47505963 0.55252475 -0.684861
vn -0.4207267 0.6173777 -0.6647058
vn -0.4207267 0.6173777 -0.6647058
vn -0.4207267 0.6173777 -0.6647058
vn -0.6871682 0.6347028 -0.35348588
vn -0.6871682 0.6347028 -0.35348588
vn -0.6871682 0.6347028 -0.35348588
vn -0.715357 0.60399306 -0.35136402
vn 0.021773024 0.9962291 -0.08398558
vn 0.021773024 0.9962291 -0.08398558
vn 0.021773024 0.9962291 -0.08398558
vn -0.017339684 0.9991215 0.0381518
vn -0.017339684 0.9991215 0.0381518
vn -0.017339684 0.9991215 0.0381518
vn -0.009770688 0.9999306 0.0065779355
g boobyTrap01Platform_0
f 3/3/3 2/2/2 1/1/1
f 3/3/3 4/4/4 2/2/2
f 6/6/6 5/5/5 4/4/4
f 6/6/6 7/7/7 5/5/5
f 6/6/6 8/8/8 7/7/7
f 6/6/6 9/9/9 8/8/8
f 6/6/6 10/10/10 9/9/9
f 6/6/6 11/11/11 10/10/10
f 6/6/6 12/12/12 11/11/11
f 6/6/6 13/13/13 12/12/12
f 6/6/6 14/14/14 13/13/13
f 6/6/6 1/1/1 14/14/14
f 17/17/17 16/16/16 15/15/15
f 20/20/20 19/19/19 18/18/18
f 20/20/20 21/21/21 19/19/19
f 22/22/22 21/21/21 20/20/20
f 22/22/22 23/23/23 21/21/21
f 24/24/24 20/20/20 18/18/18
f 26/26/26 25/25/25 23/23/23
f 29/29/29 28/28/28 27/27/27
f 30/30/30 28/28/28 29/29/29
f 29/29/29 27/27/27 31/31/31
f 33/33/33 27/27/27 32/32/32
f 33/33/33 32/32/32 34/34/34
f 35/35/35 33/33/33 34/34/34
f 38/38/38 37/37/37 36/36/36
f 40/40/40 36/36/36 39/39/39
f 40/40/40 42/42/42 41/41/41
f 41/41/41 42/42/42 43/43/43
f 46/46/46 45/45/45 44/44/44
f 49/49/49 48/48/48 47/47/47
f 49/49/49 47/47/47 50/50/50
f 51/51/51 49/49/49 50/50/50
f 51/51/51 53/53/53 52/52/52
f 51/51/51 52/52/52 54/54/54
f 51/51/51 56/56/56 55/55/55
f 51/51/51 55/55/55 57/57/57
f 59/59/59 58/58/58 57/57/57
f 51/51/51 61/61/61 60/60/60
f 51/51/51 60/60/60 62/62/62
f 60/60/60 63/63/63 62/62/62
f 60/60/60 64/64/64 63/63/63
f 65/65/65 64/64/64 60/60/60
f 65/65/65 66/66/66 64/64/64
f 69/69/69 68/68/68 67/67/67
f 72/72/72 71/71/71 70/70/70
f 73/73/73 71/71/71 72/72/72
f 76/76/76 75/75/75 74/74/74
f 77/77/77 75/75/75 76/76/76
f 80/80/80 79/79/79 78/78/78
f 81/81/81 79/79/79 80/80/80
f 84/84/84 83/83/83 82/82/82
f 85/85/85 83/83/83 84/84/84
f 88/88/88 87/87/87 86/86/86
f 89/89/89 87/87/87 88/88/88
f 92/92/92 91/91/91 90/90/90
f 95/95/95 94/94/94 93/93/93
f 98/98/98 97/97/97 96/96/96
f 99/99/99 97/97/97 98/98/98
f 102/102/102 101/101/101 100/100/100
f 103/103/103 101/101/101 102/102/102
f 106/106/106 105/105/105 104/104/104
f 107/107/107 105/105/105 106/106/106
f 110/110/110 109/109/109 108/108/108
f 111/111/111 109/109/109 110/110/110
f 114/114/114 113/113/113 112/112/112
f 117/117/117 116/116/116 115/115/115
f 120/120/120 119/119/119 118/118/118
f 121/121/121 119/119/119 120/120/120
f 124/124/124 123/123/123 122/122/122
f 127/127/127 126/126/126 125/125/125
f 130/130/130 129/129/129 128/128/128
f 133/133/133 132/132/132 131/131/131
f 136/136/136 135/135/135 134/134/134
f 137/137/137 135/135/135 136/136/136
f 140/140/140 139/139/139 138/138/138
f 141/141/141 139/139/139 140/140/140
f 144/144/144 143/143/143 142/142/142
f 147/147/147 146/146/146 145/145/145
f 150/150/150 149/149/149 148/148/148
f 153/153/153 152/152/152 151/151/151
f 156/156/156 155/155/155 154/154/154
f 159/159/159 158/158/158 157/157/157
f 162/162/162 161/161/161 160/160/160
f 163/163/163 161/161/161 162/162/162
f 166/166/166 165/165/165 164/164/164
f 169/169/169 168/168/168 167/167/167
f 172/172/172 171/171/171 170/170/170
f 175/175/175 174/174/174 173/173/173
f 178/178/178 177/177/177 176/176/176
f 181/181/181 180/180/180 179/179/179
f 184/184/184 183/183/183 182/182/182
f 185/185/185 183/183/183 184/184/184
f 188/188/188 187/187/187 186/186/186
f 191/191/191 190/190/190 189/189/189
f 191/191/191 189/189/189 192/192/192
