g BrokenPlank
v 0.1124678 1.4276358 -0.023575753
v -0.035926666 1.4276358 -0.023575753
v 0.1124678 0.39697844 -0.023575753
v -0.035926666 -0.17734659 -0.023575753
v 0.02948883 -0.17734659 -0.023575753
v 0.033761747 0.18728934 -0.023575753
v 0.055931702 0.18841459 -0.023575753
v 0.02948883 -0.17734659 -0.023575753
v 0.033761747 0.18728934 -0.023575753
v -0.035926666 1.4276358 -0.023575753
v 0.055931702 0.18841459 -0.023575753
v 0.06255524 0.31833777 -0.023575753
v -0.035926666 1.4276358 -0.023575753
v 0.1124678 0.39697844 -0.023575753
v -0.035926666 1.4276358 -0.023575753
v 0.06255524 0.31833777 -0.023575753
v 0.1124678 1.4276358 0.024689233
v 0.1124678 0.39697844 0.024689233
v -0.035926666 1.4276358 0.024689233
v 0.06255524 0.31833777 0.024689233
v 0.055931702 0.18841459 0.024689233
v 0.033761747 0.18728934 0.024689233
v -0.035926666 -0.17734659 0.024689233
v 0.02948883 -0.17734659 0.024689233
v 0.02948883 -0.17734659 0.024689233
v -0.035926666 1.4276358 0.024689233
v 0.033761747 0.18728934 0.024689233
v 0.1124678 1.4276358 0.024689233
v -0.035926666 1.4276358 0.024689233
v 0.1124678 1.4276358 -0.023575753
v -0.035926666 1.4276358 -0.023575753
v -0.035926666 1.4276358 0.024689233
v -0.035926666 -0.17734659 0.024689233
v -0.035926666 1.4276358 -0.023575753
v -0.035926666 -0.17734659 -0.023575753
v -0.035926666 -0.17734659 0.024689233
v 0.02948883 -0.17734659 0.024689233
v -0.035926666 -0.17734659 -0.023575753
v 0.02948883 -0.17734659 -0.023575753
v 0.02948883 -0.17734659 0.024689233
v 0.033761747 0.18728934 0.024689233
v 0.02948883 -0.17734659 -0.023575753
v 0.033761747 0.18728934 -0.023575753
v 0.033761747 0.18728934 0.024689233
v 0.055931702 0.18841459 0.024689233
v 0.033761747 0.18728934 -0.023575753
v 0.055931702 0.18841459 -0.023575753
v 0.055931702 0.18841459 0.024689233
v 0.06255524 0.31833777 0.024689233
v 0.055931702 0.18841459 -0.023575753
v 0.06255524 0.31833777 -0.023575753
v 0.06255524 0.31833777 0.024689233
v 0.1124678 0.39697844 0.024689233
v 0.06255524 0.31833777 -0.023575753
v 0.1124678 0.39697844 -0.023575753
v 0.1124678 0.39697844 0.024689233
v 0.1124678 1.4276358 0.024689233
v 0.1124678 0.39697844 -0.023575753
v 0.1124678 1.4276358 0.024689233
v 0.1124678 1.4276358 -0.023575753
v 0.1124678 0.39697844 -0.023575753
v 0.2833835 1.3203655 -0.03744955
v 0.2883783 1.3370516 -0.043587256
v -0.04487564 1.3199141 -0.03744955
v -0.05428909 1.3370268 -0.043587256
v 0.27534696 1.355688 -0.03744955
v 0.27534696 1.355688 0.037250057
v -0.042497862 1.3561395 -0.03744955
v -0.042497862 1.3561395 0.037250057
v 0.2883783 1.3370516 0.043587264
v 0.2833835 1.3203655 0.037250057
v -0.04912979 1.3370268 0.043587264
v -0.04487564 1.3199141 0.037250057
v 0.2833835 1.3203655 0.037250057
v 0.2833835 1.3203655 -0.03744955
v -0.04487564 1.3199141 0.037250057
v -0.04487564 1.3199141 -0.03744955
v -0.04487564 1.3199141 0.037250057
v -0.04487564 1.3199141 -0.03744955
v -0.04912979 1.3370268 0.043587264
v -0.04487564 1.3199141 -0.03744955
v -0.05428909 1.3370268 -0.043587256
v -0.04912979 1.3370268 0.043587264
v 0.2833835 1.3203655 -0.03744955
v 0.2833835 1.3203655 0.037250057
v 0.2883783 1.3370516 -0.043587256
v 0.2883783 1.3370516 0.043587264
v 0.2883783 1.3370516 0.043587264
v 0.27534696 1.355688 0.037250057
v 0.2883783 1.3370516 -0.043587256
v 0.27534696 1.355688 -0.03744955
v -0.042497862 1.3561395 0.037250057
v 0.27534696 1.355688 0.037250057
v -0.04912979 1.3370268 0.043587264
v 0.2883783 1.3370516 0.043587264
v -0.05428909 1.3370268 -0.043587256
v -0.042497862 1.3561395 -0.03744955
v -0.04912979 1.3370268 0.043587264
v -0.042497862 1.3561395 -0.03744955
v -0.042497862 1.3561395 0.037250057
v -0.04912979 1.3370268 0.043587264
v 0.2883783 1.3370516 -0.043587256
v 0.27534696 1.355688 -0.03744955
v -0.05428909 1.3370268 -0.043587256
v -0.042497862 1.3561395 -0.03744955
v 0.23477218 0.8582137 -0.023575759
v 0.27436355 1.2574593 -0.023575759
v 0.19905074 0.9340571 -0.023575759
v 0.2588989 1.4276358 -0.023575759
v 0.12596908 1.4276358 -0.023575759
v 0.27436355 1.2574593 -0.023575759
v 0.19905074 0.9340571 -0.023575759
v 0.12596908 0.42225224 -0.023575759
v 0.18173172 0.496368 -0.023575759
v 0.12596908 1.4276358 -0.023575759
v 0.18173172 0.496368 -0.023575759
v 0.20320511 0.6140974 -0.023575759
v 0.12596908 1.4276358 -0.023575759
v 0.27436355 0.6352138 -0.023575759
v 0.24972136 0.7403148 -0.023575759
v 0.20320511 0.6140974 -0.023575759
v 0.19734009 0.7719732 -0.023575759
v 0.20320511 0.6140974 -0.023575759
v 0.19734009 0.7719732 -0.023575759
v 0.12596908 1.4276358 -0.023575759
v 0.19734009 0.7719732 -0.023575759
v 0.19905074 0.9340571 -0.023575759
v 0.12596908 1.4276358 -0.023575759
v 0.23477218 0.8582137 0.024689233
v 0.19905074 0.9340571 0.024689233
v 0.27436355 1.2574593 0.024689233
v 0.12596908 0.42225224 0.024689233
v 0.12596908 1.4276358 0.024689233
v 0.18173172 0.496368 0.024689233
v 0.18173172 0.496368 0.024689233
v 0.12596908 1.4276358 0.024689233
v 0.20320511 0.6140974 0.024689233
v 0.27436355 0.6352138 0.024689233
v 0.20320511 0.6140974 0.024689233
v 0.24972136 0.7403148 0.024689233
v 0.19734009 0.7719732 0.024689233
v 0.2588989 1.4276358 0.024689233
v 0.27436355 1.2574593 0.024689233
v 0.12596908 1.4276358 0.024689233
v 0.19905074 0.9340571 0.024689233
v 0.20320511 0.6140974 0.024689233
v 0.12596908 1.4276358 0.024689233
v 0.19734009 0.7719732 0.024689233
v 0.19734009 0.7719732 0.024689233
v 0.12596908 1.4276358 0.024689233
v 0.19905074 0.9340571 0.024689233
v 0.2588989 1.4276358 0.024689233
v 0.12596908 1.4276358 0.024689233
v 0.2588989 1.4276358 -0.023575759
v 0.12596908 1.4276358 -0.023575759
v 0.12596908 1.4276358 0.024689233
v 0.12596908 0.42225224 0.024689233
v 0.12596908 1.4276358 -0.023575759
v 0.12596908 0.42225224 -0.023575759
v 0.12596908 0.42225224 0.024689233
v 0.18173172 0.496368 0.024689233
v 0.12596908 0.42225224 -0.023575759
v 0.18173172 0.496368 -0.023575759
v 0.18173172 0.496368 0.024689233
v 0.20320511 0.6140974 0.024689233
v 0.18173172 0.496368 -0.023575759
v 0.20320511 0.6140974 -0.023575759
v 0.20320511 0.6140974 0.024689233
v 0.27436355 0.6352138 0.024689233
v 0.20320511 0.6140974 -0.023575759
v 0.27436355 0.6352138 -0.023575759
v 0.27436355 0.6352138 0.024689233
v 0.24972136 0.7403148 0.024689233
v 0.27436355 0.6352138 -0.023575759
v 0.24972136 0.7403148 -0.023575759
v 0.24972136 0.7403148 0.024689233
v 0.19734009 0.7719732 0.024689233
v 0.24972136 0.7403148 -0.023575759
v 0.19734009 0.7719732 -0.023575759
v 0.19734009 0.7719732 0.024689233
v 0.19905074 0.9340571 0.024689233
v 0.19734009 0.7719732 -0.023575759
v 0.19905074 0.9340571 -0.023575759
v 0.19905074 0.9340571 0.024689233
v 0.23477218 0.8582137 0.024689233
v 0.19905074 0.9340571 -0.023575759
v 0.23477218 0.8582137 -0.023575759
v 0.23477218 0.8582137 0.024689233
v 0.27436355 1.2574593 0.024689233
v 0.23477218 0.8582137 -0.023575759
v 0.27436355 1.2574593 0.024689233
v 0.27436355 1.2574593 -0.023575759
v 0.23477218 0.8582137 -0.023575759
v 0.27436355 1.2574593 0.024689233
v 0.2588989 1.4276358 0.024689233
v 0.27436355 1.2574593 -0.023575759
v 0.2588989 1.4276358 -0.023575759
v 0.2734871 0.6696445 -0.034233056
v 0.27848205 0.6863307 -0.040370762
v -0.04487564 0.6691931 -0.034233056
v -0.05428909 0.6863058 -0.040370762
v 0.26545045 0.7049671 -0.034233056
v 0.26545045 0.7049671 0.0360408
v -0.042497862 0.7054184 -0.034233056
v -0.042497862 0.7054184 0.0360408
v 0.27848205 0.6863307 0.042377997
v 0.2734871 0.6696445 0.0360408
v -0.04912979 0.6863058 0.042377997
v -0.04487564 0.6691931 0.0360408
v 0.2734871 0.6696445 0.0360408
v 0.2734871 0.6696445 -0.034233056
v -0.04487564 0.6691931 0.0360408
v -0.04487564 0.6691931 -0.034233056
v -0.04487564 0.6691931 0.0360408
v -0.04487564 0.6691931 -0.034233056
v -0.04912979 0.6863058 0.042377997
v -0.04487564 0.6691931 -0.034233056
v -0.05428909 0.6863058 -0.040370762
v -0.04912979 0.6863058 0.042377997
v 0.2734871 0.6696445 -0.034233056
v 0.2734871 0.6696445 0.0360408
v 0.27848205 0.6863307 -0.040370762
v 0.27848205 0.6863307 0.042377997
v 0.27848205 0.6863307 0.042377997
v 0.26545045 0.7049671 0.0360408
v 0.27848205 0.6863307 -0.040370762
v 0.26545045 0.7049671 -0.034233056
v -0.042497862 0.7054184 0.0360408
v 0.26545045 0.7049671 0.0360408
v -0.04912979 0.6863058 0.042377997
v 0.27848205 0.6863307 0.042377997
v -0.05428909 0.6863058 -0.040370762
v -0.042497862 0.7054184 -0.034233056
v -0.04912979 0.6863058 0.042377997
v -0.042497862 0.7054184 -0.034233056
v -0.042497862 0.7054184 0.0360408
v -0.04912979 0.6863058 0.042377997
v 0.27848205 0.6863307 -0.040370762
v 0.26545045 0.7049671 -0.034233056
v -0.05428909 0.6863058 -0.040370762
v -0.042497862 0.7054184 -0.034233056
vt 0.2843895 0.8576515
vt 0.27550837 0.85764515
vt 0.28447473 0.7989769
vt 0.27641782 0.7691159
vt 0.27998933 0.7691329
vt 0.28010783 0.78784966
vt 0.2813424 0.78791344
vt 0.27998933 0.7691329
vt 0.28010783 0.78784966
vt 0.27550837 0.85764515
vt 0.2813424 0.78791344
vt 0.281681 0.7947694
vt 0.27550837 0.85764515
vt 0.28447473 0.7989769
vt 0.27550837 0.85764515
vt 0.281681 0.7947694
vt 0.2843967 0.8575323
vt 0.28448212 0.79844004
vt 0.27544725 0.85752594
vt 0.2816682 0.7942046
vt 0.28132725 0.7873036
vt 0.2800839 0.78723943
vt 0.27636847 0.76838654
vt 0.279965 0.76840377
vt 0.279965 0.76840377
vt 0.27544725 0.85752594
vt 0.2800839 0.78723943
vt 0.2843967 0.8575323
vt 0.27544725 0.85752594
vt 0.2843895 0.8576515
vt 0.27550837 0.85764515
vt 0.27544725 0.85752594
vt 0.27636847 0.76838654
vt 0.27550837 0.85764515
vt 0.27641782 0.7691159
vt 0.27636847 0.76838654
vt 0.279965 0.76840377
vt 0.27641782 0.7691159
vt 0.27998933 0.7691329
vt 0.279965 0.76840377
vt 0.2800839 0.78723943
vt 0.27998933 0.7691329
vt 0.28010783 0.78784966
vt 0.2800839 0.78723943
vt 0.28132725 0.7873036
vt 0.28010783 0.78784966
vt 0.2813424 0.78791344
vt 0.28132725 0.7873036
vt 0.2816682 0.7942046
vt 0.2813424 0.78791344
vt 0.281681 0.7947694
vt 0.2816682 0.7942046
vt 0.28448212 0.79844004
vt 0.281681 0.7947694
vt 0.28447473 0.7989769
vt 0.28448212 0.79844004
vt 0.2843967 0.8575323
vt 0.28447473 0.7989769
vt 0.2843967 0.8575323
vt 0.2843895 0.8576515
vt 0.28447473 0.7989769
vt 0.60090524 0.96676683
vt 0.6021301 0.9709948
vt 0.5197791 0.96657354
vt 0.51743823 0.9709078
vt 0.59899276 0.9755453
vt 0.59951776 0.97456765
vt 0.52027124 0.97558665
vt 0.5198616 0.97460854
vt 0.6027862 0.96979105
vt 0.6014518 0.9656874
vt 0.51821494 0.96970296
vt 0.5193644 0.9654908
vt 0.6014518 0.9656874
vt 0.60090524 0.96676683
vt 0.5193644 0.9654908
vt 0.5197791 0.96657354
vt 0.5193644 0.9654908
vt 0.5197791 0.96657354
vt 0.51821494 0.96970296
vt 0.5197791 0.96657354
vt 0.51743823 0.9709078
vt 0.51821494 0.96970296
vt 0.60090524 0.96676683
vt 0.6014518 0.9656874
vt 0.6021301 0.9709948
vt 0.6027862 0.96979105
vt 0.6027862 0.96979105
vt 0.59951776 0.97456765
vt 0.6021301 0.9709948
vt 0.59899276 0.9755453
vt 0.5198616 0.97460854
vt 0.59951776 0.97456765
vt 0.51821494 0.96970296
vt 0.6027862 0.96979105
vt 0.51743823 0.9709078
vt 0.52027124 0.97558665
vt 0.51821494 0.96970296
vt 0.52027124 0.97558665
vt 0.5198616 0.97460854
vt 0.51821494 0.96970296
vt 0.6021301 0.9709948
vt 0.59899276 0.9755453
vt 0.51743823 0.9709078
vt 0.52027124 0.97558665
vt 0.2915104 0.82438254
vt 0.29398733 0.8474793
vt 0.28946108 0.8286827
vt 0.29314607 0.8576577
vt 0.28519717 0.857652
vt 0.29398733 0.8474793
vt 0.28946108 0.8286827
vt 0.28523448 0.80033636
vt 0.28839052 0.8043479
vt 0.28519717 0.857652
vt 0.28839052 0.8043479
vt 0.28963184 0.81077653
vt 0.28519717 0.857652
vt 0.29369742 0.8119494
vt 0.29233027 0.81776816
vt 0.28963184 0.81077653
vt 0.2893289 0.8195285
vt 0.28963184 0.81077653
vt 0.2893289 0.8195285
vt 0.28519717 0.857652
vt 0.2893289 0.8195285
vt 0.28946108 0.8286827
vt 0.28519717 0.857652
vt 0.29157028 0.82402015
vt 0.28950593 0.82835084
vt 0.2940675 0.847284
vt 0.2852474 0.7998086
vt 0.28521055 0.8575329
vt 0.2884264 0.80384713
vt 0.2884264 0.80384713
vt 0.28521055 0.8575329
vt 0.28967708 0.81031954
vt 0.29377252 0.81150055
vt 0.28967708 0.81031954
vt 0.29239577 0.8173595
vt 0.28937232 0.8191321
vt 0.29322055 0.85753864
vt 0.2940675 0.847284
vt 0.28521055 0.8575329
vt 0.28950593 0.82835084
vt 0.28967708 0.81031954
vt 0.28521055 0.8575329
vt 0.28937232 0.8191321
vt 0.28937232 0.8191321
vt 0.28521055 0.8575329
vt 0.28950593 0.82835084
vt 0.29322055 0.85753864
vt 0.28521055 0.8575329
vt 0.29314607 0.8576577
vt 0.28519717 0.857652
vt 0.28521055 0.8575329
vt 0.2852474 0.7998086
vt 0.28519717 0.857652
vt 0.28523448 0.80033636
vt 0.2852474 0.7998086
vt 0.2884264 0.80384713
vt 0.28523448 0.80033636
vt 0.28839052 0.8043479
vt 0.2884264 0.80384713
vt 0.28967708 0.81031954
vt 0.28839052 0.8043479
vt 0.28963184 0.81077653
vt 0.28967708 0.81031954
vt 0.29377252 0.81150055
vt 0.28963184 0.81077653
vt 0.29369742 0.8119494
vt 0.29377252 0.81150055
vt 0.29239577 0.8173595
vt 0.29369742 0.8119494
vt 0.29233027 0.81776816
vt 0.29239577 0.8173595
vt 0.28937232 0.8191321
vt 0.29233027 0.81776816
vt 0.2893289 0.8195285
vt 0.28937232 0.8191321
vt 0.28950593 0.82835084
vt 0.2893289 0.8195285
vt 0.28946108 0.8286827
vt 0.28950593 0.82835084
vt 0.29157028 0.82402015
vt 0.28946108 0.8286827
vt 0.2915104 0.82438254
vt 0.29157028 0.82402015
vt 0.2940675 0.847284
vt 0.2915104 0.82438254
vt 0.2940675 0.847284
vt 0.29398733 0.8474793
vt 0.2915104 0.82438254
vt 0.2940675 0.847284
vt 0.29322055 0.85753864
vt 0.29398733 0.8474793
vt 0.29314607 0.8576577
vt 0.59722567 0.95525926
vt 0.5984054 0.95932907
vt 0.52144027 0.95495003
vt 0.51918584 0.9591123
vt 0.5953761 0.96339536
vt 0.59581244 0.9608331
vt 0.5219178 0.9633073
vt 0.5215647 0.9607418
vt 0.5989575 0.9562609
vt 0.5976809 0.95261496
vt 0.5199804 0.95604205
vt 0.5210828 0.9523003
vt 0.5976809 0.95261496
vt 0.59722567 0.95525926
vt 0.5210828 0.9523003
vt 0.52144027 0.95495003
vt 0.5210828 0.9523003
vt 0.52144027 0.95495003
vt 0.5199804 0.95604205
vt 0.52144027 0.95495003
vt 0.51918584 0.9591123
vt 0.5199804 0.95604205
vt 0.59722567 0.95525926
vt 0.5976809 0.95261496
vt 0.5984054 0.95932907
vt 0.5989575 0.9562609
vt 0.5989575 0.9562609
vt 0.59581244 0.9608331
vt 0.5984054 0.95932907
vt 0.5953761 0.96339536
vt 0.5215647 0.9607418
vt 0.59581244 0.9608331
vt 0.5199804 0.95604205
vt 0.5989575 0.9562609
vt 0.51918584 0.9591123
vt 0.5219178 0.9633073
vt 0.5199804 0.95604205
vt 0.5219178 0.9633073
vt 0.5215647 0.9607418
vt 0.5199804 0.95604205
vt 0.5984054 0.95932907
vt 0.5953761 0.96339536
vt 0.51918584 0.9591123
vt 0.5219178 0.9633073
vn -0 0 -1
vn -0 0 -1
vn -0 0 -1
vn -0 0 -1
vn -0 0 -1
vn -0 0 -1
vn -0 0 -1
vn 1.9874169E-07 0 -1
vn 1.9874167E-07 0 -1
vn 1.9874167E-07 0 -1
vn -0 0 -1
vn -0 0 -1
vn -0 0 -1
vn -0 0 -1
vn -0 0 -1
vn -0 0 -1
vn -0 0 1
vn -0 0 1
vn -0 0 1
vn -0 0 1
vn -0 0 1
vn -0 0 1
vn -0 0 1
vn -0 0 1
vn 1.9874166E-07 0 1
vn 1.9874166E-07 0 1
vn 1.9874166E-07 0 1
vn -0 1 0
vn -0 1 0
vn -0 1 0
vn -0 1 0
vn -1 0 0
vn -1 0 0
vn -1 0 0
vn -1 0 0
vn -0 -1 0
vn -0 -1 0
vn -0 -1 0
vn -0 -1 0
vn 0.99993134 -0.011717504 0
vn 0.99993134 -0.011717502 0
vn 0.99993134 -0.011717504 0
vn 0.99993134 -0.011717516 0
vn 0.05068995 -0.99871445 0
vn 0.050689947 -0.99871445 0
vn 0.050689947 -0.99871445 0
vn 0.05068995 -0.99871445 0
vn 0.998703 -0.050914288 0
vn 0.998703 -0.050914284 0
vn 0.998703 -0.050914284 0
vn 0.998703 -0.050914228 0
vn 0.84430027 -0.5358703 0
vn 0.84430027 -0.5358704 0
vn 0.84430027 -0.5358703 0
vn 0.84430027 -0.5358703 0
vn 1 0 0
vn 1 0 0
vn 1 0 0
vn 1 0 0
vn 1 0 0
vn 1 0 0
vn 0.00047501692 -0.34534338 -0.9384763
vn 0.00047501686 -0.34534335 -0.9384763
vn 0.00047501692 -0.3453434 -0.9384763
vn 2.4494519E-05 -0.3375957 -0.94129115
vn 0.0014205268 0.99999905 0
vn 0.0014205269 0.99999905 0
vn 0.0014205269 0.99999905 0
vn 0.0014205268 0.99999905 0
vn 2.6169137E-05 -0.35505733 0.93484455
vn 2.6169138E-05 -0.35505733 0.93484455
vn 2.6169133E-05 -0.35505727 0.93484455
vn 0.00047751403 -0.347169 0.93780243
vn 0.0013754596 -0.99999905 0
vn 0.0013754594 -0.99999905 0
vn 0.0013754594 -0.99999905 0
vn 0.0013754596 -0.99999905 0
vn -0.9704625 -0.24125212 0
vn -0.9704625 -0.24125212 0
vn -0.9704625 -0.24125214 0
vn -0.88278306 -0.46686652 0.052246664
vn -0.88278306 -0.46686658 0.052246664
vn -0.88278306 -0.4668666 0.05224667
vn 0.95800006 -0.28676787 0
vn 0.95800006 -0.28676787 0
vn 0.95800006 -0.28676784 0
vn 0.9580003 -0.28676724 0
vn 0.8195236 0.57304555 0
vn 0.8195235 0.57304555 0
vn 0.8195236 0.57304555 0
vn 0.81952405 0.5730447 0
vn 0.00044689263 0.3145879 0.9492282
vn 0.00044689263 0.3145879 0.9492282
vn 0.00044689266 0.3145879 0.9492282
vn -2.3726989E-05 0.32192278 0.9467659
vn -0.85717225 0.51252526 0.05073065
vn -0.85717225 0.51252526 0.05073065
vn -0.8571723 0.51252514 0.050730646
vn -0.9447415 0.32781646 0
vn -0.94474137 0.32781646 0
vn -0.94474137 0.32781646 0
vn -2.270782E-05 0.3127971 -0.94982
vn -2.2707824E-05 0.31279716 -0.9498199
vn -2.2707824E-05 0.31279716 -0.9498199
vn 0.00043399306 0.30551174 -0.95218825
vn -0 0 -1
vn -0 0 -1
vn -0 0 -1
vn -0 0 -1
vn -0 0 -1
vn -0 0 -1
vn -0 0 -1
vn -0 0 -1
vn -0 0 -1
vn -0 0 -1
vn 1.436127E-07 0 -1
vn 1.4361271E-07 0 -1
vn 1.4361271E-07 0 -1
vn -0 0 -1
vn -0 0 -1
vn -0 0 -1
vn -0 0 -1
vn -2.0558097E-07 0 -1
vn -2.05581E-07 0 -1
vn -2.0558099E-07 0 -1
vn -0 0 -1
vn -0 0 -1
vn -0 0 -1
vn -0 0 1
vn -0 0 1
vn -0 0 1
vn -0 0 1
vn -0 0 1
vn -0 0 1
vn 1.1489019E-07 0 1
vn 1.148902E-07 0 1
vn 1.148902E-07 0 1
vn -0 0 1
vn -0 0 1
vn -0 0 1
vn -0 0 1
vn -0 0 1
vn -0 0 1
vn -0 0 1
vn -0 0 1
vn -0 0 1
vn -0 0 1
vn -0 0 1
vn -2.4049075E-07 0 1
vn -2.4049072E-07 0 1
vn -2.4049075E-07 0 1
vn -0 1 0
vn -0 1 0
vn -0 1 0
vn -0 1 0
vn -1 0 0
vn -1 0 0
vn -1 0 0
vn -1 0 0
vn 0.7990892 -0.6012126 0
vn 0.7990892 -0.60121256 0
vn 0.7990892 -0.6012126 0
vn 0.7990892 -0.6012126 0
vn 0.9837698 -0.1794356 0
vn 0.9837698 -0.17943558 0
vn 0.9837698 -0.17943558 0
vn 0.98376966 -0.1794358 0
vn 0.28448942 -0.9586792 0
vn 0.28448942 -0.9586792 0
vn 0.2844894 -0.9586792 0
vn 0.2844896 -0.9586791 0
vn 0.9735975 0.22827144 0
vn 0.9735975 0.22827144 0
vn 0.9735975 0.22827144 0
vn 0.9735975 0.22827144 0
vn 0.5172517 0.85583335 0
vn 0.5172517 0.85583335 0
vn 0.5172517 0.85583335 0
vn 0.51725173 0.85583335 0
vn 0.9999443 -0.010553613 0
vn 0.9999443 -0.010553613 0
vn 0.9999443 -0.010553611 0
vn 0.9999443 -0.010553613 0
vn -0.9046788 -0.42609406 0
vn -0.9046788 -0.4260941 0
vn -0.9046788 -0.42609406 0
vn -0.9046789 -0.42609406 0
vn 0.9951191 -0.0986814 0
vn 0.9951191 -0.0986814 0
vn 0.9951191 -0.09868139 0
vn 0.9951191 -0.09868139 0
vn 0.9951191 -0.0986814 0
vn 0.9951191 -0.0986814 0
vn 0.99589634 0.090501 0
vn 0.99589634 0.090500996 0
vn 0.99589634 0.09050101 0
vn 0.99589634 0.09050119 0
vn 0.0004896195 -0.34534714 -0.93847495
vn 0.0004896195 -0.34534717 -0.93847483
vn 0.0004896195 -0.34534717 -0.93847483
vn 2.5227058E-05 -0.33759218 -0.9412924
vn 0.0014654348 0.9999989 0
vn 0.0014654349 0.9999989 0
vn 0.0014654348 0.9999989 0
vn 0.0014654349 0.9999989 0
vn 2.6959033E-05 -0.35504878 0.9348478
vn 2.695903E-05 -0.35504875 0.9348478
vn 2.695903E-05 -0.35504872 0.9348478
vn 0.0004921837 -0.3471669 0.93780315
vn 0.0014177369 -0.99999905 0
vn 0.0014177369 -0.99999905 0
vn 0.0014177366 -0.99999905 0
vn 0.0014177369 -0.99999905 0
vn -0.9704624 -0.24125268 0
vn -0.9704624 -0.2412527 0
vn -0.9704624 -0.2412527 0
vn -0.88306344 -0.46601254 0.055058524
vn -0.88306344 -0.46601254 0.055058524
vn -0.88306344 -0.46601248 0.05505852
vn 0.95799834 -0.2867738 0
vn 0.95799834 -0.2867738 0
vn 0.95799834 -0.28677377 0
vn 0.9579989 -0.28677186 0
vn 0.8195187 0.57305247 0
vn 0.8195187 0.5730524 0
vn 0.8195187 0.5730524 0
vn 0.81951773 0.57305384 0
vn 0.00046099906 0.3145788 0.94923127
vn 0.00046099906 0.31457883 0.94923127
vn 0.00046099906 0.3145788 0.94923127
vn -2.4443969E-05 0.3219255 0.946765
vn -0.85743177 0.5118132 0.053459715
vn -0.85743177 0.5118132 0.053459708
vn -0.85743177 0.5118132 0.053459715
vn -0.9447407 0.32781848 0
vn -0.9447407 0.32781842 0
vn -0.9447407 0.32781848 0
vn -2.33832E-05 0.3127983 -0.94981956
vn -2.3383198E-05 0.31279826 -0.94981956
vn -2.3383202E-05 0.3127983 -0.94981956
vn 0.00044770853 0.3055046 -0.9521905
g BrokenPlank_0
f 3/3/3 2/2/2 1/1/1
f 2/2/2 5/5/5 4/4/4
f 2/2/2 7/7/7 6/6/6
f 10/10/10 9/9/9 8/8/8
f 13/13/13 12/12/12 11/11/11
f 16/16/16 15/15/15 14/14/14
f 19/19/19 18/18/18 17/17/17
f 20/20/20 18/18/18 19/19/19
f 20/20/20 19/19/19 21/21/21
f 21/21/21 19/19/19 22/22/22
f 24/24/24 19/19/19 23/23/23
f 27/27/27 26/26/26 25/25/25
f 30/30/30 29/29/29 28/28/28
f 30/30/30 31/31/31 29/29/29
f 34/34/34 33/33/33 32/32/32
f 34/34/34 35/35/35 33/33/33
f 38/38/38 37/37/37 36/36/36
f 38/38/38 39/39/39 37/37/37
f 42/42/42 41/41/41 40/40/40
f 42/42/42 43/43/43 41/41/41
f 46/46/46 45/45/45 44/44/44
f 46/46/46 47/47/47 45/45/45
f 50/50/50 49/49/49 48/48/48
f 50/50/50 51/51/51 49/49/49
f 54/54/54 53/53/53 52/52/52
f 54/54/54 55/55/55 53/53/53
f 58/58/58 57/57/57 56/56/56
f 61/61/61 60/60/60 59/59/59
f 64/64/64 63/63/63 62/62/62
f 64/64/64 65/65/65 63/63/63
f 68/68/68 67/67/67 66/66/66
f 68/68/68 69/69/69 67/67/67
f 72/72/72 71/71/71 70/70/70
f 72/72/72 73/73/73 71/71/71
f 76/76/76 75/75/75 74/74/74
f 76/76/76 77/77/77 75/75/75
f 80/80/80 79/79/79 78/78/78
f 83/83/83 82/82/82 81/81/81
f 86/86/86 85/85/85 84/84/84
f 86/86/86 87/87/87 85/85/85
f 90/90/90 89/89/89 88/88/88
f 90/90/90 91/91/91 89/89/89
f 94/94/94 93/93/93 92/92/92
f 94/94/94 95/95/95 93/93/93
f 98/98/98 97/97/97 96/96/96
f 101/101/101 100/100/100 99/99/99
f 104/104/104 103/103/103 102/102/102
f 104/104/104 105/105/105 103/103/103
f 108/108/108 107/107/107 106/106/106
f 107/107/107 110/110/110 109/109/109
f 112/112/112 110/110/110 111/111/111
f 115/115/115 114/114/114 113/113/113
f 118/118/118 117/117/117 116/116/116
f 121/121/121 120/120/120 119/119/119
f 121/121/121 122/122/122 120/120/120
f 125/125/125 124/124/124 123/123/123
f 128/128/128 127/127/127 126/126/126
f 131/131/131 130/130/130 129/129/129
f 134/134/134 133/133/133 132/132/132
f 137/137/137 136/136/136 135/135/135
f 140/140/140 139/139/139 138/138/138
f 141/141/141 139/139/139 140/140/140
f 144/144/144 143/143/143 142/142/142
f 145/145/145 143/143/143 144/144/144
f 148/148/148 147/147/147 146/146/146
f 151/151/151 150/150/150 149/149/149
f 154/154/154 153/153/153 152/152/152
f 154/154/154 155/155/155 153/153/153
f 158/158/158 157/157/157 156/156/156
f 158/158/158 159/159/159 157/157/157
f 162/162/162 161/161/161 160/160/160
f 162/162/162 163/163/163 161/161/161
f 166/166/166 165/165/165 164/164/164
f 166/166/166 167/167/167 165/165/165
f 170/170/170 169/169/169 168/168/168
f 170/170/170 171/171/171 169/169/169
f 174/174/174 173/173/173 172/172/172
f 174/174/174 175/175/175 173/173/173
f 178/178/178 177/177/177 176/176/176
f 178/178/178 179/179/179 177/177/177
f 182/182/182 181/181/181 180/180/180
f 182/182/182 183/183/183 181/181/181
f 186/186/186 185/185/185 184/184/184
f 186/186/186 187/187/187 185/185/185
f 190/190/190 189/189/189 188/188/188
f 193/193/193 192/192/192 191/191/191
f 196/196/196 195/195/195 194/194/194
f 196/196/196 197/197/197 195/195/195
f 200/200/200 199/199/199 198/198/198
f 200/200/200 201/201/201 199/199/199
f 204/204/204 203/203/203 202/202/202
f 204/204/204 205/205/205 203/203/203
f 208/208/208 207/207/207 206/206/206
f 208/208/208 209/209/209 207/207/207
f 212/212/212 211/211/211 210/210/210
f 212/212/212 213/213/213 211/211/211
f 216/216/216 215/215/215 214/214/214
f 219/219/219 218/218/218 217/217/217
f 222/222/222 221/221/221 220/220/220
f 222/222/222 223/223/223 221/221/221
f 226/226/226 225/225/225 224/224/224
f 226/226/226 227/227/227 225/225/225
f 230/230/230 229/229/229 228/228/228
f 230/230/230 231/231/231 229/229/229
f 234/234/234 233/233/233 232/232/232
f 237/237/237 236/236/236 235/235/235
f 240/240/240 239/239/239 238/238/238
f 240/240/240 241/241/241 239/239/239
