g chaosDioBelt
v 49.21083 4.2747 -20.796333
v 38.029453 0.5663719 -38.427486
v 33.870018 12.263531 -38.427486
v 45.0514 15.971859 -20.796333
v 17.134438 6.714306 -50.20757
v 21.295528 -4.9828568 -50.20757
v -2.6046257 0.16833878 -54.343784
v 1.5564651 -11.528824 -54.343784
v -22.343685 -6.375969 -50.20757
v -18.184254 -18.073132 -50.20757
v -39.07761 -11.925198 -38.427486
v -34.91818 -23.622358 -38.427486
v -50.25899 -15.633526 -20.796333
v -46.09956 -27.330688 -20.796333
v -54.186237 -16.935421 -0.0008239746
v -50.02515 -28.632584 -0.0008239746
v -50.25899 -15.633526 20.796337
v -46.09956 -27.330688 20.796337
v -39.07761 -11.925198 38.427494
v -34.91818 -23.622358 38.427494
v -22.343685 -6.375969 50.207577
v -18.184254 -18.073132 50.207577
v -2.6046257 0.16833878 54.343792
v 1.5564651 -11.528824 54.343792
v 17.134438 6.714306 50.207577
v 21.295528 -4.9828568 50.207577
v 33.870018 12.263531 38.427494
v 38.029453 0.5663719 38.427494
v 45.0514 15.971859 20.796337
v 49.21083 4.2747 20.796337
v 48.97699 17.273754 -0.0008239746
v 53.13808 5.5765953 -0.0008239746
v 45.0514 15.971859 -20.796333
v 49.21083 4.2747 -20.796333
vt -1.5120027 0.0035700798
vt -1.2604717 0.0035700798
vt -1.2604717 0.99741244
vt -1.5120027 0.99741244
vt -1.0089407 0.99741244
vt -1.0089407 0.0035700798
vt -0.7574096 0.99741244
vt -0.7574096 0.0035700798
vt -0.50587857 0.99741244
vt -0.50587857 0.0035700798
vt -0.25434744 0.99741244
vt -0.25434744 0.0035700798
vt -0.0028164387 0.99741244
vt -0.0028164387 0.0035700798
vt 0.24871457 0.99741244
vt 0.24871457 0.0035700798
vt 0.5002456 0.99741244
vt 0.5002456 0.0035700798
vt 0.7512853 0.99741244
vt 0.7512853 0.0035700798
vt 1.0028164 0.99741244
vt 1.0028164 0.0035700798
vt 1.2543476 0.99741244
vt 1.2543476 0.0035700798
vt 1.5058784 0.99741244
vt 1.5058784 0.0035700798
vt 1.7574096 0.99741244
vt 1.7574096 0.0035700798
vt 2.0089407 0.99741244
vt 2.0089407 0.0035700798
vt 2.2604716 0.99741244
vt 2.2604716 0.0035700798
vt 2.5120027 0.99741244
vt 2.5120027 0.0035700798
vn -0.86795676 -0.30655497 0.3907366
vn -0.6685114 -0.2400732 0.70388734
vn -0.6611246 -0.2400732 0.7108299
vn -0.86795676 -0.30655497 0.3907366
vn -0.35826302 -0.1292702 0.92462796
vn -0.36564994 -0.1292702 0.9217317
vn 0.0036934614 0.0036934018 0.99998635
vn -0.0036934018 -0.0036934614 0.99998635
vn 0.36564994 0.1292702 0.9217317
vn 0.35826308 0.1292702 0.92462796
vn 0.66851145 0.2400732 0.70388734
vn 0.6611246 0.2400732 0.7108299
vn 0.8679568 0.3065549 0.39073652
vn 0.8679568 0.3065549 0.39073652
vn 0.9418255 0.33610237 -0
vn 0.9418255 0.33610237 -0
vn 0.8679568 0.3065549 -0.39073652
vn 0.8679568 0.3065549 -0.39073652
vn 0.66851145 0.2400732 -0.70388734
vn 0.6611246 0.2400732 -0.7108299
vn 0.36564994 0.1292702 -0.9217317
vn 0.35826308 0.1292702 -0.92462796
vn 0.0036934614 0.0036934018 -0.99998635
vn -0.0036934018 -0.0036934614 -0.99998635
vn -0.35826302 -0.1292702 -0.92462796
vn -0.36564994 -0.1292702 -0.9217317
vn -0.6611246 -0.2400732 -0.7108299
vn -0.6685114 -0.2400732 -0.70388734
vn -0.86795676 -0.30655497 -0.3907366
vn -0.86795676 -0.30655497 -0.3907366
vn -0.9418255 -0.33610243 -0
vn -0.9418255 -0.33610243 -0
vn -0.86795676 -0.30655497 0.3907366
vn -0.86795676 -0.30655497 0.3907366
g chaosDioBelt_0
f 3/3/3 2/2/2 1/1/1
f 4/4/4 3/3/3 1/1/1
f 3/3/3 5/5/5 2/2/2
f 5/5/5 6/6/6 2/2/2
f 5/5/5 7/7/7 6/6/6
f 7/7/7 8/8/8 6/6/6
f 7/7/7 9/9/9 8/8/8
f 9/9/9 10/10/10 8/8/8
f 9/9/9 11/11/11 10/10/10
f 11/11/11 12/12/12 10/10/10
f 11/11/11 13/13/13 12/12/12
f 13/13/13 14/14/14 12/12/12
f 13/13/13 15/15/15 14/14/14
f 15/15/15 16/16/16 14/14/14
f 15/15/15 17/17/17 16/16/16
f 17/17/17 18/18/18 16/16/16
f 17/17/17 19/19/19 18/18/18
f 19/19/19 20/20/20 18/18/18
f 19/19/19 21/21/21 20/20/20
f 21/21/21 22/22/22 20/20/20
f 21/21/21 23/23/23 22/22/22
f 23/23/23 24/24/24 22/22/22
f 23/23/23 25/25/25 24/24/24
f 25/25/25 26/26/26 24/24/24
f 25/25/25 27/27/27 26/26/26
f 27/27/27 28/28/28 26/26/26
f 27/27/27 29/29/29 28/28/28
f 29/29/29 30/30/30 28/28/28
f 29/29/29 31/31/31 30/30/30
f 31/31/31 32/32/32 30/30/30
f 31/31/31 33/33/33 32/32/32
f 33/33/33 34/34/34 32/32/32
