g chaosBG
v 88.460556 -34.981144 -38.13808
v 67.704895 -34.981144 -69.200905
v 67.704895 49.219475 -69.200905
v 88.460556 49.219475 -38.13808
v 36.64207 49.219475 -89.95657
v 36.64207 -34.981144 -89.95657
v -0.0013427734 49.219475 -97.2452
v -0.0013427734 -34.981144 -97.2452
v -36.641808 49.219475 -89.95657
v -36.641808 -34.981144 -89.95657
v -67.70463 49.219475 -69.200905
v -67.70463 -34.981144 -69.200905
v -88.46029 49.219475 -38.13808
v -88.46029 -34.981144 -38.13808
v -95.748924 49.219475 -1.497612
v -95.748924 -34.981144 -1.497612
v -95.0451 49.219475 35.14579
v -95.0451 -34.981144 35.14579
v 95.74919 -34.981144 -1.497612
v 95.74919 49.219475 -1.497612
v 95.04536 -34.981144 35.14579
v 95.04536 49.219475 35.14579
vt 0.20067106 0.018877937
vt 0.29983094 0.018877937
vt 0.29983094 0.9822843
vt 0.20067106 0.9822843
vt 0.39899084 0.9822843
vt 0.39899084 0.018877937
vt 0.49815074 0.9822843
vt 0.49815074 0.018877937
vt 0.59828275 0.9822843
vt 0.59828275 0.018877937
vt 0.69744265 0.9822843
vt 0.69744265 0.018877937
vt 0.79660255 0.9822843
vt 0.79660255 0.018877937
vt 0.8967346 0.9822843
vt 0.8967346 0.018877937
vt 0.9958945 0.9822843
vt 0.9958945 0.018877937
vt 0.10053902 0.018877937
vt 0.10053902 0.9822843
vt 0.0013791323 0.018877937
vt 0.0013791323 0.9822843
vn -0.92139906 0.003920853 0.38859802
vn -0.70967335 0.003920853 0.70452
vn -0.70967335 0.003920853 0.70452
vn -0.92139906 0.003920853 0.38859802
vn -0.38032216 0.003920853 0.92484576
vn -0.38032216 0.003920853 0.92484576
vn -0.003920853 0.003920853 0.9999846
vn -0.003920853 0.003920853 0.9999846
vn 0.38032222 0.003920853 0.92484576
vn 0.38032222 0.003920853 0.92484576
vn 0.7096734 0.003920853 0.70451987
vn 0.7096734 0.003920853 0.70451987
vn 0.9213992 0.003920853 0.38859773
vn 0.9213992 0.003920853 0.38859773
vn 0.9998161 0.003920853 0.018770402
vn 0.9998161 0.003920853 0.018770402
vn 0.9998161 0.003920853 -0.018770402
vn 0.9998161 0.003920853 -0.018770402
vn -0.9998161 0.003920853 0.018770402
vn -0.9998161 0.003920853 0.018770402
vn -0.9998161 0.003920853 -0.018770402
vn -0.9998161 0.003920853 -0.018770402
g chaosBG_0
f 3/3/3 2/2/2 1/1/1
f 4/4/4 3/3/3 1/1/1
f 3/3/3 5/5/5 2/2/2
f 5/5/5 6/6/6 2/2/2
f 5/5/5 7/7/7 6/6/6
f 7/7/7 8/8/8 6/6/6
f 7/7/7 9/9/9 8/8/8
f 9/9/9 10/10/10 8/8/8
f 9/9/9 11/11/11 10/10/10
f 11/11/11 12/12/12 10/10/10
f 11/11/11 13/13/13 12/12/12
f 13/13/13 14/14/14 12/12/12
f 13/13/13 15/15/15 14/14/14
f 15/15/15 16/16/16 14/14/14
f 15/15/15 17/17/17 16/16/16
f 17/17/17 18/18/18 16/16/16
f 4/4/4 1/1/1 19/19/19
f 20/20/20 4/4/4 19/19/19
f 20/20/20 19/19/19 21/21/21
f 22/22/22 20/20/20 21/21/21
