g chunk_rKnee
v 0.16623688 0.014372766 0.14013913
v 0.19887653 0.014310837 -0.010029554
v 0.12443863 -0.07740688 0.05869487
v 0.13801783 -0.08237715 -0.08640291
v 0.19887653 0.014310837 -0.010029554
v 0.11977804 0.10444921 -0.075711414
v 0.13801783 -0.08237715 -0.08640291
v 0.11977804 0.10444921 -0.075711414
v 0.095615715 0.078599155 -0.24030317
v 0.099161476 -0.16159952 -0.009874716
v 0.053469077 -0.14909643 0.12422964
v 0.12443863 -0.07740688 0.05869487
v -0.14976999 0.014372766 0.11454457
v -0.19887656 0.014434695 -0.009727612
v -0.15235579 0.11252397 0.06889862
v -0.14976999 0.014372766 0.11454457
v -0.0052606165 -0.09121834 0.2168454
v -0.115040064 -0.16686398 -0.009874716
v -0.0052606165 0.10845947 0.16884592
v -0.0051522255 0.014434695 0.25368115
v -0.06936315 0.18652833 0.13768497
v -0.16060087 0.115543276 -0.09347896
v -0.19887656 0.014434695 -0.009727612
v -0.07143021 -0.16111952 -0.16262144
v -0.0052606165 0.10845947 0.16884592
v -0.06936315 0.18652833 0.13768497
v 0.09763634 0.18885088 -0.009874716
v -0.0052606165 0.12406707 -0.2536811
v 0.09763634 0.18885088 -0.009874716
v -0.06567803 0.18057483 -0.14820611
v -0.0052606165 -0.09464799 -0.250925
v -0.07143021 -0.16111952 -0.16262144
v 0.049234286 -0.14226037 -0.13337272
v -0.07143021 -0.16111952 -0.16262144
v -0.115040064 -0.16686398 -0.009874716
v -0.005206406 -0.20064166 -0.009874716
v -0.005206406 -0.20064166 -0.009874716
v 0.099161476 -0.16159952 -0.009874716
v 0.049234286 -0.14226037 -0.13337272
v -0.07143021 -0.16111952 -0.16262144
v -0.005206406 -0.20064166 -0.009874716
v 0.049234286 -0.14226037 -0.13337272
v -0.0052141547 0.20064172 -0.009874716
v -0.1117343 0.19237342 -0.009874716
v -0.06567803 0.18057483 -0.14820611
v 0.09763634 0.18885088 -0.009874716
v -0.0052141547 0.20064172 -0.009874716
v -0.06567803 0.18057483 -0.14820611
v -0.06936315 0.18652833 0.13768497
v -0.1117343 0.19237342 -0.009874716
v -0.0052141547 0.20064172 -0.009874716
v -0.06936315 0.18652833 0.13768497
v -0.0052141547 0.20064172 -0.009874716
v 0.09763634 0.18885088 -0.009874716
v 0.053469077 -0.14909643 0.12422964
v 0.099161476 -0.16159952 -0.009874716
v -0.005206406 -0.20064166 -0.009874716
v -0.005206406 -0.20064166 -0.009874716
v -0.115040064 -0.16686398 -0.009874716
v -0.0052606165 -0.09121834 0.2168454
v 0.053469077 -0.14909643 0.12422964
v -0.005206406 -0.20064166 -0.009874716
v -0.0052606165 -0.09121834 0.2168454
v -0.19887656 0.014434695 -0.009727612
v -0.115040064 -0.16686398 -0.009874716
v -0.07143021 -0.16111952 -0.16262144
v -0.06567803 0.18057483 -0.14820611
v -0.1117343 0.19237342 -0.009874716
v -0.16060087 0.115543276 -0.09347896
v -0.0052606165 0.12406707 -0.2536811
v -0.06567803 0.18057483 -0.14820611
v -0.16060087 0.115543276 -0.09347896
v -0.0052606165 0.12406707 -0.2536811
v -0.16060087 0.115543276 -0.09347896
v -0.07143021 -0.16111952 -0.16262144
v -0.0052606165 0.12406707 -0.2536811
v -0.07143021 -0.16111952 -0.16262144
v -0.0052606165 -0.09464799 -0.250925
v -0.0051522255 0.014434695 0.25368115
v -0.14976999 0.014372766 0.11454457
v -0.15235579 0.11252397 0.06889862
v -0.15235579 0.11252397 0.06889862
v -0.1117343 0.19237342 -0.009874716
v -0.06936315 0.18652833 0.13768497
v -0.0051522255 0.014434695 0.25368115
v -0.15235579 0.11252397 0.06889862
v -0.06936315 0.18652833 0.13768497
v -0.0052606165 -0.09121834 0.2168454
v -0.14976999 0.014372766 0.11454457
v -0.0051522255 0.014434695 0.25368115
v -0.16060087 0.115543276 -0.09347896
v -0.1117343 0.19237342 -0.009874716
v -0.15235579 0.11252397 0.06889862
v -0.19887656 0.014434695 -0.009727612
v -0.16060087 0.115543276 -0.09347896
v -0.15235579 0.11252397 0.06889862
v -0.19887656 0.014434695 -0.009727612
v -0.14976999 0.014372766 0.11454457
v -0.115040064 -0.16686398 -0.009874716
v 0.081889406 0.07359019 0.18681476
v -0.0052606165 0.10845947 0.16884592
v 0.09763634 0.18885088 -0.009874716
v 0.081889406 0.07359019 0.18681476
v 0.09763634 0.18885088 -0.009874716
v 0.16623688 0.014372766 0.14013913
v -0.0052606165 -0.09121834 0.2168454
v 0.16623688 0.014372766 0.14013913
v 0.12443863 -0.07740688 0.05869487
v 0.053469077 -0.14909643 0.12422964
v -0.0052606165 -0.09121834 0.2168454
v 0.12443863 -0.07740688 0.05869487
v -0.0051522255 0.014434695 0.25368115
v -0.0052606165 0.10845947 0.16884592
v 0.081889406 0.07359019 0.18681476
v 0.081889406 0.07359019 0.18681476
v 0.16623688 0.014372766 0.14013913
v -0.0052606165 -0.09121834 0.2168454
v -0.0051522255 0.014434695 0.25368115
v 0.081889406 0.07359019 0.18681476
v -0.0052606165 -0.09121834 0.2168454
v 0.13801783 -0.08237715 -0.08640291
v -0.0052606165 -0.09464799 -0.250925
v 0.049234286 -0.14226037 -0.13337272
v 0.049234286 -0.14226037 -0.13337272
v 0.099161476 -0.16159952 -0.009874716
v 0.13801783 -0.08237715 -0.08640291
v 0.09763634 0.18885088 -0.009874716
v -0.0052606165 0.12406707 -0.2536811
v 0.095615715 0.078599155 -0.24030317
v 0.11977804 0.10444921 -0.075711414
v 0.09763634 0.18885088 -0.009874716
v 0.095615715 0.078599155 -0.24030317
v 0.095615715 0.078599155 -0.24030317
v -0.0052606165 0.12406707 -0.2536811
v -0.0052606165 -0.09464799 -0.250925
v 0.095615715 0.078599155 -0.24030317
v -0.0052606165 -0.09464799 -0.250925
v 0.13801783 -0.08237715 -0.08640291
v 0.16623688 0.014372766 0.14013913
v 0.09763634 0.18885088 -0.009874716
v 0.11977804 0.10444921 -0.075711414
v 0.19887653 0.014310837 -0.010029554
v 0.16623688 0.014372766 0.14013913
v 0.11977804 0.10444921 -0.075711414
v 0.13801783 -0.08237715 -0.08640291
v 0.099161476 -0.16159952 -0.009874716
v 0.12443863 -0.07740688 0.05869487
v 0.19887653 0.014310837 -0.010029554
v 0.13801783 -0.08237715 -0.08640291
v 0.12443863 -0.07740688 0.05869487
vt 0.90909094 0.5835777
vt 0.8181818 0.5835777
vt 0.86412513 0.6666667
vt 0.68230695 0.6666667
vt 0.8181818 0.5835777
vt 0.773216 0.50048876
vt 0.68230695 0.6666667
vt 0.773216 0.50048876
vt 0.68230695 0.50048876
vt 0.09090909 0.7497556
vt 0.1368524 0.6666667
vt 0.045943305 0.6666667
vt 0.27272728 0.41642228
vt 0.36363637 0.41642228
vt 0.31867057 0.33333334
vt 0.27272728 0.41642228
vt 0.18181819 0.5835777
vt 0.36363637 0.5835777
vt 0.09090909 0.41642228
vt 0.1368524 0.50048876
vt 0.1368524 0.33333334
vt 0.50048876 0.33333334
vt 0.36363637 0.41642228
vt 0.45454547 0.5835777
vt 1 0.41642228
vt 0.9550342 0.33333334
vt 0.8181818 0.41642228
vt 0.6363636 0.41642228
vt 0.8181818 0.41642228
vt 0.68230695 0.33333334
vt 0.54545456 0.5835777
vt 0.45454547 0.5835777
vt 0.50048876 0.6666667
vt 0.45454547 0.5835777
vt 0.36363637 0.5835777
vt 0.40957966 0.6666667
vt 0.40957966 0.6666667
vt 0.45454547 0.7497556
vt 0.50048876 0.6666667
vt 0.45454547 0.5835777
vt 0.40957966 0.6666667
vt 0.50048876 0.6666667
vt 0.773216 0.33333334
vt 0.72727275 0.25024438
vt 0.68230695 0.33333334
vt 0.8181818 0.41642228
vt 0.773216 0.33333334
vt 0.68230695 0.33333334
vt 0.9550342 0.33333334
vt 0.90909094 0.25024438
vt 0.86412513 0.33333334
vt 0.9550342 0.33333334
vt 0.86412513 0.33333334
vt 0.8181818 0.41642228
vt 0.22776149 0.6666667
vt 0.27272728 0.7497556
vt 0.31867057 0.6666667
vt 0.31867057 0.6666667
vt 0.36363637 0.5835777
vt 0.18181819 0.5835777
vt 0.22776149 0.6666667
vt 0.31867057 0.6666667
vt 0.18181819 0.5835777
vt 0.36363637 0.41642228
vt 0.36363637 0.5835777
vt 0.45454547 0.5835777
vt 0.5913978 0.33333334
vt 0.54545456 0.25024438
vt 0.50048876 0.33333334
vt 0.6363636 0.41642228
vt 0.5913978 0.33333334
vt 0.50048876 0.33333334
vt 0.6363636 0.41642228
vt 0.50048876 0.33333334
vt 0.45454547 0.5835777
vt 0.6363636 0.41642228
vt 0.45454547 0.5835777
vt 0.54545456 0.5835777
vt 0.1368524 0.50048876
vt 0.27272728 0.41642228
vt 0.22776149 0.33333334
vt 0.22776149 0.33333334
vt 0.18181819 0.25024438
vt 0.1368524 0.33333334
vt 0.1368524 0.50048876
vt 0.22776149 0.33333334
vt 0.1368524 0.33333334
vt 0.18181819 0.5835777
vt 0.27272728 0.41642228
vt 0.1368524 0.50048876
vt 0.40957966 0.33333334
vt 0.36363637 0.25024438
vt 0.31867057 0.33333334
vt 0.36363637 0.41642228
vt 0.40957966 0.33333334
vt 0.31867057 0.33333334
vt 0.36363637 0.41642228
vt 0.27272728 0.41642228
vt 0.36363637 0.5835777
vt 0.9550342 0.50048876
vt 1 0.41642228
vt 0.8181818 0.41642228
vt 0.9550342 0.50048876
vt 0.8181818 0.41642228
vt 0.90909094 0.5835777
vt 0.18181819 0.5835777
vt 0 0.5835777
vt 0.045943305 0.6666667
vt 0.1368524 0.6666667
vt 0.18181819 0.5835777
vt 0.045943305 0.6666667
vt 0.1368524 0.50048876
vt 0.09090909 0.41642228
vt 0.045943305 0.50048876
vt 0.045943305 0.50048876
vt 0 0.5835777
vt 0.18181819 0.5835777
vt 0.1368524 0.50048876
vt 0.045943305 0.50048876
vt 0.18181819 0.5835777
vt 0.68230695 0.6666667
vt 0.54545456 0.5835777
vt 0.5913978 0.6666667
vt 0.5913978 0.6666667
vt 0.6363636 0.7497556
vt 0.68230695 0.6666667
vt 0.8181818 0.41642228
vt 0.6363636 0.41642228
vt 0.68230695 0.50048876
vt 0.773216 0.50048876
vt 0.8181818 0.41642228
vt 0.68230695 0.50048876
vt 0.68230695 0.50048876
vt 0.6363636 0.41642228
vt 0.54545456 0.5835777
vt 0.68230695 0.50048876
vt 0.54545456 0.5835777
vt 0.68230695 0.6666667
vt 0.90909094 0.5835777
vt 0.8181818 0.41642228
vt 0.773216 0.50048876
vt 0.8181818 0.5835777
vt 0.90909094 0.5835777
vt 0.773216 0.50048876
vt 0.773216 0.6666667
vt 0.8181818 0.7497556
vt 0.86412513 0.6666667
vt 0.8181818 0.5835777
vt 0.773216 0.6666667
vt 0.86412513 0.6666667
vn 0.8263999 -0.531858 0.18490586
vn 0.8263999 -0.531858 0.18490586
vn 0.8263999 -0.531858 0.18490586
vn 0.7023823 0.111483455 -0.70301527
vn 0.7023823 0.111483455 -0.70301527
vn 0.7023823 0.111483455 -0.70301527
vn 0.98142195 0.10373235 -0.16140178
vn 0.98142195 0.10373235 -0.16140178
vn 0.98142195 0.10373235 -0.16140178
vn 0.8031466 -0.50085366 0.32264715
vn 0.8031466 -0.50085366 0.32264715
vn 0.8031466 -0.50085366 0.32264715
vn -0.917598 0.14248776 0.3710945
vn -0.917598 0.14248776 0.3710945
vn -0.917598 0.14248776 0.3710945
vn -0.71606934 -0.48535144 0.5016759
vn -0.71606934 -0.48535144 0.5016759
vn -0.71606934 -0.48535144 0.5016759
vn 0.41559154 0.60755396 0.67687654
vn 0.41559154 0.60755396 0.67687654
vn 0.41559154 0.60755396 0.67687654
vn -0.8323358 -0.13655186 -0.5371877
vn -0.8323358 -0.13655186 -0.5371877
vn -0.8323358 -0.13655186 -0.5371877
vn 0.50085366 0.6463095 0.57569927
vn 0.50085366 0.6463095 0.57569927
vn 0.50085366 0.6463095 0.57569927
vn 0.2450673 0.9098469 -0.33484417
vn 0.2450673 0.9098469 -0.33484417
vn 0.2450673 0.9098469 -0.33484417
vn 0.2450673 -0.85740435 -0.4525481
vn 0.2450673 -0.85740435 -0.4525481
vn 0.2450673 -0.85740435 -0.4525481
vn -0.2897588 -0.9504175 -0.11289993
vn -0.2897588 -0.9504175 -0.11289993
vn -0.2897588 -0.9504175 -0.11289993
vn 0.33808053 -0.8961598 -0.2874006
vn 0.33808053 -0.8961598 -0.2874006
vn 0.33808053 -0.8961598 -0.2874006
vn 0.22181398 -0.91941315 -0.32477385
vn 0.22181398 -0.91941315 -0.32477385
vn 0.22181398 -0.91941315 -0.32477385
vn -0.080479026 0.987358 -0.13655539
vn -0.080479026 0.987358 -0.13655539
vn -0.080479026 0.987358 -0.13655539
vn 0.113298535 0.97185576 -0.20654254
vn 0.113298535 0.97185576 -0.20654254
vn 0.113298535 0.97185576 -0.20654254
vn -0.080479026 0.99510896 0.057282593
vn -0.080479026 0.99510896 0.057282593
vn -0.080479026 0.99510896 0.057282593
vn 0.113298535 0.97960687 0.1659332
vn 0.113298535 0.97960687 0.1659332
vn 0.113298535 0.97960687 0.1659332
vn 0.34583157 -0.91941315 0.1872966
vn 0.34583157 -0.91941315 0.1872966
vn 0.34583157 -0.91941315 0.1872966
vn -0.26650548 -0.8651554 0.4248305
vn -0.26650548 -0.8651554 0.4248305
vn -0.26650548 -0.8651554 0.4248305
vn -0.19674551 -0.8806576 0.43096796
vn -0.19674551 -0.8806576 0.43096796
vn -0.19674551 -0.8806576 0.43096796
vn -0.8788425 -0.40784043 -0.24759263
vn -0.8788425 -0.40784043 -0.24759263
vn -0.8788425 -0.40784043 -0.24759263
vn -0.6463095 0.70831823 -0.28384736
vn -0.6463095 0.70831823 -0.28384736
vn -0.6463095 0.70831823 -0.28384736
vn -0.6540605 0.44478083 -0.6118618
vn -0.6540605 0.44478083 -0.6118618
vn -0.6540605 0.44478083 -0.6118618
vn -0.71606934 -0.059040844 -0.6955278
vn -0.71606934 -0.059040844 -0.6955278
vn -0.71606934 -0.059040844 -0.6955278
vn -0.8013315 -0.004783094 -0.5982014
vn -0.8013315 -0.004783094 -0.5982014
vn -0.8013315 -0.004783094 -0.5982014
vn -0.6618116 0.3052609 0.6847052
vn -0.6618116 0.3052609 0.6847052
vn -0.6618116 0.3052609 0.6847052
vn -0.74707377 0.61530507 0.25155604
vn -0.74707377 0.61530507 0.25155604
vn -0.74707377 0.61530507 0.25155604
vn -0.71606934 0.1812433 0.6740887
vn -0.71606934 0.1812433 0.6740887
vn -0.71606934 0.1812433 0.6740887
vn -0.6695627 -0.2450673 0.7011618
vn -0.6695627 -0.2450673 0.7011618
vn -0.6695627 -0.2450673 0.7011618
vn -0.87102026 0.49124724 -0
vn -0.87102026 0.49124724 -0
vn -0.87102026 0.49124724 -0
vn -0.917598 0.39052308 0.07419977
vn -0.917598 0.39052308 0.07419977
vn -0.917598 0.39052308 0.07419977
vn -0.85558915 -0.39233822 0.33769506
vn -0.85558915 -0.39233822 0.33769506
vn -0.85558915 -0.39233822 0.33769506
vn 0.22956508 0.8323358 0.50449675
vn 0.22956508 0.8323358 0.50449675
vn 0.22956508 0.8323358 0.50449675
vn 0.6636268 0.6230562 0.41400546
vn 0.6636268 0.6230562 0.41400546
vn 0.6636268 0.6230562 0.41400546
vn 0.60161793 -0.6636268 0.44458446
vn 0.60161793 -0.6636268 0.44458446
vn 0.60161793 -0.6636268 0.44458446
vn 0.76439106 -0.19856066 0.6134166
vn 0.76439106 -0.19856066 0.6134166
vn 0.76439106 -0.19856066 0.6134166
vn 0.113298535 0.6618116 0.74105924
vn 0.113298535 0.6618116 0.74105924
vn 0.113298535 0.6618116 0.74105924
vn 0.4465959 -0.07454306 0.89162517
vn 0.4465959 -0.07454306 0.89162517
vn 0.4465959 -0.07454306 0.89162517
vn 0.6868801 -0.23731619 0.68693286
vn 0.6868801 -0.23731619 0.68693286
vn 0.6868801 -0.23731619 0.68693286
vn 0.6481246 -0.55511135 -0.5213309
vn 0.6481246 -0.55511135 -0.5213309
vn 0.6481246 -0.55511135 -0.5213309
vn 0.6481246 -0.6713779 -0.3594249
vn 0.6481246 -0.6713779 -0.3594249
vn 0.6481246 -0.6713779 -0.3594249
vn 0.42334265 0.81683373 -0.39187193
vn 0.42334265 0.81683373 -0.39187193
vn 0.42334265 0.81683373 -0.39187193
vn 0.90391093 0.39052308 -0.17446129
vn 0.90391093 0.39052308 -0.17446129
vn 0.90391093 0.39052308 -0.17446129
vn 0.12880075 -0.012534201 -0.9915913
vn 0.12880075 -0.012534201 -0.9915913
vn 0.12880075 -0.012534201 -0.9915913
vn 0.7101334 -0.376836 -0.5947312
vn 0.7101334 -0.376836 -0.5947312
vn 0.7101334 -0.376836 -0.5947312
vn 0.9504175 0.3052609 -0.0593494
vn 0.9504175 0.3052609 -0.0593494
vn 0.9504175 0.3052609 -0.0593494
vn 0.6868801 0.70831823 0.16272993
vn 0.6868801 0.70831823 0.16272993
vn 0.6868801 0.70831823 0.16272993
vn 0.92716426 -0.3613338 0.099016786
vn 0.92716426 -0.3613338 0.099016786
vn 0.92716426 -0.3613338 0.099016786
vn 0.8031466 -0.5861157 0.10688272
vn 0.8031466 -0.5861157 0.10688272
vn 0.8031466 -0.5861157 0.10688272
g chunk_rKnee_0
f 3/3/3 2/2/2 1/1/1
f 6/6/6 5/5/5 4/4/4
f 9/9/9 8/8/8 7/7/7
f 12/12/12 11/11/11 10/10/10
f 15/15/15 14/14/14 13/13/13
f 18/18/18 17/17/17 16/16/16
f 21/21/21 20/20/20 19/19/19
f 24/24/24 23/23/23 22/22/22
f 27/27/27 26/26/26 25/25/25
f 30/30/30 29/29/29 28/28/28
f 33/33/33 32/32/32 31/31/31
f 36/36/36 35/35/35 34/34/34
f 39/39/39 38/38/38 37/37/37
f 42/42/42 41/41/41 40/40/40
f 45/45/45 44/44/44 43/43/43
f 48/48/48 47/47/47 46/46/46
f 51/51/51 50/50/50 49/49/49
f 54/54/54 53/53/53 52/52/52
f 57/57/57 56/56/56 55/55/55
f 60/60/60 59/59/59 58/58/58
f 63/63/63 62/62/62 61/61/61
f 66/66/66 65/65/65 64/64/64
f 69/69/69 68/68/68 67/67/67
f 72/72/72 71/71/71 70/70/70
f 75/75/75 74/74/74 73/73/73
f 78/78/78 77/77/77 76/76/76
f 81/81/81 80/80/80 79/79/79
f 84/84/84 83/83/83 82/82/82
f 87/87/87 86/86/86 85/85/85
f 90/90/90 89/89/89 88/88/88
f 93/93/93 92/92/92 91/91/91
f 96/96/96 95/95/95 94/94/94
f 99/99/99 98/98/98 97/97/97
f 102/102/102 101/101/101 100/100/100
f 105/105/105 104/104/104 103/103/103
f 108/108/108 107/107/107 106/106/106
f 111/111/111 110/110/110 109/109/109
f 114/114/114 113/113/113 112/112/112
f 117/117/117 116/116/116 115/115/115
f 120/120/120 119/119/119 118/118/118
f 123/123/123 122/122/122 121/121/121
f 126/126/126 125/125/125 124/124/124
f 129/129/129 128/128/128 127/127/127
f 132/132/132 131/131/131 130/130/130
f 135/135/135 134/134/134 133/133/133
f 138/138/138 137/137/137 136/136/136
f 141/141/141 140/140/140 139/139/139
f 144/144/144 143/143/143 142/142/142
f 147/147/147 146/146/146 145/145/145
f 150/150/150 149/149/149 148/148/148
