g cryptdiorama_webs2
v -2.9703922 4.1957664 -13.695105
v -2.9703922 5.5531845 -13.695105
v -1.6284733 5.5531845 -13.899283
v -1.6284733 4.1957664 -13.899283
v 2.0378113 5.440813 -13.856957
v 3.0935822 5.440813 -13.856957
v 3.0935822 4.385042 -13.856957
v 2.0378113 4.385042 -13.856957
v 0.44700146 4.1060467 -13.980955
v 1.3251209 4.3281097 -13.980955
v 1.4851856 3.111082 -13.980955
v 0.60736465 2.889019 -13.980955
v -1.6204252 3.2487907 -13.980955
v -1.0835972 4.5248375 -13.980955
v 0.19244862 3.988308 -13.980955
v -0.34437943 2.7119637 -13.980955
v -2.7998962 1.2779408 -12.196995
v -2.7998962 2.001361 -12.196995
v -2.2982407 2.001361 -12.538586
v -2.2982407 1.2779408 -12.538586
v 2.3716516 1.8919687 -12.082833
v 2.742155 1.8919687 -12.246177
v 2.742155 1.3128147 -12.246177
v 2.3716516 1.3128147 -12.082833
vt 0 0
vt 0 1
vt 1 1
vt 1 0
vt 0 0
vt 0 1
vt 1 1
vt 1 0
vt 0 0
vt 0 1
vt 1 1
vt 1 0
vt 0 0
vt 0 1
vt 1 1
vt 1 0
vt 0 0
vt 0 1
vt 1 1
vt 1 0
vt 0 0
vt 0 1
vt 1 1
vt 1 0
vn 0.15007454 1.1324883E-06 0.9886747
vn 0.15007454 1.1324883E-06 0.9886747
vn 0.15007454 1.1324883E-06 0.9886747
vn 0.15007454 1.1324883E-06 0.9886747
vn -1.1324883E-06 1.1324883E-06 1
vn -1.1324883E-06 1.1324883E-06 1
vn -1.1324883E-06 1.1324883E-06 1
vn -1.1324883E-06 1.1324883E-06 1
vn -1.1324883E-06 1.1324883E-06 1
vn -1.1324883E-06 1.1324883E-06 1
vn -1.1324883E-06 1.1324883E-06 1
vn -1.1324883E-06 1.1324883E-06 1
vn -1.1324883E-06 1.1324883E-06 1
vn -1.1324883E-06 1.1324883E-06 1
vn -1.1324883E-06 1.1324883E-06 1
vn -1.1324883E-06 1.1324883E-06 1
vn 0.5627826 1.1324883E-06 0.82660496
vn 0.5627826 1.1324883E-06 0.82660496
vn 0.5627826 1.1324883E-06 0.82660496
vn 0.5627826 1.1324883E-06 0.82660496
vn 0.40387893 1.1324883E-06 0.91481245
vn 0.40387893 1.1324883E-06 0.91481245
vn 0.40387893 1.1324883E-06 0.91481245
vn 0.40387893 1.1324883E-06 0.91481245
g cryptdiorama_webs2_0
f 3/3/3 2/2/2 1/1/1
f 4/4/4 3/3/3 1/1/1
f 7/7/7 6/6/6 5/5/5
f 8/8/8 7/7/7 5/5/5
f 11/11/11 10/10/10 9/9/9
f 12/12/12 11/11/11 9/9/9
f 15/15/15 14/14/14 13/13/13
f 16/16/16 15/15/15 13/13/13
f 19/19/19 18/18/18 17/17/17
f 20/20/20 19/19/19 17/17/17
f 23/23/23 22/22/22 21/21/21
f 24/24/24 23/23/23 21/21/21
