g deepPoolWater
v -0.117770135 -1.3709068E-05 0.20400888
v 1.3709068E-05 -1.3709068E-05 -1.3709068E-05
v 0.117768824 -1.3709068E-05 0.20400888
v -0.23555404 -1.3709068E-05 0.4080028
v 0.23555273 -1.3709068E-05 0.4080028
v -0.35333794 -1.3709068E-05 0.61202544
v 0.35333657 -1.3709068E-05 0.61202544
v -0.47112185 -1.3709068E-05 0.81601936
v 0.47112048 -1.3709068E-05 0.81601936
v -0.23555404 -1.3709068E-05 -1.3709068E-05
v 1.3709068E-05 -1.3709068E-05 -1.3709068E-05
v -0.117770135 -1.3709068E-05 0.20400888
v -0.47112185 -1.3709068E-05 -1.3709068E-05
v -0.23555404 -1.3709068E-05 0.4080028
v -0.70668966 -1.3709068E-05 -1.3709068E-05
v -0.35333794 -1.3709068E-05 0.61202544
v -0.94225734 -1.3709068E-05 -1.3709068E-05
v -0.47112185 -1.3709068E-05 0.81601936
v -0.117770135 -1.3709068E-05 -0.20400757
v 1.3709068E-05 -1.3709068E-05 -1.3709068E-05
v -0.23555404 -1.3709068E-05 -1.3709068E-05
v -0.23555404 -1.3709068E-05 -0.40800142
v -0.47112185 -1.3709068E-05 -1.3709068E-05
v -0.35333794 -1.3709068E-05 -0.61202407
v -0.70668966 -1.3709068E-05 -1.3709068E-05
v -0.47112185 -1.3709068E-05 -0.8160179
v -0.94225734 -1.3709068E-05 -1.3709068E-05
v 0.117768824 -1.3709068E-05 -0.20400757
v 1.3709068E-05 -1.3709068E-05 -1.3709068E-05
v -0.117770135 -1.3709068E-05 -0.20400757
v 0.23555273 -1.3709068E-05 -0.40800142
v -0.23555404 -1.3709068E-05 -0.40800142
v 0.35333657 -1.3709068E-05 -0.61202407
v -0.35333794 -1.3709068E-05 -0.61202407
v 0.47112048 -1.3709068E-05 -0.8160179
v -0.47112185 -1.3709068E-05 -0.8160179
v 0.23555273 -1.3709068E-05 -1.3709068E-05
v 1.3709068E-05 -1.3709068E-05 -1.3709068E-05
v 0.117768824 -1.3709068E-05 -0.20400757
v 0.47112048 -1.3709068E-05 -1.3709068E-05
v 0.23555273 -1.3709068E-05 -0.40800142
v 0.7066883 -1.3709068E-05 -1.3709068E-05
v 0.35333657 -1.3709068E-05 -0.61202407
v 0.94225603 -1.3709068E-05 -1.3709068E-05
v 0.47112048 -1.3709068E-05 -0.8160179
v 0.117768824 -1.3709068E-05 0.20400888
v 1.3709068E-05 -1.3709068E-05 -1.3709068E-05
v 0.23555273 -1.3709068E-05 -1.3709068E-05
v 0.23555273 -1.3709068E-05 0.4080028
v 0.47112048 -1.3709068E-05 -1.3709068E-05
v 0.35333657 -1.3709068E-05 0.61202544
v 0.7066883 -1.3709068E-05 -1.3709068E-05
v 0.47112048 -1.3709068E-05 0.81601936
v 0.94225603 -1.3709068E-05 -1.3709068E-05
vt 0.37518322 0.749878
vt 0.4997558 1.0000002
vt 0.6248169 0.749878
vt 0.25012213 0.5002443
vt 0.749878 0.5002443
vt 0.12506104 0.25012213
vt 0.8749391 0.25012213
vt -5.9604645E-08 -5.9604645E-08
vt 1.0000002 -5.9604645E-08
vt 0.37518322 0.749878
vt 0.4997558 1.0000002
vt 0.6248169 0.749878
vt 0.25012213 0.5002443
vt 0.749878 0.5002443
vt 0.12506104 0.25012213
vt 0.8749391 0.25012213
vt -5.9604645E-08 -5.9604645E-08
vt 1.0000002 -5.9604645E-08
vt 0.37518322 0.749878
vt 0.4997558 1.0000002
vt 0.6248169 0.749878
vt 0.25012213 0.5002443
vt 0.749878 0.5002443
vt 0.12506104 0.25012213
vt 0.8749391 0.25012213
vt -5.9604645E-08 -5.9604645E-08
vt 1.0000002 -5.9604645E-08
vt 0.37518322 0.749878
vt 0.4997558 1.0000002
vt 0.6248169 0.749878
vt 0.25012213 0.5002443
vt 0.749878 0.5002443
vt 0.12506104 0.25012213
vt 0.8749391 0.25012213
vt -5.9604645E-08 -5.9604645E-08
vt 1.0000002 -5.9604645E-08
vt 0.37518322 0.749878
vt 0.4997558 1.0000002
vt 0.6248169 0.749878
vt 0.25012213 0.5002443
vt 0.749878 0.5002443
vt 0.12506104 0.25012213
vt 0.8749391 0.25012213
vt -5.9604645E-08 -5.9604645E-08
vt 1.0000002 -5.9604645E-08
vt 0.37518322 0.749878
vt 0.4997558 1.0000002
vt 0.6248169 0.749878
vt 0.25012213 0.5002443
vt 0.749878 0.5002443
vt 0.12506104 0.25012213
vt 0.8749391 0.25012213
vt -5.9604645E-08 -5.9604645E-08
vt 1.0000002 -5.9604645E-08
vn -0 1 -0
vn -0 1 -0
vn -0 1 -0
vn -0 1 -0
vn -0 1 -0
vn -0 1 -0
vn -0 1 -0
vn -0 1 -0
vn -0 1 -0
vn -0 1 -0
vn -0 1 -0
vn -0 1 -0
vn -0 1 -0
vn -0 1 -0
vn -0 1 -0
vn -0 1 -0
vn -0 1 -0
vn -0 1 -0
vn -0 1 -0
vn -0 1 -0
vn -0 1 -0
vn -0 1 -0
vn -0 1 -0
vn -0 1 -0
vn -0 1 -0
vn -0 1 -0
vn -0 1 -0
vn -0 1 -0
vn -0 1 -0
vn -0 1 -0
vn -0 1 -0
vn -0 1 -0
vn -0 1 -0
vn -0 1 -0
vn -0 1 -0
vn -0 1 -0
vn -0 1 -0
vn -0 1 -0
vn -0 1 -0
vn -0 1 -0
vn -0 1 -0
vn -0 1 -0
vn -0 1 -0
vn -0 1 -0
vn -0 1 -0
vn -0 1 -0
vn -0 1 -0
vn -0 1 -0
vn -0 1 -0
vn -0 1 -0
vn -0 1 -0
vn -0 1 -0
vn -0 1 -0
vn -0 1 -0
g deepPoolWater_0
f 3/3/3 2/2/2 1/1/1
f 3/3/3 1/1/1 4/4/4
f 5/5/5 3/3/3 4/4/4
f 5/5/5 4/4/4 6/6/6
f 7/7/7 5/5/5 6/6/6
f 7/7/7 6/6/6 8/8/8
f 9/9/9 7/7/7 8/8/8
f 12/12/12 11/11/11 10/10/10
f 12/12/12 10/10/10 13/13/13
f 14/14/14 12/12/12 13/13/13
f 14/14/14 13/13/13 15/15/15
f 16/16/16 14/14/14 15/15/15
f 16/16/16 15/15/15 17/17/17
f 18/18/18 16/16/16 17/17/17
f 21/21/21 20/20/20 19/19/19
f 21/21/21 19/19/19 22/22/22
f 23/23/23 21/21/21 22/22/22
f 23/23/23 22/22/22 24/24/24
f 25/25/25 23/23/23 24/24/24
f 25/25/25 24/24/24 26/26/26
f 27/27/27 25/25/25 26/26/26
f 30/30/30 29/29/29 28/28/28
f 30/30/30 28/28/28 31/31/31
f 32/32/32 30/30/30 31/31/31
f 32/32/32 31/31/31 33/33/33
f 34/34/34 32/32/32 33/33/33
f 34/34/34 33/33/33 35/35/35
f 36/36/36 34/34/34 35/35/35
f 39/39/39 38/38/38 37/37/37
f 39/39/39 37/37/37 40/40/40
f 41/41/41 39/39/39 40/40/40
f 41/41/41 40/40/40 42/42/42
f 43/43/43 41/41/41 42/42/42
f 43/43/43 42/42/42 44/44/44
f 45/45/45 43/43/43 44/44/44
f 48/48/48 47/47/47 46/46/46
f 48/48/48 46/46/46 49/49/49
f 50/50/50 48/48/48 49/49/49
f 50/50/50 49/49/49 51/51/51
f 52/52/52 50/50/50 51/51/51
f 52/52/52 51/51/51 53/53/53
f 54/54/54 52/52/52 53/53/53
