g distressFlag
v -0.36372042 1.5388467 -0.5828026
v -0.42892414 1.5408494 -0.5928496
v -0.36966032 1.6210897 -0.5892177
v -0.46429223 1.6223116 -0.6021159
v -0.42322177 1.458946 -0.58697754
v -0.427193 1.3770764 -0.5970585
v -0.42322177 1.458946 -0.58697754
v -0.3742426 1.3753793 -0.5796799
v -0.42322177 1.458946 -0.58697754
v -0.36382222 1.457113 -0.5816825
v -0.3742426 1.3753793 -0.5796799
v -0.36372042 1.5388467 -0.5828026
v -0.13525283 1.4106116 -0.5844318
v -0.06037551 1.3816586 -0.57397753
v -0.16138864 1.3329511 -0.58147883
v -0.06037551 1.3816586 -0.57397753
v -0.09268886 1.3065436 -0.5839906
v -0.16138864 1.3329511 -0.58147883
v -0.09102565 1.5683768 -0.5716355
v -0.002096057 1.5349772 -0.5750976
v -0.10976195 1.4882383 -0.5657295
v -0.002096057 1.5349772 -0.5750976
v -0.0279603 1.4567397 -0.56352323
v -0.10976195 1.4882383 -0.5657295
v -0.027417243 1.274332 -0.5624031
v 0.01212585 1.3463244 -0.5762177
v 0.033407867 1.2382512 -0.57669294
v 0.01212585 1.3463244 -0.5762177
v 0.078517556 1.3067813 -0.5818183
v 0.033407867 1.2382512 -0.57669294
v 0.083608985 1.4940085 -0.5804945
v 0.16490147 1.4458101 -0.5725859
v 0.051329553 1.4182827 -0.5769984
v 0.16490147 1.4458101 -0.5725859
v 0.12325391 1.3752096 -0.5740454
v 0.051329553 1.4182827 -0.5769984
v 0.01212585 1.3463244 -0.5762177
v -0.29244095 1.4484916 -0.5735023
v -0.21284556 1.432946 -0.5829044
v -0.30445665 1.3675046 -0.5788992
v -0.21284556 1.432946 -0.5829044
v -0.23219287 1.3533165 -0.5787974
v -0.30445665 1.3675046 -0.5788992
v -0.25693703 1.2750111 -0.5762856
v -0.27533388 1.6116197 -0.5829723
v -0.18219543 1.5940034 -0.57760936
v -0.27950883 1.5294785 -0.5903039
v -0.18219543 1.5940034 -0.57760936
v -0.19322675 1.5125413 -0.5917295
v -0.27950883 1.5294785 -0.5903039
v -0.19322675 1.5125413 -0.5917295
v -0.21284556 1.432946 -0.5829044
v -0.27950883 1.5294785 -0.5903039
v -0.21284556 1.432946 -0.5829044
v -0.29244095 1.4484916 -0.5735023
v -0.27950883 1.5294785 -0.5903039
v -0.0279603 1.4567397 -0.56352323
v -0.06037551 1.3816586 -0.57397753
v -0.10976195 1.4882383 -0.5657295
v -0.06037551 1.3816586 -0.57397753
v -0.13525283 1.4106116 -0.5844318
v -0.10976195 1.4882383 -0.5657295
v 0.078517556 1.3067813 -0.5818183
v 0.01212585 1.3463244 -0.5762177
v 0.12325391 1.3752096 -0.5740454
v -0.45485622 1.2948334 -0.5859932
v -0.427193 1.3770764 -0.5970585
v -0.38839668 1.2939849 -0.5810376
v -0.427193 1.3770764 -0.5970585
v -0.3742426 1.3753793 -0.5796799
v -0.38839668 1.2939849 -0.5810376
v -0.25693703 1.2750111 -0.5762856
v -0.3218013 1.287332 -0.5903039
v -0.30445665 1.3675046 -0.5788992
v -0.09268886 1.3065436 -0.5839906
v -0.1309421 1.233635 -0.57082087
v -0.16138864 1.3329511 -0.58147883
v -0.19312495 1.2570553 -0.57071906
v 0.033407867 1.2382512 -0.57669294
v -0.014111757 1.1712484 -0.5678339
v -0.027417243 1.274332 -0.5624031
v -0.014111757 1.1712484 -0.5678339
v -0.070728004 1.2049875 -0.58141094
v -0.027417243 1.274332 -0.5624031
v -0.027417243 1.274332 -0.5624031
v -0.070728004 1.2049875 -0.58141094
v -0.09268886 1.3065436 -0.5839906
v -0.070728004 1.2049875 -0.58141094
v -0.1309421 1.233635 -0.57082087
v -0.09268886 1.3065436 -0.5839906
v -0.06037551 1.3816586 -0.57397753
v 0.01212585 1.3463244 -0.5762177
v -0.09268886 1.3065436 -0.5839906
v 0.01212585 1.3463244 -0.5762177
v -0.027417243 1.274332 -0.5624031
v -0.09268886 1.3065436 -0.5839906
v -0.0279603 1.4567397 -0.56352323
v 0.051329553 1.4182827 -0.5769984
v -0.06037551 1.3816586 -0.57397753
v 0.051329553 1.4182827 -0.5769984
v 0.01212585 1.3463244 -0.5762177
v -0.06037551 1.3816586 -0.57397753
v -0.002096057 1.5349772 -0.5750976
v 0.083608985 1.4940085 -0.5804945
v -0.0279603 1.4567397 -0.56352323
v 0.083608985 1.4940085 -0.5804945
v 0.051329553 1.4182827 -0.5769984
v -0.0279603 1.4567397 -0.56352323
v -0.16138864 1.3329511 -0.58147883
v -0.19312495 1.2570553 -0.57071906
v -0.23219287 1.3533165 -0.5787974
v -0.19312495 1.2570553 -0.57071906
v -0.25693703 1.2750111 -0.5762856
v -0.23219287 1.3533165 -0.5787974
v -0.23219287 1.3533165 -0.5787974
v -0.21284556 1.432946 -0.5829044
v -0.16138864 1.3329511 -0.58147883
v -0.13525283 1.4106116 -0.5844318
v -0.10976195 1.4882383 -0.5657295
v -0.13525283 1.4106116 -0.5844318
v -0.19322675 1.5125413 -0.5917295
v -0.13525283 1.4106116 -0.5844318
v -0.21284556 1.432946 -0.5829044
v -0.19322675 1.5125413 -0.5917295
v -0.18219543 1.5940034 -0.57760936
v -0.09102565 1.5683768 -0.5716355
v -0.19322675 1.5125413 -0.5917295
v -0.09102565 1.5683768 -0.5716355
v -0.10976195 1.4882383 -0.5657295
v -0.19322675 1.5125413 -0.5917295
v 0.09314686 1.1953816 -0.580766
v 0.04026431 1.1327236 -0.5808339
v 0.033407867 1.2382512 -0.57669294
v 0.14368734 1.2597709 -0.57764333
v 0.04026431 1.1327236 -0.5808339
v -0.014111757 1.1712484 -0.5678339
v 0.033407867 1.2382512 -0.57669294
v 0.078517556 1.3067813 -0.5818183
v 0.14368734 1.2597709 -0.57764333
v 0.033407867 1.2382512 -0.57669294
v 0.19351506 1.3241599 -0.55486786
v 0.14368734 1.2597709 -0.57764333
v 0.12325391 1.3752096 -0.5740454
v 0.14368734 1.2597709 -0.57764333
v 0.078517556 1.3067813 -0.5818183
v 0.12325391 1.3752096 -0.5740454
v 0.16490147 1.4458101 -0.5725859
v 0.24154383 1.390789 -0.56077385
v 0.12325391 1.3752096 -0.5740454
v 0.24154383 1.390789 -0.56077385
v 0.19351506 1.3241599 -0.55486786
v 0.12325391 1.3752096 -0.5740454
v -0.38839668 1.2939849 -0.5810376
v -0.3742426 1.3753793 -0.5796799
v -0.3218013 1.287332 -0.5903039
v -0.3742426 1.3753793 -0.5796799
v -0.30445665 1.3675046 -0.5788992
v -0.3218013 1.287332 -0.5903039
v -0.36382222 1.457113 -0.5816825
v -0.29244095 1.4484916 -0.5735023
v -0.3742426 1.3753793 -0.5796799
v -0.36372042 1.5388467 -0.5828026
v -0.29244095 1.4484916 -0.5735023
v -0.30445665 1.3675046 -0.5788992
v -0.3742426 1.3753793 -0.5796799
v -0.36372042 1.5388467 -0.5828026
v -0.27950883 1.5294785 -0.5903039
v -0.29244095 1.4484916 -0.5735023
v -0.36966032 1.6210897 -0.5892177
v -0.27533388 1.6116197 -0.5829723
v -0.36372042 1.5388467 -0.5828026
v -0.27533388 1.6116197 -0.5829723
v -0.27950883 1.5294785 -0.5903039
v -0.36372042 1.5388467 -0.5828026
vt 0.12512219 0.7497556
vt 0 0.7497556
vt 0.12512219 1
vt 0 1
vt 0 0.50048876
vt 0 0.25024438
vt 0 0.50048876
vt 0.12512219 0.25024438
vt 0 0.50048876
vt 0.12512219 0.50048876
vt 0.12512219 0.25024438
vt 0.12512219 0.7497556
vt 0.50048876 0.50048876
vt 0.62463343 0.50048876
vt 0.50048876 0.25024438
vt 0.62463343 0.50048876
vt 0.62463343 0.25024438
vt 0.50048876 0.25024438
vt 0.50048876 1
vt 0.62463343 1
vt 0.50048876 0.7497556
vt 0.62463343 1
vt 0.62463343 0.7497556
vt 0.50048876 0.7497556
vt 0.7497556 0.25024438
vt 0.7497556 0.50048876
vt 0.8748778 0.25024438
vt 0.7497556 0.50048876
vt 0.8748778 0.50048876
vt 0.8748778 0.25024438
vt 0.7497556 1
vt 0.8748778 1
vt 0.7497556 0.7497556
vt 0.8748778 1
vt 0.8748778 0.7497556
vt 0.7497556 0.7497556
vt 0.7497556 0.50048876
vt 0.25024438 0.50048876
vt 0.37536657 0.50048876
vt 0.25024438 0.25024438
vt 0.37536657 0.50048876
vt 0.37536657 0.25024438
vt 0.25024438 0.25024438
vt 0.37536657 0
vt 0.25024438 1
vt 0.37536657 1
vt 0.25024438 0.7497556
vt 0.37536657 1
vt 0.37536657 0.7497556
vt 0.25024438 0.7497556
vt 0.37536657 0.7497556
vt 0.37536657 0.50048876
vt 0.25024438 0.7497556
vt 0.37536657 0.50048876
vt 0.25024438 0.50048876
vt 0.25024438 0.7497556
vt 0.62463343 0.7497556
vt 0.62463343 0.50048876
vt 0.50048876 0.7497556
vt 0.62463343 0.50048876
vt 0.50048876 0.50048876
vt 0.50048876 0.7497556
vt 0.8748778 0.50048876
vt 0.7497556 0.50048876
vt 0.8748778 0.7497556
vt 0 0
vt 0 0.25024438
vt 0.12512219 0
vt 0 0.25024438
vt 0.12512219 0.25024438
vt 0.12512219 0
vt 0.37536657 0
vt 0.25024438 0
vt 0.25024438 0.25024438
vt 0.62463343 0.25024438
vt 0.62463343 0
vt 0.50048876 0.25024438
vt 0.50048876 0
vt 0.8748778 0.25024438
vt 0.8748778 0
vt 0.7497556 0.25024438
vt 0.8748778 0
vt 0.7497556 0
vt 0.7497556 0.25024438
vt 0.7497556 0.25024438
vt 0.7497556 0
vt 0.62463343 0.25024438
vt 0.7497556 0
vt 0.62463343 0
vt 0.62463343 0.25024438
vt 0.62463343 0.50048876
vt 0.7497556 0.50048876
vt 0.62463343 0.25024438
vt 0.7497556 0.50048876
vt 0.7497556 0.25024438
vt 0.62463343 0.25024438
vt 0.62463343 0.7497556
vt 0.7497556 0.7497556
vt 0.62463343 0.50048876
vt 0.7497556 0.7497556
vt 0.7497556 0.50048876
vt 0.62463343 0.50048876
vt 0.62463343 1
vt 0.7497556 1
vt 0.62463343 0.7497556
vt 0.7497556 1
vt 0.7497556 0.7497556
vt 0.62463343 0.7497556
vt 0.50048876 0.25024438
vt 0.50048876 0
vt 0.37536657 0.25024438
vt 0.50048876 0
vt 0.37536657 0
vt 0.37536657 0.25024438
vt 0.37536657 0.25024438
vt 0.37536657 0.50048876
vt 0.50048876 0.25024438
vt 0.50048876 0.50048876
vt 0.50048876 0.7497556
vt 0.50048876 0.50048876
vt 0.37536657 0.7497556
vt 0.50048876 0.50048876
vt 0.37536657 0.50048876
vt 0.37536657 0.7497556
vt 0.37536657 1
vt 0.50048876 1
vt 0.37536657 0.7497556
vt 0.50048876 1
vt 0.50048876 0.7497556
vt 0.37536657 0.7497556
vt 1 0.25024438
vt 1 0
vt 0.8748778 0.25024438
vt 1 0.50048876
vt 1 0
vt 0.8748778 0
vt 0.8748778 0.25024438
vt 0.8748778 0.50048876
vt 1 0.50048876
vt 0.8748778 0.25024438
vt 1 0.7497556
vt 1 0.50048876
vt 0.8748778 0.7497556
vt 1 0.50048876
vt 0.8748778 0.50048876
vt 0.8748778 0.7497556
vt 0.8748778 1
vt 1 1
vt 0.8748778 0.7497556
vt 1 1
vt 1 0.7497556
vt 0.8748778 0.7497556
vt 0.12512219 0
vt 0.12512219 0.25024438
vt 0.25024438 0
vt 0.12512219 0.25024438
vt 0.25024438 0.25024438
vt 0.25024438 0
vt 0.12512219 0.50048876
vt 0.25024438 0.50048876
vt 0.12512219 0.25024438
vt 0.12512219 0.7497556
vt 0.25024438 0.50048876
vt 0.25024438 0.25024438
vt 0.12512219 0.25024438
vt 0.12512219 0.7497556
vt 0.25024438 0.7497556
vt 0.25024438 0.50048876
vt 0.12512219 1
vt 0.25024438 1
vt 0.12512219 0.7497556
vt 0.25024438 1
vt 0.25024438 0.7497556
vt 0.12512219 0.7497556
vn -0.15043232 0.06718978 0.98633444
vn -0.15043232 0.06718978 0.98633444
vn -0.15043232 0.06718978 0.98633444
vn -0.13424629 0.05562833 0.98938537
vn -0.15043232 0.060252905 0.9867825
vn -0.31229284 -0.10160759 0.94453645
vn -0.31229284 -0.10160759 0.94453645
vn -0.31229284 -0.10160759 0.94453645
vn -0.08800042 0.034817696 0.9955118
vn -0.08800042 0.034817696 0.9955118
vn -0.08800042 0.034817696 0.9955118
vn -0.08800042 0.014007062 0.9960219
vn -0.10881105 0.07412666 0.9912948
vn -0.10881105 0.07412666 0.9912948
vn -0.10881105 0.07412666 0.9912948
vn -0.011694759 -0.1270428 0.99182826
vn -0.011694759 -0.1270428 0.99182826
vn -0.011694759 -0.1270428 0.99182826
vn 0.05998631 0.060252905 0.9963791
vn 0.05998631 0.060252905 0.9963791
vn 0.05998631 0.060252905 0.9963791
vn 0.027614221 0.13887087 0.98992544
vn 0.027614221 0.13887087 0.98992544
vn 0.027614221 0.13887087 0.98992544
vn 0.2542189 0.04637915 0.96603405
vn 0.2542189 0.04637915 0.96603405
vn 0.2542189 0.04637915 0.96603405
vn 0.09235841 0.014007062 0.9956273
vn 0.09235841 0.014007062 0.9956273
vn 0.09235841 0.014007062 0.9956273
vn -0.05562833 0.069502085 0.9960296
vn -0.05562833 0.069502085 0.9960296
vn -0.05562833 0.069502085 0.9960296
vn -0.03944227 0.0024455786 0.9992189
vn -0.03944227 0.0024455786 0.9992189
vn -0.03944227 0.0024455786 0.9992189
vn -0.025568515 0.025568515 0.999346
vn 0.10160759 -0.08079696 0.99153805
vn 0.10160759 -0.08079696 0.99153805
vn 0.10160759 -0.08079696 0.99153805
vn 0.009115875 0.04869145 0.99877226
vn 0.009115875 0.04869145 0.99877226
vn 0.009115875 0.04869145 0.99877226
vn 0.0044912845 0.03019309 0.999534
vn -0.07412666 -0.08542153 0.9935836
vn -0.07412666 -0.08542153 0.9935836
vn -0.07412666 -0.08542153 0.9935836
vn -0.016319335 -0.16866407 0.9855385
vn -0.016319335 -0.16866407 0.9855385
vn -0.016319335 -0.16866407 0.9855385
vn 0.036863387 0.10187417 0.99411404
vn 0.036863387 0.10187417 0.99411404
vn 0.036863387 0.10187417 0.99411404
vn 0.15016574 0.17817983 0.9724722
vn 0.15016574 0.17817983 0.9724722
vn 0.15016574 0.17817983 0.9724722
vn -0.069502085 -0.10854447 0.991659
vn -0.069502085 -0.10854447 0.991659
vn -0.069502085 -0.10854447 0.991659
vn -0.19899046 -0.16635178 0.9657794
vn -0.19899046 -0.16635178 0.9657794
vn -0.19899046 -0.16635178 0.9657794
vn 0.011428162 -0.12010592 0.9926953
vn 0.011428162 -0.12010592 0.9926953
vn 0.011428162 -0.12010592 0.9926953
vn -0.07181436 0.1573692 0.9849252
vn -0.07181436 0.1573692 0.9849252
vn -0.07181436 0.1573692 0.9849252
vn -0.30998054 0.03712997 0.9500176
vn -0.30998054 0.03712997 0.9500176
vn -0.30998054 0.03712997 0.9500176
vn -0.22673798 -0.09004612 0.9697843
vn -0.22673798 -0.09004612 0.9697843
vn -0.22673798 -0.09004612 0.9697843
vn 0.087733835 0.13193399 0.98736835
vn 0.087733835 0.13193399 0.98736835
vn 0.087733835 0.13193399 0.98736835
vn 0.046112552 0.120372534 0.99165726
vn 0.21490993 -0.02298963 0.97636324
vn 0.21490993 -0.02298963 0.97636324
vn 0.21490993 -0.02298963 0.97636324
vn -0.27992073 -0.087733835 0.9560058
vn -0.27992073 -0.087733835 0.9560058
vn -0.27992073 -0.087733835 0.9560058
vn -0.33541575 -0.048424855 0.9408248
vn -0.33541575 -0.048424855 0.9408248
vn -0.33541575 -0.048424855 0.9408248
vn 0.20334846 0.069502085 0.9766365
vn 0.20334846 0.069502085 0.9766365
vn 0.20334846 0.069502085 0.9766365
vn -0.027880818 -0.12010592 0.9923695
vn -0.027880818 -0.12010592 0.9923695
vn -0.027880818 -0.12010592 0.9923695
vn -0.17586756 0.27760842 0.94445974
vn -0.17586756 0.27760842 0.94445974
vn -0.17586756 0.27760842 0.94445974
vn 0.083109245 -0.17328866 0.9813582
vn 0.083109245 -0.17328866 0.9813582
vn 0.083109245 -0.17328866 0.9813582
vn 0.027614221 -0.0044912845 0.9996086
vn 0.027614221 -0.0044912845 0.9996086
vn 0.027614221 -0.0044912845 0.9996086
vn 0.113169044 0.10881105 0.98759955
vn 0.113169044 0.10881105 0.98759955
vn 0.113169044 0.10881105 0.98759955
vn 0.15710261 -0.020677343 0.9873658
vn 0.15710261 -0.020677343 0.9873658
vn 0.15710261 -0.020677343 0.9873658
vn 0.06923549 0.11112335 0.99139196
vn 0.06923549 0.11112335 0.99139196
vn 0.06923549 0.11112335 0.99139196
vn -0.07181436 0.05562833 0.9958656
vn -0.07181436 0.05562833 0.9958656
vn -0.07181436 0.05562833 0.9958656
vn 0.048424855 0.03944227 0.99804777
vn 0.048424855 0.03944227 0.99804777
vn 0.048424855 0.03944227 0.99804777
vn 0.027614221 0.027880818 0.9992298
vn -0.3261666 -0.117793635 0.93794453
vn -0.3261666 -0.117793635 0.93794453
vn -0.3261666 -0.117793635 0.93794453
vn 0.048424855 0.0972496 0.99408126
vn 0.048424855 0.0972496 0.99408126
vn 0.048424855 0.0972496 0.99408126
vn -0.10881105 -0.15479031 0.98193693
vn -0.10881105 -0.15479031 0.98193693
vn -0.10881105 -0.15479031 0.98193693
vn -0.25911006 0.13193399 0.9567943
vn -0.25911006 0.13193399 0.9567943
vn -0.25911006 0.13193399 0.9567943
vn 0.041487977 -0.036863387 0.99845874
vn 0.041487977 -0.036863387 0.99845874
vn 0.041487977 -0.036863387 0.99845874
vn 0.020677343 -0.0646109 0.9976963
vn 0.21722221 -0.025301918 0.9757942
vn 0.21722221 -0.025301918 0.9757942
vn 0.21722221 -0.025301918 0.9757942
vn -0.0070701838 0.078751236 0.9968692
vn -0.0070701838 0.078751236 0.9968692
vn -0.0070701838 0.078751236 0.9968692
vn -0.3192297 -0.08542153 0.94381964
vn -0.3192297 -0.08542153 0.94381964
vn -0.3192297 -0.08542153 0.94381964
vn -0.09956187 -0.048424855 0.9938523
vn -0.09956187 -0.048424855 0.9938523
vn -0.09956187 -0.048424855 0.9938523
vn -0.11806023 0.04869145 0.991812
vn -0.11806023 0.04869145 0.991812
vn -0.11806023 0.04869145 0.991812
vn -0.13424629 0.18280444 0.9739407
vn -0.13424629 0.18280444 0.9739407
vn -0.13424629 0.18280444 0.9739407
vn 0.13397968 -0.039175674 0.9902094
vn 0.13397968 -0.039175674 0.9902094
vn 0.13397968 -0.039175674 0.9902094
vn -0.025568515 -0.13629198 0.99033874
vn -0.025568515 -0.13629198 0.99033874
vn -0.025568515 -0.13629198 0.99033874
vn -0.10881105 0.03944227 0.99327964
vn -0.10881105 0.03944227 0.99327964
vn -0.10881105 0.03944227 0.99327964
vn -0.11112335 0.014007062 0.9937079
vn -0.018631637 -0.06229861 0.9978836
vn -0.018631637 -0.06229861 0.9978836
vn -0.018631637 -0.06229861 0.9978836
vn 0.10623217 0.18511671 0.9769578
vn 0.10623217 0.18511671 0.9769578
vn 0.10623217 0.18511671 0.9769578
vn -0.057940602 0.07412666 0.9955642
vn -0.057940602 0.07412666 0.9955642
vn -0.057940602 0.07412666 0.9955642
vn 0.078484654 -0.09235841 0.99262786
vn 0.078484654 -0.09235841 0.99262786
vn 0.078484654 -0.09235841 0.99262786
g distressFlag_0
f 3/3/3 2/2/2 1/1/1
f 3/3/3 4/4/4 2/2/2
f 1/1/1 2/2/2 5/5/5
f 8/8/8 7/7/7 6/6/6
f 11/11/11 10/10/10 9/9/9
f 12/12/12 9/9/9 10/10/10
f 15/15/15 14/14/14 13/13/13
f 18/18/18 17/17/17 16/16/16
f 21/21/21 20/20/20 19/19/19
f 24/24/24 23/23/23 22/22/22
f 27/27/27 26/26/26 25/25/25
f 30/30/30 29/29/29 28/28/28
f 33/33/33 32/32/32 31/31/31
f 36/36/36 35/35/35 34/34/34
f 35/35/35 36/36/36 37/37/37
f 40/40/40 39/39/39 38/38/38
f 43/43/43 42/42/42 41/41/41
f 43/43/43 44/44/44 42/42/42
f 47/47/47 46/46/46 45/45/45
f 50/50/50 49/49/49 48/48/48
f 53/53/53 52/52/52 51/51/51
f 56/56/56 55/55/55 54/54/54
f 59/59/59 58/58/58 57/57/57
f 62/62/62 61/61/61 60/60/60
f 65/65/65 64/64/64 63/63/63
f 68/68/68 67/67/67 66/66/66
f 71/71/71 70/70/70 69/69/69
f 74/74/74 73/73/73 72/72/72
f 77/77/77 76/76/76 75/75/75
f 77/77/77 78/78/78 76/76/76
f 81/81/81 80/80/80 79/79/79
f 84/84/84 83/83/83 82/82/82
f 87/87/87 86/86/86 85/85/85
f 90/90/90 89/89/89 88/88/88
f 93/93/93 92/92/92 91/91/91
f 96/96/96 95/95/95 94/94/94
f 99/99/99 98/98/98 97/97/97
f 102/102/102 101/101/101 100/100/100
f 105/105/105 104/104/104 103/103/103
f 108/108/108 107/107/107 106/106/106
f 111/111/111 110/110/110 109/109/109
f 114/114/114 113/113/113 112/112/112
f 117/117/117 116/116/116 115/115/115
f 117/117/117 118/118/118 116/116/116
f 121/121/121 120/120/120 119/119/119
f 124/124/124 123/123/123 122/122/122
f 127/127/127 126/126/126 125/125/125
f 130/130/130 129/129/129 128/128/128
f 133/133/133 132/132/132 131/131/131
f 133/133/133 131/131/131 134/134/134
f 137/137/137 136/136/136 135/135/135
f 140/140/140 139/139/139 138/138/138
f 143/143/143 142/142/142 141/141/141
f 146/146/146 145/145/145 144/144/144
f 149/149/149 148/148/148 147/147/147
f 152/152/152 151/151/151 150/150/150
f 155/155/155 154/154/154 153/153/153
f 158/158/158 157/157/157 156/156/156
f 161/161/161 160/160/160 159/159/159
f 160/160/160 162/162/162 159/159/159
f 165/165/165 164/164/164 163/163/163
f 168/168/168 167/167/167 166/166/166
f 171/171/171 170/170/170 169/169/169
f 174/174/174 173/173/173 172/172/172
