g dragonTempleEnd
v 1.6827374 0.6276188 -8.278898
v -1.6828423 0.6276188 -8.278898
v -1.6828423 0.847497 -8.278898
v 1.6827374 0.847497 -8.278898
v 1.6827374 0.847497 -8.278898
v -1.6828423 0.847497 -8.278898
v -1.6828423 0.847497 -8.745731
v 1.6827374 0.847497 -8.745731
v 1.6827374 0.40063477 -8.232426
v -1.6828423 0.40063477 -8.232426
v -1.6828423 0.6061106 -8.232426
v 1.6827374 0.6061106 -8.232426
v 1.6827374 0.6061106 -8.232426
v -1.6828423 0.6061106 -8.232426
v -1.6828423 0.6276188 -8.278898
v 1.6827374 0.6276188 -8.278898
v 1.6827374 5.2452087E-05 -8.232426
v -1.6828423 5.2452087E-05 -8.232426
v -1.6828423 0.22703648 -8.232426
v 1.6827374 0.22703648 -8.232426
v 1.6827374 0.2520008 -8.251629
v -1.6828423 0.2520008 -8.251629
v -1.6828423 0.37567043 -8.251629
v 1.6827374 0.37567043 -8.251629
v 1.6827374 0.22703648 -8.232426
v -1.6828423 0.22703648 -8.232426
v -1.6828423 0.2520008 -8.251629
v 1.6827374 0.2520008 -8.251629
v 1.6827374 0.37567043 -8.251629
v -1.6828423 0.37567043 -8.251629
v -1.6828423 0.40063477 -8.232426
v 1.6827374 0.40063477 -8.232426
v 1.6827374 0.847497 -8.745731
v -1.6828423 0.847497 -8.745731
v -1.6828423 3.8391876 -8.745731
v 1.6827374 3.8391876 -8.745731
vt 0.39996135 0.513933
vt 0.39996135 0.513933
vt 0.39996135 0.5290761
vt 0.39996135 0.5290761
vt 0.39996135 0.5290761
vt 0.39996135 0.5290761
vt 0.38481826 0.5290761
vt 0.38481826 0.5290761
vt 0.3943823 0.4987899
vt 0.3943823 0.4987899
vt 0.3943823 0.513933
vt 0.3943823 0.513933
vt 0.3943823 0.513933
vt 0.3943823 0.513933
vt 0.39996135 0.513933
vt 0.39996135 0.513933
vt 0.3943823 0.47089475
vt 0.3943823 0.47089475
vt 0.3943823 0.48683482
vt 0.3943823 0.48683482
vt 0.09470861 0.3903973
vt 0.09470861 0.3903973
vt 0.09470861 0.40075833
vt 0.09470861 0.40075833
vt 0.3943823 0.48683482
vt 0.3943823 0.48683482
vt 0.39677334 0.48842883
vt 0.39677334 0.48842883
vt 0.39677334 0.49639887
vt 0.39677334 0.49639887
vt 0.3943823 0.4987899
vt 0.3943823 0.4987899
vt 0.91004425 0.10825768
vt 0.10347566 0.10825768
vt 0.10347566 0.82556176
vt 0.91004425 0.82556176
vn -0.002893567 0.002893567 0.99999166
vn -0.002893567 0.002893567 0.99999166
vn -0.002893567 0.002893567 0.99999166
vn -0.002893567 0.002893567 0.99999166
vn -0.002893567 0.9999958 -0
vn -0.002893567 0.9999958 -0
vn -0.002893567 0.9999958 -0
vn -0.002893567 0.9999958 -0
vn -0.002893567 0.002893567 0.99999166
vn -0.002893567 0.002893567 0.99999166
vn -0.002893567 0.002893567 0.99999166
vn -0.002893567 0.002893567 0.99999166
vn -0.002893567 0.90533423 0.42468998
vn -0.002893567 0.90533423 0.42468998
vn -0.002893567 0.90533423 0.42468998
vn -0.002893567 0.90533423 0.42468998
vn -0.002893567 0.002893567 0.99999166
vn -0.002893567 0.002893567 0.99999166
vn -0.002893567 0.002893567 0.99999166
vn -0.002893567 0.002893567 0.99999166
vn -0.002893567 0.002893567 0.99999166
vn -0.002893567 0.002893567 0.99999166
vn -0.002893567 0.002893567 0.99999166
vn -0.002893567 0.002893567 0.99999166
vn -0.002893567 0.60872793 0.7933738
vn -0.002893567 0.60872793 0.7933738
vn -0.002893567 0.60872793 0.7933738
vn -0.002893567 0.60872793 0.7933738
vn -0.002893567 -0.6092515 0.7929718
vn -0.002893567 -0.6092515 0.7929718
vn -0.002893567 -0.6092515 0.7929718
vn -0.002893567 -0.6092515 0.7929718
vn -0.002893567 0.002893567 0.99999166
vn -0.002893567 0.002893567 0.99999166
vn -0.002893567 0.002893567 0.99999166
vn -0.002893567 0.002893567 0.99999166
g dragonTempleEnd_0
f 3/3/3 2/2/2 1/1/1
f 4/4/4 3/3/3 1/1/1
f 7/7/7 6/6/6 5/5/5
f 8/8/8 7/7/7 5/5/5
f 11/11/11 10/10/10 9/9/9
f 12/12/12 11/11/11 9/9/9
f 15/15/15 14/14/14 13/13/13
f 16/16/16 15/15/15 13/13/13
f 19/19/19 18/18/18 17/17/17
f 20/20/20 19/19/19 17/17/17
f 23/23/23 22/22/22 21/21/21
f 24/24/24 23/23/23 21/21/21
f 27/27/27 26/26/26 25/25/25
f 28/28/28 27/27/27 25/25/25
f 31/31/31 30/30/30 29/29/29
f 32/32/32 31/31/31 29/29/29
g dragonTempleEnd_1
f 35/35/35 34/34/34 33/33/33
f 36/36/36 35/35/35 33/33/33
