g dropstoneDio_lava
v 3.3209496 -0.5685234 -35.841145
v 6.375469 -0.5685234 -39.437054
v 12.449862 -0.5685234 -38.205933
v 10.152203 -0.5685234 -33.37674
v 1.037365 -0.5685234 -31.995111
v 10.152203 -0.5685234 -33.37674
v 9.628138 -0.5685234 -28.97091
v -0.33343124 -0.5685234 -27.513489
v 6.183819 -0.5685234 -25.564484
v -0.42871475 -0.5685234 -23.29173
v -0.33343124 -0.5685234 -27.513489
v 4.660347 -0.5685234 -22.688623
v -0.17859268 -0.5685234 -18.650938
v 4.660347 -0.5685234 -22.688623
v 5.3663177 -0.5685234 -18.237316
v -1.3685684 -0.5685234 -14.847134
v 2.308548 -0.5685234 -14.303579
v -1.7193909 -0.5685234 -10.779133
v 2.308548 -0.5685234 -14.303579
v 2.1818657 -0.5685234 -9.374767
v -0.95386505 -0.5685234 -6.4599266
v -1.7193909 -0.5685234 -10.779133
v 2.1818657 -0.5685234 -9.374767
v 0.8641205 -0.5685234 -6.2498665
v 5.3663177 -0.5685234 -18.237316
v 7.2059593 -0.5685234 -13.453598
v 5.20282 -0.5685234 -11.788282
v 2.308548 -0.5685234 -14.303579
v 8.952484 -0.5685234 -9.723423
v 7.057621 -0.5685234 -8.330969
v 5.20282 -0.5685234 -11.788282
v 8.952484 -0.5685234 -9.723423
v 8.572428 -0.5685234 -3.3317757
v 10.485699 -0.5685234 -5.331669
v 10.485699 -0.5685234 -5.331669
v 12.60145 -0.5685234 -2.3962555
v 10.347103 -0.5685234 -0.4461708
v 8.572428 -0.5685234 -3.3317757
v -28.384998 3.3403091 -33.886726
v -29.670254 3.1919708 -32.288544
v -29.966938 3.3717117 -33.869404
v -29.966938 3.3717117 -33.869404
v -29.670254 3.1919708 -32.288544
v -31.270603 3.1551552 -33.812016
v -31.270603 3.1551552 -33.812016
v -29.670254 3.1919708 -32.288544
v -31.522892 3.4410095 -32.280964
v -31.049717 3.5806885 -31.058506
v -31.049717 3.5806885 -31.058506
v -29.670254 3.1919708 -32.288544
v -30.081715 3.4193535 -30.617817
v -29.547901 3.3392258 -30.076427
v -27.71584 3.2980804 -31.105066
v -29.547901 3.3392258 -30.076427
v -29.670254 3.1919708 -32.288544
v -27.71584 3.2980804 -31.105066
v -29.670254 3.1919708 -32.288544
v -27.725582 3.63266 -32.06874
v -27.725582 3.63266 -32.06874
v -29.670254 3.1919708 -32.288544
v -28.384998 3.3403091 -33.886726
v -28.806194 2.982994 -29.06836
v -26.956814 3.1594849 -30.17604
v -26.88535 2.644085 -29.690956
v -28.44347 2.444851 -28.784672
v -28.97511 3.2796745 -29.471153
v -27.360691 3.3836212 -30.614567
v -26.956814 3.1594849 -30.17604
v -28.806194 2.982994 -29.06836
v -27.71584 3.2980804 -31.105066
v -27.360691 3.3836212 -30.614567
v -28.97511 3.2796745 -29.471153
v -29.547901 3.3392258 -30.076427
v -24.583355 2.410202 -28.061375
v -26.46848 2.5520477 -24.876919
v -28.44347 2.444851 -28.784672
v -26.88535 2.644085 -29.690956
v -26.46848 2.5520477 -24.876919
v -24.583355 2.410202 -28.061375
v -23.174664 2.2347908 -26.72739
v -23.304596 2.052887 -24.745903
v -25.55894 2.4513474 -23.498543
v -21.340435 2.0214844 -25.928299
v -19.822376 1.835247 -25.435635
v -21.07407 1.7746124 -23.402174
v -23.304596 2.052887 -24.745903
v -23.304596 2.052887 -24.745903
v -23.174664 2.2347908 -26.72739
v -16.412704 1.254879 -12.158594
v -16.360733 1.2418823 -12.568966
v -14.88382 1.1563454 -11.007599
v -14.971527 1.1530952 -10.718496
v -13.872505 1.0383224 -9.98329
v -16.360733 1.2418823 -12.568966
v -16.412704 1.254879 -12.158594
v -17.925346 1.4032173 -13.927855
v -17.779175 1.2743683 -14.76376
v -18.765583 1.5277367 -15.292156
v -18.342216 1.4952545 -16.091248
v -17.779175 1.2743683 -14.76376
v -17.925346 1.4032173 -13.927855
v -12.494125 0.41355896 -19.357994
v -13.341942 0.71565247 -18.447376
v -14.473446 1.1065369 -18.536163
v -14.14753 0.9982567 -19.83225
v -10.483406 -0.52412796 -18.28929
v -10.035133 -0.31407166 -18.419224
v -8.546314 -0.1202507 -17.164282
v -14.473446 1.1065369 -18.536163
v -17.033138 0.8791542 -19.696903
v -15.379734 0.83908844 -21.598265
v -14.14753 0.9982567 -19.83225
v -25.55894 2.4513474 -23.498543
v -23.304596 2.052887 -24.745903
v -21.07407 1.7746124 -23.402174
v -23.723633 2.2109718 -21.98265
v -22.7762 2.0030785 -21.332983
v -19.822376 1.835247 -25.435635
v -17.06887 1.2938576 -23.968468
v -19.30156 1.4584389 -21.432598
v -21.07407 1.7746124 -23.402174
v -17.033138 0.8791542 -19.696903
v -15.379734 0.83908844 -21.598265
v -18.765583 1.5277367 -15.292156
v -19.953392 1.7800255 -16.526525
v -18.601002 1.6165237 -18.274132
v -18.342216 1.4952545 -16.091248
v -21.07407 1.7746124 -23.402174
v -19.871101 1.7746124 -20.75153
v -21.512596 1.8958817 -19.32551
v -22.7762 2.0030785 -21.332983
v -19.953392 1.7800255 -16.526525
v -18.601002 1.6165237 -18.274132
v -10.035133 -0.31407166 -18.419224
v -10.483406 -0.52412796 -18.28929
v -11.913757 -0.076942444 -18.702911
v -11.207787 0.01834488 -19.024498
v -11.207787 0.01834488 -19.024498
v -11.913757 -0.076942444 -18.702911
v -13.341942 0.71565247 -18.447376
v -12.494125 0.41355896 -19.357994
v 15.870361 0.65934753 -5.425873
v 14.213709 0.55107117 -4.138447
v 13.961422 0.5304985 -5.1053696
v 15.642977 0.65934753 -6.575783
v 19.272453 1.1206131 -8.055943
v 17.527014 0.9127197 -6.7046356
v 16.897919 0.9246292 -7.2232857
v 17.991526 1.1206131 -8.384024
v 15.642977 0.65934753 -6.575783
v 15.870361 0.65934753 -5.425873
v 18.659601 1.3826447 -9.631386
v 19.936197 1.3826447 -9.731003
v 19.272453 1.1206131 -8.055943
v 17.991526 1.1206131 -8.384024
v 18.551323 1.9554367 -11.739557
v 19.767284 1.9554367 -11.695164
v 19.936197 1.3826447 -9.731003
v 18.659601 1.3826447 -9.631386
v 18.70616 2.5726204 -14.077278
v 19.573467 2.5726204 -13.9949875
v 16.327293 2.2845993 -22.727602
v 17.188103 2.3062553 -22.735182
v 18.104136 2.4329414 -20.824076
v 17.276892 2.4329414 -20.860891
v 17.276892 2.4329414 -20.860891
v 18.104136 2.4329414 -20.824076
v 18.241648 2.673317 -18.241648
v 17.33103 2.7339554 -18.235151
v 17.33103 2.7339554 -18.235151
v 18.241648 2.673317 -18.241648
v 18.815521 2.6668205 -16.056599
v 17.905987 2.6668205 -16.132393
v 17.905987 2.6668205 -16.132393
v 18.815521 2.6668205 -16.056599
v 19.573467 2.5726204 -13.9949875
v 18.70616 2.5726204 -14.077278
v 14.213709 0.55107117 -4.138447
v 12.994499 0.55107117 -3.9013176
v 13.085453 0.5304985 -4.899639
v 13.961422 0.5304985 -5.1053696
vt 0.003910009 0.8729227
vt 0.003910009 0.99999994
vt 0.99511236 0.99999994
vt 0.99511236 0.8729227
vt 0.003910009 0.74877805
vt 0.99511236 0.8729227
vt 0.99511236 0.74877805
vt 0.003910009 0.6246334
vt 0.99511236 0.6246334
vt 0.003910009 0.5004887
vt 0.003910009 0.6246334
vt 0.99511236 0.5004887
vt 0.003910009 0.3753665
vt 0.99511236 0.5004887
vt 0.99511236 0.3753665
vt 0.003910009 0.25122184
vt 0.99511236 0.25122184
vt 0.003910009 0.12707716
vt 0.99511236 0.25122184
vt 0.99511236 0.12707716
vt 0.003910009 -5.9604645E-08
vt 0.003910009 0.12707716
vt 0.99511236 0.12707716
vt 0.99511236 -5.9604645E-08
vt 0.99511236 0.37243396
vt 0.99511236 0.27956983
vt 0.003910009 0.28054735
vt 0.003910009 0.374389
vt 0.99511236 0.18670571
vt 0.003910009 0.18670571
vt 0.003910009 0.28054735
vt 0.99511236 0.18670571
vt 0.003910009 0.09384158
vt 0.99511236 0.09286407
vt 0.99511236 0.09286407
vt 0.99511236 -5.9604645E-08
vt 0.003910009 -5.9604645E-08
vt 0.003910009 0.09384158
vt 0.99511236 0.9286412
vt 0.99511236 0.92473114
vt 0.99511236 0.96871936
vt 0.99511236 0.96871936
vt 0.99511236 0.92473114
vt 0.99511236 0.99999994
vt 0.99511236 0.99999994
vt 0.99511236 0.92473114
vt 0.00684256 0.9726295
vt 0.00684256 0.9335288
vt 0.00684256 0.9335288
vt 0.99511236 0.92473114
vt 0.00684256 0.8973606
vt 0.00684256 0.8709677
vt 0.99511236 0.8475073
vt 0.00684256 0.8709677
vt 0.99511236 0.92473114
vt 0.99511236 0.8475073
vt 0.99511236 0.92473114
vt 0.99511236 0.8719452
vt 0.99511236 0.8719452
vt 0.99511236 0.92473114
vt 0.99511236 0.9286412
vt 0.00684256 0.8279569
vt 0.99511236 0.80645156
vt 0.99511236 0.7908113
vt 0.00684256 0.8093841
vt 0.00684256 0.84261966
vt 0.99511236 0.8279569
vt 0.99511236 0.80645156
vt 0.00684256 0.8279569
vt 0.99511236 0.8475073
vt 0.99511236 0.8279569
vt 0.00684256 0.84261966
vt 0.00684256 0.8709677
vt 0.99511236 0.6940371
vt 0.00684256 0.6695992
vt 0.00684256 0.8093841
vt 0.99511236 0.7908113
vt 0.00684256 0.6695992
vt 0.99511236 0.6940371
vt 0.99511236 0.6265884
vt 0.9990224 0.58357763
vt 0.00684256 0.6148582
vt 0.9804496 0.56011724
vt 0.9804496 0.50928634
vt 0.015640214 0.4946236
vt 0.015640214 0.58357763
vt 0.015640214 0.58357763
vt 0.9804496 0.6265884
vt 0.005865043 0.11534696
vt 0.99413484 0.124144614
vt 0.99413484 0.049853314
vt 0.005865043 0.045943245
vt 0.99413484 -5.9604645E-08
vt 0.99413484 0.124144614
vt 0.005865043 0.11534696
vt 0.005865043 0.19550337
vt 0.99413484 0.21016611
vt 0.005865043 0.2492668
vt 0.99413484 0.25610942
vt 0.99413484 0.21016611
vt 0.005865043 0.19550337
vt 0.9804496 0.17595302
vt 0.015640214 0.17888556
vt 0.015640214 0.21114364
vt 0.9804496 0.23264901
vt 0.015640214 0.09677413
vt 0.9804496 0.088953994
vt 0.9804496 0.022482835
vt 0.015640214 0.21114364
vt 0.015640214 0.30205274
vt 0.9804496 0.30303025
vt 0.9804496 0.23264901
vt 0.00684256 0.6148582
vt 0.9990224 0.58357763
vt 0.9990224 0.4946236
vt 0.00684256 0.5317693
vt 0.00684256 0.49169105
vt 0.9804496 0.50928634
vt 0.9804496 0.402737
vt 0.015640214 0.402737
vt 0.015640214 0.4946236
vt 0.015640214 0.30205274
vt 0.9804496 0.30303025
vt 0.005865043 0.2492668
vt 0.005865043 0.30889535
vt 0.99413484 0.31378293
vt 0.99413484 0.25610942
vt 0.99413484 0.4946236
vt 0.99413484 0.4037145
vt 0.005865043 0.41348967
vt 0.005865043 0.49169105
vt 0.005865043 0.30889535
vt 0.99413484 0.31378293
vt 0.9804496 0.088953994
vt 0.015640214 0.09677413
vt 0.015640214 0.14467247
vt 0.9804496 0.13391979
vt 0.9804496 0.13391979
vt 0.015640214 0.14467247
vt 0.015640214 0.17888556
vt 0.9804496 0.17595302
vt 0.9931573 0.16422282
vt 0.9931573 0.059628483
vt 0.031280488 0.06744862
vt 0.031280488 0.16617785
vt 0.9931573 0.30400777
vt 0.9931573 0.25122184
vt 0.031280488 0.24242419
vt 0.031280488 0.30107522
vt 0.031280488 0.16617785
vt 0.9931573 0.16422282
vt 0.031280488 0.3695014
vt 0.9931573 0.37341148
vt 0.9931573 0.30400777
vt 0.031280488 0.30107522
vt 0.031280488 0.46823063
vt 0.9931573 0.4662756
vt 0.9931573 0.37341148
vt 0.031280488 0.3695014
vt 0.031280488 0.57771254
vt 0.9931573 0.5738025
vt 0.031280488 0.98338217
vt 0.9931573 0.9843597
vt 0.9931573 0.8944281
vt 0.031280488 0.8963831
vt 0.031280488 0.8963831
vt 0.9931573 0.8944281
vt 0.9931573 0.77321595
vt 0.031280488 0.77321595
vt 0.031280488 0.77321595
vt 0.9931573 0.77321595
vt 0.9931573 0.6705767
vt 0.031280488 0.67448676
vt 0.031280488 0.67448676
vt 0.9931573 0.6705767
vt 0.9931573 0.5738025
vt 0.031280488 0.57771254
vt 0.9931573 0.059628483
vt 0.9931573 0.01368518
vt 0.031280488 0.024437869
vt 0.031280488 0.06744862
vn 0.00030481815 0.99999994 -0
vn 0.00030481815 0.99999994 -0
vn 0.00030481815 0.99999994 -0
vn 0.00030481815 0.99999994 -0
vn 0.00030481815 0.99999994 -0
vn 0.00030481815 0.99999994 -0
vn 0.00030481815 0.99999994 -0
vn 0.00030481815 0.99999994 -0
vn 0.00030481815 0.99999994 -0
vn 0.00030481815 0.99999994 -0
vn 0.00030481815 0.99999994 -0
vn 0.00030481815 0.99999994 -0
vn 0.00030481815 0.99999994 -0
vn 0.00030481815 0.99999994 -0
vn 0.00030481815 0.99999994 -0
vn 0.00030481815 0.99999994 -0
vn 0.00030481815 0.99999994 -0
vn 0.00030481815 0.99999994 -0
vn 0.00030481815 0.99999994 -0
vn 0.00030481815 0.99999994 -0
vn 0.00030481815 0.99999994 -0
vn 0.00030481815 0.99999994 -0
vn 0.00030481815 0.99999994 -0
vn 0.00030481815 0.99999994 -0
vn 0.00030481815 0.99999994 -0
vn 0.00030481815 0.99999994 -0
vn 0.00030481815 0.99999994 -0
vn 0.00030481815 0.99999994 -0
vn 0.00030481815 0.99999994 -0
vn 0.00030481815 0.99999994 -0
vn 0.00030481815 0.99999994 -0
vn 0.00030481815 0.99999994 -0
vn 0.00030481815 0.99999994 -0
vn 0.00030481815 0.99999994 -0
vn 0.00030481815 0.99999994 -0
vn 0.00030481815 0.99999994 -0
vn 0.00030481815 0.99999994 -0
vn 0.00030481815 0.99999994 -0
vn 0.02181676 0.99462193 0.10124862
vn 0.02181676 0.99462193 0.10124862
vn 0.02181676 0.99462193 0.10124862
vn -0.1556567 0.978488 0.13539639
vn -0.1556567 0.978488 0.13539639
vn -0.1556567 0.978488 0.13539639
vn 0.12937641 0.978488 -0.16069517
vn 0.12937641 0.978488 -0.16069517
vn 0.12937641 0.978488 -0.16069517
vn 0.12937641 0.978488 -0.16069517
vn 0.19929019 0.978488 -0.05333453
vn 0.19929019 0.978488 -0.05333453
vn 0.19929019 0.978488 -0.05333453
vn 0.22080211 0.97311 -0.06559982
vn -0.015827134 0.9998748 -0
vn -0.015827134 0.9998748 -0
vn -0.015827134 0.9998748 -0
vn -0.2417044 0.9139522 0.32599145
vn -0.2417044 0.9139522 0.32599145
vn -0.2417044 0.9139522 0.32599145
vn -0.20943648 0.97311 -0.095881395
vn -0.20943648 0.97311 -0.095881395
vn -0.20943648 0.97311 -0.095881395
vn 0.33911774 0.6396751 0.6897934
vn 0.33911774 0.6396751 0.6897934
vn 0.33911774 0.6396751 0.6897934
vn 0.33911774 0.6396751 0.6897934
vn 0.19929019 0.88706225 0.41641805
vn 0.19929019 0.88706225 0.41641805
vn 0.19929019 0.88706225 0.41641805
vn 0.19929019 0.88706225 0.41641805
vn -0.021202328 0.9997752 -0
vn -0.021202328 0.9997752 -0
vn -0.021202328 0.9997752 -0
vn -0.021202328 0.9997752 -0
vn 0.005682735 0.99998385 -0
vn 0.005682735 0.99998385 -0
vn 0.005682735 0.99998385 -0
vn 0.005682735 0.99998385 -0
vn 0.13475439 0.9892439 0.056901004
vn 0.13475439 0.9892439 0.056901004
vn 0.12937641 0.9892439 0.06825117
vn 0.12937641 0.9892439 0.06825117
vn 0.13475439 0.9892439 0.056901004
vn 0.08097458 0.99462193 0.06457831
vn 0.08097458 0.99462193 0.06457831
vn 0.08097458 0.99462193 0.06457831
vn 0.08097458 0.99462193 0.06457831
vn 0.12937641 0.9892439 0.06825117
vn 0.12937641 0.9892439 0.06825117
vn 0.064704746 0.9979045 -0
vn 0.064704746 0.9979045 -0
vn 0.064704746 0.9979045 -0
vn 0.064704746 0.9979045 -0
vn 0.08097458 0.99462193 0.06457831
vn 0.17240028 0.98386604 -0.047809817
vn 0.17240028 0.98386604 -0.047809817
vn 0.17240028 0.98386604 -0.047809817
vn 0.17240028 0.98386604 -0.047809817
vn 0.25300047 0.9674662 -0
vn 0.25300047 0.9674662 -0
vn 0.25300047 0.9674662 -0
vn 0.25300047 0.9674662 -0
vn 0.3278452 0.9447315 -0
vn 0.3278452 0.9447315 -0
vn 0.3278452 0.9447315 -0
vn 0.3278452 0.9447315 -0
vn -0.34388608 0.89781827 0.27507216
vn -0.34388608 0.89781827 0.27507216
vn -0.34388608 0.89781827 0.27507216
vn -0.042719036 0.99462193 -0.09435206
vn -0.042719036 0.99462193 -0.09435206
vn -0.042719036 0.99462193 -0.09435206
vn -0.042719036 0.99462193 -0.09435206
vn 0.1560307 0.98775226 -0
vn 0.1560307 0.98775226 -0
vn 0.1560307 0.98775226 -0
vn 0.1560307 0.98775226 -0
vn 0.1560307 0.98775226 -0
vn 0.12937641 0.9892439 0.06825117
vn 0.12937641 0.9892439 0.06825117
vn 0.12937641 0.9892439 0.06825117
vn 0.12937641 0.9892439 0.06825117
vn 0.16164431 0.98386604 0.076672986
vn 0.16164431 0.98386604 0.076672986
vn 0.16164431 0.98386604 0.076672986
vn 0.16164431 0.98386604 0.076672986
vn 0.16164431 0.98386604 0.076672986
vn 0.16164431 0.98386604 0.076672986
vn 0.08097458 0.99462193 -0.06457831
vn 0.08097458 0.99462193 -0.06457831
vn 0.08097458 0.99462193 -0.06457831
vn 0.08097458 0.99462193 -0.06457831
vn 0.09710851 0.99462193 0.036016326
vn 0.09710851 0.99462193 0.036016326
vn 0.016438782 0.8117705 0.5837451
vn 0.016438782 0.8117705 0.5837451
vn 0.016438782 0.8117705 0.5837451
vn 0.016438782 0.8117705 0.5837451
vn 0.37138563 0.87092835 0.321802
vn 0.37138563 0.87092835 0.321802
vn 0.37138563 0.87092835 0.321802
vn 0.37138563 0.87092835 0.321802
vn -0.064098865 0.9979435 -0
vn -0.064098865 0.9979435 -0
vn -0.064098865 0.9979435 -0
vn -0.064098865 0.9979435 -0
vn -0.042719036 0.99462193 0.09435206
vn -0.08036491 0.99462193 0.06533533
vn -0.09112087 0.9892439 0.11442671
vn -0.042719036 0.99462193 0.09435206
vn -0.12876678 0.9892439 0.06939437
vn -0.12876678 0.9892439 0.06939437
vn -0.015829116 0.98386604 0.1782051
vn -0.015829116 0.98386604 0.1782051
vn -0.015829116 0.98386604 0.1782051
vn -0.015829116 0.98386604 0.1782051
vn 0.005682826 0.9623541 0.27173927
vn 0.005682826 0.9623541 0.27173927
vn 0.005682826 0.9623541 0.27173927
vn 0.005682826 0.9623541 0.27173927
vn -0.015829116 0.967732 0.25148392
vn -0.015829116 0.967732 0.25148392
vn -0.010450569 0.99994546 -0
vn -0.010450569 0.99994546 -0
vn -0.010450569 0.99994546 -0
vn -0.010450569 0.99994546 -0
vn 0.037950695 0.99462193 -0.09636908
vn 0.037950695 0.99462193 -0.09636908
vn 0.037950695 0.99462193 -0.09636908
vn 0.037950695 0.99462193 -0.09636908
vn 0.032555453 0.99947 -0
vn 0.032555453 0.99947 -0
vn 0.032555453 0.99947 -0
vn 0.032555453 0.99947 -0
vn -0.005073095 0.9999872 -0
vn -0.005073095 0.9999872 -0
vn -0.005073095 0.9999872 -0
vn -0.005073095 0.9999872 -0
vn -0.005073095 0.9999872 -0
vn -0.005073095 0.9999872 -0
vn -0.005073095 0.9999872 -0
vn -0.005073095 0.9999872 -0
g dropstoneDio_lava_0
f 3/3/3 2/2/2 1/1/1
f 4/4/4 3/3/3 1/1/1
f 6/6/6 1/1/1 5/5/5
f 7/7/7 6/6/6 5/5/5
f 7/7/7 5/5/5 8/8/8
f 9/9/9 7/7/7 8/8/8
f 9/9/9 11/11/11 10/10/10
f 12/12/12 9/9/9 10/10/10
f 14/14/14 10/10/10 13/13/13
f 15/15/15 14/14/14 13/13/13
f 15/15/15 13/13/13 16/16/16
f 17/17/17 15/15/15 16/16/16
f 19/19/19 16/16/16 18/18/18
f 20/20/20 19/19/19 18/18/18
f 23/23/23 22/22/22 21/21/21
f 24/24/24 23/23/23 21/21/21
f 27/27/27 26/26/26 25/25/25
f 28/28/28 27/27/27 25/25/25
f 30/30/30 29/29/29 26/26/26
f 31/31/31 30/30/30 26/26/26
f 30/30/30 33/33/33 32/32/32
f 33/33/33 34/34/34 32/32/32
f 37/37/37 36/36/36 35/35/35
f 38/38/38 37/37/37 35/35/35
f 41/41/41 40/40/40 39/39/39
f 44/44/44 43/43/43 42/42/42
f 47/47/47 46/46/46 45/45/45
f 48/48/48 46/46/46 47/47/47
f 51/51/51 50/50/50 49/49/49
f 52/52/52 50/50/50 51/51/51
f 55/55/55 54/54/54 53/53/53
f 58/58/58 57/57/57 56/56/56
f 61/61/61 60/60/60 59/59/59
f 64/64/64 63/63/63 62/62/62
f 65/65/65 64/64/64 62/62/62
f 68/68/68 67/67/67 66/66/66
f 69/69/69 68/68/68 66/66/66
f 72/72/72 71/71/71 70/70/70
f 73/73/73 72/72/72 70/70/70
f 76/76/76 75/75/75 74/74/74
f 77/77/77 76/76/76 74/74/74
f 80/80/80 79/79/79 78/78/78
f 78/78/78 81/81/81 80/80/80
f 78/78/78 82/82/82 81/81/81
f 85/85/85 84/84/84 83/83/83
f 86/86/86 85/85/85 83/83/83
f 88/88/88 87/87/87 83/83/83
f 91/91/91 90/90/90 89/89/89
f 92/92/92 91/91/91 89/89/89
f 93/93/93 91/91/91 92/92/92
f 96/96/96 95/95/95 94/94/94
f 97/97/97 96/96/96 94/94/94
f 100/100/100 99/99/99 98/98/98
f 101/101/101 100/100/100 98/98/98
f 104/104/104 103/103/103 102/102/102
f 105/105/105 104/104/104 102/102/102
f 108/108/108 107/107/107 106/106/106
f 111/111/111 110/110/110 109/109/109
f 112/112/112 111/111/111 109/109/109
f 115/115/115 114/114/114 113/113/113
f 113/113/113 116/116/116 115/115/115
f 116/116/116 117/117/117 115/115/115
f 120/120/120 119/119/119 118/118/118
f 121/121/121 120/120/120 118/118/118
f 120/120/120 122/122/122 119/119/119
f 122/122/122 123/123/123 119/119/119
f 126/126/126 125/125/125 124/124/124
f 127/127/127 126/126/126 124/124/124
f 130/130/130 129/129/129 128/128/128
f 131/131/131 130/130/130 128/128/128
f 130/130/130 132/132/132 129/129/129
f 132/132/132 133/133/133 129/129/129
f 136/136/136 135/135/135 134/134/134
f 137/137/137 136/136/136 134/134/134
f 140/140/140 139/139/139 138/138/138
f 141/141/141 140/140/140 138/138/138
f 144/144/144 143/143/143 142/142/142
f 145/145/145 144/144/144 142/142/142
f 148/148/148 147/147/147 146/146/146
f 149/149/149 148/148/148 146/146/146
f 148/148/148 150/150/150 147/147/147
f 150/150/150 151/151/151 147/147/147
f 154/154/154 153/153/153 152/152/152
f 155/155/155 154/154/154 152/152/152
f 158/158/158 157/157/157 156/156/156
f 159/159/159 158/158/158 156/156/156
f 156/156/156 157/157/157 160/160/160
f 157/157/157 161/161/161 160/160/160
f 164/164/164 163/163/163 162/162/162
f 165/165/165 164/164/164 162/162/162
f 168/168/168 167/167/167 166/166/166
f 169/169/169 168/168/168 166/166/166
f 172/172/172 171/171/171 170/170/170
f 173/173/173 172/172/172 170/170/170
f 176/176/176 175/175/175 174/174/174
f 177/177/177 176/176/176 174/174/174
f 180/180/180 179/179/179 178/178/178
f 181/181/181 180/180/180 178/178/178
