g exclamationMark01
v 0.03542596 0.5262999 -0.23303044
v 0.33138856 0.528871 -0.22812188
v 0.32811618 0.67869884 -0.26107934
v 0.03682846 0.6774834 -0.27477655
v -0.26156503 0.5313019 -0.22886986
v 0.034304023 0.23870522 -0.16272122
v 0.33208978 0.23706901 -0.16038379
v -0.2612378 0.23921943 -0.1628147
v -0.262874 0.67818457 -0.27005497
v 0.39169365 2.1073225 -0.566111
v 0.40800878 2.3352664 -0.62454623
v 0.033883274 2.3387725 -0.61874944
v 0.0371089 2.0977857 -0.57592815
v 0.38407373 1.8754983 -0.5183812
v -0.3220104 2.111109 -0.56545657
v 0.03565973 1.874984 -0.52343
v 0.36902082 1.6510603 -0.46873462
v -0.3151852 1.8728805 -0.52352345
v 0.033649564 1.6539121 -0.46952933
v 0.3632708 1.4173663 -0.42147225
v -0.30204892 1.6478348 -0.4730822
v 0.03626746 1.4179273 -0.427269
v 0.35177076 1.1894224 -0.37271392
v -0.28746355 1.4257343 -0.42072427
v 0.03575325 1.1920872 -0.37710825
v 0.3367646 0.964891 -0.32306737
v -0.2796566 1.1896093 -0.3774355
v 0.03579998 0.9644703 -0.3283032
v 0.3225999 0.8891123 -0.30217096
v -0.26371545 0.97031385 -0.32320762
v 0.037202418 0.87162846 -0.29913232
v -0.25936788 0.88069755 -0.30062827
v -0.33538038 2.3383517 -0.6207596
v 0.037155688 0.6345218 0.24777436
v 0.3368581 0.77855283 0.19962376
v 0.33152878 0.6264811 0.2386117
v 0.033135355 0.76695937 0.20514
v -0.2607236 0.622227 0.23809749
v 0.03589344 0.33215475 0.31242704
v 0.3253113 0.3302381 0.29929078
v -0.26184553 0.3314535 0.30765873
v -0.261752 0.7728496 0.20406479
v 0.38729936 2.1974528 -0.10194862
v 0.03640771 2.439094 -0.15355858
v 0.40015507 2.4259577 -0.15159515
v 0.034724772 2.2043715 -0.08371681
v 0.38800055 1.982084 -0.04856223
v -0.32331938 2.2004914 -0.09942418
v 0.033930063 1.9736226 -0.050058186
v 0.36668342 1.7456319 -0.0030295253
v -0.31658763 1.983206 -0.04243821
v 0.033041835 1.743201 -0.0034970045
v 0.36116713 1.5243261 0.04815972
v -0.30429286 1.755075 0.0059461594
v 0.034584522 1.534564 0.073637486
v 0.35228497 1.3021789 0.12492019
v -0.29232532 1.5275049 0.054751217
v 0.03584671 1.2972236 0.10126561
v 0.33452067 1.0667086 0.14488167
v -0.27516878 1.2898841 0.09560907
v 0.034397542 1.0741882 0.17564195
v 0.32344136 0.97456795 0.16161746
v -0.26254678 1.0611455 0.14352596
v 0.03673494 0.9767651 0.1775586
v -0.2602561 0.9760638 0.17339802
v -0.33682954 2.4362423 -0.15299758
v 0.33152878 0.6264811 0.2386117
v 0.3368581 0.77855283 0.19962376
v 0.34559998 0.5778163 0.0058526397
v 0.34662846 0.72820514 -0.032667816
v 0.3253113 0.3302381 0.29929078
v 0.34274834 0.28302246 0.06620449
v 0.03589344 0.33215475 0.31242704
v 0.3253113 0.3302381 0.29929078
v 0.03509873 0.2862481 0.07901347
v 0.34274834 0.28302246 0.06620449
v -0.26184553 0.3314535 0.30765873
v -0.275683 0.2856871 0.074198425
v -0.2612378 0.23921943 -0.1628147
v 0.034304023 0.23870522 -0.16272122
v 0.33208978 0.23706901 -0.16038379
v 0.34662846 0.72820514 -0.032667816
v 0.3368581 0.77855283 0.19962376
v 0.03491175 0.7233433 -0.028787732
v 0.033135355 0.76695937 0.20514
v -0.261752 0.7728496 0.20406479
v 0.03491175 0.7233433 -0.028787732
v -0.2764777 0.72624165 -0.029161751
v 0.32811618 0.67869884 -0.26107934
v 0.03682846 0.6774834 -0.27477655
v -0.262874 0.67818457 -0.27005497
v -0.27526224 0.5767879 0.0045904517
v -0.2607236 0.622227 0.23809749
v -0.275683 0.2856871 0.074198425
v -0.26184553 0.3314535 0.30765873
v -0.2764777 0.72624165 -0.029161751
v -0.261752 0.7728496 0.20406479
v 0.40440917 2.1522007 -0.33484793
v 0.38729936 2.1974528 -0.10194862
v 0.4195088 2.3813133 -0.38458794
v 0.40015507 2.4259577 -0.15159515
v 0.38800055 1.982084 -0.04856223
v 0.40080956 1.9296794 -0.27968508
v 0.40440917 2.1522007 -0.33484793
v 0.36668342 1.7456319 -0.0030295253
v 0.40080956 1.9296794 -0.27968508
v 0.36116713 1.5243261 0.04815972
v 0.3818298 1.6984162 -0.23546135
v 0.37598628 1.4716878 -0.18296316
v 0.36537448 1.249821 -0.10624945
v 0.35228497 1.3021789 0.12492019
v 0.33452067 1.0667086 0.14488167
v 0.36537448 1.249821 -0.10624945
v 0.34826463 1.016314 -0.086755455
v 0.32344136 0.97456795 0.16161746
v 0.34826463 1.016314 -0.086755455
v 0.3351284 0.9315596 -0.07179606
v 0.3818298 1.6984162 -0.23546135
v 0.40080956 1.9296794 -0.27968508
v 0.4195088 2.3813133 -0.38458794
v 0.40015507 2.4259577 -0.15159515
v 0.03519225 2.3891203 -0.3852892
v 0.03640771 2.439094 -0.15355858
v -0.33682954 2.4362423 -0.15299758
v -0.35164875 2.387671 -0.38510218
v 0.40800878 2.3352664 -0.62454623
v 0.033883274 2.3387725 -0.61874944
v -0.33538038 2.3383517 -0.6207596
v -0.27213013 0.9292689 -0.05912727
v -0.2602561 0.9760638 0.17339802
v 0.037062168 0.9257161 -0.05393827
v 0.03673494 0.9767651 0.1775586
v 0.32344136 0.97456795 0.16161746
v 0.3351284 0.9315596 -0.07179606
v -0.25936788 0.88069755 -0.30062827
v 0.037202418 0.87162846 -0.29913232
v 0.037062168 0.9257161 -0.05393827
v 0.3225999 0.8891123 -0.30217096
v -0.27558947 1.0158465 -0.08937335
v -0.26254678 1.0611455 0.14352596
v -0.27213013 0.9292689 -0.05912727
v -0.2602561 0.9760638 0.17339802
v -0.29040867 1.2407053 -0.13635525
v -0.27516878 1.2898841 0.09560907
v -0.30354488 1.4778585 -0.17711964
v -0.29232532 1.5275049 0.054751217
v -0.30354488 1.4778585 -0.17711964
v -0.3173356 1.7032781 -0.22536373
v -0.30429286 1.755075 0.0059461594
v -0.33061206 1.9302404 -0.27342084
v -0.31658763 1.983206 -0.04243821
v -0.32331938 2.2004914 -0.09942418
v -0.33757752 2.1558 -0.332417
v -0.35164875 2.387671 -0.38510218
v -0.33682954 2.4362423 -0.15299758
v -0.33757752 2.1558 -0.332417
v -0.33061206 1.9302404 -0.27342084
v -0.3220104 2.111109 -0.56545657
v -0.3151852 1.8728805 -0.52352345
v -0.33061206 1.9302404 -0.27342084
v -0.3173356 1.7032781 -0.22536373
v -0.30204892 1.6478348 -0.4730822
v -0.30354488 1.4778585 -0.17711964
v -0.28746355 1.4257343 -0.42072427
v -0.29040867 1.2407053 -0.13635525
v -0.2796566 1.1896093 -0.3774355
v -0.27558947 1.0158465 -0.08937335
v -0.26371545 0.97031385 -0.32320762
v -0.25936788 0.88069755 -0.30062827
v -0.27213013 0.9292689 -0.05912727
v -0.33757752 2.1558 -0.332417
v -0.33538038 2.3383517 -0.6207596
v -0.35164875 2.387671 -0.38510218
v 0.34826463 1.016314 -0.086755455
v 0.3367646 0.964891 -0.32306737
v 0.3351284 0.9315596 -0.07179606
v 0.3225999 0.8891123 -0.30217096
v 0.35177076 1.1894224 -0.37271392
v 0.34826463 1.016314 -0.086755455
v 0.36537448 1.249821 -0.10624945
v 0.37598628 1.4716878 -0.18296316
v 0.3632708 1.4173663 -0.42147225
v 0.36902082 1.6510603 -0.46873462
v 0.37598628 1.4716878 -0.18296316
v 0.3818298 1.6984162 -0.23546135
v 0.38407373 1.8754983 -0.5183812
v 0.3818298 1.6984162 -0.23546135
v 0.40080956 1.9296794 -0.27968508
v 0.39169365 2.1073225 -0.566111
v 0.40080956 1.9296794 -0.27968508
v 0.40440917 2.1522007 -0.33484793
v 0.40440917 2.1522007 -0.33484793
v 0.4195088 2.3813133 -0.38458794
v 0.40800878 2.3352664 -0.62454623
v -0.26156503 0.5313019 -0.22886986
v -0.27526224 0.5767879 0.0045904517
v -0.2612378 0.23921943 -0.1628147
v -0.275683 0.2856871 0.074198425
v -0.2764777 0.72624165 -0.029161751
v -0.262874 0.67818457 -0.27005497
v 0.34559998 0.5778163 0.0058526397
v 0.33138856 0.528871 -0.22812188
v 0.34274834 0.28302246 0.06620449
v 0.33208978 0.23706901 -0.16038379
v 0.32811618 0.67869884 -0.26107934
v 0.34662846 0.72820514 -0.032667816
vt 0.5003052 0.6665852
vt 0.99987787 0.6665852
vt 0.99987787 0.99987787
vt 0.5003052 0.99987787
vt 0 0.6665852
vt 0.5003052 0
vt 0.99987787 0
vt 0 0
vt 0 0.99987787
vt 0.9837626 5.3334146
vt 0.99987787 5.9999995
vt 0.5003052 5.9999995
vt 0.5003052 5.3334146
vt 0.9676474 4.666829
vt 0.016115248 5.3334146
vt 0.5003052 4.666829
vt 0.9507996 4.000244
vt 0.032963008 4.666829
vt 0.5003052 4.000244
vt 0.93468434 3.3336587
vt 0.049078252 4.000244
vt 0.5003052 3.3336587
vt 0.9185691 2.6663408
vt 0.065193504 3.3336587
vt 0.5003052 2.6663408
vt 0.90172136 1.9997557
vt 0.08204126 2.6663408
vt 0.5003052 1.9997557
vt 0.89586127 1.7499694
vt 0.098156504 1.9997557
vt 0.5003052 1.7499694
vt 0.104016595 1.7499694
vt 0 5.9999995
vt 0.5003052 0.6665852
vt 0.99987787 0.99987787
vt 0.99987787 0.6665852
vt 0.5003052 0.99987787
vt 0 0.6665852
vt 0.5003052 0
vt 0.99987787 0
vt 0 0
vt 0 0.99987787
vt 0.9837626 5.3334146
vt 0.5003052 5.9999995
vt 0.99987787 5.9999995
vt 0.5003052 5.3334146
vt 0.9676474 4.666829
vt 0.016115248 5.3334146
vt 0.5003052 4.666829
vt 0.9507996 4.000244
vt 0.032963008 4.666829
vt 0.5003052 4.000244
vt 0.93468434 3.3336587
vt 0.049078252 4.000244
vt 0.5003052 3.3336587
vt 0.9185691 2.6663408
vt 0.065193504 3.3336587
vt 0.5003052 2.6663408
vt 0.90172136 1.9997557
vt 0.08204126 2.6663408
vt 0.5003052 1.9997557
vt 0.89586127 1.7499694
vt 0.098156504 1.9997557
vt 0.5003052 1.7499694
vt 0.104016595 1.7499694
vt 0 5.9999995
vt 0.99987787 0.6665852
vt 0.99987787 0.99987787
vt 0.99987787 0.6665852
vt 0.99987787 0.99987787
vt 0.99987787 0
vt 0.99987787 0
vt 0.5003052 0
vt 0.99987787 0
vt 0.5003052 0
vt 0.99987787 0
vt 0 0
vt 0 0
vt 0 0
vt 0.5003052 0
vt 0.99987787 0
vt 0.99987787 0.99987787
vt 0.99987787 0.99987787
vt 0.5003052 0.99987787
vt 0.5003052 0.99987787
vt 0 0.99987787
vt 0.5003052 0.99987787
vt 0 0.99987787
vt 0.99987787 0.99987787
vt 0.5003052 0.99987787
vt 0 0.99987787
vt 0 0.6665852
vt 0 0.6665852
vt 0 0
vt 0 0
vt 0 0.99987787
vt 0 0.99987787
vt 0.9837626 5.3334146
vt 0.9837626 5.3334146
vt 0.99987787 5.9999995
vt 0.99987787 5.9999995
vt 0.9676474 4.666829
vt 0.9676474 4.666829
vt 0.9837626 5.3334146
vt 0.9507996 4.000244
vt 0.9676474 4.666829
vt 0.93468434 3.3336587
vt 0.9507996 4.000244
vt 0.93468434 3.3336587
vt 0.9185691 2.6663408
vt 0.9185691 2.6663408
vt 0.90172136 1.9997557
vt 0.9185691 2.6663408
vt 0.90172136 1.9997557
vt 0.89586127 1.7499694
vt 0.90172136 1.9997557
vt 0.89586127 1.7499694
vt 0.9507996 4.000244
vt 0.9676474 4.666829
vt 0.99987787 5.9999995
vt 0.99987787 5.9999995
vt 0.5003052 5.9999995
vt 0.5003052 5.9999995
vt 0 5.9999995
vt 0 5.9999995
vt 0.99987787 5.9999995
vt 0.5003052 5.9999995
vt 0 5.9999995
vt 0.104016595 1.7499694
vt 0.104016595 1.7499694
vt 0.5003052 1.7499694
vt 0.5003052 1.7499694
vt 0.89586127 1.7499694
vt 0.89586127 1.7499694
vt 0.104016595 1.7499694
vt 0.5003052 1.7499694
vt 0.5003052 1.7499694
vt 0.89586127 1.7499694
vt 0.098156504 1.9997557
vt 0.098156504 1.9997557
vt 0.104016595 1.7499694
vt 0.104016595 1.7499694
vt 0.08204126 2.6663408
vt 0.08204126 2.6663408
vt 0.065193504 3.3336587
vt 0.065193504 3.3336587
vt 0.065193504 3.3336587
vt 0.049078252 4.000244
vt 0.049078252 4.000244
vt 0.032963008 4.666829
vt 0.032963008 4.666829
vt 0.016115248 5.3334146
vt 0.016115248 5.3334146
vt 0 5.9999995
vt 0 5.9999995
vt 0.016115248 5.3334146
vt 0.032963008 4.666829
vt 0.016115248 5.3334146
vt 0.032963008 4.666829
vt 0.032963008 4.666829
vt 0.049078252 4.000244
vt 0.049078252 4.000244
vt 0.065193504 3.3336587
vt 0.065193504 3.3336587
vt 0.08204126 2.6663408
vt 0.08204126 2.6663408
vt 0.098156504 1.9997557
vt 0.098156504 1.9997557
vt 0.104016595 1.7499694
vt 0.104016595 1.7499694
vt 0.016115248 5.3334146
vt 0 5.9999995
vt 0 5.9999995
vt 0.90172136 1.9997557
vt 0.90172136 1.9997557
vt 0.89586127 1.7499694
vt 0.89586127 1.7499694
vt 0.9185691 2.6663408
vt 0.90172136 1.9997557
vt 0.9185691 2.6663408
vt 0.93468434 3.3336587
vt 0.93468434 3.3336587
vt 0.9507996 4.000244
vt 0.93468434 3.3336587
vt 0.9507996 4.000244
vt 0.9676474 4.666829
vt 0.9507996 4.000244
vt 0.9676474 4.666829
vt 0.9837626 5.3334146
vt 0.9676474 4.666829
vt 0.9837626 5.3334146
vt 0.9837626 5.3334146
vt 0.99987787 5.9999995
vt 0.99987787 5.9999995
vt 0 0.6665852
vt 0 0.6665852
vt 0 0
vt 0 0
vt 0 0.99987787
vt 0 0.99987787
vt 0.99987787 0.6665852
vt 0.99987787 0.6665852
vt 0.99987787 0
vt 0.99987787 0
vt 0.99987787 0.99987787
vt 0.99987787 0.99987787
vn -0.003921509 0.003921509 -0.9999846
vn -0.003921509 0.003921509 -0.9999846
vn -0.003921509 0.003921509 -0.9999846
vn -0.003921509 0.003921509 -0.9999846
vn -0.003921509 0.003921509 -0.9999846
vn -0.003921509 0.003921509 -0.9999846
vn -0.003921509 0.003921509 -0.9999846
vn -0.003921509 0.003921509 -0.9999846
vn -0.003921509 0.003921509 -0.9999846
vn -0.003921509 0.003921509 -0.9999846
vn -0.003921509 0.003921509 -0.9999846
vn -0.003921509 0.003921509 -0.9999846
vn -0.003921509 0.003921509 -0.9999846
vn -0.003921509 0.003921509 -0.9999846
vn -0.003921509 0.003921509 -0.9999846
vn -0.003921509 0.003921509 -0.9999846
vn -0.003921509 0.003921509 -0.9999846
vn -0.003921509 0.003921509 -0.9999846
vn -0.003921509 0.003921509 -0.9999846
vn -0.003921509 0.003921509 -0.9999846
vn -0.003921509 0.003921509 -0.9999846
vn -0.003921509 0.003921509 -0.9999846
vn -0.003921509 0.003921509 -0.9999846
vn -0.003921509 0.003921509 -0.9999846
vn -0.003921509 0.003921509 -0.9999846
vn -0.003921509 0.003921509 -0.9999846
vn -0.003921509 0.003921509 -0.9999846
vn -0.003921509 0.003921509 -0.9999846
vn -0.003921509 0.003921509 -0.9999846
vn -0.003921509 0.003921509 -0.9999846
vn -0.003921509 0.003921509 -0.9999846
vn -0.003921509 0.003921509 -0.9999846
vn -0.003921509 0.003921509 -0.9999846
vn -0.003921509 0.003921509 0.9999846
vn -0.003921509 0.003921509 0.9999846
vn -0.003921509 0.003921509 0.9999846
vn -0.003921509 0.003921509 0.9999846
vn -0.003921509 0.003921509 0.9999846
vn -0.003921509 0.003921509 0.9999846
vn -0.003921509 0.003921509 0.9999846
vn -0.003921509 0.003921509 0.9999846
vn -0.003921509 0.003921509 0.9999846
vn -0.003921509 0.003921509 0.9999846
vn -0.003921509 0.003921509 0.9999846
vn -0.003921509 0.003921509 0.9999846
vn -0.003921509 0.003921509 0.9999846
vn -0.003921509 0.003921509 0.9999846
vn -0.003921509 0.003921509 0.9999846
vn -0.003921509 0.003921509 0.9999846
vn -0.003921509 0.003921509 0.9999846
vn -0.003921509 0.003921509 0.9999846
vn -0.003921509 0.003921509 0.9999846
vn -0.003921509 0.003921509 0.9999846
vn -0.003921509 0.003921509 0.9999846
vn -0.003921509 0.003921509 0.9999846
vn -0.003921509 0.003921509 0.9999846
vn -0.003921509 0.003921509 0.9999846
vn -0.003921509 0.003921509 0.9999846
vn -0.003921509 0.003921509 0.9999846
vn -0.003921509 0.003921509 0.9999846
vn -0.003921509 0.003921509 0.9999846
vn -0.003921509 0.003921509 0.9999846
vn -0.003921509 0.003921509 0.9999846
vn -0.003921509 0.003921509 0.9999846
vn -0.003921509 0.003921509 0.9999846
vn -0.003921509 0.003921509 0.9999846
vn 0.9999924 0.003921509 -0
vn 0.9999924 0.003921509 -0
vn 0.9998079 -0.019604106 -0
vn 0.9999924 0.003921509 -0
vn 0.9999924 0.003921509 -0
vn 0.9999924 0.003921509 -0
vn -0.003921509 -0.9999924 -0
vn -0.003921509 -0.9999924 -0
vn 0.0039215684 -0.9843062 0.17642535
vn -0.003921509 -0.97646314 0.21564874
vn -0.003921509 -0.9999924 -0
vn -0.003921509 -0.9843062 0.17642535
vn -0.003921509 -0.9999924 -0
vn -0.003921509 -0.9999924 -0
vn -0.003921509 -0.9999924 -0
vn -0.019607663 0.9764631 -0.21479158
vn -0.003921509 0.99999225 -0.00034526698
vn -0.019607663 0.9764631 -0.21479158
vn -0.003921509 0.99999225 -0.00034526698
vn -0.003921509 0.99999225 -0.00034526698
vn 0.019607723 0.9843061 -0.17537694
vn 0.011764646 0.9843061 -0.17607702
vn -0.003921509 0.99999225 -0.00034526698
vn -0.003921509 0.99999225 -0.00034526698
vn -0.003921509 0.99999225 -0.00034526698
vn -0.99993086 0.011763804 -0
vn -0.99999225 0.003921509 -0.00034492963
vn -0.99993086 0.011763804 -0
vn -0.99999225 0.003921509 -0.00034492963
vn -0.99999225 0.003921509 -0.00034492963
vn -0.99999225 0.003921509 -0.00034492963
vn 0.9921493 -0.05098003 0.114196405
vn 0.9990709 -0.043097205 -0
vn 0.9921493 -0.05098003 0.114196405
vn 0.9990709 -0.043097205 -0
vn 0.9990709 -0.043097205 -0
vn 0.9998079 0.019604046 -0
vn 0.9999924 0.003921509 -0
vn 0.9990709 -0.043097205 -0
vn 0.9921493 -0.07450926 0.10043979
vn 0.9990709 -0.043097205 -0
vn 0.99993086 -0.011763922 -0
vn 0.99993086 -0.011763922 -0
vn 0.9998079 -0.019604106 -0
vn 0.9990709 -0.043097205 -0
vn 0.9990709 -0.043097205 -0
vn 0.9921493 -0.066666186 0.105808325
vn 0.9921493 -0.066666186 0.105808325
vn 0.9990709 -0.043097205 -0
vn 0.9843062 -0.13725388 0.11091733
vn 0.9843062 -0.13725388 0.11091733
vn 0.9921493 -0.066666186 0.105808325
vn 0.9921493 -0.066666186 0.105808325
vn 0.019607723 0.9843061 -0.17537694
vn -0.003921509 0.99999225 -0.00034526698
vn 0.019607723 0.9843061 -0.17537694
vn -0.003921509 0.99999225 -0.00034526698
vn -0.003921509 0.99999225 -0.00034526698
vn -0.003921509 0.9764631 -0.21564901
vn -0.003921509 0.99999225 -0.00034526698
vn -0.003921509 0.99999225 -0.00034526698
vn -0.003921509 0.99999225 -0.00034526698
vn -0.011764526 -0.97646314 0.21536331
vn -0.003921509 -0.9999924 -0
vn -0.011764526 -0.97646314 0.21536331
vn -0.003921509 -0.9999924 -0
vn -0.003921509 -0.9999924 -0
vn 0.0274508 -0.9843062 0.17432085
vn -0.003921509 -0.9999924 -0
vn -0.003921509 -0.9999924 -0
vn 0.035293877 -0.97646314 0.21277706
vn -0.003921509 -0.9999924 -0
vn -0.9998079 -0.019604107 -0
vn -0.9990709 -0.04309721 -0
vn -0.9998079 -0.019604107 -0
vn -0.9990709 -0.04309721 -0
vn -0.9990709 -0.04309721 -0
vn -0.9990709 -0.04309721 -0
vn -0.9990709 -0.04309721 -0
vn -0.9990709 -0.04309721 -0
vn -0.9982743 -0.058722056 -0
vn -0.9993777 -0.03527219 -0
vn -0.9990709 -0.04309721 -0
vn -0.9993777 -0.03527219 -0
vn -0.9990709 -0.04309721 -0
vn -0.9990709 -0.04309721 -0
vn -0.99993086 -0.011763923 -0
vn -0.9990709 -0.04309721 -0
vn -0.9990709 -0.04309721 -0
vn -0.9990709 -0.04309721 -0
vn -0.9990709 -0.04309721 -0
vn -0.9990709 -0.04309721 -0
vn -0.9990709 -0.04309721 -0
vn -0.9977852 -0.06651905 -0
vn -0.9977852 -0.06651905 -0
vn -0.9990709 -0.04309721 -0
vn -0.99723566 -0.07430387 -0
vn -0.9990709 -0.04309721 -0
vn -0.9977852 -0.06651905 -0
vn -0.9990709 -0.04309721 -0
vn -0.99723566 -0.07430387 -0
vn -0.9990709 -0.04309721 -0
vn -0.9990709 -0.04309721 -0
vn -0.998703 -0.050914306 -0
vn -0.99214923 -0.07450926 -0.10044038
vn -0.9990709 -0.04309721 -0
vn -0.99214923 -0.07450926 -0.10044038
vn 0.9843062 -0.15294003 -0.08803764
vn 0.9990709 -0.043097205 -0
vn 0.9843062 -0.15294003 -0.08803764
vn 0.9990709 -0.043097205 -0
vn 0.9990709 -0.043097205 -0
vn 0.99723566 -0.074303865 -0
vn 0.99723566 -0.074303865 -0
vn 0.9982743 -0.05872205 -0
vn 0.9990709 -0.043097205 -0
vn 0.9990709 -0.043097205 -0
vn 0.9993777 -0.035272185 -0
vn 0.9993777 -0.035272185 -0
vn 0.9990709 -0.043097205 -0
vn 0.9921493 -0.09019542 -0.086628914
vn 0.9921493 -0.09019542 -0.086628914
vn 0.9990709 -0.043097205 -0
vn 0.9996234 -0.027440673 -0
vn 0.9996234 -0.027440673 -0
vn 0.99723566 -0.074303865 -0
vn 0.99723566 -0.074303865 -0
vn 0.9990709 -0.043097205 -0
vn -0.99999225 0.003921509 -0.00034492963
vn -0.99993086 -0.011763923 -0
vn -0.99999225 0.003921509 -0.00034492963
vn -0.99993086 -0.011763923 -0
vn -0.9998079 -0.019604107 -0
vn -0.99999225 0.003921509 -0.00034492963
vn 0.9998079 -0.019604106 -0
vn 0.9999924 0.003921509 -0
vn 0.9998079 -0.019604106 -0
vn 0.9999924 0.003921509 -0
vn 0.9999924 0.003921509 -0
vn 0.9996234 -0.027440673 -0
g exclamationMark01_0
f 3/3/3 2/2/2 1/1/1
f 1/1/1 4/4/4 3/3/3
f 4/4/4 1/1/1 5/5/5
f 6/6/6 1/1/1 2/2/2
f 2/2/2 7/7/7 6/6/6
f 1/1/1 6/6/6 8/8/8
f 8/8/8 5/5/5 1/1/1
f 5/5/5 9/9/9 4/4/4
f 12/12/12 11/11/11 10/10/10
f 10/10/10 13/13/13 12/12/12
f 13/13/13 10/10/10 14/14/14
f 12/12/12 13/13/13 15/15/15
f 14/14/14 16/16/16 13/13/13
f 16/16/16 14/14/14 17/17/17
f 13/13/13 16/16/16 18/18/18
f 18/18/18 15/15/15 13/13/13
f 17/17/17 19/19/19 16/16/16
f 19/19/19 17/17/17 20/20/20
f 16/16/16 19/19/19 21/21/21
f 21/21/21 18/18/18 16/16/16
f 20/20/20 22/22/22 19/19/19
f 22/22/22 20/20/20 23/23/23
f 19/19/19 22/22/22 24/24/24
f 24/24/24 21/21/21 19/19/19
f 23/23/23 25/25/25 22/22/22
f 25/25/25 23/23/23 26/26/26
f 22/22/22 25/25/25 27/27/27
f 27/27/27 24/24/24 22/22/22
f 26/26/26 28/28/28 25/25/25
f 28/28/28 26/26/26 29/29/29
f 25/25/25 28/28/28 30/30/30
f 30/30/30 27/27/27 25/25/25
f 29/29/29 31/31/31 28/28/28
f 28/28/28 31/31/31 32/32/32
f 32/32/32 30/30/30 28/28/28
f 15/15/15 33/33/33 12/12/12
f 36/36/36 35/35/35 34/34/34
f 37/37/37 34/34/34 35/35/35
f 34/34/34 37/37/37 38/38/38
f 34/34/34 39/39/39 36/36/36
f 40/40/40 36/36/36 39/39/39
f 39/39/39 34/34/34 41/41/41
f 38/38/38 41/41/41 34/34/34
f 42/42/42 38/38/38 37/37/37
f 45/45/45 44/44/44 43/43/43
f 46/46/46 43/43/43 44/44/44
f 43/43/43 46/46/46 47/47/47
f 46/46/46 44/44/44 48/48/48
f 49/49/49 47/47/47 46/46/46
f 47/47/47 49/49/49 50/50/50
f 49/49/49 46/46/46 51/51/51
f 48/48/48 51/51/51 46/46/46
f 52/52/52 50/50/50 49/49/49
f 50/50/50 52/52/52 53/53/53
f 52/52/52 49/49/49 54/54/54
f 51/51/51 54/54/54 49/49/49
f 55/55/55 53/53/53 52/52/52
f 53/53/53 55/55/55 56/56/56
f 55/55/55 52/52/52 57/57/57
f 54/54/54 57/57/57 52/52/52
f 58/58/58 56/56/56 55/55/55
f 56/56/56 58/58/58 59/59/59
f 58/58/58 55/55/55 60/60/60
f 57/57/57 60/60/60 55/55/55
f 61/61/61 59/59/59 58/58/58
f 59/59/59 61/61/61 62/62/62
f 61/61/61 58/58/58 63/63/63
f 60/60/60 63/63/63 58/58/58
f 64/64/64 62/62/62 61/61/61
f 64/64/64 61/61/61 65/65/65
f 63/63/63 65/65/65 61/61/61
f 66/66/66 48/48/48 44/44/44
f 69/69/69 68/68/68 67/67/67
f 69/69/69 70/70/70 68/68/68
f 69/69/69 67/67/67 71/71/71
f 69/69/69 71/71/71 72/72/72
f 75/75/75 74/74/74 73/73/73
f 75/75/75 76/76/76 74/74/74
f 75/75/75 73/73/73 77/77/77
f 75/75/75 77/77/77 78/78/78
f 79/79/79 75/75/75 78/78/78
f 79/79/79 80/80/80 75/75/75
f 75/75/75 81/81/81 76/76/76
f 75/75/75 80/80/80 81/81/81
f 84/84/84 83/83/83 82/82/82
f 84/84/84 85/85/85 83/83/83
f 87/87/87 86/86/86 85/85/85
f 87/87/87 88/88/88 86/86/86
f 89/89/89 87/87/87 82/82/82
f 89/89/89 90/90/90 87/87/87
f 87/87/87 91/91/91 88/88/88
f 87/87/87 90/90/90 91/91/91
f 94/94/94 93/93/93 92/92/92
f 94/94/94 95/95/95 93/93/93
f 96/96/96 92/92/92 93/93/93
f 96/96/96 93/93/93 97/97/97
f 100/100/100 99/99/99 98/98/98
f 100/100/100 101/101/101 99/99/99
f 103/103/103 99/99/99 102/102/102
f 103/103/103 104/104/104 99/99/99
f 106/106/106 102/102/102 105/105/105
f 108/108/108 105/105/105 107/107/107
f 108/108/108 107/107/107 109/109/109
f 110/110/110 109/109/109 107/107/107
f 110/110/110 107/107/107 111/111/111
f 113/113/113 111/111/111 112/112/112
f 113/113/113 112/112/112 114/114/114
f 116/116/116 112/112/112 115/115/115
f 116/116/116 115/115/115 117/117/117
f 119/119/119 105/105/105 118/118/118
f 122/122/122 121/121/121 120/120/120
f 122/122/122 123/123/123 121/121/121
f 122/122/122 124/124/124 123/123/123
f 122/122/122 125/125/125 124/124/124
f 126/126/126 122/122/122 120/120/120
f 126/126/126 127/127/127 122/122/122
f 122/122/122 128/128/128 125/125/125
f 122/122/122 127/127/127 128/128/128
f 131/131/131 130/130/130 129/129/129
f 131/131/131 132/132/132 130/130/130
f 131/131/131 133/133/133 132/132/132
f 131/131/131 134/134/134 133/133/133
f 135/135/135 131/131/131 129/129/129
f 135/135/135 136/136/136 131/131/131
f 136/136/136 134/134/134 137/137/137
f 136/136/136 138/138/138 134/134/134
f 141/141/141 140/140/140 139/139/139
f 141/141/141 142/142/142 140/140/140
f 143/143/143 139/139/139 140/140/140
f 143/143/143 140/140/140 144/144/144
f 145/145/145 143/143/143 144/144/144
f 147/147/147 144/144/144 146/146/146
f 148/148/148 145/145/145 146/146/146
f 148/148/148 146/146/146 149/149/149
f 150/150/150 148/148/148 149/149/149
f 150/150/150 149/149/149 151/151/151
f 150/150/150 151/151/151 152/152/152
f 150/150/150 152/152/152 153/153/153
f 154/154/154 153/153/153 152/152/152
f 154/154/154 152/152/152 155/155/155
f 158/158/158 157/157/157 156/156/156
f 158/158/158 159/159/159 157/157/157
f 159/159/159 161/161/161 160/160/160
f 159/159/159 162/162/162 161/161/161
f 162/162/162 163/163/163 161/161/161
f 162/162/162 164/164/164 163/163/163
f 164/164/164 165/165/165 163/163/163
f 164/164/164 166/166/166 165/165/165
f 166/166/166 167/167/167 165/165/165
f 166/166/166 168/168/168 167/167/167
f 167/167/167 168/168/168 169/169/169
f 167/167/167 169/169/169 170/170/170
f 172/172/172 158/158/158 171/171/171
f 172/172/172 171/171/171 173/173/173
f 176/176/176 175/175/175 174/174/174
f 176/176/176 177/177/177 175/175/175
f 179/179/179 175/175/175 178/178/178
f 179/179/179 178/178/178 180/180/180
f 178/178/178 181/181/181 180/180/180
f 178/178/178 182/182/182 181/181/181
f 184/184/184 182/182/182 183/183/183
f 184/184/184 183/183/183 185/185/185
f 187/187/187 183/183/183 186/186/186
f 187/187/187 186/186/186 188/188/188
f 190/190/190 186/186/186 189/189/189
f 190/190/190 189/189/189 191/191/191
f 189/189/189 193/193/193 192/192/192
f 189/189/189 194/194/194 193/193/193
f 197/197/197 196/196/196 195/195/195
f 197/197/197 198/198/198 196/196/196
f 199/199/199 195/195/195 196/196/196
f 199/199/199 200/200/200 195/195/195
f 203/203/203 202/202/202 201/201/201
f 203/203/203 204/204/204 202/202/202
f 201/201/201 202/202/202 205/205/205
f 201/201/201 205/205/205 206/206/206
