g fairyFountainWater1
v -0.050251395 -0.012558252 0.08704883
v 6.1392784E-06 -0.011012256 6.109476E-06
v 0.050251424 -0.012558252 0.08704883
v -0.10050893 -0.012558252 6.109476E-06
v 6.1392784E-06 -0.011012256 6.109476E-06
v -0.050251395 -0.012558252 0.08704883
v -0.050251395 -0.012558252 -0.08704886
v 6.1392784E-06 -0.011012256 6.109476E-06
v -0.10050893 -0.012558252 6.109476E-06
v 0.050251424 -0.012558252 -0.08704886
v 6.1392784E-06 -0.011012256 6.109476E-06
v -0.050251395 -0.012558252 -0.08704886
v 0.10050896 -0.012558252 6.109476E-06
v 6.1392784E-06 -0.011012256 6.109476E-06
v 0.050251424 -0.012558252 -0.08704886
v 0.050251424 -0.012558252 0.08704883
v 6.1392784E-06 -0.011012256 6.109476E-06
v 0.10050896 -0.012558252 6.109476E-06
v -0.15076649 0.008374184 0.26114655
v -0.10050893 0.0010122657 0.17410386
v 0.10050896 0.0010122657 0.17410386
v 0.15076649 0.008374184 0.26114655
v -0.201024 0.012558222 0.3481893
v 0.20102404 0.012558222 0.3481893
v 0.15076649 0.008374184 0.26114655
v 0.10050896 0.0010122657 0.17410386
v 0.20102404 0.0010122657 6.109476E-06
v 0.30153912 0.008374184 6.109476E-06
v 0.20102404 0.012558222 0.3481893
v 0.4020542 0.012558222 6.109476E-06
v 0.30153912 0.008374184 6.109476E-06
v 0.20102404 0.0010122657 6.109476E-06
v 0.10050896 0.0010122657 -0.17410386
v 0.15076649 0.008374184 -0.26114658
v 0.4020542 0.012558222 6.109476E-06
v 0.20102404 0.012558222 -0.3481893
v 0.15076649 0.008374184 -0.26114658
v 0.10050896 0.0010122657 -0.17410386
v -0.10050893 0.0010122657 -0.17410386
v -0.15076649 0.008374184 -0.26114658
v 0.20102404 0.012558222 -0.3481893
v -0.201024 0.012558222 -0.3481893
v -0.15076649 0.008374184 -0.26114658
v -0.10050893 0.0010122657 -0.17410386
v -0.201024 0.0010122657 6.109476E-06
v -0.30153906 0.008374184 6.109476E-06
v -0.201024 0.012558222 -0.3481893
v -0.40205413 0.012558222 6.109476E-06
v -0.30153906 0.008374184 6.109476E-06
v -0.201024 0.0010122657 6.109476E-06
v -0.10050893 0.0010122657 0.17410386
v -0.15076649 0.008374184 0.26114655
v -0.40205413 0.012558222 6.109476E-06
v -0.201024 0.012558222 0.3481893
v -0.10050893 0.0010122657 0.17410386
v -0.050251395 -0.012558252 0.08704883
v 0.050251424 -0.012558252 0.08704883
v 0.10050896 0.0010122657 0.17410386
v 0.10050896 0.0010122657 0.17410386
v 0.050251424 -0.012558252 0.08704883
v 0.10050896 -0.012558252 6.109476E-06
v 0.20102404 0.0010122657 6.109476E-06
v 0.20102404 0.0010122657 6.109476E-06
v 0.10050896 -0.012558252 6.109476E-06
v 0.050251424 -0.012558252 -0.08704886
v 0.10050896 0.0010122657 -0.17410386
v 0.10050896 0.0010122657 -0.17410386
v 0.050251424 -0.012558252 -0.08704886
v -0.050251395 -0.012558252 -0.08704886
v -0.10050893 0.0010122657 -0.17410386
v -0.10050893 0.0010122657 -0.17410386
v -0.050251395 -0.012558252 -0.08704886
v -0.10050893 -0.012558252 6.109476E-06
v -0.201024 0.0010122657 6.109476E-06
v -0.201024 0.0010122657 6.109476E-06
v -0.10050893 -0.012558252 6.109476E-06
v -0.050251395 -0.012558252 0.08704883
v -0.10050893 0.0010122657 0.17410386
vt 0.56089556 0.37772986
vt 0.49952063 0.2549801
vt 0.43910474 0.37772986
vt 0.56089556 0.37772986
vt 0.49952063 0.2549801
vt 0.43910474 0.37772986
vt 0.56089556 0.37772986
vt 0.49952063 0.2549801
vt 0.43910474 0.37772986
vt 0.56089556 0.37772986
vt 0.49952063 0.2549801
vt 0.43910474 0.37772986
vt 0.56089556 0.37772986
vt 0.49952063 0.2549801
vt 0.43910474 0.37772986
vt 0.56089556 0.37772986
vt 0.49952063 0.2549801
vt 0.43910474 0.37772986
vt 0.68364525 0.6222704
vt 0.6222704 0.50047964
vt 0.37772986 0.50047964
vt 0.31635496 0.6222704
vt 0.74502015 0.74502015
vt 0.2549801 0.74502015
vt 0.68364525 0.6222704
vt 0.6222704 0.50047964
vt 0.37772986 0.50047964
vt 0.31635496 0.6222704
vt 0.74502015 0.74502015
vt 0.2549801 0.74502015
vt 0.68364525 0.6222704
vt 0.6222704 0.50047964
vt 0.37772986 0.50047964
vt 0.31635496 0.6222704
vt 0.74502015 0.74502015
vt 0.2549801 0.74502015
vt 0.68364525 0.6222704
vt 0.6222704 0.50047964
vt 0.37772986 0.50047964
vt 0.31635496 0.6222704
vt 0.74502015 0.74502015
vt 0.2549801 0.74502015
vt 0.68364525 0.6222704
vt 0.6222704 0.50047964
vt 0.37772986 0.50047964
vt 0.31635496 0.6222704
vt 0.74502015 0.74502015
vt 0.2549801 0.74502015
vt 0.68364525 0.6222704
vt 0.6222704 0.50047964
vt 0.37772986 0.50047964
vt 0.31635496 0.6222704
vt 0.74502015 0.74502015
vt 0.2549801 0.74502015
vt 0.6222704 0.50047964
vt 0.56089556 0.37772986
vt 0.43910474 0.37772986
vt 0.37772986 0.50047964
vt 0.6222704 0.50047964
vt 0.56089556 0.37772986
vt 0.43910474 0.37772986
vt 0.37772986 0.50047964
vt 0.6222704 0.50047964
vt 0.56089556 0.37772986
vt 0.43910474 0.37772986
vt 0.37772986 0.50047964
vt 0.6222704 0.50047964
vt 0.56089556 0.37772986
vt 0.43910474 0.37772986
vt 0.37772986 0.50047964
vt 0.6222704 0.50047964
vt 0.56089556 0.37772986
vt 0.43910474 0.37772986
vt 0.37772986 0.50047964
vt 0.6222704 0.50047964
vt 0.56089556 0.37772986
vt 0.43910474 0.37772986
vt 0.37772986 0.50047964
vn 0.00014527142 0.9998423 0.017760286
vn 0.00014527142 0.9998423 0.017760286
vn 0.00014527142 0.9998423 0.017760286
vn -0.0131879 0.9998423 0.011895437
vn -0.0131879 0.9998423 0.011895437
vn -0.0131879 0.9998423 0.011895437
vn -0.0131879 0.9998423 -0.011895437
vn -0.0131879 0.9998423 -0.011895437
vn -0.0131879 0.9998423 -0.011895437
vn 0.00014527142 0.9998423 -0.017760286
vn 0.00014527142 0.9998423 -0.017760286
vn 0.00014527142 0.9998423 -0.017760286
vn 0.013478436 0.9998423 -0.011565155
vn 0.013478436 0.9998423 -0.011565155
vn 0.013478436 0.9998423 -0.011565155
vn 0.013478436 0.9998423 0.011565155
vn 0.013478436 0.9998423 0.011565155
vn 0.013478436 0.9998423 0.011565155
vn 0.00014527142 0.9953979 -0.095827915
vn 0.00014527142 0.9953979 -0.095827915
vn 0.00014527142 0.9953979 -0.095827915
vn 0.00014527142 0.9953979 -0.095827915
vn 0.00014527142 0.9998423 -0.017760286
vn 0.00014527142 0.9998423 -0.017760286
vn -0.07096496 0.9953979 -0.06439715
vn -0.07096496 0.9953979 -0.06439715
vn -0.07096496 0.9953979 -0.06439715
vn -0.07096496 0.9953979 -0.06439715
vn -0.039828904 0.9992066 -0
vn -0.039828904 0.9992066 -0
vn -0.07096496 0.9953979 0.06439715
vn -0.07096496 0.9953979 0.06439715
vn -0.07096496 0.9953979 0.06439715
vn -0.07096496 0.9953979 0.06439715
vn -0.039828904 0.9992066 -0
vn -0.039828904 0.9992066 -0
vn 0.00014527142 0.9953979 0.095827915
vn 0.00014527142 0.9953979 0.095827915
vn 0.00014527142 0.9953979 0.095827915
vn 0.00014527142 0.9953979 0.095827915
vn 0.00014527142 0.9998423 0.017760286
vn 0.00014527142 0.9998423 0.017760286
vn 0.07125549 0.9953979 0.06407517
vn 0.07125549 0.9953979 0.06407517
vn 0.07125549 0.9953979 0.06407517
vn 0.07125549 0.9953979 0.06407517
vn 0.04011878 0.9991949 -0
vn 0.04011878 0.9991949 -0
vn 0.07125549 0.9953979 -0.06407517
vn 0.07125549 0.9953979 -0.06407517
vn 0.07125549 0.9953979 -0.06407517
vn 0.07125549 0.9953979 -0.06407517
vn 0.04011878 0.9991949 -0
vn 0.04011878 0.9991949 -0
vn 0.00014527142 0.9865091 -0.16370644
vn 0.00014527142 0.9865091 -0.16370644
vn 0.00014527142 0.9865091 -0.16370644
vn 0.00014527142 0.9865091 -0.16370644
vn -0.1331864 0.9865091 -0.095190115
vn -0.1331864 0.9865091 -0.095190115
vn -0.1331864 0.9865091 -0.095190115
vn -0.1331864 0.9865091 -0.095190115
vn -0.1331864 0.9865091 0.095190115
vn -0.1331864 0.9865091 0.095190115
vn -0.1331864 0.9865091 0.095190115
vn -0.1331864 0.9865091 0.095190115
vn 0.00014527142 0.9865091 0.16370644
vn 0.00014527142 0.9865091 0.16370644
vn 0.00014527142 0.9865091 0.16370644
vn 0.00014527142 0.9865091 0.16370644
vn 0.13347694 0.9865091 0.094782546
vn 0.13347694 0.9865091 0.094782546
vn 0.13347694 0.9865091 0.094782546
vn 0.13347694 0.9865091 0.094782546
vn 0.13347694 0.9865091 -0.094782546
vn 0.13347694 0.9865091 -0.094782546
vn 0.13347694 0.9865091 -0.094782546
vn 0.13347694 0.9865091 -0.094782546
g fairyFountainWater1_0
f 3/3/3 2/2/2 1/1/1
f 6/6/6 5/5/5 4/4/4
f 9/9/9 8/8/8 7/7/7
f 12/12/12 11/11/11 10/10/10
f 15/15/15 14/14/14 13/13/13
f 18/18/18 17/17/17 16/16/16
f 21/21/21 20/20/20 19/19/19
f 22/22/22 21/21/21 19/19/19
f 22/22/22 19/19/19 23/23/23
f 24/24/24 22/22/22 23/23/23
f 27/27/27 26/26/26 25/25/25
f 28/28/28 27/27/27 25/25/25
f 28/28/28 25/25/25 29/29/29
f 30/30/30 28/28/28 29/29/29
f 33/33/33 32/32/32 31/31/31
f 34/34/34 33/33/33 31/31/31
f 34/34/34 31/31/31 35/35/35
f 36/36/36 34/34/34 35/35/35
f 39/39/39 38/38/38 37/37/37
f 40/40/40 39/39/39 37/37/37
f 40/40/40 37/37/37 41/41/41
f 42/42/42 40/40/40 41/41/41
f 45/45/45 44/44/44 43/43/43
f 46/46/46 45/45/45 43/43/43
f 46/46/46 43/43/43 47/47/47
f 48/48/48 46/46/46 47/47/47
f 51/51/51 50/50/50 49/49/49
f 52/52/52 51/51/51 49/49/49
f 52/52/52 49/49/49 53/53/53
f 54/54/54 52/52/52 53/53/53
f 57/57/57 56/56/56 55/55/55
f 58/58/58 57/57/57 55/55/55
f 61/61/61 60/60/60 59/59/59
f 62/62/62 61/61/61 59/59/59
f 65/65/65 64/64/64 63/63/63
f 66/66/66 65/65/65 63/63/63
f 69/69/69 68/68/68 67/67/67
f 70/70/70 69/69/69 67/67/67
f 73/73/73 72/72/72 71/71/71
f 74/74/74 73/73/73 71/71/71
f 77/77/77 76/76/76 75/75/75
f 78/78/78 77/77/77 75/75/75
