g floodedCrypt_moss2
v 0.41975784 5.6077194 -13.618461
v 0.4230137 3.856575 -13.618461
v -3.0792751 3.8497658 -13.618461
v -3.0828266 5.60091 -13.618461
v 0.026668549 3.9995422 -13.637701
v 0.02341175 5.7506866 -13.637701
v 3.5257006 5.757496 -13.637701
v 3.529253 4.0063515 -13.637701
v -2.9703465 4.1957912 -13.35502
v -2.9703465 5.553255 -13.35502
v -1.6285715 5.553255 -13.55926
v -1.6285715 4.1957912 -13.55926
v 2.0377016 5.440773 -13.5169325
v 3.0935383 5.440773 -13.5169325
v 3.0935383 4.3849373 -13.5169325
v 2.0377016 4.3849373 -13.5169325
v 0.44699 4.106104 -13.640957
v 1.3249302 4.328104 -13.640957
v 1.4850674 3.1112423 -13.640957
v 0.6071272 2.8889465 -13.640957
v -1.6205797 3.2488842 -13.640957
v -1.0836334 4.524946 -13.640957
v 0.19242859 3.9882946 -13.640957
v -0.34422207 2.711937 -13.640957
v -2.7998486 1.2781057 -11.8569565
v -2.7998486 2.0012379 -11.8569565
v -2.2984228 2.0012379 -12.198542
v -2.2984228 1.2781057 -12.198542
v 2.3715916 1.8920126 -11.742996
v 2.7421846 1.8920126 -11.906093
v 2.7421846 1.3127384 -11.906093
v 2.3715916 1.3127384 -11.742996
vt 0 0.50048876
vt 0 1
vt 1 1
vt 1 0.50048876
vt 0 0
vt 0 0.50048876
vt 1 0.50048876
vt 1 0
vt 0 0
vt 0 1
vt 1 1
vt 1 0
vt 0 0
vt 0 1
vt 1 1
vt 1 0
vt 0 0
vt 0 1
vt 1 1
vt 1 0
vt 0 0
vt 0 1
vt 1 1
vt 1 0
vt 0 0
vt 0 1
vt 1 1
vt 1 0
vt 0 0
vt 0 1
vt 1 1
vt 1 0
vn -1.1324883E-06 1.1324883E-06 1
vn -1.1324883E-06 1.1324883E-06 1
vn -1.1324883E-06 1.1324883E-06 1
vn -1.1324883E-06 1.1324883E-06 1
vn -1.1324883E-06 1.1324883E-06 1
vn -1.1324883E-06 1.1324883E-06 1
vn -1.1324883E-06 1.1324883E-06 1
vn -1.1324883E-06 1.1324883E-06 1
vn 0.15007454 1.1324883E-06 0.9886747
vn 0.15007454 1.1324883E-06 0.9886747
vn 0.15007454 1.1324883E-06 0.9886747
vn 0.15007454 1.1324883E-06 0.9886747
vn -1.1324883E-06 1.1324883E-06 1
vn -1.1324883E-06 1.1324883E-06 1
vn -1.1324883E-06 1.1324883E-06 1
vn -1.1324883E-06 1.1324883E-06 1
vn -1.1324883E-06 1.1324883E-06 1
vn -1.1324883E-06 1.1324883E-06 1
vn -1.1324883E-06 1.1324883E-06 1
vn -1.1324883E-06 1.1324883E-06 1
vn -1.1324883E-06 1.1324883E-06 1
vn -1.1324883E-06 1.1324883E-06 1
vn -1.1324883E-06 1.1324883E-06 1
vn -1.1324883E-06 1.1324883E-06 1
vn 0.5627826 1.1324883E-06 0.82660496
vn 0.5627826 1.1324883E-06 0.82660496
vn 0.5627826 1.1324883E-06 0.82660496
vn 0.5627826 1.1324883E-06 0.82660496
vn 0.40387893 1.1324883E-06 0.91481245
vn 0.40387893 1.1324883E-06 0.91481245
vn 0.40387893 1.1324883E-06 0.91481245
vn 0.40387893 1.1324883E-06 0.91481245
g floodedCrypt_moss2_0
f 3/3/3 2/2/2 1/1/1
f 4/4/4 3/3/3 1/1/1
f 7/7/7 6/6/6 5/5/5
f 8/8/8 7/7/7 5/5/5
g floodedCrypt_moss2_1
f 11/11/11 10/10/10 9/9/9
f 12/12/12 11/11/11 9/9/9
f 15/15/15 14/14/14 13/13/13
f 16/16/16 15/15/15 13/13/13
f 19/19/19 18/18/18 17/17/17
f 20/20/20 19/19/19 17/17/17
f 23/23/23 22/22/22 21/21/21
f 24/24/24 23/23/23 21/21/21
f 27/27/27 26/26/26 25/25/25
f 28/28/28 27/27/27 25/25/25
f 31/31/31 30/30/30 29/29/29
f 32/32/32 31/31/31 29/29/29
