g fxChunk01
v 0.09690712 7.239659E-07 -0.059897967
v 3.7893952E-07 0.052375965 -0.08474488
v 0.059813607 -0.0369371 -0.096807346
v 0.09690712 7.239659E-07 -0.059897967
v 0.0793534 0.058391836 -0.036073104
v 3.7893952E-07 0.052375965 -0.08474488
v 0.09690712 7.239659E-07 -0.059897967
v 0.059813607 -0.0369371 -0.096807346
v 0.07906776 -0.048875354 -0.030192036
v 0.036543958 -0.06906223 -9.822203E-08
v 6.1414095E-05 2.9644438E-05 0.11058654
v 0.07579322 -0.04684988 0.028940458
v 0.036543958 -0.06906223 -9.822203E-08
v -0.056588978 -0.03494602 0.0915894
v 6.1414095E-05 2.9644438E-05 0.11058654
v -2.3141206E-07 0.053052567 0.085839845
v -0.037490465 0.033899274 0.08770463
v -0.09120506 0.08940881 0.037038147
v -0.087858506 0.054306764 -0.033549614
v -0.114597395 3.1140935E-05 6.0669885E-05
v -0.059500355 -0.036745265 -0.09629019
v 3.0896517E-05 0.1195607 -5.682119E-07
v -0.09120506 0.08940881 0.037038147
v 3.7893952E-07 0.052375965 -0.08474488
v -0.09120506 0.08940881 0.037038147
v 3.0896517E-05 0.1195607 -5.682119E-07
v -2.3141206E-07 0.053052567 0.085839845
v 0.036543958 -0.06906223 -9.822203E-08
v -0.054471668 -0.07139127 -0.038974583
v -0.056588978 -0.03494602 0.0915894
v -0.054471668 -0.07139127 -0.038974583
v -0.114597395 3.1140935E-05 6.0669885E-05
v -0.056588978 -0.03494602 0.0915894
v -0.114597395 3.1140935E-05 6.0669885E-05
v -0.054471668 -0.07139127 -0.038974583
v -0.059500355 -0.036745265 -0.09629019
v 3.7893952E-07 0.052375965 -0.08474488
v -0.09120506 0.08940881 0.037038147
v -0.087858506 0.054306764 -0.033549614
v -0.059500355 -0.036745265 -0.09629019
v 3.7893952E-07 0.052375965 -0.08474488
v -0.087858506 0.054306764 -0.033549614
v -0.056588978 -0.03494602 0.0915894
v -0.09120506 0.08940881 0.037038147
v -0.037490465 0.033899274 0.08770463
v -0.037490465 0.033899274 0.08770463
v -2.3141206E-07 0.053052567 0.085839845
v 6.1414095E-05 2.9644438E-05 0.11058654
v -0.056588978 -0.03494602 0.0915894
v -0.037490465 0.033899274 0.08770463
v 6.1414095E-05 2.9644438E-05 0.11058654
v -0.114597395 3.1140935E-05 6.0669885E-05
v -0.087858506 0.054306764 -0.033549614
v -0.09120506 0.08940881 0.037038147
v -0.09120506 0.08940881 0.037038147
v -0.056588978 -0.03494602 0.0915894
v -0.114597395 3.1140935E-05 6.0669885E-05
v -2.3141206E-07 0.053052567 0.085839845
v 3.0896517E-05 0.1195607 -5.682119E-07
v 0.059167247 0.03663295 0.048444428
v 6.1414095E-05 2.9644438E-05 0.11058654
v -2.3141206E-07 0.053052567 0.085839845
v 0.059167247 0.03663295 0.048444428
v 6.1414095E-05 2.9644438E-05 0.11058654
v 0.059167247 0.03663295 0.048444428
v 0.07579322 -0.04684988 0.028940458
v -0.059500355 -0.036745265 -0.09629019
v -0.054471668 -0.07139127 -0.038974583
v 0.059813607 -0.0369371 -0.096807346
v 0.059813607 -0.0369371 -0.096807346
v -0.054471668 -0.07139127 -0.038974583
v 0.07906776 -0.048875354 -0.030192036
v 0.07906776 -0.048875354 -0.030192036
v -0.054471668 -0.07139127 -0.038974583
v 0.036543958 -0.06906223 -9.822203E-08
v 0.0793534 0.058391836 -0.036073104
v 3.0896517E-05 0.1195607 -5.682119E-07
v 3.7893952E-07 0.052375965 -0.08474488
v 3.7893952E-07 0.052375965 -0.08474488
v -0.059500355 -0.036745265 -0.09629019
v 0.059813607 -0.0369371 -0.096807346
v 0.0793534 0.058391836 -0.036073104
v 0.07579322 -0.04684988 0.028940458
v 0.059167247 0.03663295 0.048444428
v 0.059167247 0.03663295 0.048444428
v 3.0896517E-05 0.1195607 -5.682119E-07
v 0.0793534 0.058391836 -0.036073104
v 0.0793534 0.058391836 -0.036073104
v 0.09690712 7.239659E-07 -0.059897967
v 0.07906776 -0.048875354 -0.030192036
v 0.07906776 -0.048875354 -0.030192036
v 0.036543958 -0.06906223 -9.822203E-08
v 0.07579322 -0.04684988 0.028940458
v 0.0793534 0.058391836 -0.036073104
v 0.07906776 -0.048875354 -0.030192036
v 0.07579322 -0.04684988 0.028940458
vt 0.72727275 0.5833334
vt 0.6363636 0.4166667
vt 0.6363636 0.5833334
vt 0.72727275 0.5833334
vt 0.77272725 0.5
vt 0.6363636 0.4166667
vt 0.72727275 0.5833334
vt 0.6363636 0.5833334
vt 0.6818182 0.6666667
vt 0.27272728 0.75
vt 0.13636364 0.5
vt 0.045454547 0.6666667
vt 0.27272728 0.75
vt 0.22727273 0.5
vt 0.13636364 0.5
vt 0.09090909 0.4166667
vt 0.18181819 0.4166667
vt 0.18181819 0.25
vt 0.5 0.33333334
vt 0.36363637 0.4166667
vt 0.5 0.5
vt 0.77272725 0.33333334
vt 0.72727275 0.25
vt 0.6363636 0.4166667
vt 0.90909094 0.25
vt 0.77272725 0.33333334
vt 1 0.4166667
vt 0.27272728 0.75
vt 0.45454547 0.5833334
vt 0.22727273 0.5
vt 0.45454547 0.5833334
vt 0.36363637 0.4166667
vt 0.22727273 0.5
vt 0.36363637 0.4166667
vt 0.45454547 0.5833334
vt 0.5 0.5
vt 0.6363636 0.4166667
vt 0.54545456 0.25
vt 0.5 0.33333334
vt 0.5 0.5
vt 0.6363636 0.4166667
vt 0.5 0.33333334
vt 0.22727273 0.5
vt 0.18181819 0.25
vt 0.18181819 0.4166667
vt 0.18181819 0.4166667
vt 0.09090909 0.4166667
vt 0.13636364 0.5
vt 0.22727273 0.5
vt 0.18181819 0.4166667
vt 0.13636364 0.5
vt 0.36363637 0.4166667
vt 0.40909094 0.33333334
vt 0.18181819 0.25
vt 0.18181819 0.25
vt 0.22727273 0.5
vt 0.36363637 0.4166667
vt 1 0.4166667
vt 0.77272725 0.33333334
vt 0.9545455 0.5
vt 0.13636364 0.5
vt 0.09090909 0.4166667
vt 0.045454547 0.5
vt 0.13636364 0.5
vt 0.045454547 0.5
vt 0.045454547 0.6666667
vt 0.5 0.5
vt 0.45454547 0.5833334
vt 0.6363636 0.5833334
vt 0.6363636 0.5833334
vt 0.45454547 0.5833334
vt 0.6818182 0.6666667
vt 0.6818182 0.6666667
vt 0.45454547 0.5833334
vt 0.45454547 0.75
vt 0.77272725 0.5
vt 0.77272725 0.33333334
vt 0.6363636 0.4166667
vt 0.6363636 0.4166667
vt 0.5 0.5
vt 0.6363636 0.5833334
vt 0.77272725 0.5
vt 0.8636364 0.6666667
vt 0.045454547 0.5
vt 0.9545455 0.5
vt 0.77272725 0.33333334
vt 0.77272725 0.5
vt 0.77272725 0.5
vt 0.72727275 0.5833334
vt 0.77272725 0.6666667
vt 0.77272725 0.6666667
vt 0.8181818 0.75
vt 0.8636364 0.6666667
vt 0.77272725 0.5
vt 0.77272725 0.6666667
vt 0.8636364 0.6666667
vn 0.42184713 0.3928745 -0.8171258
vn 0.42184713 0.39287454 -0.8171258
vn 0.42184705 0.3928745 -0.8171258
vn 0.44200668 0.4495977 -0.7762036
vn 0.44200668 0.44959766 -0.77620363
vn 0.44200668 0.44959772 -0.77620363
vn 0.8094119 -0.49111444 -0.32196116
vn 0.80941194 -0.4911144 -0.3219611
vn 0.80941194 -0.4911144 -0.3219611
vn 0.07071476 -0.83531183 0.5452097
vn 0.07071475 -0.83531183 0.5452097
vn 0.07071475 -0.83531183 0.5452097
vn 0.2823957 -0.7689358 0.5735769
vn 0.2823957 -0.7689358 0.5735769
vn 0.2823957 -0.7689358 0.57357687
vn -0.22828467 0.52654916 0.81892127
vn -0.2282847 0.5265492 0.81892127
vn -0.22828467 0.52654916 0.81892127
vn -0.8480977 0.0950352 -0.5212472
vn -0.8480977 0.09503522 -0.5212472
vn -0.8480977 0.09503524 -0.52124727
vn -0.45513985 0.69783396 -0.55306023
vn -0.4551399 0.69783396 -0.55306023
vn -0.45513985 0.69783396 -0.55306023
vn -0.01260529 0.79042935 0.6124234
vn -0.012605288 0.79042935 0.6124234
vn -0.012605288 0.79042935 0.6124234
vn -0.0895325 -0.9596868 0.26643044
vn -0.08953251 -0.9596868 0.26643044
vn -0.089532495 -0.9596868 0.26643044
vn -0.7013912 -0.6893948 0.18106695
vn -0.70139116 -0.6893948 0.18106696
vn -0.7013912 -0.6893948 0.18106693
vn -0.80385095 -0.5376554 -0.254461
vn -0.8038508 -0.5376554 -0.25446096
vn -0.80385095 -0.5376554 -0.25446102
vn -0.2382422 0.8650611 -0.44148615
vn -0.2382422 0.8650611 -0.4414861
vn -0.2382422 0.8650611 -0.4414861
vn -0.4535191 0.4056008 -0.7936047
vn -0.45351905 0.4056008 -0.7936047
vn -0.45351905 0.4056008 -0.7936047
vn -0.5552757 0.19960488 0.8073579
vn -0.5552757 0.19960488 0.8073579
vn -0.5552757 0.19960488 0.8073579
vn -0.16846251 0.41672903 0.8932845
vn -0.16846251 0.4167291 0.8932845
vn -0.16846251 0.41672903 0.8932845
vn -0.40242487 0.16247618 0.9009194
vn -0.4024248 0.16247617 0.9009194
vn -0.4024249 0.16247618 0.9009194
vn -0.92236024 0.32670212 -0.20619741
vn -0.92236024 0.32670215 -0.20619741
vn -0.92236024 0.32670212 -0.2061974
vn -0.8447118 -0.00036569996 0.5352213
vn -0.8447118 -0.00036569996 0.53522134
vn -0.8447118 -0.0003657 0.53522134
vn 0.51858526 0.6758102 0.5237842
vn 0.51858526 0.6758102 0.52378416
vn 0.5185852 0.6758102 0.5237842
vn 0.5679671 0.3486291 0.7455676
vn 0.5679671 0.3486291 0.7455676
vn 0.5679671 0.34862915 0.7455676
vn 0.7288389 -0.014773719 0.6845258
vn 0.7288389 -0.014773721 0.6845258
vn 0.7288389 -0.014773719 0.6845258
vn -0.0036174397 -0.85593134 -0.51707697
vn -0.0036174397 -0.8559312 -0.517077
vn -0.0036174397 -0.85593134 -0.51707697
vn 0.17631473 -0.9587899 -0.22278966
vn 0.17631471 -0.95878977 -0.22278966
vn 0.17631471 -0.95878977 -0.22278966
vn 0.1780885 -0.9153307 -0.3611845
vn 0.1780885 -0.91533065 -0.36118454
vn 0.17808849 -0.91533065 -0.36118454
vn 0.30623522 0.7459083 -0.5914734
vn 0.3062352 0.7459083 -0.59147346
vn 0.3062352 0.7459083 -0.59147334
vn -0.0040860944 0.13115521 -0.99135345
vn -0.0040860944 0.13115522 -0.99135345
vn -0.0040860944 0.13115521 -0.99135345
vn 0.9564355 0.12933661 0.26173082
vn 0.9564355 0.12933661 0.26173088
vn 0.9564355 0.12933661 0.26173082
vn 0.66601694 0.66840297 0.33114764
vn 0.66601694 0.668403 0.3311476
vn 0.66601694 0.6684031 0.33114764
vn 0.8361041 0.027812824 0.5478653
vn 0.8361041 0.027812827 0.54786533
vn 0.8361041 0.027812824 0.54786533
vn 0.4602585 -0.88602734 0.055836618
vn 0.46025842 -0.88602734 0.05583661
vn 0.4602585 -0.88602734 0.055836618
vn 0.99847084 0.00036249275 0.05527883
vn 0.99847084 0.00036249275 0.05527883
vn 0.99847084 0.00036249272 0.05527883
g fxChunk01_0
f 3/3/3 2/2/2 1/1/1
f 6/6/6 5/5/5 4/4/4
f 9/9/9 8/8/8 7/7/7
f 12/12/12 11/11/11 10/10/10
f 15/15/15 14/14/14 13/13/13
f 18/18/18 17/17/17 16/16/16
f 21/21/21 20/20/20 19/19/19
f 24/24/24 23/23/23 22/22/22
f 27/27/27 26/26/26 25/25/25
f 30/30/30 29/29/29 28/28/28
f 33/33/33 32/32/32 31/31/31
f 36/36/36 35/35/35 34/34/34
f 39/39/39 38/38/38 37/37/37
f 42/42/42 41/41/41 40/40/40
f 45/45/45 44/44/44 43/43/43
f 48/48/48 47/47/47 46/46/46
f 51/51/51 50/50/50 49/49/49
f 54/54/54 53/53/53 52/52/52
f 57/57/57 56/56/56 55/55/55
f 60/60/60 59/59/59 58/58/58
f 63/63/63 62/62/62 61/61/61
f 66/66/66 65/65/65 64/64/64
f 69/69/69 68/68/68 67/67/67
f 72/72/72 71/71/71 70/70/70
f 75/75/75 74/74/74 73/73/73
f 78/78/78 77/77/77 76/76/76
f 81/81/81 80/80/80 79/79/79
f 84/84/84 83/83/83 82/82/82
f 87/87/87 86/86/86 85/85/85
f 90/90/90 89/89/89 88/88/88
f 93/93/93 92/92/92 91/91/91
f 96/96/96 95/95/95 94/94/94
