g fxmeshRing1
v 0.48924917 -0.23356079 1.1811539
v 0.48924917 0.2024356 1.1811539
v 0.90401524 0.2024356 0.9040161
v 0.90401524 -0.23356079 0.9040161
v 0.90401524 -0.23356079 0.9040161
v 0.90401524 0.2024356 0.9040161
v 1.1811532 0.2024356 0.48925048
v 1.1811532 -0.23356071 0.48925048
v 1.1811539 -0.23356079 -0.48924926
v 1.1811539 0.2024356 -0.48924926
v 0.9040161 0.2024356 -0.9040154
v 0.9040161 -0.23356079 -0.9040154
v 0.9040161 -0.23356079 -0.9040154
v 0.9040161 0.2024356 -0.9040154
v 0.48925024 0.2024356 -1.1811534
v 0.48925024 -0.23356086 -1.1811534
v -0.4892494 -0.23356079 -1.1811535
v -0.4892494 0.2024356 -1.1811535
v -0.9040155 0.2024356 -0.904016
v -0.9040155 -0.23356079 -0.904016
v -0.9040155 -0.23356079 -0.904016
v -0.9040155 0.2024356 -0.904016
v -1.1811534 0.2024356 -0.48925003
v -1.1811534 -0.23356079 -0.48925003
v -1.1811535 -0.23356079 0.48924956
v -1.1811535 0.2024356 0.48924956
v -0.90401584 0.2024356 0.90401566
v -0.90401584 -0.23356079 0.90401566
v -0.90401584 -0.23356079 0.90401566
v -0.90401584 0.2024356 0.90401566
v -0.4892498 0.2024356 1.1811534
v -0.4892498 -0.23356079 1.1811535
v 0.48924917 -0.23356079 1.1811539
v 0.90401524 -0.23356079 0.9040161
v 0.90401524 0.2024356 0.9040161
v 0.48924917 0.2024356 1.1811539
v 0.90401524 -0.23356079 0.9040161
v 1.1811532 -0.23356071 0.48925048
v 1.1811532 0.2024356 0.48925048
v 0.90401524 0.2024356 0.9040161
v 1.1811539 -0.23356079 -0.48924926
v 0.9040161 -0.23356079 -0.9040154
v 0.9040161 0.2024356 -0.9040154
v 1.1811539 0.2024356 -0.48924926
v 0.9040161 -0.23356079 -0.9040154
v 0.48925024 -0.23356086 -1.1811534
v 0.48925024 0.2024356 -1.1811534
v 0.9040161 0.2024356 -0.9040154
v -0.4892494 -0.23356079 -1.1811535
v -0.9040155 -0.23356079 -0.904016
v -0.9040155 0.2024356 -0.904016
v -0.4892494 0.2024356 -1.1811535
v -0.9040155 -0.23356079 -0.904016
v -1.1811534 -0.23356079 -0.48925003
v -1.1811534 0.2024356 -0.48925003
v -0.9040155 0.2024356 -0.904016
v -1.1811535 -0.23356079 0.48924956
v -0.90401584 -0.23356079 0.90401566
v -0.90401584 0.2024356 0.90401566
v -1.1811535 0.2024356 0.48924956
v -0.90401584 -0.23356079 0.90401566
v -0.4892498 -0.23356079 1.1811535
v -0.4892498 0.2024356 1.1811534
v -0.90401584 0.2024356 0.90401566
vt 0.06292164 0.020636767
vt 0.06292164 0.98030305
vt 0.9492612 0.98030305
vt 0.9492612 0.020636767
vt 0.91223454 0.021758586
vt 0.91223454 0.09239951
vt 0.9744764 0.09239951
vt 0.9744764 0.021758586
vt 0.06292164 0.020636767
vt 0.06292164 0.98030305
vt 0.9492612 0.98030305
vt 0.9492612 0.020636767
vt 0.9123118 0.021758586
vt 0.9123118 0.09239951
vt 0.9745536 0.09239951
vt 0.9745536 0.021758586
vt 0.06292164 0.020636767
vt 0.06292164 0.98030305
vt 0.9492612 0.98030305
vt 0.9492612 0.020636767
vt 0.9138705 0.021758586
vt 0.9138705 0.09239951
vt 0.97611225 0.09239951
vt 0.97611225 0.021758586
vt 0.06292164 0.020636767
vt 0.06292164 0.98030305
vt 0.9492612 0.98030305
vt 0.9492612 0.020636767
vt 0.9139477 0.021758586
vt 0.9139477 0.09239951
vt 0.9761895 0.09239951
vt 0.9761895 0.021758586
vt 0.06292164 0.020636767
vt 0.9492612 0.020636767
vt 0.9492612 0.98030305
vt 0.06292164 0.98030305
vt 0.91223454 0.021758586
vt 0.9744764 0.021758586
vt 0.9744764 0.09239951
vt 0.91223454 0.09239951
vt 0.06292164 0.020636767
vt 0.9492612 0.020636767
vt 0.9492612 0.98030305
vt 0.06292164 0.98030305
vt 0.9123118 0.021758586
vt 0.9745536 0.021758586
vt 0.9745536 0.09239951
vt 0.9123118 0.09239951
vt 0.06292164 0.020636767
vt 0.9492612 0.020636767
vt 0.9492612 0.98030305
vt 0.06292164 0.98030305
vt 0.9138705 0.021758586
vt 0.97611225 0.021758586
vt 0.97611225 0.09239951
vt 0.9138705 0.09239951
vt 0.06292164 0.020636767
vt 0.9492612 0.020636767
vt 0.9492612 0.98030305
vt 0.06292164 0.98030305
vt 0.9139477 0.021758586
vt 0.9761895 0.021758586
vt 0.9761895 0.09239951
vt 0.9139477 0.09239951
vn 0.5555702 0 0.8314696
vn 0.5555702 0 0.8314697
vn 0.7071065 0 0.70710707
vn 0.7071065 0 0.70710707
vn 0.7071065 0 0.70710707
vn 0.7071065 0 0.70710707
vn 0.8314693 0 0.5555708
vn 0.8314692 0 0.5555708
vn 0.8314696 0 -0.5555702
vn 0.8314696 0 -0.5555702
vn 0.7071069 0 -0.7071066
vn 0.7071069 0 -0.7071066
vn 0.7071069 0 -0.7071066
vn 0.7071069 0 -0.7071066
vn 0.55557066 0 -0.8314693
vn 0.5555706 0 -0.83146936
vn -0.5555699 0 -0.8314699
vn -0.5555699 0 -0.8314699
vn -0.70710653 0 -0.707107
vn -0.70710653 0 -0.707107
vn -0.70710653 0 -0.707107
vn -0.70710653 0 -0.707107
vn -0.8314695 0 -0.55557036
vn -0.8314695 0 -0.55557036
vn -0.8314697 0 0.55557007
vn -0.8314697 0 0.55557007
vn -0.7071069 0 0.70710665
vn -0.7071069 0 0.70710665
vn -0.7071069 0 0.70710665
vn -0.7071069 0 0.70710665
vn -0.55557036 1.1225358E-07 0.83146954
vn -0.55557036 1.1225357E-07 0.8314695
vn -0.5555702 0 -0.8314696
vn -0.7071065 0 -0.70710707
vn -0.7071065 0 -0.70710707
vn -0.5555702 0 -0.8314697
vn -0.7071065 0 -0.70710707
vn -0.8314692 0 -0.5555708
vn -0.8314693 0 -0.5555708
vn -0.7071065 0 -0.70710707
vn -0.8314696 0 0.5555702
vn -0.70710695 0 0.7071066
vn -0.70710695 0 0.7071066
vn -0.8314696 0 0.5555702
vn -0.70710695 0 0.7071066
vn -0.5555707 0 0.8314693
vn -0.5555707 0 0.8314693
vn -0.70710695 0 0.7071066
vn 0.5555699 0 0.8314699
vn 0.70710653 0 0.707107
vn 0.70710653 0 0.707107
vn 0.5555699 0 0.8314699
vn 0.70710653 0 0.707107
vn 0.8314695 0 0.55557036
vn 0.8314695 0 0.55557036
vn 0.70710653 0 0.707107
vn 0.8314697 0 -0.55557007
vn 0.7071069 0 -0.70710665
vn 0.7071069 0 -0.70710665
vn 0.8314697 0 -0.55557007
vn 0.7071069 0 -0.70710665
vn 0.55557036 -1.1225357E-07 -0.8314695
vn 0.55557036 -1.1225358E-07 -0.83146954
vn 0.7071069 0 -0.70710665
g fxmeshRing1_0
f 3/3/3 2/2/2 1/1/1
f 4/4/4 3/3/3 1/1/1
f 7/7/7 6/6/6 5/5/5
f 8/8/8 7/7/7 5/5/5
f 11/11/11 10/10/10 9/9/9
f 12/12/12 11/11/11 9/9/9
f 15/15/15 14/14/14 13/13/13
f 16/16/16 15/15/15 13/13/13
f 19/19/19 18/18/18 17/17/17
f 20/20/20 19/19/19 17/17/17
f 23/23/23 22/22/22 21/21/21
f 24/24/24 23/23/23 21/21/21
f 27/27/27 26/26/26 25/25/25
f 28/28/28 27/27/27 25/25/25
f 31/31/31 30/30/30 29/29/29
f 32/32/32 31/31/31 29/29/29
f 35/35/35 34/34/34 33/33/33
f 36/36/36 35/35/35 33/33/33
f 39/39/39 38/38/38 37/37/37
f 40/40/40 39/39/39 37/37/37
f 43/43/43 42/42/42 41/41/41
f 44/44/44 43/43/43 41/41/41
f 47/47/47 46/46/46 45/45/45
f 48/48/48 47/47/47 45/45/45
f 51/51/51 50/50/50 49/49/49
f 52/52/52 51/51/51 49/49/49
f 55/55/55 54/54/54 53/53/53
f 56/56/56 55/55/55 53/53/53
f 59/59/59 58/58/58 57/57/57
f 60/60/60 59/59/59 57/57/57
f 63/63/63 62/62/62 61/61/61
f 64/64/64 63/63/63 61/61/61
