g fxmesh_tallcone
v 0.17448966 -0.19999999 -0.17448965
v 0.28284267 8.691373 -0.28284267
v -1.9134302E-24 8.691373 -0.39999995
v 7.306782E-09 -0.19999999 -0.24676564
v 7.306782E-09 -0.19999999 -0.24676564
v -1.9134302E-24 8.691373 -0.39999995
v -0.28284267 8.691373 -0.28284267
v -0.17448965 -0.19999999 -0.17448965
v -0.17448965 -0.19999999 -0.17448965
v -0.28284267 8.691373 -0.28284267
v -0.39999995 8.691373 0
v -0.24676563 -0.19999999 0
v -0.24676563 -0.19999999 0
v -0.39999995 8.691373 0
v -0.28284267 8.691373 0.28284267
v -0.17448965 -0.19999999 0.17448965
v -0.17448965 -0.19999999 0.17448965
v -0.28284267 8.691373 0.28284267
v -1.9134302E-24 8.691373 0.39999995
v 7.306782E-09 -0.19999999 0.24676564
v 7.306782E-09 -0.19999999 0.24676564
v -1.9134302E-24 8.691373 0.39999995
v 0.2828427 8.691373 0.2828427
v 0.17448969 -0.19999999 0.17448966
v 0.17448969 -0.19999999 0.17448966
v 0.2828427 8.691373 0.2828427
v 0.39999998 8.691373 0
v 0.24676566 -0.19999999 0
v 0.24676566 -0.19999999 0
v 0.39999998 8.691373 0
v 0.28284267 8.691373 -0.28284267
v 0.17448966 -0.19999999 -0.17448965
vt 0 0.009676188
vt 0 0.9912636
vt 0.12653345 0.9912636
vt 0.12653345 0.009676188
vt 0.12653345 0.009676188
vt 0.12653345 0.9912636
vt 0.25102228 0.9912636
vt 0.25102228 0.009676188
vt 0.25102228 0.009676188
vt 0.25102228 0.9912636
vt 0.37551114 0.9912636
vt 0.37551114 0.009676188
vt 0.37551114 0.009676188
vt 0.37551114 0.9912636
vt 0.5 0.9912636
vt 0.5 0.009676188
vt 0.5 0.009676188
vt 0.5 0.9912636
vt 0.62448883 0.9912636
vt 0.62448883 0.009676188
vt 0.62448883 0.009676188
vt 0.62448883 0.9912636
vt 0.7489777 0.9912636
vt 0.7489777 0.009676188
vt 0.7489777 0.009676188
vt 0.7489777 0.9912636
vt 0.8734666 0.9912636
vt 0.8734666 0.009676188
vt 0.8734666 0.009676188
vt 0.8734666 0.9912636
vt 1 0.9912636
vt 1 0.009676188
vn 0.3826351 -0.01592016 -0.92376244
vn 0.38263506 -0.015920164 -0.92376244
vn 0.38263506 -0.015920164 -0.92376244
vn 0.3826351 -0.01592016 -0.92376244
vn -0.3826351 -0.01592016 -0.92376244
vn -0.38263506 -0.015920164 -0.92376244
vn -0.38263506 -0.015920164 -0.92376244
vn -0.3826351 -0.01592016 -0.92376244
vn -0.92376244 -0.015920168 -0.38263506
vn -0.92376244 -0.015920164 -0.38263497
vn -0.92376244 -0.015920164 -0.38263497
vn -0.92376244 -0.015920168 -0.38263506
vn -0.92376244 -0.015920168 0.38263506
vn -0.92376244 -0.015920164 0.38263497
vn -0.92376244 -0.015920164 0.38263497
vn -0.92376244 -0.015920168 0.38263506
vn -0.3826351 -0.01592016 0.92376244
vn -0.38263506 -0.015920164 0.92376244
vn -0.38263506 -0.015920164 0.92376244
vn -0.3826351 -0.01592016 0.92376244
vn 0.3826348 -0.015920166 0.9237625
vn 0.38263473 -0.015920164 0.9237625
vn 0.38263473 -0.015920164 0.9237625
vn 0.3826348 -0.015920166 0.9237625
vn 0.92376244 -0.015920164 0.38263494
vn 0.92376244 -0.015920162 0.38263488
vn 0.92376244 -0.015920162 0.38263488
vn 0.92376244 -0.015920164 0.38263494
vn 0.92376244 -0.015920168 -0.3826351
vn 0.92376244 -0.015920168 -0.3826351
vn 0.92376244 -0.015920168 -0.3826351
vn 0.92376244 -0.015920168 -0.3826351
g fxmesh_tallcone_0
f 3/3/3 2/2/2 1/1/1
f 4/4/4 3/3/3 1/1/1
f 7/7/7 6/6/6 5/5/5
f 8/8/8 7/7/7 5/5/5
f 11/11/11 10/10/10 9/9/9
f 12/12/12 11/11/11 9/9/9
f 15/15/15 14/14/14 13/13/13
f 16/16/16 15/15/15 13/13/13
f 19/19/19 18/18/18 17/17/17
f 20/20/20 19/19/19 17/17/17
f 23/23/23 22/22/22 21/21/21
f 24/24/24 23/23/23 21/21/21
f 27/27/27 26/26/26 25/25/25
f 28/28/28 27/27/27 25/25/25
f 31/31/31 30/30/30 29/29/29
f 32/32/32 31/31/31 29/29/29
