g fxmeshLeaf01
v -0.2714338 0 0
v -0 4.4408918E-17 -0.19999999
v -0 0.043410353 0
v -0.2714338 0 0
v -0 0.043410353 0
v -0 -4.4408918E-17 0.19999999
v -0 -4.4408918E-17 0.19999999
v -0 0.043410353 0
v 0.2714338 0 0
v -0 4.4408918E-17 -0.19999999
v 0.2714338 0 0
v -0 0.043410353 0
v -0.2714338 0 0
v -0 0.043410353 0
v -0 4.4408918E-17 -0.19999999
v -0.2714338 0 0
v -0 -4.4408918E-17 0.19999999
v -0 0.043410353 0
v -0 -4.4408918E-17 0.19999999
v 0.2714338 0 0
v -0 0.043410353 0
v -0 4.4408918E-17 -0.19999999
v -0 0.043410353 0
v 0.2714338 0 0
vt 0 0.75
vt 0.5 1
vt 0.5 0.5
vt 0 0
vt 0.5 0.5
vt 0.5 0
vt 0.5 0
vt 0.5 0.5
vt 1 0.25
vt 0.5 1
vt 1 0.25
vt 0.5 0.5
vt 0 0.75
vt 0.5 0.5
vt 0.5 1
vt 0 0
vt 0.5 0
vt 0.5 0.5
vt 0.5 0
vt 1 0.25
vt 0.5 0.5
vt 0.5 1
vt 0.5 0.5
vt 1 0.25
vn -0.15441607 0.965524 -0.20956871
vn -0.15441608 0.965524 -0.20956872
vn -0.15441608 0.965524 -0.20956871
vn -0.15441607 0.965524 0.20956871
vn -0.15441608 0.965524 0.20956871
vn -0.15441608 0.965524 0.20956872
vn 0.15441608 0.965524 0.20956872
vn 0.15441608 0.965524 0.20956871
vn 0.15441607 0.965524 0.20956871
vn 0.15441608 0.965524 -0.20956872
vn 0.15441607 0.965524 -0.20956871
vn 0.15441608 0.965524 -0.20956871
vn 0.15441607 -0.965524 0.20956871
vn 0.15441608 -0.965524 0.20956871
vn 0.15441608 -0.965524 0.20956872
vn 0.15441607 -0.965524 -0.20956871
vn 0.15441608 -0.965524 -0.20956872
vn 0.15441608 -0.965524 -0.20956871
vn -0.15441608 -0.965524 -0.20956872
vn -0.15441607 -0.965524 -0.20956871
vn -0.15441608 -0.965524 -0.20956871
vn -0.15441608 -0.965524 0.20956872
vn -0.15441608 -0.965524 0.20956871
vn -0.15441607 -0.965524 0.20956871
g fxmeshLeaf01_0
f 3/3/3 2/2/2 1/1/1
f 6/6/6 5/5/5 4/4/4
f 9/9/9 8/8/8 7/7/7
f 12/12/12 11/11/11 10/10/10
f 15/15/15 14/14/14 13/13/13
f 18/18/18 17/17/17 16/16/16
f 21/21/21 20/20/20 19/19/19
f 24/24/24 23/23/23 22/22/22
