g fxmeshPlaneRing
v 0.48924917 -0.23356079 1.1811539
v 0.48924917 0.2024356 1.1811539
v 0.90401524 0.2024356 0.9040161
v 0.90401524 -0.23356079 0.9040161
v 0.48924917 -0.23356079 1.1811539
v 0.90401524 -0.23356079 0.9040161
v 0.90401524 0.2024356 0.9040161
v 0.48924917 0.2024356 1.1811539
vt 0.06292164 0.020636767
vt 0.06292164 0.98030305
vt 0.9492612 0.98030305
vt 0.9492612 0.020636767
vt 0.06292164 0.020636767
vt 0.9492612 0.020636767
vt 0.9492612 0.98030305
vt 0.06292164 0.98030305
vn 0.5555702 0 0.8314697
vn 0.5555702 0 0.8314697
vn 0.5555702 0 0.8314697
vn 0.5555702 0 0.8314697
vn -0.5555702 0 -0.8314697
vn -0.5555702 0 -0.8314697
vn -0.5555702 0 -0.8314697
vn -0.5555702 0 -0.8314697
g fxmeshPlaneRing_0
f 3/3/3 2/2/2 1/1/1
f 4/4/4 3/3/3 1/1/1
f 7/7/7 6/6/6 5/5/5
f 8/8/8 7/7/7 5/5/5
