g fxmesh_bone01
v 0.068444215 0.22667858 0.027478626
v 0.060942993 0.20855579 -0.025391266
v 0.061772153 0.20937504 0.03375506
v -0.044700317 0.24957149 -0.027101828
v -0.068444215 0.23530437 0.007863767
v -0.06310577 0.21650283 -0.025606466
v -0.0022058105 -0.08493821 -0.023834731
v 0.016142882 -0.057393357 -0.02519516
v -0.0022616577 -0.061902463 -0.02405463
v -0.002871704 0.19013713 -0.026460579
v 0.026482848 0.18923111 -0.019539725
v 0.035074614 0.18673885 0.0067287902
v 0.025081329 -0.043409567 0.0068425066
v 0.01800293 -0.050414313 0.028163917
v 0.025903473 0.19591007 0.033709094
v 0.01800293 -0.050414313 0.028163917
v -0.0019604492 -0.071286015 0.033937994
v -0.0246817 -0.06857712 0.039557807
v -0.0246817 -0.06857712 0.039557807
v -0.025090026 -0.0494699 0.039165616
v -0.030336913 0.19605121 0.03412601
v 0.025903473 0.19591007 0.033709094
v -0.025090026 -0.0494699 0.039165616
v -0.0246817 -0.06857712 0.039557807
v -0.028934782 -0.043646324 0.0068318443
v -0.030336913 0.19605121 0.03412601
v -0.040172424 0.1859264 0.0067050247
v -0.0246817 -0.06857712 0.039557807
v -0.04989319 -0.08149022 0.030521495
v -0.028934782 -0.043646324 0.0068318443
v -0.0030648804 -0.09518708 0.011602581
v -0.029857025 -0.100123115 0.009707229
v -0.0246817 -0.06857712 0.039557807
v -0.04989319 -0.08149022 0.030521495
v -0.0246817 -0.06857712 0.039557807
v -0.0030648804 -0.09518708 0.011602581
v 0.035318144 -0.09128173 0.031141678
v 0.036279295 -0.09146615 -0.014349458
v 0.016142882 -0.057393357 -0.02519516
v 0.04495117 -0.06592451 -0.013940336
v 0.025081329 -0.043409567 0.0068425066
v 0.035074614 0.18673885 0.0067287902
v 0.025903473 0.19591007 0.033709094
v 0.061772153 0.20937504 0.03375506
v -0.00059677125 0.24754559 -0.02129935
v 0.028543701 0.25432277 0.0051491526
v 0.00014556885 0.2515089 0.0054286937
v -0.044700317 0.24957149 -0.027101828
v -0.06310577 0.21650283 -0.025606466
v -0.043023072 0.23293605 -0.04311426
v -0.0025160217 0.24747837 0.03241651
v -0.026933594 0.25959408 0.007435806
v 0.00014556885 0.2515089 0.0054286937
v -0.00059677125 0.24754559 -0.02129935
v -0.0023684693 0.23447147 -0.034860194
v 0.048662413 0.2428207 -0.027486965
v 0.060942993 0.20855579 -0.025391266
v 0.048662413 0.2428207 -0.027486965
v 0.026277771 0.22194885 -0.043835495
v -0.0025160217 0.24747837 0.03241651
v 0.028543701 0.25432277 0.0051491526
v 0.030471344 0.24118228 0.052323464
v 0.030471344 0.24118228 0.052323464
v 0.020993346 0.21902072 0.056523237
v -0.0025160217 0.24747837 0.03241651
v -0.026933594 0.25959408 0.007435806
v -0.068444215 0.23530437 0.007863767
v -0.044700317 0.24957149 -0.027101828
v -0.00059677125 0.24754559 -0.02129935
v -0.026933594 0.25959408 0.007435806
v -0.044700317 0.24957149 -0.027101828
v 0.04495117 -0.06592451 -0.013940336
v 0.016142882 -0.057393357 -0.02519516
v 0.036279295 -0.09146615 -0.014349458
v 0.044900205 -0.06523047 0.030417677
v 0.025081329 -0.043409567 0.0068425066
v 0.05320801 -0.07759067 0.008298424
v 0.01800293 -0.050414313 0.028163917
v 0.044900205 -0.06523047 0.030417677
v -0.0019604492 -0.071286015 0.033937994
v -0.04989319 -0.08149022 0.030521495
v -0.04930954 -0.0688872 -0.012783558
v -0.028934782 -0.043646324 0.0068318443
v -0.02210205 -0.05144062 -0.01436063
v -0.04930954 -0.0688872 -0.012783558
v -0.033462677 -0.082254425 -0.024506824
v -0.033462677 -0.082254425 -0.024506824
v -0.0022058105 -0.08493821 -0.023834731
v -0.02210205 -0.05144062 -0.01436063
v 0.044900205 -0.06523047 0.030417677
v 0.035318144 -0.09128173 0.031141678
v -0.0019604492 -0.071286015 0.033937994
v 0.05320801 -0.07759067 0.008298424
v 0.035318144 -0.09128173 0.031141678
v 0.044900205 -0.06523047 0.030417677
v 0.025081329 -0.043409567 0.0068425066
v 0.04495117 -0.06592451 -0.013940336
v 0.05320801 -0.07759067 0.008298424
v 0.016142882 -0.057393357 -0.02519516
v -0.0022058105 -0.08493821 -0.023834731
v 0.036279295 -0.09146615 -0.014349458
v -0.043023072 0.23293605 -0.04311426
v -0.0023684693 0.23447147 -0.034860194
v -0.044700317 0.24957149 -0.027101828
v -0.00059677125 0.24754559 -0.02129935
v -0.026933594 0.25959408 0.007435806
v -0.030424498 0.22896957 0.054178942
v -0.068444215 0.23530437 0.007863767
v -0.062618405 0.21814364 0.039413363
v -0.026933594 0.25959408 0.007435806
v -0.0025160217 0.24747837 0.03241651
v -0.030424498 0.22896957 0.054178942
v 0.028543701 0.25432277 0.0051491526
v 0.068444215 0.22667858 0.027478626
v 0.030471344 0.24118228 0.052323464
v 0.048662413 0.2428207 -0.027486965
v 0.060942993 0.20855579 -0.025391266
v 0.068444215 0.22667858 0.027478626
v 0.028543701 0.25432277 0.0051491526
v 0.048662413 0.2428207 -0.027486965
v 0.068444215 0.22667858 0.027478626
v 0.028543701 0.25432277 0.0051491526
v -0.00059677125 0.24754559 -0.02129935
v 0.048662413 0.2428207 -0.027486965
v 0.048662413 0.2428207 -0.027486965
v -0.0023684693 0.23447147 -0.034860194
v 0.026277771 0.22194885 -0.043835495
v -0.026933594 0.25959408 0.007435806
v -0.00059677125 0.24754559 -0.02129935
v 0.00014556885 0.2515089 0.0054286937
v -0.030336913 0.19605121 0.03412601
v -0.062618405 0.21814364 0.039413363
v -0.030424498 0.22896957 0.054178942
v -0.040172424 0.1859264 0.0067050247
v -0.062618405 0.21814364 0.039413363
v -0.030336913 0.19605121 0.03412601
v -0.030201873 0.19492462 -0.020665562
v -0.06310577 0.21650283 -0.025606466
v -0.040172424 0.1859264 0.0067050247
v -0.030201873 0.19492462 -0.020665562
v -0.0023684693 0.23447147 -0.034860194
v -0.043023072 0.23293605 -0.04311426
v -0.06310577 0.21650283 -0.025606466
v -0.030201873 0.19492462 -0.020665562
v -0.043023072 0.23293605 -0.04311426
v 0.028543701 0.25432277 0.0051491526
v -0.0025160217 0.24747837 0.03241651
v 0.00014556885 0.2515089 0.0054286937
v 0.026482848 0.18923111 -0.019539725
v 0.060942993 0.20855579 -0.025391266
v 0.026277771 0.22194885 -0.043835495
v -0.002871704 0.19013713 -0.026460579
v 0.061772153 0.20937504 0.03375506
v 0.060942993 0.20855579 -0.025391266
v 0.026482848 0.18923111 -0.019539725
v 0.026482848 0.18923111 -0.019539725
v 0.035074614 0.18673885 0.0067287902
v 0.061772153 0.20937504 0.03375506
v 0.061772153 0.20937504 0.03375506
v 0.025903473 0.19591007 0.033709094
v 0.020993346 0.21902072 0.056523237
v 0.030471344 0.24118228 0.052323464
v 0.068444215 0.22667858 0.027478626
v 0.020993346 0.21902072 0.056523237
v 0.068444215 0.22667858 0.027478626
v 0.061772153 0.20937504 0.03375506
v 0.020993346 0.21902072 0.056523237
v 0.044900205 -0.06523047 0.030417677
v 0.01800293 -0.050414313 0.028163917
v 0.025081329 -0.043409567 0.0068425066
v 0.035318144 -0.09128173 0.031141678
v -0.0030648804 -0.09518708 0.011602581
v -0.0019604492 -0.071286015 0.033937994
v -0.029857025 -0.100123115 0.009707229
v -0.0030648804 -0.09518708 0.011602581
v -0.033462677 -0.082254425 -0.024506824
v -0.0030648804 -0.09518708 0.011602581
v -0.0022058105 -0.08493821 -0.023834731
v -0.033462677 -0.082254425 -0.024506824
v -0.04930954 -0.0688872 -0.012783558
v -0.02210205 -0.05144062 -0.01436063
v -0.028934782 -0.043646324 0.0068318443
v -0.02210205 -0.05144062 -0.01436063
v -0.030201873 0.19492462 -0.020665562
v -0.040172424 0.1859264 0.0067050247
v -0.028934782 -0.043646324 0.0068318443
v 0.026482848 0.18923111 -0.019539725
v 0.016142882 -0.057393357 -0.02519516
v 0.025081329 -0.043409567 0.0068425066
v 0.035074614 0.18673885 0.0067287902
v -0.0022616577 -0.061902463 -0.02405463
v -0.02210205 -0.05144062 -0.01436063
v -0.0022058105 -0.08493821 -0.023834731
v -0.002871704 0.19013713 -0.026460579
v -0.030201873 0.19492462 -0.020665562
v -0.062618405 0.21814364 0.039413363
v -0.040172424 0.1859264 0.0067050247
v -0.068444215 0.23530437 0.007863767
v -0.040172424 0.1859264 0.0067050247
v -0.06310577 0.21650283 -0.025606466
v -0.068444215 0.23530437 0.007863767
v 0.025903473 0.19591007 0.033709094
v -0.030336913 0.19605121 0.03412601
v 0.020993346 0.21902072 0.056523237
v -0.030336913 0.19605121 0.03412601
v -0.030424498 0.22896957 0.054178942
v 0.020993346 0.21902072 0.056523237
v -0.030201873 0.19492462 -0.020665562
v -0.002871704 0.19013713 -0.026460579
v -0.0023684693 0.23447147 -0.034860194
v -0.0023684693 0.23447147 -0.034860194
v -0.002871704 0.19013713 -0.026460579
v 0.026277771 0.22194885 -0.043835495
v -0.0022058105 -0.08493821 -0.023834731
v -0.0030648804 -0.09518708 0.011602581
v 0.036279295 -0.09146615 -0.014349458
v 0.036279295 -0.09146615 -0.014349458
v 0.035318144 -0.09128173 0.031141678
v 0.05320801 -0.07759067 0.008298424
v 0.05320801 -0.07759067 0.008298424
v 0.04495117 -0.06592451 -0.013940336
v 0.036279295 -0.09146615 -0.014349458
v -0.029857025 -0.100123115 0.009707229
v -0.033462677 -0.082254425 -0.024506824
v -0.04930954 -0.0688872 -0.012783558
v -0.04989319 -0.08149022 0.030521495
v -0.029857025 -0.100123115 0.009707229
v -0.04930954 -0.0688872 -0.012783558
v 0.020993346 0.21902072 0.056523237
v -0.030424498 0.22896957 0.054178942
v -0.0025160217 0.24747837 0.03241651
v -0.0030648804 -0.09518708 0.011602581
v -0.0246817 -0.06857712 0.039557807
v -0.0019604492 -0.071286015 0.033937994
vt 0.39666662 0.5625
vt 0.4074999 0.75
vt 0.4074999 0.5
vt 0.38583332 0
vt 0.39666662 0.125
vt 0.4074999 0
vt 0.60333335 0.90625
vt 0.59250003 0.78125
vt 0.5878408 0.903633
vt 0.41833323 0.875
vt 0.41833323 0.75
vt 0.41833323 0.625
vt 0.5816667 0.625
vt 0.5816667 0.5
vt 0.41833323 0.5
vt 0.5816667 0.5
vt 0.66583335 0.34375
vt 0.6610417 0.2734375
vt 0.6610417 0.2734375
vt 0.64351714 0.2717452
vt 0.41833323 0.25
vt 0.41833323 0.5
vt 0.64351714 0.2717452
vt 0.6610417 0.2734375
vt 0.5816667 0.125
vt 0.41833323 0.25
vt 0.41833323 0.125
vt 0.6610417 0.2734375
vt 0.60333335 0.25
vt 0.5816667 0.125
vt 0.75 0.15625
vt 0.625 0.125
vt 0.6610417 0.2734375
vt 0.60333335 0.25
vt 0.6610417 0.2734375
vt 0.75 0.15625
vt 0.6141667 0.5
vt 0.6141667 0.75
vt 0.59250003 0.78125
vt 0.59250003 0.75
vt 0.5816667 0.625
vt 0.41833323 0.625
vt 0.41833323 0.5
vt 0.4074999 0.5
vt 0.38041666 0.890625
vt 0.375 0.625
vt 0.34375 0.625
vt 0.38583332 0
vt 0.4074999 0
vt 0.36541662 0
vt 0.3125 0.375
vt 0.375 0.125
vt 0.28125 0.1875
vt 0.38041666 0.890625
vt 0.39666662 0.90625
vt 0.38583332 0.75
vt 0.4074999 0.75
vt 0.38583332 0.75
vt 0.39666662 0.78125
vt 0.3125 0.375
vt 0.375 0.625
vt 0.36239582 0.453125
vt 0.36239582 0.453125
vt 0.3918749 0.46875
vt 0.3125 0.375
vt 0.375 0.125
vt 0.39666662 0.125
vt 0.38583332 0
vt 0.27104166 0
vt 0.375 0.125
vt 0.38583332 0
vt 0.59250003 0.75
vt 0.59250003 0.78125
vt 0.6141667 0.75
vt 0.59250003 0.5
vt 0.5816667 0.625
vt 0.60333335 0.625
vt 0.5816667 0.5
vt 0.59250003 0.5
vt 0.66583335 0.34375
vt 0.60333335 0.25
vt 0.59250003 0
vt 0.5816667 0.125
vt 0.60270834 0
vt 0.59250003 0
vt 0.63458335 0
vt 0.63458335 0
vt 0.66583335 0
vt 0.60270834 0
vt 0.59250003 0.5
vt 0.6141667 0.5
vt 0.66583335 0.34375
vt 0.60333335 0.625
vt 0.6141667 0.5
vt 0.59250003 0.5
vt 0.5816667 0.625
vt 0.59250003 0.75
vt 0.60333335 0.625
vt 0.59250003 0.78125
vt 0.60333335 0.90625
vt 0.6141667 0.75
vt 0.36541662 0
vt 0.33416662 0
vt 0.38583332 0
vt 0.27104166 0
vt 0.375 0.125
vt 0.37411457 0.2734375
vt 0.39666662 0.125
vt 0.4074999 0.25
vt 0.375 0.125
vt 0.3125 0.375
vt 0.37411457 0.2734375
vt 0.375 0.625
vt 0.39666662 0.5625
vt 0.36239582 0.453125
vt 0.38583332 0.75
vt 0.4074999 0.75
vt 0.39666662 0.5625
vt 0.375 0.625
vt 0.38583332 0.75
vt 0.39666662 0.5625
vt 0.375 0.625
vt 0.38041666 0.890625
vt 0.38583332 0.75
vt 0.38583332 0.75
vt 0.39666662 0.90625
vt 0.39666662 0.78125
vt 0.375 0.125
vt 0.27104166 0
vt 0.28125 0.1875
vt 0.41833323 0.25
vt 0.4074999 0.25
vt 0.37411457 0.2734375
vt 0.41833323 0.125
vt 0.4074999 0.25
vt 0.41833323 0.25
vt 0.39729157 0
vt 0.4074999 0
vt 0.41833323 0.125
vt 0.39729157 0
vt 0.33416662 0
vt 0.36541662 0
vt 0.4074999 0
vt 0.39729157 0
vt 0.36541662 0
vt 0.375 0.625
vt 0.3125 0.375
vt 0.34375 0.625
vt 0.41833323 0.75
vt 0.4074999 0.75
vt 0.39666662 0.78125
vt 0.41833323 0.875
vt 0.4074999 0.5
vt 0.4074999 0.75
vt 0.41833323 0.75
vt 0.41833323 0.75
vt 0.41833323 0.625
vt 0.4074999 0.5
vt 0.4074999 0.5
vt 0.41833323 0.5
vt 0.3918749 0.46875
vt 0.36239582 0.453125
vt 0.39666662 0.5625
vt 0.3918749 0.46875
vt 0.39666662 0.5625
vt 0.4074999 0.5
vt 0.3918749 0.46875
vt 0.59250003 0.5
vt 0.5816667 0.5
vt 0.5816667 0.625
vt 0.6141667 0.5
vt 0.75 0.15625
vt 0.66583335 0.34375
vt 0.625 0.125
vt 0.75 0.15625
vt 0.63458335 0
vt 0.75 0.15625
vt 0.66583335 0
vt 0.63458335 0
vt 0.59250003 0
vt 0.60270834 0
vt 0.5816667 0.125
vt 0.60270834 0
vt 0.39729157 0
vt 0.41833323 0.125
vt 0.5816667 0.125
vt 0.41833323 0.75
vt 0.59250003 0.78125
vt 0.5816667 0.625
vt 0.41833323 0.625
vt 0.5878408 0.903633
vt 0.58708334 0.984375
vt 0.60333335 0.90625
vt 0.41833323 0.875
vt 0.41291657 0.984375
vt 0.4074999 0.25
vt 0.41833323 0.125
vt 0.39666662 0.125
vt 0.41833323 0.125
vt 0.4074999 0
vt 0.39666662 0.125
vt 0.41833323 0.5
vt 0.41833323 0.25
vt 0.3918749 0.46875
vt 0.41833323 0.25
vt 0.37411457 0.2734375
vt 0.3918749 0.46875
vt 0.41291657 0.984375
vt 0.41833323 0.875
vt 0.39666662 0.90625
vt 0.39666662 0.90625
vt 0.41833323 0.875
vt 0.39666662 0.78125
vt 0.60333335 0.90625
vt 0.75 0.15625
vt 0.6141667 0.75
vt 0.6141667 0.75
vt 0.6141667 0.5
vt 0.60333335 0.625
vt 0.60333335 0.625
vt 0.59250003 0.75
vt 0.6141667 0.75
vt 0.625 0.125
vt 0.63458335 0
vt 0.59250003 0
vt 0.60333335 0.25
vt 0.625 0.125
vt 0.59250003 0
vt 0.3918749 0.46875
vt 0.37411457 0.2734375
vt 0.3125 0.375
vt 0.75 0.15625
vt 0.6610417 0.2734375
vt 0.66583335 0.34375
vn 0.9320282 -0.36229643 -0.008047667
vn 0.9320282 -0.3622964 -0.008047667
vn 0.9320282 -0.3622964 -0.008047667
vn -0.81674826 0.4375941 -0.37607685
vn -0.81674826 0.43759415 -0.37607688
vn -0.81674826 0.43759418 -0.37607685
vn -0.059487846 -0.009672588 -0.9981822
vn 0.11735657 0.0039381725 -0.9930821
vn 0.111685924 0.0034992208 -0.99373746
vn 0.11984591 0.0041309223 -0.9927839
vn 0.11984591 0.0041309223 -0.9927839
vn 0.94654167 -0.039197948 0.32019138
vn 0.94654167 -0.039197948 0.32019135
vn 0.94654167 -0.03919795 0.32019138
vn 0.94654167 -0.039197948 0.32019135
vn 0.11795427 -0.0007709726 0.9930187
vn 0.24627185 0.028955981 0.9687682
vn 0.24627185 0.02895598 0.9687682
vn 0.24627185 0.02895598 0.9687682
vn 0.12102079 -6.6394496E-05 0.99265
vn 0.11418273 -0.0016371598 0.99345845
vn 0.114182726 -0.0016371595 0.99345845
vn -0.9751245 -0.030701902 0.21952134
vn -0.9932202 -0.018884012 0.11470345
vn -0.9740961 -0.031202128 0.2239716
vn -0.97380847 -0.031340152 0.22519974
vn -0.97380847 -0.031340152 0.22519974
vn -0.5279882 0.64108586 0.55698955
vn -0.5279882 0.64108586 0.55698955
vn -0.5279882 0.64108586 0.55698955
vn 0.07668594 -0.69190073 0.71790856
vn 0.07668593 -0.69190073 0.71790856
vn 0.07668593 -0.69190073 0.71790856
vn 0.098503515 -0.69246024 0.7146999
vn 0.098503515 -0.6924602 0.71469986
vn 0.09814543 -0.9951533 0.006108437
vn 0.098145425 -0.9951533 0.006108437
vn 0.09814542 -0.9951533 0.0061084363
vn 0.41229543 0.78719324 -0.4586276
vn 0.41229543 0.78719324 -0.4586277
vn 0.41229546 0.78719324 -0.4586276
vn 0.3215217 -0.85785043 0.40089452
vn 0.3215217 -0.85785043 0.40089452
vn 0.3215217 -0.85785043 0.40089452
vn -0.09898373 0.9847211 -0.14327067
vn -0.09898371 0.9847211 -0.1432707
vn -0.09898371 0.9847211 -0.14327067
vn -0.7662069 0.40385708 -0.4998264
vn -0.7662069 0.40385705 -0.49982637
vn -0.76620686 0.4038571 -0.49982643
vn 0.2934693 0.94083047 0.16945197
vn 0.29346928 0.94083047 0.16945198
vn 0.29346925 0.94083047 0.16945197
vn -0.017864844 0.7209598 -0.6927466
vn -0.017864844 0.7209598 -0.6927466
vn -0.017864846 0.72095984 -0.6927466
vn 0.50404143 0.12841077 -0.85408014
vn 0.5040415 0.12841079 -0.8540801
vn 0.5040415 0.12841079 -0.85408014
vn 0.022484727 0.9633178 0.26741976
vn 0.022484727 0.9633178 0.2674198
vn 0.022484729 0.9633178 0.2674198
vn -0.4361157 0.34409323 0.83150643
vn -0.43611565 0.34409323 0.83150643
vn -0.43611565 0.34409323 0.83150643
vn -0.50494564 0.8631012 0.00928569
vn -0.50494576 0.86310107 0.009285692
vn -0.5049457 0.8631012 0.009285692
vn 0.08519543 0.9443034 -0.31785658
vn 0.085195445 0.9443034 -0.3178566
vn 0.08519546 0.9443034 -0.31785664
vn 0.33646566 -0.09923785 -0.9364522
vn 0.33646566 -0.09923785 -0.9364522
vn 0.3364657 -0.09923787 -0.9364522
vn 0.7719439 0.63251054 -0.06350731
vn 0.77194387 0.63251054 -0.0635073
vn 0.77194387 0.63251054 -0.0635073
vn 0.043706186 0.22732797 0.972837
vn 0.04370619 0.22732797 0.972837
vn 0.04370619 0.22732797 0.972837
vn -0.8227402 0.54865354 0.1485865
vn -0.82274014 0.5486536 0.14858648
vn -0.8227402 0.54865354 0.1485865
vn -0.30501303 0.3974254 -0.8654595
vn -0.305013 0.39742544 -0.8654595
vn -0.305013 0.39742544 -0.8654594
vn 0.04601536 0.29707968 -0.9537433
vn 0.046015356 0.29707968 -0.9537433
vn 0.046015356 0.29707968 -0.9537433
vn 0.074890465 0.00016750213 0.9971917
vn 0.07489047 0.00016750213 0.9971917
vn 0.07489046 0.00016750213 0.9971917
vn 0.8300829 -0.29211566 0.47500607
vn 0.8300829 -0.29211563 0.47500604
vn 0.8300829 -0.29211563 0.47500604
vn 0.7703088 0.63589364 0.047578704
vn 0.7703088 0.63589364 0.047578692
vn 0.7703088 0.63589364 0.0475787
vn 0.20559625 -0.18442298 -0.96110266
vn 0.20559624 -0.18442298 -0.96110266
vn 0.20559622 -0.18442298 -0.96110266
vn 0.11780694 0.69479936 -0.7094895
vn 0.11780695 0.69479936 -0.7094895
vn 0.11780694 0.69479936 -0.7094895
vn 0.12414749 0.70618385 -0.69705945
vn -0.4427122 0.764823 0.46802947
vn -0.44271228 0.764823 0.4680295
vn -0.44271228 0.76482296 0.46802953
vn -0.47076064 0.7356358 0.4870569
vn -0.13478911 0.83341384 0.5359601
vn -0.13478914 0.83341396 0.5359601
vn -0.13478912 0.83341384 0.5359601
vn 0.4698963 0.8551252 0.2189942
vn 0.4698963 0.8551252 0.2189942
vn 0.4698963 0.8551252 0.2189942
vn 0.91879714 0.31472623 -0.23824185
vn 0.91879714 0.3147262 -0.23824179
vn 0.91879714 0.31472623 -0.23824185
vn 0.55127406 0.8330416 0.046244524
vn 0.5512741 0.8330416 0.046244524
vn 0.5512741 0.8330416 0.04624453
vn 0.053276286 0.95164406 -0.30254793
vn 0.05327629 0.95164406 -0.30254793
vn 0.053276297 0.95164406 -0.302548
vn 0.01575243 0.6060369 -0.7952805
vn 0.015752427 0.60603684 -0.7952805
vn 0.01575243 0.60603684 -0.7952805
vn 0.2727968 0.950538 -0.14852457
vn 0.27279678 0.950538 -0.14852457
vn 0.2727968 0.950538 -0.14852457
vn -0.21158765 -0.50887656 0.8344311
vn -0.21158765 -0.50887656 0.8344311
vn -0.21158765 -0.5088765 0.8344311
vn -0.45404774 -0.77052283 0.4473649
vn -0.45404768 -0.77052283 0.44736493
vn -0.45404768 -0.77052283 0.4473649
vn -0.45170695 -0.7856112 -0.42281887
vn -0.45170695 -0.7856112 -0.42281896
vn -0.451707 -0.7856112 -0.42281896
vn 0.19400837 -0.44951624 -0.87194955
vn 0.19400834 -0.4495162 -0.87194955
vn 0.19400835 -0.44951624 -0.87194955
vn -0.24274957 -0.5527074 -0.7972372
vn -0.24274954 -0.5527074 -0.7972372
vn -0.24274957 -0.5527074 -0.7972373
vn -0.09631981 0.9857767 0.13772018
vn -0.09631982 0.9857767 0.1377202
vn -0.096319795 0.9857767 0.13772018
vn 0.19371392 -0.58410907 -0.78822047
vn 0.19371392 -0.58410907 -0.78822047
vn 0.1937139 -0.58410907 -0.78822047
vn 0.1685788 -0.5869694 -0.7918637
vn 0.4897899 -0.8718249 0.005209255
vn 0.4897899 -0.8718249 0.005209255
vn 0.4897899 -0.8718249 0.0052092555
vn 0.776706 -0.5503924 -0.3062612
vn 0.776706 -0.5503924 -0.30626118
vn 0.776706 -0.5503924 -0.3062612
vn 0.24471822 -0.65433955 0.71550876
vn 0.24471824 -0.65433955 0.71550876
vn 0.24471822 -0.65433955 0.7155088
vn 0.5286272 -0.06569966 0.8463078
vn 0.52862716 -0.06569965 0.8463078
vn 0.5286271 -0.06569966 0.8463078
vn 0.5049287 0.11557822 0.8553881
vn 0.5049287 0.11557822 0.8553881
vn 0.50492865 0.115578204 0.855388
vn 0.4147805 0.81465137 0.4053396
vn 0.4147806 0.81465137 0.4053397
vn 0.41478056 0.81465137 0.4053396
vn -0.2933205 -0.64547014 0.7052172
vn -0.2933205 -0.64547026 0.7052172
vn -0.29332054 -0.64547026 0.7052172
vn 0.19196983 -0.8614619 -0.47013944
vn 0.19196986 -0.8614619 -0.47013944
vn 0.19196983 -0.86146176 -0.47013944
vn -0.07620617 -0.95734376 -0.27872124
vn -0.07620617 -0.95734376 -0.27872127
vn -0.07620617 -0.95734376 -0.27872127
vn -0.5034389 0.74563617 -0.43655023
vn -0.5034389 0.7456361 -0.43655026
vn -0.5034389 0.74563617 -0.43655023
vn -0.9438351 -0.04277513 -0.32763645
vn -0.9438351 -0.04277513 -0.32763645
vn -0.9438351 -0.042775135 -0.32763645
vn -0.9438351 -0.04277513 -0.32763645
vn 0.9589953 -0.037633225 -0.28091228
vn 0.9589953 -0.03763322 -0.28091228
vn 0.9589953 -0.037633218 -0.28091225
vn 0.9589953 -0.037633218 -0.28091225
vn -0.3270732 -0.021284478 -0.94475937
vn -0.319749 -0.021992004 -0.94724697
vn -0.44307467 -0.009631338 -0.89643294
vn -0.31834683 -0.022127097 -0.94771606
vn -0.31834683 -0.022127096 -0.94771606
vn -0.8638258 -0.49204937 -0.10813165
vn -0.8638258 -0.49204937 -0.10813163
vn -0.8638258 -0.49204937 -0.10813163
vn -0.8577257 -0.49441695 0.14092036
vn -0.8577256 -0.49441695 0.14092036
vn -0.8577257 -0.49441683 0.14092034
vn 0.0035160556 -0.70214385 0.7120265
vn 0.0035160552 -0.70214385 0.7120265
vn 0.0035160559 -0.7021439 0.7120265
vn -0.13830173 -0.51551044 0.84564865
vn -0.13830173 -0.51551044 0.84564865
vn -0.13830173 -0.5155105 0.84564865
vn -0.23390837 -0.17841752 -0.9557479
vn -0.2339084 -0.17841752 -0.9557479
vn -0.2339084 -0.17841753 -0.9557479
vn -0.36140606 -0.16960612 -0.916853
vn -0.36140603 -0.1696061 -0.916853
vn -0.36140612 -0.16960612 -0.916853
vn -0.0934394 -0.95582134 -0.27870175
vn -0.09343939 -0.95582134 -0.27870172
vn -0.093439415 -0.95582134 -0.27870175
vn 0.6206925 -0.7838848 0.016292019
vn 0.62069255 -0.78388476 0.016292019
vn 0.6206925 -0.7838848 0.016292017
vn 0.84327924 -0.27893797 -0.45942757
vn 0.8432793 -0.27893797 -0.45942754
vn 0.84327924 -0.27893797 -0.4594275
vn -0.7269422 -0.637137 -0.25614762
vn -0.7269422 -0.637137 -0.25614762
vn -0.7269421 -0.637137 -0.25614765
vn -0.7667595 -0.6135171 -0.18888263
vn -0.7667595 -0.6135171 -0.18888263
vn -0.7667594 -0.61351705 -0.18888262
vn 0.10089616 0.69028395 0.71646917
vn 0.100896165 0.6902839 0.7164692
vn 0.10089617 0.6902839 0.7164692
vn 0.09798565 -0.6818915 0.7248606
vn 0.09798564 -0.6818914 0.7248606
vn 0.09798564 -0.6818915 0.7248606
g fxmesh_bone01_0
f 3/3/3 2/2/2 1/1/1
f 6/6/6 5/5/5 4/4/4
f 9/9/9 8/8/8 7/7/7
f 9/9/9 10/10/10 8/8/8
f 10/10/10 11/11/11 8/8/8
f 14/14/14 13/13/13 12/12/12
f 15/15/15 14/14/14 12/12/12
f 18/18/18 17/17/17 16/16/16
f 20/20/20 19/19/19 16/16/16
f 21/21/21 20/20/20 16/16/16
f 22/22/22 21/21/21 16/16/16
f 25/25/25 24/24/24 23/23/23
f 25/25/25 23/23/23 26/26/26
f 27/27/27 25/25/25 26/26/26
f 30/30/30 29/29/29 28/28/28
f 33/33/33 32/32/32 31/31/31
f 35/35/35 34/34/34 32/32/32
f 38/38/38 37/37/37 36/36/36
f 41/41/41 40/40/40 39/39/39
f 44/44/44 43/43/43 42/42/42
f 47/47/47 46/46/46 45/45/45
f 50/50/50 49/49/49 48/48/48
f 53/53/53 52/52/52 51/51/51
f 56/56/56 55/55/55 54/54/54
f 59/59/59 58/58/58 57/57/57
f 62/62/62 61/61/61 60/60/60
f 65/65/65 64/64/64 63/63/63
f 68/68/68 67/67/67 66/66/66
f 71/71/71 70/70/70 69/69/69
f 74/74/74 73/73/73 72/72/72
f 77/77/77 76/76/76 75/75/75
f 80/80/80 79/79/79 78/78/78
f 83/83/83 82/82/82 81/81/81
f 86/86/86 85/85/85 84/84/84
f 89/89/89 88/88/88 87/87/87
f 92/92/92 91/91/91 90/90/90
f 95/95/95 94/94/94 93/93/93
f 98/98/98 97/97/97 96/96/96
f 101/101/101 100/100/100 99/99/99
f 104/104/104 103/103/103 102/102/102
f 104/104/104 105/105/105 103/103/103
f 108/108/108 107/107/107 106/106/106
f 109/109/109 107/107/107 108/108/108
f 112/112/112 111/111/111 110/110/110
f 115/115/115 114/114/114 113/113/113
f 118/118/118 117/117/117 116/116/116
f 121/121/121 120/120/120 119/119/119
f 124/124/124 123/123/123 122/122/122
f 127/127/127 126/126/126 125/125/125
f 130/130/130 129/129/129 128/128/128
f 133/133/133 132/132/132 131/131/131
f 136/136/136 135/135/135 134/134/134
f 139/139/139 138/138/138 137/137/137
f 142/142/142 141/141/141 140/140/140
f 145/145/145 144/144/144 143/143/143
f 148/148/148 147/147/147 146/146/146
f 151/151/151 150/150/150 149/149/149
f 151/151/151 149/149/149 152/152/152
f 155/155/155 154/154/154 153/153/153
f 158/158/158 157/157/157 156/156/156
f 161/161/161 160/160/160 159/159/159
f 164/164/164 163/163/163 162/162/162
f 167/167/167 166/166/166 165/165/165
f 170/170/170 169/169/169 168/168/168
f 173/173/173 172/172/172 171/171/171
f 176/176/176 175/175/175 174/174/174
f 179/179/179 178/178/178 177/177/177
f 182/182/182 181/181/181 180/180/180
f 185/185/185 184/184/184 183/183/183
f 186/186/186 185/185/185 183/183/183
f 189/189/189 188/188/188 187/187/187
f 190/190/190 189/189/189 187/187/187
f 193/193/193 192/192/192 191/191/191
f 191/191/191 192/192/192 194/194/194
f 192/192/192 195/195/195 194/194/194
f 198/198/198 197/197/197 196/196/196
f 201/201/201 200/200/200 199/199/199
f 204/204/204 203/203/203 202/202/202
f 207/207/207 206/206/206 205/205/205
f 210/210/210 209/209/209 208/208/208
f 213/213/213 212/212/212 211/211/211
f 216/216/216 215/215/215 214/214/214
f 219/219/219 218/218/218 217/217/217
f 222/222/222 221/221/221 220/220/220
f 225/225/225 224/224/224 223/223/223
f 228/228/228 227/227/227 226/226/226
f 231/231/231 230/230/230 229/229/229
f 234/234/234 233/233/233 232/232/232
