g fxmesh_jellyGlob
v 0.596189 -0.016048146 -0.115371905
v 0.5943111 -0.11993654 0.3098298
v 0.52619565 0.2031591 0.018566083
v 0.596189 -0.016048146 -0.115371905
v 0.27628928 0.30560037 -0.31697178
v 0.20286493 -0.25937006 -0.4758304
v 0.596189 -0.016048146 -0.115371905
v 0.52619565 0.2031591 0.018566083
v 0.27628928 0.30560037 -0.31697178
v 0.43587512 -0.34601694 0.1575413
v 0.26202413 -0.28809416 0.31651223
v 0.5943111 -0.11993654 0.3098298
v 0.4932574 0.10030485 0.3153704
v 0.3361044 0.18106575 0.33378336
v 0.52619565 0.2031591 0.018566083
v 0.13465482 -0.1810027 0.473733
v -0.17838566 -0.09553254 0.42792705
v 0.033068888 0.07066384 0.5253042
v -0.41202536 0.17730719 0.1544079
v -0.17838566 -0.09553254 0.42792705
v -0.39127144 -0.19741325 0.11504054
v 0.048962496 0.23704998 0.36521006
v -0.41202536 0.17730719 0.1544079
v -0.09348856 0.35024226 0.20333399
v -0.39149752 -0.029738307 -0.31104848
v 0.028191524 0.18490821 -0.3771094
v -0.343923 0.2369966 -0.23627432
v -0.39149752 -0.029738307 -0.31104848
v -0.39127144 -0.19741325 0.11504054
v -0.14560734 -0.251464 -0.3750008
v 0.13465482 -0.1810027 0.473733
v 0.26202413 -0.28809416 0.31651223
v -0.063163154 -0.34640524 0.32397473
v 0.048962496 0.23704998 0.36521006
v -0.09348856 0.35024226 0.20333399
v 0.3361044 0.18106575 0.33378336
v 0.09336155 0.4389588 -0.06809392
v 0.028191524 0.18490821 -0.3771094
v 0.27628928 0.30560037 -0.31697178
v -0.1168699 0.3005005 -0.31576696
v 0.20286493 -0.25937006 -0.4758304
v -0.15474953 -0.4781522 -0.12616917
v 0.24963565 -0.33437255 -0.18041784
v -0.026236879 -0.4636148 0.09982463
v 0.43587512 -0.34601694 0.1575413
v 0.24963565 -0.33437255 -0.18041784
v -0.15474953 -0.4781522 -0.12616917
v -0.026236879 -0.4636148 0.09982463
v 0.24963565 -0.33437255 -0.18041784
v 0.09336155 0.4389588 -0.06809392
v -0.18525828 0.40210083 -0.059300736
v -0.1168699 0.3005005 -0.31576696
v 0.27628928 0.30560037 -0.31697178
v 0.09336155 0.4389588 -0.06809392
v -0.1168699 0.3005005 -0.31576696
v -0.09348856 0.35024226 0.20333399
v -0.18525828 0.40210083 -0.059300736
v 0.09336155 0.4389588 -0.06809392
v 0.26202413 -0.28809416 0.31651223
v 0.43587512 -0.34601694 0.1575413
v -0.026236879 -0.4636148 0.09982463
v -0.063163154 -0.34640524 0.32397473
v -0.39127144 -0.19741325 0.11504054
v -0.026236879 -0.4636148 0.09982463
v -0.15474953 -0.4781522 -0.12616917
v -0.063163154 -0.34640524 0.32397473
v -0.15474953 -0.4781522 -0.12616917
v 0.20286493 -0.25937006 -0.4758304
v -0.14560734 -0.251464 -0.3750008
v -0.39127144 -0.19741325 0.11504054
v -0.15474953 -0.4781522 -0.12616917
v -0.14560734 -0.251464 -0.3750008
v -0.1168699 0.3005005 -0.31576696
v -0.18525828 0.40210083 -0.059300736
v -0.343923 0.2369966 -0.23627432
v 0.028191524 0.18490821 -0.3771094
v -0.1168699 0.3005005 -0.31576696
v -0.343923 0.2369966 -0.23627432
v 0.028191524 0.18490821 -0.3771094
v -0.39149752 -0.029738307 -0.31104848
v -0.14560734 -0.251464 -0.3750008
v -0.14560734 -0.251464 -0.3750008
v 0.20286493 -0.25937006 -0.4758304
v 0.028191524 0.18490821 -0.3771094
v -0.41202536 0.17730719 0.1544079
v -0.18525828 0.40210083 -0.059300736
v -0.09348856 0.35024226 0.20333399
v -0.17838566 -0.09553254 0.42792705
v 0.13465482 -0.1810027 0.473733
v -0.063163154 -0.34640524 0.32397473
v -0.17838566 -0.09553254 0.42792705
v -0.063163154 -0.34640524 0.32397473
v -0.39127144 -0.19741325 0.11504054
v -0.41202536 0.17730719 0.1544079
v 0.048962496 0.23704998 0.36521006
v 0.033068888 0.07066384 0.5253042
v -0.17838566 -0.09553254 0.42792705
v -0.41202536 0.17730719 0.1544079
v 0.033068888 0.07066384 0.5253042
v -0.343923 0.2369966 -0.23627432
v -0.18525828 0.40210083 -0.059300736
v -0.41202536 0.17730719 0.1544079
v -0.39149752 -0.029738307 -0.31104848
v -0.343923 0.2369966 -0.23627432
v -0.41202536 0.17730719 0.1544079
v -0.39149752 -0.029738307 -0.31104848
v -0.41202536 0.17730719 0.1544079
v -0.39127144 -0.19741325 0.11504054
v 0.3361044 0.18106575 0.33378336
v 0.09336155 0.4389588 -0.06809392
v 0.52619565 0.2031591 0.018566083
v 0.13465482 -0.1810027 0.473733
v 0.4932574 0.10030485 0.3153704
v 0.5943111 -0.11993654 0.3098298
v 0.26202413 -0.28809416 0.31651223
v 0.13465482 -0.1810027 0.473733
v 0.5943111 -0.11993654 0.3098298
v 0.033068888 0.07066384 0.5253042
v 0.048962496 0.23704998 0.36521006
v 0.3361044 0.18106575 0.33378336
v 0.3361044 0.18106575 0.33378336
v 0.4932574 0.10030485 0.3153704
v 0.13465482 -0.1810027 0.473733
v 0.033068888 0.07066384 0.5253042
v 0.3361044 0.18106575 0.33378336
v 0.13465482 -0.1810027 0.473733
v 0.24963565 -0.33437255 -0.18041784
v 0.43587512 -0.34601694 0.1575413
v 0.596189 -0.016048146 -0.115371905
v 0.20286493 -0.25937006 -0.4758304
v 0.24963565 -0.33437255 -0.18041784
v 0.596189 -0.016048146 -0.115371905
v 0.52619565 0.2031591 0.018566083
v 0.09336155 0.4389588 -0.06809392
v 0.27628928 0.30560037 -0.31697178
v 0.27628928 0.30560037 -0.31697178
v 0.028191524 0.18490821 -0.3771094
v 0.20286493 -0.25937006 -0.4758304
v 0.5943111 -0.11993654 0.3098298
v 0.4932574 0.10030485 0.3153704
v 0.52619565 0.2031591 0.018566083
v 0.596189 -0.016048146 -0.115371905
v 0.43587512 -0.34601694 0.1575413
v 0.5943111 -0.11993654 0.3098298
vt 0.6818182 0.6666667
vt 0.8636364 0.6666667
vt 0.8636364 0.5
vt 0.6818182 0.6666667
vt 0.72727275 0.4166667
vt 0.54545456 0.5833334
vt 0.6818182 0.6666667
vt 0.8636364 0.5
vt 0.72727275 0.4166667
vt 0.09090909 0.75
vt 0.13636364 0.6666667
vt 0.045454547 0.6666667
vt 0.90909094 0.5833334
vt 0.9545455 0.5
vt 0.8636364 0.5
vt 0.18181819 0.5833334
vt 0.22727273 0.5
vt 0.13636364 0.5
vt 0.22727273 0.33333334
vt 0.22727273 0.5
vt 0.3181818 0.5
vt 0.09090909 0.4166667
vt 0.22727273 0.33333334
vt 0.13636364 0.33333334
vt 0.45454547 0.4166667
vt 0.6363636 0.4166667
vt 0.5 0.33333334
vt 0.45454547 0.4166667
vt 0.3181818 0.5
vt 0.5 0.5
vt 0.18181819 0.5833334
vt 0.22727273 0.6666667
vt 0.27272728 0.5833334
vt 1 0.4166667
vt 0.9545455 0.33333334
vt 0.9545455 0.5
vt 0.77272725 0.33333334
vt 0.6363636 0.4166667
vt 0.72727275 0.4166667
vt 0.6818182 0.33333334
vt 0.54545456 0.5833334
vt 0.45454547 0.5833334
vt 0.5 0.6666667
vt 0.40909094 0.6666667
vt 0.45454547 0.75
vt 0.5 0.6666667
vt 0.45454547 0.5833334
vt 0.40909094 0.6666667
vt 0.5 0.6666667
vt 0.77272725 0.33333334
vt 0.72727275 0.25
vt 0.6818182 0.33333334
vt 0.72727275 0.4166667
vt 0.77272725 0.33333334
vt 0.6818182 0.33333334
vt 0.9545455 0.33333334
vt 0.90909094 0.25
vt 0.77272725 0.33333334
vt 0.22727273 0.6666667
vt 0.27272728 0.75
vt 0.40909094 0.6666667
vt 0.27272728 0.5833334
vt 0.3181818 0.5
vt 0.40909094 0.6666667
vt 0.45454547 0.5833334
vt 0.27272728 0.5833334
vt 0.45454547 0.5833334
vt 0.54545456 0.5833334
vt 0.5 0.5
vt 0.3181818 0.5
vt 0.45454547 0.5833334
vt 0.5 0.5
vt 0.5909091 0.33333334
vt 0.54545456 0.25
vt 0.5 0.33333334
vt 0.6363636 0.4166667
vt 0.5909091 0.33333334
vt 0.5 0.33333334
vt 0.6363636 0.4166667
vt 0.45454547 0.4166667
vt 0.5 0.5
vt 0.5 0.5
vt 0.54545456 0.5833334
vt 0.6363636 0.4166667
vt 0.22727273 0.33333334
vt 0.18181819 0.25
vt 0.13636364 0.33333334
vt 0.22727273 0.5
vt 0.18181819 0.5833334
vt 0.27272728 0.5833334
vt 0.22727273 0.5
vt 0.27272728 0.5833334
vt 0.3181818 0.5
vt 0.22727273 0.33333334
vt 0.09090909 0.4166667
vt 0.13636364 0.5
vt 0.22727273 0.5
vt 0.22727273 0.33333334
vt 0.13636364 0.5
vt 0.40909094 0.33333334
vt 0.36363637 0.25
vt 0.22727273 0.33333334
vt 0.45454547 0.4166667
vt 0.40909094 0.33333334
vt 0.22727273 0.33333334
vt 0.45454547 0.4166667
vt 0.22727273 0.33333334
vt 0.3181818 0.5
vt 0.9545455 0.5
vt 0.77272725 0.33333334
vt 0.8636364 0.5
vt 0.18181819 0.5833334
vt 0 0.5833334
vt 0.045454547 0.6666667
vt 0.13636364 0.6666667
vt 0.18181819 0.5833334
vt 0.045454547 0.6666667
vt 0.13636364 0.5
vt 0.09090909 0.4166667
vt 0.045454547 0.5
vt 0.045454547 0.5
vt 0 0.5833334
vt 0.18181819 0.5833334
vt 0.13636364 0.5
vt 0.045454547 0.5
vt 0.18181819 0.5833334
vt 0.5909091 0.6666667
vt 0.6363636 0.75
vt 0.6818182 0.6666667
vt 0.54545456 0.5833334
vt 0.5909091 0.6666667
vt 0.6818182 0.6666667
vt 0.8636364 0.5
vt 0.77272725 0.33333334
vt 0.72727275 0.4166667
vt 0.72727275 0.4166667
vt 0.6363636 0.4166667
vt 0.54545456 0.5833334
vt 0.8636364 0.6666667
vt 0.90909094 0.5833334
vt 0.8636364 0.5
vt 0.77272725 0.6666667
vt 0.8181818 0.75
vt 0.8636364 0.6666667
vn 0.96179074 0.26495272 0.068983026
vn 0.96179074 0.26495275 0.06898303
vn 0.96179074 0.26495275 0.068983026
vn 0.62237895 0.13585842 -0.7708352
vn 0.62237895 0.13585845 -0.7708352
vn 0.62237895 0.13585843 -0.7708352
vn 0.761708 0.4971164 -0.41554326
vn 0.761708 0.49711645 -0.41554323
vn 0.7617081 0.4971164 -0.4155432
vn 0.35748586 -0.6810124 0.6390821
vn 0.35748586 -0.68101233 0.6390822
vn 0.35748586 -0.68101233 0.63908213
vn 0.46136397 0.8212142 0.3357832
vn 0.461364 0.8212142 0.33578318
vn 0.46136397 0.8212142 0.3357832
vn -0.2129429 -0.27790385 0.9367096
vn -0.2129429 -0.2779039 0.9367096
vn -0.21294291 -0.27790394 0.9367096
vn -0.80576444 -0.105844826 0.5827012
vn -0.80576444 -0.10584484 0.5827011
vn -0.8057644 -0.10584484 0.58270127
vn -0.40674448 0.54092467 0.736179
vn -0.40674448 0.54092467 0.736179
vn -0.40674445 0.54092467 0.73617893
vn -0.29906917 0.30665335 -0.9036157
vn -0.2990692 0.30665338 -0.9036157
vn -0.29906917 0.30665332 -0.9036157
vn -0.68272454 -0.68004733 -0.2672505
vn -0.68272454 -0.68004733 -0.26725054
vn -0.68272454 -0.68004733 -0.26725054
vn 0.15021905 -0.75624186 0.63681436
vn 0.15021905 -0.7562419 0.6368143
vn 0.15021905 -0.7562419 0.6368143
vn 0.21779029 0.87942874 0.42328772
vn 0.2177903 0.87942874 0.42328772
vn 0.21779026 0.87942874 0.4232877
vn 0.21335159 0.87572926 0.4331042
vn -0.0086900545 0.4602135 -0.88776577
vn -0.0086900545 0.4602135 -0.88776577
vn -0.0086900545 0.4602135 -0.8877657
vn 0.28841725 -0.9161771 -0.2782716
vn 0.2884173 -0.9161771 -0.2782716
vn 0.2884173 -0.9161771 -0.2782716
vn 0.26349285 -0.948121 -0.17787066
vn 0.2634928 -0.948121 -0.17787063
vn 0.26349285 -0.948121 -0.17787066
vn 0.31818315 -0.94034666 -0.12044776
vn 0.31818315 -0.94034666 -0.12044776
vn 0.31818315 -0.94034666 -0.12044776
vn -0.13271058 0.90885556 -0.39543563
vn -0.13271059 0.90885556 -0.39543563
vn -0.13271058 0.90885556 -0.3954356
vn -0.012850998 0.8773988 -0.47958973
vn -0.012851 0.87739867 -0.47958976
vn -0.012850999 0.87739867 -0.47958976
vn -0.12032946 0.9650978 0.23260906
vn -0.12032946 0.9650978 0.23260906
vn -0.12032946 0.9650978 0.23260906
vn 0.15803468 -0.85954505 0.48601156
vn 0.15803468 -0.85954505 0.48601153
vn 0.15803468 -0.85954505 0.48601153
vn 0.16562627 -0.8624543 0.47826827
vn -0.5407522 -0.7618964 0.35651225
vn -0.5407522 -0.7618964 0.35651225
vn -0.5407522 -0.7618964 0.3565123
vn -0.55091447 -0.7733806 0.31364882
vn -0.20811701 -0.7192284 -0.6628709
vn -0.20811704 -0.7192284 -0.66287094
vn -0.20811701 -0.7192284 -0.66287094
vn -0.8420198 -0.38301727 -0.37986907
vn -0.8420198 -0.38301727 -0.37986907
vn -0.8420198 -0.38301724 -0.37986907
vn -0.37899837 0.82129437 -0.42642203
vn -0.3789983 0.82129437 -0.42642203
vn -0.37899837 0.82129437 -0.42642203
vn -0.34549865 0.06328612 -0.9362828
vn -0.3454986 0.06328612 -0.9362828
vn -0.34549862 0.06328612 -0.9362828
vn -0.19049984 0.07114157 -0.97910607
vn -0.19049987 0.07114158 -0.97910607
vn -0.19049986 0.07114158 -0.97910607
vn -0.27423117 0.104601726 -0.955958
vn -0.27423117 0.10460173 -0.955958
vn -0.27423117 0.104601726 -0.955958
vn -0.4890281 0.80731857 0.3302851
vn -0.4890281 0.80731857 0.3302851
vn -0.48902804 0.80731857 0.33028507
vn -0.25151756 -0.46682718 0.84782743
vn -0.25151756 -0.4668272 0.84782743
vn -0.25151756 -0.46682718 0.84782743
vn -0.61376685 -0.52588797 0.58883965
vn -0.61376685 -0.525888 0.5888397
vn -0.6137668 -0.52588797 0.58883965
vn -0.38160765 0.65955037 0.647587
vn -0.38160765 0.65955037 0.647587
vn -0.38160768 0.65955025 0.64758706
vn -0.5741823 0.2796981 0.76946974
vn -0.57418233 0.27969813 0.76946974
vn -0.57418233 0.27969813 0.76946974
vn -0.71185946 0.70212054 -0.016817138
vn -0.71185946 0.7021206 -0.01681714
vn -0.71185946 0.7021206 -0.01681714
vn -0.96792865 0.21090515 -0.13650349
vn -0.96792865 0.21090515 -0.13650349
vn -0.96792865 0.21090515 -0.13650349
vn -0.9983783 -0.053153444 -0.020387214
vn -0.9983783 -0.05315345 -0.020387216
vn -0.9983783 -0.05315344 -0.020387212
vn 0.4074672 0.8604168 0.30602822
vn 0.40746722 0.8604168 0.30602825
vn 0.4074672 0.8604168 0.30602822
vn 0.31883296 0.12264694 0.93984216
vn 0.31883293 0.12264693 0.93984216
vn 0.318833 0.12264693 0.93984216
vn 0.33353633 -0.6312575 0.7001909
vn 0.33353642 -0.6312576 0.7001909
vn 0.3335364 -0.6312576 0.7001909
vn 0.20840287 0.66771674 0.71464866
vn 0.2084029 0.66771674 0.71464866
vn 0.2084029 0.6677167 0.71464866
vn 0.23177011 0.235833 0.9437507
vn 0.23177013 0.235833 0.9437507
vn 0.23177011 0.235833 0.9437507
vn 0.52415496 0.03722972 0.8508087
vn 0.524155 0.03722972 0.8508087
vn 0.524155 0.037229717 0.8508087
vn 0.6621136 -0.64175487 -0.3869836
vn 0.6621136 -0.64175487 -0.38698354
vn 0.6621136 -0.64175487 -0.38698354
vn 0.677397 -0.6802615 -0.27995977
vn 0.67739713 -0.6802615 -0.27995977
vn 0.6773971 -0.68026155 -0.27995977
vn 0.49158144 0.8648266 -0.10209066
vn 0.49158144 0.8648266 -0.10209067
vn 0.4915814 0.8648267 -0.10209068
vn 0.10829307 0.25602394 -0.9605854
vn 0.10829309 0.2560239 -0.9605854
vn 0.10829308 0.25602388 -0.9605854
vn 0.8852583 0.40022364 0.23693588
vn 0.8852583 0.40022367 0.23693591
vn 0.8852583 0.40022373 0.23693591
vn 0.8495014 -0.5133636 -0.121676885
vn 0.8495014 -0.5133636 -0.1216769
vn 0.8495013 -0.5133636 -0.1216769
g fxmesh_jellyGlob_0
f 3/3/3 2/2/2 1/1/1
f 6/6/6 5/5/5 4/4/4
f 9/9/9 8/8/8 7/7/7
f 12/12/12 11/11/11 10/10/10
f 15/15/15 14/14/14 13/13/13
f 18/18/18 17/17/17 16/16/16
f 21/21/21 20/20/20 19/19/19
f 24/24/24 23/23/23 22/22/22
f 27/27/27 26/26/26 25/25/25
f 30/30/30 29/29/29 28/28/28
f 33/33/33 32/32/32 31/31/31
f 36/36/36 35/35/35 34/34/34
f 36/36/36 37/37/37 35/35/35
f 40/40/40 39/39/39 38/38/38
f 43/43/43 42/42/42 41/41/41
f 46/46/46 45/45/45 44/44/44
f 49/49/49 48/48/48 47/47/47
f 52/52/52 51/51/51 50/50/50
f 55/55/55 54/54/54 53/53/53
f 58/58/58 57/57/57 56/56/56
f 61/61/61 60/60/60 59/59/59
f 62/62/62 61/61/61 59/59/59
f 65/65/65 64/64/64 63/63/63
f 63/63/63 64/64/64 66/66/66
f 69/69/69 68/68/68 67/67/67
f 72/72/72 71/71/71 70/70/70
f 75/75/75 74/74/74 73/73/73
f 78/78/78 77/77/77 76/76/76
f 81/81/81 80/80/80 79/79/79
f 84/84/84 83/83/83 82/82/82
f 87/87/87 86/86/86 85/85/85
f 90/90/90 89/89/89 88/88/88
f 93/93/93 92/92/92 91/91/91
f 96/96/96 95/95/95 94/94/94
f 99/99/99 98/98/98 97/97/97
f 102/102/102 101/101/101 100/100/100
f 105/105/105 104/104/104 103/103/103
f 108/108/108 107/107/107 106/106/106
f 111/111/111 110/110/110 109/109/109
f 114/114/114 113/113/113 112/112/112
f 117/117/117 116/116/116 115/115/115
f 120/120/120 119/119/119 118/118/118
f 123/123/123 122/122/122 121/121/121
f 126/126/126 125/125/125 124/124/124
f 129/129/129 128/128/128 127/127/127
f 132/132/132 131/131/131 130/130/130
f 135/135/135 134/134/134 133/133/133
f 138/138/138 137/137/137 136/136/136
f 141/141/141 140/140/140 139/139/139
f 144/144/144 143/143/143 142/142/142
