g generatorShard
v -0.12104243 -0.8559956 -0.06555641
v -0.121329784 -0.35064012 -0.3959118
v -0.41315335 -0.37106854 -0.1494906
v 0.00032651424 0.3186391 -0.44154924
v -0.01495564 0.8559957 -0.024098694
v -0.20884293 0.34601635 -0.32548338
v -0.121329784 -0.35064012 -0.3959118
v -0.12104243 -0.8559956 -0.06555641
v 0.28420854 -0.3745952 -0.4215649
v -0.17940193 -0.4749087 0.36728078
v -0.12104243 -0.8559956 -0.06555641
v -0.36589628 -0.42765164 0.1449452
v -0.12104243 -0.8559956 -0.06555641
v -0.17940193 -0.4749087 0.36728078
v 0.14115727 -0.50304353 0.3660007
v -0.14309049 0.19713968 0.44154936
v -0.15555137 0.4564919 0.29183668
v 0.16315311 0.27475196 0.280891
v -0.01495564 0.8559957 -0.024098694
v -0.36589628 -0.42765164 0.1449452
v -0.12104243 -0.8559956 -0.06555641
v -0.41315335 -0.37106854 -0.1494906
v 0.28420854 -0.3745952 -0.4215649
v -0.12104243 -0.8559956 -0.06555641
v 0.14358675 -0.67347205 -0.05403602
v -0.01495564 0.8559957 -0.024098694
v 0.18812698 0.41448563 -0.17430776
v 0.34228063 0.40406233 0.0084248185
v 0.16315311 0.27475196 0.280891
v -0.01495564 0.8559957 -0.024098694
v 0.32477802 0.33426088 0.15735382
v -0.3915754 0.333216 -0.10437566
v -0.3406611 0.16140288 0.0502221
v -0.41315335 -0.37106854 -0.1494906
v -0.33136123 0.07600582 -0.31670594
v -0.121329784 -0.35064012 -0.3959118
v -0.121329784 -0.35064012 -0.3959118
v 0.00032651424 0.3186391 -0.44154924
v -0.33136123 0.07600582 -0.31670594
v -0.20884293 0.34601635 -0.32548338
v -0.121329784 -0.35064012 -0.3959118
v 0.28420854 -0.3745952 -0.4215649
v 0.00032651424 0.3186391 -0.44154924
v 0.28420854 -0.3745952 -0.4215649
v 0.18812698 0.41448563 -0.17430776
v 0.00032651424 0.3186391 -0.44154924
v 0.28420854 -0.3745952 -0.4215649
v 0.4131532 -0.39217618 -0.015347421
v 0.18812698 0.41448563 -0.17430776
v 0.34228063 0.40406233 0.0084248185
v 0.18812698 0.41448563 -0.17430776
v 0.4131532 -0.39217618 -0.015347421
v -0.36589628 -0.42765164 0.1449452
v -0.41315335 -0.37106854 -0.1494906
v -0.34413546 0.18031627 0.24356073
v -0.36589628 -0.42765164 0.1449452
v -0.34413546 0.18031627 0.24356073
v -0.17940193 -0.4749087 0.36728078
v -0.17940193 -0.4749087 0.36728078
v -0.14309049 0.19713968 0.44154936
v 0.17514372 -0.22208726 0.4019987
v 0.14115727 -0.50304353 0.3660007
v -0.14309049 0.19713968 0.44154936
v 0.16315311 0.27475196 0.280891
v 0.17514372 -0.22208726 0.4019987
v 0.17514372 -0.22208726 0.4019987
v 0.16315311 0.27475196 0.280891
v 0.4131532 -0.39217618 -0.015347421
v 0.14115727 -0.50304353 0.3660007
v 0.17514372 -0.22208726 0.4019987
v 0.16315311 0.27475196 0.280891
v 0.32477802 0.33426088 0.15735382
v 0.4131532 -0.39217618 -0.015347421
v -0.33136123 0.07600582 -0.31670594
v -0.20884293 0.34601635 -0.32548338
v -0.3915754 0.333216 -0.10437566
v -0.01495564 0.8559957 -0.024098694
v -0.34413546 0.18031627 0.24356073
v -0.14309049 0.19713968 0.44154936
v -0.17940193 -0.4749087 0.36728078
v -0.3406611 0.16140288 0.0502221
v -0.29019088 0.39578134 0.16093272
v -0.34413546 0.18031627 0.24356073
v -0.34413546 0.18031627 0.24356073
v -0.41315335 -0.37106854 -0.1494906
v -0.3406611 0.16140288 0.0502221
v 0.14358675 -0.67347205 -0.05403602
v -0.12104243 -0.8559956 -0.06555641
v 0.14115727 -0.50304353 0.3660007
v -0.29019088 0.39578134 0.16093272
v -0.15555137 0.4564919 0.29183668
v -0.34413546 0.18031627 0.24356073
v -0.15555137 0.4564919 0.29183668
v -0.14309049 0.19713968 0.44154936
v -0.34413546 0.18031627 0.24356073
v -0.01495564 0.8559957 -0.024098694
v 0.00032651424 0.3186391 -0.44154924
v 0.18812698 0.41448563 -0.17430776
v -0.29019088 0.39578134 0.16093272
v -0.3406611 0.16140288 0.0502221
v -0.3915754 0.333216 -0.10437566
v -0.01495564 0.8559957 -0.024098694
v -0.29019088 0.39578134 0.16093272
v 0.32477802 0.33426088 0.15735382
v -0.01495564 0.8559957 -0.024098694
v 0.34228063 0.40406233 0.0084248185
v 0.34228063 0.40406233 0.0084248185
v 0.4131532 -0.39217618 -0.015347421
v 0.32477802 0.33426088 0.15735382
v 0.4131532 -0.39217618 -0.015347421
v 0.28420854 -0.3745952 -0.4215649
v 0.14358675 -0.67347205 -0.05403602
v 0.14115727 -0.50304353 0.3660007
v -0.01495564 0.8559957 -0.024098694
v -0.15555137 0.4564919 0.29183668
v -0.29019088 0.39578134 0.16093272
vt 0.96656984 0.10671874
vt 0.96284354 0.075044915
vt 0.9544593 0.08436075
vt 0.9479382 0.03591843
vt 0.91253805 0.01449202
vt 0.939554 0.039644763
vt 0.96284354 0.075044915
vt 0.96656984 0.10671874
vt 0.96750146 0.07318175
vt 0.93489605 0.09740291
vt 0.96656984 0.10671874
vt 0.9414171 0.09181341
vt 0.96656984 0.10671874
vt 0.93489605 0.09740291
vt 0.9442119 0.093676575
vt 0.91253805 0.064797506
vt 0.91253805 0.047097426
vt 0.92278546 0.05175534
vt 0.91253805 0.01449202
vt 0.9414171 0.09181341
vt 0.96656984 0.10671874
vt 0.9544593 0.08436075
vt 0.96750146 0.07318175
vt 0.96656984 0.10671874
vt 0.961912 0.09460816
vt 0.91253805 0.01449202
vt 0.9321013 0.037781596
vt 0.92837495 0.03871318
vt 0.92278546 0.05175534
vt 0.91253805 0.01449202
vt 0.92464864 0.046165843
vt 0.9330329 0.04523426
vt 0.9255802 0.05455009
vt 0.9544593 0.08436075
vt 0.94048554 0.046165843
vt 0.96284354 0.075044915
vt 0.96284354 0.075044915
vt 0.9479382 0.03591843
vt 0.94048554 0.046165843
vt 0.939554 0.039644763
vt 0.96284354 0.075044915
vt 0.96750146 0.07318175
vt 0.9479382 0.03591843
vt 0.96750146 0.07318175
vt 0.9321013 0.037781596
vt 0.9479382 0.03591843
vt 0.96750146 0.07318175
vt 0.9535277 0.07877125
vt 0.9321013 0.037781596
vt 0.92837495 0.03871318
vt 0.9321013 0.037781596
vt 0.9535277 0.07877125
vt 0.9414171 0.09181341
vt 0.9544593 0.08436075
vt 0.92278546 0.06572908
vt 0.9414171 0.09181341
vt 0.92278546 0.06572908
vt 0.93489605 0.09740291
vt 0.93489605 0.09740291
vt 0.91253805 0.064797506
vt 0.93489605 0.07970283
vt 0.9442119 0.093676575
vt 0.91253805 0.064797506
vt 0.92278546 0.05175534
vt 0.93489605 0.07970283
vt 0.93489605 0.07970283
vt 0.92278546 0.05175534
vt 0.9535277 0.07877125
vt 0.9442119 0.093676575
vt 0.93489605 0.07970283
vt 0.92278546 0.05175534
vt 0.92464864 0.046165843
vt 0.9535277 0.07877125
vt 0.94048554 0.046165843
vt 0.939554 0.039644763
vt 0.9330329 0.04523426
vt 0.91253805 0.01449202
vt 0.92278546 0.06572908
vt 0.91253805 0.064797506
vt 0.93489605 0.09740291
vt 0.9255802 0.05455009
vt 0.9209223 0.047097426
vt 0.92278546 0.06572908
vt 0.92278546 0.06572908
vt 0.9544593 0.08436075
vt 0.9255802 0.05455009
vt 0.961912 0.09460816
vt 0.96656984 0.10671874
vt 0.9442119 0.093676575
vt 0.9209223 0.047097426
vt 0.91253805 0.047097426
vt 0.92278546 0.06572908
vt 0.91253805 0.047097426
vt 0.91253805 0.064797506
vt 0.92278546 0.06572908
vt 0.91253805 0.01449202
vt 0.9479382 0.03591843
vt 0.9321013 0.037781596
vt 0.9209223 0.047097426
vt 0.9255802 0.05455009
vt 0.9330329 0.04523426
vt 0.91253805 0.01449202
vt 0.9209223 0.047097426
vt 0.92464864 0.046165843
vt 0.91253805 0.01449202
vt 0.92837495 0.03871318
vt 0.92837495 0.03871318
vt 0.9535277 0.07877125
vt 0.92464864 0.046165843
vt 0.9535277 0.07877125
vt 0.96750146 0.07318175
vt 0.961912 0.09460816
vt 0.9442119 0.093676575
vt 0.91253805 0.01449202
vt 0.91253805 0.047097426
vt 0.9209223 0.047097426
vn -0.9583232 -0.0022854805 -0.28567722
vn -0.9583232 -0.0022854805 -0.28567722
vn -0.86460537 -0.025714993 -0.5017931
vn -0.3960157 0.43506485 -0.80863476
vn -0.3725862 0.48973364 -0.7882516
vn -0.3725862 0.48973364 -0.7882516
vn -0.083622634 -0.4943046 -0.8652573
vn -0.083622634 -0.4943046 -0.8652573
vn -0.083622634 -0.4943046 -0.8652573
vn -0.7005989 -0.5255439 0.48266423
vn -0.7005989 -0.5255439 0.48266423
vn -0.7005989 -0.5255439 0.48266423
vn -0.068003 -0.7676486 0.63725287
vn -0.068003 -0.7676486 0.63725287
vn -0.068003 -0.7676486 0.63725287
vn 0.61926186 0.31010765 0.7213515
vn 0.30686873 0.48973364 0.81608367
vn 0.61926186 0.31010765 0.7213515
vn 0.59583235 0.3725862 0.7114516
vn -0.9505134 -0.2287705 -0.21021013
vn -0.9505134 -0.2287705 -0.21021013
vn -0.880225 -0.119432926 -0.4592817
vn 0.44744563 -0.7676486 -0.45881155
vn 0.44744563 -0.7676486 -0.45881155
vn 0.44744563 -0.7676486 -0.45881155
vn 0.51773405 0.25543875 -0.81651855
vn 0.51773405 0.23200935 -0.82348233
vn 0.51773405 0.25543875 -0.81651855
vn 0.056954265 0.27886826 0.95863897
vn 0.03352481 0.34915668 0.9364645
vn 0.03352481 0.34915668 0.9364645
vn -0.94270355 -0.119432926 0.3115217
vn -0.8567955 -0.07257396 0.51052374
vn -0.97394294 -0.14286238 0.1761406
vn -0.9817527 -0.15848202 0.10509572
vn -0.9817527 -0.17410171 -0.07648696
vn -0.48192376 0.02895385 -0.8757346
vn -0.48192376 0.02895385 -0.8757346
vn -0.48192376 0.02895385 -0.8757346
vn -0.48192376 0.02895385 -0.8757346
vn -0.068003 -0.056954265 -0.9960581
vn -0.068003 -0.056954265 -0.9960581
vn -0.068003 -0.056954265 -0.9960581
vn 0.82231736 0.32572728 -0.46657896
vn 0.82231736 0.32572728 -0.46657896
vn 0.82231736 0.32572728 -0.46657896
vn 0.98283345 0.18449514 -0
vn 0.9842177 0.17696191 -0
vn 0.98283345 0.18449514 -0
vn 0.5255439 -0.010095298 -0.8507066
vn 0.5255439 0.02895385 -0.8502736
vn 0.5255439 -0.010095298 -0.8507066
vn -0.99736303 -0.07257328 -0
vn -0.99736303 -0.07257328 -0
vn -0.99736303 -0.07257328 -0
vn -0.77088743 -0.088193595 0.6308363
vn -0.77088743 -0.088193595 0.6308363
vn -0.77088743 -0.088193595 0.6308363
vn -0.0055243373 -0.11162305 0.99373525
vn -0.0055243373 -0.11162305 0.99373525
vn -0.021143973 -0.11162305 0.9935256
vn -0.0055243373 -0.11162305 0.99373525
vn 0.658311 0.1929602 0.72759396
vn 0.658311 0.1929602 0.72759396
vn 0.40839648 0.22419947 0.8848429
vn 0.88479596 0.13048154 0.44733727
vn 0.9004156 0.13048154 0.41500154
vn 0.9082254 0.13048154 0.39761937
vn 0.9082254 0.13048154 0.39761937
vn 0.82231736 -0.16629183 0.54418856
vn 0.18972135 -0.19753116 0.9617626
vn 0.19753116 -0.23658031 0.95132077
vn 0.19753116 -0.23658031 0.95132077
vn -0.77088743 0.6225007 -0.1350016
vn -0.880225 0.41944522 -0.22196767
vn -0.88803476 0.41163534 -0.20481846
vn -0.89584464 0.3960157 -0.20157863
vn -0.7005989 -0.04133463 0.7123571
vn -0.7005989 -0.04133463 0.7123571
vn -0.7005989 -0.04133463 0.7123571
vn -0.91927415 0.38039607 -0.10116271
vn -0.9727796 0.23173222 -0
vn -0.91136825 0.41159195 -0
vn -0.8021267 0.12267178 -0.584418
vn -0.94270355 -0.12724274 -0.30841416
vn -0.61469084 0.20076996 -0.7627887
vn 0.39277685 -0.85355663 0.34229735
vn 0.39277685 -0.85355663 0.34229735
vn 0.39277685 -0.85355663 0.34229735
vn -0.7240284 0.3960157 0.5647605
vn -0.7240284 0.3960157 0.5647605
vn -0.6225007 0.5053533 0.5975876
vn -0.6693596 0.34134692 0.6598788
vn -0.6459301 0.43506485 0.6272901
vn -0.6225007 0.5053533 0.5975876
vn 0.8301272 0.31010765 -0.4633812
vn 0.8457468 0.2710585 -0.4596081
vn 0.8457468 0.2710585 -0.4596081
vn -0.9348938 0.03676361 0.35301843
vn -0.81774634 0.16953069 0.55004567
vn -0.8021267 0.22419947 0.55346847
vn -0.8021267 0.22419947 0.55346847
vn -0.8099366 0.56002206 0.17429289
vn 0.7598387 0.5522122 0.34308434
vn 0.7598387 0.5522122 0.34308434
vn 0.7598387 0.5522122 0.34308434
vn 0.99413353 -0.06476408 0.086626545
vn 0.99413353 -0.06476408 0.086626545
vn 0.99413353 -0.06476408 0.086626545
vn 0.87698615 -0.47087514 0.0957699
vn 0.87698615 -0.47087514 0.0957699
vn 0.87698615 -0.47087514 0.0957699
vn 0.87698615 -0.47087514 0.0957699
vn -0.6225007 0.5053533 0.5975876
vn -0.68497926 0.58345157 0.43633437
vn -0.68497926 0.58345157 0.43633437
g generatorShard_0
f 3/3/3 2/2/2 1/1/1
f 6/6/6 5/5/5 4/4/4
f 9/9/9 8/8/8 7/7/7
f 12/12/12 11/11/11 10/10/10
f 15/15/15 14/14/14 13/13/13
f 18/18/18 17/17/17 16/16/16
f 18/18/18 19/19/19 17/17/17
f 22/22/22 21/21/21 20/20/20
f 25/25/25 24/24/24 23/23/23
f 28/28/28 27/27/27 26/26/26
f 31/31/31 30/30/30 29/29/29
f 34/34/34 33/33/33 32/32/32
f 35/35/35 34/34/34 32/32/32
f 35/35/35 36/36/36 34/34/34
f 39/39/39 38/38/38 37/37/37
f 39/39/39 40/40/40 38/38/38
f 43/43/43 42/42/42 41/41/41
f 46/46/46 45/45/45 44/44/44
f 49/49/49 48/48/48 47/47/47
f 52/52/52 51/51/51 50/50/50
f 55/55/55 54/54/54 53/53/53
f 58/58/58 57/57/57 56/56/56
f 61/61/61 60/60/60 59/59/59
f 62/62/62 61/61/61 59/59/59
f 65/65/65 64/64/64 63/63/63
f 68/68/68 67/67/67 66/66/66
f 68/68/68 70/70/70 69/69/69
f 73/73/73 72/72/72 71/71/71
f 76/76/76 75/75/75 74/74/74
f 75/75/75 76/76/76 77/77/77
f 80/80/80 79/79/79 78/78/78
f 83/83/83 82/82/82 81/81/81
f 86/86/86 85/85/85 84/84/84
f 89/89/89 88/88/88 87/87/87
f 92/92/92 91/91/91 90/90/90
f 95/95/95 94/94/94 93/93/93
f 98/98/98 97/97/97 96/96/96
f 101/101/101 100/100/100 99/99/99
f 101/101/101 103/103/103 102/102/102
f 106/106/106 105/105/105 104/104/104
f 109/109/109 108/108/108 107/107/107
f 112/112/112 111/111/111 110/110/110
f 113/113/113 112/112/112 110/110/110
f 116/116/116 115/115/115 114/114/114
