g giantClub_break02
v -0.08720947 -0.5021824 -0.14174569
v 0.094107665 -0.36931118 -0.13934274
v -0.1260669 -0.068129465 -0.18218021
v 0.094107665 -0.36931118 -0.13934274
v 0.13551392 0.026297264 -0.17786586
v -0.1260669 -0.068129465 -0.18218021
v 0.094107665 -0.36931118 -0.13934274
v 0.1826538 -0.3224515 0.04118804
v 0.13551392 0.026297264 -0.17786586
v 0.1826538 -0.3224515 0.04118804
v 0.21514282 0.039492607 0.037855532
v 0.13551392 0.026297264 -0.17786586
v 0.1826538 -0.3224515 0.04118804
v 0.11812378 -0.30424374 0.18916774
v 0.21514282 0.039492607 0.037855532
v 0.11812378 -0.30424374 0.18916774
v 0.10989868 0.049435996 0.19437721
v 0.21514282 0.039492607 0.037855532
v 0.21446776 0.25270382 0.013564297
v -0.09219116 -0.38438183 0.18816715
v -0.116073 -0.017829323 0.21488376
v 0.11812378 -0.30424374 0.18916774
v -0.116073 -0.017829323 0.21488376
v 0.10989868 0.049435996 0.19437721
v 0.11812378 -0.30424374 0.18916774
v -0.19360107 -0.41927782 0.025933027
v -0.2434436 -0.057211723 0.019073203
v -0.09219116 -0.38438183 0.18816715
v -0.116073 -0.017829323 0.21488376
v -0.08720947 -0.5021824 -0.14174569
v -0.1260669 -0.068129465 -0.18218021
v -0.19360107 -0.41927782 0.025933027
v -0.1260669 -0.068129465 -0.18218021
v -0.2434436 -0.057211723 0.019073203
v -0.19360107 -0.41927782 0.025933027
v -0.1260669 -0.068129465 -0.18218021
v 0.13551392 0.026297264 -0.17786586
v -0.11247925 0.25208202 -0.16457401
v 0.13551392 0.026297264 -0.17786586
v 0.11311523 0.2293185 -0.15993689
v -0.11247925 0.25208202 -0.16457401
v 0.13551392 0.026297264 -0.17786586
v 0.21514282 0.039492607 0.037855532
v 0.11311523 0.2293185 -0.15993689
v 0.21514282 0.039492607 0.037855532
v 0.21446776 0.25270382 0.013564297
v 0.11311523 0.2293185 -0.15993689
v 0.10989868 0.049435996 0.19437721
v 0.10920654 0.26473856 0.19460411
v 0.21446776 0.25270382 0.013564297
v -0.116073 -0.017829323 0.21488376
v -0.11034302 0.26336786 0.20061943
v 0.10989868 0.049435996 0.19437721
v -0.11034302 0.26336786 0.20061943
v 0.10920654 0.26473856 0.19460411
v 0.10989868 0.049435996 0.19437721
v -0.2434436 -0.057211723 0.019073203
v -0.21919921 0.2828622 0.007986647
v -0.116073 -0.017829323 0.21488376
v -0.21919921 0.2828622 0.007986647
v -0.11034302 0.26336786 0.20061943
v -0.116073 -0.017829323 0.21488376
v -0.1260669 -0.068129465 -0.18218021
v -0.11247925 0.25208202 -0.16457401
v -0.2434436 -0.057211723 0.019073203
v -0.11247925 0.25208202 -0.16457401
v -0.21919921 0.2828622 0.007986647
v -0.2434436 -0.057211723 0.019073203
v -0.1360962 0.4625941 0.013243617
v -0.06723755 0.45276117 -0.13192047
v 0.0059765624 0.5021824 -0.00041609525
v 0.058457028 0.46260127 0.11721722
v 0.0059765624 0.5021824 -0.00041609525
v 0.121143796 0.45460093 -0.003787124
v 0.0059765624 0.5021824 -0.00041609525
v 0.057474364 0.4612504 -0.08150366
v 0.121143796 0.45460093 -0.003787124
v 0.0059765624 0.5021824 -0.00041609525
v -0.06723755 0.45276117 -0.13192047
v 0.057474364 0.4612504 -0.08150366
v -0.06169189 0.4644964 0.11549773
v -0.1360962 0.4625941 0.013243617
v 0.0059765624 0.5021824 -0.00041609525
v 0.058457028 0.46260127 0.11721722
v -0.06169189 0.4644964 0.11549773
v 0.0059765624 0.5021824 -0.00041609525
v -0.11247925 0.25208202 -0.16457401
v 0.11311523 0.2293185 -0.15993689
v -0.06723755 0.45276117 -0.13192047
v 0.11311523 0.2293185 -0.15993689
v 0.057474364 0.4612504 -0.08150366
v -0.06723755 0.45276117 -0.13192047
v 0.21446776 0.25270382 0.013564297
v 0.121143796 0.45460093 -0.003787124
v 0.11311523 0.2293185 -0.15993689
v 0.121143796 0.45460093 -0.003787124
v 0.057474364 0.4612504 -0.08150366
v 0.11311523 0.2293185 -0.15993689
v 0.21446776 0.25270382 0.013564297
v 0.10920654 0.26473856 0.19460411
v 0.121143796 0.45460093 -0.003787124
v 0.10920654 0.26473856 0.19460411
v 0.058457028 0.46260127 0.11721722
v 0.121143796 0.45460093 -0.003787124
v 0.10920654 0.26473856 0.19460411
v -0.11034302 0.26336786 0.20061943
v 0.058457028 0.46260127 0.11721722
v -0.06169189 0.4644964 0.11549773
v -0.11034302 0.26336786 0.20061943
v -0.21919921 0.2828622 0.007986647
v -0.06169189 0.4644964 0.11549773
v -0.21919921 0.2828622 0.007986647
v -0.1360962 0.4625941 0.013243617
v -0.06169189 0.4644964 0.11549773
v -0.11247925 0.25208202 -0.16457401
v -0.06723755 0.45276117 -0.13192047
v -0.21919921 0.2828622 0.007986647
v -0.06723755 0.45276117 -0.13192047
v -0.1360962 0.4625941 0.013243617
v -0.21919921 0.2828622 0.007986647
v 0.15668334 -0.0623592 -0.03160511
v 0.31192505 0.015491447 0.14239661
v 0.14606689 0.07020687 -0.030619374
v 0.14606689 0.07020687 -0.030619374
v 0.31192505 0.015491447 0.14239661
v 0.10528808 0.1328349 0.07939145
v 0.10528808 0.1328349 0.07939145
v 0.31192505 0.015491447 0.14239661
v 0.075128175 0.062897 0.18841651
v 0.075128175 0.062897 0.18841651
v 0.31192505 0.015491447 0.14239661
v 0.08574585 -0.06966892 0.1874308
v 0.08574585 -0.06966892 0.1874308
v 0.31192505 0.015491447 0.14239661
v 0.12652344 -0.13229702 0.07741995
v 0.12652344 -0.13229702 0.07741995
v 0.31192505 0.015491447 0.14239661
v 0.15668334 -0.0623592 -0.03160511
v -0.08059082 0.09639217 0.20211746
v -0.31192505 0.17951533 0.19861099
v -0.0712207 0.22824153 0.18744178
v -0.0712207 0.22824153 0.18744178
v -0.31192505 0.17951533 0.19861099
v -0.12485229 0.2872816 0.08102081
v -0.12485229 0.2872816 0.08102081
v -0.31192505 0.17951533 0.19861099
v -0.18785156 0.21447231 -0.010724435
v -0.18785156 0.21447231 -0.010724435
v -0.31192505 0.17951533 0.19861099
v -0.19722168 0.082622945 0.0039512767
v -0.19722168 0.082622945 0.0039512767
v -0.31192505 0.17951533 0.19861099
v -0.1435913 0.02358303 0.11037224
v -0.1435913 0.02358303 0.11037224
v -0.31192505 0.17951533 0.19861099
v -0.08059082 0.09639217 0.20211746
v -0.21879882 -0.11487087 0.0069576595
v -0.28535888 -0.07049145 -0.21488376
v -0.20980957 0.011607323 -0.00712018
v -0.20980957 0.011607323 -0.00712018
v -0.28535888 -0.07049145 -0.21488376
v -0.13072632 0.06061306 -0.094411165
v -0.13072632 0.06061306 -0.094411165
v -0.28535888 -0.07049145 -0.21488376
v -0.060629882 -0.016859168 -0.16762432
v -0.060629882 -0.016859168 -0.16762432
v -0.28535888 -0.07049145 -0.21488376
v -0.06961792 -0.14333713 -0.15354645
v -0.06961792 -0.14333713 -0.15354645
v -0.28535888 -0.07049145 -0.21488376
v -0.14870116 -0.19234295 -0.066255465
v -0.14870116 -0.19234295 -0.066255465
v -0.28535888 -0.07049145 -0.21488376
v -0.21879882 -0.11487087 0.0069576595
v 0.019963378 0.08413036 -0.13402823
v 0.24582763 0.1692773 -0.18064201
v 0.009346924 0.21669643 -0.1330425
v 0.009346924 0.21669643 -0.1330425
v 0.24582763 0.1692773 -0.18064201
v 0.07880493 0.2883169 -0.04510313
v 0.07880493 0.2883169 -0.04510313
v 0.24582763 0.1692773 -0.18064201
v 0.1588806 0.22737148 0.04185049
v 0.1588806 0.22737148 0.04185049
v 0.24582763 0.1692773 -0.18064201
v 0.16949707 0.09480556 0.04086474
v 0.16949707 0.09480556 0.04086474
v 0.24582763 0.1692773 -0.18064201
v 0.10003906 0.023185082 -0.04707463
v 0.10003906 0.023185082 -0.04707463
v 0.24582763 0.1692773 -0.18064201
v 0.019963378 0.08413036 -0.13402823
v 0.1826538 -0.3224515 0.04118804
v 0.094107665 -0.36931118 -0.13934274
v -0.0010644532 -0.38671198 0.022633994
v -0.08720947 -0.5021824 -0.14174569
v -0.19360107 -0.41927782 0.025933027
v -0.09219116 -0.38438183 0.18816715
v 0.11812378 -0.30424374 0.18916774
vt 0.14716233 0.69209576
vt 0.13668473 0.69209576
vt 0.14716233 0.69800425
vt 0.13668473 0.69209576
vt 0.13668473 0.69800425
vt 0.14716233 0.69800425
vt 0.13668473 0.69209576
vt 0.12620713 0.69209576
vt 0.13668473 0.69800425
vt 0.12620713 0.69209576
vt 0.12620713 0.69800425
vt 0.13668473 0.69800425
vt 0.12620713 0.69209576
vt 0.115729555 0.69209576
vt 0.12620713 0.69800425
vt 0.115729555 0.69209576
vt 0.115729555 0.69800425
vt 0.12620713 0.69800425
vt 0.12620713 0.7009585
vt 0.10525198 0.69209576
vt 0.10525198 0.69800425
vt 0.115729555 0.69209576
vt 0.10525198 0.69800425
vt 0.115729555 0.69800425
vt 0.115729555 0.69209576
vt 0.15763988 0.69209576
vt 0.15763988 0.69800425
vt 0.16811748 0.69209576
vt 0.16811748 0.69800425
vt 0.14716233 0.69209576
vt 0.14716233 0.69800425
vt 0.15763988 0.69209576
vt 0.14716233 0.69800425
vt 0.15763988 0.69800425
vt 0.15763988 0.69209576
vt 0.14716233 0.69800425
vt 0.13668473 0.69800425
vt 0.14716233 0.7009585
vt 0.13668473 0.69800425
vt 0.13668473 0.7009585
vt 0.14716233 0.7009585
vt 0.13668473 0.69800425
vt 0.12620713 0.69800425
vt 0.13668473 0.7009585
vt 0.12620713 0.69800425
vt 0.12620713 0.7009585
vt 0.13668473 0.7009585
vt 0.115729555 0.69800425
vt 0.115729555 0.7009585
vt 0.12620713 0.7009585
vt 0.10525198 0.69800425
vt 0.10525198 0.7009585
vt 0.115729555 0.69800425
vt 0.10525198 0.7009585
vt 0.115729555 0.7009585
vt 0.115729555 0.69800425
vt 0.15763988 0.69800425
vt 0.15763988 0.7009585
vt 0.16811748 0.69800425
vt 0.15763988 0.7009585
vt 0.16811748 0.7009585
vt 0.16811748 0.69800425
vt 0.14716233 0.69800425
vt 0.14716233 0.7009585
vt 0.15763988 0.69800425
vt 0.14716233 0.7009585
vt 0.15763988 0.7009585
vt 0.15763988 0.69800425
vt 0.15763988 0.7039127
vt 0.14716233 0.7039127
vt 0.13144594 0.7039127
vt 0.115729555 0.7039127
vt 0.13144594 0.7039127
vt 0.12620713 0.7039127
vt 0.13144594 0.7039127
vt 0.13668473 0.7039127
vt 0.12620713 0.7039127
vt 0.13144594 0.7039127
vt 0.14716233 0.7039127
vt 0.13668473 0.7039127
vt 0.10525198 0.7039127
vt 0.15763988 0.7039127
vt 0.13144594 0.7039127
vt 0.115729555 0.7039127
vt 0.10525198 0.7039127
vt 0.13144594 0.7039127
vt 0.14716233 0.7009585
vt 0.13668473 0.7009585
vt 0.14716233 0.7039127
vt 0.13668473 0.7009585
vt 0.13668473 0.7039127
vt 0.14716233 0.7039127
vt 0.12620713 0.7009585
vt 0.12620713 0.7039127
vt 0.13668473 0.7009585
vt 0.12620713 0.7039127
vt 0.13668473 0.7039127
vt 0.13668473 0.7009585
vt 0.12620713 0.7009585
vt 0.115729555 0.7009585
vt 0.12620713 0.7039127
vt 0.115729555 0.7009585
vt 0.115729555 0.7039127
vt 0.12620713 0.7039127
vt 0.115729555 0.7009585
vt 0.10525198 0.7009585
vt 0.115729555 0.7039127
vt 0.10525198 0.7039127
vt 0.16811748 0.7009585
vt 0.15763988 0.7009585
vt 0.16811748 0.7039127
vt 0.15763988 0.7009585
vt 0.15763988 0.7039127
vt 0.16811748 0.7039127
vt 0.14716233 0.7009585
vt 0.14716233 0.7039127
vt 0.15763988 0.7009585
vt 0.14716233 0.7039127
vt 0.15763988 0.7039127
vt 0.15763988 0.7009585
vt 0.093085974 0.07833809
vt 0.12932572 0.18732983
vt 0.10516587 0.07833809
vt 0.10516587 0.07833809
vt 0.12932572 0.18732983
vt 0.11724579 0.07833809
vt 0.11724579 0.07833809
vt 0.12932572 0.18732983
vt 0.12932572 0.07833809
vt 0.12932572 0.07833809
vt 0.12932572 0.18732983
vt 0.14140561 0.07833809
vt 0.14140561 0.07833809
vt 0.12932572 0.18732983
vt 0.15348557 0.07833809
vt 0.15348557 0.07833809
vt 0.12932572 0.18732983
vt 0.16556546 0.07833809
vt 0.093085974 0.07833809
vt 0.12932572 0.18732983
vt 0.10516587 0.07833809
vt 0.10516587 0.07833809
vt 0.12932572 0.18732983
vt 0.11724579 0.07833809
vt 0.11724579 0.07833809
vt 0.12932572 0.18732983
vt 0.12932572 0.07833809
vt 0.12932572 0.07833809
vt 0.12932572 0.18732983
vt 0.14140561 0.07833809
vt 0.14140561 0.07833809
vt 0.12932572 0.18732983
vt 0.15348557 0.07833809
vt 0.15348557 0.07833809
vt 0.12932572 0.18732983
vt 0.16556546 0.07833809
vt 0.093085974 0.07833809
vt 0.12932572 0.18732983
vt 0.10516587 0.07833809
vt 0.10516587 0.07833809
vt 0.12932572 0.18732983
vt 0.11724579 0.07833809
vt 0.11724579 0.07833809
vt 0.12932572 0.18732983
vt 0.12932572 0.07833809
vt 0.12932572 0.07833809
vt 0.12932572 0.18732983
vt 0.14140561 0.07833809
vt 0.14140561 0.07833809
vt 0.12932572 0.18732983
vt 0.15348557 0.07833809
vt 0.15348557 0.07833809
vt 0.12932572 0.18732983
vt 0.16556546 0.07833809
vt 0.093085974 0.07833809
vt 0.12932572 0.18732983
vt 0.10516587 0.07833809
vt 0.10516587 0.07833809
vt 0.12932572 0.18732983
vt 0.11724579 0.07833809
vt 0.11724579 0.07833809
vt 0.12932572 0.18732983
vt 0.12932572 0.07833809
vt 0.12932572 0.07833809
vt 0.12932572 0.18732983
vt 0.14140561 0.07833809
vt 0.14140561 0.07833809
vt 0.12932572 0.18732983
vt 0.15348557 0.07833809
vt 0.15348557 0.07833809
vt 0.12932572 0.18732983
vt 0.16556546 0.07833809
vt 0.12620713 0.69209576
vt 0.13668473 0.69209576
vt 0.1524011 0.69209576
vt 0.14716233 0.69209576
vt 0.15763988 0.69209576
vt 0.16811748 0.69209576
vt 0.115729555 0.69209576
vn 0.07599576 -0.08573905 -0.993415
vn 0.07599578 -0.08573905 -0.993415
vn 0.07599576 -0.08573905 -0.993415
vn 0.05331453 -0.102306955 -0.99332315
vn 0.053314533 -0.102306955 -0.99332315
vn 0.053314533 -0.10230694 -0.99332315
vn 0.90302634 -0.13425298 -0.40806827
vn 0.9030262 -0.134253 -0.40806824
vn 0.90302634 -0.13425295 -0.40806827
vn 0.9362777 -0.08717436 -0.3402714
vn 0.9362777 -0.08717436 -0.3402714
vn 0.9362777 -0.087174356 -0.34027144
vn 0.96066046 -0.08379209 0.26478362
vn 0.96066046 -0.0837921 0.26478356
vn 0.96066046 -0.0837921 0.26478362
vn 0.82818997 0.10749664 0.5500416
vn 0.82818997 0.10749664 0.5500416
vn 0.82818997 0.10749664 0.55004156
vn 0.8299838 0.06573783 0.55390024
vn -0.15140374 -0.08166365 0.9850928
vn -0.15140371 -0.081663646 0.9850928
vn -0.15140371 -0.081663646 0.9850928
vn 0.05963621 0.102371365 0.992957
vn 0.059636198 0.102371365 0.992957
vn 0.059636198 0.10237136 0.992957
vn -0.8330862 -0.10438882 0.5432037
vn -0.83308625 -0.10438882 0.54320365
vn -0.8330862 -0.10438882 0.5432037
vn -0.8257451 -0.094329536 0.55609983
vn -0.86432993 -0.12280872 -0.48770058
vn -0.86432993 -0.1228087 -0.48770058
vn -0.86432993 -0.1228087 -0.48770058
vn -0.8597441 -0.1277192 -0.49449766
vn -0.8597441 -0.12771918 -0.4944977
vn -0.85974413 -0.1277192 -0.49449757
vn -0.0034015588 0.05504378 -0.9984781
vn -0.003401559 0.055043805 -0.9984781
vn -0.003401559 0.05504379 -0.9984781
vn 0.029660463 0.091176495 -0.9953929
vn 0.029660458 0.09117648 -0.9953929
vn 0.029660458 0.09117648 -0.9953929
vn 0.9270904 0.13322824 -0.35036194
vn 0.9270904 0.13322824 -0.35036194
vn 0.9270904 0.13322824 -0.35036194
vn 0.86536247 -0.054019284 -0.4982266
vn 0.86536247 -0.054019272 -0.49822655
vn 0.86536247 -0.054019284 -0.4982266
vn 0.86456066 0.0022489172 0.5025234
vn 0.86456066 0.0022489168 0.5025235
vn 0.86456066 0.0022489168 0.5025234
vn 0.07579956 0.048975475 0.9959196
vn 0.075799555 0.04897547 0.9959196
vn 0.07579956 0.048975483 0.9959196
vn 0.02739421 -0.00096559554 0.99962425
vn 0.02739421 -0.00096559577 0.99962425
vn 0.02739421 -0.00096559577 0.99962425
vn -0.8427913 0.07744852 0.5326393
vn -0.84279126 0.077448525 0.5326393
vn -0.8427913 0.077448525 0.5326393
vn -0.86794937 0.04278829 0.49480614
vn -0.86794937 0.042788297 0.49480626
vn -0.86794937 0.042788297 0.49480626
vn -0.860509 0.0643014 -0.50536096
vn -0.86050886 0.064301394 -0.50536096
vn -0.860509 0.0643014 -0.5053609
vn -0.84625494 0.04301915 -0.53103846
vn -0.84625506 0.043019153 -0.53103846
vn -0.84625494 0.043019142 -0.53103846
vn -0.4827116 0.807758 -0.3384028
vn -0.4827116 0.807758 -0.3384028
vn -0.48271158 0.807758 -0.3384028
vn 0.6245964 0.74793077 0.22467518
vn 0.62459636 0.74793077 0.22467516
vn 0.6245964 0.74793077 0.22467521
vn 0.5884937 0.72488177 -0.3580804
vn 0.58849365 0.72488177 -0.35808036
vn 0.58849365 0.72488177 -0.35808036
vn 0.16098584 0.7438158 -0.6487077
vn 0.16098584 0.7438157 -0.6487077
vn 0.16098581 0.7438157 -0.6487077
vn -0.44410983 0.84718525 0.29162255
vn -0.44410974 0.84718525 0.29162255
vn -0.44410983 0.84718525 0.29162255
vn 0.018378153 0.83326775 0.55256426
vn 0.018378148 0.83326775 0.5525642
vn 0.018378153 0.83326775 0.55256426
vn 0.037681688 0.17294699 -0.98421013
vn 0.037681688 0.172947 -0.98421
vn 0.03768168 0.17294699 -0.98421013
vn 0.2981053 0.39315784 -0.86980474
vn 0.29810524 0.39315784 -0.8698046
vn 0.2981053 0.39315778 -0.8698046
vn 0.7838229 0.35951394 -0.5063313
vn 0.7838229 0.35951403 -0.5063313
vn 0.7838229 0.359514 -0.5063313
vn 0.7440598 0.38933802 -0.5429466
vn 0.74405986 0.38933802 -0.5429465
vn 0.7440598 0.3893381 -0.5429465
vn 0.7845766 0.45029283 0.42623454
vn 0.7845766 0.45029286 0.42623457
vn 0.7845766 0.45029286 0.42623457
vn 0.83657676 0.39329618 0.38138878
vn 0.83657676 0.39329612 0.38138875
vn 0.83657676 0.39329612 0.38138878
vn 0.022701293 0.39473474 0.91851467
vn 0.022701297 0.39473474 0.91851467
vn 0.022701297 0.39473474 0.91851467
vn -3.584747E-05 0.41219538 0.91109544
vn -0.77281713 0.41646725 0.4788618
vn -0.77281713 0.41646725 0.4788618
vn -0.77281713 0.41646725 0.4788618
vn -0.7590779 0.36547694 0.5387275
vn -0.75907785 0.36547688 0.5387275
vn -0.75907785 0.3654769 0.5387275
vn -0.7856859 0.30217096 -0.5398058
vn -0.78568596 0.3021709 -0.53980577
vn -0.7856859 0.30217093 -0.5398058
vn -0.7983501 0.4163282 -0.43509516
vn -0.7983502 0.41632825 -0.43509507
vn -0.7983502 0.41632825 -0.43509507
vn 0.7303841 0.06355033 -0.6800739
vn 0.7303841 0.06355033 -0.6800739
vn 0.7303841 0.06355033 -0.6800739
vn 0.5354766 0.8038158 -0.25912338
vn 0.53547674 0.8038157 -0.25912338
vn 0.5354766 0.8038158 -0.25912338
vn 0.26645032 0.7760935 0.571562
vn 0.26645038 0.7760935 0.571562
vn 0.26645038 0.77609354 0.571562
vn 0.19233207 0.00810624 0.9812965
vn 0.19233204 0.008106238 0.9812965
vn 0.19233207 0.008106239 0.9812965
vn 0.38724026 -0.7321589 0.56034666
vn 0.38724026 -0.7321589 0.56034666
vn 0.38724026 -0.7321589 0.56034666
vn 0.6562668 -0.70443714 -0.27033707
vn 0.6562668 -0.7044372 -0.27033707
vn 0.65626675 -0.7044372 -0.27033705
vn 0.024067609 0.1089018 0.9937611
vn 0.024067603 0.10890176 0.9937611
vn 0.024067609 0.1089018 0.9937611
vn -0.1437915 0.83284307 0.5345057
vn -0.1437915 0.83284307 0.5345057
vn -0.14379151 0.8328432 0.53450567
vn -0.5861099 0.7806238 -0.2170296
vn -0.5861098 0.7806238 -0.2170296
vn -0.5861098 0.7806237 -0.21702957
vn -0.8605697 0.0044638207 -0.5093131
vn -0.8605697 0.0044638207 -0.5093131
vn -0.8605697 0.004463821 -0.50931317
vn -0.69271046 -0.7194763 -0.05006003
vn -0.69271046 -0.7194763 -0.050060026
vn -0.69271046 -0.7194763 -0.05006002
vn -0.2503919 -0.6672569 0.7014785
vn -0.2503919 -0.6672569 0.7014785
vn -0.2503919 -0.6672569 0.7014785
vn -0.9471464 0.10119103 0.30442408
vn -0.9471464 0.10119103 0.30442408
vn -0.9471464 0.10119105 0.30442405
vn -0.598951 0.79496914 -0.09634168
vn -0.598951 0.79496914 -0.09634169
vn -0.598951 0.79496914 -0.09634168
vn -0.009159734 0.682427 -0.73089635
vn -0.009159733 0.682427 -0.73089635
vn -0.009159733 0.68242687 -0.7308964
vn 0.23243614 -0.12389375 -0.96468836
vn 0.23243614 -0.12389378 -0.96468836
vn 0.23243614 -0.12389377 -0.96468836
vn -0.11576032 -0.8176731 -0.563924
vn -0.115760304 -0.8176731 -0.56392395
vn -0.11576032 -0.8176731 -0.563924
vn -0.70555073 -0.7051308 0.07063067
vn -0.70555073 -0.7051308 0.070630655
vn -0.70555073 -0.7051308 0.070630655
vn -0.19898471 -0.008649074 -0.9799644
vn -0.19898471 -0.0086490745 -0.9799644
vn -0.19898474 -0.008649074 -0.9799644
vn 0.02417336 0.7657195 -0.64272016
vn 0.024173364 0.7657195 -0.6427203
vn 0.02417336 0.7657195 -0.6427203
vn 0.59127903 0.806205 0.020555753
vn 0.591279 0.80620515 0.020555757
vn 0.5912789 0.80620503 0.020555757
vn 0.93522656 0.07232144 0.34658468
vn 0.93522656 0.07232143 0.34658468
vn 0.93522656 0.07232144 0.34658468
vn 0.7120685 -0.7020478 0.009340274
vn 0.7120685 -0.7020478 0.009340273
vn 0.7120685 -0.70204777 0.009340273
vn 0.14496349 -0.7425319 -0.65393573
vn 0.14496346 -0.7425319 -0.65393573
vn 0.14496349 -0.7425319 -0.65393573
vn 0.3093539 -0.9348054 0.17446782
vn 0.46390554 -0.8675339 0.17937815
vn 0.3257281 -0.9130967 0.2452662
vn 0.3660054 -0.8408166 0.39883262
vn 0.16231062 -0.924744 0.3442438
vn 0.26859853 -0.9496625 0.16123238
vn 0.32376567 -0.9193491 0.22354662
g giantClub_break02_0
f 3/3/3 2/2/2 1/1/1
f 6/6/6 5/5/5 4/4/4
f 9/9/9 8/8/8 7/7/7
f 12/12/12 11/11/11 10/10/10
f 15/15/15 14/14/14 13/13/13
f 18/18/18 17/17/17 16/16/16
f 19/19/19 17/17/17 18/18/18
f 22/22/22 21/21/21 20/20/20
f 25/25/25 24/24/24 23/23/23
f 28/28/28 27/27/27 26/26/26
f 28/28/28 29/29/29 27/27/27
f 32/32/32 31/31/31 30/30/30
f 35/35/35 34/34/34 33/33/33
f 38/38/38 37/37/37 36/36/36
f 41/41/41 40/40/40 39/39/39
f 44/44/44 43/43/43 42/42/42
f 47/47/47 46/46/46 45/45/45
f 50/50/50 49/49/49 48/48/48
f 53/53/53 52/52/52 51/51/51
f 56/56/56 55/55/55 54/54/54
f 59/59/59 58/58/58 57/57/57
f 62/62/62 61/61/61 60/60/60
f 65/65/65 64/64/64 63/63/63
f 68/68/68 67/67/67 66/66/66
f 71/71/71 70/70/70 69/69/69
f 74/74/74 73/73/73 72/72/72
f 77/77/77 76/76/76 75/75/75
f 80/80/80 79/79/79 78/78/78
f 83/83/83 82/82/82 81/81/81
f 86/86/86 85/85/85 84/84/84
f 89/89/89 88/88/88 87/87/87
f 92/92/92 91/91/91 90/90/90
f 95/95/95 94/94/94 93/93/93
f 98/98/98 97/97/97 96/96/96
f 101/101/101 100/100/100 99/99/99
f 104/104/104 103/103/103 102/102/102
f 107/107/107 106/106/106 105/105/105
f 107/107/107 108/108/108 106/106/106
f 111/111/111 110/110/110 109/109/109
f 114/114/114 113/113/113 112/112/112
f 117/117/117 116/116/116 115/115/115
f 120/120/120 119/119/119 118/118/118
f 123/123/123 122/122/122 121/121/121
f 126/126/126 125/125/125 124/124/124
f 129/129/129 128/128/128 127/127/127
f 132/132/132 131/131/131 130/130/130
f 135/135/135 134/134/134 133/133/133
f 138/138/138 137/137/137 136/136/136
f 141/141/141 140/140/140 139/139/139
f 144/144/144 143/143/143 142/142/142
f 147/147/147 146/146/146 145/145/145
f 150/150/150 149/149/149 148/148/148
f 153/153/153 152/152/152 151/151/151
f 156/156/156 155/155/155 154/154/154
f 159/159/159 158/158/158 157/157/157
f 162/162/162 161/161/161 160/160/160
f 165/165/165 164/164/164 163/163/163
f 168/168/168 167/167/167 166/166/166
f 171/171/171 170/170/170 169/169/169
f 174/174/174 173/173/173 172/172/172
f 177/177/177 176/176/176 175/175/175
f 180/180/180 179/179/179 178/178/178
f 183/183/183 182/182/182 181/181/181
f 186/186/186 185/185/185 184/184/184
f 189/189/189 188/188/188 187/187/187
f 192/192/192 191/191/191 190/190/190
f 195/195/195 194/194/194 193/193/193
f 196/196/196 194/194/194 195/195/195
f 197/197/197 196/196/196 195/195/195
f 197/197/197 195/195/195 198/198/198
f 195/195/195 193/193/193 199/199/199
f 195/195/195 199/199/199 198/198/198
