g greatTorch_break02
v 0.031849746 -0.29032397 -0.055165347
v 0.017084112 -0.26057336 -0.02959053
v -0.017084092 -0.26057336 -0.029590534
v -0.031849716 -0.29032397 -0.055165358
v -0.031849716 -0.29032397 -0.055165358
v -0.017084092 -0.26057336 -0.029590534
v -0.034168195 -0.26057336 -3.8184043E-09
v -0.06369946 -0.29032397 -6.810744E-09
v -0.06369946 -0.29032397 -6.810744E-09
v -0.034168195 -0.26057336 -3.8184043E-09
v -0.017084112 -0.26057336 0.029590534
v -0.03184974 -0.29032397 0.055165347
v -0.03184974 -0.29032397 0.055165347
v -0.017084112 -0.26057336 0.029590534
v 0.017084103 -0.26057336 0.029590534
v 0.031849727 -0.29032397 0.055165358
v 0.031849727 -0.29032397 0.055165358
v 0.017084103 -0.26057336 0.029590534
v 0.034168206 -0.26057336 1.2730543E-09
v 0.06369946 -0.29032397 2.6812146E-09
v 0.06369946 -0.29032397 2.6812146E-09
v 0.034168206 -0.26057336 1.2730543E-09
v 0.017084112 -0.26057336 -0.02959053
v 0.031849746 -0.29032397 -0.055165347
v -0.031849716 -0.29032397 -0.055165358
v -0 -0.39904022 2.6812146E-09
v 0.031849746 -0.29032397 -0.055165347
v -0.06369946 -0.29032397 -6.810744E-09
v -0 -0.39904022 2.6812146E-09
v -0.031849716 -0.29032397 -0.055165358
v -0.03184974 -0.29032397 0.055165347
v -0 -0.39904022 2.6812146E-09
v -0.06369946 -0.29032397 -6.810744E-09
v 0.031849727 -0.29032397 0.055165358
v -0 -0.39904022 2.6812146E-09
v -0.03184974 -0.29032397 0.055165347
v 0.06369946 -0.29032397 2.6812146E-09
v -0 -0.39904022 2.6812146E-09
v 0.031849727 -0.29032397 0.055165358
v 0.031849746 -0.29032397 -0.055165347
v -0 -0.39904022 2.6812146E-09
v 0.06369946 -0.29032397 2.6812146E-09
v -0.034168195 -0.26057336 -3.8184043E-09
v -0.03487134 -0.23802559 -3.8896513E-09
v -0.017450456 -0.23707771 0.030225066
v -0.017084112 -0.26057336 0.029590534
v -0.017084092 -0.26057336 -0.029590534
v -0.017424688 -0.2387299 -0.030180449
v -0.03487134 -0.23802559 -3.8896513E-09
v -0.034168195 -0.26057336 -3.8184043E-09
v 0.017084112 -0.26057336 -0.02959053
v 0.017428475 -0.23848782 -0.03018698
v -0.017424688 -0.2387299 -0.030180449
v -0.017084092 -0.26057336 -0.029590534
v 0.034168206 -0.26057336 1.2730543E-09
v 0.034886464 -0.23754074 1.3073035E-09
v 0.017428475 -0.23848782 -0.03018698
v 0.017084112 -0.26057336 -0.02959053
v 0.017084103 -0.26057336 0.029590534
v 0.017454233 -0.23683494 0.030231625
v 0.034886464 -0.23754074 1.3073035E-09
v 0.034168206 -0.26057336 1.2730543E-09
v -0.017084112 -0.26057336 0.029590534
v -0.017450456 -0.23707771 0.030225066
v 0.017454233 -0.23683494 0.030231625
v 0.017084103 -0.26057336 0.029590534
v -0.04903121 0.2160446 -5.3244427E-09
v -0.056368608 0.34310788 -6.0679257E-09
v -0.028184308 0.34310788 0.04881665
v -0.024509229 0.21563557 0.042451236
v -0.024684057 0.22684814 -0.042754058
v -0.028184308 0.34310788 -0.048816662
v -0.056368608 0.34310788 -6.0679257E-09
v -0.04903121 0.2160446 -5.3244427E-09
v 0.0248483 0.2373806 -0.04303849
v 0.028184328 0.37387446 -0.04881665
v -0.028184308 0.34310788 -0.048816662
v -0.024684057 0.22684814 -0.042754058
v 0.049683467 0.23696041 2.0128799E-09
v 0.056368608 0.37387446 2.3316526E-09
v 0.028184328 0.37387446 -0.04881665
v 0.0248483 0.2373806 -0.04303849
v 0.024671124 0.2260189 0.042731658
v 0.028184308 0.37387446 0.048816662
v 0.056368608 0.37387446 2.3316526E-09
v 0.049683467 0.23696041 2.0128799E-09
v -0.024509229 0.21563557 0.042451236
v -0.028184308 0.34310788 0.04881665
v 0.028184308 0.37387446 0.048816662
v 0.024671124 0.2260189 0.042731658
v -0.03487134 -0.23802559 -3.8896513E-09
v -0.04549378 -0.02569951 4.571896E-06
v -0.022901334 -0.017777853 0.039563715
v -0.017450456 -0.23707771 0.030225066
v -0.017424688 -0.2387299 -0.030180449
v -0.022951841 -0.014538631 -0.03964205
v -0.04549378 -0.02569951 4.571896E-06
v -0.03487134 -0.23802559 -3.8896513E-09
v 0.017428475 -0.23848782 -0.03018698
v 0.023132218 0.0049633216 -0.040168714
v -0.022951841 -0.014538631 -0.03964205
v -0.017424688 -0.2387299 -0.030180449
v 0.034886464 -0.23754074 1.3073035E-09
v 0.04658383 0.013222866 4.578724E-06
v 0.023132218 0.0049633216 -0.040168714
v 0.017428475 -0.23848782 -0.03018698
v 0.017454233 -0.23683494 0.030231625
v 0.023080349 0.0016375732 0.04008806
v 0.04658383 0.013222866 4.578724E-06
v 0.034886464 -0.23754074 1.3073035E-09
v -0.017450456 -0.23707771 0.030225066
v -0.022901334 -0.017777853 0.039563715
v 0.023080349 0.0016375732 0.04008806
v 0.017454233 -0.23683494 0.030231625
v -0.05390107 0.20921005 1.6368576E-05
v -0.04903121 0.2160446 -5.3244427E-09
v -0.024509229 0.21563557 0.042451236
v -0.026987314 0.21016525 0.046683967
v -0.027167635 0.22173072 -0.046963565
v -0.024684057 0.22684814 -0.042754058
v -0.04903121 0.2160446 -5.3244427E-09
v -0.05390107 0.20921005 1.6368576E-05
v 0.02729353 0.23541747 -0.04733318
v 0.0248483 0.2373806 -0.04303849
v -0.024684057 0.22684814 -0.042754058
v -0.027167635 0.22173072 -0.046963565
v 0.054661494 0.23640186 1.6376642E-05
v 0.049683467 0.23696041 2.0128799E-09
v 0.0248483 0.2373806 -0.04303849
v 0.02729353 0.23541747 -0.04733318
v 0.027110338 0.22366996 0.04704868
v 0.024671124 0.2260189 0.042731658
v 0.049683467 0.23696041 2.0128799E-09
v 0.054661494 0.23640186 1.6376642E-05
v -0.026987314 0.21016525 0.046683967
v -0.024509229 0.21563557 0.042451236
v 0.024671124 0.2260189 0.042731658
v 0.027110338 0.22366996 0.04704868
v -0.041884564 -0.013130226 -4.6002855E-09
v -0.05390107 0.20921005 1.6368576E-05
v -0.026987314 0.21016525 0.046683967
v -0.021026067 -0.007756538 0.03641821
v -0.02108573 -0.0039300537 -0.036521558
v -0.027167635 0.22173072 -0.046963565
v -0.05390107 0.20921005 1.6368576E-05
v -0.041884564 -0.013130226 -4.6002855E-09
v 0.02131728 0.010920334 -0.036922604
v 0.02729353 0.23541747 -0.04733318
v -0.027167635 0.22173072 -0.046963565
v -0.02108573 -0.0039300537 -0.036521558
v 0.042808197 0.01648859 1.6850414E-09
v 0.054661494 0.23640186 1.6376642E-05
v 0.02729353 0.23541747 -0.04733318
v 0.02131728 0.010920334 -0.036922604
v 0.021256294 0.0070094108 0.036816992
v 0.027110338 0.22366996 0.04704868
v 0.054661494 0.23640186 1.6376642E-05
v 0.042808197 0.01648859 1.6850414E-09
v -0.021026067 -0.007756538 0.03641821
v -0.026987314 0.21016525 0.046683967
v 0.027110338 0.22366996 0.04704868
v 0.021256294 0.0070094108 0.036816992
v -0.04549378 -0.02569951 4.571896E-06
v -0.041884564 -0.013130226 -4.6002855E-09
v -0.021026067 -0.007756538 0.03641821
v -0.022901334 -0.017777853 0.039563715
v -0.022951841 -0.014538631 -0.03964205
v -0.02108573 -0.0039300537 -0.036521558
v -0.041884564 -0.013130226 -4.6002855E-09
v -0.04549378 -0.02569951 4.571896E-06
v 0.023132218 0.0049633216 -0.040168714
v 0.02131728 0.010920334 -0.036922604
v -0.02108573 -0.0039300537 -0.036521558
v -0.022951841 -0.014538631 -0.03964205
v 0.04658383 0.013222866 4.578724E-06
v 0.042808197 0.01648859 1.6850414E-09
v 0.02131728 0.010920334 -0.036922604
v 0.023132218 0.0049633216 -0.040168714
v 0.023080349 0.0016375732 0.04008806
v 0.021256294 0.0070094108 0.036816992
v 0.042808197 0.01648859 1.6850414E-09
v 0.04658383 0.013222866 4.578724E-06
v -0.022901334 -0.017777853 0.039563715
v -0.021026067 -0.007756538 0.03641821
v 0.021256294 0.0070094108 0.036816992
v 0.023080349 0.0016375732 0.04008806
v -0.028184308 0.34310788 -0.048816662
v 0.028184328 0.37387446 -0.04881665
v -9.536743E-09 0.39904022 -1.9272872E-09
v 0.056368608 0.37387446 2.3316526E-09
v 0.028184308 0.37387446 0.048816662
v -0.028184308 0.34310788 0.04881665
v -0.056368608 0.34310788 -6.0679257E-09
vt 0.829901 0.69664943
vt 0.82216895 0.7122282
vt 0.80427706 0.7122282
vt 0.79654515 0.69664943
vt 0.79654515 0.69664943
vt 0.80427706 0.7122282
vt 0.795331 0.7122282
vt 0.77986723 0.69664943
vt 0.77986723 0.69664943
vt 0.795331 0.7122282
vt 0.80427706 0.7122282
vt 0.79654515 0.69664943
vt 0.79654515 0.69664943
vt 0.80427706 0.7122282
vt 0.82216895 0.7122282
vt 0.829901 0.69664943
vt 0.829901 0.69664943
vt 0.82216895 0.7122282
vt 0.8311149 0.7122282
vt 0.84657884 0.69664943
vt 0.84657884 0.69664943
vt 0.8311149 0.7122282
vt 0.82216895 0.7122282
vt 0.829901 0.69664943
vt 0.79654515 0.69664943
vt 0.813223 0.6397209
vt 0.829901 0.69664943
vt 0.77986723 0.69664943
vt 0.813223 0.6397209
vt 0.79654515 0.69664943
vt 0.79654515 0.69664943
vt 0.813223 0.6397209
vt 0.77986723 0.69664943
vt 0.829901 0.69664943
vt 0.813223 0.6397209
vt 0.79654515 0.69664943
vt 0.84657884 0.69664943
vt 0.813223 0.6397209
vt 0.829901 0.69664943
vt 0.829901 0.69664943
vt 0.813223 0.6397209
vt 0.84657884 0.69664943
vt 0.39098012 0.53945786
vt 0.3908439 0.54382646
vt 0.39421913 0.5440101
vt 0.39429012 0.53945786
vt 0.39429012 0.53945786
vt 0.39422414 0.54369
vt 0.3908439 0.54382646
vt 0.39098012 0.53945786
vt 0.4009102 0.53945786
vt 0.40097693 0.5437369
vt 0.39422414 0.54369
vt 0.39429012 0.53945786
vt 0.4042202 0.53945786
vt 0.40435934 0.54392034
vt 0.40097693 0.5437369
vt 0.4009102 0.53945786
vt 0.4009102 0.53945786
vt 0.4009819 0.54405713
vt 0.40435934 0.54392034
vt 0.4042202 0.53945786
vt 0.39429012 0.53945786
vt 0.39421913 0.5440101
vt 0.4009819 0.54405713
vt 0.4009102 0.53945786
vt 0.38810045 0.63180166
vt 0.38667884 0.67738885
vt 0.3921395 0.67738885
vt 0.39285153 0.6317224
vt 0.39281765 0.6338948
vt 0.3921395 0.67738885
vt 0.38667884 0.67738885
vt 0.38810045 0.63180166
vt 0.4024145 0.6359355
vt 0.40306082 0.67738885
vt 0.3921395 0.67738885
vt 0.39281765 0.6338948
vt 0.40722623 0.63585407
vt 0.40852144 0.67738885
vt 0.40306082 0.67738885
vt 0.4024145 0.6359355
vt 0.40238017 0.63373417
vt 0.40306082 0.67738885
vt 0.40852144 0.67738885
vt 0.40722623 0.63585407
vt 0.39285153 0.6317224
vt 0.3921395 0.67738885
vt 0.40306082 0.67738885
vt 0.40238017 0.63373417
vt 0.81970525 0.6785741
vt 0.81893593 0.69395196
vt 0.8205722 0.6945257
vt 0.820967 0.6786427
vt 0.8209688 0.67852306
vt 0.8205685 0.6947603
vt 0.81893593 0.69395196
vt 0.81970525 0.6785741
vt 0.82349306 0.6785406
vt 0.82390624 0.6961728
vt 0.8205685 0.6947603
vt 0.8209688 0.67852306
vt 0.8247575 0.6786092
vt 0.82560474 0.69677097
vt 0.82390624 0.6961728
vt 0.82349306 0.6785406
vt 0.823495 0.6786603
vt 0.8239024 0.6959319
vt 0.82560474 0.69677097
vt 0.8247575 0.6786092
vt 0.820967 0.6786427
vt 0.8205722 0.6945257
vt 0.8239024 0.6959319
vt 0.823495 0.6786603
vt 0.818327 0.7109655
vt 0.81867975 0.7114605
vt 0.82045573 0.7114309
vt 0.82027626 0.71103466
vt 0.8202632 0.71187234
vt 0.8204431 0.71224296
vt 0.81867975 0.7114605
vt 0.818327 0.7109655
vt 0.8242076 0.71286356
vt 0.82403046 0.7130058
vt 0.8204431 0.71224296
vt 0.8202632 0.71187234
vt 0.8261898 0.71293485
vt 0.8258292 0.7129754
vt 0.82403046 0.7130058
vt 0.8242076 0.71286356
vt 0.8241944 0.71201277
vt 0.8240177 0.7121829
vt 0.8258292 0.7129754
vt 0.8261898 0.71293485
vt 0.82027626 0.71103466
vt 0.82045573 0.7114309
vt 0.8240177 0.7121829
vt 0.8241944 0.71201277
vt 0.81919736 0.6948623
vt 0.818327 0.7109655
vt 0.82027626 0.71103466
vt 0.820708 0.6952515
vt 0.8207037 0.6955286
vt 0.8202632 0.71187234
vt 0.818327 0.7109655
vt 0.81919736 0.6948623
vt 0.82377476 0.6966042
vt 0.8242076 0.71286356
vt 0.8202632 0.71187234
vt 0.8207037 0.6955286
vt 0.8253313 0.6970075
vt 0.8261898 0.71293485
vt 0.8242076 0.71286356
vt 0.82377476 0.6966042
vt 0.82377034 0.69632095
vt 0.8241944 0.71201277
vt 0.8261898 0.71293485
vt 0.8253313 0.6970075
vt 0.820708 0.6952515
vt 0.82027626 0.71103466
vt 0.8241944 0.71201277
vt 0.82377034 0.69632095
vt 0.81893593 0.69395196
vt 0.81919736 0.6948623
vt 0.820708 0.6952515
vt 0.8205722 0.6945257
vt 0.8205685 0.6947603
vt 0.8207037 0.6955286
vt 0.81919736 0.6948623
vt 0.81893593 0.69395196
vt 0.82390624 0.6961728
vt 0.82377476 0.6966042
vt 0.8207037 0.6955286
vt 0.8205685 0.6947603
vt 0.82560474 0.69677097
vt 0.8253313 0.6970075
vt 0.82377476 0.6966042
vt 0.82390624 0.6961728
vt 0.8239024 0.6959319
vt 0.82377034 0.69632095
vt 0.8253313 0.6970075
vt 0.82560474 0.69677097
vt 0.8205722 0.6945257
vt 0.820708 0.6952515
vt 0.82377034 0.69632095
vt 0.8239024 0.6959319
vt 0.3921395 0.67738885
vt 0.40306082 0.67738885
vt 0.39760017 0.67738885
vt 0.40852144 0.67738885
vt 0.40306082 0.67738885
vt 0.3921395 0.67738885
vt 0.38667884 0.67738885
vn 1.4902824E-07 0.65188223 -0.7583203
vn 1.4902827E-07 0.6518821 -0.7583203
vn 1.4902827E-07 0.6518821 -0.7583203
vn 1.4902824E-07 0.65188223 -0.7583203
vn -0.65672445 0.6518822 -0.3791605
vn -0.65672445 0.6518822 -0.3791605
vn -0.65672445 0.6518822 -0.37916055
vn -0.65672445 0.6518822 -0.37916055
vn -0.6567247 0.6518822 0.37916005
vn -0.65672463 0.6518822 0.37916005
vn -0.65672463 0.6518822 0.37916002
vn -0.65672463 0.6518822 0.37916005
vn -0 0.6518823 0.75832015
vn -0 0.65188235 0.75832015
vn -0 0.65188223 0.75832015
vn -0 0.65188235 0.75832015
vn 0.6567246 0.65188205 0.37916052
vn 0.6567246 0.651882 0.37916052
vn 0.6567246 0.65188205 0.37916058
vn 0.6567246 0.65188205 0.37916052
vn 0.65672463 0.6518821 -0.3791601
vn 0.65672463 0.6518821 -0.3791601
vn 0.6567246 0.6518821 -0.3791601
vn 0.65672463 0.6518821 -0.37916014
vn 1.9648947E-07 -0.45250294 -0.891763
vn 1.9648944E-07 -0.45250294 -0.89176285
vn 1.9648947E-07 -0.45250294 -0.891763
vn -0.7722892 -0.4525029 -0.44588166
vn -0.77228916 -0.4525029 -0.44588166
vn -0.7722892 -0.4525029 -0.44588166
vn -0.77228934 -0.45250285 0.44588155
vn -0.77228934 -0.45250285 0.44588155
vn -0.77228934 -0.45250288 0.44588155
vn -0 -0.45250294 0.891763
vn -0 -0.45250294 0.89176285
vn -0 -0.45250294 0.891763
vn 0.7722892 -0.45250285 0.4458816
vn 0.7722892 -0.45250285 0.44588166
vn 0.7722892 -0.45250285 0.4458816
vn 0.7722894 -0.4525029 -0.4458814
vn 0.7722894 -0.4525029 -0.44588143
vn 0.7722894 -0.4525029 -0.4458814
vn -0.86571 -0.026996678 0.4998174
vn -0.86571 -0.026996678 0.4998174
vn -0.86571 -0.026996678 0.4998174
vn -0.86571 -0.026996678 0.4998174
vn -0.8657097 -0.026996888 -0.4998178
vn -0.8657097 -0.026996888 -0.49981773
vn -0.8657097 -0.026996888 -0.4998178
vn -0.8657097 -0.026996888 -0.4998178
vn 1.2576712E-07 -0.026996551 -0.9996356
vn 1.2576712E-07 -0.02699655 -0.9996356
vn 1.257671E-07 -0.02699655 -0.9996356
vn 1.2576712E-07 -0.026996551 -0.9996356
vn 0.86571 -0.026996689 -0.49981728
vn 0.86571 -0.026996689 -0.49981734
vn 0.86571 -0.026996687 -0.49981728
vn 0.86571 -0.026996689 -0.49981722
vn 0.86570984 -0.026996607 0.49981764
vn 0.86570984 -0.026996607 0.49981764
vn 0.86570984 -0.026996607 0.49981764
vn 0.86570984 -0.026996607 0.49981764
vn -0 -0.026996596 0.9996356
vn -0 -0.0269966 0.9996356
vn -0 -0.026996596 0.9996356
vn -0 -0.026996596 0.9996356
vn -0.8649907 -0.049910292 0.49929956
vn -0.8649907 -0.049910292 0.49929965
vn -0.8649907 -0.049910292 0.4992996
vn -0.8649907 -0.04991029 0.49929956
vn -0.86367 -0.05096272 -0.50147486
vn -0.86367 -0.050962716 -0.50147486
vn -0.86367 -0.05096272 -0.50147486
vn -0.86367 -0.05096272 -0.50147486
vn 0.015560688 -0.04678001 -0.998784
vn 0.015560685 -0.046780005 -0.998784
vn 0.0155606875 -0.04678001 -0.998784
vn 0.015560685 -0.04678 -0.998784
vn 0.86522114 -0.042271394 -0.49960527
vn 0.86522114 -0.042271387 -0.49960527
vn 0.86522114 -0.042271398 -0.49960527
vn 0.86522114 -0.042271394 -0.49960527
vn 0.866031 -0.041661505 0.49825177
vn 0.866031 -0.041661505 0.4982517
vn 0.866031 -0.041661505 0.49825177
vn 0.866031 -0.041661505 0.4982517
vn 0.014952734 -0.045160346 0.99886787
vn 0.014952734 -0.04516035 0.99886787
vn 0.014952734 -0.045160346 0.99886787
vn 0.014952736 -0.045160357 0.99886787
vn -0.86433685 -0.04303346 0.5010687
vn -0.86433685 -0.043033455 0.5010687
vn -0.86433685 -0.04303346 0.5010687
vn -0.86433697 -0.04303346 0.50106865
vn -0.86419874 -0.042833347 -0.50132394
vn -0.86419874 -0.042833347 -0.501324
vn -0.86419874 -0.042833354 -0.501324
vn -0.86419874 -0.042833347 -0.501324
vn 0.003551819 -0.04154255 -0.9991304
vn 0.003551819 -0.041542556 -0.9991304
vn 0.0035518184 -0.041542552 -0.9991304
vn 0.0035518182 -0.041542552 -0.9991304
vn 0.8660795 -0.040553134 -0.49825862
vn 0.8660795 -0.040553134 -0.49825868
vn 0.8660795 -0.040553134 -0.49825856
vn 0.8660795 -0.040553138 -0.49825862
vn 0.8662237 -0.04070989 0.49799517
vn 0.8662237 -0.04070989 0.49799514
vn 0.8662237 -0.04070989 0.49799514
vn 0.8662237 -0.04070989 0.49799514
vn 0.003624287 -0.041895803 0.9991154
vn 0.0036242874 -0.041895807 0.9991154
vn 0.0036242877 -0.041895807 0.9991154
vn 0.0036242877 -0.041895807 0.9991154
vn -0.71443397 0.5678173 0.4088615
vn -0.7144339 0.5678172 0.40886152
vn -0.71443397 0.5678173 0.4088615
vn -0.7144339 0.5678172 0.40886152
vn -0.7673029 0.57306206 -0.2878299
vn -0.7673029 0.5730621 -0.2878299
vn -0.7673029 0.57306206 -0.2878299
vn -0.7673029 0.57306206 -0.2878299
vn -0.18009959 0.7563356 -0.6289044
vn -0.1800996 0.7563356 -0.6289044
vn -0.18009956 0.7563355 -0.6289044
vn -0.18009959 0.7563356 -0.6289044
vn 0.2419016 0.95929974 -0.14569657
vn 0.24190158 0.95929986 -0.1456966
vn 0.24190158 0.95929986 -0.14569657
vn 0.24190158 0.95929986 -0.14569658
vn 0.16412786 0.9258849 0.34029287
vn 0.16412781 0.9258849 0.34029284
vn 0.16412784 0.9258849 0.34029284
vn 0.16412786 0.9258849 0.34029287
vn -0.1723673 0.7272741 0.66435075
vn -0.1723673 0.7272741 0.66435075
vn -0.17236729 0.7272741 0.66435075
vn -0.17236729 0.72727406 0.66435075
vn -0.8644073 -0.0469885 0.50059175
vn -0.86440724 -0.0469885 0.5005918
vn -0.8644073 -0.046988495 0.50059175
vn -0.8644073 -0.0469885 0.50059175
vn -0.86286247 -0.046570312 -0.50328875
vn -0.86286247 -0.046570316 -0.50328875
vn -0.86286247 -0.04657031 -0.50328875
vn -0.86286247 -0.04657031 -0.50328875
vn 0.0056845425 -0.046271134 -0.9989127
vn 0.005684542 -0.046271127 -0.9989127
vn 0.005684543 -0.046271134 -0.9989127
vn 0.0056845425 -0.04627113 -0.9989127
vn 0.8657453 -0.04638863 -0.4983304
vn 0.8657453 -0.04638863 -0.4983304
vn 0.8657453 -0.046388626 -0.4983304
vn 0.8657453 -0.04638863 -0.4983304
vn 0.867334 -0.046810642 0.4955204
vn 0.867334 -0.04681064 0.49552035
vn 0.86733407 -0.046810642 0.4955203
vn 0.867334 -0.04681064 0.49552035
vn 0.0059060273 -0.0471112 0.9988721
vn 0.005906027 -0.047111206 0.9988721
vn 0.0059060273 -0.047111206 0.9988721
vn 0.005906028 -0.047111202 0.9988721
vn -0.85554314 0.2693598 0.44214386
vn -0.8555432 0.2693598 0.44214386
vn -0.8555432 0.26935977 0.4421438
vn -0.8555432 0.2693598 0.44214386
vn -0.8672457 0.26180232 -0.42349088
vn -0.86724555 0.26180235 -0.4234909
vn -0.86724555 0.26180232 -0.4234909
vn -0.8672457 0.26180232 -0.4234909
vn -0.14757805 0.35521355 -0.9230624
vn -0.14757802 0.35521355 -0.9230624
vn -0.14757802 0.35521355 -0.9230624
vn -0.147578 0.35521352 -0.9230624
vn 0.66020554 0.5714937 -0.48736405
vn 0.66020554 0.5714936 -0.48736402
vn 0.6602055 0.5714937 -0.48736405
vn 0.66020554 0.5714937 -0.48736405
vn 0.6120516 0.5945419 0.5214526
vn 0.6120516 0.5945419 0.5214526
vn 0.61205155 0.5945419 0.5214526
vn 0.61205155 0.59454185 0.5214526
vn -0.15686177 0.380438 0.9114063
vn -0.15686175 0.38043797 0.9114063
vn -0.15686177 0.38043803 0.9114063
vn -0.15686177 0.380438 0.9114063
vn -0.55454546 0.6880004 -0.46811837
vn -0.08940498 0.86332095 -0.49667263
vn -0.29377812 0.9558736 -1.08842876E-07
vn 0.40766686 0.91313076 0
vn -0.089405134 0.863321 0.49667242
vn -0.5545456 0.6880003 0.46811825
vn -0.7043546 0.70984834 0
g greatTorch_break02_0
f 3/3/3 2/2/2 1/1/1
f 4/4/4 3/3/3 1/1/1
f 7/7/7 6/6/6 5/5/5
f 8/8/8 7/7/7 5/5/5
f 11/11/11 10/10/10 9/9/9
f 12/12/12 11/11/11 9/9/9
f 15/15/15 14/14/14 13/13/13
f 16/16/16 15/15/15 13/13/13
f 19/19/19 18/18/18 17/17/17
f 20/20/20 19/19/19 17/17/17
f 23/23/23 22/22/22 21/21/21
f 24/24/24 23/23/23 21/21/21
f 27/27/27 26/26/26 25/25/25
f 30/30/30 29/29/29 28/28/28
f 33/33/33 32/32/32 31/31/31
f 36/36/36 35/35/35 34/34/34
f 39/39/39 38/38/38 37/37/37
f 42/42/42 41/41/41 40/40/40
f 45/45/45 44/44/44 43/43/43
f 46/46/46 45/45/45 43/43/43
f 49/49/49 48/48/48 47/47/47
f 50/50/50 49/49/49 47/47/47
f 53/53/53 52/52/52 51/51/51
f 54/54/54 53/53/53 51/51/51
f 57/57/57 56/56/56 55/55/55
f 58/58/58 57/57/57 55/55/55
f 61/61/61 60/60/60 59/59/59
f 62/62/62 61/61/61 59/59/59
f 65/65/65 64/64/64 63/63/63
f 66/66/66 65/65/65 63/63/63
f 69/69/69 68/68/68 67/67/67
f 70/70/70 69/69/69 67/67/67
f 73/73/73 72/72/72 71/71/71
f 74/74/74 73/73/73 71/71/71
f 77/77/77 76/76/76 75/75/75
f 78/78/78 77/77/77 75/75/75
f 81/81/81 80/80/80 79/79/79
f 82/82/82 81/81/81 79/79/79
f 85/85/85 84/84/84 83/83/83
f 86/86/86 85/85/85 83/83/83
f 89/89/89 88/88/88 87/87/87
f 90/90/90 89/89/89 87/87/87
f 93/93/93 92/92/92 91/91/91
f 94/94/94 93/93/93 91/91/91
f 97/97/97 96/96/96 95/95/95
f 98/98/98 97/97/97 95/95/95
f 101/101/101 100/100/100 99/99/99
f 102/102/102 101/101/101 99/99/99
f 105/105/105 104/104/104 103/103/103
f 106/106/106 105/105/105 103/103/103
f 109/109/109 108/108/108 107/107/107
f 110/110/110 109/109/109 107/107/107
f 113/113/113 112/112/112 111/111/111
f 114/114/114 113/113/113 111/111/111
f 117/117/117 116/116/116 115/115/115
f 118/118/118 117/117/117 115/115/115
f 121/121/121 120/120/120 119/119/119
f 122/122/122 121/121/121 119/119/119
f 125/125/125 124/124/124 123/123/123
f 126/126/126 125/125/125 123/123/123
f 129/129/129 128/128/128 127/127/127
f 130/130/130 129/129/129 127/127/127
f 133/133/133 132/132/132 131/131/131
f 134/134/134 133/133/133 131/131/131
f 137/137/137 136/136/136 135/135/135
f 138/138/138 137/137/137 135/135/135
f 141/141/141 140/140/140 139/139/139
f 142/142/142 141/141/141 139/139/139
f 145/145/145 144/144/144 143/143/143
f 146/146/146 145/145/145 143/143/143
f 149/149/149 148/148/148 147/147/147
f 150/150/150 149/149/149 147/147/147
f 153/153/153 152/152/152 151/151/151
f 154/154/154 153/153/153 151/151/151
f 157/157/157 156/156/156 155/155/155
f 158/158/158 157/157/157 155/155/155
f 161/161/161 160/160/160 159/159/159
f 162/162/162 161/161/161 159/159/159
f 165/165/165 164/164/164 163/163/163
f 166/166/166 165/165/165 163/163/163
f 169/169/169 168/168/168 167/167/167
f 170/170/170 169/169/169 167/167/167
f 173/173/173 172/172/172 171/171/171
f 174/174/174 173/173/173 171/171/171
f 177/177/177 176/176/176 175/175/175
f 178/178/178 177/177/177 175/175/175
f 181/181/181 180/180/180 179/179/179
f 182/182/182 181/181/181 179/179/179
f 185/185/185 184/184/184 183/183/183
f 186/186/186 185/185/185 183/183/183
f 189/189/189 188/188/188 187/187/187
f 190/190/190 188/188/188 189/189/189
f 191/191/191 190/190/190 189/189/189
f 191/191/191 189/189/189 192/192/192
f 189/189/189 187/187/187 193/193/193
f 189/189/189 193/193/193 192/192/192
