g hairBottom
v 1.8890595E-16 1.8637208 -0.15456171
v 0.08755017 1.8720596 -0.1409874
v 2.0345757E-16 1.8951163 -0.17468591
v 0.08755017 1.8720596 -0.1409874
v 0.11980023 1.9015182 -0.14810842
v 2.0345757E-16 1.8951163 -0.17468591
v 0.20616609 1.9134064 -0.08304036
v 0.11980023 1.9015182 -0.14810842
v 0.17638563 1.8711622 -0.08449243
v 0.11980023 1.9015182 -0.14810842
v 0.08755017 1.8720596 -0.1409874
v 0.17638563 1.8711622 -0.08449243
v 0.21950398 1.9348329 0.03719671
v 0.20616609 1.9134064 -0.08304036
v 0.20537885 1.880831 0.0022488094
v 0.20616609 1.9134064 -0.08304036
v 0.17638563 1.8711622 -0.08449243
v 0.20537885 1.880831 0.0022488094
v 1.8890595E-16 1.8637208 -0.15456171
v -7.0978655E-05 1.8613572 -0.13906729
v 0.08755017 1.8720596 -0.1409874
v -7.0978655E-05 1.8613572 -0.13906729
v 0.08501942 1.8597081 -0.12083949
v 0.08755017 1.8720596 -0.1409874
v 0.17638563 1.8711622 -0.08449243
v 0.08755017 1.8720596 -0.1409874
v 0.16226676 1.8613005 -0.07249961
v 0.08755017 1.8720596 -0.1409874
v 0.08501942 1.8597081 -0.12083949
v 0.16226676 1.8613005 -0.07249961
v 0.21950398 1.9348329 0.03719671
v 0.20537885 1.880831 0.0022488094
v 0.19519575 1.9334066 0.038910456
v 0.20537885 1.880831 0.0022488094
v 0.18174304 1.8771183 0.004522979
v 0.19519575 1.9334066 0.038910456
v 0.17638563 1.8711622 -0.08449243
v 0.16226676 1.8613005 -0.07249961
v 0.20537885 1.880831 0.0022488094
v 0.16226676 1.8613005 -0.07249961
v 0.18174304 1.8771183 0.004522979
v 0.20537885 1.880831 0.0022488094
v 1.8890595E-16 1.8637208 -0.15456171
v 2.0345757E-16 1.8951163 -0.17468591
v -0.08755017 1.8764524 -0.13367382
v 2.0345757E-16 1.8951163 -0.17468591
v -0.11980023 1.9015182 -0.14810842
v -0.08755017 1.8764524 -0.13367382
v -0.08496881 1.8627795 -0.12083949
v -7.0978655E-05 1.8613572 -0.13906729
v -0.08755017 1.8764524 -0.13367382
v -0.11980023 1.9015182 -0.14810842
v -0.17638563 1.8620374 -0.08449243
v -0.11980023 1.9015182 -0.14810842
v -0.20616609 1.9133894 -0.08304036
v -0.17638563 1.8620374 -0.08449243
v -0.17638563 1.8620374 -0.08449243
v -0.20616609 1.9133894 -0.08304036
v -0.20537885 1.880831 0.0022488094
v -0.20616609 1.9133894 -0.08304036
v -0.21950398 1.9326965 0.03719671
v -0.20537885 1.880831 0.0022488094
v 1.8890595E-16 1.8637208 -0.15456171
v -0.08755017 1.8764524 -0.13367382
v -7.0978655E-05 1.8613572 -0.13906729
v -0.08496881 1.8627795 -0.12083949
v -0.08755017 1.8764524 -0.13367382
v -0.16220392 1.8613005 -0.07249961
v -0.08755017 1.8764524 -0.13367382
v -0.17638563 1.8620374 -0.08449243
v -0.16220392 1.8613005 -0.07249961
v -0.18162452 1.8771183 0.0045229797
v -0.20537885 1.880831 0.0022488094
v -0.20607261 1.9332883 0.038910456
v -0.20537885 1.880831 0.0022488094
v -0.21950398 1.9326965 0.03719671
v -0.20607261 1.9332883 0.038910456
v -0.17638563 1.8620374 -0.08449243
v -0.20537885 1.880831 0.0022488094
v -0.16220392 1.8613005 -0.07249961
v -0.18162452 1.8771183 0.0045229797
v 0.22358564 1.9221282 0.100680836
v 0.19353949 1.8987795 0.10786033
v 0.21946648 1.9434924 0.21590702
v 0.19491899 1.9261804 0.22493692
v 0.21759237 1.9637674 0.20890658
v 0.21946648 1.9434924 0.21590702
v 0.19404146 1.9655747 0.22014648
v 0.21946648 1.9434924 0.21590702
v 0.19491899 1.9261804 0.22493692
v 0.19404146 1.9655747 0.22014648
v 0.22600313 1.944609 0.09396649
v 0.22358564 1.9221282 0.100680836
v 0.21759237 1.9637674 0.20890658
v 0.22358564 1.9221282 0.100680836
v 0.21946648 1.9434924 0.21590702
v 0.21759237 1.9637674 0.20890658
v -0.19491899 1.9241225 0.22494994
v -0.1956459 1.8987795 0.0998372
v -0.21946648 1.9434924 0.21252061
v -0.22358564 1.9221282 0.09845865
v -0.21759237 1.9637674 0.20890658
v -0.19337636 1.9655747 0.22014648
v -0.21946648 1.9434924 0.21252061
v -0.19337636 1.9655747 0.22014648
v -0.19491899 1.9241225 0.22494994
v -0.21946648 1.9434924 0.21252061
v -0.21946648 1.9434924 0.21252061
v -0.22358564 1.9221282 0.09845865
v -0.21759237 1.9637674 0.20890658
v -0.22358564 1.9221282 0.09845865
v -0.22600313 1.944609 0.09396649
v -0.21759237 1.9637674 0.20890658
v -0.22358564 1.9221282 0.09845865
v -0.1956459 1.8987795 0.0998372
v -0.20116024 1.944609 0.09396649
v -0.22358564 1.9221282 0.09845865
v -0.20116024 1.944609 0.09396649
v -0.22600313 1.944609 0.09396649
v 0.22600313 1.944609 0.09396649
v 0.19604723 1.9433932 0.09585261
v 0.19353949 1.8987795 0.10786033
v 0.22358564 1.9221282 0.100680836
vt 0.64320713 0.35263088
vt 0.64840037 0.3494408
vt 0.6355088 0.34062013
vt 0.64840037 0.3494408
vt 0.64567614 0.33817118
vt 0.6355088 0.34062013
vt 0.67056847 0.33362353
vt 0.64567614 0.33817118
vt 0.6700127 0.3497841
vt 0.64567614 0.33817118
vt 0.64840037 0.3494408
vt 0.6700127 0.3497841
vt 0.7165656 0.3254264
vt 0.67056847 0.33362353
vt 0.70319635 0.3460851
vt 0.67056847 0.33362353
vt 0.6700127 0.3497841
vt 0.70319635 0.3460851
vt 0.64320713 0.35263088
vt 0.6491349 0.35353503
vt 0.64840037 0.3494408
vt 0.6491349 0.35353503
vt 0.6561081 0.3541659
vt 0.64840037 0.3494408
vt 0.6700127 0.3497841
vt 0.64840037 0.3494408
vt 0.6746006 0.35355666
vt 0.64840037 0.3494408
vt 0.6561081 0.3541659
vt 0.6746006 0.35355666
vt 0.7165656 0.3254264
vt 0.70319635 0.3460851
vt 0.7172214 0.32597208
vt 0.70319635 0.3460851
vt 0.7040663 0.34750548
vt 0.7172214 0.32597208
vt 0.6700127 0.3497841
vt 0.6746006 0.35355666
vt 0.70319635 0.3460851
vt 0.6746006 0.35355666
vt 0.7040663 0.34750548
vt 0.70319635 0.3460851
vt 0.64320713 0.35263088
vt 0.6355088 0.34062013
vt 0.65119827 0.34776017
vt 0.6355088 0.34062013
vt 0.64567614 0.33817118
vt 0.65119827 0.34776017
vt 0.6561081 0.3529909
vt 0.6491349 0.35353503
vt 0.65119827 0.34776017
vt 0.64567614 0.33817118
vt 0.6700127 0.3532749
vt 0.64567614 0.33817118
vt 0.67056835 0.33362985
vt 0.6700127 0.3532749
vt 0.6700127 0.3532749
vt 0.67056835 0.33362985
vt 0.70319635 0.3460851
vt 0.67056835 0.33362985
vt 0.7165655 0.3262437
vt 0.70319635 0.3460851
vt 0.64320713 0.35263088
vt 0.65119827 0.34776017
vt 0.6491349 0.35353503
vt 0.6561081 0.3529909
vt 0.65119827 0.34776017
vt 0.6746006 0.35355666
vt 0.65119827 0.34776017
vt 0.6700127 0.3532749
vt 0.6746006 0.35355666
vt 0.7040663 0.34750548
vt 0.70319635 0.3460851
vt 0.7172214 0.32601744
vt 0.70319635 0.3460851
vt 0.7165655 0.3262437
vt 0.7172214 0.32601744
vt 0.6700127 0.3532749
vt 0.70319635 0.3460851
vt 0.6746006 0.35355666
vt 0.7040663 0.34750548
vt 0.740852 0.33028647
vt 0.7435986 0.33921888
vt 0.78493243 0.3221138
vt 0.78838676 0.3287366
vt 0.7822542 0.3143574
vt 0.78493243 0.3221138
vt 0.78655416 0.31366593
vt 0.78493243 0.3221138
vt 0.78838676 0.3287366
vt 0.78655416 0.31366593
vt 0.73828334 0.32168654
vt 0.740852 0.33028647
vt 0.7822542 0.3143574
vt 0.740852 0.33028647
vt 0.78493243 0.3221138
vt 0.7822542 0.3143574
vt 0.7883918 0.32952377
vt 0.7405292 0.33921888
vt 0.7836368 0.3221138
vt 0.7400019 0.33028677
vt 0.7822542 0.3143574
vt 0.78655416 0.31366593
vt 0.7836368 0.3221138
vt 0.78655416 0.31366593
vt 0.7883918 0.32952377
vt 0.7836368 0.3221138
vt 0.7836368 0.3221138
vt 0.7400019 0.33028677
vt 0.7822542 0.3143574
vt 0.7400019 0.33028677
vt 0.73828334 0.32168654
vt 0.7822542 0.3143574
vt 0.7400019 0.33028677
vt 0.7405292 0.33921888
vt 0.73828334 0.32168654
vt 0.7400019 0.33028677
vt 0.73828334 0.32168654
vt 0.73828334 0.32168654
vt 0.73828334 0.32168654
vt 0.7390049 0.32215166
vt 0.7435986 0.33921888
vt 0.740852 0.33028647
vn 0.17899424 -0.5309331 -0.82829416
vn 0.17899424 -0.5309331 -0.82829416
vn 0.17899424 -0.5309331 -0.82829416
vn 0.21645279 -0.44679898 -0.8680547
vn 0.21645279 -0.44679898 -0.8680547
vn 0.21645279 -0.44679898 -0.8680547
vn 0.58773834 -0.38996696 -0.708865
vn 0.58773834 -0.38996696 -0.708865
vn 0.58773834 -0.38996696 -0.708865
vn 0.4174239 -0.6180176 -0.6661918
vn 0.4174239 -0.6180176 -0.6661918
vn 0.4174239 -0.6180176 -0.6661918
vn 0.975295 -0.20921732 -0.07090615
vn 0.975295 -0.20921732 -0.07090615
vn 0.975295 -0.20921732 -0.07090615
vn 0.8030951 -0.55906624 -0.20611429
vn 0.8030951 -0.55906624 -0.20611429
vn 0.8030951 -0.55906624 -0.20611429
vn 0.11666143 -0.9818932 -0.14925072
vn 0.11666143 -0.9818932 -0.14925072
vn 0.11666143 -0.9818932 -0.14925072
vn 0.09309548 -0.85401255 -0.5118553
vn 0.09309548 -0.85401255 -0.5118553
vn 0.09309548 -0.85401255 -0.5118553
vn 0.2558821 -0.872505 -0.41624424
vn 0.2558821 -0.872505 -0.41624424
vn 0.2558821 -0.872505 -0.41624424
vn 0.3100928 -0.8273871 -0.468266
vn 0.3100928 -0.8273871 -0.468266
vn 0.3100928 -0.8273871 -0.468266
vn 0.090888724 -0.55771 0.82504475
vn 0.090888724 -0.55771 0.82504475
vn 0.090888724 -0.55771 0.82504475
vn 0.16448219 -0.54255813 0.82375747
vn 0.16448219 -0.54255813 0.82375747
vn 0.16448219 -0.54255813 0.82375747
vn 0.52385813 -0.8479854 -0.08058149
vn 0.52385813 -0.8479854 -0.08058149
vn 0.52385813 -0.8479854 -0.08058149
vn 0.16799904 -0.97314465 0.1573714
vn 0.16799904 -0.97314465 0.1573714
vn 0.16799904 -0.97314465 0.1573714
vn -0.26903728 -0.51974803 -0.81085193
vn -0.26903728 -0.51974803 -0.81085193
vn -0.26903728 -0.51974803 -0.81085193
vn -0.19531737 -0.6659272 -0.7199945
vn -0.19531737 -0.6659272 -0.7199945
vn -0.19531737 -0.6659272 -0.7199945
vn -0.16271122 -0.691438 -0.70387405
vn -0.16271122 -0.691438 -0.70387405
vn -0.25209007 -0.70567113 -0.66217726
vn -0.25209007 -0.70567113 -0.66217726
vn -0.25209007 -0.70567113 -0.66217726
vn -0.59709674 -0.3255429 -0.7331421
vn -0.59709674 -0.3255429 -0.7331421
vn -0.59709674 -0.3255429 -0.7331421
vn -0.8532617 -0.4897672 -0.17908785
vn -0.8532617 -0.4897672 -0.17908785
vn -0.8532617 -0.4897672 -0.17908785
vn -0.9736908 -0.2157388 -0.07336855
vn -0.9736908 -0.2157388 -0.07336855
vn -0.9736908 -0.2157388 -0.07336855
vn -0.17706662 -0.97282 -0.14922753
vn -0.17706662 -0.97282 -0.14922753
vn -0.17706662 -0.97282 -0.14922753
vn -0.38496077 -0.6692462 -0.6355429
vn -0.38496077 -0.6692462 -0.6355429
vn -0.38496077 -0.6692462 -0.6355429
vn 0.07638777 -0.98559386 -0.15089615
vn 0.07638777 -0.98559386 -0.15089615
vn 0.07638777 -0.98559386 -0.15089615
vn -0.16580929 -0.5663907 0.80728483
vn -0.16580929 -0.5663907 0.80728483
vn -0.16580929 -0.5663907 0.80728483
vn -0.07899736 -0.5717592 0.81660944
vn -0.07899736 -0.5717592 0.81660944
vn -0.07899736 -0.5717592 0.81660944
vn -0.17828391 -0.97231424 0.15106292
vn -0.17828391 -0.97231424 0.15106292
vn -0.17828391 -0.97231424 0.15106292
vn -0.1672062 -0.97322595 0.15771283
vn 0.6294039 -0.75971353 0.16335885
vn 0.6294039 -0.75971353 0.16335885
vn 0.6294039 -0.75971353 0.16335885
vn 0.60946894 -0.7735132 0.17385335
vn 0.42708784 0.33012846 0.8417904
vn 0.42708784 0.33012846 0.8417904
vn 0.42708784 0.33012846 0.8417904
vn 0.26559526 0.12220482 0.95630807
vn 0.26559526 0.12220482 0.95630807
vn 0.26559526 0.12220482 0.95630807
vn 0.99297875 -0.08104346 0.08616981
vn 0.99297875 -0.08104346 0.08616981
vn 0.99297875 -0.08104346 0.08616981
vn 0.99503577 0.097984426 0.017404115
vn 0.99503577 0.097984426 0.017404115
vn 0.99503577 0.097984426 0.017404115
vn -0.6587513 -0.7366313 0.15303935
vn -0.6587513 -0.7366313 0.15303935
vn -0.6587513 -0.7366313 0.15303935
vn -0.63731277 -0.7529427 0.16404212
vn -0.4248341 0.19678108 0.8836251
vn -0.4248341 0.19678108 0.8836251
vn -0.4248341 0.19678108 0.8836251
vn -0.37111273 0.120504074 0.92073566
vn -0.37111273 0.120504074 0.92073566
vn -0.37111273 0.120504074 0.92073566
vn -0.9952909 0.09522761 0.018107543
vn -0.9952909 0.09522761 0.018107543
vn -0.9952909 0.09522761 0.018107543
vn -0.992164 -0.089214206 0.087472
vn -0.992164 -0.089214206 0.087472
vn -0.992164 -0.089214206 0.087472
vn -0.04264905 -0.15468976 -0.98704207
vn -0.04264905 -0.15468976 -0.98704207
vn -0.04264905 -0.15468976 -0.98704207
vn -0.04264905 -0.15468976 -0.98704207
vn -0.04264905 -0.15468976 -0.98704207
vn -0.04264905 -0.15468976 -0.98704207
vn -0.036596213 -0.26609996 -0.96325046
vn -0.036596213 -0.26609996 -0.96325046
vn -0.036596213 -0.26609996 -0.96325046
vn -0.036596213 -0.26609996 -0.96325046
g hairBottom_0
f 3/3/3 2/2/2 1/1/1
f 6/6/6 5/5/5 4/4/4
f 9/9/9 8/8/8 7/7/7
f 12/12/12 11/11/11 10/10/10
f 15/15/15 14/14/14 13/13/13
f 18/18/18 17/17/17 16/16/16
f 21/21/21 20/20/20 19/19/19
f 24/24/24 23/23/23 22/22/22
f 27/27/27 26/26/26 25/25/25
f 30/30/30 29/29/29 28/28/28
f 33/33/33 32/32/32 31/31/31
f 36/36/36 35/35/35 34/34/34
f 39/39/39 38/38/38 37/37/37
f 42/42/42 41/41/41 40/40/40
f 45/45/45 44/44/44 43/43/43
f 48/48/48 47/47/47 46/46/46
f 50/50/50 49/49/49 48/48/48
f 53/53/53 52/52/52 51/51/51
f 56/56/56 55/55/55 54/54/54
f 59/59/59 58/58/58 57/57/57
f 62/62/62 61/61/61 60/60/60
f 65/65/65 64/64/64 63/63/63
f 68/68/68 67/67/67 66/66/66
f 71/71/71 70/70/70 69/69/69
f 74/74/74 73/73/73 72/72/72
f 77/77/77 76/76/76 75/75/75
f 80/80/80 79/79/79 78/78/78
f 80/80/80 81/81/81 79/79/79
f 84/84/84 83/83/83 82/82/82
f 84/84/84 85/85/85 83/83/83
f 88/88/88 87/87/87 86/86/86
f 91/91/91 90/90/90 89/89/89
f 94/94/94 93/93/93 92/92/92
f 97/97/97 96/96/96 95/95/95
f 100/100/100 99/99/99 98/98/98
f 100/100/100 101/101/101 99/99/99
f 104/104/104 103/103/103 102/102/102
f 107/107/107 106/106/106 105/105/105
f 110/110/110 109/109/109 108/108/108
f 113/113/113 112/112/112 111/111/111
f 116/116/116 115/115/115 114/114/114
f 119/119/119 118/118/118 117/117/117
f 122/122/122 121/121/121 120/120/120
f 123/123/123 122/122/122 120/120/120
