g islandBG
v 70.61357 -7.9962387 -30.443695
v 54.04538 -7.9962387 -55.23957
v 54.04538 38.859215 -55.23957
v 70.61357 38.859215 -30.443695
v 29.249508 38.859215 -71.80776
v 29.249508 -7.9962387 -71.80776
v 76.43172 -7.9962387 -1.1954727
v 76.43172 38.859215 -1.1954727
v 75.86989 -7.9962387 28.0551
v 75.86989 38.859215 28.0551
v 29.249508 -7.9962387 -71.80776
v -0.0010681152 -7.9962387 -77.62591
v -0.0010681152 38.859215 -77.62591
v 29.249508 38.859215 -71.80776
v -29.24929 38.859215 -71.80776
v -29.24929 -7.9962387 -71.80776
v -54.04516 38.859215 -55.23957
v -54.04516 -7.9962387 -55.23957
v -54.04516 -7.9962387 -55.23957
v -70.61335 -7.9962387 -30.443695
v -70.61335 38.859215 -30.443695
v -54.04516 38.859215 -55.23957
v -76.431496 38.859215 -1.1954727
v -76.431496 -7.9962387 -1.1954727
v -75.86967 38.859215 28.0551
v -75.86967 -7.9962387 28.0551
vt 0.20067106 0.018877937
vt 0.29983094 0.018877937
vt 0.29983094 0.9822843
vt 0.20067106 0.9822843
vt 0.39899084 0.9822843
vt 0.39899084 0.018877937
vt 0.10053902 0.018877937
vt 0.10053902 0.9822843
vt 0.0013791323 0.018877937
vt 0.0013791323 0.9822843
vt 0.39899084 0.018877937
vt 0.49815074 0.018877937
vt 0.49815074 0.9822843
vt 0.39899084 0.9822843
vt 0.59828275 0.9822843
vt 0.59828275 0.018877937
vt 0.69744265 0.9822843
vt 0.69744265 0.018877937
vt 0.69744265 0.018877937
vt 0.79660255 0.018877937
vt 0.79660255 0.9822843
vt 0.69744265 0.9822843
vt 0.8967346 0.9822843
vt 0.8967346 0.018877937
vt 0.9958945 0.9822843
vt 0.9958945 0.018877937
vn -0.92139906 0.003920853 0.38859802
vn -0.70967335 0.003920853 0.70452
vn -0.70967335 0.003920853 0.70452
vn -0.92139906 0.003920853 0.38859802
vn -0.38032216 0.003920853 0.92484576
vn -0.38032216 0.003920853 0.92484576
vn -0.9998161 0.003920853 0.018770402
vn -0.9998161 0.003920853 0.018770402
vn -0.9998161 0.003920853 -0.018770402
vn -0.9998161 0.003920853 -0.018770402
vn -0.38032216 0.003920853 0.92484576
vn -0.003920853 0.003920853 0.9999846
vn -0.003920853 0.003920853 0.9999846
vn -0.38032216 0.003920853 0.92484576
vn 0.38032222 0.003920853 0.92484576
vn 0.38032222 0.003920853 0.92484576
vn 0.7096734 0.003920853 0.70451987
vn 0.7096734 0.003920853 0.70451987
vn 0.7096734 0.003920853 0.70451987
vn 0.9213992 0.003920853 0.38859773
vn 0.9213992 0.003920853 0.38859773
vn 0.7096734 0.003920853 0.70451987
vn 0.9998161 0.003920853 0.018770402
vn 0.9998161 0.003920853 0.018770402
vn 0.9998161 0.003920853 -0.018770402
vn 0.9998161 0.003920853 -0.018770402
g islandBG_0
f 3/3/3 2/2/2 1/1/1
f 4/4/4 3/3/3 1/1/1
f 3/3/3 5/5/5 2/2/2
f 5/5/5 6/6/6 2/2/2
f 4/4/4 1/1/1 7/7/7
f 8/8/8 4/4/4 7/7/7
f 8/8/8 7/7/7 9/9/9
f 10/10/10 8/8/8 9/9/9
f 13/13/13 12/12/12 11/11/11
f 14/14/14 13/13/13 11/11/11
f 13/13/13 15/15/15 12/12/12
f 15/15/15 16/16/16 12/12/12
f 15/15/15 17/17/17 16/16/16
f 17/17/17 18/18/18 16/16/16
f 21/21/21 20/20/20 19/19/19
f 22/22/22 21/21/21 19/19/19
f 21/21/21 23/23/23 20/20/20
f 23/23/23 24/24/24 20/20/20
f 23/23/23 25/25/25 24/24/24
f 25/25/25 26/26/26 24/24/24
