g kraken2_eye
v -0.15194392 1.0793805 1.7610929
v -0.05678034 0.4271798 2.0251372
v -0.770756 0.73830533 1.7712846
v -0.61650634 1.4328356 1.3604939
v -1.3426743 1.0129786 1.1954899
v -1.0780048 1.6342292 0.6645882
v -1.6770589 1.1234608 0.4107983
v -1.3201652 1.5888984 7.6293945E-06
v -0.6825328 1.948981 0.00025773048
v -1.0780048 1.6342292 -0.66463554
v -1.6770589 1.1234608 -0.41084564
v -2.026325 0.4092977 0.00013256073
v -1.8374987 0.3936038 0.8408468
v -1.9995639 -0.32556129 0.43018103
v -1.8374987 0.3936038 -0.84083164
v -1.9995639 -0.32556129 -0.430166
v -1.3427367 1.0132914 -1.195162
v -1.3919439 0.21265578 -1.5054748
v -1.7299554 -0.25965965 -1.0884941
v -0.61650634 1.4328356 -1.3605413
v -0.770756 0.73830533 -1.7712694
v -0.15194392 1.0793805 -1.7610779
v 0.19419575 1.5511959 -1.3605413
v 0.54052293 0.93007016 -1.7712694
v -0.05678034 0.4271798 -2.025122
v 1.0150894 1.3569925 -1.195162
v 1.2908256 0.6039386 -1.5054748
v 1.6611 0.9140637 -0.84083164
v 1.7462593 0.25479794 -1.0884941
v 2.0075521 0.29262567 -0.430166
v 1.8514268 -0.4015919 -0.84083164
v 1.8115982 1.0107903 7.009506E-05
v 2.0075521 0.29262567 0.43018103
v 2.0231836 -0.45173717 -0.00011754036
v 1.6611 0.9140637 0.8408468
v 1.7462593 0.25479794 1.0885091
v 1.8514268 -0.4015919 0.8408468
v 1.2982662 1.5647638 -0.41084564
v 1.2982662 1.5647638 0.4107983
v 0.828264 1.9015245 7.6293945E-06
v 0.58166456 1.8759518 -0.66463554
v 0.11997831 2.0075047 0.00025773048
v -0.2729926 1.9164057 -0.6757026
v 0.58166456 1.8759518 0.6645882
v 1.2908256 0.6039386 1.5054898
v 1.015152 1.3566172 1.1954899
v 0.19419575 1.5511959 1.3604939
v 0.54052293 0.93007016 1.7712846
v -0.2729926 1.9164057 0.6756551
v 0.7347889 0.107738495 1.9341629
v 1.4084356 -0.20913935 1.5054898
v 0.066456795 -0.42491388 2.0251372
v -0.72304916 -0.105472445 1.9341629
v -1.3919439 0.21265578 1.5054898
v -1.7299554 -0.25965965 1.0885091
v 0.16061974 -1.0773646 1.7610929
v 0.066456795 -0.42491388 2.0251372
v 0.7813076 -0.73466384 1.7712846
v 0.62612 -1.4313198 1.3604939
v -0.18526983 -1.5515559 1.3604939
v -0.5297837 -0.9289297 1.7712846
v -1.002662 -1.3565397 1.1951771
v -0.5728011 -1.8781251 0.6645882
v -1.2847757 -1.5733771 0.4107983
v -0.8187754 -1.9036354 7.6293945E-06
v -1.2847757 -1.5733771 -0.41084564
v -1.8028598 -1.0518543 -0.00011754036
v -1.6449835 -0.9224895 -0.84083164
v -1.9995639 -0.32556129 -0.430166
v -1.7299554 -0.25965965 -1.0884941
v -1.9995639 -0.32556129 0.43018103
v -1.6449835 -0.9224895 0.8408468
v -1.7299554 -0.25965965 1.0885091
v -1.8374987 0.3936038 0.8408468
v -1.8374987 0.3936038 -0.84083164
v -2.026325 0.4092977 0.00013256073
v -1.275147 -0.60142255 -1.5054748
v -0.5728011 -1.8781251 -0.66463554
v -1.002662 -1.356227 -1.1955372
v -0.5297837 -0.9289297 -1.7712694
v -0.18526983 -1.5515559 -1.3605413
v 0.16061974 -1.0773646 -1.7610779
v 0.066456795 -0.42491388 -2.025122
v 0.6260575 -1.4313198 -1.3605413
v 0.7813076 -0.73466384 -1.7712694
v 1.357415 -1.009087 -1.1955372
v 1.0889317 -1.6299624 -0.66463554
v 1.6879233 -1.1284477 -0.41084564
v 1.332655 -1.5846317 7.6293945E-06
v 0.7189075 -1.9402126 -0.0002424717
v 1.6879233 -1.1284477 0.4107983
v 2.0231836 -0.45173717 -0.00011754036
v 1.8514268 -0.4015919 0.8408468
v 2.0075521 0.29262567 0.43018103
v 1.8514268 -0.4015919 -0.84083164
v 2.0075521 0.29262567 -0.430166
v 1.4084356 -0.20913935 -1.5054748
v 1.7462593 0.25479794 -1.0884941
v 0.28085577 -1.9173908 -0.73866546
v -0.1317482 -2.0712655 -0.0002424717
v 1.0889317 -1.6299624 0.6645882
v 1.3574775 -1.0093997 1.1951771
v 1.4084356 -0.20913935 1.5054898
v 1.7462593 0.25479794 1.0885091
v 0.28110588 -1.9173908 0.7386806
v 0.7347889 0.107738495 1.9341629
v -0.72304916 -0.105472445 1.9341629
v -1.275147 -0.60142255 1.5054898
v -1.3919439 0.21265578 1.5054898
v -0.05678034 0.4271798 2.0251372
v 1.4084356 -0.20913935 -1.5054748
v 0.7347263 0.107738495 -1.9341476
v 0.066456795 -0.42491388 -2.025122
v -0.7229867 -0.10597265 -1.9341476
v 0.7347263 0.107738495 -1.9341476
v -0.05678034 0.4271798 -2.025122
v -0.7229867 -0.10597265 -1.9341476
v -1.3919439 0.21265578 -1.5054748
vt 0.9652325 0.07698747
vt 0.9747021 0.08077529
vt 0.9652325 0.053313557
vt 0.9510282 0.058995295
vt 0.9443995 0.03153356
vt 0.92451334 0.04195008
vt 0.91504383 0.019223128
vt 0.89989257 0.032480516
vt 0.89989257 0.056154426
vt 0.8752717 0.04195008
vt 0.8847412 0.019223128
vt 0.89989257 0.0059657395
vt 0.9311421 0.01354139
vt 0.91504383 0.0069126957
vt 0.8686429 0.0125944335
vt 0.8828473 0.0069126957
vt 0.85538554 0.03153356
vt 0.84307516 0.029639648
vt 0.8582264 0.017329216
vt 0.8497038 0.058995295
vt 0.8336055 0.0523666
vt 0.8336055 0.07604051
vt 0.8487569 0.0892979
vt 0.8336055 0.10160833
vt 0.824136 0.07982834
vt 0.85538554 0.1196005
vt 0.84307516 0.13001701
vt 0.86769605 0.14422137
vt 0.8582264 0.14706223
vt 0.8828473 0.1565318
vt 0.86674905 0.15085006
vt 0.89894557 0.1499031
vt 0.91504383 0.15747875
vt 0.8979986 0.15747875
vt 0.9301951 0.14422137
vt 0.9396647 0.14706223
vt 0.9292482 0.15179701
vt 0.8847412 0.13001701
vt 0.91504383 0.13001701
vt 0.89989257 0.112971805
vt 0.8752717 0.103502244
vt 0.89989257 0.08645703
vt 0.8752717 0.07130573
vt 0.92451334 0.103502244
vt 0.954816 0.13096398
vt 0.9443995 0.12054746
vt 0.9510282 0.0892979
vt 0.9652325 0.10255529
vt 0.92546034 0.07225268
vt 0.97091424 0.110130936
vt 0.954816 0.1347518
vt 0.9737551 0.085510075
vt 0.97091424 0.05520747
vt 0.955763 0.030586604
vt 0.9396647 0.017329216
vt 0.9642856 0.088350944
vt 0.9737551 0.085510075
vt 0.9642856 0.11202485
vt 0.94818735 0.10634311
vt 0.94913423 0.07604051
vt 0.9642856 0.06278312
vt 0.9425056 0.04479095
vt 0.92261946 0.060889207
vt 0.91314995 0.03437443
vt 0.8979986 0.051419646
vt 0.8828473 0.03437443
vt 0.89894557 0.014488347
vt 0.86769605 0.020170085
vt 0.8828473 0.0069126957
vt 0.8582264 0.017329216
vt 0.91504383 0.0069126957
vt 0.9301951 0.02111704
vt 0.9396647 0.017329216
vt 0.9311421 0.01354139
vt 0.8686429 0.0125944335
vt 0.89989257 0.0059657395
vt 0.84307516 0.03437443
vt 0.8733778 0.060889207
vt 0.85349166 0.04479095
vt 0.83265865 0.061836164
vt 0.8478099 0.07509355
vt 0.83265865 0.088350944
vt 0.823189 0.084563114
vt 0.8468629 0.10539616
vt 0.83265865 0.11107789
vt 0.85349166 0.13285789
vt 0.8733778 0.12244137
vt 0.8828473 0.14516832
vt 0.8979986 0.13191094
vt 0.8979986 0.10918398
vt 0.91314995 0.14516832
vt 0.8979986 0.15747875
vt 0.9292482 0.15179701
vt 0.91504383 0.15747875
vt 0.86674905 0.15085006
vt 0.8828473 0.1565318
vt 0.84212816 0.1347518
vt 0.8582264 0.14706223
vt 0.8705369 0.09308572
vt 0.8979986 0.07793442
vt 0.92261946 0.12338833
vt 0.9425056 0.13285789
vt 0.954816 0.1347518
vt 0.9396647 0.14706223
vt 0.92546034 0.09308572
vt 0.97091424 0.110130936
vt 0.97091424 0.05520747
vt 0.954816 0.03437443
vt 0.955763 0.030586604
vt 0.9747021 0.08077529
vt 0.84212816 0.1347518
vt 0.8269769 0.10918398
vt 0.823189 0.084563114
vt 0.8269769 0.054260515
vt 0.8269769 0.10918398
vt 0.824136 0.07982834
vt 0.8269769 0.054260515
vt 0.84307516 0.029639648
vn -0.07435304 0.5211851 0.8501986
vn -0.02731818 0.1762622 0.9839641
vn -0.40359777 0.3330453 0.8521676
vn -0.31736702 0.7171641 0.62044644
vn -0.65445083 0.48982853 0.57598794
vn -0.5055068 0.78771645 0.35208753
vn -0.8269122 0.5133459 0.22954777
vn -0.6387724 0.76419896 -0.089273386
vn -0.29384953 0.95233876 0.081874155
vn -0.5055068 0.78771645 -0.35208753
vn -0.8269122 0.5133459 -0.22954777
vn -0.97585624 0.21545798 0.035811152
vn -0.8896255 0.22329706 0.39837784
vn -0.96801716 -0.14514333 0.2046368
vn -0.8896255 0.22329706 -0.39837784
vn -0.96801716 -0.14514333 -0.2046368
vn -0.65445083 0.48982853 -0.57598794
vn -0.6622899 0.12138802 -0.739349
vn -0.8347514 -0.12162584 -0.5370262
vn -0.31736702 0.7171641 -0.62044644
vn -0.40359777 0.3330453 -0.8521676
vn -0.07435304 0.5211851 -0.8501986
vn 0.09810841 0.77203816 -0.6279585
vn 0.29408735 0.43495435 -0.8510743
vn -0.02731818 0.1762622 -0.9839641
vn 0.4900663 0.65445083 -0.57578564
vn 0.59197533 0.3095278 -0.74414897
vn 0.7879543 0.46631104 -0.40209708
vn 0.8428284 0.12138802 -0.5243141
vn 0.97609407 0.14490551 -0.1619962
vn 0.8898634 -0.22353488 -0.39771262
vn 0.8723847 0.48881978 -0
vn 0.97609407 0.1370663 0.16868077
vn 0.97609407 -0.21569574 -0.02675304
vn 0.7879543 0.46631104 0.40209708
vn 0.8428284 0.12138802 0.5243141
vn 0.8898634 -0.22353488 0.39771262
vn 0.64684945 0.7328424 -0.21101618
vn 0.64684945 0.7328424 0.21101618
vn 0.36463976 0.92882127 -0.06579442
vn 0.24705237 0.9053039 -0.3455286
vn 0.035395134 0.9993734 -0
vn -0.12922722 0.93666047 -0.32552654
vn 0.24705237 0.9053039 0.3455286
vn 0.59197533 0.30168873 0.7473614
vn 0.4900663 0.65445083 0.57578564
vn 0.09810841 0.77203816 0.6279585
vn 0.29408735 0.43495435 0.8510743
vn -0.12922722 0.93666047 0.32552654
vn 0.35680062 0.05083567 0.93279636
vn 0.6546886 -0.12162584 0.7460496
vn 0.027555943 -0.16866082 0.9852889
vn -0.3565628 -0.051073432 0.9328743
vn -0.6622899 0.12138802 0.739349
vn -0.8347514 -0.12162584 0.5370262
vn 0.07459092 -0.5214229 0.850032
vn 0.027555943 -0.16866082 0.9852889
vn 0.40383554 -0.33328313 0.851962
vn 0.32544398 -0.7017236 0.63377464
vn -0.10570973 -0.76443684 0.6359731
vn -0.29384953 -0.43519217 0.8510348
vn -0.48982853 -0.6546886 0.5757177
vn -0.26249284 -0.8977025 0.35387525
vn -0.63093334 -0.74091935 0.23013398
vn -0.39471966 -0.91880167 -0
vn -0.63093334 -0.74091935 -0.23013398
vn -0.866108 -0.49790543 -0.04412635
vn -0.78771645 -0.4665488 -0.4022872
vn -0.96801716 -0.14514333 -0.2046368
vn -0.8347514 -0.12162584 -0.5370262
vn -0.96801716 -0.14514333 0.2046368
vn -0.78771645 -0.4665488 0.4022872
vn -0.8347514 -0.12162584 0.5370262
vn -0.8896255 0.22329706 0.39837784
vn -0.8896255 0.22329706 -0.39837784
vn -0.97585624 0.21545798 0.035811152
vn -0.59957665 -0.3019265 -0.7411803
vn -0.26249284 -0.8977025 -0.35387525
vn -0.48982853 -0.6546886 -0.5757177
vn -0.29384953 -0.43519217 -0.8510348
vn -0.10570973 -0.76443684 -0.6359731
vn 0.07459092 -0.5214229 -0.850032
vn 0.027555943 -0.16866082 -0.9852889
vn 0.32544398 -0.7017236 -0.63377464
vn 0.40383554 -0.33328313 -0.851962
vn 0.6546886 -0.4900663 -0.57551533
vn 0.5135838 -0.7879543 -0.33964646
vn 0.8271501 -0.5214229 -0.20962071
vn 0.6390103 -0.76443684 0.085452706
vn 0.31760478 -0.94473743 -0.081230246
vn 0.8271501 -0.5214229 0.20962071
vn 0.97609407 -0.21569574 -0.02675304
vn 0.8898634 -0.22353488 0.39771262
vn 0.97609407 0.1370663 0.16868077
vn 0.8898634 -0.22353488 -0.39771262
vn 0.97609407 0.14490551 -0.1619962
vn 0.6546886 -0.12162584 -0.7460496
vn 0.8428284 0.12138802 -0.5243141
vn 0.13730419 -0.92121994 -0.36400744
vn -0.02731818 -0.99961156 0.0055134716
vn 0.5135838 -0.7879543 0.33964646
vn 0.6546886 -0.4900663 0.57551533
vn 0.6546886 -0.12162584 0.7460496
vn 0.8428284 0.12138802 0.5243141
vn 0.13730419 -0.92121994 0.36400744
vn 0.35680062 0.05083567 0.93279636
vn -0.3565628 -0.051073432 0.9328743
vn -0.59957665 -0.3019265 0.7411803
vn -0.6622899 0.12138802 0.739349
vn -0.02731818 0.1762622 0.9839641
vn 0.6546886 -0.12162584 -0.7460496
vn 0.35680062 0.05083567 -0.93279636
vn 0.027555943 -0.16866082 -0.9852889
vn -0.3565628 -0.051073432 -0.9328743
vn 0.35680062 0.05083567 -0.93279636
vn -0.02731818 0.1762622 -0.9839641
vn -0.3565628 -0.051073432 -0.9328743
vn -0.6622899 0.12138802 -0.739349
g kraken2_eye_0
f 3/3/3 2/2/2 1/1/1
f 3/3/3 1/1/1 4/4/4
f 5/5/5 3/3/3 4/4/4
f 5/5/5 4/4/4 6/6/6
f 5/5/5 6/6/6 7/7/7
f 6/6/6 8/8/8 7/7/7
f 6/6/6 9/9/9 8/8/8
f 9/9/9 10/10/10 8/8/8
f 11/11/11 7/7/7 8/8/8
f 11/11/11 8/8/8 10/10/10
f 11/11/11 12/12/12 7/7/7
f 12/12/12 13/13/13 7/7/7
f 5/5/5 7/7/7 13/13/13
f 12/12/12 14/14/14 13/13/13
f 11/11/11 15/15/15 12/12/12
f 12/12/12 15/15/15 16/16/16
f 17/17/17 15/15/15 11/11/11
f 17/17/17 11/11/11 10/10/10
f 17/17/17 18/18/18 15/15/15
f 18/18/18 19/19/19 15/15/15
f 17/17/17 10/10/10 20/20/20
f 21/21/21 18/18/18 17/17/17
f 21/21/21 17/17/17 20/20/20
f 21/21/21 20/20/20 22/22/22
f 23/23/23 22/22/22 20/20/20
f 24/24/24 22/22/22 23/23/23
f 24/24/24 25/25/25 22/22/22
f 21/21/21 22/22/22 25/25/25
f 26/26/26 24/24/24 23/23/23
f 26/26/26 27/27/27 24/24/24
f 26/26/26 28/28/28 27/27/27
f 28/28/28 29/29/29 27/27/27
f 30/30/30 29/29/29 28/28/28
f 31/31/31 29/29/29 30/30/30
f 32/32/32 30/30/30 28/28/28
f 32/32/32 33/33/33 30/30/30
f 34/34/34 30/30/30 33/33/33
f 32/32/32 35/35/35 33/33/33
f 35/35/35 36/36/36 33/33/33
f 33/33/33 36/36/36 37/37/37
f 32/32/32 28/28/28 38/38/38
f 38/38/38 28/28/28 26/26/26
f 39/39/39 35/35/35 32/32/32
f 39/39/39 32/32/32 38/38/38
f 39/39/39 38/38/38 40/40/40
f 38/38/38 41/41/41 40/40/40
f 38/38/38 26/26/26 41/41/41
f 26/26/26 23/23/23 41/41/41
f 42/42/42 40/40/40 41/41/41
f 43/43/43 42/42/42 41/41/41
f 43/43/43 41/41/41 23/23/23
f 43/43/43 23/23/23 20/20/20
f 43/43/43 20/20/20 10/10/10
f 9/9/9 42/42/42 43/43/43
f 9/9/9 43/43/43 10/10/10
f 39/39/39 40/40/40 44/44/44
f 44/44/44 40/40/40 42/42/42
f 45/45/45 36/36/36 35/35/35
f 46/46/46 45/45/45 35/35/35
f 46/46/46 39/39/39 44/44/44
f 46/46/46 35/35/35 39/39/39
f 46/46/46 44/44/44 47/47/47
f 48/48/48 45/45/45 46/46/46
f 48/48/48 46/46/46 47/47/47
f 48/48/48 47/47/47 1/1/1
f 4/4/4 1/1/1 47/47/47
f 49/49/49 4/4/4 47/47/47
f 49/49/49 47/47/47 44/44/44
f 49/49/49 44/44/44 42/42/42
f 49/49/49 42/42/42 9/9/9
f 6/6/6 4/4/4 49/49/49
f 6/6/6 49/49/49 9/9/9
f 48/48/48 1/1/1 2/2/2
f 50/50/50 45/45/45 48/48/48
f 50/50/50 48/48/48 2/2/2
f 50/50/50 51/51/51 45/45/45
f 51/51/51 36/36/36 45/45/45
f 50/50/50 2/2/2 52/52/52
f 3/3/3 53/53/53 2/2/2
f 3/3/3 54/54/54 53/53/53
f 54/54/54 3/3/3 5/5/5
f 54/54/54 5/5/5 13/13/13
f 54/54/54 13/13/13 55/55/55
f 58/58/58 57/57/57 56/56/56
f 59/59/59 58/58/58 56/56/56
f 60/60/60 59/59/59 56/56/56
f 61/61/61 60/60/60 56/56/56
f 61/61/61 56/56/56 57/57/57
f 61/61/61 62/62/62 60/60/60
f 62/62/62 63/63/63 60/60/60
f 62/62/62 64/64/64 63/63/63
f 64/64/64 65/65/65 63/63/63
f 64/64/64 66/66/66 65/65/65
f 64/64/64 67/67/67 66/66/66
f 67/67/67 68/68/68 66/66/66
f 67/67/67 69/69/69 68/68/68
f 69/69/69 70/70/70 68/68/68
f 67/67/67 71/71/71 69/69/69
f 67/67/67 72/72/72 71/71/71
f 64/64/64 72/72/72 67/67/67
f 62/62/62 72/72/72 64/64/64
f 72/72/72 73/73/73 71/71/71
f 71/71/71 73/73/73 74/74/74
f 75/75/75 70/70/70 69/69/69
f 76/76/76 69/69/69 71/71/71
f 68/68/68 70/70/70 77/77/77
f 78/78/78 65/65/65 66/66/66
f 79/79/79 78/78/78 66/66/66
f 79/79/79 66/66/66 68/68/68
f 79/79/79 68/68/68 77/77/77
f 79/79/79 77/77/77 80/80/80
f 81/81/81 78/78/78 79/79/79
f 81/81/81 79/79/79 80/80/80
f 81/81/81 80/80/80 82/82/82
f 80/80/80 83/83/83 82/82/82
f 81/81/81 82/82/82 84/84/84
f 85/85/85 84/84/84 82/82/82
f 85/85/85 82/82/82 83/83/83
f 85/85/85 86/86/86 84/84/84
f 86/86/86 87/87/87 84/84/84
f 86/86/86 88/88/88 87/87/87
f 88/88/88 89/89/89 87/87/87
f 90/90/90 87/87/87 89/89/89
f 88/88/88 91/91/91 89/89/89
f 88/88/88 92/92/92 91/91/91
f 92/92/92 93/93/93 91/91/91
f 92/92/92 94/94/94 93/93/93
f 88/88/88 95/95/95 92/92/92
f 86/86/86 95/95/95 88/88/88
f 92/92/92 95/95/95 96/96/96
f 86/86/86 97/97/97 95/95/95
f 85/85/85 97/97/97 86/86/86
f 97/97/97 98/98/98 95/95/95
f 99/99/99 84/84/84 87/87/87
f 90/90/90 99/99/99 87/87/87
f 99/99/99 81/81/81 84/84/84
f 99/99/99 78/78/78 81/81/81
f 99/99/99 100/100/100 78/78/78
f 90/90/90 100/100/100 99/99/99
f 100/100/100 65/65/65 78/78/78
f 101/101/101 89/89/89 91/91/91
f 90/90/90 89/89/89 101/101/101
f 102/102/102 101/101/101 91/91/91
f 102/102/102 91/91/91 93/93/93
f 102/102/102 93/93/93 103/103/103
f 93/93/93 104/104/104 103/103/103
f 102/102/102 103/103/103 58/58/58
f 59/59/59 101/101/101 102/102/102
f 59/59/59 102/102/102 58/58/58
f 63/63/63 65/65/65 100/100/100
f 105/105/105 63/63/63 100/100/100
f 105/105/105 101/101/101 59/59/59
f 105/105/105 100/100/100 90/90/90
f 105/105/105 90/90/90 101/101/101
f 60/60/60 63/63/63 105/105/105
f 60/60/60 105/105/105 59/59/59
f 58/58/58 103/103/103 106/106/106
f 58/58/58 106/106/106 57/57/57
f 107/107/107 61/61/61 57/57/57
f 107/107/107 108/108/108 61/61/61
f 61/61/61 108/108/108 62/62/62
f 62/62/62 108/108/108 72/72/72
f 108/108/108 73/73/73 72/72/72
f 109/109/109 73/73/73 108/108/108
f 107/107/107 109/109/109 108/108/108
f 107/107/107 57/57/57 110/110/110
f 27/27/27 29/29/29 111/111/111
f 112/112/112 27/27/27 111/111/111
f 24/24/24 27/27/27 112/112/112
f 24/24/24 112/112/112 25/25/25
f 112/112/112 113/113/113 25/25/25
f 114/114/114 21/21/21 25/25/25
f 114/114/114 18/18/18 21/21/21
f 115/115/115 97/97/97 85/85/85
f 115/115/115 85/85/85 83/83/83
f 117/117/117 116/116/116 83/83/83
f 80/80/80 117/117/117 83/83/83
f 80/80/80 77/77/77 117/117/117
f 117/117/117 77/77/77 118/118/118
f 77/77/77 70/70/70 118/118/118
