g lavaCaveBanner02
v -0.3710227 -1.6474638 0.036346912
v -0.3710227 -3.385544E-05 0.0198102
v 3.385544E-05 -1.6474638 0.033293724
v 3.385544E-05 -3.385544E-05 0.02731514
v -0.3710227 -2.8754992 0.0204463
v 0.3710904 -3.385544E-05 0.041689396
v 0.3710904 -1.6474638 0.04639578
v 0.3710904 -2.9170952 0.048812866
v -0.71536636 -1.6474638 0.04868555
v -0.71536636 -3.385544E-05 0.04257965
v -0.3710227 -1.6474638 0.036346912
v -0.3710227 -3.385544E-05 0.0198102
v 0.71530676 -1.6474638 0.035583496
v 0.71530676 -3.385544E-05 0.021336555
v 0.9536886 -1.6474638 0.016630173
v 0.71530676 -3.0184774 0.026679039
v 0.71530676 -3.385544E-05 0.021336555
v 0.9536886 -3.385544E-05 0.014340401
v 0.9536886 -1.6474638 0.016630173
v -0.3710227 -5.592976 0.025025368
v 3.385544E-05 -5.7092414 0.011287212
v 3.385544E-05 -6.415101 0.030749798
v -0.3710227 -5.0276775 0.0028920174
v 0.4769249 -6.485954 0.036219597
v 0.19033241 -7.1056957 0.027187824
v 0.23841572 -6.557061 0.01510334
v 0.71530676 -5.674896 0.022990227
v 0.19033241 -7.1056957 0.027187824
v 3.385544E-05 -7.0433655 0.01230526
v 0.23841572 -6.557061 0.01510334
v -0.3710227 -5.0276775 0.0028920174
v 3.385544E-05 -4.855315 0.039654255
v 3.385544E-05 -5.7092414 0.011287212
v -0.3710227 -3.983199 0.009124756
v 0.9536886 -5.6053147 0.004418373
v 0.71530676 -5.674896 0.022990227
v 0.9536886 -4.9778137 0.030241013
v 0.71530676 -5.674896 0.022990227
v 0.71530676 -4.8118114 0.016757011
v 0.9536886 -4.9778137 0.030241013
v 0.9536886 -4.006732 0.019937515
v -0.3710227 -3.983199 0.009124756
v 3.385544E-05 -4.160395 0.03443861
v 3.385544E-05 -4.855315 0.039654255
v 3.385544E-05 -3.0165691 0.024135113
v 0.71530676 -4.8118114 0.016757011
v 0.71530676 -4.1349545 0.033929825
v 0.9536886 -4.006732 0.019937515
v 0.71530676 -3.0184774 0.026679039
v -0.3710227 -3.983199 0.009124756
v -0.3710227 -2.8754992 0.0204463
v 3.385544E-05 -3.0165691 0.024135113
v 3.385544E-05 -1.6474638 0.033293724
v 0.71530676 -3.0184774 0.026679039
v 0.9536886 -3.0632534 0.008489132
v 0.9536886 -4.006732 0.019937515
v 0.9536886 -1.6474638 0.016630173
v -0.71536636 -3.0523138 0.046523094
v -0.71536636 -1.6474638 0.04868555
v -0.3710227 -2.8754992 0.0204463
v -0.3710227 -3.983199 0.009124756
v -0.71536636 -4.124905 0.030749798
v -0.71536636 -3.0523138 0.046523094
v -0.3710227 -3.983199 0.009124756
v -0.3710227 -5.0276775 0.0028920174
v -0.71536636 -5.075125 0.023753643
v -0.71536636 -4.124905 0.030749798
v -0.3710227 -5.0276775 0.0028920174
v -0.3710227 -5.592976 0.025025368
v -0.71536636 -5.674896 0.008997917
v -0.71536636 -5.075125 0.023753643
v -0.3710227 -5.592976 0.025025368
v -0.23847532 -6.485954 0.03342104
v -0.3710227 -5.592976 0.025025368
v 3.385544E-05 -6.415101 0.030749798
v -0.23847532 -6.485954 0.03342104
v 3.385544E-05 -7.0433655 0.01230526
v 3.385544E-05 -3.0165691 0.024135113
v 3.385544E-05 -1.6474638 0.033293724
v 0.3710904 -2.9170952 0.048812866
v 0.3710904 -3.941603 0.04461527
v 3.385544E-05 -4.160395 0.03443861
v 3.385544E-05 -3.0165691 0.024135113
v 0.3710904 -3.941603 0.04461527
v 0.3710904 -4.9858274 0.01230526
v 3.385544E-05 -4.855315 0.039654255
v 3.385544E-05 -4.160395 0.03443861
v 0.3710904 -4.9858274 0.01230526
v 3.385544E-05 -5.7092414 0.011287212
v 0.3710904 -5.577839 0.022862911
v 3.385544E-05 -5.7092414 0.011287212
v 0.3710904 -4.9858274 0.01230526
v 3.385544E-05 -6.415101 0.030749798
v -0.71536636 -1.6474638 0.04868555
v -0.95374775 -1.6474638 0.030749798
v -0.71536636 -3.385544E-05 0.04257965
v -0.95374775 -3.385544E-05 0.024007797
v -0.95374775 -2.956656 0.019174099
v -0.71536636 -3.0523138 0.046523094
v -0.95374775 -2.956656 0.019174099
v -0.71536636 -1.6474638 0.04868555
v -0.95374775 -3.9638636 0.027442455
v -0.71536636 -4.124905 0.030749798
v -0.95374775 -3.9638636 0.027442455
v -0.71536636 -3.0523138 0.046523094
v -0.95374775 -4.2798405 0.029223442
v -0.71536636 -5.075125 0.023753643
v -0.95374775 -4.9778137 0.035964966
v -0.95374775 -4.2798405 0.029223442
v -0.71536636 -5.075125 0.023753643
v -0.95374775 -5.674896 0.030749798
v -0.71536636 -5.674896 0.008997917
v -0.95374775 -5.674896 0.030749798
v -0.71536636 -5.075125 0.023753643
v -0.95374775 -5.674896 0.030749798
v -0.71536636 -5.674896 0.008997917
v -0.4768572 -6.4460115 0.032276154
v -0.71536636 -5.674896 0.008997917
v -0.23847532 -6.485954 0.03342104
v -0.4768572 -6.4460115 0.032276154
v 0.3710904 -1.6474638 0.04639578
v 0.3710904 -3.385544E-05 0.041689396
v 0.71530676 -1.6474638 0.035583496
v 0.71530676 -3.385544E-05 0.021336555
v 0.3710904 -2.9170952 0.048812866
v 0.71530676 -3.0184774 0.026679039
v 0.3710904 -2.9170952 0.048812866
v 0.71530676 -1.6474638 0.035583496
v 0.3710904 -3.941603 0.04461527
v 0.71530676 -4.1349545 0.033929825
v 0.3710904 -3.941603 0.04461527
v 0.71530676 -3.0184774 0.026679039
v 0.3710904 -4.9858274 0.01230526
v 0.71530676 -4.8118114 0.016757011
v 0.3710904 -4.9858274 0.01230526
v 0.71530676 -4.1349545 0.033929825
v 0.71530676 -5.674896 0.022990227
v 0.3710904 -5.577839 0.022862911
v 0.3710904 -4.9858274 0.01230526
v 0.71530676 -5.674896 0.022990227
v 0.23841572 -6.557061 0.01510334
v 0.23841572 -6.557061 0.01510334
v 3.385544E-05 -6.415101 0.030749798
v 0.3710904 -5.577839 0.022862911
v 3.385544E-05 -7.0433655 0.01230526
v -0.3570299 -6.7451973 0.008107185
v -0.23847532 -6.485954 0.03342104
v -0.12170124 -7.382621 0.030113697
v -0.23847532 -6.485954 0.03342104
v 3.385544E-05 -7.0433655 0.01230526
v -0.12170124 -7.382621 0.030113697
v 0.84798145 -5.8547635 0.030241013
v 0.4769249 -6.485954 0.036219597
v 0.71530676 -5.674896 0.022990227
vt 0.8024174 0.89211154
vt 0.8024174 0.95129126
vt 0.81906164 0.89211154
vt 0.81906164 0.95129126
vt 0.8024174 0.84587747
vt 0.83663064 0.95129126
vt 0.83663064 0.89211154
vt 0.83663064 0.84587747
vt 0.7940953 0.89211154
vt 0.7940953 0.95129126
vt 0.8024174 0.89211154
vt 0.8024174 0.95129126
vt 0.51576585 0.8708439
vt 0.51576585 0.9078312
vt 0.5213139 0.8708439
vt 0.51576585 0.8421787
vt 0.51576585 0.9078312
vt 0.5213139 0.9078312
vt 0.5213139 0.8708439
vt 0.8024174 0.74786115
vt 0.81906164 0.74786115
vt 0.81906164 0.71919596
vt 0.8024174 0.7728275
vt 0.5102177 0.7635807
vt 0.50466967 0.7497105
vt 0.5055943 0.7635807
vt 0.51576585 0.7811497
vt 0.50466967 0.7497105
vt 0.50004625 0.75063515
vt 0.5055943 0.7635807
vt 0.8024174 0.7728275
vt 0.81906164 0.7728275
vt 0.81906164 0.74786115
vt 0.8024174 0.8051914
vt 0.5213139 0.7811497
vt 0.51576585 0.7811497
vt 0.5213139 0.7968693
vt 0.51576585 0.7811497
vt 0.51576585 0.7968693
vt 0.5213139 0.7968693
vt 0.5213139 0.81628764
vt 0.8024174 0.8051914
vt 0.81906164 0.8051914
vt 0.81906164 0.7728275
vt 0.81906164 0.84587747
vt 0.51576585 0.7968693
vt 0.51576585 0.81628764
vt 0.5213139 0.81628764
vt 0.51576585 0.8421787
vt 0.8024174 0.8051914
vt 0.8024174 0.84587747
vt 0.81906164 0.84587747
vt 0.81906164 0.89211154
vt 0.51576585 0.8421787
vt 0.5213139 0.8421787
vt 0.5213139 0.81628764
vt 0.5213139 0.8708439
vt 0.7940953 0.84587747
vt 0.7940953 0.89211154
vt 0.8024174 0.84587747
vt 0.8024174 0.8051914
vt 0.7940953 0.8051914
vt 0.7940953 0.84587747
vt 0.8024174 0.8051914
vt 0.8024174 0.7728275
vt 0.7940953 0.7728275
vt 0.7940953 0.8051914
vt 0.8024174 0.7728275
vt 0.8024174 0.74786115
vt 0.7940953 0.74786115
vt 0.7940953 0.7728275
vt 0.8024174 0.74786115
vt 0.8107395 0.71919596
vt 0.8024174 0.74786115
vt 0.81906164 0.71919596
vt 0.8107395 0.71919596
vt 0.81906164 0.69885296
vt 0.81906164 0.84587747
vt 0.81906164 0.89211154
vt 0.83663064 0.84587747
vt 0.83663064 0.8051914
vt 0.81906164 0.8051914
vt 0.81906164 0.84587747
vt 0.83663064 0.8051914
vt 0.83663064 0.7728275
vt 0.81906164 0.7728275
vt 0.81906164 0.8051914
vt 0.83663064 0.7728275
vt 0.81906164 0.74786115
vt 0.83663064 0.74786115
vt 0.81906164 0.74786115
vt 0.83663064 0.7728275
vt 0.81906164 0.71919596
vt 0.48432663 0.8708439
vt 0.47877854 0.8708439
vt 0.48432663 0.9078312
vt 0.47877854 0.9078312
vt 0.47877854 0.8421787
vt 0.48432663 0.8421787
vt 0.47877854 0.8421787
vt 0.48432663 0.8708439
vt 0.47877854 0.81628764
vt 0.48432663 0.81628764
vt 0.47877854 0.81628764
vt 0.48432663 0.8421787
vt 0.47877854 0.8107395
vt 0.48432663 0.7968693
vt 0.47877854 0.7968693
vt 0.47877854 0.8107395
vt 0.48432663 0.7968693
vt 0.47877854 0.7811497
vt 0.48432663 0.7811497
vt 0.47877854 0.7811497
vt 0.48432663 0.7968693
vt 0.47877854 0.7811497
vt 0.48432663 0.7811497
vt 0.48895004 0.7635807
vt 0.48432663 0.7811497
vt 0.49449813 0.7635807
vt 0.48895004 0.7635807
vt 0.83663064 0.89211154
vt 0.83663064 0.95129126
vt 0.84495276 0.89211154
vt 0.84495276 0.95129126
vt 0.83663064 0.84587747
vt 0.84495276 0.84587747
vt 0.83663064 0.84587747
vt 0.84495276 0.89211154
vt 0.83663064 0.8051914
vt 0.84495276 0.8051914
vt 0.83663064 0.8051914
vt 0.84495276 0.84587747
vt 0.83663064 0.7728275
vt 0.84495276 0.7728275
vt 0.83663064 0.7728275
vt 0.84495276 0.8051914
vt 0.84495276 0.74786115
vt 0.83663064 0.74786115
vt 0.83663064 0.7728275
vt 0.84495276 0.74786115
vt 0.82830846 0.71919596
vt 0.82830846 0.71919596
vt 0.81906164 0.71919596
vt 0.83663064 0.74786115
vt 0.81906164 0.69885296
vt 0.4917241 0.7580326
vt 0.49449813 0.7635807
vt 0.4972722 0.74601173
vt 0.49449813 0.7635807
vt 0.50004625 0.75063515
vt 0.4972722 0.74601173
vt 0.5185399 0.7774509
vt 0.5102177 0.7635807
vt 0.51576585 0.7811497
vn 0.008657351 0.009499706 0.9999174
vn 0.008657351 0.009499706 0.9999174
vn 0.008657351 0.009499706 0.9999174
vn -0.02018033 0.0030913278 0.9997916
vn 0.008657351 -0.012929596 0.99987894
vn -0.035133183 0.0030913278 0.99937785
vn -0.035133183 0.0030913278 0.99937785
vn -0.035133183 0.0020232722 0.9993806
vn 0.0353589 0.004159391 0.99936604
vn 0.0353589 0.004159391 0.99936604
vn 0.0663327 0.009499706 0.99775237
vn 0.0663327 0.009499706 0.99775237
vn 0.07914944 0.008431643 0.9968271
vn 0.07914944 0.008431643 0.9968271
vn 0.07914944 0.008431643 0.9968271
vn 0.07914944 -0.006521225 0.99684143
vn 0.03001859 0.00095520914 0.9995489
vn 0.03001859 0.00095520914 0.9995489
vn 0.03001859 0.00095520914 0.9995489
vn 0.04603952 0.027656764 0.9985567
vn 0.04603952 0.027656764 0.9985567
vn 0.04603952 0.027656764 0.9985567
vn 0.049243703 0.039405435 0.99800915
vn -0.09708078 0.030860946 0.9947979
vn -0.09708078 0.030860946 0.9947979
vn -0.09708078 0.030860946 0.9947979
vn -0.101353034 0.045813814 0.9937951
vn -0.06931117 0.027656764 0.99721164
vn -0.06931117 0.027656764 0.99721164
vn -0.06931117 0.027656764 0.99721164
vn -0.083195984 -0.033222772 0.99597925
vn -0.083195984 -0.033222772 0.99597925
vn -0.083195984 -0.033222772 0.99597925
vn -0.09601273 -0.005453162 0.99536514
vn 0.089830056 -0.040699206 0.9951252
vn 0.089830056 -0.040699206 0.9951252
vn 0.089830056 -0.040699206 0.9951252
vn -0.05115412 0.00736358 0.9986636
vn -0.05115412 0.00736358 0.9986636
vn -0.05115412 0.00736358 0.9986636
vn -0.049017996 0.010567762 0.998742
vn -0.063970864 0.00736358 0.99792457
vn -0.063970864 0.00736358 0.99792457
vn -0.063970864 0.00736358 0.99792457
vn -0.063970864 0.009499706 0.99790657
vn 0.071673006 -0.025746338 0.9970958
vn 0.071673006 -0.025746338 0.9970958
vn 0.071673006 -0.025746338 0.9970958
vn 0.054584015 0.006295517 0.9984893
vn -0.013771951 -0.009725414 0.99985784
vn -0.013771951 -0.009725414 0.99985784
vn -0.013771951 -0.009725414 0.99985784
vn -0.012703896 -0.006521225 0.999898
vn 0.07808138 0.011635825 0.99687904
vn 0.07808138 0.011635825 0.99687904
vn 0.07808138 0.011635825 0.99687904
vn 0.07487719 -0.005453162 0.99717784
vn 0.07594526 -0.001180917 0.9971113
vn 0.07594526 -0.001180917 0.9971113
vn 0.07594526 -0.001180917 0.9971113
vn 0.081285566 -0.009725414 0.99664336
vn 0.068468824 -0.015065722 0.9975395
vn 0.068468824 -0.015065722 0.9975395
vn 0.068468824 -0.015065722 0.9975395
vn 0.065264635 -0.005453162 0.9978531
vn 0.060992386 -0.007589288 0.9981094
vn 0.060992386 -0.007589288 0.9981094
vn 0.060992386 -0.007589288 0.9981094
vn 0.054584015 0.039405435 0.9977313
vn -0.040473506 -0.024678282 0.9988758
vn -0.040473506 -0.024678282 0.9988758
vn -0.040473506 -0.024678282 0.9988758
vn -0.04688187 0.0020232722 0.9988984
vn 0.007589288 0.010567762 0.99991536
vn 0.007589288 0.010567762 0.99991536
vn 0.007589288 0.010567762 0.99991536
vn 0.02040603 -0.028950527 0.99937254
vn -0.06503892 -0.006521225 0.99786144
vn -0.06503892 -0.006521225 0.99786144
vn -0.06503892 -0.006521225 0.99786144
vn -0.06503892 -0.004385099 0.99787307
vn -0.03299707 0.009499706 0.99941033
vn -0.03299707 0.009499706 0.99941033
vn -0.03299707 0.009499706 0.99941033
vn -0.009499706 -0.031086653 0.99947155
vn 0.07594526 0.00736358 0.9970848
vn 0.07594526 0.00736358 0.9970848
vn 0.07594526 0.00736358 0.9970848
vn 0.06206045 -0.033222772 0.9975193
vn -0.03726931 0.018044204 0.9991423
vn -0.03726931 0.018044204 0.9991423
vn -0.03726931 0.018044204 0.9991423
vn -0.04154156 0.027656764 0.9987539
vn -0.07465148 0.004159391 0.997201
vn -0.07465148 0.004159391 0.997201
vn -0.07465148 0.004159391 0.997201
vn -0.07785566 0.004159391 0.996956
vn -0.07465148 -0.008657351 0.9971721
vn -0.11523783 -0.001180917 0.9933373
vn -0.11523783 -0.001180917 0.9933373
vn -0.11523783 -0.001180917 0.9933373
vn -0.110965595 0.008431643 0.9937885
vn -0.024452567 -0.015065722 0.9995875
vn -0.024452567 -0.015065722 0.9995875
vn -0.024452567 -0.015065722 0.9995875
vn -0.0020232722 -0.007589288 0.9999691
vn -0.0020232722 -0.007589288 0.9999691
vn 0.054584015 0.009499706 0.998464
vn 0.054584015 0.009499706 0.998464
vn 0.054584015 0.009499706 0.998464
vn 0.04817564 -0.007589288 0.99881005
vn 0.09089812 -0.024678282 0.9955544
vn 0.09089812 -0.024678282 0.9955544
vn 0.09089812 -0.024678282 0.9955544
vn 0.09089812 0.057562485 0.9941952
vn 0.09089812 0.057562485 0.9941952
vn 0.09089812 0.057562485 0.9941952
vn 0.000112853944 0.030860946 0.9995237
vn 0.000112853944 0.030860946 0.9995237
vn 0.000112853944 0.030860946 0.9995237
vn 0.031086653 0.0030913278 0.99951196
vn 0.031086653 0.0030913278 0.99951196
vn 0.031086653 0.0030913278 0.99951196
vn 0.058856264 0.008431643 0.9982309
vn 0.031086653 0.0020232722 0.99951464
vn 0.06206045 -0.006521225 0.9980511
vn 0.06206045 -0.006521225 0.9980511
vn 0.06206045 -0.006521225 0.9980511
vn 0.06312851 -0.004385099 0.99799573
vn 0.034290835 0.006295517 0.99939203
vn 0.034290835 0.006295517 0.99939203
vn 0.034290835 0.006295517 0.99939203
vn 0.013997659 -0.031086653 0.9994187
vn 0.000112853944 -0.025746338 0.99966854
vn 0.000112853944 -0.025746338 0.99966854
vn 0.000112853944 -0.025746338 0.99966854
vn -0.016976133 0.00736358 0.99982876
vn 0.004385099 0.018044204 0.99982756
vn 0.004385099 0.018044204 0.99982756
vn 0.004385099 0.018044204 0.99982756
vn -0.0020232722 -0.007589288 0.9999691
vn 0.05565208 -0.015065722 0.99833655
vn 0.05565208 -0.015065722 0.99833655
vn 0.05565208 -0.015065722 0.99833655
vn 0.04817564 -0.028950527 0.9984192
vn -0.15796031 -0.024678282 0.987137
vn -0.15796031 -0.024678282 0.987137
vn -0.15796031 -0.024678282 0.987137
vn 0.114395484 0.011635825 0.99336714
vn 0.114395484 0.011635825 0.99336714
vn 0.114395484 0.011635825 0.99336714
vn -0.023384511 0.023384511 0.999453
vn -0.023384511 0.023384511 0.999453
vn -0.023384511 0.023384511 0.999453
g lavaCaveBanner02_0
f 3/3/3 2/2/2 1/1/1
f 3/3/3 4/4/4 2/2/2
f 3/3/3 1/1/1 5/5/5
f 6/6/6 4/4/4 3/3/3
f 6/6/6 3/3/3 7/7/7
f 8/8/8 7/7/7 3/3/3
f 1/1/1 10/10/10 9/9/9
f 5/5/5 11/11/11 9/9/9
f 11/11/11 12/12/12 10/10/10
f 15/15/15 14/14/14 13/13/13
f 15/15/15 13/13/13 16/16/16
f 19/19/19 18/18/18 17/17/17
f 22/22/22 21/21/21 20/20/20
f 21/21/21 23/23/23 20/20/20
f 26/26/26 25/25/25 24/24/24
f 27/27/27 26/26/26 24/24/24
f 30/30/30 29/29/29 28/28/28
f 33/33/33 32/32/32 31/31/31
f 32/32/32 34/34/34 31/31/31
f 37/37/37 36/36/36 35/35/35
f 40/40/40 39/39/39 38/38/38
f 41/41/41 39/39/39 40/40/40
f 44/44/44 43/43/43 42/42/42
f 45/45/45 42/42/42 43/43/43
f 48/48/48 47/47/47 46/46/46
f 48/48/48 49/49/49 47/47/47
f 52/52/52 51/51/51 50/50/50
f 53/53/53 51/51/51 52/52/52
f 56/56/56 55/55/55 54/54/54
f 57/57/57 54/54/54 55/55/55
f 60/60/60 59/59/59 58/58/58
f 61/61/61 60/60/60 58/58/58
f 64/64/64 63/63/63 62/62/62
f 65/65/65 64/64/64 62/62/62
f 68/68/68 67/67/67 66/66/66
f 69/69/69 68/68/68 66/66/66
f 72/72/72 71/71/71 70/70/70
f 73/73/73 72/72/72 70/70/70
f 76/76/76 75/75/75 74/74/74
f 77/77/77 75/75/75 76/76/76
f 80/80/80 79/79/79 78/78/78
f 81/81/81 80/80/80 78/78/78
f 84/84/84 83/83/83 82/82/82
f 85/85/85 84/84/84 82/82/82
f 88/88/88 87/87/87 86/86/86
f 88/88/88 86/86/86 89/89/89
f 92/92/92 91/91/91 90/90/90
f 90/90/90 91/91/91 93/93/93
f 96/96/96 95/95/95 94/94/94
f 96/96/96 97/97/97 95/95/95
f 94/94/94 95/95/95 98/98/98
f 101/101/101 100/100/100 99/99/99
f 99/99/99 100/100/100 102/102/102
f 105/105/105 104/104/104 103/103/103
f 107/107/107 103/103/103 106/106/106
f 110/110/110 109/109/109 108/108/108
f 110/110/110 108/108/108 111/111/111
f 114/114/114 113/113/113 112/112/112
f 117/117/117 116/116/116 115/115/115
f 120/120/120 119/119/119 118/118/118
f 123/123/123 122/122/122 121/121/121
f 123/123/123 124/124/124 122/122/122
f 123/123/123 121/121/121 125/125/125
f 128/128/128 127/127/127 126/126/126
f 126/126/126 127/127/127 129/129/129
f 132/132/132 131/131/131 130/130/130
f 130/130/130 131/131/131 133/133/133
f 136/136/136 135/135/135 134/134/134
f 137/137/137 134/134/134 135/135/135
f 140/140/140 139/139/139 138/138/138
f 138/138/138 141/141/141 140/140/140
f 144/144/144 143/143/143 142/142/142
f 142/142/142 143/143/143 145/145/145
f 148/148/148 147/147/147 146/146/146
f 151/151/151 150/150/150 149/149/149
f 154/154/154 153/153/153 152/152/152
