g mazeRoom2
v -1.0273438 -0.00012588501 -12.048681
v 0.19281197 0.028850555 -11.778051
v 0.6836548 -0.00012588501 -10.770866
v -0.9331722 -0.000705719 -10.516172
v 1.9348135 -0.00012588501 -11.204048
v 1.8983049 0.045656204 -12.406528
v 0.4854641 0.048553467 -13.462682
v -0.9236107 -0.00012588501 -13.154673
v -1.142086 -0.00012588501 -14.709204
v 0.23743439 -0.00012588501 -14.521443
v -1.3550549 -0.00012588501 -17
v 0.3402958 -0.00012588501 -17
v 1.8838167 0.06072235 -13.670435
v 1.8838167 -0.00012588501 -15.131086
v 1.8838167 -0.00012588501 -17
v -1.8821182 -0.00012588501 -15.131086
v -1.84445 -0.00012588501 -13.883695
v -1.9890366 -0.00012588501 -17
v -1.8766117 -0.00012588501 -12.0747595
v -1.0273438 -0.00012588501 -12.048681
v -0.9331722 -0.000705719 -10.516172
v -1.8511143 0.055217743 -10.677275
v -0.85725784 -0.00012588501 -9.7094965
v 0.55877113 -0.00012588501 -9.728331
v 1.9035206 -0.00012588501 -10.21164
v 1.9035206 -0.00012588501 -9.684288
v -1.8615456 -0.00012588501 -10.184403
v -1.8511143 0.055217743 -10.677275
v -1.9087753 -0.00012588501 -9.651546
v 1.8838167 0.06072235 -13.670435
vt 0.47209993 0.8506803
vt 0.49702048 0.84272695
vt 0.50709474 0.81356454
vt 0.47422084 0.80614144
vt 0.53254557 0.82628995
vt 0.5320153 0.8612848
vt 0.502853 0.8920378
vt 0.47422084 0.883024
vt 0.46997905 0.9280931
vt 0.49808094 0.9227908
vt 0.465207 0.99490136
vt 0.5002018 0.99490136
vt 0.5314851 0.8978703
vt 0.5314851 0.94028825
vt 0.5314851 0.99490136
vt 0.45460254 0.94028825
vt 0.45566297 0.904233
vt 0.45248163 0.99490136
vt 0.45460254 0.8517407
vt 0.47209993 0.8506803
vt 0.47422084 0.80614144
vt 0.45513275 0.81091344
vt 0.4758115 0.7828115
vt 0.50444365 0.78334177
vt 0.5320153 0.7971276
vt 0.5320153 0.7817511
vt 0.45513275 0.79659736
vt 0.45513275 0.81091344
vt 0.4540723 0.78122085
vt 0.5314851 0.8978703
vn -0.010891226 0.99994075 -0
vn -0.010891226 0.99994075 -0
vn -0.010891226 0.99994075 -0
vn -0.010891226 0.99994075 -0
vn 0.0053229383 0.9999858 -0
vn 0.0053229383 0.9999858 -0
vn -0.018995889 0.9998196 -0
vn -0.018995889 0.9998196 -0
vn -0.018995889 0.9998196 -0
vn -0.018995889 0.9998196 -0
vn 0.0012692921 0.99999917 -0.00024414062
vn 0.0012692921 0.99999917 -0.00024414062
vn -0.014943925 0.9998883 -0
vn -0.014943925 0.9998883 -0
vn 0.0012692921 0.99999917 -0.00024414062
vn 0.0012692921 0.99999917 -0.00024414062
vn 0.0012692921 0.99999917 -0.00024414062
vn 0.0012692921 0.99999917 -0.00024414062
vn 0.033679947 0.9994326 -0
vn 0.033679947 0.9994326 -0
vn 0.033679947 0.9994326 -0
vn 0.033679947 0.9994326 -0
vn 0.013429247 0.9999099 -0
vn 0.0012692921 0.99999917 -0.00024414062
vn 0.0012692921 0.99999917 -0.00024414062
vn 0.0012692921 0.99999917 -0.00024414062
vn 0.013429247 0.9999099 -0
vn 0.013429247 0.9999099 -0
vn 0.0012692921 0.99999917 -0.00024414062
vn -0.0068379925 0.99997663 -0
g mazeRoom2_0
f 3/3/3 2/2/2 1/1/1
f 4/4/4 3/3/3 1/1/1
f 3/3/3 5/5/5 2/2/2
f 5/5/5 6/6/6 2/2/2
f 1/1/1 2/2/2 7/7/7
f 8/8/8 1/1/1 7/7/7
f 8/8/8 7/7/7 9/9/9
f 7/7/7 10/10/10 9/9/9
f 9/9/9 10/10/10 11/11/11
f 10/10/10 12/12/12 11/11/11
f 7/7/7 13/13/13 10/10/10
f 13/13/13 14/14/14 10/10/10
f 10/10/10 14/14/14 12/12/12
f 14/14/14 15/15/15 12/12/12
f 8/8/8 9/9/9 16/16/16
f 17/17/17 8/8/8 16/16/16
f 9/9/9 11/11/11 18/18/18
f 16/16/16 9/9/9 18/18/18
f 17/17/17 19/19/19 8/8/8
f 19/19/19 20/20/20 8/8/8
f 21/21/21 20/20/20 19/19/19
f 22/22/22 21/21/21 19/19/19
f 21/21/21 23/23/23 3/3/3
f 23/23/23 24/24/24 3/3/3
f 3/3/3 24/24/24 25/25/25
f 24/24/24 26/26/26 25/25/25
f 3/3/3 25/25/25 5/5/5
f 27/27/27 23/23/23 4/4/4
f 28/28/28 27/27/27 4/4/4
f 27/27/27 29/29/29 23/23/23
f 2/2/2 6/6/6 30/30/30
f 7/7/7 2/2/2 30/30/30
