g parid_flags
v 2.9306493 3.5668273 -1.1897253
v 2.9141512 3.6254964 -1.1897253
v 2.9791293 3.62352 -1.1658897
v 2.9767406 3.5648992 -1.1658897
v 3.0393863 3.5565436 -1.1897253
v 3.0412898 3.615182 -1.1897253
v 3.1031914 3.6201327 -1.1688503
v 3.1031914 3.5614636 -1.1688503
v 3.0374825 3.4979053 -1.1897253
v 3.1031914 3.502794 -1.1688503
v 3.1031914 3.5614636 -1.1688503
v 3.1031914 3.6201327 -1.1688503
v 3.172114 3.6072729 -1.1897253
v 3.1669307 3.5488188 -1.1897253
v 3.1031914 3.502794 -1.1688503
v 3.1626434 3.4902651 -1.1897253
v 2.9767406 3.5648992 -1.1658897
v 2.9791293 3.62352 -1.1658897
v 3.0412898 3.615182 -1.1897253
v 3.0393863 3.5565436 -1.1897253
v 2.9743521 3.5062785 -1.1658897
v 3.0374825 3.4979053 -1.1897253
v 2.9141512 3.508158 -1.1897253
v 2.9306493 3.5668273 -1.1897253
v 2.9767406 3.5648992 -1.1658897
v 2.9743521 3.5062785 -1.1658897
v 3.1626434 3.4902651 -1.1897253
v 3.1669307 3.5488188 -1.1897253
v 3.200285 3.4860873 -1.1805909
v 3.172114 3.6072729 -1.1897253
v 3.213229 3.6027098 -1.1805909
v 1.852996 4.6995687 -2.5145197
v 1.8333098 4.7695756 -2.5145197
v 1.9108442 4.767217 -2.4860785
v 1.9079939 4.6972685 -2.4860785
v 1.9827453 4.6872983 -2.5145197
v 1.9850167 4.757268 -2.5145197
v 2.0588803 4.7631755 -2.489611
v 2.0588803 4.6931686 -2.489611
v 1.9804738 4.617328 -2.5145197
v 2.0588803 4.6231623 -2.489611
v 2.0588803 4.6931686 -2.489611
v 2.0588803 4.7631755 -2.489611
v 2.1411214 4.747831 -2.5145197
v 2.1349368 4.6780806 -2.5145197
v 2.0588803 4.6231623 -2.489611
v 2.1298208 4.608212 -2.5145197
v 1.9079939 4.6972685 -2.4860785
v 1.9108442 4.767217 -2.4860785
v 1.9850167 4.757268 -2.5145197
v 1.9827453 4.6872983 -2.5145197
v 1.9051437 4.62732 -2.4860785
v 1.9804738 4.617328 -2.5145197
v 1.8333098 4.6295624 -2.5145197
v 1.852996 4.6995687 -2.5145197
v 1.9079939 4.6972685 -2.4860785
v 1.9051437 4.62732 -2.4860785
v 2.1298208 4.608212 -2.5145197
v 2.1349368 4.6780806 -2.5145197
v 2.1747365 4.6032267 -2.5036204
v 2.1411214 4.747831 -2.5145197
v 2.1901815 4.742386 -2.5036204
v 0.038908824 5.72141 -2.4862769
v 0.012649402 5.814791 -2.4862769
v 0.116072424 5.8116446 -2.448339
v 0.11227057 5.7183404 -2.448339
v 0.21198112 5.7050414 -2.4862769
v 0.21501118 5.798373 -2.4862769
v 0.31353745 5.8062534 -2.4530509
v 0.31353745 5.712872 -2.4530509
v 0.2089511 5.6117086 -2.4862769
v 0.31353745 5.61949 -2.4530509
v 0.31353745 5.712872 -2.4530509
v 0.31353745 5.8062534 -2.4530509
v 0.42323866 5.785785 -2.4862769
v 0.41498893 5.6927457 -2.4862769
v 0.31353745 5.61949 -2.4530509
v 0.40816498 5.599549 -2.4862769
v 0.11227057 5.7183404 -2.448339
v 0.116072424 5.8116446 -2.448339
v 0.21501118 5.798373 -2.4862769
v 0.21198112 5.7050414 -2.4862769
v 0.10846871 5.6250367 -2.448339
v 0.2089511 5.6117086 -2.4862769
v 0.012649402 5.628028 -2.4862769
v 0.038908824 5.72141 -2.4862769
v 0.11227057 5.7183404 -2.448339
v 0.10846871 5.6250367 -2.448339
v 0.40816498 5.599549 -2.4862769
v 0.41498893 5.6927457 -2.4862769
v 0.4680776 5.592899 -2.4717379
v 0.42323866 5.785785 -2.4862769
v 0.48867995 5.778522 -2.4717379
v -1.8146256 4.6995687 -2.5145197
v -1.834312 4.7695756 -2.5145197
v -1.7567774 4.767217 -2.4860785
v -1.7596277 4.6972685 -2.4860785
v -1.6848763 4.6872983 -2.5145197
v -1.6826049 4.757268 -2.5145197
v -1.6087414 4.7631755 -2.489611
v -1.6087414 4.6931686 -2.489611
v -1.687148 4.617328 -2.5145197
v -1.6087414 4.6231623 -2.489611
v -1.6087414 4.6931686 -2.489611
v -1.6087414 4.7631755 -2.489611
v -1.5265003 4.747831 -2.5145197
v -1.532685 4.6780806 -2.5145197
v -1.6087414 4.6231623 -2.489611
v -1.5378009 4.608212 -2.5145197
v -1.7596277 4.6972685 -2.4860785
v -1.7567774 4.767217 -2.4860785
v -1.6826049 4.757268 -2.5145197
v -1.6848763 4.6872983 -2.5145197
v -1.7624779 4.62732 -2.4860785
v -1.687148 4.617328 -2.5145197
v -1.834312 4.6295624 -2.5145197
v -1.8146256 4.6995687 -2.5145197
v -1.7596277 4.6972685 -2.4860785
v -1.7624779 4.62732 -2.4860785
v -1.5378009 4.608212 -2.5145197
v -1.532685 4.6780806 -2.5145197
v -1.4928854 4.6032267 -2.5036204
v -1.5265003 4.747831 -2.5145197
v -1.4774401 4.742386 -2.5036204
v -2.8157828 3.5668273 -1.1897253
v -2.8322809 3.6254964 -1.1897253
v -2.7673028 3.62352 -1.1658897
v -2.7696915 3.5648992 -1.1658897
v -2.7070458 3.5565436 -1.1897253
v -2.7051423 3.615182 -1.1897253
v -2.6432407 3.6201327 -1.1688503
v -2.6432407 3.5614636 -1.1688503
v -2.7089496 3.4979053 -1.1897253
v -2.6432407 3.502794 -1.1688503
v -2.6432407 3.5614636 -1.1688503
v -2.6432407 3.6201327 -1.1688503
v -2.5743182 3.6072729 -1.1897253
v -2.5795014 3.5488188 -1.1897253
v -2.6432407 3.502794 -1.1688503
v -2.5837886 3.4902651 -1.1897253
v -2.7696915 3.5648992 -1.1658897
v -2.7673028 3.62352 -1.1658897
v -2.7051423 3.615182 -1.1897253
v -2.7070458 3.5565436 -1.1897253
v -2.77208 3.5062785 -1.1658897
v -2.7089496 3.4979053 -1.1897253
v -2.8322809 3.508158 -1.1897253
v -2.8157828 3.5668273 -1.1897253
v -2.7696915 3.5648992 -1.1658897
v -2.77208 3.5062785 -1.1658897
v -2.5837886 3.4902651 -1.1897253
v -2.5795014 3.5488188 -1.1897253
v -2.546147 3.4860873 -1.1805909
v -2.5743182 3.6072729 -1.1897253
v -2.5332031 3.6027098 -1.1805909
v -1.0176876 3.0949347 -1.515019
v -1.032122 3.1462653 -1.515019
v -0.9752718 3.144536 -1.4941651
v -0.97736156 3.0932477 -1.4941651
v -0.9225521 3.0859375 -1.515019
v -0.92088646 3.137241 -1.515019
v -0.8667278 3.1415725 -1.496755
v -0.8667278 3.090242 -1.496755
v -0.9242175 3.0346336 -1.515019
v -0.8667278 3.038911 -1.496755
v -0.8667278 3.090242 -1.496755
v -0.8667278 3.1415725 -1.496755
v -0.8064265 3.1303215 -1.515019
v -0.8109613 3.079179 -1.515019
v -0.8667278 3.038911 -1.496755
v -0.81471235 3.0279496 -1.515019
v -0.97736156 3.0932477 -1.4941651
v -0.9752718 3.144536 -1.4941651
v -0.92088646 3.137241 -1.515019
v -0.9225521 3.0859375 -1.515019
v -0.9794514 3.0419598 -1.4941651
v -0.9242175 3.0346336 -1.515019
v -1.032122 3.0436041 -1.515019
v -1.0176876 3.0949347 -1.515019
v -0.97736156 3.0932477 -1.4941651
v -0.9794514 3.0419598 -1.4941651
v -0.81471235 3.0279496 -1.515019
v -0.8109613 3.079179 -1.515019
v -0.78177917 3.0242944 -1.5070271
v -0.8064265 3.1303215 -1.515019
v -0.7704544 3.1263287 -1.5070271
v 1.1671546 3.0946527 -1.5958679
v 1.1527202 3.1459832 -1.5958679
v 1.2095704 3.1442537 -1.5750138
v 1.2074805 3.0929656 -1.5750139
v 1.2622901 3.0856552 -1.5958679
v 1.2639558 3.1369586 -1.5958679
v 1.3181143 3.1412902 -1.577604
v 1.3181143 3.0899596 -1.577604
v 1.2606246 3.0343518 -1.5958679
v 1.3181143 3.038629 -1.577604
v 1.3181143 3.0899596 -1.577604
v 1.3181143 3.1412902 -1.577604
v 1.3784157 3.1300392 -1.5958679
v 1.3738809 3.0788968 -1.5958679
v 1.3181143 3.038629 -1.577604
v 1.3701298 3.0276673 -1.5958679
v 1.2074805 3.0929656 -1.5750139
v 1.2095704 3.1442537 -1.5750138
v 1.2639558 3.1369586 -1.5958679
v 1.2622901 3.0856552 -1.5958679
v 1.2053908 3.0416777 -1.5750139
v 1.2606246 3.0343518 -1.5958679
v 1.1527202 3.043322 -1.5958679
v 1.1671546 3.0946527 -1.5958679
v 1.2074805 3.0929656 -1.5750139
v 1.2053908 3.0416777 -1.5750139
v 1.3701298 3.0276673 -1.5958679
v 1.3738809 3.0788968 -1.5958679
v 1.403063 3.024012 -1.5878761
v 1.3784157 3.1300392 -1.5958679
v 1.414388 3.1260467 -1.5878761
vt 0.37307894 0.5
vt 0.37307894 0.62692106
vt 0.43653947 0.62692106
vt 0.43653947 0.5
vt 0.5 0.5
vt 0.5 0.62692106
vt 0.5634605 0.62692106
vt 0.5634605 0.5
vt 0.5 0.37307894
vt 0.5634605 0.37307894
vt 0.5634605 0.5
vt 0.5634605 0.62692106
vt 0.5923592 0.62692106
vt 0.62692106 0.5
vt 0.5634605 0.37307894
vt 0.59527904 0.37307894
vt 0.43653947 0.5
vt 0.43653947 0.62692106
vt 0.5 0.62692106
vt 0.5 0.5
vt 0.43653947 0.37307894
vt 0.5 0.37307894
vt 0.37307894 0.37307894
vt 0.37307894 0.5
vt 0.43653947 0.5
vt 0.43653947 0.37307894
vt 0.59527904 0.37307894
vt 0.62692106 0.5
vt 0.62692106 0.37307894
vt 0.5923592 0.62692106
vt 0.62692106 0.62692106
vt 0.37307894 0.5
vt 0.37307894 0.62692106
vt 0.43653947 0.62692106
vt 0.43653947 0.5
vt 0.5 0.5
vt 0.5 0.62692106
vt 0.5634605 0.62692106
vt 0.5634605 0.5
vt 0.5 0.37307894
vt 0.5634605 0.37307894
vt 0.5634605 0.5
vt 0.5634605 0.62692106
vt 0.5923592 0.62692106
vt 0.62692106 0.5
vt 0.5634605 0.37307894
vt 0.59527904 0.37307894
vt 0.43653947 0.5
vt 0.43653947 0.62692106
vt 0.5 0.62692106
vt 0.5 0.5
vt 0.43653947 0.37307894
vt 0.5 0.37307894
vt 0.37307894 0.37307894
vt 0.37307894 0.5
vt 0.43653947 0.5
vt 0.43653947 0.37307894
vt 0.59527904 0.37307894
vt 0.62692106 0.5
vt 0.62692106 0.37307894
vt 0.5923592 0.62692106
vt 0.62692106 0.62692106
vt 0.37307894 0.5
vt 0.37307894 0.62692106
vt 0.43653947 0.62692106
vt 0.43653947 0.5
vt 0.5 0.5
vt 0.5 0.62692106
vt 0.5634605 0.62692106
vt 0.5634605 0.5
vt 0.5 0.37307894
vt 0.5634605 0.37307894
vt 0.5634605 0.5
vt 0.5634605 0.62692106
vt 0.5923592 0.62692106
vt 0.62692106 0.5
vt 0.5634605 0.37307894
vt 0.59527904 0.37307894
vt 0.43653947 0.5
vt 0.43653947 0.62692106
vt 0.5 0.62692106
vt 0.5 0.5
vt 0.43653947 0.37307894
vt 0.5 0.37307894
vt 0.37307894 0.37307894
vt 0.37307894 0.5
vt 0.43653947 0.5
vt 0.43653947 0.37307894
vt 0.59527904 0.37307894
vt 0.62692106 0.5
vt 0.62692106 0.37307894
vt 0.5923592 0.62692106
vt 0.62692106 0.62692106
vt 0.37307894 0.5
vt 0.37307894 0.62692106
vt 0.43653947 0.62692106
vt 0.43653947 0.5
vt 0.5 0.5
vt 0.5 0.62692106
vt 0.5634605 0.62692106
vt 0.5634605 0.5
vt 0.5 0.37307894
vt 0.5634605 0.37307894
vt 0.5634605 0.5
vt 0.5634605 0.62692106
vt 0.5923592 0.62692106
vt 0.62692106 0.5
vt 0.5634605 0.37307894
vt 0.59527904 0.37307894
vt 0.43653947 0.5
vt 0.43653947 0.62692106
vt 0.5 0.62692106
vt 0.5 0.5
vt 0.43653947 0.37307894
vt 0.5 0.37307894
vt 0.37307894 0.37307894
vt 0.37307894 0.5
vt 0.43653947 0.5
vt 0.43653947 0.37307894
vt 0.59527904 0.37307894
vt 0.62692106 0.5
vt 0.62692106 0.37307894
vt 0.5923592 0.62692106
vt 0.62692106 0.62692106
vt 0.37307894 0.5
vt 0.37307894 0.62692106
vt 0.43653947 0.62692106
vt 0.43653947 0.5
vt 0.5 0.5
vt 0.5 0.62692106
vt 0.5634605 0.62692106
vt 0.5634605 0.5
vt 0.5 0.37307894
vt 0.5634605 0.37307894
vt 0.5634605 0.5
vt 0.5634605 0.62692106
vt 0.5923592 0.62692106
vt 0.62692106 0.5
vt 0.5634605 0.37307894
vt 0.59527904 0.37307894
vt 0.43653947 0.5
vt 0.43653947 0.62692106
vt 0.5 0.62692106
vt 0.5 0.5
vt 0.43653947 0.37307894
vt 0.5 0.37307894
vt 0.37307894 0.37307894
vt 0.37307894 0.5
vt 0.43653947 0.5
vt 0.43653947 0.37307894
vt 0.59527904 0.37307894
vt 0.62692106 0.5
vt 0.62692106 0.37307894
vt 0.5923592 0.62692106
vt 0.62692106 0.62692106
vt 0.37307894 0.5
vt 0.37307894 0.62692106
vt 0.43653947 0.62692106
vt 0.43653947 0.5
vt 0.5 0.5
vt 0.5 0.62692106
vt 0.5634605 0.62692106
vt 0.5634605 0.5
vt 0.5 0.37307894
vt 0.5634605 0.37307894
vt 0.5634605 0.5
vt 0.5634605 0.62692106
vt 0.5923592 0.62692106
vt 0.62692106 0.5
vt 0.5634605 0.37307894
vt 0.59527904 0.37307894
vt 0.43653947 0.5
vt 0.43653947 0.62692106
vt 0.5 0.62692106
vt 0.5 0.5
vt 0.43653947 0.37307894
vt 0.5 0.37307894
vt 0.37307894 0.37307894
vt 0.37307894 0.5
vt 0.43653947 0.5
vt 0.43653947 0.37307894
vt 0.59527904 0.37307894
vt 0.62692106 0.5
vt 0.62692106 0.37307894
vt 0.5923592 0.62692106
vt 0.62692106 0.62692106
vt 0.37307894 0.5
vt 0.37307894 0.62692106
vt 0.43653947 0.62692106
vt 0.43653947 0.5
vt 0.5 0.5
vt 0.5 0.62692106
vt 0.5634605 0.62692106
vt 0.5634605 0.5
vt 0.5 0.37307894
vt 0.5634605 0.37307894
vt 0.5634605 0.5
vt 0.5634605 0.62692106
vt 0.5923592 0.62692106
vt 0.62692106 0.5
vt 0.5634605 0.37307894
vt 0.59527904 0.37307894
vt 0.43653947 0.5
vt 0.43653947 0.62692106
vt 0.5 0.62692106
vt 0.5 0.5
vt 0.43653947 0.37307894
vt 0.5 0.37307894
vt 0.37307894 0.37307894
vt 0.37307894 0.5
vt 0.43653947 0.5
vt 0.43653947 0.37307894
vt 0.59527904 0.37307894
vt 0.62692106 0.5
vt 0.62692106 0.37307894
vt 0.5923592 0.62692106
vt 0.62692106 0.62692106
vn -0.39537406 -0.047561593 0.9172879
vn -0.39537412 -0.047561593 0.9172879
vn -0.39537415 -0.047561597 0.9172879
vn -0.39537406 -0.047561593 0.9172879
vn -0.31554985 0.0051185125 0.94889516
vn -0.31554982 0.0051185125 0.94889516
vn -0.31554985 0.0051185125 0.94889516
vn -0.31554985 0.0051185125 0.94889516
vn -0.30715024 0.0049868566 0.95164794
vn -0.30715024 0.0049868566 0.95164794
vn 0.29786292 -0.01318217 0.9545176
vn 0.29786292 -0.013182172 0.9545177
vn 0.29786292 -0.013182171 0.9545176
vn 0.29786292 -0.013182172 0.9545177
vn 0.318813 -0.011659159 0.9477459
vn 0.318813 -0.011659157 0.9477459
vn 0.35527042 -0.013004547 0.93467313
vn 0.3552704 -0.013004547 0.93467313
vn 0.35527042 -0.013004547 0.93467313
vn 0.35527048 -0.013004549 0.93467313
vn 0.35288012 -0.012916996 0.9355794
vn 0.35288012 -0.012916995 0.9355794
vn -0.40639076 0.065438606 0.911353
vn -0.40639085 0.065438606 0.911353
vn -0.40639076 0.0654386 0.911353
vn -0.40639088 0.06543861 0.911353
vn -0.23400077 0.01713204 0.97208554
vn -0.23400073 0.017132036 0.97208554
vn -0.23400074 0.017132035 0.97208554
vn -0.21483147 0.019048683 0.9764654
vn -0.21483147 0.019048683 0.9764654
vn -0.39536735 -0.047561888 0.9172908
vn -0.39536735 -0.047561888 0.9172908
vn -0.39536735 -0.047561888 0.9172908
vn -0.39536735 -0.047561888 0.9172908
vn -0.31555212 0.0051205913 0.9488944
vn -0.31555212 0.0051205903 0.9488944
vn -0.31555212 0.005120591 0.9488944
vn -0.31555212 0.0051205903 0.9488944
vn -0.30714986 0.0049837055 0.9516481
vn -0.30714986 0.0049837055 0.9516481
vn 0.29786175 -0.013181295 0.954518
vn 0.29786175 -0.013181296 0.954518
vn 0.29786178 -0.013181296 0.954518
vn 0.29786178 -0.013181297 0.954518
vn 0.31881076 -0.01166024 0.94774663
vn 0.3188108 -0.01166024 0.94774663
vn 0.35526544 -0.013005488 0.934675
vn 0.35526544 -0.01300549 0.934675
vn 0.3552654 -0.01300549 0.934675
vn 0.35526544 -0.0130054895 0.934675
vn 0.35287893 -0.0129169645 0.93557984
vn 0.35287893 -0.012916964 0.93557984
vn -0.40638578 0.065440305 0.9113551
vn -0.40638578 0.06544031 0.9113551
vn -0.40638578 0.06544031 0.9113552
vn -0.40638575 0.065440305 0.9113551
vn -0.23398362 0.017133746 0.9720896
vn -0.2339836 0.01713374 0.9720896
vn -0.2339836 0.017133744 0.9720896
vn -0.21482287 0.019048396 0.9764673
vn -0.21482286 0.019048396 0.9764673
vn -0.3953732 -0.047561873 0.9172884
vn -0.39537314 -0.04756187 0.9172884
vn -0.39537317 -0.047561865 0.9172884
vn -0.3953732 -0.047561873 0.9172884
vn -0.3155538 0.0051208762 0.94889385
vn -0.31555384 0.0051208762 0.94889385
vn -0.3155538 0.005120876 0.94889385
vn -0.31555384 0.0051208762 0.94889385
vn -0.30715013 0.0049844594 0.95164806
vn -0.30715013 0.004984459 0.95164806
vn 0.29786104 -0.013181391 0.95451826
vn 0.297861 -0.01318139 0.95451826
vn 0.29786104 -0.013181392 0.95451826
vn 0.29786104 -0.013181392 0.95451826
vn 0.31881613 -0.01166036 0.94774485
vn 0.3188161 -0.011660361 0.94774485
vn 0.3552689 -0.0130046345 0.9346736
vn 0.3552689 -0.013004636 0.9346737
vn 0.3552689 -0.013004635 0.9346737
vn 0.35526887 -0.013004637 0.9346736
vn 0.35288143 -0.012917294 0.9355789
vn 0.35288143 -0.012917294 0.9355789
vn -0.4063891 0.065438814 0.9113538
vn -0.40638912 0.065438814 0.9113538
vn -0.40638912 0.065438814 0.9113538
vn -0.40638912 0.065438814 0.9113538
vn -0.23399475 0.017133394 0.97208685
vn -0.23399472 0.017133392 0.97208685
vn -0.23399472 0.017133392 0.97208685
vn -0.21481729 0.019048173 0.97646844
vn -0.21481729 0.019048173 0.97646844
vn -0.39536738 -0.04756128 0.9172908
vn -0.3953674 -0.04756128 0.9172908
vn -0.39536738 -0.047561284 0.9172908
vn -0.39536738 -0.047561284 0.9172908
vn -0.31555212 0.0051205913 0.9488944
vn -0.31555212 0.0051205903 0.9488944
vn -0.31555212 0.005120591 0.9488944
vn -0.31555212 0.0051205903 0.9488944
vn -0.30714986 0.0049837055 0.9516481
vn -0.30714986 0.0049837055 0.9516481
vn 0.29786175 -0.013181294 0.954518
vn 0.29786178 -0.013181296 0.954518
vn 0.29786175 -0.013181295 0.954518
vn 0.29786175 -0.013181295 0.954518
vn 0.31881076 -0.01166024 0.94774663
vn 0.3188108 -0.01166024 0.94774663
vn 0.35526624 -0.013004429 0.9346747
vn 0.3552662 -0.013004429 0.9346747
vn 0.35526624 -0.013004429 0.9346747
vn 0.35526624 -0.013004429 0.9346747
vn 0.35287896 -0.012917506 0.93557984
vn 0.35287893 -0.012917505 0.93557984
vn -0.4063858 0.065438464 0.91135526
vn -0.4063858 0.06543846 0.91135526
vn -0.4063858 0.065438464 0.91135526
vn -0.40638584 0.06543846 0.9113552
vn -0.2339836 0.017131869 0.9720896
vn -0.2339836 0.017131869 0.9720896
vn -0.23398362 0.017131869 0.9720896
vn -0.21482287 0.019048398 0.9764673
vn -0.21482286 0.019048396 0.9764673
vn -0.39537406 -0.047561593 0.9172879
vn -0.39537412 -0.047561593 0.9172879
vn -0.39537415 -0.047561597 0.9172879
vn -0.39537406 -0.047561593 0.9172879
vn -0.31554985 0.005121658 0.94889516
vn -0.31554982 0.0051216576 0.94889516
vn -0.31554985 0.0051216576 0.94889516
vn -0.31554985 0.005121658 0.94889516
vn -0.30715027 0.0049837953 0.95164806
vn -0.30715027 0.0049837953 0.95164806
vn 0.29786292 -0.01318217 0.9545176
vn 0.29786292 -0.013182172 0.9545177
vn 0.29786292 -0.013182171 0.9545176
vn 0.29786292 -0.013182172 0.9545177
vn 0.318813 -0.011660749 0.9477459
vn 0.318813 -0.011660749 0.9477459
vn 0.35527042 -0.013004547 0.93467313
vn 0.3552704 -0.013004547 0.93467313
vn 0.35527042 -0.013004547 0.93467313
vn 0.35527048 -0.013004549 0.93467313
vn 0.35288015 -0.012918537 0.9355794
vn 0.35288015 -0.012918537 0.9355794
vn -0.40639076 0.065438606 0.911353
vn -0.40639085 0.065438606 0.911353
vn -0.40639076 0.0654386 0.911353
vn -0.40639088 0.06543861 0.911353
vn -0.23400076 0.017134706 0.9720854
vn -0.23400073 0.017134704 0.9720854
vn -0.23400074 0.017134704 0.9720854
vn -0.21483147 0.019048683 0.9764654
vn -0.21483147 0.019048683 0.9764654
vn -0.3953726 -0.047562093 0.9172886
vn -0.39537257 -0.04756209 0.9172886
vn -0.3953726 -0.04756209 0.9172886
vn -0.3953725 -0.047562085 0.9172886
vn -0.3155536 0.005120862 0.94889396
vn -0.31555364 0.005120862 0.94889396
vn -0.3155536 0.005120862 0.94889396
vn -0.3155536 0.005120862 0.94889396
vn -0.30715138 0.0049845097 0.9516476
vn -0.3071514 0.004984509 0.9516476
vn 0.29786456 -0.013181739 0.9545172
vn 0.29786456 -0.013181739 0.9545172
vn 0.2978646 -0.0131817395 0.9545172
vn 0.2978646 -0.013181738 0.9545172
vn 0.31881288 -0.0116602 0.9477459
vn 0.3188129 -0.0116602 0.9477459
vn 0.35526854 -0.013004451 0.93467385
vn 0.35526857 -0.013004452 0.93467385
vn 0.3552686 -0.013004451 0.93467385
vn 0.3552686 -0.013004451 0.93467385
vn 0.35287982 -0.012917158 0.93557954
vn 0.35287982 -0.012917159 0.93557954
vn -0.40638843 0.065440126 0.911354
vn -0.40638843 0.06544013 0.911354
vn -0.40638843 0.06544013 0.911354
vn -0.4063884 0.06544013 0.911354
vn -0.2339935 0.0171331 0.9720872
vn -0.2339935 0.017133098 0.9720872
vn -0.2339935 0.0171331 0.9720872
vn -0.21483167 0.01904873 0.9764653
vn -0.21483164 0.019048728 0.9764653
vn -0.39537522 -0.047563843 0.9172874
vn -0.39537522 -0.047563836 0.9172874
vn -0.39537522 -0.04756384 0.9172874
vn -0.3953752 -0.047563836 0.9172874
vn -0.31555182 0.0051209005 0.9488945
vn -0.3155518 0.0051209 0.9488945
vn -0.3155518 0.0051208995 0.9488945
vn -0.3155518 0.0051209 0.9488945
vn -0.30714813 0.004985022 0.95164865
vn -0.3071482 0.004985022 0.9516486
vn 0.2978617 -0.013181697 0.954518
vn 0.29786164 -0.013181697 0.954518
vn 0.2978617 -0.013181697 0.954518
vn 0.29786167 -0.013181695 0.954518
vn 0.31881297 -0.011660873 0.9477459
vn 0.31881297 -0.011660874 0.9477459
vn 0.355271 -0.013006138 0.9346728
vn 0.35527107 -0.01300614 0.9346728
vn 0.355271 -0.013006137 0.9346728
vn 0.355271 -0.013006137 0.9346728
vn 0.35288167 -0.01291723 0.93557876
vn 0.35288167 -0.012917229 0.93557876
vn -0.4063876 0.065439984 0.9113544
vn -0.40638757 0.06543999 0.9113544
vn -0.40638757 0.06543999 0.9113544
vn -0.40638757 0.065439984 0.9113544
vn -0.23399766 0.01713384 0.9720862
vn -0.23399766 0.017133841 0.9720862
vn -0.23399766 0.017133838 0.9720862
vn -0.21482708 0.019047549 0.9764664
vn -0.21482708 0.019047549 0.9764663
g parid_flags_0
f 3/3/3 2/2/2 1/1/1
f 4/4/4 3/3/3 1/1/1
f 7/7/7 6/6/6 5/5/5
f 8/8/8 7/7/7 5/5/5
f 8/8/8 5/5/5 9/9/9
f 10/10/10 8/8/8 9/9/9
f 13/13/13 12/12/12 11/11/11
f 14/14/14 13/13/13 11/11/11
f 14/14/14 11/11/11 15/15/15
f 16/16/16 14/14/14 15/15/15
f 19/19/19 18/18/18 17/17/17
f 20/20/20 19/19/19 17/17/17
f 20/20/20 17/17/17 21/21/21
f 22/22/22 20/20/20 21/21/21
f 25/25/25 24/24/24 23/23/23
f 26/26/26 25/25/25 23/23/23
f 29/29/29 28/28/28 27/27/27
f 28/28/28 31/31/31 30/30/30
f 34/34/34 33/33/33 32/32/32
f 35/35/35 34/34/34 32/32/32
f 38/38/38 37/37/37 36/36/36
f 39/39/39 38/38/38 36/36/36
f 39/39/39 36/36/36 40/40/40
f 41/41/41 39/39/39 40/40/40
f 44/44/44 43/43/43 42/42/42
f 45/45/45 44/44/44 42/42/42
f 45/45/45 42/42/42 46/46/46
f 47/47/47 45/45/45 46/46/46
f 50/50/50 49/49/49 48/48/48
f 51/51/51 50/50/50 48/48/48
f 51/51/51 48/48/48 52/52/52
f 53/53/53 51/51/51 52/52/52
f 56/56/56 55/55/55 54/54/54
f 57/57/57 56/56/56 54/54/54
f 60/60/60 59/59/59 58/58/58
f 59/59/59 62/62/62 61/61/61
f 65/65/65 64/64/64 63/63/63
f 66/66/66 65/65/65 63/63/63
f 69/69/69 68/68/68 67/67/67
f 70/70/70 69/69/69 67/67/67
f 70/70/70 67/67/67 71/71/71
f 72/72/72 70/70/70 71/71/71
f 75/75/75 74/74/74 73/73/73
f 76/76/76 75/75/75 73/73/73
f 76/76/76 73/73/73 77/77/77
f 78/78/78 76/76/76 77/77/77
f 81/81/81 80/80/80 79/79/79
f 82/82/82 81/81/81 79/79/79
f 82/82/82 79/79/79 83/83/83
f 84/84/84 82/82/82 83/83/83
f 87/87/87 86/86/86 85/85/85
f 88/88/88 87/87/87 85/85/85
f 91/91/91 90/90/90 89/89/89
f 90/90/90 93/93/93 92/92/92
f 96/96/96 95/95/95 94/94/94
f 97/97/97 96/96/96 94/94/94
f 100/100/100 99/99/99 98/98/98
f 101/101/101 100/100/100 98/98/98
f 101/101/101 98/98/98 102/102/102
f 103/103/103 101/101/101 102/102/102
f 106/106/106 105/105/105 104/104/104
f 107/107/107 106/106/106 104/104/104
f 107/107/107 104/104/104 108/108/108
f 109/109/109 107/107/107 108/108/108
f 112/112/112 111/111/111 110/110/110
f 113/113/113 112/112/112 110/110/110
f 113/113/113 110/110/110 114/114/114
f 115/115/115 113/113/113 114/114/114
f 118/118/118 117/117/117 116/116/116
f 119/119/119 118/118/118 116/116/116
f 122/122/122 121/121/121 120/120/120
f 121/121/121 124/124/124 123/123/123
f 127/127/127 126/126/126 125/125/125
f 128/128/128 127/127/127 125/125/125
f 131/131/131 130/130/130 129/129/129
f 132/132/132 131/131/131 129/129/129
f 132/132/132 129/129/129 133/133/133
f 134/134/134 132/132/132 133/133/133
f 137/137/137 136/136/136 135/135/135
f 138/138/138 137/137/137 135/135/135
f 138/138/138 135/135/135 139/139/139
f 140/140/140 138/138/138 139/139/139
f 143/143/143 142/142/142 141/141/141
f 144/144/144 143/143/143 141/141/141
f 144/144/144 141/141/141 145/145/145
f 146/146/146 144/144/144 145/145/145
f 149/149/149 148/148/148 147/147/147
f 150/150/150 149/149/149 147/147/147
f 153/153/153 152/152/152 151/151/151
f 152/152/152 155/155/155 154/154/154
f 158/158/158 157/157/157 156/156/156
f 159/159/159 158/158/158 156/156/156
f 162/162/162 161/161/161 160/160/160
f 163/163/163 162/162/162 160/160/160
f 163/163/163 160/160/160 164/164/164
f 165/165/165 163/163/163 164/164/164
f 168/168/168 167/167/167 166/166/166
f 169/169/169 168/168/168 166/166/166
f 169/169/169 166/166/166 170/170/170
f 171/171/171 169/169/169 170/170/170
f 174/174/174 173/173/173 172/172/172
f 175/175/175 174/174/174 172/172/172
f 175/175/175 172/172/172 176/176/176
f 177/177/177 175/175/175 176/176/176
f 180/180/180 179/179/179 178/178/178
f 181/181/181 180/180/180 178/178/178
f 184/184/184 183/183/183 182/182/182
f 183/183/183 186/186/186 185/185/185
f 189/189/189 188/188/188 187/187/187
f 190/190/190 189/189/189 187/187/187
f 193/193/193 192/192/192 191/191/191
f 194/194/194 193/193/193 191/191/191
f 194/194/194 191/191/191 195/195/195
f 196/196/196 194/194/194 195/195/195
f 199/199/199 198/198/198 197/197/197
f 200/200/200 199/199/199 197/197/197
f 200/200/200 197/197/197 201/201/201
f 202/202/202 200/200/200 201/201/201
f 205/205/205 204/204/204 203/203/203
f 206/206/206 205/205/205 203/203/203
f 206/206/206 203/203/203 207/207/207
f 208/208/208 206/206/206 207/207/207
f 211/211/211 210/210/210 209/209/209
f 212/212/212 211/211/211 209/209/209
f 215/215/215 214/214/214 213/213/213
f 214/214/214 217/217/217 216/216/216
