g pitchfork_break02
v 0.031052856 -0.7092465 -0.04915553
v 0.05893005 -0.69533294 -6.245196E-05
v 0.023956908 -0.34560394 -0.03869441
v 0.046453245 -0.33771086 0.0021110165
v 0.046453245 -0.33771086 0.0021110165
v 0.05893005 -0.69533294 -6.245196E-05
v 0.023956908 -0.3461801 0.042833738
v 0.031052856 -0.7203653 0.049093075
v 0.04167053 0.14312409 0.0049520135
v 0.046453245 -0.33771086 0.0021110165
v 0.021226196 0.13842377 0.042289868
v 0.023956908 -0.3461801 0.042833738
v 0.018215941 0.7117929 0.043820124
v 0.03649475 0.71150726 0.00975142
v 0.023956908 -0.34560394 -0.03869441
v 0.046453245 -0.33771086 0.0021110165
v 0.020789184 0.13886689 -0.03219735
v 0.04167053 0.14312409 0.0049520135
v 0.016913451 0.7121902 -0.023592114
v 0.03649475 0.71150726 0.00975142
v 6.1035155E-07 -0.7332498 -0.05772108
v 0.031052856 -0.7092465 -0.04915553
v 6.1035155E-07 -0.35373443 -0.04595989
v 0.023956908 -0.34560394 -0.03869441
v 6.1035155E-07 0.13450226 -0.038512174
v 0.023956908 -0.34560394 -0.03869441
v 0.020789184 0.13886689 -0.03219735
v 0.016913451 0.7121902 -0.023592114
v 6.1035155E-07 0.71295744 -0.028958231
v 0.021226196 0.13842377 0.042289868
v 0.023956908 -0.3461801 0.042833738
v 6.1035155E-07 0.13388091 0.048838727
v 6.1035155E-07 -0.35441193 0.050016563
v 0.023956908 -0.3461801 0.042833738
v 0.031052856 -0.7203653 0.049093075
v 6.1035155E-07 -0.7497958 0.05772108
v 0.018215941 0.7117929 0.043820124
v 6.1035155E-07 0.71215606 0.050027285
v 6.1035155E-07 0.71295744 -0.028958231
v 6.1035155E-07 0.13450226 -0.038512174
v 0.020789184 0.13886689 -0.03219735
v 0.021226196 0.13842377 0.042289868
v 6.1035155E-07 0.13388091 0.048838727
v 6.1035155E-07 0.71215606 0.050027285
v -0.05893005 -0.74380034 -6.245196E-05
v -0.031052856 -0.7316073 -0.04915553
v -0.046453245 -0.33771086 0.0021110165
v -0.023956908 -0.34560394 -0.03869441
v -0.031052856 -0.7480502 0.049093075
v -0.05893005 -0.74380034 -6.245196E-05
v -0.023956908 -0.3461801 0.042833738
v -0.046453245 -0.33771086 0.0021110165
v -0.023956908 -0.3461801 0.042833738
v -0.046453245 -0.33771086 0.0021110165
v -0.021226196 0.13842377 0.042289868
v -0.04167053 0.14312409 0.0049520135
v -0.018215941 0.7117929 0.043820124
v -0.03649475 0.71150726 0.00975142
v -0.023956908 -0.34560394 -0.03869441
v -0.020789184 0.13886689 -0.03219735
v -0.046453245 -0.33771086 0.0021110165
v -0.04167053 0.14312409 0.0049520135
v -0.016913451 0.7121902 -0.023592114
v -0.03649475 0.71150726 0.00975142
v 6.1035155E-07 -0.7332498 -0.05772108
v 6.1035155E-07 -0.35373443 -0.04595989
v -0.031052856 -0.7316073 -0.04915553
v -0.023956908 -0.34560394 -0.03869441
v 6.1035155E-07 0.13450226 -0.038512174
v -0.023956908 -0.34560394 -0.03869441
v -0.020789184 0.13886689 -0.03219735
v 6.1035155E-07 0.71295744 -0.028958231
v -0.016913451 0.7121902 -0.023592114
v 6.1035155E-07 -0.35441193 0.050016563
v -0.023956908 -0.3461801 0.042833738
v 6.1035155E-07 0.13388091 0.048838727
v -0.021226196 0.13842377 0.042289868
v 6.1035155E-07 -0.7497958 0.05772108
v -0.029744262 -0.74812406 0.04945672
v -0.031052856 -0.7480502 0.049093075
v -0.023956908 -0.3461801 0.042833738
v -0.018215941 0.7117929 0.043820124
v 6.1035155E-07 0.71215606 0.050027285
v 6.1035155E-07 0.13450226 -0.038512174
v 6.1035155E-07 0.71295744 -0.028958231
v -0.020789184 0.13886689 -0.03219735
v 6.1035155E-07 0.13388091 0.048838727
v -0.021226196 0.13842377 0.042289868
v 6.1035155E-07 0.71215606 0.050027285
v 0.05893005 -0.69533294 -6.245196E-05
v 0.031052856 -0.7092465 -0.04915553
v 0.026480101 -0.72584015 -6.245196E-05
v 0.031052856 -0.7203653 0.049093075
v 0.05893005 -0.69533294 -6.245196E-05
v 0.026480101 -0.72584015 -6.245196E-05
v 6.1035155E-07 -0.7497958 0.05772108
v 0.031052856 -0.7203653 0.049093075
v -0.0011053466 -0.74102813 -6.245196E-05
v 0.031052856 -0.7203653 0.049093075
v 0.026480101 -0.72584015 -6.245196E-05
v -0.0011053466 -0.74102813 -6.245196E-05
v 0.031052856 -0.7092465 -0.04915553
v 6.1035155E-07 -0.7332498 -0.05772108
v 0.026480101 -0.72584015 -6.245196E-05
v 6.1035155E-07 -0.7332498 -0.05772108
v -0.0011053466 -0.74102813 -6.245196E-05
v 0.026480101 -0.72584015 -6.245196E-05
v 6.1035155E-07 -0.7497958 0.05772108
v -0.0011053466 -0.74102813 -6.245196E-05
v -0.029744262 -0.74812406 0.04945672
v -0.0011053466 -0.74102813 -6.245196E-05
v -0.03083557 -0.7461514 -6.245256E-05
v -0.029744262 -0.74812406 0.04945672
v 6.1035155E-07 -0.7332498 -0.05772108
v -0.031052856 -0.7316073 -0.04915553
v -0.0011053466 -0.74102813 -6.245196E-05
v -0.031052856 -0.7316073 -0.04915553
v -0.03083557 -0.7461514 -6.245256E-05
v -0.0011053466 -0.74102813 -6.245196E-05
v -0.029744262 -0.74812406 0.04945672
v -0.03083557 -0.7461514 -6.245256E-05
v -0.031052856 -0.7480502 0.049093075
v -0.03083557 -0.7461514 -6.245256E-05
v -0.05893005 -0.74380034 -6.245196E-05
v -0.031052856 -0.7480502 0.049093075
v -0.031052856 -0.7316073 -0.04915553
v -0.05893005 -0.74380034 -6.245196E-05
v -0.03083557 -0.7461514 -6.245256E-05
v 6.1035155E-07 0.71215606 0.050027285
v -0.018215941 0.7117929 0.043820124
v -6.1035155E-07 0.7497958 0.01053385
v -0.03649475 0.71150726 0.00975142
v -0.016913451 0.7121902 -0.023592114
v 6.1035155E-07 0.71295744 -0.028958231
v 0.016913451 0.7121902 -0.023592114
v -6.1035155E-07 0.7497958 0.01053385
v 6.1035155E-07 0.71295744 -0.028958231
v 0.03649475 0.71150726 0.00975142
v 0.018215941 0.7117929 0.043820124
v 6.1035155E-07 0.71215606 0.050027285
vt 0.17452991 0.052434564
vt 0.16952455 0.053853154
vt 0.17346334 0.08951065
vt 0.16930291 0.09031543
vt 0.16930291 0.09031543
vt 0.16952455 0.053853154
vt 0.16515091 0.08945194
vt 0.16451272 0.051300883
vt 0.16901326 0.13934019
vt 0.16930291 0.09031543
vt 0.16520637 0.13886097
vt 0.16515091 0.08945194
vt 0.16505036 0.22766864
vt 0.16852391 0.22763956
vt 0.17346334 0.08951065
vt 0.16930291 0.09031543
vt 0.1728009 0.13890615
vt 0.16901326 0.13934019
vt 0.17192352 0.2277093
vt 0.16852391 0.22763956
vt 0.17540324 0.049987227
vt 0.17452991 0.052434564
vt 0.17420411 0.08868173
vt 0.17346334 0.08951065
vt 0.17344475 0.13846114
vt 0.17346334 0.08951065
vt 0.1728009 0.13890615
vt 0.17192352 0.2277093
vt 0.17247063 0.2277875
vt 0.16520637 0.13886097
vt 0.16515091 0.08945194
vt 0.16453868 0.13839784
vt 0.16441858 0.088612646
vt 0.16515091 0.08945194
vt 0.16451272 0.051300883
vt 0.16363305 0.048300236
vt 0.16505036 0.22766864
vt 0.16441748 0.22770572
vt 0.17247063 0.2277875
vt 0.17344475 0.13846114
vt 0.1728009 0.13890615
vt 0.16520637 0.13886097
vt 0.16453868 0.13839784
vt 0.16441748 0.22770572
vt 0.16952455 0.04891154
vt 0.17452991 0.050154686
vt 0.16930291 0.09031543
vt 0.17346334 0.08951065
vt 0.16451272 0.048478216
vt 0.16952455 0.04891154
vt 0.16515091 0.08945194
vt 0.16930291 0.09031543
vt 0.16515091 0.08945194
vt 0.16930291 0.09031543
vt 0.16520637 0.13886097
vt 0.16901326 0.13934019
vt 0.16505036 0.22766864
vt 0.16852391 0.22763956
vt 0.17346334 0.08951065
vt 0.1728009 0.13890615
vt 0.16930291 0.09031543
vt 0.16901326 0.13934019
vt 0.17192352 0.2277093
vt 0.16852391 0.22763956
vt 0.17540324 0.049987227
vt 0.17420411 0.08868173
vt 0.17452991 0.050154686
vt 0.17346334 0.08951065
vt 0.17344475 0.13846114
vt 0.17346334 0.08951065
vt 0.1728009 0.13890615
vt 0.17247063 0.2277875
vt 0.17192352 0.2277093
vt 0.16441858 0.088612646
vt 0.16515091 0.08945194
vt 0.16453868 0.13839784
vt 0.16520637 0.13886097
vt 0.16363305 0.048300236
vt 0.16447565 0.048470676
vt 0.16451272 0.048478216
vt 0.16515091 0.08945194
vt 0.16505036 0.22766864
vt 0.16441748 0.22770572
vt 0.17344475 0.13846114
vt 0.17247063 0.2277875
vt 0.1728009 0.13890615
vt 0.16453868 0.13839784
vt 0.16520637 0.13886097
vt 0.16441748 0.22770572
vt 0.16952455 0.053853154
vt 0.17452991 0.052434564
vt 0.16952455 0.050742686
vt 0.16451272 0.051300883
vt 0.16952455 0.053853154
vt 0.16952455 0.050742686
vt 0.16363305 0.048300236
vt 0.16451272 0.051300883
vt 0.16952455 0.049194187
vt 0.16451272 0.051300883
vt 0.16952455 0.050742686
vt 0.16952455 0.049194187
vt 0.17452991 0.052434564
vt 0.17540324 0.049987227
vt 0.16952455 0.050742686
vt 0.17540324 0.049987227
vt 0.16952455 0.049194187
vt 0.16952455 0.050742686
vt 0.16363305 0.048300236
vt 0.16952455 0.049194187
vt 0.16447565 0.048470676
vt 0.16952455 0.049194187
vt 0.16952455 0.04867181
vt 0.16447565 0.048470676
vt 0.17540324 0.049987227
vt 0.17452991 0.050154686
vt 0.16952455 0.049194187
vt 0.17452991 0.050154686
vt 0.16952455 0.04867181
vt 0.16952455 0.049194187
vt 0.16447565 0.048470676
vt 0.16952455 0.04867181
vt 0.16451272 0.048478216
vt 0.16952455 0.04867181
vt 0.16952455 0.04891154
vt 0.16451272 0.048478216
vt 0.17452991 0.050154686
vt 0.16952455 0.04891154
vt 0.16952455 0.04867181
vt 0.16441748 0.22770572
vt 0.16505036 0.22766864
vt 0.16848694 0.22768897
vt 0.16852391 0.22763956
vt 0.17192352 0.2277093
vt 0.17247063 0.2277875
vt 0.17192352 0.2277093
vt 0.16848694 0.22768897
vt 0.17247063 0.2277875
vt 0.16852391 0.22763956
vt 0.16505036 0.22766864
vt 0.16441748 0.22770572
vn 0.8692813 0.08113499 -0.48761368
vn 0.8692813 0.08113499 -0.48761368
vn 0.8692813 0.08113499 -0.48761368
vn 0.8692813 0.08113499 -0.48761368
vn 0.86925524 0.07567931 0.4885366
vn 0.86925524 0.075679325 0.4885366
vn 0.8692552 0.0756793 0.4885367
vn 0.8692552 0.075679295 0.48853663
vn 0.874185 0.025012705 0.48494837
vn 0.874185 0.025012698 0.48494834
vn 0.874185 0.025012692 0.48494834
vn 0.874185 0.025012698 0.48494834
vn 0.88118863 0.0040337536 0.47274774
vn 0.88118863 0.0040337536 0.4727477
vn 0.8717149 0.031255342 -0.48901573
vn 0.8717149 0.031255342 -0.48901573
vn 0.8717149 0.031255342 -0.48901573
vn 0.8717148 0.031255342 -0.48901573
vn 0.87100047 0.01325768 -0.49110332
vn 0.8623472 0.012125997 -0.50617224
vn 0.24414714 0.030037588 -0.96927285
vn -0.0002103083 0.083502464 -0.9965076
vn 0.24414714 0.030037588 -0.96927285
vn -0.0002103083 0.083502464 -0.9965076
vn 0.28778726 0.014724386 -0.95758116
vn -0.01026695 0.03335469 -0.99939084
vn -0.010266953 0.03335469 -0.99939084
vn 0.30305746 0.016349813 -0.952832
vn 0.30305746 0.016349815 -0.952832
vn -0.0041897707 0.020548167 0.9997801
vn -0.0041897707 0.020548167 0.9997801
vn 0.29428688 0.002729848 0.95571315
vn 0.28646883 0.002311543 0.9580867
vn -0.00021234438 0.07241298 0.9973748
vn -0.00021234438 0.07241298 0.9973748
vn 0.25103286 0.018857924 0.9677949
vn 0.32253715 -0.00083232357 0.9465564
vn 0.32253718 -0.00083232357 0.9465564
vn 0.28757307 0.01581614 -0.957628
vn 0.28757307 0.01581614 -0.957628
vn -0.016102254 0.011109299 -0.9998086
vn 0.015331723 -0.0016535679 0.99988115
vn 0.2952064 -0.0019640706 0.95543146
vn 0.2952064 -0.0019640706 0.95543146
vn -0.8692813 0.08113499 -0.48761368
vn -0.8692813 0.08113499 -0.48761368
vn -0.8692813 0.08113499 -0.48761368
vn -0.8692813 0.08113499 -0.48761368
vn -0.8692552 0.075679295 0.48853663
vn -0.86925524 0.075679325 0.4885366
vn -0.8692552 0.0756793 0.4885367
vn -0.86925524 0.07567931 0.4885366
vn -0.874185 0.025012698 0.48494834
vn -0.874185 0.025012698 0.48494834
vn -0.874185 0.025012692 0.48494834
vn -0.874185 0.025012705 0.48494837
vn -0.8769412 0.00331909 0.48058617
vn -0.88118863 0.0040326426 0.4727477
vn -0.8717149 0.031255342 -0.48901573
vn -0.8717149 0.031255342 -0.48901573
vn -0.8717149 0.031255342 -0.48901573
vn -0.8717148 0.031255342 -0.48901573
vn -0.87100047 0.013261682 -0.49110305
vn -0.86234725 0.012128773 -0.50617194
vn -0.26431397 0.029874196 -0.96397394
vn -0.26431394 0.029874194 -0.96397394
vn 0.0002103083 0.083502464 -0.9965076
vn 0.0002103083 0.083502464 -0.9965076
vn -0.28563657 0.014618221 -0.9582265
vn 0.01026695 0.03335469 -0.99939084
vn 0.010266953 0.03335469 -0.99939084
vn -0.30303738 0.01635113 -0.95283836
vn -0.30303735 0.01635113 -0.95283836
vn -0.28645512 0.0023114327 0.9580909
vn 0.0041897707 0.020548167 0.9997801
vn -0.28645512 0.0023114325 0.9580909
vn 0.0041897707 0.020548167 0.9997801
vn -0.26667428 0.018777383 0.96360373
vn -0.26667428 0.018777383 0.96360373
vn 0.00021234438 0.07241298 0.9973748
vn 0.00021234438 0.07241298 0.9973748
vn -0.32251826 -0.00083365786 0.9465628
vn -0.32251826 -0.00083365786 0.9465628
vn -0.28755757 0.015817232 -0.9576327
vn -0.28755754 0.015817232 -0.9576327
vn 0.016102254 0.011109299 -0.9998086
vn -0.2951903 -0.0019639637 0.95543647
vn -0.015331723 -0.0016535679 0.99988115
vn -0.2951903 -0.001963964 0.95543647
vn 0.6738565 -0.716724 -0.17951053
vn 0.6738565 -0.716724 -0.17951053
vn 0.67385644 -0.71672404 -0.17951055
vn 0.6848734 -0.72845304 0.01744978
vn 0.6848734 -0.72845304 0.017449783
vn 0.6848734 -0.72845304 0.017449781
vn 0.6640844 -0.7372089 -0.12455933
vn 0.6640844 -0.73720884 -0.124559335
vn 0.6640844 -0.7372089 -0.12455935
vn 0.4816457 -0.8747844 0.05262646
vn 0.4816457 -0.8747845 0.05262647
vn 0.4816457 -0.8747844 0.05262646
vn 0.6329059 -0.74943984 -0.19434558
vn 0.6329059 -0.7494398 -0.1943456
vn 0.63290584 -0.74943984 -0.19434556
vn 0.47949776 -0.87083626 -0.10828766
vn 0.47949776 -0.87083626 -0.10828765
vn 0.4794977 -0.87083626 -0.10828764
vn -0.013960162 -0.98862886 -0.14972638
vn -0.013960164 -0.98862886 -0.1497264
vn -0.01396016 -0.98862886 -0.14972638
vn 0.16965863 -0.9845663 -0.04295508
vn 0.16965863 -0.9845663 -0.04295508
vn 0.16965862 -0.9845663 -0.04295508
vn -0.08938905 -0.98682874 -0.13482827
vn -0.08938904 -0.98682874 -0.13482825
vn -0.08938905 -0.98682874 -0.13482825
vn 0.1629726 -0.94580036 -0.2808941
vn 0.16297261 -0.94580036 -0.2808941
vn 0.16297263 -0.9458005 -0.2808941
vn -0.045529395 -0.99821234 -0.038720902
vn -0.045529395 -0.99821234 -0.0387209
vn -0.045529395 -0.99821234 -0.038720902
vn -0.08332788 -0.9957652 -0.03883266
vn -0.083327875 -0.9957652 -0.03883266
vn -0.083327875 -0.9957652 -0.038832657
vn -0.07998512 -0.95583004 -0.2828273
vn -0.07998513 -0.95583016 -0.28282726
vn -0.07998512 -0.95583004 -0.28282732
vn -6.226341E-07 0.72389305 0.6899122
vn -0.5257937 0.6889753 0.49885273
vn -2.7488782E-06 0.99998915 0.004671212
vn -0.72374225 0.69001067 -0.00908181
vn -0.5247198 0.6892962 -0.4995398
vn 1.6098764E-07 0.73123044 -0.68213063
vn 0.5247395 0.68929005 -0.49952748
vn -2.7488782E-06 0.99998915 0.004671212
vn 1.6098764E-07 0.73123044 -0.68213063
vn 0.72372097 0.69003284 -0.0090867
vn 0.52581465 0.6889646 0.49884522
vn -6.226341E-07 0.72389305 0.6899122
g pitchfork_break02_0
f 3/3/3 2/2/2 1/1/1
f 3/3/3 4/4/4 2/2/2
f 7/7/7 6/6/6 5/5/5
f 7/7/7 8/8/8 6/6/6
f 11/11/11 10/10/10 9/9/9
f 11/11/11 12/12/12 10/10/10
f 13/13/13 11/11/11 9/9/9
f 13/13/13 9/9/9 14/14/14
f 17/17/17 16/16/16 15/15/15
f 17/17/17 18/18/18 16/16/16
f 19/19/19 18/18/18 17/17/17
f 19/19/19 20/20/20 18/18/18
f 23/23/23 22/22/22 21/21/21
f 23/23/23 24/24/24 22/22/22
f 26/26/26 23/23/23 25/25/25
f 26/26/26 25/25/25 27/27/27
f 27/27/27 29/29/29 28/28/28
f 32/32/32 31/31/31 30/30/30
f 32/32/32 33/33/33 31/31/31
f 33/33/33 35/35/35 34/34/34
f 33/33/33 36/36/36 35/35/35
f 38/38/38 30/30/30 37/37/37
f 41/41/41 40/40/40 39/39/39
f 44/44/44 43/43/43 42/42/42
f 47/47/47 46/46/46 45/45/45
f 47/47/47 48/48/48 46/46/46
f 51/51/51 50/50/50 49/49/49
f 51/51/51 52/52/52 50/50/50
f 55/55/55 54/54/54 53/53/53
f 55/55/55 56/56/56 54/54/54
f 57/57/57 56/56/56 55/55/55
f 57/57/57 58/58/58 56/56/56
f 61/61/61 60/60/60 59/59/59
f 61/61/61 62/62/62 60/60/60
f 62/62/62 63/63/63 60/60/60
f 62/62/62 64/64/64 63/63/63
f 67/67/67 66/66/66 65/65/65
f 67/67/67 68/68/68 66/66/66
f 70/70/70 69/69/69 66/66/66
f 70/70/70 71/71/71 69/69/69
f 71/71/71 73/73/73 72/72/72
f 76/76/76 75/75/75 74/74/74
f 76/76/76 77/77/77 75/75/75
f 74/74/74 79/79/79 78/78/78
f 79/79/79 74/74/74 80/80/80
f 80/80/80 74/74/74 81/81/81
f 83/83/83 82/82/82 77/77/77
f 86/86/86 85/85/85 84/84/84
f 89/89/89 88/88/88 87/87/87
f 92/92/92 91/91/91 90/90/90
f 95/95/95 94/94/94 93/93/93
f 98/98/98 97/97/97 96/96/96
f 101/101/101 100/100/100 99/99/99
f 104/104/104 103/103/103 102/102/102
f 107/107/107 106/106/106 105/105/105
f 110/110/110 109/109/109 108/108/108
f 113/113/113 112/112/112 111/111/111
f 116/116/116 115/115/115 114/114/114
f 119/119/119 118/118/118 117/117/117
f 122/122/122 121/121/121 120/120/120
f 125/125/125 124/124/124 123/123/123
f 128/128/128 127/127/127 126/126/126
f 131/131/131 130/130/130 129/129/129
f 132/132/132 130/130/130 131/131/131
f 133/133/133 132/132/132 131/131/131
f 134/134/134 133/133/133 131/131/131
f 137/137/137 136/136/136 135/135/135
f 136/136/136 138/138/138 135/135/135
f 136/136/136 139/139/139 138/138/138
f 136/136/136 140/140/140 139/139/139
