g plainsDioRiver
v -0.48345947 -0.6468773 -24.640194
v -2.8433075 -0.62667847 -24.86424
v -1.7542877 -0.5091438 -29.241438
v 0.25662994 -0.5284271 -28.974234
v -0.03536606 -0.7855301 -20.379612
v -2.8873825 -0.76533127 -20.532957
v 1.0802841 -0.8635788 -16.256765
v -2.3649101 -0.8442993 -16.28615
v 2.857975 -0.69187164 -13.27895
v -1.1078568 -0.6735077 -13.288132
v -0.7754593 -0.4356842 -33.6168
v 1.0040703 -0.4549675 -33.31011
v -1.1537666 -0.41181183 -39.91493
v 0.3695717 -0.43017578 -39.625687
v -2.6771088 -0.4356842 -46.25346
v -1.3548584 -0.4549675 -45.945854
v 4.468548 -3.0535545 -2.8120613
v -4.608143 -3.0535545 -2.8120613
v -5.322525 -2.8662376 -3.393299
v 5.5180817 -2.8846016 -4.153595
v -4.7238426 -2.6063766 -4.804619
v 5.440033 -2.5714874 -5.4299316
v -3.6228867 -2.3612099 -6.0414734
v 4.9891815 -2.3097916 -6.344486
v 4.7320786 -2.0848236 -7.2682266
v -2.9103394 -2.1261444 -7.280163
v 4.1756325 -3.1527252 -1.545826
v -4.1857605 -3.1527252 -0.7928772
v 4.2380714 -3.2968864 1.340168
v -4.1802483 -3.2968864 1.8112183
v 4.3096924 -3.3216782 3.6981812
v -4.2454453 -3.3216782 3.8910065
v 4.103092 -3.3216782 5.1131706
v -4.1508675 -3.3198433 5.076439
v 5.6613235 -3.4750214 6.015789
v -5.364765 -3.3694267 6.015789
v 5.639286 -3.3216782 8.450932
v -6.1030197 -3.3216782 8.573975
v 5.6126595 -3.3216782 13.885925
v -6.2885017 -3.3216782 13.922657
v 4.598015 -1.8295555 -8.780548
v -1.9517097 -1.8470039 -8.790649
v 4.4630356 -1.4824677 -10.265324
v -1.3723068 -1.4659386 -10.298382
v -1.428318 -1.0086594 -11.790501
v 3.8285408 -1.0297813 -11.809784
v -1.1078568 -0.6735077 -13.288132
v 2.857975 -0.69187164 -13.27895
vt 0.99791944 0.6412798
vt 0.0012826879 0.6442111
vt 0.0012826879 0.71749324
vt 0.99791944 0.71260774
vt 0.99791944 0.5699519
vt 0.0012826879 0.5728832
vt 0.99791944 0.50155526
vt 0.0012826879 0.50155526
vt 0.99791944 0.45172343
vt 0.0012826879 0.45172343
vt 0.0012826879 0.78979826
vt 0.99791944 0.78491277
vt 0.0012826879 0.89434737
vt 0.99791944 0.88946193
vt 0.0012826879 0.99987364
vt 0.99791944 0.99987364
vt 0.9715379 0.27780053
vt 0.028641345 0.27780053
vt 0.0012826879 0.2875715
vt 0.99791944 0.30027372
vt 0.0012826879 0.31102178
vt 0.99791944 0.3217698
vt 0.0012826879 0.33154076
vt 0.99791944 0.33642623
vt 0.99791944 0.35205975
vt 0.0012826879 0.35205975
vt 0.9715379 0.25728154
vt 0.028641345 0.24457932
vt 0.9715379 0.20940389
vt 0.028641345 0.20158714
vt 0.9715379 0.1703201
vt 0.028641345 0.16641173
vt 0.9715379 0.14686982
vt 0.028641345 0.14686982
vt 0.99791944 0.1312363
vt 0.0012826879 0.1312363
vt 0.99791944 0.091175415
vt 0.0012826879 0.089221224
vt 0.99791944 0.000305593
vt 0.0012826879 0.000305593
vt 0.99791944 0.3774642
vt 0.0012826879 0.3774642
vt 0.99791944 0.4018916
vt 0.0012826879 0.4028687
vt 0.0012826879 0.42729604
vt 0.99791944 0.42729604
vt 0.0012826879 0.45172343
vt 0.99791944 0.45172343
vn 0.006913047 0.9999761 -0
vn 0.006913047 0.9999761 -0
vn 0.006913047 0.9999761 -0
vn 0.006913047 0.9999761 -0
vn 0.006913047 0.9999761 -0
vn 0.006913047 0.9999761 -0
vn 0.006913047 0.9999761 -0
vn 0.006913047 0.9999761 -0
vn 0.0029333169 0.99601966 0.08908557
vn 0.006913047 0.9999761 -0
vn 0.01089246 0.9999407 -0
vn 0.01089246 0.9999407 -0
vn 0.01089246 0.9999407 -0
vn 0.01089246 0.9999407 -0
vn 0.014871356 0.99988943 -0
vn 0.014871356 0.99988943 -0
vn 0.0069132093 0.99203974 0.12573527
vn 0.0069132093 0.99203974 0.12573527
vn 0.010893102 0.9801001 0.19820476
vn 0.010893102 0.9801001 0.19820476
vn 0.010893102 0.97612023 0.21695766
vn 0.010893102 0.97612023 0.21695766
vn 0.0029333169 0.97612023 0.21721122
vn 0.0029333169 0.97612023 0.21721122
vn -0.005026467 0.9801001 0.19844022
vn -0.0010465756 0.9801001 0.1985012
vn 0.0029333057 0.99999577 -0
vn 0.0029333057 0.99999577 -0
vn 0.0029333057 0.99999577 -0
vn 0.0029333057 0.99999577 -0
vn -0.0010465755 0.99999946 -0
vn -0.0010465755 0.99999946 -0
vn 0.0029333057 0.99999577 -0
vn 0.0029333057 0.99999577 -0
vn 0.0029333057 0.99999577 -0
vn 0.0029333057 0.99999577 -0
vn 0.0029333057 0.99999577 -0
vn 0.0029333057 0.99999577 -0
vn -0.0010465755 0.99999946 -0
vn -0.0010465755 0.99999946 -0
vn -0.0010465756 0.9801001 0.1985012
vn -0.005026467 0.9801001 0.19844022
vn -0.0010465756 0.96816045 0.25032833
vn -0.0010465756 0.9641805 0.26524484
vn 0.0029333169 0.9641805 0.2652307
vn 0.0029333169 0.9641805 0.2652307
vn 0.006913047 0.9999761 -0
vn 0.0029333169 0.99601966 0.08908557
g plainsDioRiver_0
f 3/3/3 2/2/2 1/1/1
f 4/4/4 3/3/3 1/1/1
f 1/1/1 2/2/2 5/5/5
f 2/2/2 6/6/6 5/5/5
f 5/5/5 6/6/6 7/7/7
f 6/6/6 8/8/8 7/7/7
f 7/7/7 8/8/8 9/9/9
f 8/8/8 10/10/10 9/9/9
f 11/11/11 3/3/3 4/4/4
f 12/12/12 11/11/11 4/4/4
f 13/13/13 11/11/11 12/12/12
f 14/14/14 13/13/13 12/12/12
f 15/15/15 13/13/13 14/14/14
f 16/16/16 15/15/15 14/14/14
f 19/19/19 18/18/18 17/17/17
f 20/20/20 19/19/19 17/17/17
f 21/21/21 19/19/19 20/20/20
f 22/22/22 21/21/21 20/20/20
f 23/23/23 21/21/21 22/22/22
f 24/24/24 23/23/23 22/22/22
f 24/24/24 25/25/25 23/23/23
f 25/25/25 26/26/26 23/23/23
f 17/17/17 18/18/18 27/27/27
f 18/18/18 28/28/28 27/27/27
f 27/27/27 28/28/28 29/29/29
f 28/28/28 30/30/30 29/29/29
f 29/29/29 30/30/30 31/31/31
f 30/30/30 32/32/32 31/31/31
f 31/31/31 32/32/32 33/33/33
f 32/32/32 34/34/34 33/33/33
f 33/33/33 34/34/34 35/35/35
f 34/34/34 36/36/36 35/35/35
f 35/35/35 36/36/36 37/37/37
f 36/36/36 38/38/38 37/37/37
f 37/37/37 38/38/38 39/39/39
f 38/38/38 40/40/40 39/39/39
f 25/25/25 41/41/41 26/26/26
f 41/41/41 42/42/42 26/26/26
f 41/41/41 43/43/43 42/42/42
f 43/43/43 44/44/44 42/42/42
f 45/45/45 44/44/44 43/43/43
f 46/46/46 45/45/45 43/43/43
f 47/47/47 45/45/45 46/46/46
f 48/48/48 47/47/47 46/46/46
