g questSealedLetter
v -0.5947219 0.40431404 -0.15923333
v 0.39366627 0.6534157 -0.17836723
v -0.5981231 0.41947675 -0.12206757
v 0.39560437 0.6703075 -0.14209452
v -0.4398837 -0.2825301 0.06972736
v -0.4410808 -0.259463 0.11798966
v 0.57491577 -0.027766168 0.054469645
v 0.5647313 -0.011026382 0.09625262
v 0.57491577 -0.027766168 0.054469645
v 0.5647313 -0.011026382 0.09625262
v 0.39366627 0.6534157 -0.17836723
v 0.39560437 0.6703075 -0.14209452
v -0.4398837 -0.2825301 0.06972736
v -0.5981041 0.3972457 -0.15550914
v -0.4410808 -0.259463 0.11798966
v -0.60555243 0.41185737 -0.11760238
v -0.019755065 0.19963646 -0.00030988455
v 0.39560437 0.6703075 -0.14209452
v 0.5647313 -0.011026382 0.09625262
v -0.4410808 -0.259463 0.11798966
v -0.60555243 0.41185737 -0.11760238
v -0.5981231 0.41947675 -0.12206757
v -0.019755065 0.19963646 -0.00030988455
v -0.025588334 0.20957392 0.009152532
v 0.39560437 0.6703075 -0.14209452
v -0.5981231 0.41947675 -0.12206757
v -0.025588334 0.20957392 0.009152532
v -0.019755065 0.19963646 -0.00030988455
v -0.5981231 0.41947675 -0.12206757
v 0.39560437 0.6703075 -0.14209452
v -0.025588334 0.20957392 0.009152532
v -0.4398837 -0.2825301 0.06972736
v 0.57491577 -0.027766168 0.054469645
v -0.5981041 0.3972457 -0.15550914
v -0.5947219 0.40431404 -0.15923333
v 0.39366627 0.6534157 -0.17836723
v -0.60555243 0.41185737 -0.11760238
v -0.5981041 0.3972457 -0.15550914
v -0.5981231 0.41947675 -0.12206757
v -0.5947219 0.40431404 -0.15923333
v 0.040306747 0.3932175 -0.103750736
v 0.025790095 0.39912677 -0.04631102
v -0.1283071 0.36832637 -0.043346882
v -0.1283071 0.36832637 -0.043346882
v -0.1305682 0.35208058 -0.097480446
v -0.1305682 0.35208058 -0.097480446
v -0.1283071 0.36832637 -0.043346882
v -0.1763224 0.22049946 0.007746458
v -0.18635482 0.20258158 -0.04118079
v -0.18635482 0.20258158 -0.04118079
v -0.1763224 0.22049946 0.007746458
v -0.06315309 0.10875523 0.052398562
v -0.059656918 0.07778376 0.0074044466
v -0.059656918 0.07778376 0.0074044466
v -0.06315309 0.10875523 0.052398562
v 0.090583116 0.14694703 0.04386717
v -0.059656918 0.07778376 0.0074044466
v 0.10950801 0.12663507 0.0011531711
v 0.10950801 0.12663507 0.0011531711
v 0.090583116 0.14694703 0.04386717
v 0.1375913 0.29359585 -0.0038820505
v 0.15338105 0.2810743 -0.06215781
v 0.15338105 0.2810743 -0.06215781
v 0.1375913 0.29359585 -0.0038820505
v 0.025790095 0.39912677 -0.04631102
v 0.040306747 0.3932175 -0.103750736
v 0.004908085 0.32570738 -0.0045090914
v -0.013161719 0.2708518 0.024448276
v -0.06288707 0.3031913 -0.005288124
v -0.06288707 0.3031913 -0.005288124
v -0.013161719 0.2708518 0.024448276
v -0.081906974 0.24208444 0.01000762
v -0.081906974 0.24208444 0.01000762
v -0.013161719 0.2708518 0.024448276
v -0.037520885 0.2002635 0.028837502
v -0.037520885 0.2002635 0.028837502
v -0.013161719 0.2708518 0.024448276
v 0.02413702 0.2150082 0.026747346
v 0.02413702 0.2150082 0.026747346
v -0.013161719 0.2708518 0.024448276
v 0.044315934 0.27486098 0.012515724
v 0.044315934 0.27486098 0.012515724
v -0.013161719 0.2708518 0.024448276
v 0.004908085 0.32570738 -0.0045090914
v 0.025790095 0.39912677 -0.04631102
v 0.01585263 0.36788934 -0.033124447
v -0.101059854 0.34505028 -0.02691114
v -0.1283071 0.36832637 -0.043346882
v -0.1283071 0.36832637 -0.043346882
v -0.101059854 0.34505028 -0.02691114
v -0.13503343 0.23266 0.007309437
v -0.1763224 0.22049946 0.007746458
v -0.1763224 0.22049946 0.007746458
v -0.13503343 0.23266 0.007309437
v -0.0553627 0.14041072 0.035943806
v -0.06315309 0.10875523 0.052398562
v -0.040522993 0.17235118 0.026728392
v -0.10928726 0.23748624 0.003452301
v -0.06315309 0.10875523 0.052398562
v -0.0553627 0.14041072 0.035943806
v 0.07184821 0.18204165 0.04090303
v 0.090583116 0.14694703 0.04386717
v 0.090583116 0.14694703 0.04386717
v 0.07184821 0.18204165 0.04090303
v 0.10591683 0.2928738 0.010539591
v 0.1375913 0.29359585 -0.0038820505
v 0.1375913 0.29359585 -0.0038820505
v 0.10591683 0.2928738 0.010539591
v 0.01585263 0.36788934 -0.033124447
v 0.025790095 0.39912677 -0.04631102
v 0.01585263 0.36788934 -0.033124447
v 0.0089553 0.33982503 -0.032098353
v -0.08318001 0.32323724 -0.028374195
v -0.101059854 0.34505028 -0.02691114
v -0.101059854 0.34505028 -0.02691114
v -0.08318001 0.32323724 -0.028374195
v -0.10928726 0.23748624 0.003452301
v -0.13503343 0.23266 0.007309437
v -0.0553627 0.14041072 0.035943806
v -0.040522993 0.17235118 0.026728392
v 0.048401117 0.1827637 0.010615647
v 0.07184821 0.18204165 0.04090303
v 0.07184821 0.18204165 0.04090303
v 0.048401117 0.1827637 0.010615647
v 0.077415496 0.27617204 0.0020081997
v 0.10591683 0.2928738 0.010539591
v 0.10591683 0.2928738 0.010539591
v 0.077415496 0.27617204 0.0020081997
v 0.0089553 0.33982503 -0.032098353
v 0.01585263 0.36788934 -0.033124447
v 0.0089553 0.33982503 -0.032098353
v 0.004908085 0.32570738 -0.0045090914
v -0.06288707 0.3031913 -0.005288124
v -0.08318001 0.32323724 -0.028374195
v -0.08318001 0.32323724 -0.028374195
v -0.06288707 0.3031913 -0.005288124
v -0.081906974 0.24208444 0.01000762
v -0.10928726 0.23748624 0.003452301
v -0.10928726 0.23748624 0.003452301
v -0.081906974 0.24208444 0.01000762
v -0.037520885 0.2002635 0.028837502
v -0.040522993 0.17235118 0.026728392
v -0.040522993 0.17235118 0.026728392
v -0.037520885 0.2002635 0.028837502
v 0.02413702 0.2150082 0.026747346
v 0.048401117 0.1827637 0.010615647
v 0.048401117 0.1827637 0.010615647
v 0.02413702 0.2150082 0.026747346
v 0.044315934 0.27486098 0.012515724
v 0.077415496 0.27617204 0.0020081997
v 0.077415496 0.27617204 0.0020081997
v 0.044315934 0.27486098 0.012515724
v 0.004908085 0.32570738 -0.0045090914
v 0.0089553 0.33982503 -0.032098353
vt 0.28500795 0.7009978
vt 0.34243417 0.7016982
vt 0.28500795 0.7009978
vt 0.34243417 0.7016982
vt 0.28430763 0.6603793
vt 0.28430763 0.6603793
vt 0.34243417 0.6603793
vt 0.34243417 0.6603793
vt 0.34243417 0.6603793
vt 0.34243417 0.6603793
vt 0.34243417 0.7016982
vt 0.34243417 0.7016982
vt 0.28430763 0.6603793
vt 0.28500795 0.7002976
vt 0.28430763 0.6603793
vt 0.28500795 0.7002976
vt 0.31372106 0.6806886
vt 0.34243417 0.7016982
vt 0.34243417 0.6603793
vt 0.28430763 0.6603793
vt 0.28500795 0.7002976
vt 0.28500795 0.7009978
vt 0.31372106 0.6806886
vt 0.31372106 0.6806886
vt 0.34243417 0.7016982
vt 0.28500795 0.7009978
vt 0.31372106 0.6806886
vt 0.31372106 0.6806886
vt 0.28500795 0.7009978
vt 0.34243417 0.7016982
vt 0.31372106 0.6806886
vt 0.28430763 0.6603793
vt 0.34243417 0.6603793
vt 0.28500795 0.7002976
vt 0.28500795 0.7009978
vt 0.34243417 0.7016982
vt 0.28500795 0.7002976
vt 0.28500795 0.7002976
vt 0.28500795 0.7009978
vt 0.28500795 0.7009978
vt 0.33613127 0.9797251
vt 0.33262968 0.9769238
vt 0.28920987 0.9790248
vt 0.28920987 0.9790248
vt 0.28780922 0.9797251
vt 0.28780922 0.9797251
vt 0.28920987 0.9790248
vt 0.26679963 0.9398069
vt 0.26329803 0.94050723
vt 0.26329803 0.94050723
vt 0.26679963 0.9398069
vt 0.28920987 0.90128934
vt 0.28850955 0.8970874
vt 0.28850955 0.8970874
vt 0.28920987 0.90128934
vt 0.33262968 0.90198964
vt 0.28850955 0.8970874
vt 0.3368316 0.89918834
vt 0.3368316 0.89918834
vt 0.33262968 0.90198964
vt 0.35503992 0.9398069
vt 0.35854152 0.94050723
vt 0.35854152 0.94050723
vt 0.35503992 0.9398069
vt 0.33262968 0.9769238
vt 0.33613127 0.9797251
vt 0.3221249 0.95591426
vt 0.31372106 0.9412075
vt 0.30251592 0.95521396
vt 0.30251592 0.95521396
vt 0.31372106 0.9412075
vt 0.2934118 0.9391066
vt 0.2934118 0.9391066
vt 0.31372106 0.9412075
vt 0.30251592 0.92439985
vt 0.30251592 0.92439985
vt 0.31372106 0.9412075
vt 0.32002392 0.92439985
vt 0.32002392 0.92439985
vt 0.31372106 0.9412075
vt 0.3291281 0.9398069
vt 0.3291281 0.9398069
vt 0.31372106 0.9412075
vt 0.3221249 0.95591426
vt 0.33262968 0.9769238
vt 0.32772744 0.96922034
vt 0.2948124 0.96992064
vt 0.28920987 0.9790248
vt 0.28920987 0.9790248
vt 0.2948124 0.96992064
vt 0.27870506 0.94050723
vt 0.26679963 0.9398069
vt 0.26679963 0.9398069
vt 0.27870506 0.94050723
vt 0.2934118 0.9096932
vt 0.28920987 0.90128934
vt 0.29971465 0.918097
vt 0.28570828 0.94050723
vt 0.28920987 0.90128934
vt 0.2934118 0.9096932
vt 0.3298284 0.9117941
vt 0.33262968 0.90198964
vt 0.33262968 0.90198964
vt 0.3298284 0.9117941
vt 0.3466361 0.94050723
vt 0.35503992 0.9398069
vt 0.35503992 0.9398069
vt 0.3466361 0.94050723
vt 0.32772744 0.96922034
vt 0.33262968 0.9769238
vt 0.32772744 0.96922034
vt 0.32422584 0.96291745
vt 0.29831403 0.9636178
vt 0.2948124 0.96992064
vt 0.2948124 0.96992064
vt 0.29831403 0.9636178
vt 0.28570828 0.94050723
vt 0.27870506 0.94050723
vt 0.2934118 0.9096932
vt 0.29971465 0.918097
vt 0.32422584 0.915996
vt 0.3298284 0.9117941
vt 0.3298284 0.9117941
vt 0.32422584 0.915996
vt 0.33823225 0.9398069
vt 0.3466361 0.94050723
vt 0.3466361 0.94050723
vt 0.33823225 0.9398069
vt 0.32422584 0.96291745
vt 0.32772744 0.96922034
vt 0.32422584 0.96291745
vt 0.3221249 0.95591426
vt 0.30251592 0.95521396
vt 0.29831403 0.9636178
vt 0.29831403 0.9636178
vt 0.30251592 0.95521396
vt 0.2934118 0.9391066
vt 0.28570828 0.94050723
vt 0.28570828 0.94050723
vt 0.2934118 0.9391066
vt 0.30251592 0.92439985
vt 0.29971465 0.918097
vt 0.29971465 0.918097
vt 0.30251592 0.92439985
vt 0.32002392 0.92439985
vt 0.32422584 0.915996
vt 0.32422584 0.915996
vt 0.32002392 0.92439985
vt 0.3291281 0.9398069
vt 0.33823225 0.9398069
vt 0.33823225 0.9398069
vt 0.3291281 0.9398069
vt 0.3221249 0.95591426
vt 0.32422584 0.96291745
vn -0.23533309 0.8923987 -0.38502324
vn -0.23533309 0.8847585 -0.4022695
vn -0.23533309 0.8923987 -0.38502324
vn -0.23533309 0.8847585 -0.4022695
vn 0.22308475 -0.8801504 0.41900897
vn 0.22308475 -0.8801504 0.41900897
vn 0.23072505 -0.8801504 0.4148509
vn 0.23072505 -0.8801504 0.4148509
vn 0.94891304 0.28881526 0.12708193
vn 0.94891304 0.28881526 0.12708193
vn 0.97183394 0.19713163 -0.12914293
vn 0.97183394 0.18949139 -0.14011347
vn -0.976442 -0.20016384 0.08059465
vn -0.9611614 -0.26128626 -0.088872515
vn -0.976442 -0.20780414 0.05812486
vn -0.9611614 -0.26892656 -0.062026914
vn -0.04432571 0.31937635 0.9465907
vn -0.04432571 0.31937635 0.9465907
vn -0.04432571 0.31937635 0.9465907
vn -0.07488692 0.3117361 0.94721305
vn -0.07488692 0.31937635 0.94466436
vn 0.009156406 0.5027436 0.86438704
vn 0.6127399 -0.32240862 0.7215278
vn 0.6127399 -0.32240862 0.7215278
vn 0.6127399 -0.32240862 0.7215278
vn -0.39577937 -0.742625 0.54024696
vn -0.39577937 -0.742625 0.54024696
vn -0.39577937 -0.742625 0.54024696
vn -0.07488692 0.37285852 0.9248613
vn -0.07488692 0.37285852 0.9248613
vn -0.07488692 0.37285852 0.9248613
vn 0.06263852 -0.2994877 -0.95204175
vn 0.06263852 -0.307128 -0.9496045
vn 0.06263852 -0.307128 -0.9496045
vn 0.05499822 -0.3147683 -0.9475738
vn 0.06263852 -0.307128 -0.9496045
vn -0.76251364 0.5333047 -0.3662773
vn -0.8923987 0.37285852 -0.2541674
vn -0.7854346 0.5180242 -0.33873793
vn -0.9229599 0.3270167 -0.20299023
vn -0.22005248 0.95352113 -0.20585021
vn -0.22005248 0.95352113 -0.20585021
vn -0.22005248 0.95352113 -0.20585021
vn -0.22005248 0.95352113 -0.20585021
vn -0.22005248 0.95352113 -0.20585021
vn -0.9451107 0.32675043 -0
vn -0.9451107 0.32675043 -0
vn -0.9451107 0.32675043 -0
vn -0.9451107 0.32675043 -0
vn -0.7243122 -0.5898191 0.35705084
vn -0.7243122 -0.5898191 0.35705084
vn -0.7243122 -0.5898191 0.35705084
vn -0.7243122 -0.5898191 0.35705084
vn 0.24600565 -0.81138766 0.5302181
vn 0.24600565 -0.81138766 0.5302181
vn 0.24600565 -0.81138766 0.5302181
vn 0.24600565 -0.81138766 0.5302181
vn 0.24600565 -0.81138766 0.5302181
vn 0.9183519 -0.14668179 0.3675789
vn 0.9183519 -0.14668179 0.3675789
vn 0.9183519 -0.14668179 0.3675789
vn 0.9183519 -0.14668179 0.3675789
vn 0.68143433 0.73187923 -0
vn 0.68143433 0.73187923 -0
vn 0.68143433 0.73187923 -0
vn 0.68143433 0.73187923 -0
vn -0.17421079 0.5027436 0.8466992
vn -0.17421079 0.5027436 0.8466992
vn -0.17421079 0.5027436 0.8466992
vn -0.31937635 0.31937635 0.89218694
vn -0.31937635 0.31937635 0.89218694
vn -0.31937635 0.31937635 0.89218694
vn -0.2658943 0.15128982 0.9520565
vn -0.2658943 0.15128982 0.9520565
vn -0.2658943 0.15128982 0.9520565
vn 0.02443701 0.051965952 0.99834985
vn 0.02443701 0.051965952 0.99834985
vn 0.02443701 0.051965952 0.99834985
vn 0.19252354 0.16657043 0.9670517
vn 0.19252354 0.16657043 0.9670517
vn 0.19252354 0.16657043 0.9670517
vn 0.15432209 0.41870022 0.8949161
vn 0.15432209 0.41870022 0.8949161
vn 0.15432209 0.41870022 0.8949161
vn -0.059606314 0.46454203 0.8835427
vn -0.059606314 0.46454203 0.8835427
vn -0.059606314 0.46454203 0.8835427
vn -0.059606314 0.46454203 0.8835427
vn -0.15893018 0.34993756 0.9231928
vn -0.15893018 0.34993756 0.9231928
vn -0.15893018 0.34993756 0.9231928
vn -0.15893018 0.34993756 0.9231928
vn 0.009156406 0.34993756 0.93672824
vn 0.009156406 0.34993756 0.93672824
vn 0.009156406 0.34993756 0.93672824
vn 0.009156406 0.34993756 0.93672824
vn 0.009156406 0.31937635 0.94758373
vn 0.009156406 0.31937635 0.94758373
vn -0.06724656 0.2658943 0.9616539
vn -0.06724656 0.2658943 0.9616539
vn -0.06724656 0.2658943 0.9616539
vn -0.06724656 0.2658943 0.9616539
vn 0.33004892 0.17421079 0.9277491
vn 0.33004892 0.17421079 0.9277491
vn 0.33004892 0.17421079 0.9277491
vn 0.33004892 0.17421079 0.9277491
vn 0.13140118 0.54094505 0.8307299
vn 0.13140118 0.54094505 0.8307299
vn 0.13140118 0.54094505 0.8307299
vn 0.13140118 0.54094505 0.8307299
vn 0.047357917 -0.0015161037 0.9988768
vn 0.047357917 -0.0015161037 0.9988768
vn 0.047357917 -0.0015161037 0.9988768
vn 0.047357917 -0.0015161037 0.9988768
vn 0.21544445 0.2506137 0.94380957
vn 0.21544445 0.2506137 0.94380957
vn 0.21544445 0.2506137 0.94380957
vn 0.21544445 0.2506137 0.94380957
vn -0.14364958 0.74723303 0.64885104
vn -0.14364958 0.74723303 0.64885104
vn -0.14364958 0.74723303 0.64885104
vn -0.14364958 0.74723303 0.64885104
vn -0.6249883 0.3270167 0.70883685
vn -0.6249883 0.3270167 0.70883685
vn -0.6249883 0.3270167 0.70883685
vn -0.6249883 0.3270167 0.70883685
vn -0.34993756 0.12072861 0.92896086
vn -0.34993756 0.12072861 0.92896086
vn -0.34993756 0.12072861 0.92896086
vn -0.34993756 0.12072861 0.92896086
vn -0.18185103 0.7854346 0.5916271
vn -0.18185103 0.7854346 0.5916271
vn -0.18185103 0.7854346 0.5916271
vn -0.18185103 0.7854346 0.5916271
vn -0.39577937 0.38813913 0.83229005
vn -0.39577937 0.38813913 0.83229005
vn -0.39577937 0.38813913 0.83229005
vn -0.39577937 0.38813913 0.83229005
vn -0.3117361 0.04432571 0.94913423
vn -0.3117361 0.04432571 0.94913423
vn -0.3117361 0.04432571 0.94913423
vn -0.3117361 0.04432571 0.94913423
vn 0.15432209 -0.23836535 0.9588361
vn 0.15432209 -0.23836535 0.9588361
vn 0.15432209 -0.23836535 0.9588361
vn 0.15432209 -0.23836535 0.9588361
vn 0.4217325 -0.0015161037 0.906719
vn 0.4217325 -0.0015161037 0.906719
vn 0.4217325 -0.0015161037 0.906719
vn 0.4217325 -0.0015161037 0.906719
vn 0.39117128 0.6555495 0.6459411
vn 0.39117128 0.6555495 0.6459411
vn 0.39117128 0.6555495 0.6459411
vn 0.39117128 0.6555495 0.6459411
g questSealedLetter_0
f 3/3/3 2/2/2 1/1/1
f 3/3/3 4/4/4 2/2/2
f 7/7/7 6/6/6 5/5/5
f 7/7/7 8/8/8 6/6/6
f 11/11/11 10/10/10 9/9/9
f 11/11/11 12/12/12 10/10/10
f 15/15/15 14/14/14 13/13/13
f 15/15/15 16/16/16 14/14/14
f 19/19/19 18/18/18 17/17/17
f 19/19/19 17/17/17 20/20/20
f 17/17/17 21/21/21 20/20/20
f 22/22/22 21/21/21 17/17/17
f 25/25/25 24/24/24 23/23/23
f 28/28/28 27/27/27 26/26/26
f 31/31/31 30/30/30 29/29/29
f 34/34/34 33/33/33 32/32/32
f 35/35/35 33/33/33 34/34/34
f 33/33/33 35/35/35 36/36/36
f 39/39/39 38/38/38 37/37/37
f 39/39/39 40/40/40 38/38/38
f 43/43/43 42/42/42 41/41/41
f 45/45/45 44/44/44 41/41/41
f 48/48/48 47/47/47 46/46/46
f 49/49/49 48/48/48 46/46/46
f 52/52/52 51/51/51 50/50/50
f 53/53/53 52/52/52 50/50/50
f 56/56/56 55/55/55 54/54/54
f 58/58/58 56/56/56 57/57/57
f 61/61/61 60/60/60 59/59/59
f 62/62/62 61/61/61 59/59/59
f 65/65/65 64/64/64 63/63/63
f 66/66/66 65/65/65 63/63/63
f 69/69/69 68/68/68 67/67/67
f 72/72/72 71/71/71 70/70/70
f 75/75/75 74/74/74 73/73/73
f 78/78/78 77/77/77 76/76/76
f 81/81/81 80/80/80 79/79/79
f 84/84/84 83/83/83 82/82/82
f 87/87/87 86/86/86 85/85/85
f 88/88/88 87/87/87 85/85/85
f 91/91/91 90/90/90 89/89/89
f 92/92/92 91/91/91 89/89/89
f 95/95/95 94/94/94 93/93/93
f 96/96/96 95/95/95 93/93/93
f 95/95/95 97/97/97 94/94/94
f 97/97/97 98/98/98 94/94/94
f 101/101/101 100/100/100 99/99/99
f 102/102/102 101/101/101 99/99/99
f 105/105/105 104/104/104 103/103/103
f 106/106/106 105/105/105 103/103/103
f 109/109/109 108/108/108 107/107/107
f 110/110/110 109/109/109 107/107/107
f 113/113/113 112/112/112 111/111/111
f 114/114/114 113/113/113 111/111/111
f 117/117/117 116/116/116 115/115/115
f 118/118/118 117/117/117 115/115/115
f 121/121/121 120/120/120 119/119/119
f 122/122/122 121/121/121 119/119/119
f 125/125/125 124/124/124 123/123/123
f 126/126/126 125/125/125 123/123/123
f 129/129/129 128/128/128 127/127/127
f 130/130/130 129/129/129 127/127/127
f 133/133/133 132/132/132 131/131/131
f 134/134/134 133/133/133 131/131/131
f 137/137/137 136/136/136 135/135/135
f 138/138/138 137/137/137 135/135/135
f 141/141/141 140/140/140 139/139/139
f 142/142/142 141/141/141 139/139/139
f 145/145/145 144/144/144 143/143/143
f 146/146/146 145/145/145 143/143/143
f 149/149/149 148/148/148 147/147/147
f 150/150/150 149/149/149 147/147/147
f 153/153/153 152/152/152 151/151/151
f 154/154/154 153/153/153 151/151/151
