g reapersPlume
v 0.560762 0.39337993 0.03835416
v 0.39619246 0.455562 0.062865674
v 0.71864414 0.6413803 -0.031566978
v 0.6682189 0.7032387 -0.040923953
v 0.71864414 0.6413803 -0.031566978
v -0.058443308 -0.45823973 0.21171439
v -0.20041585 -0.39098817 0.22263539
v -0.19801593 -0.23812157 0.23881459
v -0.20041585 -0.39098817 0.22263539
v -0.27351892 -0.33619457 0.22196126
v -0.19801593 -0.23812157 0.23881459
v -0.42169356 -0.70416373 0.121056855
v -0.4714986 -0.60773563 0.1386652
v -0.19391727 -0.534336 0.1903578
v -0.4714986 -0.60773563 0.1386652
v -0.20041585 -0.39098817 0.22263539
v -0.27351892 -0.33619457 0.22196126
v 0.3812267 0.004296899 0.1498828
v 0.07134092 0.09026247 0.20543146
v 0.3440954 0.17523026 0.13440478
v 0.07134092 0.09026247 0.20543146
v 0.24715495 0.28945553 0.13680458
v 0.3440954 0.17523026 0.13440478
v -0.48918784 -0.10728574 0.12208158
v -0.3340832 -0.27892017 0.21349406
v -0.613606 -0.5223633 0.09163767
v -0.3340832 -0.27892017 0.21349406
v -0.52758646 -0.5546948 0.13081837
v -0.613606 -0.5223633 0.09163767
v 0.33932257 0.610505 -0.013365388
v 0.6079244 0.7499428 -0.05742675
v 0.39619246 0.455562 0.062865674
v 0.6079244 0.7499428 -0.05742675
v 0.6682189 0.7032387 -0.040923953
v -0.48530483 -0.6107288 0.16252959
v -0.5369165 -0.5619485 0.15530288
v -0.28581512 -0.32616347 0.25448143
v -0.33483815 -0.27981 0.2476052
v -0.71332383 -0.8168789 0.06456447
v -0.6637615 -0.8637447 0.07149458
v -0.28581512 -0.32616347 0.25448143
v -0.33483815 -0.27981 0.2476052
v -0.2086134 -0.2254479 0.27168536
v -0.25019395 -0.16674429 0.2658069
v 0.24715495 0.28945553 0.13680458
v 0.060069382 0.09638357 0.2332058
v 0.20961922 0.32494187 0.13154638
v -0.0011150241 0.12539828 0.23247766
v 0.39619246 0.455562 0.062865674
v 0.560762 0.39337993 0.03835416
v 0.24715495 0.28945553 0.13680458
v 0.3440954 0.17523026 0.13440478
v 0.3440954 0.17523026 0.13440478
v 0.560762 0.39337993 0.03835416
v 0.45481515 0.14861548 0.08222675
v 0.39619246 0.455562 0.062865674
v 0.24715495 0.28945553 0.13680458
v 0.20961922 0.32494187 0.13154638
v 0.00042200089 0.49398768 0.060816288
v 0.33932257 0.610505 -0.013365388
v 0.20961922 0.32494187 0.13154638
v 0.39619246 0.455562 0.062865674
v 0.20961922 0.32494187 0.13154638
v 0.0017703176 0.12763643 0.20257318
v 0.00042200089 0.49398768 0.060816288
v 0.0017703176 0.12763643 0.20257318
v -0.2738695 0.24490869 0.116553664
v 0.00042200089 0.49398768 0.060816288
v -0.22349823 0.10752028 0.20464945
v -0.33812797 0.09517014 0.15069175
v -0.24202347 -0.15576941 0.23236978
v -0.48918784 -0.10728574 0.12208158
v -0.3340832 -0.27892017 0.21349406
v -0.52758646 -0.5546948 0.13081837
v -0.3340832 -0.27892017 0.21349406
v -0.5369165 -0.5619485 0.15530288
v -0.71332383 -0.8168789 0.06456447
v -0.3340832 -0.27892017 0.21349406
v -0.33483815 -0.27981 0.2476052
v -0.5369165 -0.5619485 0.15530288
v -0.25019395 -0.16674429 0.2658069
v -0.24202347 -0.15576941 0.23236978
v -0.09274328 0.028565705 0.26038682
v -0.096464455 0.025033236 0.22597909
v -0.28581512 -0.32616347 0.25448143
v -0.27351892 -0.33619457 0.22196126
v -0.48530483 -0.6107288 0.16252959
v -0.19801593 -0.23812157 0.23881459
v -0.2086134 -0.2254479 0.27168536
v -0.031154394 -0.036717415 0.2351203
v -0.04007995 -0.02121234 0.26774836
v -0.27351892 -0.33619457 0.22196126
v -0.4714986 -0.60773563 0.1386652
v -0.48530483 -0.6107288 0.16252959
v -0.6637615 -0.8637447 0.07149458
v -0.0011150241 0.12539828 0.23247766
v 0.0017703176 0.12763643 0.20257318
v 0.20961922 0.32494187 0.13154638
v -0.096464455 0.025033236 0.22597909
v -0.09274328 0.028565705 0.26038682
v 0.07134092 0.09026247 0.20543146
v 0.060069382 0.09638357 0.2332058
v 0.24715495 0.28945553 0.13680458
v -0.031154394 -0.036717415 0.2351203
v -0.04007995 -0.02121234 0.26774836
v -0.4714986 -0.60773563 0.1386652
v -0.6546742 -0.87784755 0.035414934
v -0.6637615 -0.8637447 0.07149458
v -0.6546742 -0.87784755 0.035414934
v -0.71464515 -0.8211394 0.02702868
v -0.6637615 -0.8637447 0.07149458
v -0.71332383 -0.8168789 0.06456447
v -0.71464515 -0.8211394 0.02702868
v -0.52758646 -0.5546948 0.13081837
v -0.71332383 -0.8168789 0.06456447
v 0.3812267 0.004296899 0.1498828
v 0.2259872 -0.21050906 0.18496478
v 0.07134092 0.09026247 0.20543146
v -0.031154394 -0.036717415 0.2351203
v 0.060069382 0.09638357 0.2332058
v -0.04007995 -0.02121234 0.26774836
v -0.0011150241 0.12539828 0.23247766
v -0.09274328 0.028565705 0.26038682
v 0.0017703176 0.12763643 0.20257318
v -0.096464455 0.025033236 0.22597909
v -0.22349823 0.10752028 0.20464945
v -0.096464455 0.025033236 0.22597909
v -0.24202347 -0.15576941 0.23236978
v -0.22349823 0.10752028 0.20464945
v -0.24202347 -0.15576941 0.23236978
v -0.33812797 0.09517014 0.15069175
v -0.22349823 0.10752028 0.20464945
v -0.2086134 -0.2254479 0.27168536
v -0.25019395 -0.16674429 0.2658069
v -0.04007995 -0.02121234 0.26774836
v -0.09274328 0.028565705 0.26038682
v 0.2259872 -0.21050906 0.18496478
v -0.058443308 -0.45823973 0.21171439
v -0.031154394 -0.036717415 0.2351203
v -0.058443308 -0.45823973 0.21171439
v -0.19801593 -0.23812157 0.23881459
v -0.031154394 -0.036717415 0.2351203
v 0.71864414 0.6413803 -0.031566978
v 0.6682189 0.7032387 -0.040923953
v 0.87636447 0.8893267 -0.040276825
v 0.87636447 0.8893267 -0.040276825
v 0.6682189 0.7032387 -0.040923953
v 0.6079244 0.7499428 -0.05742675
vt 0.19401178 0.14087558
vt 0.18496731 0.15444227
vt 0.21266598 0.16461729
vt 0.20814374 0.17140062
vt 0.21266598 0.16461729
vt 0.19909929 0.69032645
vt 0.19514233 0.6841084
vt 0.1906201 0.68523896
vt 0.19514233 0.6841084
vt 0.19231594 0.681282
vt 0.1906201 0.68523896
vt 0.20192568 0.6705417
vt 0.19796872 0.6688459
vt 0.19966456 0.6835431
vt 0.19796872 0.6688459
vt 0.19514233 0.6841084
vt 0.19231594 0.681282
vt 0.19118538 0.7129376
vt 0.18383676 0.6993709
vt 0.18327148 0.7101112
vt 0.18383676 0.6993709
vt 0.17987981 0.7072848
vt 0.18327148 0.7101112
vt 0.18327148 0.6705417
vt 0.19005482 0.6784556
vt 0.19344649 0.6620625
vt 0.19005482 0.6784556
vt 0.19570762 0.66658473
vt 0.19344649 0.6620625
vt 0.17366174 0.16518256
vt 0.20249096 0.17705342
vt 0.18496731 0.15444227
vt 0.20249096 0.17705342
vt 0.20814374 0.17140062
vt 0.15952978 0.16857423
vt 0.1589645 0.16744368
vt 0.16066033 0.17422703
vt 0.16009505 0.17366174
vt 0.15783393 0.16235617
vt 0.15839922 0.16292144
vt 0.16066033 0.17422703
vt 0.16009505 0.17366174
vt 0.16179089 0.17648813
vt 0.16122562 0.17592286
vt 0.17140062 0.18496731
vt 0.16631311 0.18214092
vt 0.17083535 0.18440203
vt 0.16574784 0.18157564
vt 0.17648813 0.71463346
vt 0.1827062 0.71915567
vt 0.17987981 0.7072848
vt 0.18327148 0.7101112
vt 0.18327148 0.7101112
vt 0.1827062 0.71915567
vt 0.18722843 0.715764
vt 0.17648813 0.71463346
vt 0.17987981 0.7072848
vt 0.17874925 0.705589
vt 0.17027007 0.69541395
vt 0.17083535 0.7078501
vt 0.17874925 0.705589
vt 0.17648813 0.71463346
vt 0.17874925 0.705589
vt 0.18214092 0.69597924
vt 0.17027007 0.69541395
vt 0.18214092 0.69597924
vt 0.17422703 0.68241256
vt 0.17027007 0.69541395
vt 0.18101037 0.68750006
vt 0.17987981 0.6790209
vt 0.18722843 0.6835431
vt 0.18327148 0.6705417
vt 0.19005482 0.6784556
vt 0.15952978 0.16744368
vt 0.16122562 0.17309646
vt 0.1589645 0.16744368
vt 0.15783393 0.16235617
vt 0.16122562 0.17309646
vt 0.16009505 0.17366174
vt 0.1589645 0.16744368
vt 0.16122562 0.17592286
vt 0.16179089 0.17592286
vt 0.16405201 0.17987981
vt 0.16461729 0.17931452
vt 0.16066033 0.17422703
vt 0.16179089 0.17422703
vt 0.15952978 0.16857423
vt 0.16235617 0.17648813
vt 0.16179089 0.17648813
vt 0.16518256 0.17987981
vt 0.16461729 0.18044509
vt 0.16179089 0.17422703
vt 0.16009505 0.16857423
vt 0.15952978 0.16857423
vt 0.15839922 0.16292144
vt 0.16574784 0.18157564
vt 0.16631311 0.18101037
vt 0.17083535 0.18440203
vt 0.16461729 0.17931452
vt 0.16405201 0.17987981
vt 0.1668784 0.18214092
vt 0.16631311 0.18214092
vt 0.17140062 0.18496731
vt 0.16518256 0.17987981
vt 0.16461729 0.18044509
vt 0.16009505 0.16857423
vt 0.1589645 0.16235617
vt 0.15839922 0.16292144
vt 0.1589645 0.16235617
vt 0.15839922 0.16179089
vt 0.15839922 0.16292144
vt 0.15783393 0.16235617
vt 0.15839922 0.16179089
vt 0.15952978 0.16744368
vt 0.15783393 0.16235617
vt 0.19118538 0.7129376
vt 0.19570762 0.7050237
vt 0.18383676 0.6993709
vt 0.18666315 0.6942834
vt 0.16631311 0.18214092
vt 0.16461729 0.18044509
vt 0.16574784 0.18157564
vt 0.16405201 0.17987981
vt 0.18214092 0.69597924
vt 0.18383676 0.69145703
vt 0.18101037 0.68750006
vt 0.18383676 0.69145703
vt 0.18722843 0.6835431
vt 0.18101037 0.68750006
vt 0.18722843 0.6835431
vt 0.17987981 0.6790209
vt 0.18101037 0.68750006
vt 0.16179089 0.17648813
vt 0.16122562 0.17592286
vt 0.16461729 0.18044509
vt 0.16405201 0.17987981
vt 0.19570762 0.7050237
vt 0.19909929 0.69032645
vt 0.18666315 0.6942834
vt 0.19909929 0.69032645
vt 0.1906201 0.68523896
vt 0.18666315 0.6942834
vt 0.21266598 0.16461729
vt 0.20814374 0.17140062
vt 0.23132017 0.18892427
vt 0.23132017 0.18892427
vt 0.20814374 0.17140062
vt 0.20249096 0.17705342
vn 0.55940783 0.3782676 0.73754764
vn 0.55940783 0.3782676 0.73754764
vn 0.19967073 0.14827174 0.96857995
vn 0.13480008 0.25442362 0.9576521
vn 0.13480008 0.25442362 0.9576521
vn 0.016853511 -0.10531342 0.99429625
vn 0.016853511 -0.10531342 0.99429625
vn 0.016853511 -0.10531342 0.99429625
vn -0.09519577 -0.09351879 0.99105597
vn -0.09519577 -0.09351879 0.99105597
vn -0.09519577 -0.09351879 0.99105597
vn -0.13647705 -0.22326005 0.9651575
vn -0.13647705 -0.22326005 0.9651575
vn -0.13647705 -0.22326005 0.9651575
vn -0.16596371 -0.17018408 0.9713359
vn -0.16596371 -0.17018408 0.9713359
vn -0.16596371 -0.17018408 0.9713359
vn 0.27043867 0.25442362 0.9285104
vn 0.27043867 0.25442362 0.9285104
vn 0.27043867 0.25442362 0.9285104
vn 0.29402798 0.20134765 0.9343482
vn 0.29402798 0.20134765 0.9343482
vn 0.29402798 0.20134765 0.9343482
vn -0.44313818 0.12468237 0.8877403
vn -0.44313818 0.12468237 0.8877403
vn -0.44313818 0.12468237 0.8877403
vn -0.40185684 0.053914428 0.914114
vn -0.40185684 0.053914428 0.914114
vn -0.40185684 0.053914428 0.914114
vn 0.36479592 0.6141607 0.6998075
vn -0.07160646 0.4195488 0.904904
vn 0.36479592 0.6141607 0.6998075
vn 0.028648138 0.36057562 0.93228996
vn 0.028648138 0.36057562 0.93228996
vn -0.2662183 -0.10531342 0.9581424
vn -0.2662183 -0.10531342 0.9581424
vn -0.2662183 -0.10531342 0.9581424
vn -0.2662183 -0.10531342 0.9581424
vn -0.28391033 -0.12300545 0.9509283
vn -0.28391033 -0.12300545 0.9509283
vn -0.17186105 -0.016853511 0.984977
vn -0.17186105 -0.016853511 0.984977
vn -0.17186105 -0.016853511 0.984977
vn -0.17775834 -0.010956168 0.9840132
vn 0.22915736 0.32519156 0.91746247
vn 0.22915736 0.32519156 0.91746247
vn 0.22915736 0.32519156 0.91746247
vn 0.19967073 0.34878093 0.91568744
vn 0.4591532 0.33698624 0.8219603
vn 0.4591532 0.33698624 0.8219603
vn 0.4591532 0.33698624 0.8219603
vn 0.4591532 0.33698624 0.8219603
vn 0.48863983 0.26032096 0.8327449
vn 0.48863983 0.26032096 0.8327449
vn 0.48863983 0.26032096 0.8327449
vn 0.37069327 0.4372409 0.81939423
vn 0.37069327 0.4372409 0.81939423
vn 0.37069327 0.4372409 0.81939423
vn 0.25274667 0.5551874 0.7923926
vn 0.25274667 0.5551874 0.7923926
vn 0.25274667 0.5551874 0.7923926
vn 0.27633598 0.5492901 0.78861827
vn 0.08172411 0.4195488 0.9040464
vn 0.08172411 0.4195488 0.9040464
vn 0.08172411 0.4195488 0.9040464
vn -0.05981177 0.4313435 0.90020293
vn -0.05981177 0.4313435 0.90020293
vn -0.05981177 0.4313435 0.90020293
vn -0.083401084 0.39595956 0.9144727
vn -0.37237018 0.21903968 0.9018659
vn -0.37237018 0.21903968 0.9018659
vn -0.37237018 0.21903968 0.9018659
vn -0.3782676 0.19545037 0.9048275
vn -0.7380046 0.66723675 -0.10071874
vn -0.7380046 0.66723675 -0.10071874
vn -0.7380046 0.66723675 -0.10071874
vn -0.7380046 0.66723675 -0.10071874
vn -0.7554391 0.6552187 -0
vn -0.7554391 0.6552187 -0
vn -0.7554391 0.6552187 -0
vn -0.7414962 0.6709571 -0
vn -0.7414962 0.6709571 -0
vn -0.7144154 0.6967233 0.0647097
vn -0.7144154 0.6967233 0.0647097
vn 0.60658646 -0.6655597 0.43483692
vn 0.60658646 -0.6655597 0.43483692
vn 0.60658646 -0.6655597 0.43483692
vn 0.6183811 -0.6537651 0.43611473
vn 0.6183811 -0.6537651 0.43611473
vn 0.6360731 -0.6242784 0.4535278
vn 0.6360731 -0.6242784 0.4535278
vn 0.64786774 -0.68325174 0.33680037
vn 0.64786774 -0.68325174 0.33680037
vn 0.64786774 -0.68325174 0.33680037
vn 0.64786774 -0.68325174 0.33680037
vn -0.6259554 0.77928597 -0.029886043
vn -0.6259554 0.77928597 -0.029886043
vn -0.6259554 0.77928597 -0.029886043
vn -0.6552187 0.7554391 -0
vn -0.6552187 0.7554391 -0
vn 0.724533 -0.54761314 0.41853523
vn 0.724533 -0.54761314 0.41853523
vn 0.724533 -0.54761314 0.41853523
vn 0.69504637 -0.57120246 0.43662146
vn 0.69504637 -0.57120246 0.43662146
vn 0.6183811 -0.67145705 0.40835068
vn 0.6183811 -0.67145705 0.40835068
vn 0.6183811 -0.67145705 0.40835068
vn -0.7556966 -0.64786774 0.095864765
vn -0.7556966 -0.64786774 0.095864765
vn -0.7556966 -0.64786774 0.095864765
vn -0.7556966 -0.64786774 0.095864765
vn -0.7554391 0.6552187 -0
vn -0.7554391 0.6552187 -0
vn -0.7554391 0.6552187 -0
vn 0.18787605 0.012633145 0.9821115
vn 0.18787605 0.012633145 0.9821115
vn 0.18787605 0.012633145 0.9821115
vn 0.22915736 0.030325115 0.97291684
vn 0.11121076 0.20134765 0.97318614
vn 0.11121076 0.20134765 0.97318614
vn 0.11121076 0.20134765 0.97318614
vn 0.08762145 0.20724499 0.97435725
vn -0.05981177 0.313397 0.9477367
vn -0.05981177 0.313397 0.9477367
vn -0.05981177 0.313397 0.9477367
vn -0.1423744 0.18365568 0.9726254
vn -0.1423744 0.18365568 0.9726254
vn -0.1423744 0.18365568 0.9726254
vn -0.32519156 0.24262899 0.91399217
vn -0.32519156 0.24262899 0.91399217
vn -0.32519156 0.24262899 0.91399217
vn -0.0421198 0.065709114 0.99694943
vn -0.0421198 0.065709114 0.99694943
vn -0.0421198 0.065709114 0.99694943
vn -0.053914428 0.083401084 0.99505657
vn 0.14659476 -0.07582682 0.9862861
vn 0.14659476 -0.07582682 0.9862861
vn 0.14659476 -0.07582682 0.9862861
vn 0.09351879 -0.06992948 0.99315864
vn 0.09351879 -0.06992948 0.99315864
vn 0.09351879 -0.06992948 0.99315864
vn -0.07750374 0.083401084 0.99349755
vn -0.07750374 0.083401084 0.99349755
vn 0.55940783 0.3782676 0.73754764
vn 0.36479592 0.6141607 0.6998075
vn -0.1423744 0.16006637 0.97678465
vn -0.1423744 0.16006637 0.97678465
g reapersPlume_0
f 3/3/3 2/2/2 1/1/1
f 5/5/5 4/4/4 2/2/2
f 8/8/8 7/7/7 6/6/6
f 11/11/11 10/10/10 9/9/9
f 14/14/14 13/13/13 12/12/12
f 16/16/16 15/15/15 14/14/14
f 15/15/15 16/16/16 17/17/17
f 20/20/20 19/19/19 18/18/18
f 23/23/23 22/22/22 21/21/21
f 26/26/26 25/25/25 24/24/24
f 29/29/29 28/28/28 27/27/27
f 32/32/32 31/31/31 30/30/30
f 32/32/32 34/34/34 33/33/33
f 37/37/37 36/36/36 35/35/35
f 37/37/37 38/38/38 36/36/36
f 39/39/39 35/35/35 36/36/36
f 39/39/39 40/40/40 35/35/35
f 43/43/43 42/42/42 41/41/41
f 43/43/43 44/44/44 42/42/42
f 47/47/47 46/46/46 45/45/45
f 47/47/47 48/48/48 46/46/46
f 51/51/51 50/50/50 49/49/49
f 52/52/52 50/50/50 51/51/51
f 55/55/55 54/54/54 53/53/53
f 58/58/58 57/57/57 56/56/56
f 61/61/61 60/60/60 59/59/59
f 61/61/61 62/62/62 60/60/60
f 65/65/65 64/64/64 63/63/63
f 68/68/68 67/67/67 66/66/66
f 69/69/69 66/66/66 67/67/67
f 72/72/72 71/71/71 70/70/70
f 72/72/72 73/73/73 71/71/71
f 76/76/76 75/75/75 74/74/74
f 77/77/77 76/76/76 74/74/74
f 80/80/80 79/79/79 78/78/78
f 81/81/81 78/78/78 79/79/79
f 81/81/81 82/82/82 78/78/78
f 83/83/83 82/82/82 81/81/81
f 83/83/83 84/84/84 82/82/82
f 87/87/87 86/86/86 85/85/85
f 85/85/85 86/86/86 88/88/88
f 85/85/85 88/88/88 89/89/89
f 89/89/89 88/88/88 90/90/90
f 89/89/89 90/90/90 91/91/91
f 94/94/94 93/93/93 92/92/92
f 95/95/95 93/93/93 94/94/94
f 98/98/98 97/97/97 96/96/96
f 96/96/96 97/97/97 99/99/99
f 96/96/96 99/99/99 100/100/100
f 103/103/103 102/102/102 101/101/101
f 104/104/104 101/101/101 102/102/102
f 104/104/104 102/102/102 105/105/105
f 108/108/108 107/107/107 106/106/106
f 111/111/111 110/110/110 109/109/109
f 111/111/111 112/112/112 110/110/110
f 115/115/115 114/114/114 113/113/113
f 118/118/118 117/117/117 116/116/116
f 118/118/118 119/119/119 117/117/117
f 122/122/122 121/121/121 120/120/120
f 122/122/122 123/123/123 121/121/121
f 126/126/126 125/125/125 124/124/124
f 129/129/129 128/128/128 127/127/127
f 132/132/132 131/131/131 130/130/130
f 135/135/135 134/134/134 133/133/133
f 135/135/135 136/136/136 134/134/134
f 139/139/139 138/138/138 137/137/137
f 142/142/142 141/141/141 140/140/140
f 145/145/145 144/144/144 143/143/143
f 148/148/148 147/147/147 146/146/146
