g saltyJawbreaker
v 0.46552628 0.003968835 0.31145817
v 0.52468 -0.008641124 -0.046794385
v 0.43120453 -0.2719794 0.113853455
v 0.4174629 -0.0044216514 -0.34358138
v 0.52468 -0.008641124 -0.046794385
v 0.4296202 0.23445654 -0.19560823
v 0.4174629 -0.0044216514 -0.34358138
v 0.27490553 -0.23780313 -0.41912806
v 0.42604738 -0.29078117 -0.20352986
v 0.14098117 -0.37979466 0.2772981
v 0.034346074 0.0439651 0.51386446
v 0.46552628 0.003968835 0.31145817
v 0.2760857 -0.46371564 -0.017241776
v 0.14098117 -0.37979466 0.2772981
v 0.43120453 -0.2719794 0.113853455
v 0.46552628 0.003968835 0.31145817
v 0.23676845 0.23820716 0.42852074
v 0.36345017 0.38739288 0.0746817
v -0.43978888 0.20188075 -0.1935874
v -0.52467984 -0.037789553 -0.0034677982
v -0.4111578 -0.31761777 -0.1767256
v 0.14098117 -0.37979466 0.2772981
v -0.23093218 -0.14503899 0.409234
v 0.034346074 0.0439651 0.51386446
v -0.41665447 0.19572127 0.18351549
v -0.23093218 -0.14503899 0.409234
v -0.40561265 -0.25529543 0.15308988
v -0.050706565 0.3370338 0.4452694
v -0.28546226 0.1869266 0.396527
v -0.1899336 0.44391137 0.2072804
v 0.114322394 0.37701386 -0.33410776
v -0.22443318 0.17800266 -0.4480825
v 0.0491547 -0.02264142 -0.5138645
v -0.43978888 0.20188075 -0.1935874
v -0.4111578 -0.31761777 -0.1767256
v -0.2470988 -0.15252414 -0.45613348
v -0.050706565 0.3370338 0.4452694
v -0.1899336 0.44391137 0.2072804
v 0.119237036 0.46908283 0.30093372
v 0.011017621 -0.3160658 -0.5012384
v -0.15441555 -0.45614964 -0.3207056
v 0.16152894 -0.46243846 -0.29994765
v -0.056607425 -0.52974015 -0.010872126
v 0.2760857 -0.46371564 -0.017241776
v 0.16152894 -0.46243846 -0.29994765
v -0.15441555 -0.45614964 -0.3207056
v -0.056607425 -0.52974015 -0.010872126
v 0.16152894 -0.46243846 -0.29994765
v 0.114322394 0.37701386 -0.33410776
v 0.36345017 0.38739288 0.0746817
v -0.0075416565 0.52974004 -0.017338753
v -0.0075416565 0.52974004 -0.017338753
v -0.30770755 0.42976558 -5.6624413E-05
v -0.17106718 0.43497127 -0.24713126
v 0.114322394 0.37701386 -0.33410776
v -0.0075416565 0.52974004 -0.017338753
v -0.17106718 0.43497127 -0.24713126
v -0.1899336 0.44391137 0.2072804
v -0.30770755 0.42976558 -5.6624413E-05
v -0.0075416565 0.52974004 -0.017338753
v -0.0075416565 0.52974004 -0.017338753
v 0.36345017 0.38739288 0.0746817
v 0.119237036 0.46908283 0.30093372
v -0.1899336 0.44391137 0.2072804
v -0.0075416565 0.52974004 -0.017338753
v 0.119237036 0.46908283 0.30093372
v 0.14098117 -0.37979466 0.2772981
v 0.2760857 -0.46371564 -0.017241776
v -0.056607425 -0.52974015 -0.010872126
v 0.14098117 -0.37979466 0.2772981
v -0.056607425 -0.52974015 -0.010872126
v -0.18155932 -0.40761742 0.26709694
v -0.4111578 -0.31761777 -0.1767256
v -0.056607425 -0.52974015 -0.010872126
v -0.15441555 -0.45614964 -0.3207056
v -0.15441555 -0.45614964 -0.3207056
v 0.011017621 -0.3160658 -0.5012384
v -0.2470988 -0.15252414 -0.45613348
v -0.4111578 -0.31761777 -0.1767256
v -0.15441555 -0.45614964 -0.3207056
v -0.2470988 -0.15252414 -0.45613348
v -0.22443318 0.17800266 -0.4480825
v 0.114322394 0.37701386 -0.33410776
v -0.17106718 0.43497127 -0.24713126
v -0.17106718 0.43497127 -0.24713126
v -0.30770755 0.42976558 -5.6624413E-05
v -0.43978888 0.20188075 -0.1935874
v -0.22443318 0.17800266 -0.4480825
v -0.17106718 0.43497127 -0.24713126
v -0.43978888 0.20188075 -0.1935874
v -0.22443318 0.17800266 -0.4480825
v -0.43978888 0.20188075 -0.1935874
v -0.2470988 -0.15252414 -0.45613348
v -0.2470988 -0.15252414 -0.45613348
v 0.011017621 -0.3160658 -0.5012384
v 0.0491547 -0.02264142 -0.5138645
v -0.22443318 0.17800266 -0.4480825
v -0.2470988 -0.15252414 -0.45613348
v 0.0491547 -0.02264142 -0.5138645
v -0.41665447 0.19572127 0.18351549
v -0.30770755 0.42976558 -5.6624413E-05
v -0.1899336 0.44391137 0.2072804
v -0.28546226 0.1869266 0.396527
v -0.41665447 0.19572127 0.18351549
v -0.1899336 0.44391137 0.2072804
v -0.23093218 -0.14503899 0.409234
v 0.14098117 -0.37979466 0.2772981
v -0.18155932 -0.40761742 0.26709694
v -0.18155932 -0.40761742 0.26709694
v -0.056607425 -0.52974015 -0.010872126
v -0.40561265 -0.25529543 0.15308988
v -0.23093218 -0.14503899 0.409234
v -0.18155932 -0.40761742 0.26709694
v -0.40561265 -0.25529543 0.15308988
v -0.23093218 -0.14503899 0.409234
v -0.41665447 0.19572127 0.18351549
v -0.28546226 0.1869266 0.396527
v -0.28546226 0.1869266 0.396527
v -0.050706565 0.3370338 0.4452694
v 0.034346074 0.0439651 0.51386446
v -0.23093218 -0.14503899 0.409234
v -0.28546226 0.1869266 0.396527
v 0.034346074 0.0439651 0.51386446
v -0.43978888 0.20188075 -0.1935874
v -0.30770755 0.42976558 -5.6624413E-05
v -0.41665447 0.19572127 0.18351549
v -0.52467984 -0.037789553 -0.0034677982
v -0.43978888 0.20188075 -0.1935874
v -0.41665447 0.19572127 0.18351549
v -0.52467984 -0.037789553 -0.0034677982
v -0.41665447 0.19572127 0.18351549
v -0.40561265 -0.25529543 0.15308988
v -0.40561265 -0.25529543 0.15308988
v -0.056607425 -0.52974015 -0.010872126
v -0.4111578 -0.31761777 -0.1767256
v -0.52467984 -0.037789553 -0.0034677982
v -0.40561265 -0.25529543 0.15308988
v -0.4111578 -0.31761777 -0.1767256
v 0.23676845 0.23820716 0.42852074
v -0.050706565 0.3370338 0.4452694
v 0.119237036 0.46908283 0.30093372
v 0.23676845 0.23820716 0.42852074
v 0.119237036 0.46908283 0.30093372
v 0.36345017 0.38739288 0.0746817
v 0.14098117 -0.37979466 0.2772981
v 0.46552628 0.003968835 0.31145817
v 0.43120453 -0.2719794 0.113853455
v 0.034346074 0.0439651 0.51386446
v -0.050706565 0.3370338 0.4452694
v 0.23676845 0.23820716 0.42852074
v 0.034346074 0.0439651 0.51386446
v 0.23676845 0.23820716 0.42852074
v 0.46552628 0.003968835 0.31145817
v 0.27490553 -0.23780313 -0.41912806
v 0.011017621 -0.3160658 -0.5012384
v 0.16152894 -0.46243846 -0.29994765
v 0.16152894 -0.46243846 -0.29994765
v 0.2760857 -0.46371564 -0.017241776
v 0.42604738 -0.29078117 -0.20352986
v 0.27490553 -0.23780313 -0.41912806
v 0.16152894 -0.46243846 -0.29994765
v 0.42604738 -0.29078117 -0.20352986
v 0.4296202 0.23445654 -0.19560823
v 0.36345017 0.38739288 0.0746817
v 0.114322394 0.37701386 -0.33410776
v 0.4296202 0.23445654 -0.19560823
v 0.114322394 0.37701386 -0.33410776
v 0.4174629 -0.0044216514 -0.34358138
v 0.4174629 -0.0044216514 -0.34358138
v 0.114322394 0.37701386 -0.33410776
v 0.0491547 -0.02264142 -0.5138645
v 0.0491547 -0.02264142 -0.5138645
v 0.011017621 -0.3160658 -0.5012384
v 0.27490553 -0.23780313 -0.41912806
v 0.4174629 -0.0044216514 -0.34358138
v 0.0491547 -0.02264142 -0.5138645
v 0.27490553 -0.23780313 -0.41912806
v 0.52468 -0.008641124 -0.046794385
v 0.46552628 0.003968835 0.31145817
v 0.36345017 0.38739288 0.0746817
v 0.52468 -0.008641124 -0.046794385
v 0.36345017 0.38739288 0.0746817
v 0.4296202 0.23445654 -0.19560823
v 0.52468 -0.008641124 -0.046794385
v 0.4174629 -0.0044216514 -0.34358138
v 0.42604738 -0.29078117 -0.20352986
v 0.42604738 -0.29078117 -0.20352986
v 0.2760857 -0.46371564 -0.017241776
v 0.43120453 -0.2719794 0.113853455
v 0.52468 -0.008641124 -0.046794385
v 0.42604738 -0.29078117 -0.20352986
v 0.43120453 -0.2719794 0.113853455
vt 0.13430905 0.5673735
vt 0.14536601 0.56553066
vt 0.14536601 0.5443382
vt 0.3526841 0.94054615
vt 0.33425584 0.94054615
vt 0.34346998 0.9608172
vt 0.2107864 0.9433104
vt 0.20065084 0.9433104
vt 0.20617932 0.95252454
vt 0.1573444 0.95252454
vt 0.14813027 0.9350177
vt 0.13338764 0.9433104
vt 0.14260177 0.9608172
vt 0.1573444 0.95252454
vt 0.1379947 0.95252454
vt 0.08823836 0.060595945
vt 0.084552705 0.068888664
vt 0.06704584 0.09192401
vt 0.22921467 0.5940945
vt 0.2246076 0.5710592
vt 0.22737184 0.5452596
vt 0.1573444 0.95252454
vt 0.1573444 0.9350177
vt 0.14813027 0.9350177
vt 0.3029278 0.9617387
vt 0.28818515 0.9304106
vt 0.3029278 0.9239607
vt 0.14260177 0.92580354
vt 0.15273732 0.92580354
vt 0.14813027 0.9165894
vt 0.35544837 0.96358144
vt 0.34899846 0.95528877
vt 0.36189827 0.942389
vt 0.22921467 0.5940945
vt 0.22737184 0.5452596
vt 0.23197891 0.5526309
vt 0.23935023 0.92580354
vt 0.23474316 0.9165894
vt 0.23013608 0.92580354
vt 0.35544837 0.92119646
vt 0.3379415 0.9119823
vt 0.3453128 0.91013944
vt 0.32319888 0.9036896
vt 0.32872736 0.9082967
vt 0.3453128 0.91013944
vt 0.3379415 0.9119823
vt 0.32319888 0.9036896
vt 0.3453128 0.91013944
vt 0.20065084 0.92580354
vt 0.22000054 0.92580354
vt 0.21539347 0.9165894
vt 0.21539347 0.9165894
vt 0.2107864 0.9082967
vt 0.20617932 0.9165894
vt 0.20065084 0.92580354
vt 0.21539347 0.9165894
vt 0.20617932 0.9165894
vt 0.23474316 0.9165894
vt 0.23013608 0.9082967
vt 0.2246076 0.9165894
vt 0.18590823 0.6171299
vt 0.1647157 0.60791576
vt 0.15550157 0.6088371
vt 0.18037975 0.6088371
vt 0.18590823 0.6171299
vt 0.15550157 0.6088371
vt 0.1573444 0.95252454
vt 0.16195147 0.9608172
vt 0.17669408 0.95252454
vt 0.1573444 0.95252454
vt 0.17669408 0.95252454
vt 0.16195147 0.9433104
vt 0.22737184 0.5452596
vt 0.18590823 0.5213028
vt 0.21355064 0.5295956
vt 0.18130116 0.9433104
vt 0.19143671 0.9433104
vt 0.18682964 0.9350177
vt 0.17669408 0.9350177
vt 0.18130116 0.9433104
vt 0.18682964 0.9350177
vt 0.19143671 0.92580354
vt 0.20065084 0.92580354
vt 0.19604377 0.9165894
vt 0.33886293 0.97555983
vt 0.3176704 0.9737171
vt 0.3259631 0.96358144
vt 0.19143671 0.92580354
vt 0.19604377 0.9165894
vt 0.18682964 0.9165894
vt 0.19143671 0.92580354
vt 0.18682964 0.9165894
vt 0.18682964 0.9350177
vt 0.18682964 0.9350177
vt 0.19143671 0.9433104
vt 0.19604377 0.9350177
vt 0.34899846 0.95528877
vt 0.34807706 0.931332
vt 0.36189827 0.942389
vt 0.0375606 0.072574325
vt 0.038482014 0.08639553
vt 0.055067465 0.084552705
vt 0.05691029 0.066124424
vt 0.0375606 0.072574325
vt 0.055067465 0.084552705
vt 0.1776155 0.557238
vt 0.15550157 0.5286741
vt 0.18037975 0.5314384
vt 0.16195147 0.9433104
vt 0.17669408 0.95252454
vt 0.16747995 0.9350177
vt 0.1776155 0.557238
vt 0.18037975 0.5314384
vt 0.20617932 0.5480238
vt 0.1573444 0.9350177
vt 0.1573444 0.9165894
vt 0.15273732 0.92580354
vt 0.15273732 0.92580354
vt 0.14260177 0.92580354
vt 0.14813027 0.9350177
vt 0.1573444 0.9350177
vt 0.15273732 0.92580354
vt 0.14813027 0.9350177
vt 0.17669408 0.9165894
vt 0.17208701 0.9082967
vt 0.1573444 0.9165894
vt 0.2246076 0.5710592
vt 0.22921467 0.5940945
vt 0.20617932 0.5940945
vt 0.17208701 0.92580354
vt 0.1573444 0.9165894
vt 0.16747995 0.9350177
vt 0.16747995 0.9350177
vt 0.17669408 0.95252454
vt 0.17669408 0.9350177
vt 0.17208701 0.92580354
vt 0.16747995 0.9350177
vt 0.17669408 0.9350177
vt 0.29739928 0.95252454
vt 0.2909494 0.9626601
vt 0.30753484 0.9737171
vt 0.23474316 0.9350177
vt 0.23013608 0.92580354
vt 0.22000054 0.92580354
vt 0.30661345 0.9082967
vt 0.31214193 0.94054615
vt 0.32043463 0.9221178
vt 0.28542092 0.9414675
vt 0.2909494 0.9626601
vt 0.29739928 0.95252454
vt 0.07441715 0.055988878
vt 0.084552705 0.068888664
vt 0.08823836 0.060595945
vt 0.048617564 0.053224634
vt 0.03295353 0.044010498
vt 0.049538977 0.033874944
vt 0.19604377 0.95252454
vt 0.20065084 0.9608172
vt 0.20617932 0.95252454
vt 0.048617564 0.053224634
vt 0.049538977 0.033874944
vt 0.06704584 0.045853324
vt 0.06796725 0.08086705
vt 0.06704584 0.09192401
vt 0.03295353 0.081788465
vt 0.21539347 0.9350177
vt 0.20065084 0.92580354
vt 0.2107864 0.9433104
vt 0.2107864 0.9433104
vt 0.20065084 0.92580354
vt 0.19604377 0.9350177
vt 0.19604377 0.9350177
vt 0.19143671 0.9433104
vt 0.20065084 0.9433104
vt 0.2107864 0.9433104
vt 0.19604377 0.9350177
vt 0.20065084 0.9433104
vt 0.22000054 0.9433104
vt 0.23013608 0.9433104
vt 0.22000054 0.92580354
vt 0.22000054 0.9433104
vt 0.22000054 0.92580354
vt 0.21539347 0.9350177
vt 0.22000054 0.9433104
vt 0.2107864 0.9433104
vt 0.21539347 0.95252454
vt 0.16563712 0.54249537
vt 0.16563712 0.5268313
vt 0.14536601 0.5443382
vt 0.14536601 0.56553066
vt 0.16563712 0.54249537
vt 0.14536601 0.5443382
vn 0.9550602 -0.24141926 0.17197904
vn 0.9550602 -0.24141926 0.17197904
vn 0.9550602 -0.24141926 0.17197904
vn 0.9322844 0.16095275 -0.32394445
vn 0.9322844 0.16095275 -0.32394445
vn 0.9322844 0.16095275 -0.32394445
vn 0.75767016 -0.27178693 -0.59335303
vn 0.75767016 -0.27178693 -0.59335303
vn 0.75767016 -0.27178693 -0.59335303
vn 0.36289006 -0.38566583 0.8482763
vn 0.36289006 -0.38566583 0.8482763
vn 0.36289006 -0.38566583 0.8482763
vn 0.5223205 -0.72730243 0.44521064
vn 0.5223205 -0.72730243 0.44521064
vn 0.5223205 -0.72730243 0.44521064
vn 0.7348944 0.48740548 0.47155714
vn 0.7348944 0.48740548 0.47155714
vn 0.7348944 0.48740548 0.47155714
vn -0.88218564 -0.066805005 -0.466139
vn -0.88218564 -0.066805005 -0.466139
vn -0.88218564 -0.066805005 -0.466139
vn 0.0060696006 -0.48436084 0.87484723
vn 0.0060696006 -0.48436084 0.87484723
vn 0.0060696006 -0.48436084 0.87484723
vn -0.81385833 -0.059213042 0.57803845
vn -0.81385833 -0.059213042 0.57803845
vn -0.81385833 -0.059213042 0.57803845
vn -0.5177732 0.6240602 0.58520067
vn -0.5177732 0.6240602 0.58520067
vn -0.5177732 0.6240602 0.58520067
vn 0.07439691 0.3963024 -0.9151008
vn 0.07439691 0.3963024 -0.9151008
vn 0.07439691 0.3963024 -0.9151008
vn -0.84422594 -0.066805005 -0.53180796
vn -0.84422594 -0.066805005 -0.53180796
vn -0.84422594 -0.066805005 -0.53180796
vn -0.22168821 0.8366341 0.500897
vn -0.22168821 0.8366341 0.500897
vn -0.22168821 0.8366341 0.500897
vn 0.021253407 -0.8032217 -0.595301
vn 0.021253407 -0.8032217 -0.595301
vn 0.021253407 -0.8032217 -0.595301
vn 0.19586772 -0.97783595 -0.07397743
vn 0.19586772 -0.97783595 -0.07397743
vn 0.19586772 -0.97783595 -0.07397743
vn -0.0015223622 -0.97024405 -0.24212424
vn -0.0015223622 -0.97024405 -0.24212424
vn -0.0015223622 -0.97024405 -0.24212424
vn 0.4008497 0.8745937 -0.2727736
vn 0.4008497 0.8745937 -0.2727736
vn 0.4008497 0.8745937 -0.2727736
vn -0.32038313 0.93532914 -0.15004681
vn -0.32038313 0.93532914 -0.15004681
vn -0.32038313 0.93532914 -0.15004681
vn 0.059213042 0.9049614 -0.4213534
vn 0.059213042 0.9049614 -0.4213534
vn 0.059213042 0.9049614 -0.4213534
vn -0.30519933 0.942921 0.13324197
vn -0.30519933 0.942921 0.13324197
vn -0.30519933 0.942921 0.13324197
vn 0.3477062 0.93532914 0.06526688
vn 0.3477062 0.93532914 0.06526688
vn 0.3477062 0.93532914 0.06526688
vn -0.15336078 0.9581049 0.24189974
vn -0.15336078 0.9581049 0.24189974
vn -0.15336078 0.9581049 0.24189974
vn 0.18827575 -0.91710055 0.35139555
vn 0.18827575 -0.91710055 0.35139555
vn 0.18827575 -0.91710055 0.35139555
vn 0.066805005 -0.9019167 0.42671233
vn 0.066805005 -0.9019167 0.42671233
vn 0.066805005 -0.9019167 0.42671233
vn -0.49499744 -0.8639571 -0.09249676
vn -0.49499744 -0.8639571 -0.09249676
vn -0.49499744 -0.8639571 -0.09249676
vn -0.4342621 -0.4767689 -0.76426953
vn -0.4342621 -0.4767689 -0.76426953
vn -0.4342621 -0.4767689 -0.76426953
vn -0.6088763 -0.469177 -0.6396426
vn -0.6088763 -0.469177 -0.6396426
vn -0.6088763 -0.469177 -0.6396426
vn -0.107809246 0.6240602 -0.7739031
vn -0.107809246 0.6240602 -0.7739031
vn -0.107809246 0.6240602 -0.7739031
vn -0.6544278 0.66961175 -0.35120404
vn -0.6544278 0.66961175 -0.35120404
vn -0.6544278 0.66961175 -0.35120404
vn -0.60128444 0.56332475 -0.56667656
vn -0.60128444 0.56332475 -0.56667656
vn -0.60128444 0.56332475 -0.56667656
vn -0.7607148 0.06984967 -0.64531696
vn -0.7607148 0.06984967 -0.64531696
vn -0.7607148 0.06984967 -0.64531696
vn -0.18372852 -0.021253407 -0.98274726
vn -0.18372852 -0.021253407 -0.98274726
vn -0.18372852 -0.021253407 -0.98274726
vn -0.20650429 0.039481938 -0.9776488
vn -0.20650429 0.039481938 -0.9776488
vn -0.20650429 0.039481938 -0.9776488
vn -0.7075713 0.6088763 0.3586258
vn -0.7075713 0.6088763 0.3586258
vn -0.7075713 0.6088763 0.3586258
vn -0.68479556 0.5785087 0.4431509
vn -0.68479556 0.5785087 0.4431509
vn -0.68479556 0.5785087 0.4431509
vn 0.013661504 -0.4767689 0.8789225
vn 0.013661504 -0.4767689 0.8789225
vn 0.013661504 -0.4767689 0.8789225
vn -0.5936925 -0.8032217 0.048622616
vn -0.5936925 -0.8032217 0.048622616
vn -0.5936925 -0.8032217 0.048622616
vn -0.63165206 -0.46158504 0.6228603
vn -0.63165206 -0.46158504 0.6228603
vn -0.63165206 -0.46158504 0.6228603
vn -0.84422594 -0.11994845 0.52239347
vn -0.84422594 -0.11994845 0.52239347
vn -0.84422594 -0.11994845 0.52239347
vn -0.28242356 0.13817698 0.9492861
vn -0.28242356 0.13817698 0.9492861
vn -0.28242356 0.13817698 0.9492861
vn -0.35075086 -0.021253407 0.9362276
vn -0.35075086 -0.021253407 0.9362276
vn -0.35075086 -0.021253407 0.9362276
vn -0.88218564 0.45703787 0.113423355
vn -0.88218564 0.45703787 0.113423355
vn -0.88218564 0.45703787 0.113423355
vn -0.92763585 0.37348583 -0
vn -0.92763585 0.37348583 -0
vn -0.92763585 0.37348583 -0
vn -0.82904214 -0.059213042 0.5560422
vn -0.82904214 -0.059213042 0.5560422
vn -0.82904214 -0.059213042 0.5560422
vn -0.56332475 -0.8108136 0.15889147
vn -0.56332475 -0.8108136 0.15889147
vn -0.56332475 -0.8108136 0.15889147
vn -0.89736944 -0.42362547 0.12356995
vn -0.89736944 -0.42362547 0.12356995
vn -0.89736944 -0.42362547 0.12356995
vn 0.24141926 0.56332475 0.7901784
vn 0.24141926 0.56332475 0.7901784
vn 0.24141926 0.56332475 0.7901784
vn 0.64379126 0.5936925 0.482765
vn 0.64379126 0.5936925 0.482765
vn 0.64379126 0.5936925 0.482765
vn 0.5602801 -0.52991235 0.6366154
vn 0.5602801 -0.52991235 0.6366154
vn 0.5602801 -0.52991235 0.6366154
vn 0.15031618 0.26723975 0.951834
vn 0.15031618 0.26723975 0.951834
vn 0.15031618 0.26723975 0.951834
vn 0.42362547 -0.044029176 0.90476674
vn 0.42362547 -0.044029176 0.90476674
vn 0.42362547 -0.044029176 0.90476674
vn 0.39325774 -0.57546395 -0.71707016
vn 0.39325774 -0.57546395 -0.71707016
vn 0.39325774 -0.57546395 -0.71707016
vn 0.5906478 -0.772854 -0.23201697
vn 0.5906478 -0.772854 -0.23201697
vn 0.5906478 -0.772854 -0.23201697
vn 0.58305585 -0.5906478 -0.557836
vn 0.58305585 -0.5906478 -0.557836
vn 0.58305585 -0.5906478 -0.557836
vn 0.5071366 0.7986744 -0.32393163
vn 0.5071366 0.7986744 -0.32393163
vn 0.5071366 0.7986744 -0.32393163
vn 0.5223205 0.4342621 -0.7338922
vn 0.5223205 0.4342621 -0.7338922
vn 0.5223205 0.4342621 -0.7338922
vn 0.38566583 0.3279751 -0.86237705
vn 0.38566583 0.3279751 -0.86237705
vn 0.38566583 0.3279751 -0.86237705
vn 0.31733853 -0.08198881 -0.9447614
vn 0.31733853 -0.08198881 -0.9447614
vn 0.31733853 -0.08198881 -0.9447614
vn 0.4160335 0.039481938 -0.90849173
vn 0.4160335 0.039481938 -0.90849173
vn 0.4160335 0.039481938 -0.90849173
vn 0.9322844 0.33556706 0.13505752
vn 0.9322844 0.33556706 0.13505752
vn 0.9322844 0.33556706 0.13505752
vn 0.92469245 0.37352663 0.073632486
vn 0.92469245 0.37352663 0.073632486
vn 0.92469245 0.37352663 0.073632486
vn 0.9322844 -0.13513231 -0.33553696
vn 0.9322844 -0.13513231 -0.33553696
vn 0.9322844 -0.13513231 -0.33553696
vn 0.76526207 -0.63619936 0.098103836
vn 0.76526207 -0.63619936 0.098103836
vn 0.76526207 -0.63619936 0.098103836
vn 0.9398763 -0.33252233 0.07785512
vn 0.9398763 -0.33252233 0.07785512
vn 0.9398763 -0.33252233 0.07785512
g saltyJawbreaker_0
f 3/3/3 2/2/2 1/1/1
f 6/6/6 5/5/5 4/4/4
f 9/9/9 8/8/8 7/7/7
f 12/12/12 11/11/11 10/10/10
f 15/15/15 14/14/14 13/13/13
f 18/18/18 17/17/17 16/16/16
f 21/21/21 20/20/20 19/19/19
f 24/24/24 23/23/23 22/22/22
f 27/27/27 26/26/26 25/25/25
f 30/30/30 29/29/29 28/28/28
f 33/33/33 32/32/32 31/31/31
f 36/36/36 35/35/35 34/34/34
f 39/39/39 38/38/38 37/37/37
f 42/42/42 41/41/41 40/40/40
f 45/45/45 44/44/44 43/43/43
f 48/48/48 47/47/47 46/46/46
f 51/51/51 50/50/50 49/49/49
f 54/54/54 53/53/53 52/52/52
f 57/57/57 56/56/56 55/55/55
f 60/60/60 59/59/59 58/58/58
f 63/63/63 62/62/62 61/61/61
f 66/66/66 65/65/65 64/64/64
f 69/69/69 68/68/68 67/67/67
f 72/72/72 71/71/71 70/70/70
f 75/75/75 74/74/74 73/73/73
f 78/78/78 77/77/77 76/76/76
f 81/81/81 80/80/80 79/79/79
f 84/84/84 83/83/83 82/82/82
f 87/87/87 86/86/86 85/85/85
f 90/90/90 89/89/89 88/88/88
f 93/93/93 92/92/92 91/91/91
f 96/96/96 95/95/95 94/94/94
f 99/99/99 98/98/98 97/97/97
f 102/102/102 101/101/101 100/100/100
f 105/105/105 104/104/104 103/103/103
f 108/108/108 107/107/107 106/106/106
f 111/111/111 110/110/110 109/109/109
f 114/114/114 113/113/113 112/112/112
f 117/117/117 116/116/116 115/115/115
f 120/120/120 119/119/119 118/118/118
f 123/123/123 122/122/122 121/121/121
f 126/126/126 125/125/125 124/124/124
f 129/129/129 128/128/128 127/127/127
f 132/132/132 131/131/131 130/130/130
f 135/135/135 134/134/134 133/133/133
f 138/138/138 137/137/137 136/136/136
f 141/141/141 140/140/140 139/139/139
f 144/144/144 143/143/143 142/142/142
f 147/147/147 146/146/146 145/145/145
f 150/150/150 149/149/149 148/148/148
f 153/153/153 152/152/152 151/151/151
f 156/156/156 155/155/155 154/154/154
f 159/159/159 158/158/158 157/157/157
f 162/162/162 161/161/161 160/160/160
f 165/165/165 164/164/164 163/163/163
f 168/168/168 167/167/167 166/166/166
f 171/171/171 170/170/170 169/169/169
f 174/174/174 173/173/173 172/172/172
f 177/177/177 176/176/176 175/175/175
f 180/180/180 179/179/179 178/178/178
f 183/183/183 182/182/182 181/181/181
f 186/186/186 185/185/185 184/184/184
f 189/189/189 188/188/188 187/187/187
f 192/192/192 191/191/191 190/190/190
