g staffenemyIce1
v -0.06670085 -1.2043288 0.0061155506
v -0.021789964 -1.198019 -0.05874055
v -0.012441822 -0.9135921 -0.035011396
v -0.040677905 -0.907134 0.0061155506
v -0.021789964 -1.198019 -0.05874055
v 0.044114575 -1.1853994 -0.04516917
v 0.028684888 -0.9265078 -0.026542405
v -0.012441822 -0.9135921 -0.035011396
v 0.044114575 -1.1853994 -0.04516917
v 0.065108225 -1.1790895 0.0061155506
v 0.041575514 -0.93296593 0.0061155506
v 0.028684888 -0.9265078 -0.026542405
v -0.021789964 -1.198019 -0.05874055
v -0.06670085 -1.2043288 0.0061155506
v -0.0007963141 -1.2288756 0.0061155506
v 0.044114575 -1.1853994 -0.04516917
v -0.021789964 -1.198019 -0.05874055
v -0.0007963141 -1.2288756 0.0061155506
v 0.065108225 -1.1790895 0.0061155506
v 0.044114575 -1.1853994 -0.04516917
v -0.0007963141 -1.2288756 0.0061155506
v -0.040677905 -0.907134 0.0061155506
v -0.012441822 -0.9135921 -0.035011396
v -0.008479419 -0.54823816 -0.024103211
v -0.029275317 -0.5448598 0.0061155506
v 0.028684888 -0.9265078 -0.026542405
v 0.041575514 -0.93296593 0.0061155506
v 0.03188191 -0.55852014 0.0061155506
v 0.022088207 -0.55505085 -0.018029986
v -0.012441822 -0.9135921 -0.035011396
v 0.028684888 -0.9265078 -0.026542405
v 0.022088207 -0.55505085 -0.018029986
v -0.008479419 -0.54823816 -0.024103211
v -0.036602587 0.34232306 0.0061155506
v -0.024826463 0.10689489 0.0061155506
v -0.006495166 0.10726415 -0.02054839
v -0.014002491 0.34149054 -0.03801797
v 0.021127515 0.107817136 -0.015593462
v 0.030489696 0.10788519 0.0061155506
v 0.04736592 0.33788094 0.0061155506
v 0.030941967 0.33861458 -0.03397845
v -0.006495166 0.10726415 -0.02054839
v 0.021127515 0.107817136 -0.015593462
v 0.030941967 0.33861458 -0.03397845
v -0.014002491 0.34149054 -0.03801797
v -0.036602587 0.34232306 0.0061155506
v -0.014002491 0.34149054 -0.03801797
v -0.015887868 0.52909184 -0.05210644
v -0.04190288 0.52909184 0.0061155506
v -0.055607103 0.5486921 0.0061152675
v -0.021489061 0.5486921 -0.07024172
v 0.030941967 0.33861458 -0.03397845
v 0.04736592 0.33788094 0.0061155506
v 0.06596272 0.52909184 0.0061155506
v 0.043069653 0.52909184 -0.05056841
v 0.049787182 0.5486921 -0.06838233
v 0.07987446 0.5486921 0.0061152675
v -0.014002491 0.34149054 -0.03801797
v 0.030941967 0.33861458 -0.03397845
v 0.043069653 0.52909184 -0.05056841
v -0.015887868 0.52909184 -0.05210644
v -0.021489061 0.5486921 -0.07024172
v 0.049787182 0.5486921 -0.06838233
v -0.008479419 -0.54823816 -0.024103211
v 0.022088207 -0.55505085 -0.018029986
v 0.021127515 0.107817136 -0.015593462
v -0.006495166 0.10726415 -0.02054839
v -0.029275317 -0.5448598 0.0061155506
v -0.008479419 -0.54823816 -0.024103211
v -0.006495166 0.10726415 -0.02054839
v -0.024826463 0.10689489 0.0061155506
v 0.022088207 -0.55505085 -0.018029986
v 0.03188191 -0.55852014 0.0061155506
v 0.030489696 0.10788519 0.0061155506
v 0.021127515 0.107817136 -0.015593462
v -0.06670085 -1.2043288 0.0061155506
v -0.040677905 -0.907134 0.0061155506
v -0.012441822 -0.9135921 0.047242496
v -0.021789964 -1.198019 0.07097165
v -0.021789964 -1.198019 0.07097165
v -0.012441822 -0.9135921 0.047242496
v 0.028684888 -0.9265078 0.038773507
v 0.044114575 -1.1853994 0.05740027
v 0.044114575 -1.1853994 0.05740027
v 0.028684888 -0.9265078 0.038773507
v 0.041575514 -0.93296593 0.0061155506
v 0.065108225 -1.1790895 0.0061155506
v -0.021789964 -1.198019 0.07097165
v -0.0007963141 -1.2288756 0.0061155506
v -0.06670085 -1.2043288 0.0061155506
v 0.044114575 -1.1853994 0.05740027
v -0.0007963141 -1.2288756 0.0061155506
v -0.021789964 -1.198019 0.07097165
v 0.065108225 -1.1790895 0.0061155506
v -0.0007963141 -1.2288756 0.0061155506
v 0.044114575 -1.1853994 0.05740027
v -0.006495166 0.10726415 0.032779492
v -0.014002491 0.34149054 0.05024907
v 0.030941967 0.33861458 0.046209555
v 0.021127515 0.107817136 0.027824564
v -0.036602587 0.34232306 0.0061155506
v -0.014002491 0.34149054 0.05024907
v -0.006495166 0.10726415 0.032779492
v -0.024826463 0.10689489 0.0061155506
v 0.021127515 0.107817136 0.027824564
v 0.030941967 0.33861458 0.046209555
v 0.04736592 0.33788094 0.0061155506
v 0.030489696 0.10788519 0.0061155506
v -0.040677905 -0.907134 0.0061155506
v -0.029275317 -0.5448598 0.0061155506
v -0.008479419 -0.54823816 0.036334313
v -0.012441822 -0.9135921 0.047242496
v 0.028684888 -0.9265078 0.038773507
v 0.022088207 -0.55505085 0.030261086
v 0.03188191 -0.55852014 0.0061155506
v 0.041575514 -0.93296593 0.0061155506
v -0.012441822 -0.9135921 0.047242496
v -0.008479419 -0.54823816 0.036334313
v 0.022088207 -0.55505085 0.030261086
v 0.028684888 -0.9265078 0.038773507
v -0.036602587 0.34232306 0.0061155506
v -0.04190288 0.52909184 0.0061155506
v -0.015887868 0.52909184 0.064337544
v -0.014002491 0.34149054 0.05024907
v -0.021489061 0.5486921 0.08247227
v -0.055607103 0.5486921 0.0061152675
v 0.030941967 0.33861458 0.046209555
v 0.043069653 0.52909184 0.062799506
v 0.06596272 0.52909184 0.0061155506
v 0.04736592 0.33788094 0.0061155506
v 0.07987446 0.5486921 0.0061152675
v 0.049787182 0.5486921 0.08061288
v -0.014002491 0.34149054 0.05024907
v -0.015887868 0.52909184 0.064337544
v 0.043069653 0.52909184 0.062799506
v 0.030941967 0.33861458 0.046209555
v 0.049787182 0.5486921 0.08061288
v -0.021489061 0.5486921 0.08247227
v -0.008479419 -0.54823816 0.036334313
v -0.006495166 0.10726415 0.032779492
v 0.021127515 0.107817136 0.027824564
v 0.022088207 -0.55505085 0.030261086
v -0.029275317 -0.5448598 0.0061155506
v -0.024826463 0.10689489 0.0061155506
v -0.006495166 0.10726415 0.032779492
v -0.008479419 -0.54823816 0.036334313
v 0.022088207 -0.55505085 0.030261086
v 0.021127515 0.107817136 0.027824564
v 0.030489696 0.10788519 0.0061155506
v 0.03188191 -0.55852014 0.0061155506
v -0.012569996 0.83388436 0.006115406
v 0.000870556 0.83388436 -0.023964833
v 0.025360912 0.83388436 -0.023325967
v 0.03725117 0.83388436 0.0061154054
v 0.025360912 0.83388436 0.035556793
v 0.000870556 0.83388436 0.03619566
v 0.049787182 0.5486921 -0.06838233
v 0.07153645 0.6552637 -0.12083399
v -0.04030498 0.6552637 -0.12375159
v -0.021489061 0.5486921 -0.07024172
v -0.021489061 0.5486921 -0.07024172
v -0.04030498 0.6552637 -0.12375159
v -0.09833232 0.6552637 0.0061152596
v -0.055607103 0.5486921 0.0061152675
v -0.012569996 0.83388436 0.006115406
v 0.000870556 0.83388436 -0.023964833
v -0.055607103 0.5486921 0.0061152675
v -0.09833232 0.6552637 0.0061152596
v -0.04030498 0.6552637 0.13598214
v -0.021489061 0.5486921 0.08247227
v 0.000870556 0.83388436 0.03619566
v -0.012569996 0.83388436 0.006115406
v -0.021489061 0.5486921 0.08247227
v -0.04030498 0.6552637 0.13598214
v 0.07153645 0.6552637 0.13306454
v 0.049787182 0.5486921 0.08061288
v 0.049787182 0.5486921 0.08061288
v 0.07153645 0.6552637 0.13306454
v 0.12280659 0.6552637 0.0061152587
v 0.07987446 0.5486921 0.0061152675
v 0.03725117 0.83388436 0.0061154054
v 0.025360912 0.83388436 0.035556793
v 0.07987446 0.5486921 0.0061152675
v 0.12280659 0.6552637 0.0061152587
v 0.07153645 0.6552637 -0.12083399
v 0.049787182 0.5486921 -0.06838233
v 0.025360912 0.83388436 -0.023325967
v 0.03725117 0.83388436 0.0061154054
v 0.07153645 0.6552637 -0.12083399
v 0.025360912 0.83388436 -0.023325967
v 0.000870556 0.83388436 -0.023964833
v -0.04030498 0.6552637 -0.12375159
v -0.04030498 0.6552637 0.13598214
v 0.000870556 0.83388436 0.03619566
v 0.025360912 0.83388436 0.035556793
v 0.07153645 0.6552637 0.13306454
vt 0.8122342 0.68199974
vt 0.81750965 0.68255293
vt 0.81969595 0.70748806
vt 0.8164039 0.7080542
vt 0.81750965 0.68255293
vt 0.82806045 0.68365926
vt 0.82628 0.70635575
vt 0.81969595 0.70748806
vt 0.82806045 0.68365926
vt 0.8333359 0.68421245
vt 0.829572 0.7057896
vt 0.82628 0.70635575
vt 0.81750965 0.68255293
vt 0.8122342 0.68199974
vt 0.8227851 0.6798478
vt 0.82806045 0.68365926
vt 0.81750965 0.68255293
vt 0.8227851 0.6798478
vt 0.8333359 0.68421245
vt 0.82806045 0.68365926
vt 0.8227851 0.6798478
vt 0.7937013 0.8860367
vt 0.8087362 0.8855466
vt 0.8108461 0.91327274
vt 0.79977286 0.9135291
vt 0.8306352 0.8845664
vt 0.83749914 0.88407636
vt 0.8323374 0.91249245
vt 0.82712257 0.9127557
vt 0.8087362 0.8855466
vt 0.8306352 0.8845664
vt 0.82712257 0.9127557
vt 0.8108461 0.91327274
vt 0.7958714 0.980856
vt 0.8021418 0.9629897
vt 0.81190276 0.96301776
vt 0.8079051 0.9807928
vt 0.82661104 0.9630597
vt 0.83159626 0.9630649
vt 0.8405824 0.98051894
vt 0.8318368 0.98057455
vt 0.81190276 0.96301776
vt 0.82661104 0.9630597
vt 0.8318368 0.98057455
vt 0.8079051 0.9807928
vt 0.79490864 0.6545169
vt 0.8031163 0.6542145
vt 0.8024317 0.72234595
vt 0.7929837 0.72234595
vt 0.7880068 0.72946423
vt 0.8003975 0.72946423
vt 0.81943893 0.6531701
vt 0.8254037 0.65290356
vt 0.83215743 0.72234595
vt 0.8238435 0.72234595
vt 0.826283 0.72946423
vt 0.83720994 0.72946423
vt 0.8031163 0.6542145
vt 0.81943893 0.6531701
vt 0.8238435 0.72234595
vt 0.8024317 0.72234595
vt 0.8003975 0.72946423
vt 0.826283 0.72946423
vt 0.93725175 0.76614857
vt 0.9654447 0.76516604
vt 0.9645584 0.8607616
vt 0.9390817 0.8606818
vt 0.9180715 0.7666358
vt 0.93725175 0.76614857
vt 0.9390817 0.8606818
vt 0.9221747 0.8606285
vt 0.9654447 0.76516604
vt 0.97447735 0.7646657
vt 0.9731931 0.86077136
vt 0.9645584 0.8607616
vt 0.8122342 0.68199974
vt 0.8164039 0.7080542
vt 0.81969595 0.70748806
vt 0.81750965 0.68255293
vt 0.81750965 0.68255293
vt 0.81969595 0.70748806
vt 0.82628 0.70635575
vt 0.82806045 0.68365926
vt 0.82806045 0.68365926
vt 0.82628 0.70635575
vt 0.829572 0.7057896
vt 0.8333359 0.68421245
vt 0.81750965 0.68255293
vt 0.8227851 0.6798478
vt 0.8122342 0.68199974
vt 0.82806045 0.68365926
vt 0.8227851 0.6798478
vt 0.81750965 0.68255293
vt 0.8333359 0.68421245
vt 0.8227851 0.6798478
vt 0.82806045 0.68365926
vt 0.81190276 0.96301776
vt 0.8079051 0.9807928
vt 0.8318368 0.98057455
vt 0.82661104 0.9630597
vt 0.7958714 0.980856
vt 0.8079051 0.9807928
vt 0.81190276 0.96301776
vt 0.8021418 0.9629897
vt 0.82661104 0.9630597
vt 0.8318368 0.98057455
vt 0.8405824 0.98051894
vt 0.83159626 0.9630649
vt 0.7937013 0.8860367
vt 0.79977286 0.9135291
vt 0.8108461 0.91327274
vt 0.8087362 0.8855466
vt 0.8306352 0.8845664
vt 0.82712257 0.9127557
vt 0.8323374 0.91249245
vt 0.83749914 0.88407636
vt 0.8087362 0.8855466
vt 0.8108461 0.91327274
vt 0.82712257 0.9127557
vt 0.8306352 0.8845664
vt 0.79490864 0.6545169
vt 0.7929837 0.72234595
vt 0.8024317 0.72234595
vt 0.8031163 0.6542145
vt 0.8003975 0.72946423
vt 0.7880068 0.72946423
vt 0.81943893 0.6531701
vt 0.8238435 0.72234595
vt 0.83215743 0.72234595
vt 0.8254037 0.65290356
vt 0.83720994 0.72946423
vt 0.826283 0.72946423
vt 0.8031163 0.6542145
vt 0.8024317 0.72234595
vt 0.8238435 0.72234595
vt 0.81943893 0.6531701
vt 0.826283 0.72946423
vt 0.8003975 0.72946423
vt 0.93725175 0.76614857
vt 0.9390817 0.8606818
vt 0.9645584 0.8607616
vt 0.9654447 0.76516604
vt 0.9180715 0.7666358
vt 0.9221747 0.8606285
vt 0.9390817 0.8606818
vt 0.93725175 0.76614857
vt 0.9654447 0.76516604
vt 0.9645584 0.8607616
vt 0.9731931 0.86077136
vt 0.97447735 0.7646657
vt 0.93401855 0.2369867
vt 0.9396273 0.2369867
vt 0.94984734 0.2369867
vt 0.95480955 0.2369867
vt 0.94984734 0.2369867
vt 0.9396273 0.2369867
vt 0.96004105 0.14296347
vt 0.96911687 0.17809847
vt 0.9224443 0.17809847
vt 0.93029666 0.14296347
vt 0.93029666 0.14296347
vt 0.9224443 0.17809847
vt 0.89822924 0.17809847
vt 0.9160587 0.14296347
vt 0.93401855 0.2369867
vt 0.9396273 0.2369867
vt 0.9160587 0.14296347
vt 0.89822924 0.17809847
vt 0.9224443 0.17809847
vt 0.93029666 0.14296347
vt 0.9396273 0.2369867
vt 0.93401855 0.2369867
vt 0.93029666 0.14296347
vt 0.9224443 0.17809847
vt 0.96911687 0.17809847
vt 0.96004105 0.14296347
vt 0.96004105 0.14296347
vt 0.96911687 0.17809847
vt 0.9905125 0.17809847
vt 0.9725963 0.14296347
vt 0.95480955 0.2369867
vt 0.94984734 0.2369867
vt 0.9725963 0.14296347
vt 0.9905125 0.17809847
vt 0.96911687 0.17809847
vt 0.96004105 0.14296347
vt 0.94984734 0.2369867
vt 0.95480955 0.2369867
vt 0.96911687 0.17809847
vt 0.94984734 0.2369867
vt 0.9396273 0.2369867
vt 0.9224443 0.17809847
vt 0.9224443 0.17809847
vt 0.9396273 0.2369867
vt 0.94984734 0.2369867
vt 0.96911687 0.17809847
vn -0.75295055 0.0785964 -0.6533667
vn -0.75295055 0.078596406 -0.6533667
vn -0.75295055 0.0785964 -0.6533667
vn -0.75295055 0.07859639 -0.6533667
vn 0.20127913 0.078369856 -0.97639376
vn 0.20127913 0.078369856 -0.97639376
vn 0.20127912 0.078369856 -0.97639376
vn 0.20127912 0.07836986 -0.97639376
vn 0.94966745 0.08158941 -0.3024483
vn 0.94966733 0.0815894 -0.30244836
vn 0.94966745 0.081589416 -0.30244836
vn 0.94966745 0.08158941 -0.30244833
vn -0.26503062 -0.9011842 -0.3429663
vn -0.26503062 -0.9011842 -0.3429663
vn -0.26503065 -0.9011842 -0.3429663
vn 0.25951034 -0.8367854 -0.4821251
vn 0.2595103 -0.8367854 -0.48212507
vn 0.2595103 -0.8367854 -0.48212507
vn 0.61419046 -0.77951664 -0.122978844
vn 0.6141905 -0.77951664 -0.12297885
vn 0.6141905 -0.7795166 -0.12297883
vn -0.7584417 0.027909264 -0.651143
vn -0.7584417 0.027909258 -0.651143
vn -0.7584417 0.027909264 -0.65114295
vn -0.7584417 0.027909264 -0.651143
vn 0.95457226 0.02329352 -0.29706788
vn 0.95457226 0.02329352 -0.29706788
vn 0.95457226 0.02329352 -0.29706797
vn 0.95457226 0.02329352 -0.2970679
vn 0.20572245 0.026520353 -0.978251
vn 0.20572245 0.026520351 -0.978251
vn 0.20572245 0.026520351 -0.978251
vn 0.20572245 0.02652035 -0.978251
vn -0.82877624 0.11559976 -0.5475095
vn -0.8109455 -0.15599117 -0.5639452
vn -0.81094545 -0.15599115 -0.5639452
vn -0.8287762 0.11559976 -0.5475095
vn 0.9162236 -0.18949583 -0.35302362
vn 0.9162236 -0.18949585 -0.3530236
vn 0.9313421 0.062963866 -0.3586604
vn 0.9313421 0.062963866 -0.3586605
vn 0.100090526 -0.19227684 -0.9762231
vn 0.10009055 -0.19227685 -0.9762231
vn 0.11856193 0.085758716 -0.9892364
vn 0.11856192 0.085758716 -0.9892364
vn -0.8504741 -0.06793178 -0.5216119
vn -0.8504741 -0.067931764 -0.5216119
vn -0.8504741 -0.06793178 -0.521612
vn -0.8504741 -0.06793178 -0.5216119
vn -0.7695955 -0.53803045 -0.3438693
vn -0.76959544 -0.53803045 -0.3438693
vn 0.9075568 -0.16960824 -0.38415337
vn 0.90755665 -0.16960824 -0.38415334
vn 0.90755665 -0.16960825 -0.3841534
vn 0.90755665 -0.1696082 -0.38415337
vn 0.77453583 -0.54976606 -0.31281245
vn 0.7745358 -0.5497661 -0.31281242
vn 0.037599344 -0.12831123 -0.991021
vn 0.03759936 -0.12831123 -0.991021
vn 0.037599333 -0.12831123 -0.991021
vn 0.03759936 -0.12831123 -0.991021
vn 0.019215727 -0.67605674 -0.7365989
vn 0.01921573 -0.67605674 -0.73659897
vn 0.18664926 0.0043196003 -0.9824172
vn 0.18664926 0.0043196003 -0.9824172
vn 0.18664926 0.0043196003 -0.9824172
vn 0.18664926 0.0043196003 -0.9824172
vn -0.76523954 0.0060520284 -0.64371717
vn -0.76523954 0.0060520284 -0.64371717
vn -0.76523954 0.0060520293 -0.6437171
vn -0.76523954 0.0060520284 -0.64371717
vn 0.9491271 0.0020029338 -0.31488678
vn 0.94912714 0.0020029335 -0.31488672
vn 0.94912714 0.0020029335 -0.31488672
vn 0.94912714 0.0020029338 -0.31488675
vn -0.75295055 0.0785964 0.6533667
vn -0.75295055 0.07859639 0.6533667
vn -0.75295055 0.0785964 0.6533667
vn -0.75295055 0.078596406 0.6533667
vn 0.20127913 0.078369856 0.97639376
vn 0.20127912 0.07836986 0.97639376
vn 0.20127912 0.078369856 0.97639376
vn 0.20127913 0.078369856 0.97639376
vn 0.94966745 0.08158941 0.3024483
vn 0.94966745 0.08158941 0.30244833
vn 0.94966745 0.081589416 0.30244836
vn 0.94966733 0.0815894 0.30244836
vn -0.26503062 -0.9011842 0.3429663
vn -0.26503065 -0.9011842 0.3429663
vn -0.26503062 -0.9011842 0.3429663
vn 0.25951034 -0.8367854 0.4821251
vn 0.2595103 -0.8367854 0.48212507
vn 0.2595103 -0.8367854 0.48212507
vn 0.61419046 -0.77951664 0.122978844
vn 0.6141905 -0.7795166 0.12297883
vn 0.6141905 -0.77951664 0.12297885
vn 0.100090526 -0.19227684 0.9762231
vn 0.11856192 0.085758716 0.9892364
vn 0.11856193 0.085758716 0.9892364
vn 0.10009055 -0.19227685 0.9762231
vn -0.82877624 0.11559976 0.5475095
vn -0.8287762 0.11559976 0.5475095
vn -0.81094545 -0.15599115 0.5639452
vn -0.8109455 -0.15599117 0.5639452
vn 0.9162236 -0.18949583 0.35302362
vn 0.9313421 0.062963866 0.3586605
vn 0.9313421 0.062963866 0.3586604
vn 0.9162236 -0.18949585 0.3530236
vn -0.7584417 0.027909264 0.651143
vn -0.7584417 0.027909264 0.651143
vn -0.7584417 0.027909264 0.65114295
vn -0.7584417 0.027909258 0.651143
vn 0.95457226 0.02329352 0.29706788
vn 0.95457226 0.02329352 0.2970679
vn 0.95457226 0.02329352 0.29706797
vn 0.95457226 0.02329352 0.29706788
vn 0.20572245 0.026520353 0.978251
vn 0.20572245 0.02652035 0.978251
vn 0.20572245 0.026520351 0.978251
vn 0.20572245 0.026520351 0.978251
vn -0.8504741 -0.06793178 0.5216119
vn -0.8504741 -0.06793178 0.5216119
vn -0.8504741 -0.06793178 0.521612
vn -0.8504741 -0.067931764 0.5216119
vn -0.76958096 -0.5380519 0.34386814
vn -0.769581 -0.53805184 0.3438681
vn 0.9075568 -0.16960824 0.38415337
vn 0.90755665 -0.1696082 0.38415337
vn 0.90755665 -0.16960825 0.3841534
vn 0.90755665 -0.16960824 0.38415334
vn 0.77454376 -0.54975504 0.31281194
vn 0.77454376 -0.54975504 0.3128119
vn 0.037599344 -0.12831123 0.991021
vn 0.03759936 -0.12831123 0.991021
vn 0.037599333 -0.12831123 0.991021
vn 0.03759936 -0.12831123 0.991021
vn 0.019216085 -0.67604613 0.7366087
vn 0.019216085 -0.67604613 0.7366087
vn 0.18664926 0.0043196003 0.9824172
vn 0.18664926 0.0043196003 0.9824172
vn 0.18664926 0.0043196003 0.9824172
vn 0.18664926 0.0043196003 0.9824172
vn -0.76523954 0.0060520284 0.64371717
vn -0.76523954 0.0060520284 0.64371717
vn -0.76523954 0.0060520293 0.6437171
vn -0.76523954 0.0060520284 0.64371717
vn 0.9491271 0.0020029338 0.31488678
vn 0.94912714 0.0020029338 0.31488675
vn 0.94912714 0.0020029335 0.31488672
vn 0.94912714 0.0020029335 0.31488672
vn -0 1 5.5183987E-06
vn -0 1 5.518398E-06
vn -0 1 5.518398E-06
vn -0 1 5.518398E-06
vn -0 1 5.518398E-06
vn -0 1 5.518398E-06
vn 0.023349803 -0.44530004 -0.89507693
vn 0.023349807 -0.44530007 -0.89507693
vn 0.023349803 -0.44530004 -0.89507693
vn 0.023349809 -0.44530004 -0.89507693
vn -0.85737145 -0.34373602 -0.38309234
vn -0.9096448 0.0857056 -0.4064491
vn -0.9097172 0.08477898 -0.40648144
vn -0.85737145 -0.34373602 -0.38309234
vn -0.83618766 0.4014887 -0.37362677
vn -0.83618766 0.4014887 -0.37362677
vn -0.8573754 -0.34372488 0.38309357
vn -0.9097172 0.08478092 0.4064811
vn -0.9096448 0.08570788 0.40644875
vn -0.8573754 -0.34372485 0.3830935
vn -0.8361895 0.4014845 0.37362736
vn -0.83618945 0.40148446 0.3736274
vn 0.02334989 -0.44530037 0.8950768
vn 0.023349885 -0.44530022 0.8950768
vn 0.023349889 -0.4453003 0.8950768
vn 0.023349887 -0.44530028 0.8950768
vn 0.8686155 -0.34991926 0.3508043
vn 0.9238133 0.08584032 0.37309593
vn 0.9238513 0.08536206 0.37311128
vn 0.8686155 -0.34991926 0.35080433
vn 0.84741896 0.40589565 0.3422423
vn 0.8474191 0.40589565 0.34224227
vn 0.8686168 -0.3499153 -0.35080492
vn 0.92385167 0.085361876 -0.37311056
vn 0.9238136 0.08583975 -0.37309518
vn 0.8686168 -0.34991524 -0.35080487
vn 0.8474211 0.40589166 -0.34224173
vn 0.8474211 0.4058916 -0.3422418
vn 0.022826258 0.48356336 -0.8750116
vn 0.022826258 0.48356342 -0.8750116
vn 0.022826254 0.48356342 -0.8750116
vn 0.02282626 0.48356342 -0.8750116
vn 0.022826368 0.48356342 0.8750116
vn 0.022826368 0.48356342 0.8750116
vn 0.022826368 0.48356342 0.8750116
vn 0.022826368 0.48356336 0.8750116
g staffenemyIce1_0
f 3/3/3 2/2/2 1/1/1
f 4/4/4 3/3/3 1/1/1
f 7/7/7 6/6/6 5/5/5
f 8/8/8 7/7/7 5/5/5
f 11/11/11 10/10/10 9/9/9
f 12/12/12 11/11/11 9/9/9
f 15/15/15 14/14/14 13/13/13
f 18/18/18 17/17/17 16/16/16
f 21/21/21 20/20/20 19/19/19
f 24/24/24 23/23/23 22/22/22
f 25/25/25 24/24/24 22/22/22
f 28/28/28 27/27/27 26/26/26
f 29/29/29 28/28/28 26/26/26
f 32/32/32 31/31/31 30/30/30
f 33/33/33 32/32/32 30/30/30
f 36/36/36 35/35/35 34/34/34
f 37/37/37 36/36/36 34/34/34
f 40/40/40 39/39/39 38/38/38
f 41/41/41 40/40/40 38/38/38
f 44/44/44 43/43/43 42/42/42
f 45/45/45 44/44/44 42/42/42
f 48/48/48 47/47/47 46/46/46
f 49/49/49 48/48/48 46/46/46
f 49/49/49 50/50/50 48/48/48
f 50/50/50 51/51/51 48/48/48
f 54/54/54 53/53/53 52/52/52
f 55/55/55 54/54/54 52/52/52
f 55/55/55 56/56/56 54/54/54
f 56/56/56 57/57/57 54/54/54
f 60/60/60 59/59/59 58/58/58
f 61/61/61 60/60/60 58/58/58
f 61/61/61 62/62/62 60/60/60
f 62/62/62 63/63/63 60/60/60
f 66/66/66 65/65/65 64/64/64
f 67/67/67 66/66/66 64/64/64
f 70/70/70 69/69/69 68/68/68
f 71/71/71 70/70/70 68/68/68
f 74/74/74 73/73/73 72/72/72
f 75/75/75 74/74/74 72/72/72
f 78/78/78 77/77/77 76/76/76
f 79/79/79 78/78/78 76/76/76
f 82/82/82 81/81/81 80/80/80
f 83/83/83 82/82/82 80/80/80
f 86/86/86 85/85/85 84/84/84
f 87/87/87 86/86/86 84/84/84
f 90/90/90 89/89/89 88/88/88
f 93/93/93 92/92/92 91/91/91
f 96/96/96 95/95/95 94/94/94
f 99/99/99 98/98/98 97/97/97
f 100/100/100 99/99/99 97/97/97
f 103/103/103 102/102/102 101/101/101
f 104/104/104 103/103/103 101/101/101
f 107/107/107 106/106/106 105/105/105
f 108/108/108 107/107/107 105/105/105
f 111/111/111 110/110/110 109/109/109
f 112/112/112 111/111/111 109/109/109
f 115/115/115 114/114/114 113/113/113
f 116/116/116 115/115/115 113/113/113
f 119/119/119 118/118/118 117/117/117
f 120/120/120 119/119/119 117/117/117
f 123/123/123 122/122/122 121/121/121
f 124/124/124 123/123/123 121/121/121
f 123/123/123 125/125/125 122/122/122
f 125/125/125 126/126/126 122/122/122
f 129/129/129 128/128/128 127/127/127
f 130/130/130 129/129/129 127/127/127
f 129/129/129 131/131/131 128/128/128
f 131/131/131 132/132/132 128/128/128
f 135/135/135 134/134/134 133/133/133
f 136/136/136 135/135/135 133/133/133
f 135/135/135 137/137/137 134/134/134
f 137/137/137 138/138/138 134/134/134
f 141/141/141 140/140/140 139/139/139
f 142/142/142 141/141/141 139/139/139
f 145/145/145 144/144/144 143/143/143
f 146/146/146 145/145/145 143/143/143
f 149/149/149 148/148/148 147/147/147
f 150/150/150 149/149/149 147/147/147
f 153/153/153 152/152/152 151/151/151
f 151/151/151 154/154/154 153/153/153
f 151/151/151 155/155/155 154/154/154
f 151/151/151 156/156/156 155/155/155
f 159/159/159 158/158/158 157/157/157
f 160/160/160 159/159/159 157/157/157
f 163/163/163 162/162/162 161/161/161
f 164/164/164 163/163/163 161/161/161
f 163/163/163 165/165/165 162/162/162
f 165/165/165 166/166/166 162/162/162
f 169/169/169 168/168/168 167/167/167
f 170/170/170 169/169/169 167/167/167
f 169/169/169 171/171/171 168/168/168
f 171/171/171 172/172/172 168/168/168
f 175/175/175 174/174/174 173/173/173
f 176/176/176 175/175/175 173/173/173
f 179/179/179 178/178/178 177/177/177
f 180/180/180 179/179/179 177/177/177
f 179/179/179 181/181/181 178/178/178
f 181/181/181 182/182/182 178/178/178
f 185/185/185 184/184/184 183/183/183
f 186/186/186 185/185/185 183/183/183
f 185/185/185 187/187/187 184/184/184
f 187/187/187 188/188/188 184/184/184
f 191/191/191 190/190/190 189/189/189
f 192/192/192 191/191/191 189/189/189
f 195/195/195 194/194/194 193/193/193
f 196/196/196 195/195/195 193/193/193
