g trapArrowWall_arrows8
v 0.32094058 0.1272771 -8.241042E-08
v 0.32094088 -1.1203986E-07 -0.127277
v 0.59517395 -1.1203986E-07 -8.241042E-08
v 0.32094058 0.1272771 -8.241042E-08
v 0.27799717 0.04867634 2.2276535E-07
v 0.27799746 1.9313592E-07 -0.04867653
v 0.32094088 -1.1203986E-07 -0.127277
v -0.5951739 0.04867634 2.2276535E-07
v -0.5951739 -1.1203986E-07 0.04867637
v -0.5951739 -0.048676256 2.2276535E-07
v -0.5951739 1.9313592E-07 -0.04867653
v 0.27799717 -1.1203986E-07 0.04867637
v 0.32094058 -1.1203986E-07 0.12727714
v 0.32094058 -0.12727703 2.2276535E-07
v 0.27799717 -0.048676256 2.2276535E-07
v 0.32094058 -0.12727703 2.2276535E-07
v 0.32094088 -1.1203986E-07 -0.127277
v 0.27799746 1.9313592E-07 -0.04867653
v 0.27799717 -0.048676256 2.2276535E-07
v 0.27799717 -1.1203986E-07 0.04867637
v 0.27799717 0.04867634 2.2276535E-07
v 0.32094058 0.1272771 -8.241042E-08
v 0.32094058 -1.1203986E-07 0.12727714
v 0.32094058 -1.1203986E-07 0.12727714
v 0.59517395 -1.1203986E-07 -8.241042E-08
v 0.32094058 -0.12727703 2.2276535E-07
v 0.59517395 -1.1203986E-07 -8.241042E-08
v 0.32094088 -1.1203986E-07 -0.127277
v 0.32094058 -0.12727703 2.2276535E-07
v 0.32094058 -1.1203986E-07 0.12727714
v 0.32094058 0.1272771 -8.241042E-08
v 0.59517395 -1.1203986E-07 -8.241042E-08
v -0.5951739 -1.1203986E-07 0.04867637
v -0.5951739 0.04867634 2.2276535E-07
v 0.27799717 0.04867634 2.2276535E-07
v 0.27799717 -1.1203986E-07 0.04867637
v -0.5951739 -1.1203986E-07 0.04867637
v 0.27799717 -1.1203986E-07 0.04867637
v 0.27799717 -0.048676256 2.2276535E-07
v -0.5951739 -0.048676256 2.2276535E-07
v 0.27799746 1.9313592E-07 -0.04867653
v -0.5951739 1.9313592E-07 -0.04867653
v -0.5951739 -0.048676256 2.2276535E-07
v 0.27799717 -0.048676256 2.2276535E-07
v 0.27799717 0.04867634 2.2276535E-07
v -0.5951739 0.04867634 2.2276535E-07
v -0.5951739 1.9313592E-07 -0.04867653
v 0.27799746 1.9313592E-07 -0.04867653
v -0.57329464 0.07651203 0.0668444
v -0.57329464 0.06600514 0.07500846
v -0.57329464 -0.07667827 -0.06767494
v -0.57329464 -0.06617137 -0.075839005
v -0.57329464 0.06600514 0.07500846
v -0.57329464 0.07651203 0.0668444
v -0.3254153 0.031006051 0.023245156
v -0.3254153 0.023245126 0.031005776
v -0.57329464 0.06600514 0.07500846
v -0.3254153 0.023245126 0.031005776
v -0.3254153 -0.031005971 -0.023245322
v -0.57329464 -0.07667827 -0.06767494
v -0.3254153 -0.023245046 -0.031005941
v -0.57329464 -0.06617137 -0.075839005
v -0.57329464 -0.07667827 -0.06767494
v -0.3254153 -0.031005971 -0.023245322
v -0.3254153 0.031006051 0.023245156
v -0.57329464 0.07651203 0.0668444
v -0.57329464 -0.06617137 -0.075839005
v -0.3254153 -0.023245046 -0.031005941
v -0.57329464 -0.066844285 0.076511756
v -0.57329464 -0.07500835 0.066004865
v -0.57329464 0.06767506 -0.076678544
v -0.57329464 0.075839125 -0.066171646
v -0.57329464 -0.07500835 0.066004865
v -0.57329464 -0.066844285 0.076511756
v -0.3254153 -0.023245046 0.031005776
v -0.3254153 -0.031005971 0.023245156
v -0.57329464 -0.07500835 0.066004865
v -0.3254153 -0.031005971 0.023245156
v -0.3254153 0.023245126 -0.031005941
v -0.57329464 0.06767506 -0.076678544
v -0.3254153 0.031006051 -0.023245322
v -0.57329464 0.075839125 -0.066171646
v -0.57329464 0.06767506 -0.076678544
v -0.3254153 0.023245126 -0.031005941
v -0.3254153 -0.023245046 0.031005776
v -0.57329464 -0.066844285 0.076511756
v -0.57329464 0.075839125 -0.066171646
v -0.3254153 0.031006051 -0.023245322
vt 0.38501504 0.64605534
vt 0.43464345 0.64605534
vt 0.38501504 0.5391251
vt 0.38501504 0.64605534
vt 0.38501504 0.6628
vt 0.40399513 0.6628
vt 0.43464345 0.64605534
vt 0.8040869 0.5616994
vt 0.8040869 0.57612807
vt 0.81851566 0.57612807
vt 0.81851566 0.5616994
vt 0.36603495 0.6628
vt 0.3353866 0.64605534
vt 0.38501504 0.64605534
vt 0.38501504 0.6628
vt 0.38501504 0.64605534
vt 0.43464345 0.64605534
vt 0.40399513 0.6628
vt 0.38501504 0.6628
vt 0.36603495 0.6628
vt 0.38501504 0.6628
vt 0.38501504 0.64605534
vt 0.3353866 0.64605534
vt 0.3353866 0.64605534
vt 0.38501504 0.5391251
vt 0.38501504 0.64605534
vt 0.38501504 0.5391251
vt 0.43464345 0.64605534
vt 0.38501504 0.64605534
vt 0.3353866 0.64605534
vt 0.38501504 0.64605534
vt 0.38501504 0.5391251
vt 0.7896582 0.5328419
vt 0.7896582 0.54727066
vt 0.80133235 0.54727066
vt 0.80133235 0.5328419
vt 0.8040869 0.57612807
vt 0.8040869 0.5878023
vt 0.81851566 0.5878023
vt 0.81851566 0.57612807
vt 0.8212702 0.54727066
vt 0.8329444 0.54727066
vt 0.8329444 0.5328419
vt 0.8212702 0.5328419
vt 0.8040869 0.55002517
vt 0.8040869 0.5616994
vt 0.81851566 0.5616994
vt 0.81851566 0.55002517
vt 0.80969596 0.8169103
vt 0.80969596 0.83133906
vt 0.8241247 0.83133906
vt 0.8241247 0.8169103
vt 0.7952672 0.7880528
vt 0.7952672 0.80248153
vt 0.8069414 0.80248153
vt 0.8069414 0.7880528
vt 0.80969596 0.83133906
vt 0.80969596 0.84301317
vt 0.8241247 0.84301317
vt 0.8241247 0.83133906
vt 0.82687926 0.80248153
vt 0.8385534 0.80248153
vt 0.8385534 0.7880528
vt 0.82687926 0.7880528
vt 0.80969596 0.8052361
vt 0.80969596 0.8169103
vt 0.8241247 0.8169103
vt 0.8241247 0.8052361
vt 0.80969596 0.8169103
vt 0.80969596 0.83133906
vt 0.8241247 0.83133906
vt 0.8241247 0.8169103
vt 0.7952672 0.7880528
vt 0.7952672 0.80248153
vt 0.8069414 0.80248153
vt 0.8069414 0.7880528
vt 0.80969596 0.83133906
vt 0.80969596 0.84301317
vt 0.8241247 0.84301317
vt 0.8241247 0.83133906
vt 0.82687926 0.80248153
vt 0.8385534 0.80248153
vt 0.8385534 0.7880528
vt 0.82687926 0.7880528
vt 0.80969596 0.8052361
vt 0.80969596 0.8169103
vt 0.8241247 0.8169103
vt 0.8241247 0.8052361
vn 0.3118193 0.6718507 -0.67185223
vn 0.31181923 0.6718506 -0.67185223
vn 0.31181923 0.6718507 -0.67185223
vn -0.7913122 0.432334 -0.43233362
vn -0.7913122 0.432334 -0.43233368
vn -0.7913121 0.43233398 -0.4323336
vn -0.7913122 0.432334 -0.43233362
vn -1 0 0
vn -1 0 0
vn -1 0 0
vn -1 0 0
vn -0.7913121 -0.43233314 0.4323345
vn -0.7913121 -0.43233317 0.4323345
vn -0.7913121 -0.43233317 0.4323345
vn -0.7913121 -0.43233314 0.4323345
vn -0.79131466 -0.43233123 -0.4323319
vn -0.79131466 -0.43233114 -0.43233183
vn -0.79131466 -0.43233123 -0.4323319
vn -0.79131466 -0.43233123 -0.4323319
vn -0.7913116 0.4323329 0.4323357
vn -0.7913117 0.43233296 0.43233567
vn -0.7913116 0.4323329 0.4323357
vn -0.7913116 0.4323329 0.4323357
vn 0.3118192 -0.67185056 0.67185247
vn 0.3118192 -0.67185056 0.67185247
vn 0.31181914 -0.67185056 0.6718524
vn 0.31181917 -0.67185247 -0.67185044
vn 0.3118192 -0.67185247 -0.67185056
vn 0.3118192 -0.67185247 -0.67185056
vn 0.31182045 0.67185116 0.67185116
vn 0.31182045 0.67185116 0.67185116
vn 0.31182048 0.67185116 0.67185116
vn -0 0.70710486 0.7071087
vn -0 0.70710486 0.7071087
vn -0 0.70710486 0.7071087
vn -0 0.70710486 0.7071087
vn -0 -0.7071064 0.70710707
vn -0 -0.7071064 0.70710707
vn -0 -0.7071064 0.70710707
vn -0 -0.7071064 0.70710707
vn -0 -0.7071094 -0.70710415
vn -0 -0.7071094 -0.70710415
vn -0 -0.7071094 -0.70710415
vn -0 -0.70710933 -0.70710415
vn -0 0.70711106 -0.7071025
vn -0 0.707111 -0.70710254
vn -0 0.707111 -0.70710254
vn -0 0.70711106 -0.7071025
vn -1 -2.2910453E-06 0
vn -1 -2.2910451E-06 0
vn -1 -2.2910453E-06 0
vn -1 -2.2910451E-06 0
vn 0.24270713 0.6374669 0.7312518
vn 0.2427071 0.6374669 0.7312518
vn 0.24270713 0.6374669 0.7312518
vn 0.2427071 0.6374669 0.73125184
vn 0.0035441683 -0.7071023 0.7071023
vn 0.0035441685 -0.7071023 0.7071023
vn 0.0035441685 -0.7071023 0.7071023
vn 0.003544169 -0.7071023 0.7071023
vn 0.24541976 -0.637011 -0.7307436
vn 0.2454198 -0.63701105 -0.7307436
vn 0.24541976 -0.63701105 -0.7307436
vn 0.24541976 -0.6370111 -0.7307436
vn 0.0054389224 0.7070966 -0.707096
vn 0.0054389224 0.7070967 -0.7070959
vn 0.005438923 0.70709664 -0.707096
vn 0.005438923 0.70709664 -0.707096
vn -1 -5.7277634E-06 0
vn -1 -5.7277634E-06 0
vn -1 -5.7277634E-06 0
vn -1 -5.7277634E-06 0
vn 0.24271046 -0.7312421 0.6374766
vn 0.24271046 -0.7312421 0.6374766
vn 0.2427105 -0.73124224 0.63747656
vn 0.24271046 -0.7312421 0.6374766
vn 0.003543106 -0.7071027 -0.70710194
vn 0.003543106 -0.7071027 -0.7071019
vn 0.003543106 -0.7071027 -0.70710194
vn 0.003543106 -0.70710266 -0.707102
vn 0.2454119 0.7307357 -0.63702303
vn 0.2454119 0.7307357 -0.637023
vn 0.2454119 0.7307357 -0.63702303
vn 0.2454119 0.7307358 -0.637023
vn 0.0054389248 0.7070963 0.7070963
vn 0.005438924 0.7070963 0.7070963
vn 0.005438924 0.7070963 0.7070963
vn 0.005438924 0.7070963 0.7070963
g trapArrowWall_arrows8_0
f 3/3/3 2/2/2 1/1/1
f 6/6/6 5/5/5 4/4/4
f 7/7/7 6/6/6 4/4/4
f 10/10/10 9/9/9 8/8/8
f 11/11/11 10/10/10 8/8/8
f 14/14/14 13/13/13 12/12/12
f 15/15/15 14/14/14 12/12/12
f 18/18/18 17/17/17 16/16/16
f 19/19/19 18/18/18 16/16/16
f 22/22/22 21/21/21 20/20/20
f 23/23/23 22/22/22 20/20/20
f 26/26/26 25/25/25 24/24/24
f 29/29/29 28/28/28 27/27/27
f 32/32/32 31/31/31 30/30/30
f 35/35/35 34/34/34 33/33/33
f 36/36/36 35/35/35 33/33/33
f 39/39/39 38/38/38 37/37/37
f 40/40/40 39/39/39 37/37/37
f 43/43/43 42/42/42 41/41/41
f 44/44/44 43/43/43 41/41/41
f 47/47/47 46/46/46 45/45/45
f 48/48/48 47/47/47 45/45/45
f 51/51/51 50/50/50 49/49/49
f 52/52/52 51/51/51 49/49/49
f 55/55/55 54/54/54 53/53/53
f 56/56/56 55/55/55 53/53/53
f 59/59/59 58/58/58 57/57/57
f 60/60/60 59/59/59 57/57/57
f 63/63/63 62/62/62 61/61/61
f 64/64/64 63/63/63 61/61/61
f 67/67/67 66/66/66 65/65/65
f 68/68/68 67/67/67 65/65/65
f 71/71/71 70/70/70 69/69/69
f 72/72/72 71/71/71 69/69/69
f 75/75/75 74/74/74 73/73/73
f 76/76/76 75/75/75 73/73/73
f 79/79/79 78/78/78 77/77/77
f 80/80/80 79/79/79 77/77/77
f 83/83/83 82/82/82 81/81/81
f 84/84/84 83/83/83 81/81/81
f 87/87/87 86/86/86 85/85/85
f 88/88/88 87/87/87 85/85/85
