g trapArrowWall_arrows14
v 0.32094058 0.12727703 -4.5500715E-07
v 0.32094088 -1.7826767E-07 -0.12727706
v 0.59517395 -1.7826767E-07 1.5534438E-07
v 0.32094058 0.12727703 -4.5500715E-07
v 0.27799717 0.048676275 1.5534438E-07
v 0.27799746 1.269081E-07 -0.048675988
v 0.32094088 -1.7826767E-07 -0.12727706
v -0.5951739 0.048676275 -4.5500715E-07
v -0.5951739 -1.7826767E-07 0.048676305
v -0.5951739 -0.048676323 -4.5500715E-07
v -0.5951739 1.269081E-07 -0.0486766
v 0.27799717 -1.7826767E-07 0.048676305
v 0.32094058 -1.7826767E-07 0.12727676
v 0.32094058 -0.12727709 -4.5500715E-07
v 0.27799717 -0.048676323 1.5534438E-07
v 0.32094058 -0.12727709 -4.5500715E-07
v 0.32094088 -1.7826767E-07 -0.12727706
v 0.27799746 1.269081E-07 -0.048675988
v 0.27799717 -0.048676323 1.5534438E-07
v 0.27799717 -1.7826767E-07 0.048676305
v 0.27799717 0.048676275 1.5534438E-07
v 0.32094058 0.12727703 -4.5500715E-07
v 0.32094058 -1.7826767E-07 0.12727676
v 0.32094058 -1.7826767E-07 0.12727676
v 0.59517395 -1.7826767E-07 1.5534438E-07
v 0.32094058 -0.12727709 -4.5500715E-07
v 0.59517395 -1.7826767E-07 1.5534438E-07
v 0.32094088 -1.7826767E-07 -0.12727706
v 0.32094058 -0.12727709 -4.5500715E-07
v 0.32094058 -1.7826767E-07 0.12727676
v 0.32094058 0.12727703 -4.5500715E-07
v 0.59517395 -1.7826767E-07 1.5534438E-07
v -0.5951739 -1.7826767E-07 0.048676305
v -0.5951739 0.048676275 -4.5500715E-07
v 0.27799717 0.048676275 1.5534438E-07
v 0.27799717 -1.7826767E-07 0.048676305
v -0.5951739 -1.7826767E-07 0.048676305
v 0.27799717 -1.7826767E-07 0.048676305
v 0.27799717 -0.048676323 1.5534438E-07
v -0.5951739 -0.048676323 -4.5500715E-07
v 0.27799746 1.269081E-07 -0.048675988
v -0.5951739 1.269081E-07 -0.0486766
v -0.5951739 -0.048676323 -4.5500715E-07
v 0.27799717 -0.048676323 1.5534438E-07
v 0.27799717 0.048676275 1.5534438E-07
v -0.5951739 0.048676275 -4.5500715E-07
v -0.5951739 1.269081E-07 -0.0486766
v 0.27799746 1.269081E-07 -0.048675988
v -0.57329464 0.076511964 0.066844635
v -0.57329464 0.06600507 0.0750087
v -0.57329464 -0.076678336 -0.06767501
v -0.57329464 -0.06617144 -0.07583907
v -0.57329464 0.06600507 0.0750087
v -0.57329464 0.076511964 0.066844635
v -0.3254153 0.031005984 0.023245394
v -0.3254153 0.02324506 0.031006014
v -0.57329464 0.06600507 0.0750087
v -0.3254153 0.02324506 0.031006014
v -0.3254153 -0.031006038 -0.023245083
v -0.57329464 -0.076678336 -0.06767501
v -0.3254153 -0.023245113 -0.031005703
v -0.57329464 -0.06617144 -0.07583907
v -0.57329464 -0.076678336 -0.06767501
v -0.3254153 -0.031006038 -0.023245083
v -0.3254153 0.031005984 0.023245394
v -0.57329464 0.076511964 0.066844635
v -0.57329464 -0.06617144 -0.07583907
v -0.3254153 -0.023245113 -0.031005703
v -0.57329464 -0.06684435 0.076511994
v -0.57329464 -0.075008415 0.0660048
v -0.57329464 0.067674994 -0.076678306
v -0.57329464 0.07583906 -0.06617171
v -0.57329464 -0.075008415 0.0660048
v -0.57329464 -0.06684435 0.076511994
v -0.3254153 -0.023245113 0.031006014
v -0.3254153 -0.031006038 0.023245394
v -0.57329464 -0.075008415 0.0660048
v -0.3254153 -0.031006038 0.023245394
v -0.3254153 0.02324506 -0.031005703
v -0.57329464 0.067674994 -0.076678306
v -0.3254153 0.031005984 -0.023245083
v -0.57329464 0.07583906 -0.06617171
v -0.57329464 0.067674994 -0.076678306
v -0.3254153 0.02324506 -0.031005703
v -0.3254153 -0.023245113 0.031006014
v -0.57329464 -0.06684435 0.076511994
v -0.57329464 0.07583906 -0.06617171
v -0.3254153 0.031005984 -0.023245083
vt 0.38501504 0.64605534
vt 0.43464345 0.64605534
vt 0.38501504 0.5391251
vt 0.38501504 0.64605534
vt 0.38501504 0.6628
vt 0.40399513 0.6628
vt 0.43464345 0.64605534
vt 0.8040869 0.5616994
vt 0.8040869 0.57612807
vt 0.81851566 0.57612807
vt 0.81851566 0.5616994
vt 0.36603495 0.6628
vt 0.3353866 0.64605534
vt 0.38501504 0.64605534
vt 0.38501504 0.6628
vt 0.38501504 0.64605534
vt 0.43464345 0.64605534
vt 0.40399513 0.6628
vt 0.38501504 0.6628
vt 0.36603495 0.6628
vt 0.38501504 0.6628
vt 0.38501504 0.64605534
vt 0.3353866 0.64605534
vt 0.3353866 0.64605534
vt 0.38501504 0.5391251
vt 0.38501504 0.64605534
vt 0.38501504 0.5391251
vt 0.43464345 0.64605534
vt 0.38501504 0.64605534
vt 0.3353866 0.64605534
vt 0.38501504 0.64605534
vt 0.38501504 0.5391251
vt 0.7896582 0.5328419
vt 0.7896582 0.54727066
vt 0.80133235 0.54727066
vt 0.80133235 0.5328419
vt 0.8040869 0.57612807
vt 0.8040869 0.5878023
vt 0.81851566 0.5878023
vt 0.81851566 0.57612807
vt 0.8212702 0.54727066
vt 0.8329444 0.54727066
vt 0.8329444 0.5328419
vt 0.8212702 0.5328419
vt 0.8040869 0.55002517
vt 0.8040869 0.5616994
vt 0.81851566 0.5616994
vt 0.81851566 0.55002517
vt 0.80969596 0.8169103
vt 0.80969596 0.83133906
vt 0.8241247 0.83133906
vt 0.8241247 0.8169103
vt 0.7952672 0.7880528
vt 0.7952672 0.80248153
vt 0.8069414 0.80248153
vt 0.8069414 0.7880528
vt 0.80969596 0.83133906
vt 0.80969596 0.84301317
vt 0.8241247 0.84301317
vt 0.8241247 0.83133906
vt 0.82687926 0.80248153
vt 0.8385534 0.80248153
vt 0.8385534 0.7880528
vt 0.82687926 0.7880528
vt 0.80969596 0.8052361
vt 0.80969596 0.8169103
vt 0.8241247 0.8169103
vt 0.8241247 0.8052361
vt 0.80969596 0.8169103
vt 0.80969596 0.83133906
vt 0.8241247 0.83133906
vt 0.8241247 0.8169103
vt 0.7952672 0.7880528
vt 0.7952672 0.80248153
vt 0.8069414 0.80248153
vt 0.8069414 0.7880528
vt 0.80969596 0.83133906
vt 0.80969596 0.84301317
vt 0.8241247 0.84301317
vt 0.8241247 0.83133906
vt 0.82687926 0.80248153
vt 0.8385534 0.80248153
vt 0.8385534 0.7880528
vt 0.82687926 0.7880528
vt 0.80969596 0.8052361
vt 0.80969596 0.8169103
vt 0.8241247 0.8169103
vt 0.8241247 0.8052361
vn 0.31182083 0.67185 -0.67185205
vn 0.31182086 0.6718502 -0.67185205
vn 0.31182083 0.6718502 -0.67185205
vn -0.79131466 0.43232802 -0.43233496
vn -0.79131466 0.43232802 -0.43233496
vn -0.79131466 0.43232802 -0.43233496
vn -0.79131466 0.43232802 -0.43233496
vn -1 0 0
vn -1 0 0
vn -1 0 0
vn -1 0 0
vn -0.79130924 -0.4323374 0.43233567
vn -0.79130924 -0.4323374 0.43233562
vn -0.79130924 -0.4323374 0.43233562
vn -0.79130924 -0.4323374 0.43233567
vn -0.7913167 -0.43232673 -0.43233272
vn -0.7913167 -0.43232673 -0.43233272
vn -0.7913167 -0.43232673 -0.43233272
vn -0.7913167 -0.43232673 -0.43233272
vn -0.79130864 0.4323371 0.4323371
vn -0.79130864 0.4323371 0.4323371
vn -0.79130864 0.4323371 0.4323371
vn -0.79130864 0.4323371 0.4323371
vn 0.31181556 -0.67185277 0.6718519
vn 0.31181556 -0.6718528 0.6718518
vn 0.3118156 -0.6718528 0.6718518
vn 0.31182125 -0.671851 -0.671851
vn 0.31182125 -0.671851 -0.671851
vn 0.31182125 -0.671851 -0.671851
vn 0.31181687 0.6718515 0.6718525
vn 0.31181687 0.6718515 0.6718525
vn 0.3118169 0.6718515 0.6718525
vn -4.0616868E-07 0.70710635 0.7071072
vn -4.0616868E-07 0.70710635 0.7071072
vn -4.0616868E-07 0.70710635 0.7071072
vn -4.0616868E-07 0.70710635 0.7071072
vn -4.061704E-07 -0.7071091 0.7071044
vn -4.061704E-07 -0.7071091 0.7071044
vn -4.061704E-07 -0.7071091 0.7071044
vn -4.061704E-07 -0.7071091 0.7071044
vn -0 -0.70710444 -0.70710903
vn -0 -0.70710444 -0.70710903
vn -0 -0.70710444 -0.70710903
vn -0 -0.70710444 -0.70710903
vn -0 0.7071062 -0.7071073
vn -0 0.70710623 -0.7071073
vn -0 0.7071062 -0.7071073
vn -0 0.70710623 -0.7071073
vn -1 -2.2909824E-06 0
vn -1 -2.2909824E-06 0
vn -1 -2.2909824E-06 0
vn -1 -2.2909824E-06 0
vn 0.24270943 0.6374627 0.73125476
vn 0.24270943 0.6374627 0.73125476
vn 0.24270943 0.6374627 0.73125476
vn 0.24270943 0.6374627 0.73125476
vn 0.0035462852 -0.7071041 0.7071006
vn 0.003546285 -0.7071041 0.7071005
vn 0.0035462852 -0.7071041 0.7071005
vn 0.0035462852 -0.7071041 0.7071005
vn 0.2454212 -0.63701475 -0.7307398
vn 0.24542122 -0.63701475 -0.7307399
vn 0.2454212 -0.63701475 -0.7307398
vn 0.24542122 -0.63701475 -0.7307399
vn 0.0054396214 0.707097 -0.7070957
vn 0.005439621 0.707097 -0.7070956
vn 0.005439621 0.707097 -0.7070956
vn 0.005439621 0.707097 -0.7070957
vn -1 -1.1455476E-06 0
vn -1 -1.1455477E-06 0
vn -1 -1.1455475E-06 0
vn -1 -1.1455476E-06 0
vn 0.24269849 -0.73125345 0.63746834
vn 0.2426985 -0.7312535 0.63746834
vn 0.24269849 -0.7312535 0.6374683
vn 0.24269852 -0.7312535 0.63746834
vn 0.003546998 -0.7071023 -0.7071023
vn 0.0035469977 -0.7071023 -0.7071023
vn 0.0035469974 -0.7071023 -0.7071023
vn 0.003546998 -0.7071023 -0.7071023
vn 0.24542145 0.7307288 -0.63702726
vn 0.24542145 0.73072886 -0.6370272
vn 0.24542144 0.7307288 -0.63702726
vn 0.24542144 0.7307288 -0.63702726
vn 0.0054374975 0.7070973 0.7070953
vn 0.0054374966 0.7070973 0.7070952
vn 0.005437496 0.7070973 0.7070952
vn 0.0054374966 0.7070973 0.7070952
g trapArrowWall_arrows14_0
f 3/3/3 2/2/2 1/1/1
f 6/6/6 5/5/5 4/4/4
f 7/7/7 6/6/6 4/4/4
f 10/10/10 9/9/9 8/8/8
f 11/11/11 10/10/10 8/8/8
f 14/14/14 13/13/13 12/12/12
f 15/15/15 14/14/14 12/12/12
f 18/18/18 17/17/17 16/16/16
f 19/19/19 18/18/18 16/16/16
f 22/22/22 21/21/21 20/20/20
f 23/23/23 22/22/22 20/20/20
f 26/26/26 25/25/25 24/24/24
f 29/29/29 28/28/28 27/27/27
f 32/32/32 31/31/31 30/30/30
f 35/35/35 34/34/34 33/33/33
f 36/36/36 35/35/35 33/33/33
f 39/39/39 38/38/38 37/37/37
f 40/40/40 39/39/39 37/37/37
f 43/43/43 42/42/42 41/41/41
f 44/44/44 43/43/43 41/41/41
f 47/47/47 46/46/46 45/45/45
f 48/48/48 47/47/47 45/45/45
f 51/51/51 50/50/50 49/49/49
f 52/52/52 51/51/51 49/49/49
f 55/55/55 54/54/54 53/53/53
f 56/56/56 55/55/55 53/53/53
f 59/59/59 58/58/58 57/57/57
f 60/60/60 59/59/59 57/57/57
f 63/63/63 62/62/62 61/61/61
f 64/64/64 63/63/63 61/61/61
f 67/67/67 66/66/66 65/65/65
f 68/68/68 67/67/67 65/65/65
f 71/71/71 70/70/70 69/69/69
f 72/72/72 71/71/71 69/69/69
f 75/75/75 74/74/74 73/73/73
f 76/76/76 75/75/75 73/73/73
f 79/79/79 78/78/78 77/77/77
f 80/80/80 79/79/79 77/77/77
f 83/83/83 82/82/82 81/81/81
f 84/84/84 83/83/83 81/81/81
f 87/87/87 86/86/86 85/85/85
f 88/88/88 87/87/87 85/85/85
