g waterTempleBottom
v 16.40581 -0.9719467 -2.7992907
v 0.00016212463 -0.9719467 3.9960327
v 6.7954855 -0.9719467 -9.526005
v -6.7956734 -0.9719467 -9.526005
v -16.405996 -0.9719467 -2.7992907
v -16.405996 -0.9719467 10.791868
v -2.7923107 -0.9719467 10.7375965
v -6.7956734 -0.9719467 17.148405
v 16.40581 -0.9719467 10.791868
v 6.7954855 -0.9719467 17.148405
v 2.792634 -0.9719467 10.7375965
v 2.8929873 -0.9719467 17.148405
v -2.7923107 -0.9719467 17.148405
vt 0.9999999 0.7018572
vt 0.50048864 0.49462357
vt 0.7067448 0.9061582
vt 0.29325506 0.9061582
vt -2.9802322E-08 0.7018572
vt -2.9802322E-08 0.28738996
vt 0.4144672 0.289345
vt 0.29325506 0.093841605
vt 0.9999999 0.28738996
vt 0.7067448 0.093841605
vt 0.58553267 0.289345
vt 0.5884652 0.093841605
vt 0.4144672 0.093841605
vn -0 1 -0
vn -0 1 -0
vn -0 1 -0
vn -0 1 -0
vn -0 1 -0
vn -0 1 -0
vn -0 1 -0
vn -0 1 -0
vn -0 1 -0
vn -0 1 -0
vn -0 1 -0
vn -0 1 -0
vn -0 1 -0
g waterTempleBottom_0
f 3/3/3 2/2/2 1/1/1
f 4/4/4 2/2/2 3/3/3
f 5/5/5 2/2/2 4/4/4
f 6/6/6 2/2/2 5/5/5
f 7/7/7 2/2/2 6/6/6
f 8/8/8 7/7/7 6/6/6
f 1/1/1 2/2/2 9/9/9
f 9/9/9 2/2/2 10/10/10
f 2/2/2 11/11/11 10/10/10
f 11/11/11 2/2/2 7/7/7
f 12/12/12 10/10/10 11/11/11
f 13/13/13 7/7/7 8/8/8
