g WEP_Bow01_b01
v -0.05860901 0.45578307 -0.063497424
v 0.05860901 0.45578307 -0.063497424
v 0.07662475 0.39297926 -0.0214851
v -0.07662475 0.39297926 -0.0214851
v 0.05860901 0.45578307 -0.063497424
v 0.05860901 0.38728637 -0.16930431
v 0.07662475 0.30342728 -0.15981609
v 0.07662475 0.39297926 -0.0214851
v 0.05860901 0.38728637 -0.16930431
v -0.05860901 0.38728637 -0.16930431
v -0.07662475 0.30342728 -0.15981609
v 0.07662475 0.30342728 -0.15981609
v -0.05860901 0.38728637 -0.16930431
v -0.05860901 0.45578307 -0.063497424
v -0.07662475 0.39297926 -0.0214851
v -0.07662475 0.30342728 -0.15981609
v -0.05860901 0.38728637 -0.16930431
v 0.05860901 0.38728637 -0.16930431
v 0.05860901 0.45578307 -0.063497424
v -0.05860901 0.45578307 -0.063497424
v -0.06109741 -0.08451401 0.1684215
v 0.0610968 -0.08451401 0.1684215
v 0.025498046 -0.31788665 0.08735142
v -0.025498657 -0.31788665 0.08735142
v 0.0610968 -0.08451401 0.093792
v 0.025498046 -0.31788665 0.0129260635
v 0.025498046 -0.31788665 0.08735142
v 0.0610968 -0.08451401 0.1684215
v -0.06109741 -0.08451401 0.093792
v -0.025498657 -0.31788665 0.0129260635
v 0.025498046 -0.31788665 0.0129260635
v 0.0610968 -0.08451401 0.093792
v -0.06109741 -0.08451401 0.1684215
v -0.025498657 -0.31788665 0.08735142
v -0.025498657 -0.31788665 0.0129260635
v -0.06109741 -0.08451401 0.093792
v -0.027114868 0.30137014 -0.023968467
v 0.027114868 0.30137014 -0.023968467
v 0.06767212 0.1200917 0.16930431
v -0.06767273 0.1200917 0.16930431
v 0.027114868 0.24837333 -0.105832174
v 0.06767212 0.1200917 0.086643256
v 0.06767212 0.1200917 0.16930431
v 0.027114868 0.24837333 -0.105832174
v 0.06767212 0.1200917 0.16930431
v 0.027114868 0.30137014 -0.023968467
v -0.027114868 0.24837333 -0.105832174
v -0.06767273 0.1200917 0.086643256
v 0.06767212 0.1200917 0.086643256
v 0.027114868 0.24837333 -0.105832174
v -0.027114868 0.30137014 -0.023968467
v -0.06767273 0.1200917 0.16930431
v -0.06767273 0.1200917 0.086643256
v -0.027114868 0.30137014 -0.023968467
v -0.06767273 0.1200917 0.086643256
v -0.027114868 0.24837333 -0.105832174
v -0.025498657 -0.31788665 0.08735142
v 0.025498046 -0.31788665 0.08735142
v 0.022742309 -0.45578307 0.08160946
v -0.02274292 -0.45578307 0.08160946
v 0.025498046 -0.31788665 0.0129260635
v 0.022742309 -0.45578307 0.005981712
v 0.022742309 -0.45578307 0.08160946
v 0.025498046 -0.31788665 0.08735142
v -0.025498657 -0.31788665 0.0129260635
v -0.02274292 -0.45578307 0.005981712
v 0.022742309 -0.45578307 0.005981712
v 0.025498046 -0.31788665 0.0129260635
v -0.025498657 -0.31788665 0.08735142
v -0.02274292 -0.45578307 0.08160946
v -0.02274292 -0.45578307 0.005981712
v -0.025498657 -0.31788665 0.0129260635
v -0.07662475 0.39297926 -0.0214851
v 0.07662475 0.39297926 -0.0214851
v 0.027114868 0.30137014 -0.023968467
v -0.027114868 0.30137014 -0.023968467
v 0.07662475 0.30342728 -0.15981609
v 0.027114868 0.24837333 -0.105832174
v 0.027114868 0.30137014 -0.023968467
v 0.07662475 0.39297926 -0.0214851
v -0.07662475 0.30342728 -0.15981609
v -0.027114868 0.24837333 -0.105832174
v 0.027114868 0.24837333 -0.105832174
v 0.07662475 0.30342728 -0.15981609
v -0.07662475 0.39297926 -0.0214851
v -0.027114868 0.30137014 -0.023968467
v -0.027114868 0.24837333 -0.105832174
v -0.07662475 0.30342728 -0.15981609
v -0.06767273 0.1200917 0.16930431
v 0.06767212 0.1200917 0.16930431
v 0.0610968 -0.08451401 0.1684215
v -0.06109741 -0.08451401 0.1684215
v 0.06767212 0.1200917 0.086643256
v 0.0610968 -0.08451401 0.093792
v 0.0610968 -0.08451401 0.1684215
v 0.06767212 0.1200917 0.16930431
v -0.06767273 0.1200917 0.086643256
v -0.06109741 -0.08451401 0.093792
v 0.0610968 -0.08451401 0.093792
v 0.06767212 0.1200917 0.086643256
v -0.06767273 0.1200917 0.16930431
v -0.06109741 -0.08451401 0.1684215
v -0.06109741 -0.08451401 0.093792
v -0.06767273 0.1200917 0.086643256
vt 0.08164394 0.20301086
vt 0.16894257 0.20301086
vt 0.18236005 0.16856259
vt 0.068226516 0.16856259
vt 0.16894257 0.20301086
vt 0.16894257 0.1654399
vt 0.18236005 0.11944264
vt 0.18236005 0.16856259
vt 0.16894257 0.1654399
vt 0.08164394 0.1654399
vt 0.068226516 0.11944264
vt 0.18236005 0.11944264
vt 0.08164394 0.1654399
vt 0.08164394 0.20301086
vt 0.068226516 0.16856259
vt 0.068226516 0.11944264
vt 0.08164394 0.1654399
vt 0.16894257 0.1654399
vt 0.16894257 0.20301086
vt 0.08164394 0.20301086
vt 0.14028564 0.6706811
vt 0.15384611 0.6706811
vt 0.14989558 0.65160716
vt 0.14423624 0.65160716
vt 0.15384611 0.6706811
vt 0.14989558 0.65160716
vt 0.14989558 0.65160716
vt 0.15384611 0.6706811
vt 0.14028564 0.6706811
vt 0.14423624 0.65160716
vt 0.14989558 0.65160716
vt 0.15384611 0.6706811
vt 0.14028564 0.6706811
vt 0.14423624 0.65160716
vt 0.14423624 0.65160716
vt 0.14028564 0.6706811
vt 0.14405686 0.70222
vt 0.15007493 0.70222
vt 0.1545758 0.68740386
vt 0.13955596 0.68740386
vt 0.15007493 0.69788855
vt 0.1545758 0.68740386
vt 0.1545758 0.68740386
vt 0.15007493 0.69788855
vt 0.1545758 0.68740386
vt 0.15007493 0.70222
vt 0.14405686 0.69788855
vt 0.13955596 0.68740386
vt 0.1545758 0.68740386
vt 0.15007493 0.69788855
vt 0.14405686 0.70222
vt 0.13955596 0.68740386
vt 0.13955596 0.68740386
vt 0.14405686 0.70222
vt 0.13955596 0.68740386
vt 0.14405686 0.69788855
vt 0.10571298 0.20742685
vt 0.14369324 0.20742685
vt 0.14164093 0.13178974
vt 0.10776523 0.13178974
vt 0.14369324 0.20742685
vt 0.14164093 0.13178974
vt 0.14164093 0.13178974
vt 0.14369324 0.20742685
vt 0.10571298 0.20742685
vt 0.10776523 0.13178974
vt 0.14164093 0.13178974
vt 0.14369324 0.20742685
vt 0.10571298 0.20742685
vt 0.10776523 0.13178974
vt 0.10776523 0.13178974
vt 0.10571298 0.20742685
vt 0.068226516 0.16856259
vt 0.18236005 0.16856259
vt 0.14548719 0.118314326
vt 0.10509932 0.118314326
vt 0.18236005 0.11944264
vt 0.14548719 0.08924526
vt 0.14548719 0.118314326
vt 0.18236005 0.16856259
vt 0.068226516 0.11944264
vt 0.10509932 0.08924526
vt 0.14548719 0.08924526
vt 0.18236005 0.11944264
vt 0.068226516 0.16856259
vt 0.10509932 0.118314326
vt 0.10509932 0.08924526
vt 0.068226516 0.11944264
vt 0.13955596 0.68740386
vt 0.1545758 0.68740386
vt 0.15384611 0.6706811
vt 0.14028564 0.6706811
vt 0.1545758 0.68740386
vt 0.15384611 0.6706811
vt 0.15384611 0.6706811
vt 0.1545758 0.68740386
vt 0.13955596 0.68740386
vt 0.14028564 0.6706811
vt 0.15384611 0.6706811
vt 0.1545758 0.68740386
vt 0.13955596 0.68740386
vt 0.14028564 0.6706811
vt 0.14028564 0.6706811
vt 0.13955596 0.68740386
vn -0 0.5560081 0.8311768
vn -0 0.5560081 0.8311768
vn -0 0.5560081 0.8311768
vn -0 0.5560081 0.8311768
vn 0.9727278 0.1947087 -0.12605181
vn 0.9727278 0.1947087 -0.12605183
vn 0.9727278 0.19470872 -0.12605183
vn 0.9727278 0.19470869 -0.12605181
vn -0 -0.11242709 -0.99366003
vn -0 -0.11242709 -0.99366003
vn -0 -0.11242711 -0.99366003
vn -0 -0.11242711 -0.99366003
vn -0.972727 0.19471288 -0.12605171
vn -0.972727 0.19471286 -0.12605171
vn -0.972727 0.19471289 -0.12605172
vn -0.972727 0.19471288 -0.12605171
vn -0 0.8394486 -0.5434391
vn -0 0.8394486 -0.5434391
vn -0 0.8394486 -0.5434391
vn -0 0.8394486 -0.5434391
vn -0 -0.32814914 0.9446259
vn -0 -0.32814914 0.9446259
vn -0 -0.32814914 0.9446259
vn -0 -0.32814914 0.9446259
vn 0.9885649 -0.15079562 0
vn 0.9885649 -0.15079564 0
vn 0.9885649 -0.15079564 0
vn 0.9885649 -0.15079564 0
vn -0 0.32741162 -0.94488186
vn -0 0.32741162 -0.94488186
vn -0 0.32741162 -0.94488186
vn -0 0.32741162 -0.94488186
vn -0.98856455 -0.15079838 0
vn -0.98856455 -0.1507984 0
vn -0.98856455 -0.1507984 0
vn -0.98856455 -0.15079838 0
vn -0 0.72937536 0.68411374
vn -0 0.7293753 0.68411374
vn -0 0.72937536 0.68411374
vn -0 0.7293754 0.68411374
vn 0.9812469 0.18347152 -0.059100002
vn 0.9812469 0.1834715 -0.059100006
vn 0.9812469 0.18347152 -0.059100013
vn 0.9812469 0.18347152 -0.059100002
vn 0.9812469 0.18347152 -0.059100013
vn 0.9812469 0.18347152 -0.059100002
vn -0 -0.8321195 -0.55459625
vn -0 -0.8321195 -0.5545963
vn -0 -0.8321195 -0.5545963
vn -0 -0.8321195 -0.55459625
vn -0.98124677 0.1834715 -0.059101008
vn -0.98124677 0.18347149 -0.059100993
vn -0.98124677 0.1834715 -0.059101004
vn -0.98124677 0.1834715 -0.059101008
vn -0.98124677 0.1834715 -0.059101004
vn -0.98124677 0.1834715 -0.059101008
vn -0 -0.041603334 0.99913424
vn -0 -0.041603334 0.99913424
vn -0 -0.041603334 0.99913424
vn -0 -0.041603334 0.99913424
vn 0.9998005 -0.01997748 0
vn 0.9998005 -0.019977478 0
vn 0.9998005 -0.019977476 0
vn 0.9998005 -0.019977476 0
vn -0 0.050294753 -0.9987344
vn -0 0.050294746 -0.9987344
vn -0 0.050294746 -0.9987344
vn -0 0.050294753 -0.9987344
vn -0.9998004 -0.019982193 0
vn -0.9998004 -0.019982195 0
vn -0.9998004 -0.019982193 0
vn -0.9998004 -0.019982193 0
vn -0 -0.027098168 0.99963284
vn -0 -0.027098168 0.99963284
vn -0 -0.027098168 0.99963284
vn -0 -0.027098168 0.99963284
vn 0.8364098 -0.46010438 0.29786348
vn 0.8364098 -0.46010438 0.29786348
vn 0.8364098 -0.46010438 0.29786348
vn 0.8364098 -0.46010438 0.29786342
vn -0 -0.700132 -0.7140134
vn -0 -0.700132 -0.7140134
vn -0 -0.700132 -0.7140134
vn -0 -0.700132 -0.7140134
vn -0.8364088 -0.46010652 0.29786313
vn -0.8364088 -0.46010652 0.29786313
vn -0.8364087 -0.4601065 0.2978631
vn -0.8364087 -0.4601065 0.2978631
vn -0 -0.0043146084 0.9999907
vn -0 -0.0043146084 0.9999907
vn -0 -0.0043146084 0.9999907
vn -0 -0.0043146084 0.9999907
vn 0.99948394 -0.03212049 0
vn 0.99948394 -0.03212049 0
vn 0.99948394 -0.03212049 0
vn 0.99948394 -0.03212049 0
vn -0 -0.034917735 -0.99939024
vn -0 -0.034917735 -0.99939024
vn -0 -0.034917735 -0.99939024
vn -0 -0.034917735 -0.99939024
vn -0.99948394 -0.03212068 0
vn -0.99948394 -0.032120682 0
vn -0.99948394 -0.03212068 0
vn -0.99948394 -0.03212068 0
g WEP_Bow01_b01_0
f 3/3/3 2/2/2 1/1/1
f 4/4/4 3/3/3 1/1/1
f 7/7/7 6/6/6 5/5/5
f 8/8/8 7/7/7 5/5/5
f 11/11/11 10/10/10 9/9/9
f 12/12/12 11/11/11 9/9/9
f 15/15/15 14/14/14 13/13/13
f 16/16/16 15/15/15 13/13/13
f 19/19/19 18/18/18 17/17/17
f 20/20/20 19/19/19 17/17/17
f 23/23/23 22/22/22 21/21/21
f 24/24/24 23/23/23 21/21/21
f 27/27/27 26/26/26 25/25/25
f 28/28/28 27/27/27 25/25/25
f 31/31/31 30/30/30 29/29/29
f 32/32/32 31/31/31 29/29/29
f 35/35/35 34/34/34 33/33/33
f 36/36/36 35/35/35 33/33/33
f 39/39/39 38/38/38 37/37/37
f 40/40/40 39/39/39 37/37/37
f 43/43/43 42/42/42 41/41/41
f 46/46/46 45/45/45 44/44/44
f 49/49/49 48/48/48 47/47/47
f 50/50/50 49/49/49 47/47/47
f 53/53/53 52/52/52 51/51/51
f 56/56/56 55/55/55 54/54/54
f 59/59/59 58/58/58 57/57/57
f 60/60/60 59/59/59 57/57/57
f 63/63/63 62/62/62 61/61/61
f 64/64/64 63/63/63 61/61/61
f 67/67/67 66/66/66 65/65/65
f 68/68/68 67/67/67 65/65/65
f 71/71/71 70/70/70 69/69/69
f 72/72/72 71/71/71 69/69/69
f 75/75/75 74/74/74 73/73/73
f 76/76/76 75/75/75 73/73/73
f 79/79/79 78/78/78 77/77/77
f 80/80/80 79/79/79 77/77/77
f 83/83/83 82/82/82 81/81/81
f 84/84/84 83/83/83 81/81/81
f 87/87/87 86/86/86 85/85/85
f 88/88/88 87/87/87 85/85/85
f 91/91/91 90/90/90 89/89/89
f 92/92/92 91/91/91 89/89/89
f 95/95/95 94/94/94 93/93/93
f 96/96/96 95/95/95 93/93/93
f 99/99/99 98/98/98 97/97/97
f 100/100/100 99/99/99 97/97/97
f 103/103/103 102/102/102 101/101/101
f 104/104/104 103/103/103 101/101/101
