g wingR3
v 0.27516595 -0.17385246 -0.2551077
v 0.11616866 -0.059536595 -0.1682532
v 0.2495315 -0.19047834 -0.09359784
v -0.007699923 -0.010159033 -0.03385142
v 0.029111845 -0.042942304 -0.006484825
v 0.11616866 -0.059536595 -0.1682532
v 0.097072825 -0.04292764 -0.18932201
v -0.007829503 -0.028825836 0.034909945
v 0.097072825 -0.04292764 -0.18932201
v 0.11616866 -0.059536595 -0.1682532
v 0.27516595 -0.17385246 -0.2551077
v 0.2678598 -0.15036084 -0.33057508
v 0.2678598 -0.15036084 -0.33057508
v 0.27516595 -0.17385246 -0.2551077
v 0.3843617 -0.32470778 -0.24450994
v 0.39826885 -0.3017744 -0.3467339
v 0.2373537 -0.25208047 0.10969694
v 0.029111845 -0.042942304 -0.006484825
v -0.007829503 -0.028825836 0.034909945
v 0.029111845 -0.042942304 -0.006484825
v 0.2495315 -0.19047834 -0.09359784
v 0.11616866 -0.059536595 -0.1682532
v 0.3843617 -0.32470778 -0.24450994
v 0.27516595 -0.17385246 -0.2551077
v 0.2495315 -0.19047834 -0.09359784
v 0.2373537 -0.25208047 0.10969694
v 0.31428787 -0.3287113 -0.053107884
v 0.2495315 -0.19047834 -0.09359784
v 0.31428787 -0.3287113 -0.053107884
v 0.3843617 -0.32470778 -0.24450994
v 0.2495315 -0.19047834 -0.09359784
v 0.029111845 -0.042942304 -0.006484825
v 0.2373537 -0.25208047 0.10969694
v 0.2495315 -0.19047834 -0.09359784
v 0.16630022 -0.3160148 0.0963429
v 0.09721021 -0.16517533 0.03818586
v 0.092414096 -0.1859097 0.18575719
v 0.03226696 -0.1978863 0.40968114
v 0.15654378 -0.38082495 0.29112667
v 0.059382245 -0.2017503 0.33574438
v -0.024742084 -0.030813115 0.10152403
v -0.035266116 -0.06689747 0.25378266
v 0.0019372541 -0.09399058 0.23606983
v 0.0019372541 -0.09399058 0.23606983
v 0.092414096 -0.1859097 0.18575719
v 0.09721021 -0.16517533 0.03818586
v -0.008404867 -0.036361832 0.049272154
v -0.024742084 -0.030813115 0.10152403
v 0.059382245 -0.2017503 0.33574438
v 0.15654378 -0.38082495 0.29112667
v 0.16630022 -0.3160148 0.0963429
v 0.092414096 -0.1859097 0.18575719
v 0.0019372541 -0.09399058 0.23606983
v 0.059382245 -0.2017503 0.33574438
v 0.092414096 -0.1859097 0.18575719
v -0.035266116 -0.06689747 0.25378266
v 0.03226696 -0.1978863 0.40968114
v 0.059382245 -0.2017503 0.33574438
v 0.0019372541 -0.09399058 0.23606983
v 0.27516595 -0.17385246 -0.2551077
v 0.2495315 -0.19047834 -0.09359784
v 0.11616866 -0.059536595 -0.1682532
v -0.007699923 -0.010159033 -0.03385142
v 0.097072825 -0.04292764 -0.18932201
v 0.11616866 -0.059536595 -0.1682532
v 0.029111845 -0.042942304 -0.006484825
v -0.007829503 -0.028825836 0.034909945
v 0.097072825 -0.04292764 -0.18932201
v 0.2678598 -0.15036084 -0.33057508
v 0.27516595 -0.17385246 -0.2551077
v 0.11616866 -0.059536595 -0.1682532
v 0.2678598 -0.15036084 -0.33057508
v 0.39826885 -0.3017744 -0.3467339
v 0.3843617 -0.32470778 -0.24450994
v 0.27516595 -0.17385246 -0.2551077
v 0.2373537 -0.25208047 0.10969694
v -0.007829503 -0.028825836 0.034909945
v 0.029111845 -0.042942304 -0.006484825
v 0.029111845 -0.042942304 -0.006484825
v 0.11616866 -0.059536595 -0.1682532
v 0.2495315 -0.19047834 -0.09359784
v 0.3843617 -0.32470778 -0.24450994
v 0.2495315 -0.19047834 -0.09359784
v 0.27516595 -0.17385246 -0.2551077
v 0.2373537 -0.25208047 0.10969694
v 0.2495315 -0.19047834 -0.09359784
v 0.31428787 -0.3287113 -0.053107884
v 0.31428787 -0.3287113 -0.053107884
v 0.2495315 -0.19047834 -0.09359784
v 0.3843617 -0.32470778 -0.24450994
v 0.029111845 -0.042942304 -0.006484825
v 0.2495315 -0.19047834 -0.09359784
v 0.2373537 -0.25208047 0.10969694
v 0.16630022 -0.3160148 0.0963429
v 0.092414096 -0.1859097 0.18575719
v 0.09721021 -0.16517533 0.03818586
v 0.03226696 -0.1978863 0.40968114
v 0.059382245 -0.2017503 0.33574438
v 0.15654378 -0.38082495 0.29112667
v -0.024742084 -0.030813115 0.10152403
v 0.0019372541 -0.09399058 0.23606983
v -0.035266116 -0.06689747 0.25378266
v 0.09721021 -0.16517533 0.03818586
v 0.092414096 -0.1859097 0.18575719
v 0.0019372541 -0.09399058 0.23606983
v -0.008404867 -0.036361832 0.049272154
v -0.024742084 -0.030813115 0.10152403
v 0.059382245 -0.2017503 0.33574438
v 0.092414096 -0.1859097 0.18575719
v 0.16630022 -0.3160148 0.0963429
v 0.15654378 -0.38082495 0.29112667
v 0.0019372541 -0.09399058 0.23606983
v 0.092414096 -0.1859097 0.18575719
v 0.059382245 -0.2017503 0.33574438
v -0.035266116 -0.06689747 0.25378266
v 0.0019372541 -0.09399058 0.23606983
v 0.059382245 -0.2017503 0.33574438
v 0.03226696 -0.1978863 0.40968114
vt 0.30180997 0.97640145
vt 0.34845096 0.9570089
vt 0.3049789 0.93785846
vt 0.468624 0.45186648
vt 0.46218532 0.44807902
vt 0.4514535 0.4700017
vt 0.45473194 0.4728515
vt 0.46730983 0.44248572
vt 0.45473194 0.4728515
vt 0.4514535 0.4700017
vt 0.42510945 0.48095512
vt 0.42762503 0.49121273
vt 0.42762503 0.49121273
vt 0.42510945 0.48095512
vt 0.400589 0.47766328
vt 0.40081915 0.49169588
vt 0.42365968 0.43113172
vt 0.46218532 0.44807902
vt 0.46730983 0.44248572
vt 0.23766738 0.5448917
vt 0.1875104 0.56067824
vt 0.2224127 0.5760535
vt 0.1501118 0.58694386
vt 0.1849662 0.5916232
vt 0.1875104 0.56067824
vt 0.18290544 0.52080214
vt 0.1606192 0.54997265
vt 0.1875104 0.56067824
vt 0.27148497 0.92452425
vt 0.25839764 0.97057325
vt 0.3049789 0.93785846
vt 0.36745113 0.9181957
vt 0.29924327 0.88819134
vt 0.3049789 0.93785846
vt 0.1686292 0.58394355
vt 0.19812372 0.59811246
vt 0.19767472 0.5702935
vt 0.45172268 0.38881516
vt 0.42158282 0.40164238
vt 0.44846374 0.39861497
vt 0.47063553 0.43141913
vt 0.4691906 0.41087848
vt 0.4632712 0.41306642
vt 0.3466004 0.9363911
vt 0.31915474 0.9454065
vt 0.3196566 0.97649825
vt 0.35454196 0.9765174
vt 0.35833907 0.965645
vt 0.32299757 0.91335565
vt 0.28014976 0.9181813
vt 0.28669214 0.96066236
vt 0.31915474 0.9454065
vt 0.22223139 0.56222713
vt 0.20111302 0.54161644
vt 0.19767472 0.5702935
vt 0.4691906 0.41087848
vt 0.45172268 0.38881516
vt 0.44846374 0.39861497
vt 0.4632712 0.41306642
vt 0.30180997 0.97640145
vt 0.3049789 0.93785846
vt 0.34845096 0.9570089
vt 0.468624 0.45186648
vt 0.45473194 0.4728515
vt 0.4514535 0.4700017
vt 0.46218532 0.44807902
vt 0.46730983 0.44248572
vt 0.45473194 0.4728515
vt 0.42762503 0.49121273
vt 0.42510945 0.48095512
vt 0.4514535 0.4700017
vt 0.42762503 0.49121273
vt 0.40081915 0.49169588
vt 0.400589 0.47766328
vt 0.42510945 0.48095512
vt 0.42365968 0.43113172
vt 0.46730983 0.44248572
vt 0.46218532 0.44807902
vt 0.23766738 0.5448917
vt 0.2224127 0.5760535
vt 0.1875104 0.56067824
vt 0.1501118 0.58694386
vt 0.1875104 0.56067824
vt 0.1849662 0.5916232
vt 0.18290544 0.52080214
vt 0.1875104 0.56067824
vt 0.1606192 0.54997265
vt 0.27148497 0.92452425
vt 0.3049789 0.93785846
vt 0.25839764 0.97057325
vt 0.36745113 0.9181957
vt 0.3049789 0.93785846
vt 0.29924327 0.88819134
vt 0.1686292 0.58394355
vt 0.19767472 0.5702935
vt 0.19812372 0.59811246
vt 0.45172268 0.38881516
vt 0.44846374 0.39861497
vt 0.42158282 0.40164238
vt 0.47063553 0.43141913
vt 0.4632712 0.41306642
vt 0.4691906 0.41087848
vt 0.3196566 0.97649825
vt 0.31915474 0.9454065
vt 0.3466004 0.9363911
vt 0.35454196 0.9765174
vt 0.35833907 0.965645
vt 0.32299757 0.91335565
vt 0.31915474 0.9454065
vt 0.28669214 0.96066236
vt 0.28014976 0.9181813
vt 0.22223139 0.56222713
vt 0.19767472 0.5702935
vt 0.20111302 0.54161644
vt 0.4691906 0.41087848
vt 0.4632712 0.41306642
vt 0.44846374 0.39861497
vt 0.45172268 0.38881516
vn -0.6367519 -0.750174 -0.17828672
vn -0.6367519 -0.750174 -0.17828672
vn -0.63675183 -0.75017387 -0.17828669
vn -0.5441008 -0.8142637 -0.20230928
vn -0.5441007 -0.8142637 -0.20230931
vn -0.5441007 -0.8142637 -0.20230931
vn -0.5441008 -0.8142637 -0.20230928
vn -0.5528966 -0.803881 -0.21927316
vn -0.6209538 -0.7694042 -0.14977911
vn -0.6209538 -0.7694042 -0.14977911
vn -0.6209538 -0.7694042 -0.14977911
vn -0.6209538 -0.76940405 -0.14977905
vn -0.7714314 -0.6080537 -0.18752158
vn -0.7714314 -0.6080537 -0.18752158
vn -0.7714314 -0.6080537 -0.18752158
vn -0.7714314 -0.6080537 -0.1875216
vn -0.5988592 -0.750925 -0.27835095
vn -0.5988592 -0.750925 -0.27835092
vn -0.5988592 -0.750925 -0.27835092
vn -0.6046087 -0.75702286 -0.24771889
vn -0.6046087 -0.75702286 -0.24771897
vn -0.6046088 -0.75702286 -0.24771893
vn -0.7897531 -0.58469325 -0.18553646
vn -0.7897531 -0.58469325 -0.18553646
vn -0.78975314 -0.58469325 -0.18553643
vn -0.8659632 -0.46185622 -0.1918242
vn -0.8659632 -0.46185622 -0.1918242
vn -0.8659632 -0.46185622 -0.1918242
vn -0.8223908 -0.4763647 -0.31104696
vn -0.8223908 -0.4763647 -0.31104696
vn -0.8223908 -0.47636464 -0.31104696
vn -0.60635096 -0.75021756 -0.26365158
vn -0.60635096 -0.75021756 -0.26365158
vn -0.60635096 -0.75021756 -0.26365158
vn -0.8915745 -0.44357556 -0.091299936
vn -0.89157444 -0.4435756 -0.091299966
vn -0.89157444 -0.44357556 -0.09129998
vn -0.86824226 -0.39692047 -0.29767334
vn -0.86824226 -0.39692044 -0.29767326
vn -0.86824226 -0.39692047 -0.29767326
vn -0.64034295 -0.73627967 -0.2187536
vn -0.64034295 -0.73627967 -0.21875364
vn -0.6403429 -0.7362797 -0.21875362
vn -0.75719 -0.63824874 -0.13893151
vn -0.7571899 -0.63824874 -0.13893153
vn -0.7571899 -0.63824874 -0.13893153
vn -0.7571899 -0.63824874 -0.1389315
vn -0.7571899 -0.63824874 -0.13893153
vn -0.8913676 -0.40418714 -0.20517442
vn -0.8913676 -0.4041872 -0.20517446
vn -0.8913676 -0.4041871 -0.20517446
vn -0.8913676 -0.4041872 -0.20517446
vn -0.7536297 -0.61538404 -0.23096487
vn -0.7536297 -0.6153841 -0.23096491
vn -0.7536297 -0.6153841 -0.23096487
vn -0.70270514 -0.6578749 -0.27093568
vn -0.7027051 -0.6578749 -0.27093562
vn -0.7027051 -0.65787494 -0.27093562
vn -0.7027051 -0.6578749 -0.2709356
vn 0.636752 0.75017387 0.1782865
vn 0.63675207 0.75017375 0.17828646
vn 0.6367522 0.75017375 0.17828645
vn 0.54410064 0.81426376 0.20230934
vn 0.5441006 0.81426376 0.20230931
vn 0.54410064 0.81426376 0.20230934
vn 0.54410064 0.81426376 0.20230934
vn 0.55289716 0.8038808 0.21927269
vn 0.6209536 0.7694042 0.14977916
vn 0.6209537 0.7694042 0.14977916
vn 0.6209536 0.7694042 0.14977916
vn 0.6209536 0.7694042 0.14977916
vn 0.7714313 0.6080538 0.1875217
vn 0.7714312 0.60805374 0.1875217
vn 0.7714312 0.60805374 0.18752168
vn 0.7714312 0.60805374 0.18752165
vn 0.5988592 0.750925 0.27835098
vn 0.5988592 0.750925 0.27835098
vn 0.5988592 0.750925 0.27835098
vn 0.6046087 0.75702286 0.24771889
vn 0.6046088 0.75702286 0.24771893
vn 0.6046087 0.75702286 0.24771897
vn 0.7897534 0.584693 0.18553627
vn 0.7897534 0.584693 0.18553627
vn 0.7897533 0.5846931 0.18553628
vn 0.8659632 0.46185628 0.19182427
vn 0.8659632 0.46185628 0.19182427
vn 0.8659632 0.46185628 0.19182429
vn 0.8223908 0.4763647 0.31104696
vn 0.8223908 0.47636464 0.31104696
vn 0.8223908 0.4763647 0.31104696
vn 0.60635096 0.75021756 0.26365158
vn 0.60635096 0.75021756 0.26365158
vn 0.60635096 0.75021756 0.26365158
vn 0.8915746 0.44357532 0.09129984
vn 0.8915746 0.44357526 0.09129981
vn 0.8915746 0.44357532 0.091299854
vn 0.86824226 0.39692047 0.29767334
vn 0.86824226 0.39692047 0.29767329
vn 0.86824226 0.39692044 0.29767326
vn 0.6403419 0.7362804 0.21875437
vn 0.64034194 0.7362803 0.21875435
vn 0.64034194 0.7362804 0.21875435
vn 0.7571897 0.6382489 0.13893177
vn 0.7571897 0.6382489 0.1389318
vn 0.7571897 0.6382489 0.13893175
vn 0.7571897 0.6382489 0.13893181
vn 0.7571897 0.6382489 0.13893175
vn 0.8913676 0.40418714 0.2051744
vn 0.8913676 0.4041872 0.20517443
vn 0.8913676 0.40418714 0.2051744
vn 0.8913676 0.40418723 0.20517445
vn 0.75362957 0.6153841 0.23096494
vn 0.75362957 0.6153841 0.23096493
vn 0.75362957 0.6153841 0.2309649
vn 0.7027051 0.65787494 0.27093562
vn 0.7027051 0.6578749 0.27093562
vn 0.7027051 0.6578749 0.27093562
vn 0.7027051 0.6578749 0.27093562
g wingR3_0
f 3/3/3 2/2/2 1/1/1
f 6/6/6 5/5/5 4/4/4
f 7/7/7 6/6/6 4/4/4
f 4/4/4 5/5/5 8/8/8
f 11/11/11 10/10/10 9/9/9
f 12/12/12 11/11/11 9/9/9
f 15/15/15 14/14/14 13/13/13
f 16/16/16 15/15/15 13/13/13
f 19/19/19 18/18/18 17/17/17
f 22/22/22 21/21/21 20/20/20
f 25/25/25 24/24/24 23/23/23
f 28/28/28 27/27/27 26/26/26
f 31/31/31 30/30/30 29/29/29
f 34/34/34 33/33/33 32/32/32
f 37/37/37 36/36/36 35/35/35
f 40/40/40 39/39/39 38/38/38
f 43/43/43 42/42/42 41/41/41
f 46/46/46 45/45/45 44/44/44
f 44/44/44 47/47/47 46/46/46
f 44/44/44 48/48/48 47/47/47
f 51/51/51 50/50/50 49/49/49
f 52/52/52 51/51/51 49/49/49
f 55/55/55 54/54/54 53/53/53
f 58/58/58 57/57/57 56/56/56
f 59/59/59 58/58/58 56/56/56
f 62/62/62 61/61/61 60/60/60
f 65/65/65 64/64/64 63/63/63
f 66/66/66 65/65/65 63/63/63
f 66/66/66 63/63/63 67/67/67
f 70/70/70 69/69/69 68/68/68
f 71/71/71 70/70/70 68/68/68
f 74/74/74 73/73/73 72/72/72
f 75/75/75 74/74/74 72/72/72
f 78/78/78 77/77/77 76/76/76
f 81/81/81 80/80/80 79/79/79
f 84/84/84 83/83/83 82/82/82
f 87/87/87 86/86/86 85/85/85
f 90/90/90 89/89/89 88/88/88
f 93/93/93 92/92/92 91/91/91
f 96/96/96 95/95/95 94/94/94
f 99/99/99 98/98/98 97/97/97
f 102/102/102 101/101/101 100/100/100
f 105/105/105 104/104/104 103/103/103
f 103/103/103 106/106/106 105/105/105
f 106/106/106 107/107/107 105/105/105
f 110/110/110 109/109/109 108/108/108
f 111/111/111 110/110/110 108/108/108
f 114/114/114 113/113/113 112/112/112
f 117/117/117 116/116/116 115/115/115
f 118/118/118 117/117/117 115/115/115
